<svg width="57" height="52" viewBox="0 0 57 52" fill="none" xmlns="http://www.w3.org/2000/svg">
<path fill-rule="evenodd" clip-rule="evenodd" d="M33.6676 9H6.33242C2.83509 9 0 11.7886 0 15.2285V38.3649C0 41.8048 2.83517 44.5933 6.3325 44.5933H13.8075L19.1824 51.5995C19.5922 52.1335 20.4077 52.1335 20.8175 51.5995L26.1924 44.5933H33.6676C37.1649 44.5933 40 41.8048 40 38.365V15.2285C40 11.7886 37.1649 9 33.6676 9Z" fill="#1BC1CE"/>
<path fill-rule="evenodd" clip-rule="evenodd" d="M43 0C35.268 0 29 5.37255 29 12C29 14.2508 29.7236 16.3565 30.9813 18.1564L29.1656 22.9034L34.841 21.7519C37.1382 23.1666 39.9554 24 43 24C50.732 24 57 18.6275 57 12C57 5.37255 50.732 0 43 0Z" fill="#FF713C"/>
<path d="M12.2972 27.12C11.5839 27.12 10.9372 26.9667 10.3572 26.66C9.78385 26.3467 9.33052 25.9167 8.99719 25.37C8.67052 24.8167 8.50719 24.1933 8.50719 23.5C8.50719 22.8067 8.67052 22.1867 8.99719 21.64C9.33052 21.0867 9.78385 20.6567 10.3572 20.35C10.9372 20.0367 11.5872 19.88 12.3072 19.88C12.9139 19.88 13.4605 19.9867 13.9472 20.2C14.4405 20.4133 14.8539 20.72 15.1872 21.12L14.1472 22.08C13.6739 21.5333 13.0872 21.26 12.3872 21.26C11.9539 21.26 11.5672 21.3567 11.2272 21.55C10.8872 21.7367 10.6205 22 10.4272 22.34C10.2405 22.68 10.1472 23.0667 10.1472 23.5C10.1472 23.9333 10.2405 24.32 10.4272 24.66C10.6205 25 10.8872 25.2667 11.2272 25.46C11.5672 25.6467 11.9539 25.74 12.3872 25.74C13.0872 25.74 13.6739 25.4633 14.1472 24.91L15.1872 25.87C14.8539 26.2767 14.4405 26.5867 13.9472 26.8C13.4539 27.0133 12.9039 27.12 12.2972 27.12ZM19.4412 21.54C20.1078 21.54 20.6445 21.74 21.0512 22.14C21.4645 22.54 21.6712 23.1333 21.6712 23.92V27H20.1112V24.16C20.1112 23.7333 20.0178 23.4167 19.8312 23.21C19.6445 22.9967 19.3745 22.89 19.0212 22.89C18.6278 22.89 18.3145 23.0133 18.0812 23.26C17.8478 23.5 17.7312 23.86 17.7312 24.34V27H16.1712V19.58H17.7312V22.18C17.9378 21.9733 18.1878 21.8167 18.4812 21.71C18.7745 21.5967 19.0945 21.54 19.4412 21.54ZM25.2552 21.54C26.0886 21.54 26.7286 21.74 27.1752 22.14C27.6219 22.5333 27.8452 23.13 27.8452 23.93V27H26.3852V26.33C26.0919 26.83 25.5452 27.08 24.7452 27.08C24.3319 27.08 23.9719 27.01 23.6652 26.87C23.3652 26.73 23.1352 26.5367 22.9752 26.29C22.8152 26.0433 22.7352 25.7633 22.7352 25.45C22.7352 24.95 22.9219 24.5567 23.2952 24.27C23.6752 23.9833 24.2586 23.84 25.0452 23.84H26.2852C26.2852 23.5 26.1819 23.24 25.9752 23.06C25.7686 22.8733 25.4586 22.78 25.0452 22.78C24.7586 22.78 24.4752 22.8267 24.1952 22.92C23.9219 23.0067 23.6886 23.1267 23.4952 23.28L22.9352 22.19C23.2286 21.9833 23.5786 21.8233 23.9852 21.71C24.3986 21.5967 24.8219 21.54 25.2552 21.54ZM25.1352 26.03C25.4019 26.03 25.6386 25.97 25.8452 25.85C26.0519 25.7233 26.1986 25.54 26.2852 25.3V24.75H25.2152C24.5752 24.75 24.2552 24.96 24.2552 25.38C24.2552 25.58 24.3319 25.74 24.4852 25.86C24.6452 25.9733 24.8619 26.03 25.1352 26.03ZM32.7271 26.74C32.5738 26.8533 32.3838 26.94 32.1571 27C31.9371 27.0533 31.7038 27.08 31.4571 27.08C30.8171 27.08 30.3204 26.9167 29.9671 26.59C29.6204 26.2633 29.4471 25.7833 29.4471 25.15V22.94H28.6171V21.74H29.4471V20.43H31.0071V21.74H32.3471V22.94H31.0071V25.13C31.0071 25.3567 31.0638 25.5333 31.1771 25.66C31.2971 25.78 31.4638 25.84 31.6771 25.84C31.9238 25.84 32.1338 25.7733 32.3071 25.64L32.7271 26.74ZM17.8433 37.12C16.8433 37.12 16.0633 36.8433 15.5033 36.29C14.95 35.7367 14.6733 34.9467 14.6733 33.92V30H16.2933V33.86C16.2933 35.1133 16.8133 35.74 17.8533 35.74C18.36 35.74 18.7467 35.59 19.0133 35.29C19.28 34.9833 19.4133 34.5067 19.4133 33.86V30H21.0133V33.92C21.0133 34.9467 20.7333 35.7367 20.1733 36.29C19.62 36.8433 18.8433 37.12 17.8433 37.12ZM24.3142 37.08C23.8675 37.08 23.4308 37.0267 23.0042 36.92C22.5775 36.8067 22.2375 36.6667 21.9842 36.5L22.5042 35.38C22.7442 35.5333 23.0342 35.66 23.3742 35.76C23.7142 35.8533 24.0475 35.9 24.3742 35.9C25.0342 35.9 25.3642 35.7367 25.3642 35.41C25.3642 35.2567 25.2742 35.1467 25.0942 35.08C24.9142 35.0133 24.6375 34.9567 24.2642 34.91C23.8242 34.8433 23.4608 34.7667 23.1742 34.68C22.8875 34.5933 22.6375 34.44 22.4242 34.22C22.2175 34 22.1142 33.6867 22.1142 33.28C22.1142 32.94 22.2108 32.64 22.4042 32.38C22.6042 32.1133 22.8908 31.9067 23.2642 31.76C23.6442 31.6133 24.0908 31.54 24.6042 31.54C24.9842 31.54 25.3608 31.5833 25.7342 31.67C26.1142 31.75 26.4275 31.8633 26.6742 32.01L26.1542 33.12C25.6808 32.8533 25.1642 32.72 24.6042 32.72C24.2708 32.72 24.0208 32.7667 23.8542 32.86C23.6875 32.9533 23.6042 33.0733 23.6042 33.22C23.6042 33.3867 23.6942 33.5033 23.8742 33.57C24.0542 33.6367 24.3408 33.7 24.7342 33.76C25.1742 33.8333 25.5342 33.9133 25.8142 34C26.0942 34.08 26.3375 34.23 26.5442 34.45C26.7508 34.67 26.8542 34.9767 26.8542 35.37C26.8542 35.7033 26.7542 36 26.5542 36.26C26.3542 36.52 26.0608 36.7233 25.6742 36.87C25.2942 37.01 24.8408 37.08 24.3142 37.08Z" fill="white"/>
<mask id="mask0" mask-type="alpha" maskUnits="userSpaceOnUse" x="34" y="3" width="18" height="19">
<path fill-rule="evenodd" clip-rule="evenodd" d="M34 3.0498H52V21.0002H34V3.0498Z" fill="white"/>
</mask>
<g mask="url(#mask0)">
<path fill-rule="evenodd" clip-rule="evenodd" d="M43 19.9662C42.6587 19.9662 42.3811 19.6872 42.3811 19.3443C42.3811 19.0013 42.6587 18.7222 43 18.7222C43.3413 18.7222 43.619 19.0013 43.619 19.3443C43.619 19.6872 43.3413 19.9662 43 19.9662ZM35.029 12.5408H35.9662V10.6346H35.029V12.5408ZM50.0338 12.5408H50.971V10.6345H50.0338V12.5408ZM51.1205 9.60059H50.0152C49.96 8.82902 49.7805 8.07824 49.4808 7.36633C49.1266 6.52467 48.6195 5.76885 47.9736 5.11998C47.3279 4.47102 46.5757 3.96146 45.738 3.60537C44.8704 3.23676 43.9492 3.0498 43 3.0498C42.0508 3.0498 41.1296 3.23676 40.2619 3.60546C39.4242 3.96154 38.6721 4.47102 38.0265 5.11998C37.3806 5.76876 36.8735 6.52459 36.5192 7.36633C36.2195 8.07824 36.0401 8.82902 35.9848 9.60059H34.8796C34.3946 9.60059 34 9.99702 34 10.4843V12.691C34 13.1782 34.3946 13.5748 34.8796 13.5748H36.9953V10.1175C36.9953 9.30285 37.154 8.51276 37.4669 7.76911C37.7694 7.05059 38.2025 6.4052 38.754 5.85102C39.3057 5.29676 39.9479 4.86163 40.6629 4.55772C41.4028 4.24328 42.1891 4.0838 43 4.0838C43.811 4.0838 44.5972 4.24328 45.3371 4.55772C46.0521 4.86163 46.6944 5.29676 47.2461 5.85102C47.7976 6.40528 48.2306 7.05067 48.5331 7.76911C48.8461 8.51267 49.0048 9.30276 49.0048 10.1175V12.7935C49.0048 13.5151 48.8794 14.2208 48.6323 14.8907C48.3933 15.5382 48.0473 16.1361 47.6037 16.6676C46.7987 17.6324 45.6973 18.3288 44.4894 18.6397C44.2194 18.0648 43.6391 17.6883 43 17.6883C42.0913 17.6883 41.352 18.4312 41.352 19.3443C41.352 20.2574 42.0913 21.0002 43 21.0002C43.7873 21.0002 44.4607 20.4376 44.6141 19.6726C46.082 19.3251 47.42 18.4971 48.3922 17.3321C48.9119 16.7092 49.3173 16.0087 49.5972 15.2502C49.7961 14.7108 49.9285 14.148 49.9913 13.5748H51.1205C51.6055 13.5748 52 13.1782 52 12.691V10.4843C52 9.99702 51.6055 9.60059 51.1205 9.60059Z" fill="white"/>
</g>
<path fill-rule="evenodd" clip-rule="evenodd" d="M40.5 12.1116C40.7142 12.1116 40.8884 12.2858 40.8884 12.5C40.8884 12.7142 40.7142 12.8884 40.5 12.8884C40.2858 12.8884 40.1116 12.7142 40.1116 12.5C40.1116 12.2858 40.2858 12.1116 40.5 12.1116ZM42 12.5C42 11.673 41.3271 11 40.5 11C39.6729 11 39 11.673 39 12.5C39 13.327 39.6729 14 40.5 14C41.3271 14 42 13.327 42 12.5Z" fill="white"/>
<path fill-rule="evenodd" clip-rule="evenodd" d="M45.5 12.8884C45.2857 12.8884 45.1115 12.7142 45.1115 12.5C45.1115 12.2858 45.2857 12.1116 45.5 12.1116C45.7142 12.1116 45.8884 12.2858 45.8884 12.5C45.8884 12.7142 45.7142 12.8884 45.5 12.8884ZM47 12.5C47 11.673 46.3271 11 45.5 11C44.6729 11 44 11.673 44 12.5C44 13.327 44.6729 14 45.5 14C46.3271 14 47 13.327 47 12.5Z" fill="white"/>
<path fill-rule="evenodd" clip-rule="evenodd" d="M45.7382 16.5286L46 16.3955L45.222 16L44.9604 16.133C44.5702 16.3314 44.0516 16.4406 43.5 16.4406C42.9484 16.4406 42.4297 16.3314 42.0396 16.133L41.778 16L41 16.3955L41.2618 16.5286C41.8596 16.8326 42.6544 17 43.5 17C44.3455 17 45.1405 16.8326 45.7382 16.5286Z" fill="white"/>
</svg>
