<svg width="29" height="29" viewBox="0 0 29 29" fill="none" xmlns="http://www.w3.org/2000/svg">
<rect width="29" height="29" rx="5" fill="#FFAA3C" fill-opacity="0.25"/>
<path d="M17.1951 5.00017C17.0489 5.00601 16.9079 5.03232 16.761 5.06886L6.82694 7.48917C5.65186 7.77709 4.91671 8.9624 5.20536 10.1382L6.59821 15.8251C6.68261 16.1638 6.84695 16.4774 7.07746 16.7395C7.30797 17.0017 7.59794 17.2048 7.92309 17.3319V15.9617C7.92309 13.947 9.56221 12.3079 11.5769 12.3079H20.7802L19.4101 6.66705C19.2889 6.17672 19.0023 5.74318 18.5987 5.43953C18.1951 5.13588 17.6991 4.9807 17.1944 5.00017H17.1951ZM18.0852 8.15197L18.6793 10.641L16.2129 11.2344L15.5962 8.76801L18.0852 8.15197ZM11.5769 13.7694C10.3668 13.7694 9.38463 14.7516 9.38463 15.9617V21.8079C9.38463 23.018 10.3668 24.0002 11.5769 24.0002H21.8077C23.0179 24.0002 24 23.018 24 21.8079V15.9617C24 14.7516 23.0179 13.7694 21.8077 13.7694H11.5769ZM11.5769 14.9342H21.8077C22.3711 14.9342 22.8352 15.3983 22.8352 15.9617V16.6925H10.5495V15.9617C10.5495 15.3983 11.0135 14.9342 11.5769 14.9342ZM10.5495 18.8848H22.8352V21.8079C22.8352 22.3713 22.3711 22.8353 21.8077 22.8353H11.5769C11.3049 22.8338 11.0445 22.725 10.8521 22.5327C10.6598 22.3403 10.551 22.0799 10.5495 21.8079V18.8848Z" fill="#FFAA3C"/>
</svg>
