<svg width="28" height="28" viewBox="0 0 28 28" fill="none" xmlns="http://www.w3.org/2000/svg">
<rect width="28" height="28" rx="8" fill="url(#paint0_linear_95_3679)" fill-opacity="0.24"/>
<path d="M7.76709 20.1206H13.1431V18.4873H7.90625C7.26172 18.4873 6.91748 18.165 6.91748 17.4912V12.2031H21.0752V14.4004C21.3462 14.3198 21.6392 14.2686 21.9321 14.2686C22.2031 14.2686 22.4595 14.2979 22.7085 14.3638V9.78613C22.7085 8.1748 21.8442 7.3252 20.2256 7.3252H7.76709C6.14844 7.3252 5.28418 8.1748 5.28418 9.78613V17.6597C5.28418 19.271 6.14844 20.1206 7.76709 20.1206ZM6.91748 9.95459C6.91748 9.28076 7.26172 8.95117 7.90625 8.95117H20.0864C20.7236 8.95117 21.0752 9.28076 21.0752 9.95459V10.4526H6.91748V9.95459ZM16.4976 20.7065H19.2515C19.5518 20.7065 19.7715 20.4868 19.7715 20.1938C19.7715 19.8862 19.5518 19.6665 19.2515 19.6665H17.6914V19.6299L18.5264 18.8096C19.3467 18.0112 19.6177 17.5498 19.6177 16.9712C19.6177 16.0703 18.834 15.3892 17.7939 15.3892C16.9736 15.3892 16.2705 15.8506 16.0508 16.5391C16.0068 16.6416 15.9849 16.7588 15.9849 16.8906C15.9849 17.1909 16.1973 17.4033 16.4902 17.4033C16.7539 17.4033 16.9077 17.2715 16.9883 16.9932C17.0103 16.9272 17.0249 16.876 17.0542 16.832C17.1934 16.561 17.457 16.4146 17.7939 16.4146C18.1821 16.4146 18.5044 16.6929 18.5044 17.0151C18.5044 17.3228 18.3726 17.5205 17.772 18.1138L16.2192 19.6519C16.0361 19.8276 15.9629 19.9888 15.9629 20.1792C15.9629 20.4868 16.1826 20.7065 16.4976 20.7065ZM21.9321 20.7798C23.0894 20.7798 23.9316 20.084 23.9316 19.1392C23.9316 18.5972 23.646 18.1431 23.2139 17.9233C23.5435 17.6816 23.7266 17.3081 23.7266 16.8687C23.7266 16.0117 22.9722 15.3892 21.9248 15.3892C21.1558 15.3892 20.5112 15.7407 20.2329 16.2974C20.1597 16.4512 20.123 16.627 20.123 16.7808C20.123 17.0811 20.3281 17.2935 20.6284 17.2935C20.8921 17.2935 21.0386 17.1689 21.1191 16.9419C21.2363 16.605 21.5146 16.4146 21.9028 16.4146C22.3569 16.4146 22.6206 16.6196 22.6206 16.9565C22.6206 17.3081 22.3423 17.5278 21.8809 17.5278H21.522C21.229 17.5278 21.0166 17.7329 21.0166 18.0186C21.0166 18.3042 21.229 18.5166 21.522 18.5166H21.8882C22.4741 18.5166 22.7964 18.7363 22.7964 19.1392C22.7964 19.5054 22.4595 19.7471 21.9395 19.7471C21.4854 19.7471 21.1631 19.5493 21.0386 19.2197C20.958 18.9927 20.7969 18.8682 20.5479 18.8682C20.2329 18.8682 20.0059 19.0952 20.0059 19.3955C20.0059 19.5493 20.0571 19.7178 20.1377 19.8643C20.4673 20.4502 21.1045 20.7798 21.9321 20.7798ZM14.7983 20.7798C15.1353 20.7798 15.3623 20.5527 15.3623 20.2231V16.0044C15.3623 15.6602 15.1206 15.4258 14.7617 15.4258C14.5786 15.4258 14.4395 15.4697 14.2344 15.6089L13.1504 16.3193C12.9526 16.4438 12.8574 16.605 12.8574 16.8027C12.8574 17.0811 13.0698 17.2861 13.3555 17.2861C13.4653 17.2861 13.5679 17.2495 13.6777 17.1763L14.2197 16.8247H14.2563V20.2231C14.2563 20.5454 14.4834 20.7798 14.7983 20.7798Z" fill="url(#paint1_linear_95_3679)"/>
<defs>
<linearGradient id="paint0_linear_95_3679" x1="4.92414" y1="-4.42105" x2="13.2892" y2="33.6383" gradientUnits="userSpaceOnUse">
<stop stop-color="#FF713C"/>
<stop offset="1" stop-color="#F55B46"/>
</linearGradient>
<linearGradient id="paint1_linear_95_3679" x1="4.92414" y1="-4.42105" x2="13.2892" y2="33.6383" gradientUnits="userSpaceOnUse">
<stop stop-color="#F15A23"/>
<stop offset="1" stop-color="#F55B46"/>
</linearGradient>
</defs>
</svg>
