<svg width="14" height="17" viewBox="0 0 14 17" fill="none" xmlns="http://www.w3.org/2000/svg">
<path d="M6.98243 -0.235352C8.93222 -0.235352 10.6552 0.968716 11.2912 2.75231C11.3582 2.93238 11.3414 3.12883 11.2577 3.30073C11.1741 3.47262 11.0243 3.60358 10.8393 3.6617C10.4628 3.79185 10.0444 3.59622 9.90209 3.21969C9.47531 2.00744 8.3046 1.19709 6.99916 1.19709C5.29121 1.19709 3.9113 2.54031 3.90209 4.18474V5.28977L3.89205 5.29141H10.4845C12.4259 5.29141 14 6.83107 14 8.73008V12.7966C14 14.6956 12.4259 16.2352 10.4845 16.2352H3.51464C1.57406 16.2352 0 14.6956 0 12.7966V8.73008C0 7.16831 1.07113 5.86438 2.52887 5.44529L2.43766 5.45593V4.20112C2.45439 1.75451 4.4887 -0.235352 6.98243 -0.235352ZM6.99582 9.13853C6.59414 9.13853 6.26778 9.45776 6.26778 9.85065V11.6678C6.26778 12.0689 6.59414 12.3881 6.99582 12.3881C7.40586 12.3881 7.73222 12.0689 7.73222 11.6678V9.85065C7.73222 9.45776 7.40586 9.13853 6.99582 9.13853Z" fill="#F15A23"/>
</svg>
