<svg width="20" height="6" viewBox="0 0 20 6" fill="none" xmlns="http://www.w3.org/2000/svg">
<path d="M4.83398 2.95898C4.83398 1.75781 3.88672 0.810547 2.66602 0.810547C1.48438 0.810547 0.517578 1.76758 0.517578 2.95898C0.517578 4.13086 1.48438 5.10742 2.66602 5.10742C3.84766 5.10742 4.83398 4.13086 4.83398 2.95898ZM12.1387 2.95898C12.1387 1.75781 11.2012 0.810547 10 0.810547C8.81836 0.810547 7.85156 1.76758 7.85156 2.95898C7.85156 4.13086 8.81836 5.10742 10 5.10742C11.1621 5.10742 12.1387 4.13086 12.1387 2.95898ZM19.4727 2.95898C19.4727 1.75781 18.5352 0.810547 17.3242 0.810547C16.1328 0.810547 15.166 1.76758 15.166 2.95898C15.166 4.13086 16.1328 5.10742 17.3242 5.10742C18.4961 5.10742 19.4727 4.13086 19.4727 2.95898Z" fill="url(#paint0_linear_95_3649)"/>
<defs>
<linearGradient id="paint0_linear_95_3649" x1="0.275862" y1="-12.8664" x2="6.3403" y2="20.9378" gradientUnits="userSpaceOnUse">
<stop stop-color="#F15A23"/>
<stop offset="1" stop-color="#F55B46"/>
</linearGradient>
</defs>
</svg>
