<svg width="28" height="28" viewBox="0 0 28 28" fill="none" xmlns="http://www.w3.org/2000/svg">
<rect width="28" height="28" rx="5" fill="#EEECEC"/>
<path d="M21.7754 20.7754L7.22459 6.22458C7.15135 6.15119 7.06436 6.09296 6.96859 6.05323C6.87282 6.01351 6.77015 5.99306 6.66647 5.99306C6.56278 5.99306 6.46012 6.01351 6.36435 6.05323C6.26858 6.09296 6.18158 6.15119 6.10834 6.22458C5.79167 6.53333 5.79167 7.03208 6.10042 7.34083L6.76542 8.00583C6.65459 8.22749 6.59126 8.48083 6.59126 8.74999L6.58334 18.25C6.58334 19.1287 7.28792 19.8333 8.16667 19.8333H18.5929L20.6592 21.8996C20.9679 22.2083 21.4667 22.2083 21.7754 21.8996C22.0842 21.5908 22.0842 21.0842 21.7754 20.7754ZM8.16667 13.5V10.3333H9.09292L12.2596 13.5H8.16667ZM10.4071 7.16666H20.8333C21.7121 7.16666 22.4167 7.87124 22.4167 8.74999V18.25C22.4167 18.5192 22.3533 18.7725 22.2346 18.9942L16.7404 13.5H20.8333V10.3333H13.5738L10.4071 7.16666Z" fill="#3F4342"/>
</svg>
