<svg width="28" height="28" viewBox="0 0 28 28" fill="none" xmlns="http://www.w3.org/2000/svg">
<rect width="28" height="28" rx="8" fill="url(#paint0_linear_95_3699)" fill-opacity="0.24"/>
<path d="M21.7752 20.7754L7.22438 6.22456C7.15114 6.15117 7.06414 6.09294 6.96837 6.05322C6.8726 6.01349 6.76994 5.99304 6.66625 5.99304C6.56257 5.99304 6.4599 6.01349 6.36413 6.05322C6.26836 6.09294 6.18137 6.15117 6.10813 6.22456C5.79146 6.53331 5.79146 7.03206 6.10021 7.34081L6.76521 8.00581C6.65438 8.22748 6.59104 8.48081 6.59104 8.74998L6.58313 18.25C6.58313 19.1287 7.28771 19.8333 8.16646 19.8333H18.5927L20.659 21.8996C20.9677 22.2083 21.4665 22.2083 21.7752 21.8996C22.084 21.5908 22.084 21.0841 21.7752 20.7754V20.7754ZM8.16646 13.5V10.3333H9.09271L12.2594 13.5H8.16646ZM10.4069 7.16664H20.8331C21.7119 7.16664 22.4165 7.87123 22.4165 8.74998V18.25C22.4165 18.5191 22.3531 18.7725 22.2344 18.9941L16.7402 13.5H20.8331V10.3333H13.5735L10.4069 7.16664Z" fill="#F35B32"/>
<defs>
<linearGradient id="paint0_linear_95_3699" x1="4.92414" y1="-4.42105" x2="13.2892" y2="33.6383" gradientUnits="userSpaceOnUse">
<stop stop-color="#FF713C"/>
<stop offset="1" stop-color="#F55B46"/>
</linearGradient>
</defs>
</svg>
