<svg width="28" height="28" viewBox="0 0 28 28" fill="none" xmlns="http://www.w3.org/2000/svg">
<rect width="28" height="28" rx="8" fill="url(#paint0_linear_95_3671)" fill-opacity="0.24"/>
<path d="M7.76709 20.1206H16.8418C16.5781 19.6226 16.5415 19.0366 16.7466 18.4873H7.90625C7.26172 18.4873 6.91748 18.165 6.91748 17.4912V12.2031H20.1963C20.6211 11.5513 21.1997 11.1997 21.9321 11.1997C22.2031 11.1997 22.4595 11.251 22.7012 11.3608V9.78613C22.7012 8.1748 21.8442 7.3252 20.2256 7.3252H7.76709C6.14844 7.3252 5.28418 8.1748 5.28418 9.78613V17.6597C5.28418 19.271 6.14844 20.1206 7.76709 20.1206ZM6.91748 10.4526V9.95459C6.91748 9.28076 7.26172 8.95117 7.90625 8.95117H20.0864C20.7236 8.95117 21.0752 9.28076 21.0752 9.95459V10.4526H6.91748ZM18.7607 20.1206H25.0962C25.7334 20.1206 26.1582 19.6445 26.1582 19.0586C26.1582 18.8828 26.1143 18.707 26.019 18.5386L22.8477 12.8696C22.6353 12.5034 22.291 12.3276 21.9321 12.3276C21.5732 12.3276 21.2144 12.5034 21.0166 12.8696L17.8452 18.5386C17.75 18.707 17.7061 18.8828 17.7061 19.0586C17.7061 19.6445 18.1235 20.1206 18.7607 20.1206ZM21.9321 17.1909C21.6318 17.1909 21.4121 16.9858 21.4048 16.6929L21.3389 14.6934C21.3315 14.3564 21.5732 14.1147 21.9321 14.1147C22.291 14.1147 22.5327 14.3491 22.5254 14.6934L22.4595 16.6929C22.4521 16.9858 22.2324 17.1909 21.9321 17.1909ZM8.91699 17.2056H10.7114C11.1436 17.2056 11.4292 16.9199 11.4292 16.5024V15.1475C11.4292 14.7373 11.1436 14.4443 10.7114 14.4443H8.91699C8.48486 14.4443 8.19922 14.7373 8.19922 15.1475V16.5024C8.19922 16.9199 8.48486 17.2056 8.91699 17.2056ZM21.9321 19.0146C21.5439 19.0146 21.2363 18.7217 21.2363 18.3408C21.2363 17.96 21.5439 17.667 21.9321 17.667C22.3203 17.667 22.6279 17.9673 22.6279 18.3408C22.6279 18.7217 22.3276 19.0146 21.9321 19.0146Z" fill="url(#paint1_linear_95_3671)"/>
<defs>
<linearGradient id="paint0_linear_95_3671" x1="4.92414" y1="-4.42105" x2="13.2892" y2="33.6383" gradientUnits="userSpaceOnUse">
<stop stop-color="#FF713C"/>
<stop offset="1" stop-color="#F55B46"/>
</linearGradient>
<linearGradient id="paint1_linear_95_3671" x1="4.92414" y1="-4.42105" x2="13.2892" y2="33.6383" gradientUnits="userSpaceOnUse">
<stop stop-color="#F15A23"/>
<stop offset="1" stop-color="#F55B46"/>
</linearGradient>
</defs>
</svg>
