<svg width="29" height="29" viewBox="0 0 29 29" fill="none" xmlns="http://www.w3.org/2000/svg">
<rect width="29" height="29" rx="5" fill="#DADADA"/>
<path d="M17.1951 4.99998C17.0489 5.00583 16.9079 5.03214 16.761 5.06868L6.82694 7.48898C5.65186 7.77691 4.91671 8.96221 5.20536 10.138L6.59821 15.8249C6.68261 16.1636 6.84695 16.4772 7.07746 16.7394C7.30797 17.0015 7.59794 17.2047 7.92309 17.3317V15.9615C7.92309 13.9468 9.56221 12.3077 11.5769 12.3077H20.7802L19.4101 6.66687C19.2889 6.17654 19.0023 5.74299 18.5987 5.43935C18.1951 5.1357 17.6991 4.98052 17.1944 4.99998H17.1951ZM18.0852 8.15179L18.6793 10.6408L16.2129 11.2342L15.5962 8.76783L18.0852 8.15179V8.15179ZM11.5769 13.7692C10.3668 13.7692 9.38463 14.7514 9.38463 15.9615V21.8077C9.38463 23.0178 10.3668 24 11.5769 24H21.8077C23.0179 24 24 23.0178 24 21.8077V15.9615C24 14.7514 23.0179 13.7692 21.8077 13.7692H11.5769ZM11.5769 14.9341H21.8077C22.3711 14.9341 22.8352 15.3981 22.8352 15.9615V16.6923H10.5495V15.9615C10.5495 15.3981 11.0135 14.9341 11.5769 14.9341ZM10.5495 18.8846H22.8352V21.8077C22.8352 22.3711 22.3711 22.8351 21.8077 22.8351H11.5769C11.3049 22.8336 11.0445 22.7249 10.8521 22.5325C10.6598 22.3401 10.551 22.0797 10.5495 21.8077V18.8846Z" fill="#3F4342"/>
</svg>
