<svg width="28" height="28" viewBox="0 0 28 28" fill="none" xmlns="http://www.w3.org/2000/svg">
<rect width="28" height="28" rx="8" fill="url(#paint0_linear_95_3711)" fill-opacity="0.24"/>
<path d="M16.1951 4.00004C16.0489 4.00589 15.9079 4.0322 15.761 4.06874L5.82694 6.48904C4.65186 6.77697 3.91671 7.96228 4.20536 9.13808L5.59821 14.8249C5.68261 15.1637 5.84695 15.4773 6.07746 15.7394C6.30797 16.0016 6.59794 16.2047 6.92309 16.3318V14.9616C6.92309 12.9469 8.56221 11.3077 10.5769 11.3077H19.7802L18.4101 5.66693C18.2889 5.1766 18.0023 4.74305 17.5987 4.43941C17.1951 4.13576 16.6991 3.98058 16.1944 4.00004H16.1951ZM17.0852 7.15185L17.6793 9.64085L15.2129 10.2342L14.5962 7.76789L17.0852 7.15185V7.15185ZM10.5769 12.7693C9.36678 12.7693 8.38463 13.7514 8.38463 14.9616V20.8077C8.38463 22.0179 9.36678 23 10.5769 23H20.8077C22.0179 23 23 22.0179 23 20.8077V14.9616C23 13.7514 22.0179 12.7693 20.8077 12.7693H10.5769ZM10.5769 13.9341H20.8077C21.3711 13.9341 21.8352 14.3982 21.8352 14.9616V15.6924H9.54947V14.9616C9.54947 14.3982 10.0135 13.9341 10.5769 13.9341ZM9.54947 17.8847H21.8352V20.8077C21.8352 21.3712 21.3711 21.8352 20.8077 21.8352H10.5769C10.3049 21.8337 10.0445 21.7249 9.85211 21.5326C9.65975 21.3402 9.55101 21.0798 9.54947 20.8077V17.8847Z" fill="#F45B3C"/>
<defs>
<linearGradient id="paint0_linear_95_3711" x1="4.92414" y1="-4.42105" x2="13.2892" y2="33.6383" gradientUnits="userSpaceOnUse">
<stop stop-color="#FF713C"/>
<stop offset="1" stop-color="#F55B46"/>
</linearGradient>
</defs>
</svg>
