<svg xmlns="http://www.w3.org/2000/svg" viewBox="0 0 95.55 49.78"><defs><style>.cls-1{fill:#787777;}</style></defs><title>CompleteNoCard</title><g id="Layer_2" data-name="Layer 2"><path class="cls-1" d="M-19.49,50.68V43.6h-2.78V42.28h7.12V43.6h-2.78v7.08Zm5.37,0V44.27h1.5v6.41Zm.76-7.46a1,1,0,0,1-.7-.27.88.88,0,0,1-.26-.63.87.87,0,0,1,.26-.64,1,1,0,0,1,.7-.26.92.92,0,0,1,.68.25.75.75,0,0,1,.28.61.92.92,0,0,1-.27.67A.9.9,0,0,1-13.36,43.22Zm5.42,7.54a3.46,3.46,0,0,1-1.67-.4,3.12,3.12,0,0,1-1.15-1.16,3.37,3.37,0,0,1-.42-1.72,3.41,3.41,0,0,1,.42-1.73,3,3,0,0,1,1.15-1.14,3.47,3.47,0,0,1,1.67-.41,2.85,2.85,0,0,1,1.44.36,2.44,2.44,0,0,1,1,1.07,4,4,0,0,1,.37,1.85,4.13,4.13,0,0,1-.36,1.84,2.48,2.48,0,0,1-1,1.08A3,3,0,0,1-7.94,50.76Zm.18-1.28a1.9,1.9,0,0,0,1-.24,1.72,1.72,0,0,0,.69-.7,2.13,2.13,0,0,0,.26-1.06,2.09,2.09,0,0,0-.26-1.07,1.72,1.72,0,0,0-.69-.7,1.9,1.9,0,0,0-1-.24,2,2,0,0,0-1,.24,1.76,1.76,0,0,0-.68.7,2.09,2.09,0,0,0-.26,1.07,2.13,2.13,0,0,0,.26,1.06,1.76,1.76,0,0,0,.68.7A2,2,0,0,0-7.76,49.48Zm2,1.2V49.17l.06-1.71-.12-1.7v-4h1.48v8.9Zm7.35,0v-1.3l-.09-.27V46.84a1.32,1.32,0,0,0-.39-1,1.71,1.71,0,0,0-1.2-.37,3.28,3.28,0,0,0-1.07.17,2.53,2.53,0,0,0-.88.46L-2.68,45a3.7,3.7,0,0,1,1.23-.59A5.64,5.64,0,0,1,0,44.2a3.1,3.1,0,0,1,2.14.67A2.54,2.54,0,0,1,3,46.92v3.76Zm-2,.08a3.08,3.08,0,0,1-1.26-.24,2,2,0,0,1-.84-.68,1.83,1.83,0,0,1-.29-1,2,2,0,0,1,.25-1,1.77,1.77,0,0,1,.86-.68A4,4,0,0,1-.2,46.94H1.66v1H-.1a1.59,1.59,0,0,0-1,.25.79.79,0,0,0-.26.6.77.77,0,0,0,.32.65,1.5,1.5,0,0,0,.9.24,1.92,1.92,0,0,0,1-.25,1.48,1.48,0,0,0,.63-.74l.25.9a1.65,1.65,0,0,1-.78.87A2.77,2.77,0,0,1-.48,50.76ZM6.1,49.25l0-1.88,3.35-3.1h1.8L8.44,47.13l-.79.66ZM4.88,50.68v-8.9h1.5v8.9Zm4.83,0L7.37,47.79l1-1.2,3.22,4.09Zm10.06,0v-1.3l-.08-.27V46.84a1.29,1.29,0,0,0-.4-1,1.68,1.68,0,0,0-1.2-.37,3.32,3.32,0,0,0-1.07.17,2.58,2.58,0,0,0-.87.46L15.56,45a3.55,3.55,0,0,1,1.22-.59,5.7,5.7,0,0,1,1.49-.2,3.11,3.11,0,0,1,2.15.67,2.58,2.58,0,0,1,.77,2.05v3.76Zm-2,.08a3.08,3.08,0,0,1-1.26-.24,2,2,0,0,1-.84-.68,1.75,1.75,0,0,1-.29-1,1.87,1.87,0,0,1,.25-1,1.79,1.79,0,0,1,.85-.68A4,4,0,0,1,18,46.94h1.86v1H18.14a1.57,1.57,0,0,0-1,.25.77.77,0,0,0-.27.6.75.75,0,0,0,.33.65,1.46,1.46,0,0,0,.9.24,1.88,1.88,0,0,0,1-.25,1.45,1.45,0,0,0,.64-.74l.25.9a1.65,1.65,0,0,1-.78.87A2.82,2.82,0,0,1,17.76,50.76Zm8.08,0a3.41,3.41,0,0,1-1.67-.4A3.05,3.05,0,0,1,23,49.2a3.37,3.37,0,0,1-.42-1.72A3.41,3.41,0,0,1,23,45.75a2.93,2.93,0,0,1,1.15-1.14,3.41,3.41,0,0,1,1.67-.41,2.9,2.9,0,0,1,1.44.36,2.42,2.42,0,0,1,1,1.07,4,4,0,0,1,.38,1.85,4.13,4.13,0,0,1-.36,1.84,2.5,2.5,0,0,1-1,1.08A2.9,2.9,0,0,1,25.84,50.76ZM26,49.48a1.9,1.9,0,0,0,1-.24,1.76,1.76,0,0,0,.68-.7,2,2,0,0,0,.26-1.06,2,2,0,0,0-.26-1.07,1.76,1.76,0,0,0-.68-.7,1.9,1.9,0,0,0-1-.24,2,2,0,0,0-1,.24,1.83,1.83,0,0,0-.68.7,2.09,2.09,0,0,0-.25,1.07,2.13,2.13,0,0,0,.25,1.06,1.83,1.83,0,0,0,.68.7A2,2,0,0,0,26,49.48ZM28,50.68V49.17L28,47.46l-.12-1.7v-4h1.49v8.9Zm7.35,0v-1.3l-.08-.27V46.84a1.32,1.32,0,0,0-.4-1,1.68,1.68,0,0,0-1.2-.37,3.28,3.28,0,0,0-1.07.17,2.58,2.58,0,0,0-.87.46L31.1,45a3.55,3.55,0,0,1,1.22-.59,5.7,5.7,0,0,1,1.49-.2,3.13,3.13,0,0,1,2.15.67,2.58,2.58,0,0,1,.77,2.05v3.76Zm-2,.08A3.08,3.08,0,0,1,32,50.52a2,2,0,0,1-.84-.68,1.82,1.82,0,0,1-.28-1,1.87,1.87,0,0,1,.25-1,1.74,1.74,0,0,1,.85-.68,4,4,0,0,1,1.56-.25h1.86v1H33.68a1.57,1.57,0,0,0-1,.25.77.77,0,0,0-.27.6.75.75,0,0,0,.33.65,1.46,1.46,0,0,0,.9.24,1.91,1.91,0,0,0,1-.25,1.45,1.45,0,0,0,.64-.74l.25.9a1.73,1.73,0,0,1-.78.87A2.83,2.83,0,0,1,33.29,50.76Zm9.9-1.51,0-1.88,3.35-3.1h1.8l-2.85,2.86-.79.66ZM42,50.68v-8.9h1.5v8.9Zm4.83,0-2.34-2.89.95-1.2,3.22,4.09Zm6.63,0v-1.3l-.09-.27V46.84a1.32,1.32,0,0,0-.39-1,1.71,1.71,0,0,0-1.2-.37,3.28,3.28,0,0,0-1.07.17,2.63,2.63,0,0,0-.88.46L49.22,45a3.55,3.55,0,0,1,1.22-.59,5.7,5.7,0,0,1,1.49-.2,3.13,3.13,0,0,1,2.15.67,2.57,2.57,0,0,1,.76,2.05v3.76Zm-2,.08a3.08,3.08,0,0,1-1.26-.24,2,2,0,0,1-.84-.68,1.83,1.83,0,0,1-.29-1,1.88,1.88,0,0,1,.26-1,1.74,1.74,0,0,1,.85-.68,4,4,0,0,1,1.56-.25h1.86v1H51.8a1.6,1.6,0,0,0-1,.25.79.79,0,0,0-.26.6.77.77,0,0,0,.32.65,1.5,1.5,0,0,0,.9.24,1.92,1.92,0,0,0,1-.25,1.43,1.43,0,0,0,.63-.74l.26.9a1.73,1.73,0,0,1-.78.87A2.83,2.83,0,0,1,51.41,50.76Zm5.36-.08V44.27H58.2V46L58,45.52a2,2,0,0,1,.9-1,3.15,3.15,0,0,1,1.55-.34v1.43l-.18,0h-.17a1.83,1.83,0,0,0-1.36.51,2,2,0,0,0-.5,1.47v3.11Zm7.63.08a2.32,2.32,0,0,1-1.64-.54,2.13,2.13,0,0,1-.57-1.62V42.86h1.5v5.71a1,1,0,0,0,.23.71.9.9,0,0,0,.66.25,1.32,1.32,0,0,0,.84-.27l.42,1.07a1.9,1.9,0,0,1-.65.33A3,3,0,0,1,64.4,50.76Zm-3.27-5.24v-1.2H65.4v1.2Zm8.65,5.24a3.31,3.31,0,0,1-1.44-.3,2.23,2.23,0,0,1-1-.93,3.35,3.35,0,0,1-.35-1.6V44.27h1.5v3.46A1.86,1.86,0,0,0,68.91,49a1.44,1.44,0,0,0,1.11.42,1.85,1.85,0,0,0,.91-.21,1.5,1.5,0,0,0,.62-.65,2.29,2.29,0,0,0,.22-1.07V44.27h1.5v6.41H71.85V49l.25.53a2.2,2.2,0,0,1-.95,1A2.88,2.88,0,0,1,69.78,50.76Z" transform="translate(22.27 -0.98)"/></g><g id="Layer_1" data-name="Layer 1"><path class="cls-1" d="M6,31.69H27.82a4.78,4.78,0,0,1-.23-3.92H6.38A2.11,2.11,0,0,1,4,25.38V12.69H35.87A4.79,4.79,0,0,1,40,10.28a4.28,4.28,0,0,1,1.84.39V6.89C41.88,3,39.83,1,35.94,1H6c-3.88,0-6,2-6,5.91V25.78C.08,29.65,2.16,31.69,6,31.69ZM4,8.49V7.29A2.13,2.13,0,0,1,6.38,4.88H35.61A2.13,2.13,0,0,1,38,7.29v1.2Zm28.43,23.2h15.2a2.47,2.47,0,0,0,2.55-2.55,2.63,2.63,0,0,0-.33-1.25l-7.62-13.6A2.48,2.48,0,0,0,40,13a2.45,2.45,0,0,0-2.2,1.3l-7.61,13.6a2.53,2.53,0,0,0-.34,1.25A2.47,2.47,0,0,0,32.43,31.69Zm7.61-7a1.21,1.21,0,0,1-1.27-1.2l-.16-4.8A1.34,1.34,0,0,1,40,17.28a1.31,1.31,0,0,1,1.42,1.38l-.16,4.8A1.19,1.19,0,0,1,40,24.66Zm-31.24,0h4.31A1.61,1.61,0,0,0,14.83,23V19.75a1.62,1.62,0,0,0-1.72-1.68H8.8a1.62,1.62,0,0,0-1.72,1.68V23A1.61,1.61,0,0,0,8.8,24.69ZM40,29a1.62,1.62,0,1,1,1.67-1.62A1.63,1.63,0,0,1,40,29Z" transform="translate(22.27 -0.98)"/></g></svg>