<svg width="103" height="24" viewBox="0 0 103 24" fill="none" xmlns="http://www.w3.org/2000/svg">
<g filter="url(#filter0_b_22720_43652)">
<path d="M0 5C0 2.23858 2.23858 0 5 0H98C100.761 0 103 2.23858 103 5V19C103 21.7614 100.761 24 98 24H5C2.23858 24 0 21.7614 0 19V5Z" fill="#686868" fill-opacity="0.3"/>
<path d="M12 7.8V9.2M12 19C15.8661 19 19 15.8661 19 12C19 8.1339 15.8661 5 12 5C8.1339 5 5 8.1339 5 12C5 15.8661 8.1339 19 12 19ZM12 10.6V16.2V10.6Z" stroke="#FFAA3C" stroke-width="2"/>
<path d="M29.28 14.4L29.19 12.53L32.54 9H34.34L31.32 12.25L30.42 13.21L29.28 14.4ZM27.83 16V9H29.44V16H27.83ZM32.62 16L30.13 12.95L31.19 11.8L34.51 16H32.62ZM38.3052 16V14.95L38.2052 14.72V12.84C38.2052 12.5067 38.1018 12.2467 37.8952 12.06C37.6952 11.8733 37.3852 11.78 36.9652 11.78C36.6785 11.78 36.3952 11.8267 36.1152 11.92C35.8418 12.0067 35.6085 12.1267 35.4152 12.28L34.8552 11.19C35.1485 10.9833 35.5018 10.8233 35.9152 10.71C36.3285 10.5967 36.7485 10.54 37.1752 10.54C37.9952 10.54 38.6318 10.7333 39.0852 11.12C39.5385 11.5067 39.7652 12.11 39.7652 12.93V16H38.3052ZM36.6652 16.08C36.2452 16.08 35.8852 16.01 35.5852 15.87C35.2852 15.7233 35.0552 15.5267 34.8952 15.28C34.7352 15.0333 34.6552 14.7567 34.6552 14.45C34.6552 14.13 34.7318 13.85 34.8852 13.61C35.0452 13.37 35.2952 13.1833 35.6352 13.05C35.9752 12.91 36.4185 12.84 36.9652 12.84H38.3952V13.75H37.1352C36.7685 13.75 36.5152 13.81 36.3752 13.93C36.2418 14.05 36.1752 14.2 36.1752 14.38C36.1752 14.58 36.2518 14.74 36.4052 14.86C36.5652 14.9733 36.7818 15.03 37.0552 15.03C37.3152 15.03 37.5485 14.97 37.7552 14.85C37.9618 14.7233 38.1118 14.54 38.2052 14.3L38.4452 15.02C38.3318 15.3667 38.1252 15.63 37.8252 15.81C37.5252 15.99 37.1385 16.08 36.6652 16.08ZM41.177 16V10.62H42.667V12.14L42.457 11.7C42.617 11.32 42.8737 11.0333 43.227 10.84C43.5804 10.64 44.0104 10.54 44.517 10.54V11.98C44.4504 11.9733 44.3904 11.97 44.337 11.97C44.2837 11.9633 44.227 11.96 44.167 11.96C43.7404 11.96 43.3937 12.0833 43.127 12.33C42.867 12.57 42.737 12.9467 42.737 13.46V16H41.177ZM47.8302 16.08C47.1968 16.08 46.7035 15.92 46.3502 15.6C45.9968 15.2733 45.8202 14.79 45.8202 14.15V9.43H47.3802V14.13C47.3802 14.3567 47.4402 14.5333 47.5602 14.66C47.6802 14.78 47.8435 14.84 48.0502 14.84C48.2968 14.84 48.5068 14.7733 48.6802 14.64L49.1002 15.74C48.9402 15.8533 48.7468 15.94 48.5202 16C48.3002 16.0533 48.0702 16.08 47.8302 16.08ZM44.9902 11.94V10.74H48.7202V11.94H44.9902ZM52.2459 16.08C51.7992 16.08 51.3992 15.9933 51.0459 15.82C50.6992 15.6467 50.4292 15.3833 50.2359 15.03C50.0425 14.67 49.9459 14.2133 49.9459 13.66V10.62H51.5059V13.43C51.5059 13.8767 51.5992 14.2067 51.7859 14.42C51.9792 14.6267 52.2492 14.73 52.5959 14.73C52.8359 14.73 53.0492 14.68 53.2359 14.58C53.4225 14.4733 53.5692 14.3133 53.6759 14.1C53.7825 13.88 53.8359 13.6067 53.8359 13.28V10.62H55.3959V16H53.9159V14.52L54.1859 14.95C54.0059 15.3233 53.7392 15.6067 53.3859 15.8C53.0392 15.9867 52.6592 16.08 52.2459 16.08ZM61.1331 16L58.8731 10.62H60.4831L62.3631 15.25H61.5631L63.5131 10.62H65.0131L62.7431 16H61.1331ZM65.6497 16V10.62H67.2097V16H65.6497ZM66.4297 9.87C66.143 9.87 65.9097 9.78667 65.7297 9.62C65.5497 9.45333 65.4597 9.24667 65.4597 9C65.4597 8.75333 65.5497 8.54667 65.7297 8.38C65.9097 8.21333 66.143 8.13 66.4297 8.13C66.7164 8.13 66.9497 8.21 67.1297 8.37C67.3097 8.52333 67.3997 8.72333 67.3997 8.97C67.3997 9.23 67.3097 9.44667 67.1297 9.62C66.9564 9.78667 66.723 9.87 66.4297 9.87ZM68.6575 16V10.62H70.1475V12.14L69.9375 11.7C70.0975 11.32 70.3542 11.0333 70.7075 10.84C71.0608 10.64 71.4908 10.54 71.9975 10.54V11.98C71.9308 11.9733 71.8708 11.97 71.8175 11.97C71.7642 11.9633 71.7075 11.96 71.6475 11.96C71.2208 11.96 70.8742 12.0833 70.6075 12.33C70.3475 12.57 70.2175 12.9467 70.2175 13.46V16H68.6575ZM75.3106 16.08C74.6773 16.08 74.184 15.92 73.8306 15.6C73.4773 15.2733 73.3006 14.79 73.3006 14.15V9.43H74.8606V14.13C74.8606 14.3567 74.9206 14.5333 75.0406 14.66C75.1606 14.78 75.324 14.84 75.5306 14.84C75.7773 14.84 75.9873 14.7733 76.1606 14.64L76.5806 15.74C76.4206 15.8533 76.2273 15.94 76.0006 16C75.7806 16.0533 75.5506 16.08 75.3106 16.08ZM72.4706 11.94V10.74H76.2006V11.94H72.4706ZM79.7263 16.08C79.2797 16.08 78.8797 15.9933 78.5263 15.82C78.1797 15.6467 77.9097 15.3833 77.7163 15.03C77.523 14.67 77.4263 14.2133 77.4263 13.66V10.62H78.9863V13.43C78.9863 13.8767 79.0797 14.2067 79.2663 14.42C79.4597 14.6267 79.7297 14.73 80.0763 14.73C80.3163 14.73 80.5297 14.68 80.7163 14.58C80.903 14.4733 81.0497 14.3133 81.1563 14.1C81.263 13.88 81.3163 13.6067 81.3163 13.28V10.62H82.8763V16H81.3963V14.52L81.6663 14.95C81.4863 15.3233 81.2197 15.6067 80.8663 15.8C80.5197 15.9867 80.1397 16.08 79.7263 16.08ZM87.6216 16V14.95L87.5216 14.72V12.84C87.5216 12.5067 87.4182 12.2467 87.2116 12.06C87.0116 11.8733 86.7016 11.78 86.2816 11.78C85.9949 11.78 85.7116 11.8267 85.4316 11.92C85.1582 12.0067 84.9249 12.1267 84.7316 12.28L84.1716 11.19C84.4649 10.9833 84.8182 10.8233 85.2316 10.71C85.6449 10.5967 86.0649 10.54 86.4916 10.54C87.3116 10.54 87.9482 10.7333 88.4016 11.12C88.8549 11.5067 89.0816 12.11 89.0816 12.93V16H87.6216ZM85.9816 16.08C85.5616 16.08 85.2016 16.01 84.9016 15.87C84.6016 15.7233 84.3716 15.5267 84.2116 15.28C84.0516 15.0333 83.9716 14.7567 83.9716 14.45C83.9716 14.13 84.0482 13.85 84.2016 13.61C84.3616 13.37 84.6116 13.1833 84.9516 13.05C85.2916 12.91 85.7349 12.84 86.2816 12.84H87.7116V13.75H86.4516C86.0849 13.75 85.8316 13.81 85.6916 13.93C85.5582 14.05 85.4916 14.2 85.4916 14.38C85.4916 14.58 85.5682 14.74 85.7216 14.86C85.8816 14.9733 86.0982 15.03 86.3716 15.03C86.6316 15.03 86.8649 14.97 87.0716 14.85C87.2782 14.7233 87.4282 14.54 87.5216 14.3L87.7616 15.02C87.6482 15.3667 87.4416 15.63 87.1416 15.81C86.8416 15.99 86.4549 16.08 85.9816 16.08ZM90.4934 16V8.58H92.0534V16H90.4934Z" fill="#FEFEFE"/>
</g>
<defs>
<filter id="filter0_b_22720_43652" x="-10" y="-10" width="123" height="44" filterUnits="userSpaceOnUse" color-interpolation-filters="sRGB">
<feFlood flood-opacity="0" result="BackgroundImageFix"/>
<feGaussianBlur in="BackgroundImage" stdDeviation="5"/>
<feComposite in2="SourceAlpha" operator="in" result="effect1_backgroundBlur_22720_43652"/>
<feBlend mode="normal" in="SourceGraphic" in2="effect1_backgroundBlur_22720_43652" result="shape"/>
</filter>
</defs>
</svg>
