<svg width="15" height="14" viewBox="0 0 15 14" fill="none" xmlns="http://www.w3.org/2000/svg">
<path d="M9.615 7.40284C9.69372 7.32422 9.738 7.21756 9.7381 7.1063V6.89368C9.73681 6.78266 9.69271 6.67643 9.615 6.59713L6.73905 3.72677C6.68652 3.67381 6.61501 3.64402 6.54042 3.64402C6.46582 3.64402 6.39432 3.67381 6.34179 3.72677L5.94453 4.12404C5.8919 4.1756 5.86224 4.24618 5.86224 4.31987C5.86224 4.39355 5.8919 4.46413 5.94453 4.5157L8.43441 6.99999L5.94453 9.48427C5.89156 9.5368 5.86177 9.60831 5.86177 9.6829C5.86177 9.7575 5.89156 9.82901 5.94453 9.88154L6.34179 10.2732C6.39432 10.3262 6.46582 10.356 6.54042 10.356C6.61501 10.356 6.68652 10.3262 6.73905 10.2732L9.615 7.40284Z" fill="#F15A23"/>
</svg>
