<svg width="32" height="32" viewBox="0 0 32 32" fill="none" xmlns="http://www.w3.org/2000/svg">
<path fill-rule="evenodd" clip-rule="evenodd" d="M2.83076 6H29.1692C30.1701 6 31 6.79439 31 7.75234V24.2477C31 25.2056 30.1701 26 29.1692 26H2.83076C1.82994 26 1 25.2056 1 24.2477V7.75234C1 6.79439 1.82994 6 2.83076 6ZM18.0627 20.7897H25.0195V21.7243H18.0627V20.7897ZM18.0627 18.4065H27.607V19.3411H18.0627V18.4065ZM23.4817 14.1776H24.8487C24.9219 14.1776 24.9707 14.2243 24.9707 14.2944V16.8645C24.9707 16.9346 24.9219 16.9813 24.8487 16.9813H23.4817C23.4085 16.9813 23.3596 16.9346 23.3596 16.8645V14.2944C23.3596 14.2477 23.4085 14.1776 23.4817 14.1776ZM18.2091 12.6121H19.5761C19.6493 12.6121 19.6981 12.6589 19.6981 12.729V16.8879C19.6981 16.9579 19.6493 17.0047 19.5761 17.0047H18.2091C18.1359 17.0047 18.0871 16.9579 18.0871 16.8879V12.729C18.0627 12.6589 18.1359 12.6121 18.2091 12.6121ZM20.8454 11.7243H22.2124C22.2856 11.7243 22.3344 11.771 22.3344 11.8411V16.8879C22.3344 16.9579 22.2856 17.0047 22.2124 17.0047H20.8454C20.7722 17.0047 20.7234 16.9579 20.7234 16.8879V11.8411C20.7234 11.771 20.7722 11.7243 20.8454 11.7243ZM10.5932 17.2617L14.7429 17.3318C14.7429 18.757 14.0106 20.0654 12.7901 20.8598L10.5932 17.2617ZM10.1782 16.5841L10.1294 11.9579V11.6542L10.4467 11.6776C10.8373 11.7009 11.2278 11.771 11.594 11.8645C11.9601 11.9579 12.3019 12.0981 12.6436 12.2617C14.3279 13.1028 15.4996 14.785 15.5972 16.7009L15.6216 17.0047H15.3043L10.4955 16.8645H10.227L10.1782 16.5841ZM10.7152 12.2383L10.764 16.3037L14.987 16.4206C14.8161 14.8318 13.7909 13.4533 12.3751 12.729C12.0822 12.5888 11.7648 12.472 11.4475 12.3785C11.179 12.3318 10.9593 12.285 10.7152 12.2383ZM9.76322 17.028L12.131 20.9533C11.3987 21.3505 10.5932 21.5607 9.76322 21.5607C7.15134 21.5607 5.02766 19.528 5.02766 17.028C5.02766 14.5981 7.02929 12.5888 9.56794 12.4953L9.76322 17.028ZM29.2181 9.29439H2.75753V24.3411H29.2181V9.29439V9.29439Z" fill="#F15921"/>
</svg>
