<svg width="15" height="14" viewBox="0 0 15 14" fill="none" xmlns="http://www.w3.org/2000/svg">
<path d="M5.385 7.40284C5.30628 7.32422 5.262 7.21756 5.2619 7.1063V6.89368C5.26319 6.78266 5.30729 6.67643 5.385 6.59713L8.26095 3.72677C8.31348 3.67381 8.38499 3.64402 8.45958 3.64402C8.53418 3.64402 8.60568 3.67381 8.65821 3.72677L9.05547 4.12404C9.1081 4.1756 9.13776 4.24618 9.13776 4.31987C9.13776 4.39355 9.1081 4.46413 9.05547 4.5157L6.56559 6.99999L9.05547 9.48427C9.10844 9.5368 9.13823 9.60831 9.13823 9.6829C9.13823 9.7575 9.10844 9.82901 9.05547 9.88154L8.65821 10.2732C8.60568 10.3262 8.53418 10.356 8.45958 10.356C8.38499 10.356 8.31348 10.3262 8.26095 10.2732L5.385 7.40284Z" fill="#F15A23"/>
</svg>
