<svg width="26" height="29" viewBox="0 0 26 29" fill="none" xmlns="http://www.w3.org/2000/svg">
<path d="M11.514 8.25382V0.306641H3.56678C2.86421 0.306641 2.19041 0.585737 1.69362 1.08253C1.19682 1.57933 0.917725 2.25313 0.917725 2.9557V25.9142C0.917725 26.6168 1.19682 27.2906 1.69362 27.7874C2.19041 28.2842 2.86421 28.5633 3.56678 28.5633H8.37217C8.00131 27.8745 7.86885 27.0445 8.08255 26.1844L8.74481 23.5389C8.99202 22.5462 9.50486 21.6396 10.2283 20.9163L18.7583 12.3863C19.6515 11.4922 20.8475 10.9654 22.1102 10.9099V10.9029H14.163C13.4604 10.9029 12.7866 10.6238 12.2898 10.127C11.7931 9.63019 11.514 8.95639 11.514 8.25382ZM13.28 8.25382V0.74815L21.6687 9.13684H14.163C13.9288 9.13684 13.7042 9.0438 13.5386 8.87821C13.373 8.71261 13.28 8.48801 13.28 8.25382ZM24.678 13.6367C24.3713 13.3299 24.0072 13.0866 23.6065 12.9205C23.2057 12.7545 22.7762 12.6691 22.3424 12.6691C21.9086 12.6691 21.4791 12.7545 21.0784 12.9205C20.6776 13.0866 20.3135 13.3299 20.0068 13.6367L11.4769 22.1667C10.9804 22.6638 10.6282 23.2864 10.4579 23.968L9.7956 26.6136C9.73029 26.8767 9.73415 27.1522 9.80679 27.4134C9.87943 27.6746 10.0184 27.9125 10.2102 28.1042C10.402 28.2958 10.6401 28.4345 10.9013 28.5069C11.1626 28.5793 11.4381 28.5829 11.7012 28.5174L14.3467 27.8569C15.0286 27.6863 15.6513 27.3334 16.148 26.8361L24.678 18.3061C25.297 17.6868 25.6448 16.847 25.6448 15.9714C25.6448 15.0958 25.297 14.256 24.678 13.6367V13.6367Z" fill="#FF713C"/>
</svg>
