<svg width="31" height="25" viewBox="0 0 31 25" fill="none" xmlns="http://www.w3.org/2000/svg">
<path d="M21.8569 18.5347H24.8369C25.6565 18.5347 26.327 19.2053 26.327 20.0248C26.327 20.8443 25.6565 21.5148 24.8369 21.5148H21.8569C21.0373 21.5148 20.3668 20.8443 20.3668 20.0248C20.3668 19.2053 21.0373 18.5347 21.8569 18.5347ZM21.8569 6.61445H29.307C30.1266 6.61445 30.7971 7.28496 30.7971 8.10448C30.7971 8.924 30.1266 9.59452 29.307 9.59452H21.8569C21.0373 9.59452 20.3668 8.924 20.3668 8.10448C20.3668 7.28496 21.0373 6.61445 21.8569 6.61445ZM21.8569 12.5746H27.817C28.6365 12.5746 29.307 13.2451 29.307 14.0646C29.307 14.8842 28.6365 15.5547 27.817 15.5547H21.8569C21.0373 15.5547 20.3668 14.8842 20.3668 14.0646C20.3668 13.2451 21.0373 12.5746 21.8569 12.5746ZM2.48638 21.5148C2.48638 23.1539 3.82741 24.4949 5.46645 24.4949H14.4067C16.0457 24.4949 17.3867 23.1539 17.3867 21.5148V6.61445H2.48638V21.5148ZM17.3867 2.14433H14.4067L13.3487 1.08641C13.0805 0.818201 12.6931 0.654297 12.3057 0.654297H7.5674C7.17999 0.654297 6.79258 0.818201 6.52438 1.08641L5.46645 2.14433H2.48638C1.66685 2.14433 0.996338 2.81485 0.996338 3.63437C0.996338 4.45389 1.66685 5.12441 2.48638 5.12441H17.3867C18.2063 5.12441 18.8768 4.45389 18.8768 3.63437C18.8768 2.81485 18.2063 2.14433 17.3867 2.14433Z" fill="#FF713C"/>
</svg>
