<svg width="30" height="30" viewBox="0 0 22 23" fill="none" xmlns="http://www.w3.org/2000/svg">
    <path d="M15.0429 21.4475H2.97151C2.65193 21.447 2.33817 21.3584 2.06217 21.1906C1.78617 21.0227 1.55778 20.7818 1.40024 20.4921C1.24269 20.2025 1.16162 19.8746 1.16528 19.5417C1.16894 19.2088 1.25719 18.8829 1.42105 18.5971C2.08553 17.4483 2.51006 16.8282 2.73617 15.6794C3.41911 12.1128 3.41911 12.0071 3.61753 11.3966C4.04458 9.88008 4.90981 8.5374 6.09548 7.55128L6.69997 7.02734H11.3144L11.9189 7.53205C13.3411 8.73968 14.3046 10.435 14.6368 12.3147C15.2874 15.7131 15.3151 16.3908 15.9612 17.506L16.5933 18.6067C16.7549 18.8923 16.8412 19.2172 16.8437 19.5486C16.8462 19.8801 16.7647 20.2064 16.6074 20.4945C16.4501 20.7827 16.2227 21.0225 15.948 21.1898C15.6733 21.3571 15.3611 21.446 15.0429 21.4475Z" fill="#FF713C"/>
    <path d="M8.33023 17.2384L7.55746 16.1187H7.51167H6.70455V17.2384H5.77722V13.2188H7.51167C7.86657 13.2188 8.17377 13.2781 8.43327 13.3968C8.69659 13.5154 8.89884 13.6839 9.04004 13.9021C9.18124 14.1203 9.25184 14.3787 9.25184 14.6773C9.25184 14.9759 9.17933 15.2343 9.03432 15.4526C8.89312 15.6669 8.69086 15.8315 8.42755 15.9464L9.32625 17.2384H8.33023ZM8.31306 14.6773C8.31306 14.4515 8.24055 14.2792 8.09554 14.1605C7.95053 14.038 7.73873 13.9767 7.46015 13.9767H6.70455V15.3779H7.46015C7.73873 15.3779 7.95053 15.3166 8.09554 15.1941C8.24055 15.0716 8.31306 14.8994 8.31306 14.6773Z" fill="white"/>
    <path d="M11.7439 14.1031C12.0301 14.1031 12.2896 14.1701 12.5224 14.3041C12.759 14.4342 12.9441 14.6199 13.0776 14.8611C13.2112 15.0984 13.278 15.376 13.278 15.6937C13.278 16.0115 13.2112 16.2909 13.0776 16.5321C12.9441 16.7695 12.759 16.9551 12.5224 17.0891C12.2896 17.2193 12.0301 17.2844 11.7439 17.2844C11.3508 17.2844 11.0417 17.16 10.8166 16.9111V18.3525H9.92359V14.149H10.7765V14.5051C10.9978 14.2371 11.3203 14.1031 11.7439 14.1031ZM11.5893 16.5494C11.8183 16.5494 12.0053 16.4728 12.1503 16.3197C12.2991 16.1627 12.3736 15.9541 12.3736 15.6937C12.3736 15.4334 12.2991 15.2267 12.1503 15.0736C12.0053 14.9166 11.8183 14.8381 11.5893 14.8381C11.3604 14.8381 11.1715 14.9166 11.0226 15.0736C10.8776 15.2267 10.8051 15.4334 10.8051 15.6937C10.8051 15.9541 10.8776 16.1627 11.0226 16.3197C11.1715 16.4728 11.3604 16.5494 11.5893 16.5494Z" fill="white"/>
    <path d="M11.3146 7.02815H6.70011C6.45534 7.02815 6.2206 6.92687 6.04753 6.74658C5.87445 6.5663 5.77722 6.32177 5.77722 6.06681C5.77722 5.81185 5.87445 5.56733 6.04753 5.38704C6.2206 5.20675 6.45534 5.10547 6.70011 5.10547H11.3146C11.5593 5.10547 11.7941 5.20675 11.9671 5.38704C12.1402 5.56733 12.2374 5.81185 12.2374 6.06681C12.2374 6.32177 12.1402 6.5663 11.9671 6.74658C11.7941 6.92687 11.5593 7.02815 11.3146 7.02815Z" fill="white"/>
    <path d="M6.70002 5.10513L4.85425 1.25977C6.23858 1.25977 6.23858 1.74044 7.62291 1.74044C9.00725 1.74044 9.00725 1.25977 10.3916 1.25977C11.7759 1.25977 11.7759 1.74044 13.1602 1.74044L11.3145 5.10513H6.70002Z" fill="#F8F9F9"/>
    <path d="M21.4663 22.41V8.95117H15.0061V22.41H21.4663Z" fill="#F8F9F9"/>
    <path d="M21.4663 8.47003H15.0061C14.8837 8.47003 14.7663 8.52067 14.6798 8.61082C14.5932 8.70096 14.5446 8.82322 14.5446 8.9507V10.3927C14.0413 9.12749 13.2379 8.01608 12.2097 7.16261C12.3784 7.01304 12.5102 6.8235 12.594 6.60988C12.6777 6.39627 12.7111 6.16484 12.6912 5.93502C12.6713 5.7052 12.5987 5.48371 12.4796 5.28915C12.3605 5.09459 12.1983 4.93265 12.0067 4.81693L13.5617 1.98097C13.6023 1.90776 13.6236 1.8247 13.6236 1.74016C13.6235 1.65562 13.602 1.5726 13.5613 1.49947C13.5206 1.42635 13.4621 1.3657 13.3917 1.32365C13.3212 1.2816 13.2414 1.25963 13.1603 1.25997C11.9282 1.25997 11.8221 0.779297 10.3916 0.779297C8.96114 0.779297 8.85963 1.25997 7.62296 1.25997C6.38629 1.25997 6.294 0.779297 4.85429 0.779297C4.77563 0.779545 4.69834 0.800734 4.62975 0.840853C4.56117 0.880972 4.50356 0.938688 4.46242 1.00852C4.42127 1.07835 4.39794 1.15798 4.39465 1.23985C4.39136 1.32171 4.40821 1.4031 4.44361 1.47627L6.0402 4.79771C5.84252 4.90915 5.67387 5.06905 5.54881 5.2636C5.42375 5.45816 5.34605 5.6815 5.32243 5.91434C5.2988 6.14718 5.32996 6.38251 5.41322 6.6C5.49647 6.81748 5.6293 7.01058 5.80025 7.16261C2.03948 10.2966 3.17002 14.6082 1.64725 17.2567C1.04738 18.3142 0.701294 18.7516 0.701294 19.5639C0.702513 20.1907 0.942097 20.7915 1.3676 21.2348C1.7931 21.678 2.36985 21.9276 2.9716 21.9288H14.5446V22.4095C14.5446 22.537 14.5932 22.6592 14.6798 22.7494C14.7663 22.8395 14.8837 22.8902 15.0061 22.8902H21.4663C21.5887 22.8902 21.706 22.8395 21.7926 22.7494C21.8791 22.6592 21.9277 22.537 21.9277 22.4095V8.9507C21.9277 8.82322 21.8791 8.70096 21.7926 8.61082C21.706 8.52067 21.5887 8.47003 21.4663 8.47003ZM6.70007 6.54735C6.57769 6.54735 6.46032 6.49671 6.37378 6.40656C6.28724 6.31642 6.23862 6.19416 6.23862 6.06668C6.23862 5.9392 6.28724 5.81694 6.37378 5.72679C6.46032 5.63665 6.57769 5.58601 6.70007 5.58601H11.3145C11.4369 5.58601 11.5543 5.63665 11.6408 5.72679C11.7273 5.81694 11.776 5.9392 11.776 6.06668C11.776 6.19416 11.7273 6.31642 11.6408 6.40656C11.5543 6.49671 11.4369 6.54735 11.3145 6.54735H6.70007ZM5.63875 1.81755C6.27313 2.06928 6.94426 2.20584 7.62296 2.22131C8.83194 2.22131 9.08112 1.88965 9.79174 1.7839L9.46873 3.06729C9.45419 3.13041 9.45172 3.1959 9.46148 3.26002C9.47123 3.32413 9.49301 3.38562 9.52558 3.44097C9.55814 3.49631 9.60085 3.54444 9.65127 3.58259C9.70169 3.62074 9.75883 3.64817 9.81943 3.66332C9.88003 3.67847 9.9429 3.68104 10.0044 3.67088C10.066 3.66072 10.125 3.63803 10.1782 3.60411C10.2313 3.57019 10.2775 3.5257 10.3141 3.47318C10.3507 3.42066 10.3771 3.36114 10.3916 3.29801L10.7469 1.74064C11.4345 1.79351 11.6975 2.03385 12.3943 2.14921L11.0469 4.62467H6.98616L5.63875 1.81755ZM2.9716 20.9675C2.73347 20.967 2.49971 20.9009 2.29412 20.7757C2.08853 20.6505 1.91845 20.4708 1.80122 20.2549C1.68398 20.039 1.62377 19.7946 1.62672 19.5466C1.62966 19.2985 1.69566 19.0557 1.81799 18.8429C2.49631 17.6701 2.93468 17.0356 3.20232 15.757C3.88987 12.1904 3.88526 12.1087 4.06522 11.5319C4.4685 10.1043 5.28171 8.83954 6.39551 7.90765L6.85696 7.50869H7.62296V8.9507C7.62296 9.07819 7.67157 9.20045 7.75811 9.29059C7.84465 9.38073 7.96202 9.43138 8.0844 9.43138C8.20678 9.43138 8.32415 9.38073 8.41069 9.29059C8.49723 9.20045 8.54584 9.07819 8.54584 8.9507V7.50869H11.153L11.6144 7.90765C12.6584 8.77892 13.4361 9.94812 13.8525 11.2723C14.1385 12.1231 14.1293 12.2337 14.5262 14.3054V20.9675H2.9716ZM21.0048 21.9288C15.0061 21.9288 15.4675 21.9288 15.4675 21.8856V9.43138H21.0048V21.9288Z" fill="#FF713C"/>
    <path d="M18.2362 18.563C19.7653 18.563 21.0049 17.2718 21.0049 15.6789C21.0049 14.0861 19.7653 12.7949 18.2362 12.7949C16.7071 12.7949 15.4675 14.0861 15.4675 15.6789C15.4675 17.2718 16.7071 18.563 18.2362 18.563Z" fill="#FF713C"/>
    <path d="M19.6205 9.43164H21.0048V10.8737C20.6377 10.8737 20.2856 10.7217 20.0259 10.4513C19.7663 10.1809 19.6205 9.81409 19.6205 9.43164Z" fill="#FF713C"/>
    <path d="M16.8519 9.43164H15.4675V10.8737C15.8347 10.8737 16.1868 10.7217 16.4464 10.4513C16.706 10.1809 16.8519 9.81409 16.8519 9.43164Z" fill="#FF713C"/>
    <path d="M18.2361 11.8344C18.491 11.8344 18.6975 11.6192 18.6975 11.3537C18.6975 11.0883 18.491 10.873 18.2361 10.873C17.9813 10.873 17.7747 11.0883 17.7747 11.3537C17.7747 11.6192 17.9813 11.8344 18.2361 11.8344Z" fill="#FF713C"/>
    <path d="M16.8519 21.9283H15.4675V20.4863C15.8347 20.4863 16.1868 20.6383 16.4464 20.9087C16.706 21.1791 16.8519 21.5459 16.8519 21.9283Z" fill="#FF713C"/>
    <path d="M18.2361 20.4867C18.491 20.4867 18.6975 20.2715 18.6975 20.0061C18.6975 19.7406 18.491 19.5254 18.2361 19.5254C17.9813 19.5254 17.7747 19.7406 17.7747 20.0061C17.7747 20.2715 17.9813 20.4867 18.2361 20.4867Z" fill="#FF713C"/>
    <path d="M19.6205 21.9283H21.0048V20.4863C20.6377 20.4863 20.2856 20.6383 20.0259 20.9087C19.7663 21.1791 19.6205 21.5459 19.6205 21.9283Z" fill="#FF713C"/>
</svg>