<svg width="31" height="35" viewBox="0 0 31 35" fill="none" xmlns="http://www.w3.org/2000/svg">
<path d="M13.6523 0.962891C11.6366 0.962891 9.70356 1.78467 8.27828 3.24746C6.85301 4.71024 6.05229 6.6942 6.05229 8.76289C6.05229 10.8316 6.85301 12.8155 8.27828 14.2783C9.70356 15.7411 11.6366 16.5629 13.6523 16.5629C15.6679 16.5629 17.601 15.7411 19.0263 14.2783C20.4516 12.8155 21.2523 10.8316 21.2523 8.76289C21.2523 6.6942 20.4516 4.71024 19.0263 3.24746C17.601 1.78467 15.6679 0.962891 13.6523 0.962891ZM4.16939 18.5129C3.669 18.5108 3.17314 18.6102 2.71024 18.8052C2.24734 19.0003 1.82651 19.2872 1.47189 19.6495C1.11726 20.0119 0.835816 20.4425 0.643691 20.9167C0.451566 21.3909 0.352541 21.8993 0.352295 22.4129C0.352295 25.7103 1.935 28.1966 4.4088 29.817C6.4 31.1196 8.95929 31.8606 11.7523 32.0849V24.3629C11.7523 23.3285 12.1527 22.3366 12.8653 21.6052C13.5779 20.8738 14.5445 20.4629 15.5523 20.4629H26.4431C26.1096 19.87 25.6299 19.3777 25.0522 19.0354C24.4746 18.6931 23.8193 18.5129 23.1523 18.5129H4.16939ZM30.7523 25.3379V31.1879C30.7523 31.9636 30.452 32.7076 29.9175 33.2562C29.3831 33.8047 28.6582 34.1129 27.9023 34.1129H16.5023C15.7464 34.1129 15.0215 33.8047 14.487 33.2562C13.9526 32.7076 13.6523 31.9636 13.6523 31.1879V25.3379C13.6523 24.5621 13.9526 23.8181 14.487 23.2696C15.0215 22.7211 15.7464 22.4129 16.5023 22.4129H27.9023C28.6582 22.4129 29.3831 22.7211 29.9175 23.2696C30.452 23.8181 30.7523 24.5621 30.7523 25.3379ZM28.8523 31.1879V29.2379C28.0964 29.2379 27.3715 29.5461 26.837 30.0946C26.3026 30.6432 26.0023 31.3871 26.0023 32.1629H27.9023C27.9023 31.9043 28.0024 31.6563 28.1805 31.4735C28.3587 31.2906 28.6003 31.1879 28.8523 31.1879ZM28.8523 25.3379C28.6003 25.3379 28.3587 25.2352 28.1805 25.0523C28.0024 24.8695 27.9023 24.6215 27.9023 24.3629H26.0023C26.0023 25.1386 26.3026 25.8826 26.837 26.4312C27.3715 26.9797 28.0964 27.2879 28.8523 27.2879V25.3379ZM16.5023 24.3629C16.5023 24.6215 16.4022 24.8695 16.224 25.0523C16.0459 25.2352 15.8043 25.3379 15.5523 25.3379V27.2879C16.3082 27.2879 17.0331 26.9797 17.5675 26.4312C18.102 25.8826 18.4023 25.1386 18.4023 24.3629H16.5023ZM15.5523 31.1879C15.8043 31.1879 16.0459 31.2906 16.224 31.4735C16.4022 31.6563 16.5023 31.9043 16.5023 32.1629H18.4023C18.4023 31.3871 18.102 30.6432 17.5675 30.0946C17.0331 29.5461 16.3082 29.2379 15.5523 29.2379V31.1879ZM22.2023 25.3379C21.4464 25.3379 20.7215 25.6461 20.187 26.1946C19.6526 26.7431 19.3523 27.4871 19.3523 28.2629C19.3523 29.0386 19.6526 29.7826 20.187 30.3312C20.7215 30.8797 21.4464 31.1879 22.2023 31.1879C22.9582 31.1879 23.6831 30.8797 24.2175 30.3312C24.752 29.7826 25.0523 29.0386 25.0523 28.2629C25.0523 27.4871 24.752 26.7431 24.2175 26.1946C23.6831 25.6461 22.9582 25.3379 22.2023 25.3379Z" fill="#FF713C"/>
</svg>
