<svg width="30" height="30" viewBox="0 0 30 30" fill="none" xmlns="http://www.w3.org/2000/svg">
<path d="M29.4045 0.642578H0.777466V29.2696H29.4045V0.642578Z" fill="#FF713C"/>
<path d="M25.1462 27.7308H5.03629C5.03629 26.3113 3.85336 25.1283 2.43384 25.1283V5.01847C3.85336 5.01847 5.03629 3.83554 5.03629 2.41602H25.1462C25.1462 3.83554 26.3291 5.01847 27.7486 5.01847V25.1283C26.3291 25.1283 25.1462 26.3113 25.1462 27.7308Z" fill="#FF713C" stroke="white" stroke-width="0.8811" stroke-miterlimit="10"/>
<path d="M7.87524 21.2254H10.7143C10.9509 21.2254 11.0692 20.9888 11.0692 20.8705C11.0692 20.6339 10.8326 20.5156 10.7143 20.5156H7.87524C7.63865 20.5156 7.52036 20.7522 7.52036 20.8705C7.40206 20.9888 7.63865 21.2254 7.87524 21.2254Z" fill="white"/>
<path d="M22.3066 20.3984H13.0797C12.8431 20.3984 12.7249 20.635 12.7249 20.7533C12.7249 20.9899 12.9614 21.1082 13.0797 21.1082H22.3066C22.5432 21.1082 22.6615 20.8716 22.6615 20.7533C22.7798 20.5167 22.5432 20.3984 22.3066 20.3984Z" fill="white"/>
<path d="M16.274 23.5918H7.87514C7.63856 23.5918 7.52026 23.8284 7.52026 23.9467C7.52026 24.1833 7.75685 24.3016 7.87514 24.3016H16.274C16.5106 24.3016 16.6288 24.065 16.6288 23.9467C16.7471 23.8284 16.5106 23.5918 16.274 23.5918Z" fill="white"/>
<path d="M19.1129 11.7611H18.9946V11.6428C18.9946 11.4062 18.8763 11.1696 18.6397 11.1696V7.85739C18.8763 7.85739 18.9946 7.62081 18.9946 7.38422V7.14763H19.4678C19.4678 7.14763 19.5861 7.14763 19.5861 7.02934V6.91105L15.4458 4.30859H15.3275L11.3055 6.91105C11.3055 6.91105 11.1873 7.02934 11.3055 7.02934C11.1873 7.14763 11.3055 7.14763 11.3055 7.14763H11.7787V7.26593C11.7787 7.50251 11.897 7.7391 12.1336 7.7391V11.1696C11.897 11.1696 11.7787 11.4062 11.7787 11.6428V11.7611H11.6604C11.4238 11.7611 11.1873 11.9977 11.1873 12.2342V12.5891C11.1873 12.7074 11.1873 12.7074 11.3055 12.7074H19.4678C19.5861 12.7074 19.5861 12.7074 19.5861 12.5891V12.2342C19.5861 11.9977 19.3495 11.7611 19.1129 11.7611ZM18.758 11.6428V11.7611H17.2202V11.6428C17.2202 11.5245 17.3385 11.4062 17.4568 11.4062H18.5214C18.6397 11.4062 18.758 11.5245 18.758 11.6428ZM13.5531 11.1696V7.85739C13.7897 7.85739 13.908 7.62081 13.908 7.38422V7.14763H14.3812V7.26593C14.3812 7.50251 14.4995 7.7391 14.7361 7.7391V11.1696C14.4995 11.1696 14.3812 11.4062 14.3812 11.6428V11.7611H13.908V11.6428C13.908 11.4062 13.6714 11.2879 13.5531 11.1696ZM13.1982 7.85739V11.1696H12.4885V7.85739H13.1982ZM15.0909 7.85739H15.8007V11.1696H15.0909V7.85739ZM15.919 7.62081H14.8543C14.7361 7.62081 14.6178 7.50251 14.6178 7.38422V7.14763H16.1556V7.26593C16.1556 7.50251 16.0373 7.62081 15.919 7.62081ZM14.6178 11.6428C14.6178 11.5245 14.7361 11.4062 14.8543 11.4062H15.919C16.0373 11.4062 16.1556 11.5245 16.1556 11.6428V11.7611H14.6178V11.6428ZM16.0373 11.1696V7.85739C16.2739 7.85739 16.3922 7.62081 16.3922 7.38422V7.14763H16.8653V7.26593C16.8653 7.50251 16.9836 7.7391 17.2202 7.7391V11.1696C16.9836 11.1696 16.8653 11.4062 16.8653 11.6428V11.7611H16.3922V11.6428C16.3922 11.4062 16.2739 11.2879 16.0373 11.1696ZM17.5751 11.1696V7.85739H18.2849V11.1696H17.5751ZM18.758 7.26593C18.758 7.38422 18.6397 7.50251 18.5214 7.50251H17.4568C17.3385 7.50251 17.2202 7.38422 17.2202 7.26593V7.14763H18.758V7.26593ZM12.0153 6.91105H11.7787L15.4458 4.66347L19.1129 6.91105H18.8763H17.1019H16.3922H14.6178H13.908H12.0153ZM12.1336 7.26593V7.14763H13.6714V7.26593C13.6714 7.38422 13.5531 7.50251 13.4348 7.50251H12.3702C12.2519 7.62081 12.1336 7.50251 12.1336 7.26593ZM12.1336 11.6428C12.1336 11.5245 12.2519 11.4062 12.3702 11.4062H13.4348C13.5531 11.4062 13.6714 11.5245 13.6714 11.6428V11.7611H12.1336V11.6428ZM19.3495 12.5891H11.4238V12.3525C11.4238 12.2342 11.5421 12.116 11.6604 12.116H12.0153H13.7897H14.4995H16.2739H16.9836H18.758H19.1129C19.2312 12.116 19.3495 12.2342 19.3495 12.3525V12.5891Z" fill="white"/>
<path d="M15.4457 6.55598C15.8006 6.55598 16.0372 6.31939 16.0372 5.96451C16.0372 5.60963 15.8006 5.37305 15.4457 5.37305C15.0908 5.37305 14.8542 5.60963 14.8542 5.96451C14.8542 6.2011 15.0908 6.55598 15.4457 6.55598ZM15.4457 5.60963C15.6823 5.60963 15.8006 5.72793 15.8006 5.96451C15.8006 6.2011 15.6823 6.31939 15.4457 6.31939C15.2091 6.31939 15.0908 6.08281 15.0908 5.96451C15.0908 5.72793 15.2091 5.60963 15.4457 5.60963Z" fill="white"/>
<path d="M13.7897 16.2577V17.3223H13.1982V14.6016H14.0263C14.3812 14.6016 14.7361 14.7199 14.8543 14.8381C15.0909 14.9564 15.0909 15.193 15.0909 15.4296C15.0909 15.5479 15.0909 15.7845 14.9726 15.9028C14.8543 16.0211 14.7361 16.1394 14.6178 16.2577C15.0909 16.8491 15.3275 17.3223 15.4458 17.4406H14.7361L14.0263 16.376H13.7897V16.2577ZM13.7897 15.7845H14.0263C14.2629 15.7845 14.3812 15.7845 14.3812 15.6662C14.4995 15.5479 14.4995 15.5479 14.4995 15.4296C14.4995 15.3113 14.4995 15.193 14.3812 15.193C14.2629 15.193 14.1446 15.0747 13.908 15.0747H13.6714V15.7845H13.7897Z" fill="white"/>
<path d="M16.8652 17.4409C16.6286 17.4409 16.392 17.3226 16.2737 17.2043C16.2737 17.3226 16.2737 17.4409 16.2737 17.5592V18.3873H15.6823V15.3117H16.1554L16.2737 15.5482C16.392 15.3117 16.6286 15.1934 16.8652 15.1934C17.1018 15.1934 17.3384 15.3117 17.4566 15.4299C17.5749 15.5482 17.6932 15.9031 17.6932 16.258C17.6932 16.4946 17.6932 16.7312 17.5749 16.8495C17.4566 16.9678 17.4566 17.0861 17.3384 17.2043C17.2201 17.3226 17.1018 17.4409 16.8652 17.4409ZM16.7469 15.6665C16.6286 15.6665 16.5103 15.6665 16.392 15.7848C16.2737 15.9031 16.2737 16.0214 16.2737 16.258V16.3763C16.2737 16.6129 16.2737 16.7312 16.392 16.8495C16.5103 16.9678 16.5103 16.9678 16.7469 16.9678C16.9835 16.9678 17.1018 16.7312 17.1018 16.3763C17.1018 16.1397 17.1018 16.0214 16.9835 15.9031C16.9835 15.6665 16.8652 15.6665 16.7469 15.6665Z" fill="white"/>
</svg>
