<svg width="33" height="36" viewBox="0 0 33 36" fill="none" xmlns="http://www.w3.org/2000/svg">
<path fill-rule="evenodd" clip-rule="evenodd" d="M0.652344 33.4461C0.652344 33.1274 0.957604 32.8691 1.33416 32.8691H31.7887C32.1653 32.8691 32.4705 33.1274 32.4705 33.4461C32.4705 33.7647 32.1653 34.023 31.7887 34.023H1.33416C0.957604 34.023 0.652344 33.7647 0.652344 33.4461Z" fill="#FF713C"/>
<path fill-rule="evenodd" clip-rule="evenodd" d="M0.652344 35.1375C0.652344 34.8188 0.957604 34.5605 1.33416 34.5605H31.7887C32.1653 34.5605 32.4705 34.8188 32.4705 35.1375C32.4705 35.4561 32.1653 35.7144 31.7887 35.7144H1.33416C0.957604 35.7144 0.652344 35.4561 0.652344 35.1375Z" fill="#FF713C"/>
<path fill-rule="evenodd" clip-rule="evenodd" d="M2.37964 15.3301V31.4839H8.74328V15.3301H2.37964Z" fill="#FF713C"/>
<path fill-rule="evenodd" clip-rule="evenodd" d="M9.65234 12.2539V31.4847H16.016V12.2539H9.65234Z" fill="#FF713C"/>
<path fill-rule="evenodd" clip-rule="evenodd" d="M16.925 7.63867V31.4848H23.2887V7.63867H16.925Z" fill="#FF713C"/>
<path fill-rule="evenodd" clip-rule="evenodd" d="M25.1069 4.56055V31.4836H31.4706V4.56055H25.1069Z" fill="#FF713C"/>
<path d="M29.6523 2.07984C29.6523 2.83371 29.0418 3.44484 28.2887 3.44484C27.5356 3.44484 26.925 2.83371 26.925 2.07984C26.925 1.32598 27.5356 0.714844 28.2887 0.714844C29.0418 0.714844 29.6523 1.32598 29.6523 2.07984Z" fill="#FF713C"/>
<path fill-rule="evenodd" clip-rule="evenodd" d="M28.7324 1.78564C28.7869 1.993 28.6324 2.19845 28.3873 2.24453L20.3347 3.75869L13.1556 9.83334C13.1263 9.85813 13.0931 9.87942 13.057 9.8966L5.78428 13.3581C5.56548 13.4623 5.28834 13.3966 5.16527 13.2115C5.04219 13.0263 5.11979 12.7918 5.33859 12.6877L12.5569 9.25206L19.7855 3.13557C19.8466 3.08385 19.9239 3.04795 20.0083 3.03208L28.1901 1.49362C28.4352 1.44754 28.678 1.57828 28.7324 1.78564Z" fill="#FF713C"/>
<path d="M21.4706 3.61891C21.4706 4.37278 20.86 4.98391 20.1069 4.98391C19.3538 4.98391 18.7433 4.37278 18.7433 3.61891C18.7433 2.86504 19.3538 2.25391 20.1069 2.25391C20.86 2.25391 21.4706 2.86504 21.4706 3.61891Z" fill="#FF713C"/>
<path d="M14.1979 9.77125C14.1979 10.5251 13.5873 11.1363 12.8342 11.1363C12.0811 11.1363 11.4706 10.5251 11.4706 9.77125C11.4706 9.01738 12.0811 8.40625 12.8342 8.40625C13.5873 8.40625 14.1979 9.01738 14.1979 9.77125Z" fill="#FF713C"/>
</svg>
