<svg width="30" height="30" viewBox="0 0 21 22" fill="none" xmlns="http://www.w3.org/2000/svg">
    <path d="M9.27143 13.4727V21.2035H0.959473C0.959473 19.1531 1.83519 17.1868 3.39399 15.737C4.95278 14.2872 7.06696 13.4727 9.27143 13.4727ZM9.27143 12.5063C5.82716 12.5063 3.03746 9.91169 3.03746 6.70825C3.03746 3.5048 5.82716 0.910156 9.27143 0.910156C12.7157 0.910156 15.5054 3.5048 15.5054 6.70825C15.5054 9.91169 12.7157 12.5063 9.27143 12.5063ZM11.9676 18.1228C11.8359 17.6071 11.8359 17.07 11.9676 16.5544L10.9369 16.0007L11.9759 14.3269L13.0066 14.8807C13.4203 14.5162 13.9204 14.2474 14.4664 14.096V12.9895H16.5444V14.096C17.0971 14.2487 17.5958 14.5212 18.0042 14.8807L19.0349 14.3269L20.0738 16.0007L19.0432 16.5544C19.1747 17.0697 19.1747 17.6065 19.0432 18.1218L20.0738 18.6755L19.0349 20.3492L18.0042 19.7955C17.5905 20.1599 17.0904 20.4287 16.5444 20.5802V21.6867H14.4664V20.5802C13.9204 20.4287 13.4203 20.1599 13.0066 19.7955L11.9759 20.3492L10.9369 18.6755L11.9676 18.1228ZM15.5054 16.3717C15.2298 16.3717 14.9656 16.4735 14.7707 16.6548C14.5759 16.836 14.4664 17.0818 14.4664 17.3381C14.4664 17.5944 14.5759 17.8402 14.7707 18.0214C14.9656 18.2026 15.2298 18.3044 15.5054 18.3044C15.7809 18.3044 16.0452 18.2026 16.2401 18.0214C16.4349 17.8402 16.5444 17.5944 16.5444 17.3381C16.5444 17.0818 16.4349 16.836 16.2401 16.6548C16.0452 16.4735 15.7809 16.3717 15.5054 16.3717Z" fill="#FF713C"/>
</svg>