<svg width="18" height="20" viewBox="0 0 15 16" fill="none" xmlns="http://www.w3.org/2000/svg">
<path d="M10.5182 0.25C12.835 0.25 14.125 1.585 14.125 3.8725V11.62C14.125 13.945 12.835 15.25 10.5182 15.25H4.2325C1.9525 15.25 0.625 13.945 0.625 11.62V3.8725C0.625 1.585 1.9525 0.25 4.2325 0.25H10.5182ZM4.435 10.555C4.21 10.5325 3.9925 10.6375 3.8725 10.8325C3.7525 11.02 3.7525 11.2675 3.8725 11.4625C3.9925 11.65 4.21 11.7625 4.435 11.7325H10.315C10.6143 11.7025 10.84 11.4467 10.84 11.1475C10.84 10.84 10.6143 10.585 10.315 10.555H4.435ZM10.315 7.13425H4.435C4.11175 7.13425 3.85 7.3975 3.85 7.72C3.85 8.0425 4.11175 8.305 4.435 8.305H10.315C10.6375 8.305 10.9 8.0425 10.9 7.72C10.9 7.3975 10.6375 7.13425 10.315 7.13425ZM6.67675 3.7375H4.435V3.745C4.11175 3.745 3.85 4.0075 3.85 4.33C3.85 4.6525 4.11175 4.915 4.435 4.915H6.67675C7 4.915 7.2625 4.6525 7.2625 4.32175C7.2625 4 7 3.7375 6.67675 3.7375Z" fill="#F15A23"/>
</svg>
