<svg width="33" height="36" viewBox="0 0 33 36" fill="none" xmlns="http://www.w3.org/2000/svg">
<path fill-rule="evenodd" clip-rule="evenodd" d="M0.277344 33.1961C0.277344 32.8774 0.582604 32.6191 0.959162 32.6191H31.4137C31.7903 32.6191 32.0955 32.8774 32.0955 33.1961C32.0955 33.5147 31.7903 33.773 31.4137 33.773H0.959162C0.582604 33.773 0.277344 33.5147 0.277344 33.1961Z" fill="#FF713C"/>
<path fill-rule="evenodd" clip-rule="evenodd" d="M0.277344 34.8875C0.277344 34.5688 0.582604 34.3105 0.959162 34.3105H31.4137C31.7903 34.3105 32.0955 34.5688 32.0955 34.8875C32.0955 35.2061 31.7903 35.4644 31.4137 35.4644H0.959162C0.582604 35.4644 0.277344 35.2061 0.277344 34.8875Z" fill="#FF713C"/>
<path fill-rule="evenodd" clip-rule="evenodd" d="M2.00464 15.0801V31.2339H8.36828V15.0801H2.00464Z" fill="#FF713C"/>
<path fill-rule="evenodd" clip-rule="evenodd" d="M9.27734 12.0039V31.2347H15.641V12.0039H9.27734Z" fill="#FF713C"/>
<path fill-rule="evenodd" clip-rule="evenodd" d="M16.55 7.38867V31.2348H22.9137V7.38867H16.55Z" fill="#FF713C"/>
<path fill-rule="evenodd" clip-rule="evenodd" d="M24.7319 4.31055V31.2336H31.0956V4.31055H24.7319Z" fill="#FF713C"/>
<path d="M29.2773 1.82984C29.2773 2.58371 28.6668 3.19484 27.9137 3.19484C27.1606 3.19484 26.55 2.58371 26.55 1.82984C26.55 1.07598 27.1606 0.464844 27.9137 0.464844C28.6668 0.464844 29.2773 1.07598 29.2773 1.82984Z" fill="#FF713C"/>
<path fill-rule="evenodd" clip-rule="evenodd" d="M28.3574 1.53564C28.4119 1.743 28.2574 1.94845 28.0123 1.99453L19.9597 3.50869L12.7806 9.58334C12.7513 9.60813 12.7181 9.62942 12.682 9.6466L5.40928 13.1081C5.19048 13.2123 4.91334 13.1466 4.79027 12.9615C4.66719 12.7763 4.74479 12.5418 4.96359 12.4377L12.1819 9.00206L19.4105 2.88557C19.4716 2.83385 19.5489 2.79795 19.6333 2.78208L27.8151 1.24362C28.0602 1.19754 28.303 1.32828 28.3574 1.53564Z" fill="#FF713C"/>
<path d="M21.0956 3.36891C21.0956 4.12278 20.485 4.73391 19.7319 4.73391C18.9788 4.73391 18.3683 4.12278 18.3683 3.36891C18.3683 2.61504 18.9788 2.00391 19.7319 2.00391C20.485 2.00391 21.0956 2.61504 21.0956 3.36891Z" fill="#FF713C"/>
<path d="M13.8229 9.52125C13.8229 10.2751 13.2123 10.8863 12.4592 10.8863C11.7061 10.8863 11.0956 10.2751 11.0956 9.52125C11.0956 8.76738 11.7061 8.15625 12.4592 8.15625C13.2123 8.15625 13.8229 8.76738 13.8229 9.52125Z" fill="#FF713C"/>
</svg>
