<svg width="39" height="40" viewBox="0 0 39 40" fill="none" xmlns="http://www.w3.org/2000/svg">
<path d="M19.2773 4.70898C17.2616 4.70898 15.3286 5.53077 13.9033 6.99355C12.478 8.45634 11.6773 10.4403 11.6773 12.509C11.6773 14.5777 12.478 16.5616 13.9033 18.0244C15.3286 19.4872 17.2616 20.309 19.2773 20.309C21.2929 20.309 23.226 19.4872 24.6513 18.0244C26.0766 16.5616 26.8773 14.5777 26.8773 12.509C26.8773 10.4403 26.0766 8.45634 24.6513 6.99355C23.226 5.53077 21.2929 4.70898 19.2773 4.70898ZM9.79439 22.259C9.294 22.2569 8.79814 22.3563 8.33524 22.5513C7.87234 22.7464 7.45151 23.0333 7.09689 23.3956C6.74226 23.7579 6.46082 24.1886 6.26869 24.6628C6.07657 25.137 5.97754 25.6454 5.97729 26.159C5.97729 29.4564 7.56 31.9427 10.0338 33.5631C12.025 34.8657 14.5843 35.6067 17.3773 35.831V28.109C17.3773 27.0746 17.7777 26.0827 18.4903 25.3513C19.2029 24.6199 20.1695 24.209 21.1773 24.209H32.0681C31.7346 23.6161 31.2549 23.1238 30.6772 22.7815C30.0996 22.4392 29.4443 22.259 28.7773 22.259H9.79439ZM36.3773 29.084V34.934C36.3773 35.7097 36.077 36.4537 35.5425 37.0023C35.0081 37.5508 34.2832 37.859 33.5273 37.859H22.1273C21.3714 37.859 20.6465 37.5508 20.112 37.0023C19.5776 36.4537 19.2773 35.7097 19.2773 34.934V29.084C19.2773 28.3082 19.5776 27.5642 20.112 27.0157C20.6465 26.4672 21.3714 26.159 22.1273 26.159H33.5273C34.2832 26.159 35.0081 26.4672 35.5425 27.0157C36.077 27.5642 36.3773 28.3082 36.3773 29.084ZM34.4773 34.934V32.984C33.7214 32.984 32.9965 33.2922 32.462 33.8407C31.9276 34.3892 31.6273 35.1332 31.6273 35.909H33.5273C33.5273 35.6504 33.6274 35.4024 33.8055 35.2196C33.9837 35.0367 34.2253 34.934 34.4773 34.934ZM34.4773 29.084C34.2253 29.084 33.9837 28.9813 33.8055 28.7984C33.6274 28.6156 33.5273 28.3676 33.5273 28.109H31.6273C31.6273 28.8847 31.9276 29.6287 32.462 30.1773C32.9965 30.7258 33.7214 31.034 34.4773 31.034V29.084ZM22.1273 28.109C22.1273 28.3676 22.0272 28.6156 21.849 28.7984C21.6709 28.9813 21.4293 29.084 21.1773 29.084V31.034C21.9332 31.034 22.6581 30.7258 23.1925 30.1773C23.727 29.6287 24.0273 28.8847 24.0273 28.109H22.1273ZM21.1773 34.934C21.4293 34.934 21.6709 35.0367 21.849 35.2196C22.0272 35.4024 22.1273 35.6504 22.1273 35.909H24.0273C24.0273 35.1332 23.727 34.3892 23.1925 33.8407C22.6581 33.2922 21.9332 32.984 21.1773 32.984V34.934ZM27.8273 29.084C27.0714 29.084 26.3465 29.3922 25.812 29.9407C25.2776 30.4892 24.9773 31.2332 24.9773 32.009C24.9773 32.7847 25.2776 33.5287 25.812 34.0773C26.3465 34.6258 27.0714 34.934 27.8273 34.934C28.5832 34.934 29.3081 34.6258 29.8425 34.0773C30.377 33.5287 30.6773 32.7847 30.6773 32.009C30.6773 31.2332 30.377 30.4892 29.8425 29.9407C29.3081 29.3922 28.5832 29.084 27.8273 29.084Z" fill="#FF713C"/>
</svg>
