<svg width="29" height="29" viewBox="0 0 29 29" fill="none" xmlns="http://www.w3.org/2000/svg">
<path d="M28.6545 0.157227H0.0274658V28.7842H28.6545V0.157227Z" fill="#FF713C"/>
<path d="M24.3962 27.2464H4.28629C4.28629 25.8269 3.10336 24.644 1.68384 24.644V4.53409C3.10336 4.53409 4.28629 3.35116 4.28629 1.93164H24.3962C24.3962 3.35116 25.5791 4.53409 26.9986 4.53409V24.644C25.5791 24.644 24.3962 25.8269 24.3962 27.2464Z" fill="#FF713C" stroke="white" stroke-width="0.8811" stroke-miterlimit="10"/>
<path d="M7.12524 20.74H9.96428C10.2009 20.74 10.3192 20.5034 10.3192 20.3852C10.3192 20.1486 10.0826 20.0303 9.96428 20.0303H7.12524C6.88865 20.0303 6.77036 20.2669 6.77036 20.3852C6.65206 20.5034 6.88865 20.74 7.12524 20.74Z" fill="white"/>
<path d="M21.5566 19.9121H12.3297C12.0931 19.9121 11.9749 20.1487 11.9749 20.267C11.9749 20.5036 12.2114 20.6219 12.3297 20.6219H21.5566C21.7932 20.6219 21.9115 20.3853 21.9115 20.267C22.0298 20.0304 21.7932 19.9121 21.5566 19.9121Z" fill="white"/>
<path d="M15.524 23.1064H7.12514C6.88856 23.1064 6.77026 23.343 6.77026 23.4613C6.77026 23.6979 7.00685 23.8162 7.12514 23.8162H15.524C15.7606 23.8162 15.8788 23.5796 15.8788 23.4613C15.9971 23.343 15.7606 23.1064 15.524 23.1064Z" fill="white"/>
<path d="M18.3629 11.2767H18.2446V11.1584C18.2446 10.9218 18.1263 10.6852 17.8897 10.6852V7.37302C18.1263 7.37302 18.2446 7.13643 18.2446 6.89985V6.66326H18.7178C18.7178 6.66326 18.8361 6.66326 18.8361 6.54497V6.42667L14.6958 3.82422H14.5775L10.5555 6.42667C10.5555 6.42667 10.4373 6.54497 10.5555 6.54497C10.4373 6.66326 10.5555 6.66326 10.5555 6.66326H11.0287V6.78155C11.0287 7.01814 11.147 7.25473 11.3836 7.25473V10.6852C11.147 10.6852 11.0287 10.9218 11.0287 11.1584V11.2767H10.9104C10.6738 11.2767 10.4373 11.5133 10.4373 11.7499V12.1048C10.4373 12.223 10.4373 12.223 10.5555 12.223H18.7178C18.8361 12.223 18.8361 12.223 18.8361 12.1048V11.7499C18.8361 11.5133 18.5995 11.2767 18.3629 11.2767ZM18.008 11.1584V11.2767H16.4702V11.1584C16.4702 11.0401 16.5885 10.9218 16.7068 10.9218H17.7714C17.8897 10.9218 18.008 11.0401 18.008 11.1584ZM12.8031 10.6852V7.37302C13.0397 7.37302 13.158 7.13643 13.158 6.89985V6.66326H13.6312V6.78155C13.6312 7.01814 13.7495 7.25473 13.9861 7.25473V10.6852C13.7495 10.6852 13.6312 10.9218 13.6312 11.1584V11.2767H13.158V11.1584C13.158 10.9218 12.9214 10.8035 12.8031 10.6852ZM12.4482 7.37302V10.6852H11.7385V7.37302H12.4482ZM14.3409 7.37302H15.0507V10.6852H14.3409V7.37302ZM15.169 7.13643H14.1043C13.9861 7.13643 13.8678 7.01814 13.8678 6.89985V6.66326H15.4056V6.78155C15.4056 7.01814 15.2873 7.13643 15.169 7.13643ZM13.8678 11.1584C13.8678 11.0401 13.9861 10.9218 14.1043 10.9218H15.169C15.2873 10.9218 15.4056 11.0401 15.4056 11.1584V11.2767H13.8678V11.1584V11.1584ZM15.2873 10.6852V7.37302C15.5239 7.37302 15.6422 7.13643 15.6422 6.89985V6.66326H16.1153V6.78155C16.1153 7.01814 16.2336 7.25473 16.4702 7.25473V10.6852C16.2336 10.6852 16.1153 10.9218 16.1153 11.1584V11.2767H15.6422V11.1584C15.6422 10.9218 15.5239 10.8035 15.2873 10.6852ZM16.8251 10.6852V7.37302H17.5349V10.6852H16.8251V10.6852ZM18.008 6.78155C18.008 6.89985 17.8897 7.01814 17.7714 7.01814H16.7068C16.5885 7.01814 16.4702 6.89985 16.4702 6.78155V6.66326H18.008V6.78155V6.78155ZM11.2653 6.42667H11.0287L14.6958 4.1791L18.3629 6.42667H18.1263H16.3519H15.6422H13.8678H13.158H11.2653ZM11.3836 6.78155V6.66326H12.9214V6.78155C12.9214 6.89985 12.8031 7.01814 12.6848 7.01814H11.6202C11.5019 7.13643 11.3836 7.01814 11.3836 6.78155ZM11.3836 11.1584C11.3836 11.0401 11.5019 10.9218 11.6202 10.9218H12.6848C12.8031 10.9218 12.9214 11.0401 12.9214 11.1584V11.2767H11.3836V11.1584V11.1584ZM18.5995 12.1048H10.6738V11.8682C10.6738 11.7499 10.7921 11.6316 10.9104 11.6316H11.2653H13.0397H13.7495H15.5239H16.2336H18.008H18.3629C18.4812 11.6316 18.5995 11.7499 18.5995 11.8682V12.1048Z" fill="white"/>
<path d="M14.6957 6.0716C15.0506 6.0716 15.2872 5.83502 15.2872 5.48014C15.2872 5.12526 15.0506 4.88867 14.6957 4.88867C14.3408 4.88867 14.1042 5.12526 14.1042 5.48014C14.1042 5.71672 14.3408 6.0716 14.6957 6.0716ZM14.6957 5.12526C14.9323 5.12526 15.0506 5.24355 15.0506 5.48014C15.0506 5.71672 14.9323 5.83502 14.6957 5.83502C14.4591 5.83502 14.3408 5.59843 14.3408 5.48014C14.3408 5.24355 14.4591 5.12526 14.6957 5.12526Z" fill="white"/>
<path d="M13.0397 15.7723V16.837H12.4482V14.1162H13.2763C13.6312 14.1162 13.9861 14.2345 14.1043 14.3528C14.3409 14.4711 14.3409 14.7077 14.3409 14.9443C14.3409 15.0626 14.3409 15.2991 14.2226 15.4174C14.1043 15.5357 13.9861 15.654 13.8678 15.7723C14.3409 16.3638 14.5775 16.837 14.6958 16.9552H13.9861L13.2763 15.8906H13.0397V15.7723ZM13.0397 15.2991H13.2763C13.5129 15.2991 13.6312 15.2991 13.6312 15.1808C13.7495 15.0626 13.7495 15.0626 13.7495 14.9443C13.7495 14.826 13.7495 14.7077 13.6312 14.7077C13.5129 14.7077 13.3946 14.5894 13.158 14.5894H12.9214V15.2991H13.0397Z" fill="white"/>
<path d="M16.1152 16.9556C15.8786 16.9556 15.642 16.8373 15.5237 16.719C15.5237 16.8373 15.5237 16.9556 15.5237 17.0739V17.9019H14.9323V14.8263H15.4054L15.5237 15.0629C15.642 14.8263 15.8786 14.708 16.1152 14.708C16.3518 14.708 16.5884 14.8263 16.7066 14.9446C16.8249 15.0629 16.9432 15.4178 16.9432 15.7726C16.9432 16.0092 16.9432 16.2458 16.8249 16.3641C16.7066 16.4824 16.7066 16.6007 16.5884 16.719C16.4701 16.8373 16.3518 16.9556 16.1152 16.9556ZM15.9969 15.1812C15.8786 15.1812 15.7603 15.1812 15.642 15.2995C15.5237 15.4178 15.5237 15.5361 15.5237 15.7726V15.8909C15.5237 16.1275 15.5237 16.2458 15.642 16.3641C15.7603 16.4824 15.7603 16.4824 15.9969 16.4824C16.2335 16.4824 16.3518 16.2458 16.3518 15.8909C16.3518 15.6544 16.3518 15.5361 16.2335 15.4178C16.2335 15.1812 16.1152 15.1812 15.9969 15.1812Z" fill="white"/>
</svg>
