<svg width="18" height="10" viewBox="0 0 18 10" fill="none" xmlns="http://www.w3.org/2000/svg">
<path d="M4.83317 9.16659C3.68039 9.16659 2.69789 8.7602 1.88567 7.94742C1.07289 7.1352 0.666504 6.1527 0.666504 4.99992C0.666504 3.84714 1.07289 2.86436 1.88567 2.05159C2.69789 1.23936 3.68039 0.833252 4.83317 0.833252H7.33317C7.56928 0.833252 7.76734 0.912974 7.92734 1.07242C8.08678 1.23242 8.1665 1.43047 8.1665 1.66659C8.1665 1.9027 8.08678 2.10047 7.92734 2.25992C7.76734 2.41992 7.56928 2.49992 7.33317 2.49992H4.83317C4.13873 2.49992 3.54845 2.74297 3.06234 3.22909C2.57623 3.7152 2.33317 4.30547 2.33317 4.99992C2.33317 5.69436 2.57623 6.28464 3.06234 6.77075C3.54845 7.25686 4.13873 7.49992 4.83317 7.49992H7.33317C7.56928 7.49992 7.76734 7.57964 7.92734 7.73909C8.08678 7.89909 8.1665 8.09714 8.1665 8.33325C8.1665 8.56936 8.08678 8.76714 7.92734 8.92659C7.76734 9.08659 7.56928 9.16659 7.33317 9.16659H4.83317ZM6.49984 5.83325C6.26373 5.83325 6.06595 5.75325 5.9065 5.59325C5.7465 5.43381 5.6665 5.23603 5.6665 4.99992C5.6665 4.76381 5.7465 4.56575 5.9065 4.40575C6.06595 4.24631 6.26373 4.16659 6.49984 4.16659H11.4998C11.7359 4.16659 11.934 4.24631 12.094 4.40575C12.2534 4.56575 12.3332 4.76381 12.3332 4.99992C12.3332 5.23603 12.2534 5.43381 12.094 5.59325C11.934 5.75325 11.7359 5.83325 11.4998 5.83325H6.49984ZM10.6665 9.16659C10.4304 9.16659 10.2326 9.08659 10.0732 8.92659C9.91317 8.76714 9.83317 8.56936 9.83317 8.33325C9.83317 8.09714 9.91317 7.89909 10.0732 7.73909C10.2326 7.57964 10.4304 7.49992 10.6665 7.49992H13.1665C13.8609 7.49992 14.4512 7.25686 14.9373 6.77075C15.4234 6.28464 15.6665 5.69436 15.6665 4.99992C15.6665 4.30547 15.4234 3.7152 14.9373 3.22909C14.4512 2.74297 13.8609 2.49992 13.1665 2.49992H10.6665C10.4304 2.49992 10.2326 2.41992 10.0732 2.25992C9.91317 2.10047 9.83317 1.9027 9.83317 1.66659C9.83317 1.43047 9.91317 1.23242 10.0732 1.07242C10.2326 0.912974 10.4304 0.833252 10.6665 0.833252H13.1665C14.3193 0.833252 15.3021 1.23936 16.1148 2.05159C16.9271 2.86436 17.3332 3.84714 17.3332 4.99992C17.3332 6.1527 16.9271 7.1352 16.1148 7.94742C15.3021 8.7602 14.3193 9.16659 13.1665 9.16659H10.6665Z" fill="#F15A23"/>
</svg>
