<svg width="114" height="114" viewBox="0 0 114 114" fill="none" xmlns="http://www.w3.org/2000/svg">
<path d="M56.6209 15.4199C79.3749 15.4199 97.8199 33.8659 97.8199 56.6189C97.8199 79.3729 79.3749 97.8179 56.6209 97.8179C33.8679 97.8179 15.4219 79.3729 15.4219 56.6189C15.4219 33.8659 33.8679 15.4199 56.6209 15.4199Z" fill="#FF6B00"/>
<path d="M56.6549 69.4502C53.8199 69.4502 51.5119 71.7582 51.5119 74.5952C51.5119 77.4282 53.8199 79.7342 56.6549 79.7342C59.4889 79.7342 61.7939 77.4282 61.7939 74.5952C61.7939 71.7582 59.4889 69.4502 56.6549 69.4502Z" fill="white"/>
<path d="M57.1539 35.1865C54.0325 35.1865 51.6695 36.6672 51.6695 39.0585V60.9952C51.6695 63.3893 54.0325 64.8642 57.1539 64.8642C60.1981 64.8642 62.6362 63.3278 62.6362 60.9952V39.0585C62.6362 36.724 60.1981 35.1865 57.1539 35.1865Z" fill="white"/>
</svg>
