<svg width="18" height="17" viewBox="0 0 18 17" fill="none" xmlns="http://www.w3.org/2000/svg">
<path d="M0.745245 0.0389733C0.679848 0.0132432 0.609762 5.00947e-10 0.538981 0C0.4682 -5.00947e-10 0.398115 0.0132432 0.332726 0.0389733C0.267329 0.0647034 0.207912 0.102417 0.157864 0.14996C0.107816 0.197503 0.0681145 0.253945 0.0410277 0.316063C0.0139418 0.378181 0 0.444758 0 0.511994C0 0.57923 0.0139418 0.645808 0.0410277 0.707926C0.0681145 0.770044 0.107816 0.826486 0.157864 0.874031L3.92598 4.45142C2.05977 5.66059 0.760561 7.51072 0.302134 9.61192C0.28771 9.6777 0.287063 9.74545 0.30022 9.81147C0.313384 9.87742 0.340098 9.94034 0.37883 9.99646C0.417571 10.0527 0.467579 10.101 0.525997 10.1388C0.584423 10.1766 0.650107 10.2031 0.719317 10.2169C0.788519 10.2305 0.859889 10.2312 0.929352 10.2187C0.998808 10.2062 1.06499 10.1808 1.12412 10.144C1.18326 10.1072 1.23418 10.0597 1.27399 10.0042C1.3138 9.94868 1.34171 9.88634 1.35613 9.82055C1.56164 8.87613 1.96343 7.98007 2.53799 7.18493C3.11254 6.38978 3.84831 5.71151 4.70223 5.18981L6.40649 6.80771C5.96231 7.11036 5.59277 7.50118 5.3235 7.95306C5.05423 8.40494 4.89168 8.90705 4.84713 9.42464C4.80258 9.94214 4.8771 10.4627 5.06552 10.9501C5.25393 11.4375 5.55174 11.8802 5.93826 12.2474C6.32478 12.6145 6.79077 12.8974 7.3039 13.0763C7.81703 13.2554 8.36496 13.3261 8.90979 13.2838C9.45462 13.2415 9.98325 13.0871 10.4589 12.8313C10.9346 12.5755 11.346 12.2245 11.6646 11.8026L16.308 16.2145C16.4091 16.3105 16.5462 16.3645 16.6891 16.3645C16.8321 16.3645 16.9692 16.3105 17.0703 16.2145C17.1714 16.1184 17.2282 15.9883 17.2282 15.8524C17.2282 15.7166 17.1714 15.5864 17.0703 15.4904L0.921179 0.14996C0.87005 0.102417 0.810634 0.0647034 0.745245 0.0389733Z" fill="#009CB2"/>
<path d="M8.74707 6.14062L12.3677 9.57996C12.3312 8.67881 11.9381 7.82403 11.2668 7.18638C10.5955 6.54873 9.69567 6.17526 8.74707 6.14062Z" fill="#009CB2"/>
<path d="M5.95557 3.48865L6.82008 4.30986C7.40583 4.16534 8.00851 4.09215 8.61372 4.09203C12.0653 4.09203 15.1347 6.47185 15.87 9.8212C15.8991 9.95407 15.9827 10.0706 16.1022 10.145C16.2217 10.2194 16.3675 10.2457 16.5074 10.218C16.6473 10.1903 16.7699 10.111 16.8482 9.99744C16.9266 9.88387 16.9543 9.74544 16.9251 9.61257C16.0886 5.803 12.5896 3.06934 8.61372 3.06934C7.69318 3.06934 6.79748 3.21559 5.95557 3.48865Z" fill="#009CB2"/>
</svg>
