<svg width="92" height="91" viewBox="0 0 92 91" fill="none" xmlns="http://www.w3.org/2000/svg">
<path d="M46.0009 87C34.9149 87 24.4951 82.684 16.6565 74.8454C8.81598 67.0068 4.5 56.5851 4.5 45.4991C4.5 34.4149 8.81598 23.9932 16.6546 16.1546C24.4932 8.31598 34.9149 4 46.0009 4C57.0851 4 67.5068 8.31598 75.3454 16.1546C83.184 23.9932 87.5 34.4149 87.5 45.4991C87.5 56.5851 83.184 67.0049 75.3454 74.8435C67.5068 82.684 57.0851 87 46.0009 87ZM46.0009 4.37959C35.0174 4.37959 24.6906 8.65761 16.9241 16.4241C9.15761 24.1906 4.87959 34.5155 4.87959 45.4991C4.87959 56.4826 9.15761 66.8094 16.9241 74.5759C24.6906 82.3424 35.0174 86.6204 46.0009 86.6204C56.9845 86.6204 67.3113 82.3424 75.0778 74.5759C82.8443 66.8094 87.1223 56.4826 87.1223 45.4991C87.1223 34.5155 82.8443 24.1887 75.0778 16.4222C67.3094 8.65761 56.9845 4.37959 46.0009 4.37959Z" fill="#A1D1B1"/>
<path d="M45.999 78.0778C63.9917 78.0778 78.5776 63.4919 78.5776 45.4992C78.5776 27.5065 63.9917 12.9206 45.999 12.9206C28.0063 12.9206 13.4204 27.5065 13.4204 45.4992C13.4204 63.4919 28.0063 78.0778 45.999 78.0778Z" fill="#E1F0E3"/>
<path fill-rule="evenodd" clip-rule="evenodd" d="M45.9991 66.4659C57.5786 66.4659 66.9659 57.0786 66.9659 45.4991C66.9659 33.9196 57.5786 24.5322 45.9991 24.5322C34.4196 24.5322 25.0322 33.9196 25.0322 45.4991C25.0322 57.0786 34.4215 66.4659 45.9991 66.4659Z" fill="#069250"/>
<path d="M42.1841 54.6457C41.6053 54.6457 41.0492 54.416 40.6411 54.0061L33.5674 46.9324C32.7152 46.0802 32.7152 44.6985 33.5674 43.8463C34.4196 42.9941 35.8013 42.9941 36.6535 43.8463L42.1841 49.3769L54.352 37.2091C55.2042 36.3569 56.5859 36.3569 57.4381 37.2091C58.2903 38.0613 58.2903 39.443 57.4381 40.2952L43.7272 54.0061C43.3191 54.4141 42.763 54.6457 42.1841 54.6457Z" fill="white"/>
</svg>
