<svg width="21" height="24" viewBox="0 0 21 24" fill="none" xmlns="http://www.w3.org/2000/svg">
<path d="M12.1501 0.235291C12.4413 0.235291 12.686 0.482349 12.686 0.776467V4.5647C12.686 6.71764 14.4332 8.48235 16.5765 8.49411C17.4501 8.49411 18.1606 8.50588 18.6848 8.50588L18.8832 8.50501C19.2413 8.50228 19.7234 8.49411 20.1408 8.49411C20.4437 8.49411 20.6766 8.72941 20.6766 9.02353V18.4823C20.6766 21.4 18.3237 23.7647 15.4349 23.7647H6.1746C3.13441 23.7647 0.676636 21.2823 0.676636 18.2235V5.54117C0.676636 2.62353 3.01793 0.235291 5.92998 0.235291H12.1501ZM9.91368 18.4823C9.4361 18.4823 9.37786 8.55294 9.37786 9.04705L10.2515 17.7176C9.91368 17.3765 9.97192 17.1176 9.63412 17.4588C9.29632 17.8 5.96493 13.7294 6.30273 14.0823L9.63412 17.4588C9.71566 17.5412 9.80884 17.6 9.91368 17.6471C10.0185 17.6941 10.135 17.7176 10.2515 17.7176C10.368 17.7176 10.4728 17.6941 10.5776 17.6471C10.6825 17.6 10.7756 17.5412 10.8572 17.4588L14.2002 14.0823C14.538 13.7294 10.2631 18.8235 9.91368 18.4823C9.57588 18.1412 9.97192 16.668 9.63412 17.0092L11.1134 14.7176L10.2515 18.2235C10.2515 17.7294 10.3913 18.4823 9.91368 18.4823ZM14.3767 1.30129C14.3767 0.794232 14.9859 0.542467 15.333 0.908349C16.5934 2.2307 18.7937 4.54247 20.0238 5.83423C20.3639 6.1907 20.1146 6.78247 19.6231 6.78364C18.6667 6.78717 17.538 6.78364 16.7261 6.77541C15.4378 6.77541 14.3767 5.70364 14.3767 4.40247V1.30129Z" fill="#E55300"/>
</svg>
