<svg width="37" height="25" viewBox="0 0 37 25" fill="none" xmlns="http://www.w3.org/2000/svg">
<path d="M29.1218 15.4158C28.6351 14.4424 27.4994 13.8746 26.4449 14.199L26.6071 14.6046L26.4449 14.199C24.5791 14.7669 22.7134 15.3347 20.9288 15.9837C20.8476 15.4969 20.6043 15.1725 20.2798 14.848C19.8742 14.4424 19.3875 14.199 18.8197 14.199C18.0085 14.199 17.1162 14.1179 16.2238 14.199C15.1693 14.2801 14.1959 14.0368 13.2224 13.6312C12.3301 13.2256 11.4378 12.9822 10.4644 12.6578L10.3833 13.0634L10.4644 12.6578C9.40983 12.3333 8.27416 12.4144 7.21961 12.4144V12.82V12.7389V12.4144C7.13849 12.4144 6.97625 12.4144 6.81402 12.4144C6.81402 12.3333 6.81402 12.171 6.81402 12.0899H6.40842H6.81402C6.81402 11.5221 6.65178 11.0354 6.24618 10.7109C5.9217 10.3864 5.35387 10.2242 4.78603 10.1431V10.5487V10.1431C3.8126 10.1431 2.92029 10.1431 1.94686 10.1431C1.78462 10.1431 1.62238 10.1431 1.46015 10.2242C0.973431 10.3053 0.648954 10.5487 0.405596 10.8731C0.162238 11.1976 0 11.6843 0 12.171C0 15.4158 0 18.6606 0 21.9054C0 21.9865 0 22.1487 0 22.2298C0.0811192 23.1221 0.811192 23.8522 1.78462 23.9333C2.83917 23.9333 3.89372 23.9333 5.02939 23.9333C6.00282 23.9333 6.7329 23.1221 6.81402 22.2298C6.81402 22.0676 6.81402 21.9054 6.81402 21.7431C7.30073 21.7431 7.70633 21.7431 8.11192 21.9054C10.4644 22.7165 12.8168 23.6089 15.1693 24.4201C16.1427 24.7445 16.9539 24.6634 17.8462 24.1767C19.6309 23.1221 21.3344 22.1487 23.119 21.1753C24.8225 20.2019 26.4449 19.3095 28.1484 18.3361C29.2029 17.606 29.5274 16.3892 29.1218 15.4158ZM22.1456 19.8774L21.9833 19.5529C20.3609 20.5263 18.6574 21.4186 17.035 22.3921C16.6294 22.6354 16.305 22.6354 15.8994 22.4732C13.628 21.662 11.2756 20.8508 8.92312 19.9585C8.35528 19.7151 7.78745 19.634 7.21961 19.634V20.0396V19.634C7.13849 19.634 7.05737 19.634 6.97625 19.634V14.199C8.35528 14.199 9.65319 14.199 10.9511 14.6857C12.0056 15.0913 12.9791 15.4158 14.0336 15.8214C14.277 15.9025 14.6015 15.9837 14.8448 15.9837C16.0616 15.9837 17.2784 15.9837 18.4952 15.9837C18.6574 15.9837 18.8197 16.0648 18.9008 16.1459C18.9819 16.1459 18.9819 16.227 18.9819 16.227C18.9819 16.227 18.9819 16.3081 18.9819 16.3892C18.9819 16.4704 18.9008 16.5515 18.7385 16.5515C18.6574 16.5515 18.6574 16.5515 18.4952 16.5515C17.1973 16.5515 15.8183 16.5515 14.5203 16.5515C13.9525 16.5515 13.4658 16.6326 12.9791 16.9571C12.4924 17.2004 12.1679 17.606 11.9245 18.1739L12.249 18.3361L12.1679 18.255L11.9245 18.0928C11.7623 18.4983 11.6812 18.9039 11.6812 19.2284C11.6001 19.7963 12.0868 20.2019 12.5735 20.283C13.0602 20.283 13.4658 19.9585 13.5469 19.4718L13.2224 19.3907H13.1413L13.5469 19.4718C13.628 18.9851 13.7092 18.8228 13.8714 18.7417C14.0336 18.6606 14.1959 18.5795 14.6826 18.5795C15.8994 18.5795 17.1973 18.5795 18.4952 18.5795C18.9008 18.5795 19.3064 18.4983 19.712 18.4172L19.6309 18.0116V18.0928L19.712 18.4172C22.0644 17.6872 24.4169 16.9571 26.6882 16.227C26.7693 16.227 26.8505 16.1459 27.0127 16.1459C27.2561 16.0648 27.3372 16.1459 27.4183 16.3081C27.4994 16.4704 27.4183 16.6326 27.2561 16.7137C26.3638 17.2004 25.5526 17.6872 24.6602 18.1739C23.7679 18.6606 22.9567 19.1473 22.0644 19.634L22.1456 19.8774ZM6.57066 14.2801V13.9557V14.2801ZM19.1441 15.8214L19.063 15.9025L19.1441 15.8214ZM1.7035 21.8242H1.86574H1.7035ZM4.94827 12.0088C4.94827 12.0088 5.02939 12.0899 4.94827 12.0088C4.94827 13.7123 4.94827 15.3347 4.94827 16.876C4.94827 18.4983 4.94827 20.0396 4.94827 21.662C4.94827 21.7431 4.94827 21.7431 4.94827 21.8242C4.94827 21.8242 4.86715 21.8242 4.78603 21.8242C3.89372 21.8242 3.00141 21.8242 2.1091 21.8242C2.1091 18.5795 2.1091 15.3347 2.1091 12.0899C3.08253 12.0088 3.97484 12.0088 4.94827 12.0088L4.86715 11.6843V11.6032L4.94827 12.0088ZM0.567835 21.8242H0.405596H0.567835Z" fill="#FF713C"/>
<path d="M26.4448 14.1992L26.6075 14.5246L26.4448 14.1992Z" fill="#FF713C"/>
<path d="M7.10769 9.19893C7.5944 10.1724 8.73007 10.7402 9.78462 10.4157C11.6504 9.84788 13.5161 9.28005 15.3007 8.63109C15.3818 9.11781 15.6252 9.44229 15.9497 9.76676C16.3553 10.1724 16.842 10.4157 17.4098 10.4157C18.221 10.4157 19.1133 10.4968 20.0056 10.4157C21.0602 10.3346 22.0336 10.578 23.0071 10.9836C23.8994 11.3891 24.7917 11.6325 25.7651 11.957C26.8197 12.2815 27.9553 12.2003 29.0099 12.2003L29.0099 11.7947L29.0099 11.8759L29.0099 12.2003C29.091 12.2003 29.2532 12.2003 29.4155 12.2003C29.4155 12.2815 29.4155 12.4437 29.4155 12.5248C29.4155 13.0927 29.5777 13.5794 29.9833 13.9038C30.3078 14.2283 30.8756 14.3906 31.4435 14.4717C32.4169 14.4717 33.3092 14.4717 34.2826 14.4717C34.4449 14.4717 34.6071 14.4717 34.7693 14.3906C35.2561 14.3094 35.5805 14.0661 35.8239 13.7416C36.0673 13.4171 36.2295 12.9304 36.2295 12.4437C36.2295 9.19893 36.2295 5.95416 36.2295 2.70939C36.2295 2.62827 36.2295 2.46603 36.2295 2.38491C36.1484 1.4926 35.4183 0.762527 34.4449 0.681408C33.3903 0.681408 32.3358 0.681408 31.2001 0.681407C30.2267 0.681407 29.4966 1.4926 29.4155 2.38491C29.4155 2.54715 29.4155 2.70939 29.4155 2.87163C28.9288 2.87163 28.5232 2.87163 28.1176 2.70939C25.7651 1.8982 23.4127 1.00588 21.0602 0.194692C20.0868 -0.129785 19.2756 -0.0486658 18.3833 0.43805C16.5986 1.4926 14.8951 2.46603 13.1105 3.43946C11.407 4.41289 9.78462 5.3052 8.08112 6.27863C7.02657 7.00871 6.70209 8.2255 7.10769 9.19893ZM31.2812 12.6059C31.2812 10.9024 31.2812 9.28005 31.2812 7.73878C31.2812 6.1164 31.2812 4.57513 31.2812 2.95275C31.2812 2.87163 31.2812 2.87163 31.2812 2.79051C31.2812 2.79051 31.3623 2.79051 31.4435 2.79051C32.3358 2.79051 33.2281 2.79051 34.1204 2.79051C34.1204 6.03528 34.1204 9.28005 34.1204 12.5248C33.147 12.6059 32.2546 12.6059 31.2812 12.6059L31.3623 12.9304L31.3623 13.0115L31.2812 12.6059Z" fill="#FF713C"/>
<path d="M9.78467 10.4155L9.622 10.0902L9.78467 10.4155Z" fill="#FF713C"/>
</svg>
