<svg width="16" height="16" viewBox="0 0 13 14" fill="none" xmlns="http://www.w3.org/2000/svg">
    <path d="M3.04167 3.25065V1.25065C3.04167 1.07384 3.1119 0.904271 3.23693 0.779246C3.36195 0.654222 3.53152 0.583984 3.70833 0.583984H11.7083C11.8851 0.583984 12.0547 0.654222 12.1797 0.779246C12.3048 0.904271 12.375 1.07384 12.375 1.25065V10.584C12.375 10.7608 12.3048 10.9304 12.1797 11.0554C12.0547 11.1804 11.8851 11.2507 11.7083 11.2507H9.70833V13.2507C9.70833 13.6187 9.40833 13.9173 9.037 13.9173H1.04633C0.958418 13.9178 0.871265 13.901 0.789882 13.8677C0.708498 13.8345 0.634489 13.7855 0.572106 13.7235C0.509723 13.6616 0.460195 13.5879 0.42637 13.5068C0.392544 13.4256 0.375086 13.3386 0.375 13.2507L0.377 3.91732C0.377 3.54932 0.677 3.25065 1.04833 3.25065H3.04167ZM1.71033 4.58398L1.70833 12.584H8.375V4.58398H1.71033ZM4.375 3.25065H9.70833V9.91732H11.0417V1.91732H4.375V3.25065Z" fill="#F15A23"/>
</svg>
