<svg width="45" height="36" viewBox="0 0 45 36" fill="none" xmlns="http://www.w3.org/2000/svg">
<path d="M32.1782 28.2736C28.934 31.6469 24.3172 33.1462 19.8253 32.3966C16.0819 31.8968 12.8377 29.8978 10.5918 26.7744C8.7201 24.2756 7.84666 21.2771 7.84666 18.1536L10.2174 20.6524C10.8413 21.2771 11.8395 21.2771 12.4634 20.6524C13.0873 20.0277 13.0873 19.1531 12.4634 18.5285L7.72188 13.406C7.47233 13.1561 7.098 12.9062 6.72367 12.9062C6.22456 12.9062 5.85023 13.0312 5.60067 13.406L0.484814 18.1536C-0.139072 18.7783 -0.139072 19.6529 0.360036 20.4025C0.983922 21.0272 1.85736 21.0272 2.60602 20.4025L4.72723 18.4035C4.72723 22.0267 5.85023 25.6499 7.97144 28.6484C10.7165 32.3966 14.7094 34.8953 19.3261 35.52C24.8163 36.3946 30.5561 34.5205 34.4242 30.5225C35.0481 29.8978 35.0481 28.8983 34.4242 28.2736C33.8003 27.6489 32.8021 27.6489 32.1782 28.2736Z" fill="#E64510"/>
<path d="M10.5927 5.28458C10.5927 5.40951 10.5927 5.40951 10.5927 5.28458C9.84408 6.0342 9.84408 7.03371 10.5927 7.6584C11.2166 8.28309 12.2148 8.15815 12.714 7.53346C15.9582 4.16014 20.5749 2.53594 25.1917 3.28557C28.935 3.91026 32.1792 5.90927 34.4252 8.90778C36.2968 11.5315 37.1703 14.53 37.0455 17.6534L34.5499 15.1547C33.9261 14.53 32.9278 14.53 32.4287 15.1547C31.8048 15.7794 31.8048 16.7789 32.4287 17.2786L37.4198 22.1512C38.0437 22.7759 39.0419 22.7759 39.6658 22.1512L44.5321 17.1537C45.156 16.529 45.156 15.5295 44.5321 15.0297C43.9082 14.405 42.91 14.405 42.2861 15.0297L40.2897 17.1537C40.2897 13.5305 39.1667 10.0322 36.9207 7.03371C34.1756 3.28557 30.1827 0.786812 25.566 0.162122C20.2006 -0.587506 14.5856 1.28656 10.5927 5.28458Z" fill="#E64510"/>
<path d="M23 19C24.6569 19 26 17.6569 26 16C26 14.3431 24.6569 13 23 13C21.3431 13 20 14.3431 20 16C20 17.6569 21.3431 19 23 19Z" fill="#FFB6AE"/>
<path d="M29.2697 23H15.7303C15.3246 23 15 23.4444 15 24C15 24.5556 15.3246 25 15.7303 25H29.2697C29.6754 25 30 24.5556 30 24C29.9884 23.4444 29.6638 23 29.2697 23Z" fill="#F15A23"/>
<path d="M30.8014 10.8536C30.77 10.813 30.7282 10.7725 30.6863 10.742C30.5295 10.6202 30.3413 10.5391 30.1322 10.5391H28.2608H16.7392H14.8678C14.3868 10.5391 14 10.9145 14 11.3813V20.6968C14 21.1636 14.3868 21.5391 14.8678 21.5391H30.1322C30.6132 21.5391 31 21.1636 31 20.6968V11.3813C31 11.1784 30.9268 10.9957 30.8014 10.8536ZM29.4736 18.1498C28.3862 18.1498 27.508 19.0022 27.508 20.0575H17.4711C17.4711 19.0022 16.5929 18.1498 15.5055 18.1498V13.9182C16.5929 13.9182 17.4711 13.0658 17.4711 12.0105H27.508C27.508 13.0658 28.3862 13.9182 29.4736 13.9182V18.1498Z" fill="#F15A23"/>
</svg>
