<svg width="42" height="32" viewBox="0 0 42 32" fill="none" xmlns="http://www.w3.org/2000/svg">
<g clip-path="url(#clip0)">
<path fill-rule="evenodd" clip-rule="evenodd" d="M4.78647 11.731C3.679 11.731 2.83984 12.578 2.83984 13.541V28.901C2.83984 29.864 3.679 30.711 4.78647 30.711H37.4157C38.5232 30.711 39.3623 29.864 39.3623 28.901V13.541C39.3623 12.578 38.5232 11.731 37.4157 11.731H4.78647ZM1.33984 13.541C1.33984 11.6745 2.92765 10.231 4.78647 10.231H37.4157C39.2745 10.231 40.8623 11.6745 40.8623 13.541V28.901C40.8623 30.7674 39.2745 32.211 37.4157 32.211H4.78647C2.92765 32.211 1.33984 30.7674 1.33984 28.901V13.541Z" fill="#FF713C"/>
<path fill-rule="evenodd" clip-rule="evenodd" d="M7.26772 14.75C6.28606 14.75 5.75 15.385 5.75 15.875V27.125C5.75 27.615 6.28606 28.25 7.26772 28.25H34.7323C35.7139 28.25 36.25 27.615 36.25 27.125V15.875C36.25 15.385 35.7139 14.75 34.7323 14.75H7.26772ZM4.25 15.875C4.25 14.3085 5.72969 13.25 7.26772 13.25H34.7323C36.2703 13.25 37.75 14.3085 37.75 15.875V27.125C37.75 28.6915 36.2703 29.75 34.7323 29.75H7.26772C5.72969 29.75 4.25 28.6915 4.25 27.125V15.875Z" fill="#FF713C"/>
<path d="M21.7079 26.9473C24.8727 26.9473 27.4382 24.3835 27.4382 21.2209C27.4382 18.0584 24.8727 15.4946 21.7079 15.4946C18.5431 15.4946 15.9775 18.0584 15.9775 21.2209C15.9775 24.3835 18.5431 26.9473 21.7079 26.9473Z" fill="#FF713C"/>
<path fill-rule="evenodd" clip-rule="evenodd" d="M32 14.25C32.4142 14.25 32.75 14.5858 32.75 15C32.75 15.5263 33.0346 16.0727 33.6144 16.5127C34.193 16.9517 35.0302 17.25 36 17.25C36.4142 17.25 36.75 17.5858 36.75 18C36.75 18.4142 36.4142 18.75 36 18.75C34.7325 18.75 33.5698 18.3618 32.7077 17.7076C31.8468 17.0544 31.25 16.1008 31.25 15C31.25 14.5858 31.5858 14.25 32 14.25Z" fill="#FF713C"/>
<path fill-rule="evenodd" clip-rule="evenodd" d="M5.25 25C5.25 24.5858 5.58579 24.25 6 24.25C7.1208 24.25 8.07642 24.8464 8.72705 25.7139C9.37612 26.5794 9.75 27.7418 9.75 29C9.75 29.4142 9.41421 29.75 9 29.75C8.58579 29.75 8.25 29.4142 8.25 29C8.25 28.0287 7.95995 27.1911 7.52705 26.6139C7.09571 26.0388 6.55133 25.75 6 25.75C5.58579 25.75 5.25 25.4142 5.25 25Z" fill="#FF713C"/>
<path fill-rule="evenodd" clip-rule="evenodd" d="M9 14.25C9.41421 14.25 9.75 14.5858 9.75 15C9.75 17.033 8.10043 18.75 6 18.75C5.58579 18.75 5.25 18.4142 5.25 18C5.25 17.5858 5.58579 17.25 6 17.25C7.25551 17.25 8.25 16.2212 8.25 15C8.25 14.5858 8.58579 14.25 9 14.25Z" fill="#FF713C"/>
<path fill-rule="evenodd" clip-rule="evenodd" d="M31.25 29C31.25 26.3563 33.3563 24.25 36 24.25C36.4142 24.25 36.75 24.5858 36.75 25C36.75 25.4142 36.4142 25.75 36 25.75C34.1847 25.75 32.75 27.1847 32.75 29C32.75 29.4142 32.4142 29.75 32 29.75C31.5858 29.75 31.25 29.4142 31.25 29Z" fill="#FF713C"/>
<path fill-rule="evenodd" clip-rule="evenodd" d="M3 1.65841C3 1.29478 3.2783 1 3.62161 1H13.1762C15.3152 1 17.2045 2.26825 18.1462 4.26175L19.9342 8.04682C20.0878 8.37202 19.9634 8.76755 19.6564 8.93026C19.3494 9.09297 18.976 8.96126 18.8224 8.63606L17.0344 4.85098C16.2998 3.29597 14.8366 2.31683 13.1762 2.31683H3.62161C3.2783 2.31683 3 2.02205 3 1.65841Z" fill="#FF713C"/>
<path fill-rule="evenodd" clip-rule="evenodd" d="M3.63496 1C3.98564 1 4.26992 1.31842 4.26992 1.71122V3.05281C4.26992 3.92403 4.8865 4.57756 5.63258 4.57756H14.365C14.7157 4.57756 15 4.89598 15 5.28878C15 5.68158 14.7157 6 14.365 6H5.63258C4.20982 6 3 4.73698 3 3.05281V1.71122C3 1.31842 3.28428 1 3.63496 1Z" fill="#FF713C"/>
<path fill-rule="evenodd" clip-rule="evenodd" d="M6.64911 5C7.0076 5 7.29822 5.25474 7.29822 5.56898V6.64224C7.29822 7.33923 7.92854 7.86205 8.69125 7.86205H14.3509C14.7094 7.86205 15 8.11679 15 8.43102C15 8.74526 14.7094 9 14.3509 9H8.69125C7.23678 9 6 7.98958 6 6.64224V5.56898C6 5.25474 6.29062 5 6.64911 5Z" fill="#FF713C"/>
<path fill-rule="evenodd" clip-rule="evenodd" d="M23.8547 4.2841C24.7967 2.27687 26.6855 1 28.8238 1H38.3784C38.7217 1 39 1.29698 39 1.66332C39 2.02966 38.7217 2.32664 38.3784 2.32664H28.8238C27.1634 2.32664 25.7002 3.31307 24.9656 4.87966L24.9639 4.88342L24.9639 4.88341L23.1759 8.6371C23.0203 8.96368 22.6461 9.09385 22.3401 8.92786C22.034 8.76186 21.9121 8.36255 22.0676 8.03598L23.8547 4.2841Z" fill="#FF713C"/>
<path fill-rule="evenodd" clip-rule="evenodd" d="M38.365 1C38.7157 1 39 1.31842 39 1.71122V3.05281C39 4.73698 37.7902 6 36.3674 6H27.635C27.2843 6 27 5.68158 27 5.28878C27 4.89598 27.2843 4.57756 27.635 4.57756H36.3674C37.1135 4.57756 37.7301 3.92403 37.7301 3.05281V1.71122C37.7301 1.31842 38.0144 1 38.365 1Z" fill="#FF713C"/>
<path fill-rule="evenodd" clip-rule="evenodd" d="M35.3509 5C35.7094 5 36 5.25474 36 5.56898V6.64224C36 7.98958 34.7632 9 33.3088 9H27.6491C27.2906 9 27 8.74526 27 8.43102C27 8.11679 27.2906 7.86205 27.6491 7.86205H33.3088C34.0715 7.86205 34.7018 7.33923 34.7018 6.64224V5.56898C34.7018 5.25474 34.9924 5 35.3509 5Z" fill="#FF713C"/>
<path d="M21.0338 22.4338L20.3597 21.4233H20.2923H19.5507V22.4338H18.7417V18.8633H20.2923C20.6293 18.8633 20.899 18.9307 21.1013 18.998C21.3035 19.1328 21.5057 19.2675 21.6406 19.4696C21.7754 19.6717 21.8428 19.8738 21.8428 20.1433C21.8428 20.4128 21.7754 20.6149 21.6406 20.817C21.5057 21.0191 21.3035 21.1538 21.1013 21.2885L21.9102 22.4338H21.0338ZM20.8316 19.6717C20.6968 19.6043 20.4945 19.537 20.2248 19.537H19.5507V20.7496H20.2248C20.4945 20.7496 20.6293 20.6822 20.7642 20.6149C20.899 20.4801 20.9664 20.3454 20.9664 20.1433C21.0338 19.9412 20.9664 19.8064 20.8316 19.6717Z" fill="white"/>
<path d="M24.7418 19.8066C24.9441 19.9413 25.1463 20.0761 25.2138 20.2782C25.3486 20.4803 25.416 20.7498 25.416 21.0192C25.416 21.2887 25.3486 21.5582 25.2138 21.7603C25.0789 21.9624 24.9441 22.1645 24.7418 22.2319C24.5396 22.3666 24.2699 22.434 24.0677 22.434C23.7306 22.434 23.4609 22.2992 23.2587 22.0971V23.3771H22.4497V19.6719H23.1913V20.0087C23.3935 19.7392 23.6632 19.6719 24.0677 19.6719C24.3373 19.6719 24.5396 19.6719 24.7418 19.8066ZM24.4048 21.6256C24.5396 21.4908 24.607 21.2887 24.607 21.0866C24.607 20.8845 24.5396 20.6824 24.4048 20.5477C24.2699 20.4129 24.1351 20.3456 23.9329 20.3456C23.7306 20.3456 23.5958 20.4129 23.4609 20.5477C23.3261 20.6824 23.2587 20.8845 23.2587 21.0866C23.2587 21.2887 23.3261 21.4908 23.4609 21.6256C23.5958 21.7603 23.7306 21.8277 23.9329 21.8277C24.1351 21.8277 24.2699 21.7603 24.4048 21.6256Z" fill="white"/>
</g>
<defs>
<clipPath id="clip0">
<rect width="42" height="32" fill="white"/>
</clipPath>
</defs>
</svg>
