<svg width="34" height="33" viewBox="0 0 34 33" fill="none" xmlns="http://www.w3.org/2000/svg">
<path d="M30.2964 7.00914L27.3836 6.22865L21.7737 4.72549L20.587 4.40752L18.2136 3.77156L17.0269 3.45359L8.82783 1.25666C7.2096 0.823056 5.60459 1.63467 5.10163 3.08022L1.5177 16.4556C1.23051 17.959 2.24289 19.3591 3.61715 19.8401L25.4093 25.6793C27.0558 26.0076 28.689 25.0907 29.1123 23.5109L32.5269 10.7674C32.9502 9.18766 31.9146 7.44275 30.2964 7.00914Z" fill="white"/>
<path fill-rule="evenodd" clip-rule="evenodd" d="M4.75666 2.96016C5.32852 1.3166 7.13744 0.425667 8.92222 0.903897L30.3908 6.65638C32.1958 7.14002 33.3571 9.07936 32.8795 10.8619L29.4649 23.6053C28.9864 25.3912 27.1518 26.3991 25.3378 26.0373L25.3262 26.035L3.50932 20.1892L3.4964 20.1847C1.9852 19.6557 0.831508 18.101 1.15894 16.387L1.16144 16.3739L4.75228 2.97276L4.75666 2.96016ZM5.45064 3.18799L1.87385 16.5367C1.63578 17.8205 2.49851 19.0553 3.72514 19.491L25.492 25.3234C26.9668 25.6119 28.3923 24.7866 28.7595 23.4163L32.1741 10.6729C32.5431 9.29582 31.6333 7.74533 30.2018 7.36176L8.73321 1.60928C7.28625 1.22157 5.88954 1.94785 5.45064 3.18799Z" fill="#FF713C"/>
<path d="M30.8885 12.1342L5.75195 5.39893L4.84891 8.76913L29.9854 15.5044L30.8885 12.1342Z" fill="#FF713C"/>
<path d="M11.2953 18.0552L11.4444 17.9689C11.5936 17.8825 11.5936 17.8825 11.6251 17.7647C11.8777 16.8222 12.1618 15.7618 12.4143 14.8193C12.4459 14.7015 12.4775 14.5837 12.3599 14.5522L12.2739 14.4028C12.2739 14.4028 12.2739 14.4028 12.3915 14.4343C12.6266 14.4973 12.8617 14.5603 13.0969 14.6233C13.2144 14.6548 13.2144 14.6548 13.1829 14.7727C13.3777 15.4562 13.6041 16.022 13.9165 16.7371C14.057 17.1536 14.1974 17.57 14.3694 17.8687C14.5904 17.0439 14.7798 16.337 15.0007 15.5123C15.0323 15.3945 15.0323 15.3945 14.9463 15.2452C14.9463 15.2452 14.8603 15.0959 14.7428 15.0644C15.0955 15.1589 15.4481 15.2534 15.8008 15.3479C15.8008 15.3479 15.6833 15.3164 15.6517 15.4342C15.5341 15.4027 15.5026 15.5205 15.471 15.6383C15.1553 16.8165 14.8712 17.8768 14.5555 19.055C14.5555 19.055 14.5555 19.055 14.5239 19.1728C14.5239 19.1728 14.5239 19.1728 14.4924 19.2907C14.4924 19.2907 14.4924 19.2907 14.3748 19.2592C14.0852 18.929 13.9133 18.6304 13.7413 18.3317C13.3429 17.4673 13.062 16.6344 12.6636 15.77C12.6636 15.77 12.6636 15.77 12.6952 15.6522C12.6952 15.6522 12.6952 15.6522 12.6636 15.77C12.4426 16.5947 12.2532 17.3016 12.0322 18.1264C12.0007 18.2442 11.9691 18.362 12.0867 18.3935L12.1727 18.5428C12.1727 18.5428 12.1727 18.5428 12.0551 18.5113C11.8831 18.2127 11.648 18.1497 11.2953 18.0552Z" fill="#FF713C"/>
<path d="M10.5707 15.588C10.6882 15.6195 10.7742 15.7689 11.0094 15.8319C11.1813 16.1305 11.3533 16.4291 11.2586 16.7826C11.1639 17.136 10.9516 17.458 10.5358 17.5991C10.1516 17.6224 9.88486 17.6773 9.64973 17.6143L9.53217 17.5828C9.06191 17.4567 8.47409 17.2992 8.00384 17.1732C8.00384 17.1732 8.00384 17.1732 7.88627 17.1417L8.03541 17.0554C8.18454 16.9691 8.21611 16.8513 8.24768 16.7335C8.50023 15.7909 8.75278 14.8484 9.0369 13.788C9.06847 13.6702 9.10004 13.5524 8.98248 13.5209C8.98248 13.5209 8.86492 13.4894 8.89648 13.3716C8.89648 13.3716 8.89648 13.3716 9.01405 13.4031C9.4843 13.5291 10.0721 13.6866 10.5424 13.8126C10.7775 13.8756 10.9811 14.0564 11.1846 14.2372C11.4426 14.6852 11.3163 15.1565 10.8689 15.4154C10.7198 15.5017 10.6882 15.6195 10.5707 15.588ZM9.14247 16.2156C9.07934 16.4512 9.0162 16.6868 8.95306 16.9225C8.92149 17.0403 8.92149 17.0403 9.03906 17.0718C9.27418 17.1348 9.39175 17.1663 9.62687 17.2293C9.862 17.2923 10.1287 17.2375 10.3954 17.1827C10.6937 17.01 10.7884 16.6566 10.7339 16.3895C10.476 15.9415 10.39 15.7922 10.1548 15.7292C9.91971 15.6662 9.68458 15.6032 9.44945 15.5402C9.33189 15.5087 9.33189 15.5087 9.30032 15.6265C9.23718 15.8621 9.20561 15.9799 9.14247 16.2156ZM9.55287 14.6839C9.5213 14.8018 9.45817 15.0374 9.4266 15.1552C9.39503 15.273 9.39503 15.273 9.51259 15.3045C9.74772 15.3675 9.86528 15.399 10.1004 15.462L10.218 15.4935C10.5162 15.3209 10.6969 15.1168 10.6741 14.7318C10.7372 14.4962 10.4477 14.1661 10.3301 14.1345C10.2125 14.103 9.97742 14.04 9.85985 14.0085C9.74229 13.977 9.74229 13.977 9.71072 14.0949C9.64758 14.3305 9.61601 14.4483 9.55287 14.6839Z" fill="#FF713C"/>
<path d="M16.5862 19.4727C16.2335 19.3782 15.8808 19.2837 15.4105 19.1577L15.5597 19.0714C15.7088 18.9851 15.8263 19.0166 15.8895 18.7809C16.142 17.8384 16.3946 16.8959 16.6471 15.9533C16.6787 15.8355 16.7103 15.7177 16.5927 15.6862L16.5067 15.5369C16.8594 15.6314 17.2121 15.7259 17.5648 15.8204C17.5648 15.8204 17.5648 15.8204 17.4472 15.7889C17.2981 15.8752 17.2981 15.8752 17.235 16.1108C16.9824 17.0534 16.7299 17.9959 16.4457 19.0563C16.4142 19.1741 16.3826 19.2919 16.5002 19.3234C16.5002 19.3234 16.4686 19.4412 16.5862 19.4727Z" fill="#FF713C"/>
<path d="M4.09914 12.4648C4.13071 12.347 4.13071 12.347 4.16228 12.2291C4.16228 12.2291 4.19385 12.1113 4.31141 12.1428C4.6641 12.2373 5.01679 12.3318 5.36949 12.4263C5.36949 12.4263 5.48705 12.4578 5.36949 12.4263C5.12565 12.8661 5.11693 13.3689 5.13979 13.7538C5.16265 14.1388 5.33464 14.4374 5.50663 14.7361L5.47506 14.8539C5.32592 14.9402 5.20836 14.9087 5.05923 14.995L4.94166 14.9635C4.71525 14.3977 4.48883 13.832 4.26242 13.2662C4.17642 13.1169 4.09043 12.9676 4.00443 12.8182L4.036 12.7004C4.06757 12.5826 4.06757 12.5826 4.09914 12.4648Z" fill="#FF713C"/>
<path d="M7.45042 15.0044C7.38729 15.24 7.32415 15.4757 7.29258 15.5935C7.29258 15.5935 7.26101 15.7113 7.14344 15.6798C6.87675 15.7346 6.75918 15.7031 6.55562 15.5223C6.46963 15.373 6.29764 15.0743 6.12565 14.7757C6.10279 14.3908 6.16593 14.1551 6.34663 13.951C6.52734 13.7469 6.9116 13.7235 7.11516 13.9044C7.35028 13.9674 7.43628 14.1167 7.63984 14.2975C7.63984 14.2975 7.63984 14.2975 7.60827 14.4153C7.5767 14.5331 7.51356 14.7688 7.45042 15.0044Z" fill="#FF713C"/>
<path d="M6.89792 12.8358C7.25061 12.9303 7.6033 13.0248 7.83843 13.0878C7.95599 13.1193 7.95599 13.1193 7.92442 13.2371C7.89285 13.3549 7.86129 13.4727 7.82972 13.5905C7.79815 13.7084 7.79815 13.7084 7.71215 13.559C7.27347 13.3152 6.77164 13.307 6.32424 13.566C6.14354 13.7701 6.0804 14.0057 6.04883 14.1236C5.72771 13.9112 5.70485 13.5263 5.682 13.1413C5.71357 13.0235 5.77671 12.7879 5.80827 12.6701C5.83984 12.5522 5.95741 12.5837 5.95741 12.5837C6.3101 12.6783 6.66279 12.7728 6.89792 12.8358Z" fill="#FF713C"/>
<path d="M5.95082 16.3705C5.59813 16.276 5.54371 16.0088 5.34015 15.828C5.25415 15.6787 5.16816 15.5294 5.19973 15.4116L5.2313 15.2937C5.38043 15.2074 5.49799 15.2389 5.52956 15.1211C5.64713 15.1526 5.64713 15.1526 5.64713 15.1526C5.70155 15.4197 5.90511 15.6006 6.10867 15.7814C6.31223 15.9622 6.54735 16.0252 6.93161 16.0019L7.08075 15.9156C7.01761 16.1512 6.95447 16.3868 6.89133 16.6225C6.82819 16.8581 6.85976 16.7403 6.7422 16.7088C6.38951 16.6143 6.03682 16.5198 5.68413 16.4253C5.68413 16.4253 5.68413 16.4253 5.56656 16.3938C5.80169 16.4568 5.91925 16.4883 5.95082 16.3705Z" fill="#FF713C"/>
<path d="M3.49925 14.7031C3.59396 14.3496 3.68866 13.9962 3.78337 13.6427C3.78337 13.6427 3.78337 13.6427 3.81494 13.5249C4.15892 14.1222 4.26777 14.6564 4.52576 15.1044L4.49419 15.2222C4.04679 15.4812 3.63096 15.6223 3.30112 15.9128C3.30112 15.9128 3.30112 15.9128 3.33269 15.7949C3.30984 15.41 3.40454 15.0565 3.49925 14.7031Z" fill="#FF713C"/>
<path d="M4.35934 16.1964C4.12422 16.1334 3.88909 16.0704 3.77152 16.0389C4.06979 15.8663 4.36805 15.6937 4.66632 15.521C4.66632 15.521 4.66632 15.521 4.78388 15.5525C4.83831 15.8197 4.89274 16.0868 5.06473 16.3854C4.8296 16.3224 4.59447 16.2594 4.35934 16.1964Z" fill="#FF713C"/>
<path d="M31.1988 10.9756L6.06227 4.24034L6.20337 3.71375C6.45735 2.76589 7.54616 2.1546 8.5171 2.41476L29.9856 8.16723C30.9565 8.42739 31.6221 9.39587 31.3399 10.4491L31.1988 10.9756Z" fill="#FF713C"/>
<path d="M28.6683 13.4985L25.417 12.6274C25.2489 12.5823 25.1027 12.6793 25.0516 12.8699C25.0005 13.0605 25.0786 13.2176 25.2468 13.2627L28.498 14.1338C28.6662 14.1789 28.8124 14.0819 28.8634 13.8913C28.9145 13.7007 28.7804 13.5286 28.6683 13.4985Z" fill="white"/>
<path d="M28.1338 15.3978L23.0243 14.0288C22.8419 13.9799 22.6862 14.0743 22.6351 14.2649C22.584 14.4555 22.6716 14.6152 22.8541 14.6641L27.9636 16.0331C28.1461 16.082 28.3018 15.9876 28.3529 15.797C28.4039 15.6064 28.2555 15.4304 28.1338 15.3978Z" fill="white"/>
<path d="M25.7184 12.415H22.7028H16.895H15.6665H13.2093H11.9808H3.49249C1.81718 12.415 0.476921 13.6144 0.365234 15.1409V28.9881C0.476921 30.5146 1.81718 31.6049 3.26912 31.7139H25.83C27.5054 31.6049 28.8456 30.2965 28.8456 28.661V15.468C28.8456 13.8325 27.3937 12.415 25.7184 12.415Z" fill="white"/>
<path fill-rule="evenodd" clip-rule="evenodd" d="M0.000973422 15.1141C0.127958 13.3786 1.64465 12.0498 3.49239 12.0498H25.7183C27.5869 12.0498 29.2106 13.6225 29.2106 15.4679V28.6609C29.2106 30.5098 27.6995 31.9581 25.8536 32.0782L25.8418 32.0789H3.25533L3.24169 32.0779C1.64506 31.9581 0.12831 30.755 0.000973487 29.0147L0 29.0014V15.1274L0.000973422 15.1141ZM0.730266 15.1546V28.9742C0.832571 30.2758 1.9855 31.2453 3.2831 31.3487H25.8178C27.317 31.2456 28.4804 30.0794 28.4804 28.6609V15.4679C28.4804 14.0423 27.2003 12.7801 25.7183 12.7801H3.49239C1.99438 12.7801 0.833247 13.8431 0.730266 15.1546Z" fill="#FF713C"/>
<path d="M27.6165 17.2124H1.59326V20.7015H27.6165V17.2124Z" fill="#FF713C"/>
<path d="M10.2236 28.0024L10.3453 27.8804C10.4671 27.7584 10.4671 27.7584 10.4671 27.6364C10.4671 26.6607 10.4671 25.5629 10.4671 24.5871C10.4671 24.4651 10.4671 24.3432 10.3453 24.3432L10.2236 24.2212C10.2236 24.2212 10.2236 24.2212 10.3453 24.2212C10.5888 24.2212 10.8322 24.2212 11.0756 24.2212C11.1973 24.2212 11.1973 24.2212 11.1973 24.3432C11.5625 24.953 11.9276 25.4409 12.4144 26.0508C12.6579 26.4167 12.9013 26.7826 13.1447 27.0266C13.1447 26.1728 13.1447 25.4409 13.1447 24.5871C13.1447 24.4651 13.1447 24.4651 13.023 24.3432C13.023 24.3432 12.9013 24.2212 12.7796 24.2212C13.1447 24.2212 13.5098 24.2212 13.875 24.2212C13.875 24.2212 13.7533 24.2212 13.7533 24.3432C13.6315 24.3432 13.6315 24.4651 13.6315 24.5871C13.6315 25.8068 13.6315 26.9046 13.6315 28.1243C13.6315 28.1243 13.6315 28.1243 13.6315 28.2463C13.6315 28.2463 13.6315 28.2463 13.6315 28.3683C13.6315 28.3683 13.6315 28.3683 13.5098 28.3683C13.1447 28.1243 12.9013 27.8804 12.6579 27.6364C12.0493 26.9046 11.5625 26.1728 10.9539 25.4409C10.9539 25.4409 10.9539 25.4409 10.9539 25.319C10.9539 25.319 10.9539 25.319 10.9539 25.4409C10.9539 26.2947 10.9539 27.0266 10.9539 27.8804C10.9539 28.0024 10.9539 28.1243 11.0756 28.1243L11.1973 28.2463C11.1973 28.2463 11.1973 28.2463 11.0756 28.2463C10.8322 28.0024 10.5888 28.0024 10.2236 28.0024Z" fill="#FF713C"/>
<path d="M8.88513 25.8068C9.00685 25.8068 9.12856 25.9287 9.37198 25.9287C9.6154 26.1727 9.85882 26.4166 9.85882 26.7825C9.85882 27.1485 9.73711 27.5144 9.37198 27.7583C9.00685 27.8803 8.76342 28.0023 8.52 28.0023H8.39829C7.91145 28.0023 7.30289 28.0023 6.81605 28.0023C6.81605 28.0023 6.81605 28.0023 6.69434 28.0023L6.81605 27.8803C6.93776 27.7583 6.93776 27.6364 6.93776 27.5144C6.93776 26.5386 6.93776 25.5628 6.93776 24.465C6.93776 24.3431 6.93776 24.2211 6.81605 24.2211C6.81605 24.2211 6.69434 24.2211 6.69434 24.0991C6.69434 24.0991 6.69434 24.0991 6.81605 24.0991C7.30289 24.0991 7.91145 24.0991 8.39829 24.0991C8.64171 24.0991 8.88514 24.2211 9.12856 24.3431C9.49369 24.709 9.49369 25.1969 9.12856 25.5628C9.00685 25.6848 9.00685 25.8068 8.88513 25.8068ZM7.66802 26.7825C7.66802 27.0265 7.66802 27.2704 7.66802 27.5144C7.66802 27.6364 7.66802 27.6364 7.78974 27.6364C8.03316 27.6364 8.15487 27.6364 8.39829 27.6364C8.64171 27.6364 8.88514 27.5144 9.12856 27.3924C9.37198 27.1485 9.37198 26.7825 9.25027 26.5386C8.88513 26.1727 8.76342 26.0507 8.52 26.0507C8.27658 26.0507 8.03316 26.0507 7.78974 26.0507C7.66802 26.0507 7.66802 26.0507 7.66802 26.1727C7.66802 26.4166 7.66802 26.5386 7.66802 26.7825ZM7.66802 25.1969C7.66802 25.3189 7.66802 25.5628 7.66802 25.6848C7.66802 25.8068 7.66802 25.8068 7.78974 25.8068C8.03316 25.8068 8.15487 25.8068 8.39829 25.8068H8.52C8.76342 25.5628 8.88513 25.3189 8.76342 24.9529C8.76342 24.709 8.39829 24.465 8.27658 24.465C8.15487 24.465 7.91145 24.465 7.78974 24.465C7.66802 24.465 7.66802 24.465 7.66802 24.587C7.66802 24.831 7.66802 24.9529 7.66802 25.1969Z" fill="#FF713C"/>
<path d="M15.701 28.0024C15.3359 28.0024 14.9707 28.0024 14.4839 28.0024L14.6056 27.8804C14.7273 27.7584 14.849 27.7584 14.849 27.5145C14.849 26.5387 14.849 25.5629 14.849 24.5871C14.849 24.4651 14.849 24.3432 14.7273 24.3432L14.6056 24.2212C14.9707 24.2212 15.3359 24.2212 15.701 24.2212C15.701 24.2212 15.701 24.2212 15.5793 24.2212C15.4576 24.3432 15.4576 24.3432 15.4576 24.5871C15.4576 25.5629 15.4576 26.5387 15.4576 27.6365C15.4576 27.7584 15.4576 27.8804 15.5793 27.8804C15.5793 27.8804 15.5793 28.0024 15.701 28.0024Z" fill="#FF713C"/>
<path d="M1.82568 24.465C1.82568 24.3431 1.82568 24.3431 1.82568 24.2211C1.82568 24.2211 1.82568 24.0991 1.94739 24.0991C2.31253 24.0991 2.67766 24.0991 3.04279 24.0991C3.04279 24.0991 3.1645 24.0991 3.04279 24.0991C2.92108 24.587 3.04279 25.0749 3.1645 25.4408C3.28622 25.8068 3.52964 26.0507 3.77306 26.2946V26.4166C3.65135 26.5386 3.52964 26.5386 3.40793 26.6606H3.28622C2.92108 26.1727 2.55595 25.6848 2.19082 25.1969C2.06911 25.0749 1.94739 24.9529 1.82568 24.831V24.709C1.82568 24.587 1.82568 24.587 1.82568 24.465Z" fill="#FF713C"/>
<path d="M5.72015 26.051C5.72015 26.2949 5.72015 26.5389 5.72015 26.6609C5.72015 26.6609 5.72014 26.7828 5.59843 26.7828C5.35501 26.9048 5.2333 26.9048 4.98988 26.7828C4.86817 26.6609 4.62474 26.4169 4.38132 26.173C4.25961 25.807 4.25961 25.5631 4.38132 25.3191C4.50303 25.0752 4.86817 24.9532 5.11159 25.0752C5.35501 25.0752 5.47672 25.1972 5.72015 25.3191C5.72015 25.3191 5.72015 25.3191 5.72015 25.4411C5.72015 25.5631 5.72015 25.807 5.72015 26.051Z" fill="#FF713C"/>
<path d="M4.62518 24.0991C4.99032 24.0991 5.35545 24.0991 5.59887 24.0991C5.72058 24.0991 5.72058 24.0991 5.72058 24.2211C5.72058 24.3431 5.72058 24.465 5.72058 24.587C5.72058 24.709 5.72058 24.709 5.59887 24.587C5.11203 24.465 4.62518 24.587 4.26005 24.9529C4.13834 25.1969 4.13834 25.4408 4.13834 25.5628C3.77321 25.4408 3.6515 25.0749 3.52979 24.709C3.52979 24.587 3.52979 24.3431 3.52979 24.2211C3.52979 24.0991 3.6515 24.0991 3.6515 24.0991C4.01663 24.0991 4.38176 24.0991 4.62518 24.0991Z" fill="#FF713C"/>
<path d="M4.62505 27.7584C4.25992 27.7584 4.13821 27.5145 3.89479 27.3925C3.77308 27.2705 3.65137 27.1485 3.65137 27.0266V26.9046C3.77308 26.7826 3.89479 26.7826 3.89479 26.6606C4.0165 26.6606 4.0165 26.6606 4.0165 26.6606C4.13821 26.9046 4.38163 27.0266 4.62505 27.1485C4.86848 27.2705 5.1119 27.2705 5.47703 27.1485L5.59874 27.0266C5.59874 27.2705 5.59874 27.5145 5.59874 27.7584C5.59874 28.0024 5.59874 27.8804 5.47703 27.8804C5.1119 27.8804 4.74677 27.8804 4.38163 27.8804C4.38163 27.8804 4.38163 27.8804 4.25992 27.8804C4.50334 27.8804 4.62505 27.8804 4.62505 27.7584Z" fill="#FF713C"/>
<path d="M1.82568 26.7827C1.82568 26.4168 1.82568 26.0509 1.82568 25.685C1.82568 25.685 1.82568 25.685 1.82568 25.563C2.31253 26.0509 2.55595 26.5388 2.92108 26.9047V27.0267C2.55595 27.3926 2.19082 27.6365 1.94739 28.0025C1.94739 28.0025 1.94739 28.0025 1.94739 27.8805C1.82568 27.5146 1.82568 27.1486 1.82568 26.7827Z" fill="#FF713C"/>
<path d="M3.04264 28.0023C2.79921 28.0023 2.55579 28.0023 2.43408 28.0023C2.6775 27.7584 2.92093 27.5145 3.16435 27.2705C3.16435 27.2705 3.16435 27.2705 3.28606 27.2705C3.40777 27.5145 3.52948 27.7584 3.7729 28.0023C3.52948 28.0023 3.28606 28.0023 3.04264 28.0023Z" fill="#FF713C"/>
<path d="M27.6165 16.013H1.59326V15.4678C1.59326 14.4865 2.48676 13.6143 3.49195 13.6143H25.7178C26.723 13.6143 27.6165 14.3775 27.6165 15.4678V16.013Z" fill="#FF713C"/>
<path d="M25.8251 19.1045H22.4591C22.285 19.1045 22.1689 19.236 22.1689 19.4334C22.1689 19.6307 22.285 19.7622 22.4591 19.7622H25.8251C25.9992 19.7622 26.1152 19.6307 26.1152 19.4334C26.1152 19.236 25.9411 19.1045 25.8251 19.1045Z" fill="white"/>
<path d="M25.8004 21.0776H20.5106C20.3218 21.0776 20.1958 21.2092 20.1958 21.4065C20.1958 21.6038 20.3218 21.7354 20.5106 21.7354H25.8004C25.9893 21.7354 26.1153 21.6038 26.1153 21.4065C26.1153 21.2092 25.9264 21.0776 25.8004 21.0776Z" fill="white"/>
</svg>
