<svg width="15" height="16" viewBox="0 0 15 16" fill="none" xmlns="http://www.w3.org/2000/svg">
<path d="M14.25 0H3C2.60218 0 2.22064 0.168571 1.93934 0.468629C1.65804 0.768687 1.5 1.17565 1.5 1.6V4H0V5.6H1.5V7.2H0V8.8H1.5V10.4H0V12H1.5V14.4C1.5 14.8243 1.65804 15.2313 1.93934 15.5314C2.22064 15.8314 2.60218 16 3 16H14.25C14.4489 16 14.6397 15.9157 14.7803 15.7657C14.921 15.6157 15 15.4122 15 15.2V0.8C15 0.587827 14.921 0.384344 14.7803 0.234315C14.6397 0.0842854 14.4489 0 14.25 0ZM8.25 2.3992C9.486 2.3992 10.5 3.48 10.5 4.7992C10.4978 5.43508 10.2601 6.04427 9.83864 6.49398C9.41717 6.94369 8.84614 7.19747 8.25 7.2C7.01475 7.2 6 6.1176 6 4.7992C6 3.48 7.01475 2.3992 8.25 2.3992ZM12.75 12.8H3.75V12.2C3.75 10.4248 5.77875 8.6 8.25 8.6C10.7213 8.6 12.75 10.4248 12.75 12.2V12.8Z" fill="#E64510"/>
</svg>
