<svg width="38" height="33" viewBox="0 0 38 33" fill="none" xmlns="http://www.w3.org/2000/svg">
<path d="M36.8152 13.1268C35.8183 12.7024 34.8068 12.2634 33.8243 11.839C33.0297 11.4878 32.235 11.1512 31.4403 10.8C31.2958 10.7415 31.2669 10.6976 31.2669 10.522C31.2814 8.13659 31.2814 5.76585 31.2669 3.14634C31.2669 1.2439 30.0532 0 28.1749 0C21.962 0 15.7924 0 9.8251 0C9.47833 0 9.16046 0.0439024 8.88593 0.117073C7.55665 0.453659 6.71863 1.60976 6.71863 3.10244C6.71863 5.85366 6.71863 8.16585 6.71863 10.522C6.71863 10.7122 6.68973 10.7561 6.51635 10.8293C5.76502 11.1512 5.02814 11.4732 4.27681 11.7951C3.2654 12.2341 2.21065 12.6878 1.17034 13.1268C0.390114 13.4634 0 14.0488 0 14.9415C0 17.5024 0 20.0488 0 22.6098C0 25.039 0 27.4537 0 29.8829C0 30.1171 0.0144487 30.4829 0.101141 30.8049C0.491255 32.2244 1.57491 33 3.12091 33C6.94981 33 10.7643 33 14.5932 33H18.9856H23.5224C25.0395 33 26.5422 33 28.0593 33C30.3278 33 32.5817 33 34.8502 33C36.7574 33 38 31.7561 38 29.8098V24.9951C38 21.6439 38 18.2927 38 14.9561C38 14.0634 37.6099 13.4634 36.8152 13.1268ZM35.8183 14.6634L31.2958 17.2683V12.7024L35.8183 14.6634ZM28.1027 1.8C29.0996 1.8 29.4897 2.20976 29.4897 3.20488V6.74634C29.4897 10.4634 29.4897 14.2976 29.4897 18.0732C29.4897 18.2634 29.4464 18.3366 29.2875 18.4244C25.9354 20.3561 22.5544 22.3171 19.2023 24.2634C19.0144 24.3659 18.9133 24.3659 18.7399 24.2634C15.7924 22.5512 12.5848 20.6927 8.62586 18.4098C8.48137 18.322 8.45247 18.278 8.45247 18.1171C8.45247 14.9707 8.45247 11.8244 8.45247 8.67805C8.45247 6.81951 8.45247 4.96098 8.45247 3.11707C8.45247 2.25366 8.90038 1.81463 9.7673 1.81463C11.1255 1.81463 12.4981 1.81463 13.8563 1.81463C14.7087 1.81463 15.5612 1.81463 16.4137 1.81463H18.9856H21.5285C23.7392 1.8 25.9209 1.8 28.1027 1.8ZM2.29734 16.8C2.88973 17.1366 3.45323 17.4585 4.01673 17.7951L7.07985 19.5512C10.6487 21.6146 14.3331 23.7512 17.9597 25.8585C18.6677 26.2683 19.3323 26.2683 20.0403 25.8585C24.2738 23.4 28.5939 20.8976 32.7551 18.4976L36.0639 16.5805C36.1072 16.5512 36.1506 16.5366 36.2084 16.5073V20.0634C36.2084 23.3268 36.2084 26.5756 36.2084 29.839C36.2084 30.8049 35.8038 31.2146 34.8646 31.2146C24.2882 31.2146 13.7262 31.2146 3.14981 31.2146C2.21065 31.2146 1.80608 30.8049 1.80608 29.8537V16.5366L2.29734 16.8ZM6.67529 12.7024V17.2683L2.15285 14.6634L6.67529 12.7024Z" fill="#FF713C"/>
<path d="M19.4237 29.562C22.9715 29.562 25.8475 26.75 25.8475 23.2811C25.8475 19.8121 22.9715 17 19.4237 17C15.876 17 13 19.8121 13 23.2811C13 26.75 15.876 29.562 19.4237 29.562Z" fill="#FF713C" stroke="white" stroke-width="1.7878" stroke-linecap="round"/>
<path d="M18.7203 25.2031L17.982 24.1367H17.9383H17.1672V25.2031H16.2812V21.375H17.9383C18.2773 21.375 18.5708 21.4315 18.8188 21.5445C19.0703 21.6576 19.2635 21.818 19.3984 22.0258C19.5333 22.2336 19.6008 22.4797 19.6008 22.7641C19.6008 23.0484 19.5315 23.2945 19.393 23.5023C19.2581 23.7065 19.0648 23.8633 18.8133 23.9727L19.6719 25.2031H18.7203ZM18.7039 22.7641C18.7039 22.549 18.6346 22.3849 18.4961 22.2719C18.3576 22.1552 18.1552 22.0969 17.8891 22.0969H17.1672V23.4313H17.8891C18.1552 23.4313 18.3576 23.3729 18.4961 23.2563C18.6346 23.1396 18.7039 22.9755 18.7039 22.7641Z" fill="white"/>
<path d="M21.9816 22.2172C22.255 22.2172 22.503 22.281 22.7254 22.4086C22.9514 22.5326 23.1282 22.7094 23.2558 22.9391C23.3834 23.1651 23.4472 23.4294 23.4472 23.732C23.4472 24.0346 23.3834 24.3008 23.2558 24.5305C23.1282 24.7565 22.9514 24.9333 22.7254 25.0609C22.503 25.1849 22.255 25.2469 21.9816 25.2469C21.6061 25.2469 21.3108 25.1284 21.0957 24.8914V26.2641H20.2425V22.2609H21.0574V22.6C21.2688 22.3448 21.5769 22.2172 21.9816 22.2172ZM21.834 24.5469C22.0527 24.5469 22.2313 24.474 22.3699 24.3281C22.5121 24.1786 22.5832 23.9799 22.5832 23.732C22.5832 23.4841 22.5121 23.2872 22.3699 23.1414C22.2313 22.9919 22.0527 22.9172 21.834 22.9172C21.6152 22.9172 21.4347 22.9919 21.2925 23.1414C21.154 23.2872 21.0847 23.4841 21.0847 23.732C21.0847 23.9799 21.154 24.1786 21.2925 24.3281C21.4347 24.474 21.6152 24.5469 21.834 24.5469Z" fill="white"/>
<path fill-rule="evenodd" clip-rule="evenodd" d="M12 6.5C12 6.22386 12.2239 6 12.5 6H25.5C25.7761 6 26 6.22386 26 6.5C26 6.77614 25.7761 7 25.5 7H12.5C12.2239 7 12 6.77614 12 6.5Z" fill="#FF713C"/>
<line x1="12.5" y1="10.5" x2="25.5" y2="10.5" stroke="#FF713C" stroke-linecap="round"/>
<line x1="12.5" y1="14.5" x2="25.5" y2="14.5" stroke="#FF713C" stroke-linecap="round"/>
</svg>
