<svg width="39" height="28" viewBox="0 0 39 28" fill="none" xmlns="http://www.w3.org/2000/svg">
<g clip-path="url(#clip0)">
<path d="M21.4152 1.32165C21.1168 2.79434 21.1265 4.23871 21.4152 5.73028C21.5788 5.73028 21.7425 5.73028 21.9061 5.73028C22.3873 5.72084 22.6953 5.97572 22.6953 6.51382C22.6857 13.4053 22.6857 20.2873 22.6857 27.1787C22.6857 27.7923 22.4643 28.0094 21.8291 28.0094C16.237 28.0094 10.6546 28.0094 5.06254 28.0094C2.84882 28.0094 1.00085 26.735 0.250106 24.6959C0.0576085 24.1767 -0.00976562 23.6291 -0.00976562 23.0816C-0.00976562 16.5866 -0.00976562 10.0917 -0.00976562 3.59676C-0.000140749 1.84086 1.12597 0.472016 2.84882 0.0755226C3.08944 0.028321 3.33969 0 3.58031 0C9.70173 0 15.8135 0 21.935 0C22.4066 0 22.6857 0.245448 22.6857 0.641942C22.6857 1.029 22.4066 1.3122 22.012 1.32165C21.8291 1.32165 21.6366 1.32165 21.4152 1.32165ZM4.15781 7.05192C4.15781 13.5752 4.15781 20.0701 4.15781 26.6312C7.02602 26.7161 9.88461 26.6595 12.7432 26.6689C15.6018 26.6784 18.47 26.6689 21.3286 26.6689C21.3286 20.1079 21.3286 13.5846 21.3286 7.05192C20.8473 7.05192 20.3853 7.05192 19.8945 7.05192C19.8945 7.14632 19.8945 7.23129 19.8945 7.31625C19.8945 8.43965 19.8945 9.56305 19.8945 10.6864C19.8945 11.3378 19.471 11.5738 18.8935 11.2529C18.5374 11.0546 18.1909 10.8564 17.8251 10.6676C17.7481 10.6298 17.6038 10.6204 17.5268 10.6581C17.1033 10.8564 16.6894 11.0735 16.2755 11.3001C16.083 11.4039 15.9098 11.3945 15.7365 11.2812C15.544 11.1585 15.4767 10.9791 15.4767 10.762C15.4767 9.61969 15.4767 8.46797 15.4767 7.32569C15.4767 7.23129 15.4767 7.14632 15.4767 7.04248C11.6845 7.05192 7.93076 7.05192 4.15781 7.05192ZM19.8656 4.1915C19.7597 4.1915 19.6635 4.1915 19.5576 4.1915C14.7259 4.1915 9.88461 4.1915 5.05292 4.1915C4.91817 4.1915 4.78342 4.18206 4.64867 4.1443C4.36955 4.06878 4.13856 3.76669 4.13856 3.50236C4.13856 3.25691 4.3503 2.9737 4.63905 2.90762C4.76417 2.8793 4.90855 2.8793 5.04329 2.8793C9.88461 2.8793 14.7259 2.8793 19.5769 2.8793C19.6827 2.8793 19.779 2.8793 19.8752 2.8793C19.933 2.35064 19.9907 1.8503 20.0485 1.34053C20.0004 1.34053 19.9619 1.33109 19.9234 1.33109C14.4468 1.32165 8.97024 1.3122 3.50331 1.32165C2.11733 1.32165 1.0971 2.58665 1.38584 4.0027C1.57834 4.93729 2.43495 5.73028 3.70544 5.73028C9.05687 5.7114 14.4179 5.72084 19.7694 5.72084C19.856 5.72084 19.9426 5.7114 20.0292 5.7114C19.9811 5.20162 19.9234 4.71072 19.8656 4.1915ZM1.35697 6.31558C1.35697 6.35334 1.34734 6.40054 1.34734 6.45718C1.34734 11.9987 1.34734 17.5496 1.34734 23.091C1.34734 23.8274 1.55909 24.4976 1.97296 25.1018C2.23283 25.4889 2.56008 25.8098 2.97395 26.0931C2.97395 19.702 2.97395 13.3486 2.97395 7.04248C2.42533 6.79703 1.89596 6.56102 1.35697 6.31558ZM16.6413 9.83682C16.8819 9.71409 17.0936 9.61025 17.2958 9.48752C17.5556 9.33648 17.7963 9.3176 18.0561 9.48752C18.2679 9.61969 18.4989 9.71409 18.7299 9.83682C18.7299 8.88334 18.7299 7.97707 18.7299 7.05192C18.0273 7.05192 17.3439 7.05192 16.6413 7.05192C16.6413 7.98651 16.6413 8.89278 16.6413 9.83682Z" fill="#FF713C"/>
<path d="M16.6411 9.83698C16.6411 8.89295 16.6411 7.97723 16.6411 7.06152C17.3437 7.06152 18.0271 7.06152 18.7297 7.06152C18.7297 7.98667 18.7297 8.89295 18.7297 9.84642C18.4891 9.72369 18.2677 9.62929 18.056 9.49713C17.7961 9.33664 17.5555 9.34608 17.2956 9.49713C17.0935 9.61985 16.8817 9.71425 16.6411 9.83698Z" fill="white"/>
<path d="M26.892 11.4795L25.6985 11.4984L14.6299 15.0007L25.3809 18.5314L36.4495 15.0291L26.892 11.4795Z" fill="white"/>
<path d="M36.4591 16.2939C35.8142 16.5016 35.1886 16.7093 34.563 16.917C34.1876 17.0397 34.1876 17.0397 34.1876 17.4268C34.1876 19.2488 34.1876 21.0707 34.178 22.8927C34.178 23.0532 34.1298 23.2326 34.0432 23.3836C33.8988 23.6385 33.6197 23.6668 33.254 23.563C32.7246 23.4025 32.1856 23.1948 31.6466 23.1382C29.481 22.8927 27.7293 23.648 26.4203 25.3661C26.2856 25.5455 26.1797 25.7343 26.0546 25.9231C25.7466 26.3951 25.198 26.3856 24.9188 25.8947C24.5723 25.2906 24.1296 24.7713 23.581 24.3371C22.6859 23.6291 21.6656 23.2231 20.5106 23.1287C19.5578 23.0532 18.653 23.2137 17.7772 23.5724C17.2093 23.799 16.8243 23.5441 16.8243 22.9399C16.8243 21.0519 16.8243 19.1732 16.8243 17.2852C16.8243 17.1058 16.7666 17.0303 16.5933 16.9736C15.2266 16.5299 13.8695 16.0862 12.5027 15.6331C11.9926 15.4632 11.7905 15.0195 12.0792 14.6513C12.1851 14.5191 12.368 14.4247 12.5316 14.3681C15.0052 13.5562 17.4788 12.7538 19.9428 11.9514C21.656 11.3944 23.3692 10.8374 25.0825 10.271C25.3712 10.1766 25.6311 10.1766 25.9198 10.271C30.097 11.6398 34.2742 12.9898 38.4514 14.3492C38.846 14.4814 38.9615 14.6136 38.9615 14.9534C38.9615 15.3121 38.8172 15.4915 38.4418 15.6142C38.1338 15.7181 37.8258 15.8125 37.5082 15.9163C37.3927 15.9541 37.3446 16.0013 37.3446 16.1334C37.3542 17.1908 37.3446 18.2481 37.3542 19.3148C37.3542 19.4187 37.3927 19.532 37.4312 19.6358C37.6429 20.1833 37.8547 20.7309 38.0664 21.2879C38.2397 21.7316 38.0183 22.0337 37.5371 22.0337C37.1136 22.0337 36.6901 22.0337 36.2666 22.0337C35.7949 22.0337 35.564 21.7127 35.7276 21.2784C35.9297 20.7309 36.1511 20.1928 36.3532 19.6547C36.4013 19.5131 36.4398 19.3526 36.4398 19.2016C36.4494 18.3047 36.4398 17.4079 36.4398 16.5205C36.4687 16.445 36.4591 16.3789 36.4591 16.2939ZM14.6298 15.0006C14.7357 15.0384 14.7935 15.0667 14.8512 15.0856C18.3643 16.2373 21.8678 17.389 25.3808 18.5313C25.4867 18.5691 25.6311 18.5502 25.7466 18.5124C28.5282 17.6156 31.3098 16.7093 34.0817 15.8125C34.8517 15.5576 35.6313 15.3027 36.4494 15.0384C36.3436 15.0006 36.2858 14.9723 36.2281 14.9534C32.7246 13.8017 29.2115 12.65 25.6985 11.4982C25.5926 11.4605 25.4578 11.4699 25.352 11.5077C24.3606 11.8192 23.3692 12.1496 22.3779 12.4706C19.8177 13.3108 17.2478 14.1415 14.6298 15.0006ZM25.5637 24.4881C27.5561 22.2036 30.02 21.4012 33.0134 22.1281C33.0134 20.5704 33.0134 19.0127 33.0134 17.4457C32.8979 17.4834 32.792 17.5117 32.6861 17.5401C30.4243 18.2764 28.1624 19.0033 25.9006 19.7397C25.6696 19.8152 25.4578 19.8152 25.2268 19.7397C22.965 18.9939 20.6935 18.267 18.422 17.5306C18.3258 17.5023 18.2295 17.4834 18.1237 17.4551C18.1237 19.0316 18.1237 20.5704 18.1237 22.1092C21.117 21.42 23.5906 22.2225 25.5637 24.4881Z" fill="#FF713C"/>
</g>
<defs>
<clipPath id="clip0">
<rect width="39" height="28" fill="white"/>
</clipPath>
</defs>
</svg>
