<svg width="18" height="17" viewBox="0 0 18 17" fill="none" xmlns="http://www.w3.org/2000/svg">
<path fill-rule="evenodd" clip-rule="evenodd" d="M10.788 11.6569C9.72346 12.498 8.37863 13 6.91663 13C3.46484 13 0.666626 10.2017 0.666626 6.75C0.666626 3.29822 3.46484 0.5 6.91663 0.5C10.3684 0.5 13.1666 3.29822 13.1666 6.75C13.1666 7.833 12.8911 8.85175 12.4065 9.73983L17.2827 14.6161C17.7709 15.1042 17.7709 15.8957 17.2827 16.3839C16.7946 16.872 16.0031 16.872 15.515 16.3839L10.788 11.6569ZM10.6666 6.75C10.6666 8.82108 8.98771 10.5 6.91663 10.5C4.84556 10.5 3.16663 8.82108 3.16663 6.75C3.16663 4.67893 4.84556 3 6.91663 3C8.98771 3 10.6666 4.67893 10.6666 6.75Z" fill="#F15A23"/>
</svg>
