<svg width="15" height="15" viewBox="0 0 15 15" fill="none" xmlns="http://www.w3.org/2000/svg">
<path d="M2.06443 7.43429L2.06388 7.43373C1.55985 6.91972 1.05656 6.40645 0.556937 5.89329L0.556051 5.89238C0.555838 5.89207 0.555611 5.89173 0.555371 5.89138C0.552113 5.88656 0.547773 5.87981 0.541289 5.8693L0.536727 5.86184C0.708638 5.82104 0.884234 5.79563 1.08315 5.76684C1.15226 5.75684 1.22419 5.74643 1.29976 5.73483C2.23981 5.59149 3.18269 5.45112 4.1244 5.31093C4.23693 5.29418 4.34944 5.27743 4.46193 5.26067C4.46501 5.26032 4.46798 5.25995 4.47083 5.25957C4.79646 5.27162 5.07717 5.17376 5.30387 4.97268C5.52114 4.77996 5.65399 4.52084 5.75097 4.30553L5.75175 4.30378C6.15547 3.39813 6.58174 2.50487 7.01145 1.6044C7.15893 1.29535 7.30681 0.985457 7.45433 0.67392C7.46031 0.662344 7.46515 0.652313 7.46858 0.645112L7.47451 0.632542L7.47744 0.628237L7.48948 0.606006C7.49292 0.599657 7.49625 0.593564 7.49947 0.587709C7.50081 0.59041 7.50217 0.593162 7.50353 0.595966C7.71943 1.0492 7.93168 1.50136 8.14462 1.95502C8.25155 2.18281 8.35865 2.41098 8.46648 2.63985C8.53198 2.7796 8.59742 2.91906 8.66279 3.05836C8.92564 3.61854 9.18722 4.176 9.44664 4.7385C9.50395 4.86581 9.59219 4.98256 9.72061 5.06833C9.84341 5.15036 9.96956 5.1815 10.066 5.19521L13.1729 5.65624L13.1736 5.65635L13.8087 5.75184L14.4285 5.84504L14.4297 5.84545C14.436 5.8477 14.4456 5.85109 14.4569 5.85485C14.319 6.01773 14.1713 6.16594 14.0067 6.33119C13.9625 6.37559 13.917 6.42121 13.8702 6.46867L13.8694 6.46954C13.653 6.69001 13.4368 6.91055 13.2207 7.13104C12.5796 7.78494 11.9391 8.43836 11.2962 9.08789C11.2058 9.17727 11.1146 9.29467 11.0623 9.45085C11.0092 9.6094 11.011 9.76345 11.0352 9.90187C11.26 11.2352 11.4777 12.5651 11.6957 13.8999L11.6956 13.8999L11.6962 13.9032C11.7033 13.9447 11.7101 13.9839 11.7166 14.0213C11.7453 14.185 11.7678 14.314 11.7742 14.4431C11.3512 14.2169 10.9331 13.9861 10.5117 13.7534C10.2901 13.631 10.0676 13.5082 9.84296 13.3852C9.61164 13.257 9.38203 13.131 9.15334 13.0054C8.74665 12.7822 8.34286 12.5605 7.9374 12.331C7.80513 12.2551 7.6492 12.2024 7.47155 12.2089C7.29993 12.2152 7.1574 12.2752 7.04828 12.3367C6.11955 12.8547 5.18906 13.3706 4.25886 13.8862C3.93723 14.0646 3.61563 14.2428 3.29415 14.4212L3.29249 14.4221C3.28101 14.4285 3.27109 14.4341 3.26245 14.439C3.23833 14.4525 3.22417 14.4604 3.21403 14.4658C3.21283 14.4518 3.21192 14.4363 3.21146 14.4191C3.27444 14.0193 3.35036 13.5449 3.42641 13.0695C3.60122 11.9874 3.77961 10.9089 3.96161 9.82643C3.97922 9.72523 3.98485 9.59894 3.94233 9.46334C3.89964 9.32721 3.82293 9.22789 3.75216 9.15703C3.18867 8.58432 2.62864 8.01149 2.06443 7.43429ZM14.4138 5.83988C14.4136 5.83981 14.4136 5.83981 14.4138 5.83987L14.4138 5.83988Z" fill="#F2C94C" stroke="#979797"/>
</svg>
