<svg width="40" height="33" viewBox="0 0 40 33" fill="none" xmlns="http://www.w3.org/2000/svg">
<path fill-rule="evenodd" clip-rule="evenodd" d="M34.6929 22.5906C34.6631 22.5906 34.6332 22.5894 34.6033 22.5871C34.281 22.5621 33.984 22.4031 33.7844 22.149L30.0428 17.3865C29.6485 16.8849 29.7357 16.1585 30.2374 15.7644C30.7392 15.3704 31.4654 15.4576 31.8595 15.9591L33.9203 18.5822C34.0201 17.9389 34.0758 17.2873 34.0865 16.6336C34.1467 12.9748 32.7997 9.48011 30.2936 6.79332C27.789 4.10812 24.4017 2.52343 20.7557 2.33108C16.3531 2.09874 12.1837 3.84849 9.31467 7.13137C8.89488 7.61166 8.16506 7.66076 7.68463 7.24112C7.2042 6.82119 7.1551 6.09137 7.57488 5.61108C10.9138 1.79043 15.7623 -0.2461 20.8774 0.0237922C25.1242 0.247763 29.0683 2.09224 31.9831 5.21744C34.8994 8.34394 36.4667 12.4118 36.3967 16.6716C36.3873 17.2427 36.3483 17.8128 36.2803 18.3783L37.9706 16.8042C38.4374 16.3694 39.1685 16.3953 39.6033 16.8622C40.0381 17.3291 40.0121 18.06 39.5453 18.495L35.4802 22.2807C35.2656 22.4805 34.9838 22.5906 34.6929 22.5906" fill="#FF713C"/>
<path fill-rule="evenodd" clip-rule="evenodd" d="M19.9365 32.7307C19.6371 32.7307 19.3373 32.7227 19.0358 32.7069C14.789 32.4829 10.8448 30.6384 7.9299 27.5132C5.0138 24.3867 3.44644 20.3188 3.51647 16.0591C3.52586 15.4878 3.56485 14.9178 3.63286 14.3522L1.94261 15.9265C1.47561 16.3613 0.744633 16.3353 0.309832 15.8684C-0.12497 15.4014 -0.098977 14.6705 0.367882 14.2357L4.43301 10.45C4.66954 10.2296 4.98738 10.1188 5.30983 10.1435C5.632 10.1685 5.92918 10.3275 6.12875 10.5817L9.87041 15.3441C10.2646 15.8458 10.1774 16.5721 9.67575 16.9662C9.17409 17.3604 8.44774 17.2734 8.05366 16.7715L5.99286 14.1484C5.89308 14.7918 5.83734 15.4433 5.82665 16.097C5.76644 19.7557 7.11344 23.2504 9.61958 25.9373C12.1241 28.6225 15.5113 30.2072 19.1573 30.3996C23.5592 30.6309 27.7295 28.8822 30.5984 25.5993C31.0181 25.1188 31.7478 25.0696 32.2285 25.4895C32.709 25.9093 32.7581 26.6391 32.3381 27.1196C29.1962 30.7151 24.7163 32.7307 19.9365 32.7307" fill="#FF713C"/>
<path d="M26.7692 19.1481C26.1924 18.7777 25.4231 18.5926 24.8462 18.4074C24.4616 18.2222 24.2693 18.2222 23.8847 18.2222C23.5 18.037 23.1154 18.037 22.7308 18.037C22.3462 17.4815 22.1539 17.1111 22.1539 16.5555C22.9231 16 23.6923 14.8889 24.077 13.7778C24.2693 13.7778 24.4616 13.7778 24.4616 13.5926C24.8462 13.4073 25.0385 12.8518 25.0385 12.4815C25.0385 12.1111 25.0385 11.7408 24.8462 11.5556C24.8462 11.1851 25.0385 10.8148 25.0385 10.4444C25.0385 7.66665 22.9231 6 19.8462 6C16.7692 6 14.6538 7.85187 14.6538 10.4444C14.6538 10.8148 14.6538 11.1851 14.8461 11.5556C14.4615 11.7408 14.4615 12.1111 14.4615 12.4815C14.4615 13.037 14.6538 13.4073 15.0384 13.5926C15.2307 13.7778 15.4231 13.7778 15.4231 13.7778C15.8077 14.8889 16.3846 15.8148 17.3462 16.5555C17.1539 17.1111 16.9615 17.4815 16.5769 17.8519C16 18.037 15.6154 18.037 15.6154 18.037C15.4231 18.037 15.0384 18.2222 14.6538 18.2222C13.8847 18.4074 13.3077 18.7777 12.7308 18.9629C11.5769 19.5185 11 20.6296 11 21.7407V22.6666C11 23.4074 11.3846 24.1481 12.1539 24.5185C13.5 25.2593 16 26 19.8462 26C23.6923 26 26.0001 25.2593 27.5385 24.5185C28.3077 24.1481 28.6923 23.4074 28.6923 22.6666V21.7407C28.5 20.6296 27.7308 19.7037 26.7692 19.1481Z" fill="#FF713C"/>
<path d="M16.3354 13.308C16.3354 13.308 16.3354 13.1156 16.1554 13.1156H15.9754C15.9754 13.1156 15.9754 13.1156 15.7954 13.1156C15.7954 13.1156 15.6152 12.731 15.6152 12.3464C15.6152 11.7695 15.7954 11.3848 15.9754 11.3848C16.1554 11.3848 16.1554 11.3848 16.3354 11.3848C16.3354 11.3848 16.3354 11.3848 16.5154 11.3848C16.6955 11.3848 16.6955 11.3848 16.6955 11.3848C16.6955 11.3848 16.6955 11.3848 16.6955 11.1925C16.6955 11.1925 16.8755 10.6156 16.8755 10.231C17.0555 10.231 17.2355 10.231 17.4156 10.231C18.3157 10.231 19.576 10.0387 20.6562 9.07715C21.0162 9.46182 21.5563 10.0387 22.6365 10.231C22.8165 10.6156 22.8165 11.1925 22.8165 11.1925C22.8165 11.3848 22.8165 11.3848 22.9966 11.3848H23.1766C23.1766 11.3848 23.1766 11.3848 23.3566 11.3848C23.3566 11.3848 23.5366 11.1925 23.7166 11.3848C23.8968 11.3848 24.0768 11.7695 24.0768 12.3464C24.0768 12.731 23.8968 13.1156 23.7166 13.1156C23.7166 13.1156 23.7166 13.1156 23.5366 13.1156H23.3566L23.1766 13.308C22.8165 14.4617 22.2765 15.6156 21.5563 16.1925C20.4761 16.9618 19.2159 16.9618 18.1357 16.1925C17.2355 15.6156 16.6955 14.6541 16.3354 13.308Z" fill="white"/>
<path d="M18.4767 16.769C19.0306 17.1257 19.5844 17.3041 20.1382 17.3041C20.6921 17.3041 21.2459 17.1257 21.7997 16.9474C21.9844 17.3041 22.3536 17.6609 22.5382 18.0176C22.3536 18.3744 21.7997 18.9095 21.2459 19.4446C20.6921 19.9797 19.769 19.9797 19.2152 19.4446C18.4767 18.9095 17.9229 18.3744 17.9229 18.0176C18.1075 17.6609 18.2921 17.3041 18.4767 16.769Z" fill="white"/>
</svg>
