<svg width="33" height="34" viewBox="0 0 33 34" fill="none" xmlns="http://www.w3.org/2000/svg">
<mask id="mask0" mask-type="alpha" maskUnits="userSpaceOnUse" x="0" y="0" width="33" height="34">
<path fill-rule="evenodd" clip-rule="evenodd" d="M0 0H33V34H0V0Z" fill="white"/>
</mask>
<g mask="url(#mask0)">
<path fill-rule="evenodd" clip-rule="evenodd" d="M18.4844 6.77782C18.6149 6.76313 18.6761 6.75763 18.7367 6.74921C18.8115 6.73866 18.8855 6.7226 18.9604 6.71403C20.8921 6.4927 22.514 5.6427 23.84 4.22444C24.27 3.76449 24.6816 3.27119 24.8206 2.62279C24.9043 2.23259 24.8204 2.13393 24.4265 2.16528C23.7494 2.21928 23.1265 2.45132 22.5441 2.79563C21.0399 3.6851 19.8707 4.9377 18.8148 6.31144C18.7109 6.44651 18.6171 6.58968 18.4844 6.77782ZM14.4367 6.77216C14.4611 6.73897 14.4855 6.70562 14.5101 6.67228C13.9342 6.00338 13.3862 5.3071 12.7758 4.67216C11.8783 3.73879 10.9059 2.88451 9.6703 2.42807C9.28638 2.28627 8.86713 2.23473 8.46001 2.16742C8.21832 2.1275 8.08337 2.26807 8.17055 2.50684C8.30368 2.8715 8.41604 3.2663 8.6406 3.57069C10.0853 5.52905 12.0531 6.54348 14.4367 6.77216ZM20.5471 13.81H30.8666V9.81776H20.5471V13.81ZM2.12896 13.8079H12.4478V9.82006H2.12896V13.8079ZM20.5446 31.8262H29.5632V16.1881H20.5446V31.8262ZM3.42613 31.8235H12.4539V16.1892H3.42613V31.8235ZM1.28682 15.9783C0.279866 15.8847 0.000265348 15.5757 0.000113721 14.6146C-3.79068e-05 12.7571 -3.79068e-05 10.8995 0.000113721 9.04195C0.000265348 8.00854 0.328235 7.68151 1.36461 7.68136C4.11407 7.68105 6.86337 7.68121 9.61283 7.68121H10.026C10.0365 7.66101 10.0469 7.64082 10.0574 7.62063C9.82981 7.48159 9.59585 7.35188 9.37569 7.20183C7.92507 6.21385 6.70508 5.02596 6.16907 3.28251C5.71859 1.81745 6.29932 0.608753 7.66563 0.121114C8.3149 -0.110622 8.96341 0.0360673 9.60252 0.180921C11.1126 0.522942 12.3806 1.33975 13.4648 2.40283C14.5453 3.46254 15.5213 4.63055 16.558 5.76751C16.917 5.31337 17.3176 4.78137 17.7443 4.27155C19.0065 2.76351 20.3955 1.40522 22.2099 0.577855C23.0458 0.196829 23.929 -0.0584625 24.8476 0.0308666C26.3437 0.176027 27.2256 1.45386 26.9197 2.93942C26.697 4.02116 26.1566 4.94351 25.3866 5.69424C24.6502 6.41255 23.8203 7.03342 23.0505 7.68121H23.3377C26.1249 7.68121 28.9121 7.68075 31.6993 7.68151C32.6526 7.68182 32.9994 8.03164 32.9997 8.99193C33.0003 10.8241 32.9998 12.6563 32.9998 14.4884C32.9998 15.5864 32.8082 15.8178 31.7133 15.9992V16.4394C31.7133 21.8468 31.7134 27.2541 31.7131 32.6614C31.7131 33.5911 31.3247 33.9981 30.4103 33.9984C21.1408 34.0006 11.871 34.0004 2.60128 33.9986C1.68212 33.9984 1.28698 33.5931 1.28698 32.673C1.28652 27.2659 1.28682 21.8585 1.28682 16.4512V15.9783Z" fill="#FF713C"/>
</g>
</svg>
