<svg width="45" height="40" viewBox="0 0 45 40" fill="none" xmlns="http://www.w3.org/2000/svg">
<path d="M33.9999 29.1582V30.1582H34.9999V29.1582H33.9999ZM33.9999 23.1582H34.9999V22.1582H33.9999V23.1582ZM23.3042 26.1582C23.3042 24.7674 24.2074 24.1582 24.7281 24.1582V22.1582C22.8516 22.1582 21.3042 23.932 21.3042 26.1582H23.3042ZM24.7281 28.1582C24.2074 28.1582 23.3042 27.549 23.3042 26.1582H21.3042C21.3042 28.3844 22.8516 30.1582 24.7281 30.1582V28.1582ZM33.9999 28.1582H24.7281V30.1582H33.9999V28.1582ZM32.9999 23.1582V29.1582H34.9999V23.1582H32.9999ZM24.7281 24.1582H33.9999V22.1582H24.7281V24.1582ZM21.5868 26.1581C21.5868 27.6755 22.6954 29.4915 24.7281 29.4915V27.4915C24.1154 27.4915 23.5868 26.9151 23.5868 26.1581H21.5868ZM24.7281 22.8248C22.6953 22.8248 21.5868 24.6408 21.5868 26.1581H23.5868C23.5868 25.4012 24.1153 24.8248 24.7281 24.8248V22.8248ZM27.8694 26.1581C27.8694 24.6409 26.761 22.8248 24.7281 22.8248V24.8248C25.341 24.8248 25.8694 25.4011 25.8694 26.1581H27.8694ZM24.7281 29.4915C26.761 29.4915 27.8694 27.6754 27.8694 26.1581H25.8694C25.8694 26.9152 25.341 27.4915 24.7281 27.4915V29.4915Z" fill="#FF713C"/>
<path d="M29.4348 17.4737V19.8976H24.7283C21.0292 19.8976 18.0217 22.9051 18.0217 26.6041C18.0217 30.3031 21.0292 33.3106 24.7283 33.3106H29.4348V35.7346C29.4348 37.0703 28.3466 38.1585 27.0108 38.1585H1.14133C1.06355 38.1585 1 38.0949 1 38.0171V15.1911C1 15.1134 1.06347 15.0498 1.14133 15.0498H27.0108C28.3466 15.0498 29.4348 16.138 29.4348 17.4737Z" stroke="#FF713C" stroke-width="2"/>
<path d="M31.4919 14.6768H31.4839C32.0179 15.3854 32.3387 16.2633 32.3387 17.2171V19.7574H34.0322V17.2171C34.0322 15.8163 32.8927 14.6768 31.4919 14.6768Z" fill="#FF713C"/>
<path d="M32.7176 32.3105V35.7345C32.7176 37.02 32.2853 38.2032 31.5654 39.1584H31.5762C33.4642 39.1584 35.0001 37.6225 35.0001 35.7345V32.3105H32.7176Z" fill="#FF713C"/>
<circle cx="35" cy="10.1582" r="9.5" fill="#FF713C" stroke="#FF713C"/>
<path d="M33.2459 10.9944C33.711 10.5209 33.7028 9.75869 33.2275 9.29532C32.7523 8.83195 31.9874 8.84021 31.5223 9.31374C31.2898 9.55051 31.1755 9.85945 31.1788 10.1671C31.1822 10.4748 31.303 10.7812 31.5406 11.0129C32.0159 11.4762 32.7808 11.468 33.2459 10.9944Z" fill="white"/>
<path d="M35.2084 12.8903C35.9407 12.1448 36.3377 11.1583 36.3264 10.1125C36.3151 9.0668 35.8968 8.08897 35.1486 7.35944C34.9564 7.17202 34.7025 7.07039 34.4336 7.0733C34.1647 7.0762 33.9129 7.18328 33.7249 7.3748C33.5368 7.56633 33.4347 7.81937 33.4376 8.08731C33.4405 8.35523 33.548 8.60604 33.7402 8.79346C34.4935 9.52799 34.5066 10.7364 33.7693 11.487C33.5812 11.6785 33.4792 11.9316 33.4821 12.1995C33.485 12.4675 33.5924 12.7183 33.7846 12.9057C33.9768 13.0931 34.2307 13.1947 34.4997 13.1918C34.7686 13.1889 35.0202 13.0819 35.2084 12.8903Z" fill="white"/>
<path d="M37.1845 14.6835C38.399 13.447 39.0575 11.8133 39.0388 10.0834C39.0201 8.35351 38.3264 6.73443 37.0856 5.52448C36.8934 5.33704 36.6394 5.23544 36.3705 5.23834C36.1016 5.24125 35.8499 5.34832 35.6618 5.53984C35.4676 5.73755 35.3723 5.99545 35.3751 6.25234C35.3779 6.50919 35.4788 6.76506 35.6771 6.95848C37.4451 8.6825 37.4758 11.5184 35.7454 13.2803C35.5573 13.4718 35.4553 13.7248 35.4582 13.9927C35.4611 14.2607 35.5685 14.5115 35.7608 14.6989C35.953 14.8863 36.2069 14.9879 36.4758 14.985C36.7447 14.9821 36.9964 14.8751 37.1845 14.6835Z" fill="white"/>
</svg>
