<svg width="35" height="30" viewBox="0 0 35 30" fill="none" xmlns="http://www.w3.org/2000/svg">
<path fill-rule="evenodd" clip-rule="evenodd" d="M28.2499 8.75H15.2H13H10.6H6.75V27.5555C6.75 28.5349 7.48646 29.25 8.30001 29.25H26.7C27.5135 29.25 28.25 28.5349 28.25 27.5555L28.2499 8.75ZM23.2499 25.861C20.888 25.861 19.0499 23.8399 19.0499 21.4443C19.0499 19.0488 20.888 17.0277 23.2499 17.0277C25.6119 17.0277 27.4499 19.0488 27.4499 21.4443C27.4499 23.8399 25.612 25.861 23.2499 25.861Z" fill="white"/>
<path d="M28.2499 8.75L28.9999 8.75L28.9999 8H28.2499V8.75ZM6.75 8.75V8H6V8.75H6.75ZM28.25 27.5555H29V27.5555L28.25 27.5555ZM15.2 9.5H28.2499V8H15.2V9.5ZM13 9.5H15.2V8H13V9.5ZM10.6 9.5H13V8H10.6V9.5ZM6.75 9.5H10.6V8H6.75V9.5ZM7.5 27.5555V8.75H6V27.5555H7.5ZM8.30001 28.5C7.93726 28.5 7.5 28.1582 7.5 27.5555H6C6 28.9116 7.03566 30 8.30001 30V28.5ZM26.7 28.5H8.30001V30H26.7V28.5ZM27.5 27.5555C27.5 28.1582 27.0627 28.5 26.7 28.5V30C27.9643 30 29 28.9116 29 27.5555H27.5ZM27.4999 8.75L27.5 27.5555L29 27.5555L28.9999 8.75L27.4999 8.75ZM18.2999 21.4443C18.2999 24.2081 20.4292 26.611 23.2499 26.611V25.111C21.3468 25.111 19.7999 23.4717 19.7999 21.4443H18.2999ZM23.2499 16.2777C20.4292 16.2777 18.2999 18.6806 18.2999 21.4443H19.7999C19.7999 19.417 21.3468 17.7777 23.2499 17.7777V16.2777ZM28.1999 21.4443C28.1999 18.6806 26.0707 16.2777 23.2499 16.2777V17.7777C25.1531 17.7777 26.6999 19.417 26.6999 21.4443H28.1999ZM23.2499 26.611C26.0708 26.611 28.1999 24.2081 28.1999 21.4443H26.6999C26.6999 23.4717 25.1532 25.111 23.2499 25.111V26.611Z" fill="#FF713C"/>
<path d="M4.37498 4.64288H3.87498V5.14288V17.4999H1.09373C0.838082 17.4999 0.5 17.2276 0.5 16.7142V1.28576C0.5 0.772346 0.838118 0.5 1.09373 0.5H33.9063C34.162 0.5 34.5 0.772342 34.5 1.28571V16.7143C34.5 17.2277 34.1619 17.5 33.9063 17.5H31.125V5.14288V4.64288H30.625H4.37498Z" fill="#FF713C" stroke="#FF713C"/>
<path fill-rule="evenodd" clip-rule="evenodd" d="M11.364 19.8298L12.174 20.9998H13.218L12.276 19.6498C12.552 19.5298 12.764 19.3578 12.912 19.1338C13.064 18.9058 13.14 18.6358 13.14 18.3238C13.14 18.0118 13.066 17.7418 12.918 17.5138C12.77 17.2858 12.558 17.1098 12.282 16.9858C12.01 16.8618 11.688 16.7998 11.316 16.7998H9.49805V20.9998H10.47V19.8298H11.316H11.364ZM11.928 17.7838C12.08 17.9078 12.156 18.0878 12.156 18.3238C12.156 18.5558 12.08 18.7358 11.928 18.8638C11.776 18.9918 11.554 19.0558 11.262 19.0558H10.47V17.5918H11.262C11.554 17.5918 11.776 17.6558 11.928 17.7838ZM15.7521 17.7238C16.0521 17.7238 16.3241 17.7938 16.5681 17.9338C16.8161 18.0698 17.0101 18.2638 17.1501 18.5158C17.2901 18.7638 17.3601 19.0538 17.3601 19.3858C17.3601 19.7178 17.2901 20.0098 17.1501 20.2618C17.0101 20.5098 16.8161 20.7038 16.5681 20.8438C16.3241 20.9798 16.0521 21.0478 15.7521 21.0478C15.3401 21.0478 15.0161 20.9178 14.7801 20.6578V22.1638H13.8441V17.7718H14.7381V18.1438C14.9701 17.8638 15.3081 17.7238 15.7521 17.7238ZM16.1781 20.0398C16.0261 20.1998 15.8301 20.2798 15.5901 20.2798C15.3501 20.2798 15.1521 20.1998 14.9961 20.0398C14.8441 19.8758 14.7681 19.6578 14.7681 19.3858C14.7681 19.1138 14.8441 18.8978 14.9961 18.7378C15.1521 18.5738 15.3501 18.4918 15.5901 18.4918C15.8301 18.4918 16.0261 18.5738 16.1781 18.7378C16.3341 18.8978 16.4121 19.1138 16.4121 19.3858C16.4121 19.6578 16.3341 19.8758 16.1781 20.0398Z" fill="#FF713C"/>
<path d="M6 12.5H29" stroke="#FF713C" stroke-linecap="square"/>
</svg>
