<svg width="25" height="36" viewBox="0 0 25 36" fill="none" xmlns="http://www.w3.org/2000/svg">
<path d="M5.33346 16.1328C6.06946 14.7351 6.80546 13.7568 7.41879 13.058C9.01346 10.9615 10.7308 9.00486 14.7788 6.34936C14.9015 6.20959 15.1468 5.93007 15.3921 6.06983C15.6375 6.20959 15.5148 6.48912 15.3921 6.76865C15.1468 9.14462 15.8828 11.2411 16.9868 13.1978C17.9681 15.1544 19.0721 16.8316 20.1761 18.7883C21.6481 21.4438 22.3841 24.3788 21.7708 27.5934C21.1575 30.8079 19.6855 33.1839 17.1095 34.8611C16.7415 35.0008 16.4961 35.2803 16.0055 35.2803C16.0055 34.8611 16.2508 34.7213 16.3735 34.4418C17.4775 32.4851 18.3361 30.3886 17.7228 28.0127C17.6001 27.5934 17.4775 27.1741 17.3548 26.7548C16.6188 25.0776 15.6375 23.5402 15.1468 21.4438C14.5335 22.4221 14.2881 23.4005 14.2881 24.3788C14.2881 24.6583 14.4108 25.0776 14.1655 25.0776C13.7975 25.2174 13.7975 24.7981 13.6748 24.5186C12.4481 22.4221 12.3255 20.0462 12.4481 17.5304C12.5708 16.5521 12.6935 15.434 12.8161 14.3159C10.1175 17.1111 8.40012 20.1859 8.15479 24.239C7.90946 28.1524 8.89079 31.6465 10.4855 35.1406C8.64546 34.5815 7.17346 33.7429 5.82412 32.3453C3.00279 29.6898 2.38946 26.1957 3.12546 22.2824C3.24812 21.8631 3.37079 20.8847 3.73879 19.7666" fill="#FF713C"/>
<path d="M16.64 35.0117C19.7342 33.0071 23.0027 30.126 23.7394 26.2837C24.4762 22.4414 23.5921 18.9333 21.824 15.7592C20.4979 13.4205 19.1718 11.4158 17.993 9.07705C16.6669 6.73828 15.7828 4.23246 16.0775 1.39252C16.2249 1.05841 16.3722 0.724303 16.0775 0.557248C15.7828 0.390193 15.4882 0.724303 15.3408 0.891358C10.4784 4.0654 8.41561 6.40417 6.50013 8.90999C5.76341 9.74527 4.87934 10.9147 3.99527 12.5852L2.07979 16.9286C1.63776 18.2651 1.49042 19.4345 1.34307 19.9356C0.459003 24.6132 1.19573 28.7895 4.58465 31.9636C6.20544 33.6341 7.98983 34.3435 10.2 35.0117" stroke="#FF713C" stroke-miterlimit="10" stroke-linecap="round"/>
</svg>
