<svg width="28" height="35" viewBox="0 0 28 35" fill="none" xmlns="http://www.w3.org/2000/svg">
<path d="M14 0C4.56667 0 0 1.85409 0 5.62732V23.6152C0 26.4777 2.4 28.8197 5.33333 28.8197H8.03333L4.06667 33.6989C3.76667 34.0567 3.83333 34.5771 4.2 34.8374C4.36667 34.9675 4.53333 35 4.7 35C4.93333 35 5.2 34.9024 5.36667 34.7072L7.03333 32.658C7.1 32.6905 7.16667 32.6905 7.23333 32.6905H20.8C20.8667 32.6905 20.9333 32.6905 21 32.658L22.6333 34.6747C22.8 34.8699 23.0333 34.9675 23.3 34.9675C23.4667 34.9675 23.6667 34.9024 23.8 34.8048C24.1667 34.5121 24.2333 34.0242 23.9333 33.6664L19.9667 28.7872H22.6667C25.6 28.7872 28 26.4452 28 23.5827V5.62732C28 1.85409 23.4333 0 14 0ZM14 1.62639C19.6333 1.62639 26.3333 2.30948 26.3333 5.62732H1.66667C1.7 2.30948 8.4 1.62639 14 1.62639ZM1.66667 7.25372H13.1667V16.5892H1.66667V7.25372ZM8.33333 31.0641L10.1667 28.8197H17.8667L19.7 31.0641H8.33333ZM26.3333 23.6152C26.3333 25.5669 24.7 27.1933 22.6667 27.1933H5.33333C3.33333 27.1933 1.66667 25.5994 1.66667 23.6152V18.1831H26.3333V23.6152ZM26.3333 16.5567H14.8333V7.25372H26.3333V16.5567Z" fill="#FF713C"/>
<path d="M6.33324 25.2415C7.93324 25.2415 9.26657 23.9729 9.26657 22.3791C9.26657 20.8177 7.96657 19.5166 6.33324 19.5166C4.73324 19.5166 3.3999 20.7852 3.3999 22.3791C3.43324 23.9729 4.73324 25.2415 6.33324 25.2415Z" fill="#FF713C"/>
<path d="M21.6667 25.2415C23.2667 25.2415 24.6001 23.9729 24.6001 22.3791C24.6001 20.8177 23.3001 19.5166 21.6667 19.5166C20.0667 19.5166 18.7334 20.7852 18.7334 22.3791C18.7334 23.9729 20.0667 25.2415 21.6667 25.2415Z" fill="#FF713C"/>
</svg>
