<svg width="33" height="39" viewBox="0 0 33 39" fill="none" xmlns="http://www.w3.org/2000/svg">
<path d="M31.3966 35.4111H3.02344V37.7567H31.3966V35.4111Z" fill="#FF713C" stroke="#FF713C" stroke-width="1.7878" stroke-linecap="round"/>
<path d="M15.3768 20.7139H10V33.655H15.3768V20.7139Z" stroke="#FF713C" stroke-width="1.7878" stroke-linecap="round"/>
<path d="M23.0467 17.6396H17.6699V33.897H23.0467V17.6396Z" stroke="#FF713C" stroke-width="1.7878" stroke-linecap="round"/>
<path d="M30.6571 14H25.2803V33.8162H30.6571V14Z" stroke="#FF713C" stroke-width="1.7878" stroke-linecap="round"/>
<path d="M31.3966 4.29395L3.02344 15.4557" stroke="#FF713C" stroke-width="1.4416" stroke-linecap="round" stroke-linejoin="round"/>
<path d="M29.1641 3L31.3975 4.29412V6.55883" stroke="#FF713C" stroke-width="1.4416" stroke-linecap="round" stroke-linejoin="round"/>
<path d="M10.5955 34.4777H3.89511C3.23334 34.4777 2.6543 33.9116 2.6543 33.2645C2.6543 32.6174 3.23334 32.0513 3.89511 32.0513H10.5955C11.2572 32.0513 11.8363 32.6174 11.8363 33.2645C11.8363 33.9116 11.34 34.4777 10.5955 34.4777Z" fill="white" stroke="#FF713C" stroke-miterlimit="10" stroke-linecap="round"/>
<path d="M10.5955 32.0515H3.89511C3.23334 32.0515 2.6543 31.4853 2.6543 30.8382C2.6543 30.1912 3.23334 29.625 3.89511 29.625H10.5955C11.2572 29.625 11.8363 30.1912 11.8363 30.8382C11.8363 31.4853 11.34 32.0515 10.5955 32.0515Z" fill="white" stroke="#FF713C" stroke-miterlimit="10" stroke-linecap="round"/>
<path d="M10.5955 29.6252H3.89511C3.23334 29.6252 2.6543 29.059 2.6543 28.412C2.6543 27.7649 3.23334 27.1987 3.89511 27.1987H10.5955C11.2572 27.1987 11.8363 27.7649 11.8363 28.412C11.8363 29.059 11.34 29.6252 10.5955 29.6252Z" fill="white" stroke="#FF713C" stroke-miterlimit="10" stroke-linecap="round"/>
<path d="M10.5955 27.1989H3.89511C3.23334 27.1989 2.6543 26.6328 2.6543 25.9857C2.6543 25.3386 3.23334 24.7725 3.89511 24.7725H10.5955C11.2572 24.7725 11.8363 25.3386 11.8363 25.9857C11.8363 26.7136 11.34 27.1989 10.5955 27.1989Z" fill="white" stroke="#FF713C" stroke-miterlimit="10" stroke-linecap="round"/>
<path d="M8.94118 24.8527H2.24081C1.57904 24.8527 1 24.2866 1 23.6395C1 22.9924 1.57904 22.4263 2.24081 22.4263H8.94118C9.60294 22.4263 10.182 22.9924 10.182 23.6395C10.182 24.2866 9.68566 24.8527 8.94118 24.8527Z" fill="white" stroke="#FF713C" stroke-miterlimit="10" stroke-linecap="round"/>
<path d="M10.5955 22.4265H3.89511C3.23334 22.4265 2.6543 21.8603 2.6543 21.2132C2.6543 20.5662 3.23334 20 3.89511 20H10.5955C11.2572 20 11.8363 20.5662 11.8363 21.2132C11.8363 21.8603 11.34 22.4265 10.5955 22.4265Z" fill="white" stroke="#FF713C" stroke-miterlimit="10" stroke-linecap="round"/>
<path d="M17.8731 12.4853C21.1168 12.4853 23.7463 9.9143 23.7463 6.7427C23.7463 3.5711 21.1168 1 17.8731 1C14.6295 1 12 3.5711 12 6.7427C12 9.9143 14.6295 12.4853 17.8731 12.4853Z" fill="#FF713C" stroke="white" stroke-width="1.7878" stroke-linecap="round"/>
<path d="M17.4448 7.98633L16.7698 7.01133H16.7298H16.0248V7.98633H15.2148V4.48633H16.7298C17.0398 4.48633 17.3082 4.53799 17.5348 4.64133C17.7648 4.74466 17.9415 4.89133 18.0648 5.08133C18.1882 5.27133 18.2498 5.49633 18.2498 5.75633C18.2498 6.01633 18.1865 6.24133 18.0598 6.43133C17.9365 6.61799 17.7598 6.76133 17.5298 6.86133L18.3148 7.98633H17.4448ZM17.4298 5.75633C17.4298 5.55966 17.3665 5.40966 17.2398 5.30633C17.1132 5.19966 16.9282 5.14633 16.6848 5.14633H16.0248V6.36633H16.6848C16.9282 6.36633 17.1132 6.313 17.2398 6.20633C17.3665 6.09966 17.4298 5.94966 17.4298 5.75633Z" fill="white"/>
<path d="M20.4266 5.25633C20.6766 5.25633 20.9033 5.31466 21.1066 5.43133C21.3133 5.54466 21.4749 5.70633 21.5916 5.91633C21.7083 6.12299 21.7666 6.36466 21.7666 6.64133C21.7666 6.918 21.7083 7.16133 21.5916 7.37133C21.4749 7.57799 21.3133 7.73966 21.1066 7.85633C20.9033 7.96966 20.6766 8.02633 20.4266 8.02633C20.0833 8.02633 19.8133 7.918 19.6166 7.70133V8.95633H18.8366V5.29633H19.5816V5.60633C19.7749 5.37299 20.0566 5.25633 20.4266 5.25633ZM20.2916 7.38633C20.4916 7.38633 20.6549 7.31966 20.7816 7.18633C20.9116 7.04966 20.9766 6.868 20.9766 6.64133C20.9766 6.41466 20.9116 6.23466 20.7816 6.10133C20.6549 5.96466 20.4916 5.89633 20.2916 5.89633C20.0916 5.89633 19.9266 5.96466 19.7966 6.10133C19.6699 6.23466 19.6066 6.41466 19.6066 6.64133C19.6066 6.868 19.6699 7.04966 19.7966 7.18633C19.9266 7.31966 20.0916 7.38633 20.2916 7.38633Z" fill="white"/>
</svg>
