<svg width="50" height="14" viewBox="0 0 50 14" fill="none" xmlns="http://www.w3.org/2000/svg">
<g clip-path="url(#clip0)">
<path fill-rule="evenodd" clip-rule="evenodd" d="M0.126465 0.105241H2.48386C2.94692 0.105241 3.29422 0.126289 3.52575 0.157862C3.75728 0.199958 3.95724 0.273627 4.14667 0.399916C4.32558 0.526205 4.48344 0.684067 4.59921 0.894549C4.71497 1.09451 4.77812 1.32604 4.77812 1.57862C4.77812 1.85224 4.70445 2.10482 4.55711 2.33635C4.40977 2.56788 4.20982 2.73627 3.95724 2.85203C4.31506 2.95727 4.58868 3.13618 4.77812 3.38876C4.96755 3.64134 5.06227 3.93601 5.06227 4.28331C5.06227 4.55694 4.99912 4.80951 4.87283 5.06209C4.74654 5.31467 4.57816 5.51463 4.35715 5.67249C4.14667 5.81983 3.87304 5.91454 3.55732 5.95664C3.36789 5.97769 2.8943 5.99874 2.12604 5.99874H0.126465V0.105241ZM1.31569 1.08398V2.44159H2.09447C2.55753 2.44159 2.84168 2.43107 2.95745 2.42054C3.15741 2.39949 3.32579 2.32583 3.44156 2.21006C3.55732 2.0943 3.62047 1.93643 3.62047 1.747C3.62047 1.56809 3.56785 1.42075 3.47313 1.30499C3.36789 1.18922 3.22055 1.12608 3.03112 1.09451C2.91535 1.08398 2.57858 1.07346 2.0208 1.07346H1.31569V1.08398ZM1.31569 3.42033V4.99895H2.42072C2.85221 4.99895 3.12583 4.98842 3.2416 4.96738C3.42051 4.9358 3.55732 4.85161 3.67309 4.73585C3.78885 4.60956 3.84147 4.44117 3.84147 4.23069C3.84147 4.05178 3.79938 3.90444 3.71518 3.77815C3.63099 3.65186 3.5047 3.56767 3.34684 3.50453C3.18898 3.4519 2.83116 3.42033 2.29443 3.42033H1.31569V3.42033ZM6.07258 5.99874V0.105241H7.97744C8.70361 0.105241 9.16667 0.136813 9.38767 0.189434C9.72444 0.273627 10.0086 0.473585 10.2401 0.768259C10.4717 1.06293 10.5769 1.45233 10.5769 1.91539C10.5769 2.27321 10.5138 2.5784 10.3769 2.83098C10.2401 3.07304 10.0823 3.273 9.88231 3.40981C9.68235 3.55715 9.47187 3.65186 9.26138 3.69396C8.97723 3.74658 8.56679 3.77815 8.03006 3.77815H7.26181V5.99874H6.07258ZM7.26181 1.10503V2.78889H7.9143C8.37736 2.78889 8.69308 2.75731 8.85094 2.69417C9.00881 2.63103 9.13509 2.53631 9.21929 2.39949C9.30348 2.26268 9.3561 2.11534 9.3561 1.93643C9.3561 1.72595 9.29296 1.54704 9.16667 1.39971C9.04038 1.26289 8.88252 1.16818 8.69308 1.1366C8.55627 1.11555 8.27212 1.09451 7.84063 1.09451H7.26181V1.10503ZM13.671 0.105241H14.8602V3.8413C14.8602 4.32541 14.8181 4.70427 14.7339 4.96738C14.6182 5.31467 14.4077 5.5883 14.1025 5.79878C13.7973 6.00926 13.3974 6.1145 12.9027 6.1145C12.3239 6.1145 11.8714 5.95664 11.5662 5.63039C11.2504 5.30415 11.0926 4.83056 11.0926 4.19912L12.2187 4.0623C12.2292 4.39907 12.2818 4.6306 12.366 4.77794C12.4923 4.98842 12.6817 5.09366 12.9448 5.09366C13.2079 5.09366 13.3974 5.02 13.5026 4.86213C13.6078 4.7148 13.671 4.39907 13.671 3.91497V0.105241V0.105241ZM15.8179 4.09388L16.9755 3.97811C17.0492 4.3675 17.186 4.65165 17.3965 4.83056C17.607 5.00947 17.8911 5.10419 18.2595 5.10419C18.6384 5.10419 18.933 5.02 19.1225 4.86213C19.3119 4.70427 19.4171 4.51484 19.4171 4.29383C19.4171 4.15702 19.375 4.03073 19.2909 3.93601C19.2067 3.8413 19.0698 3.7571 18.8594 3.68344C18.7225 3.63081 18.4068 3.54662 17.9122 3.43086C17.2807 3.27299 16.8282 3.07304 16.5756 2.84151C16.2178 2.51526 16.0389 2.11534 16.0389 1.65228C16.0389 1.34708 16.1231 1.07346 16.2915 0.810356C16.4599 0.547253 16.7019 0.347295 17.0282 0.210482C17.3439 0.0736687 17.7333 0 18.1858 0C18.9225 0 19.4803 0.168386 19.8486 0.494633C20.217 0.82088 20.4169 1.26289 20.438 1.81015L19.2488 1.85224C19.1961 1.54704 19.0909 1.32604 18.9225 1.19975C18.7541 1.06293 18.5121 0.99979 18.1753 0.99979C17.828 0.99979 17.5649 1.07346 17.3649 1.21027C17.2387 1.30499 17.1755 1.42075 17.1755 1.57862C17.1755 1.71543 17.2387 1.84172 17.3544 1.93643C17.5018 2.06272 17.8701 2.19954 18.4489 2.33635C19.0277 2.47316 19.4487 2.60998 19.7329 2.75731C20.0065 2.90465 20.2275 3.10461 20.3854 3.35719C20.5432 3.60977 20.6169 3.92549 20.6169 4.29383C20.6169 4.6306 20.5222 4.94633 20.3327 5.241C20.1433 5.53568 19.8802 5.75668 19.5329 5.8935C19.1856 6.04083 18.7646 6.10398 18.249 6.10398C17.5018 6.10398 16.9335 5.93559 16.5335 5.5883C16.1336 5.25153 15.9021 4.74637 15.8179 4.09388Z" fill="#FF713C"/>
<path fill-rule="evenodd" clip-rule="evenodd" d="M0 12.0184V7.46143H0.926121V9.48205L2.78889 7.46143H4.02021L2.29425 9.22947L4.1044 12.0184H2.91518L1.66281 9.87144L0.926121 10.6292V12.0078H0V12.0184ZM6.48285 10.966L7.35635 11.1133C7.24058 11.429 7.0722 11.6711 6.83014 11.8395C6.58809 12.0078 6.28289 12.092 5.92507 12.092C5.35677 12.092 4.92528 11.9026 4.65165 11.5343C4.43065 11.2291 4.3254 10.8502 4.3254 10.3976C4.3254 9.8504 4.47274 9.41891 4.75689 9.11371C5.04104 8.79799 5.39886 8.65065 5.84088 8.65065C6.33551 8.65065 6.71438 8.80851 6.99853 9.13476C7.28268 9.461 7.41949 9.95564 7.40897 10.6292H5.21995C5.23048 10.8923 5.29362 11.0922 5.43044 11.2291C5.56725 11.3764 5.73563 11.4501 5.93559 11.4501C6.07241 11.4501 6.18817 11.408 6.28289 11.3343C6.36708 11.2606 6.43022 11.1343 6.48285 10.966ZM6.53547 10.0819C6.52494 9.82935 6.4618 9.63991 6.33551 9.5031C6.20922 9.36629 6.06188 9.30314 5.88297 9.30314C5.69354 9.30314 5.53568 9.37681 5.40939 9.51363C5.2831 9.65044 5.21995 9.83987 5.23048 10.0819H6.53547ZM9.61903 8.71379V9.40838H9.01915V10.7449C9.01915 11.0186 9.02968 11.1764 9.0402 11.2185C9.05073 11.2606 9.0823 11.3027 9.11387 11.3343C9.15597 11.3659 9.19806 11.3764 9.26121 11.3764C9.3454 11.3764 9.46117 11.3448 9.6085 11.2922L9.68217 11.9657C9.48221 12.0499 9.25068 12.092 8.99811 12.092C8.84024 12.092 8.70343 12.0605 8.57714 12.0078C8.45085 11.9552 8.35614 11.8815 8.30352 11.7974C8.24037 11.7132 8.2088 11.5974 8.17723 11.4501C8.15618 11.3448 8.14565 11.1449 8.14565 10.8291V9.40838H7.74574V8.71379H8.14565V8.0613L9.01915 7.54562V8.71379H9.61903ZM12.1343 10.966L13.0078 11.1133C12.892 11.429 12.7236 11.6711 12.4816 11.8395C12.2395 12.0078 11.9343 12.092 11.5765 12.092C11.0082 12.092 10.5767 11.9026 10.3031 11.5343C10.0821 11.2291 9.97685 10.8502 9.97685 10.3976C9.97685 9.8504 10.1242 9.41891 10.4083 9.11371C10.6925 8.79799 11.0503 8.65065 11.4923 8.65065C11.9869 8.65065 12.3658 8.80851 12.65 9.13476C12.9341 9.461 13.0709 9.95564 13.0604 10.6292H10.8819C10.8924 10.8923 10.9556 11.0922 11.0924 11.2291C11.2292 11.3764 11.3976 11.4501 11.5976 11.4501C11.7344 11.4501 11.8501 11.408 11.9449 11.3343C12.0185 11.2606 12.0922 11.1343 12.1343 10.966ZM12.1869 10.0819C12.1764 9.82935 12.1132 9.63991 11.987 9.5031C11.8607 9.36629 11.7133 9.30314 11.5344 9.30314C11.345 9.30314 11.1871 9.37681 11.0608 9.51363C10.9345 9.65044 10.8714 9.83987 10.8819 10.0819H12.1869ZM16.7649 12.0184H15.8914V10.3345C15.8914 9.97668 15.8703 9.74515 15.8388 9.63991C15.7967 9.53467 15.7441 9.45048 15.6599 9.39786C15.5757 9.33472 15.4704 9.31367 15.3547 9.31367C15.1968 9.31367 15.0705 9.35576 14.9442 9.43996C14.8179 9.52415 14.7443 9.62939 14.6916 9.7662C14.6495 9.90302 14.6285 10.1556 14.6285 10.5239V12.0184H13.755V8.71379H14.5654V9.1979C14.8495 8.82956 15.2178 8.64012 15.6599 8.64012C15.8493 8.64012 16.0282 8.6717 16.1861 8.74537C16.3439 8.81903 16.4702 8.90323 16.5544 9.00847C16.6386 9.11371 16.6912 9.24 16.7228 9.37681C16.7544 9.51362 16.7754 9.71358 16.7754 9.96616V12.0184H16.7649ZM18.3014 9.73463L17.5121 9.59782C17.5963 9.27157 17.7542 9.04004 17.9752 8.88218C18.1962 8.72432 18.5119 8.65065 18.9434 8.65065C19.3328 8.65065 19.6274 8.69275 19.8169 8.78746C20.0063 8.88218 20.1431 8.99794 20.2168 9.13476C20.2905 9.27157 20.3326 9.53467 20.3326 9.91354L20.322 10.9344C20.322 11.2185 20.3326 11.4395 20.3641 11.5763C20.3957 11.7132 20.4483 11.8605 20.522 12.0184H19.659C19.638 11.9657 19.6064 11.8815 19.5748 11.7658C19.5643 11.7132 19.5538 11.6816 19.5433 11.6605C19.3959 11.8079 19.2381 11.9131 19.0697 11.9868C18.9013 12.0605 18.7224 12.092 18.5329 12.092C18.1962 12.092 17.9225 11.9973 17.7331 11.8184C17.5332 11.6395 17.4384 11.3974 17.4384 11.1238C17.4384 10.9344 17.4805 10.7765 17.5752 10.6292C17.6594 10.4818 17.7857 10.3766 17.9541 10.2924C18.112 10.2187 18.3435 10.1451 18.6487 10.0925C19.0591 10.0188 19.3433 9.94511 19.4906 9.88197V9.78725C19.4906 9.61887 19.4485 9.49258 19.3643 9.41891C19.2802 9.34524 19.1223 9.31367 18.8908 9.31367C18.7329 9.31367 18.6171 9.34524 18.5224 9.40838C18.4277 9.461 18.354 9.57677 18.3014 9.73463ZM19.4696 10.4397C19.3538 10.4818 19.1854 10.5239 18.9434 10.5766C18.7013 10.6292 18.5435 10.6818 18.4698 10.7239C18.354 10.8081 18.3014 10.9028 18.3014 11.0291C18.3014 11.1554 18.3435 11.2606 18.4382 11.3448C18.5329 11.429 18.6487 11.4816 18.7855 11.4816C18.9434 11.4816 19.0907 11.429 19.2381 11.3238C19.3433 11.2396 19.417 11.1449 19.4485 11.0396C19.4696 10.966 19.4801 10.8186 19.4801 10.6187V10.4397H19.4696ZM21.1008 12.2288L22.1006 12.3446C22.1217 12.4604 22.1532 12.5446 22.2164 12.5867C22.3006 12.6498 22.4269 12.6814 22.6058 12.6814C22.8373 12.6814 23.0057 12.6498 23.1214 12.5761C23.1951 12.534 23.2583 12.4604 23.3004 12.3551C23.3319 12.2815 23.3425 12.1446 23.3425 11.9552V11.4711C23.0794 11.8289 22.7531 12.0078 22.3532 12.0078C21.9112 12.0078 21.5534 11.8184 21.3008 11.4501C21.1008 11.1554 20.9956 10.787 20.9956 10.345C20.9956 9.78725 21.1324 9.36629 21.3955 9.08214C21.6586 8.78746 21.9954 8.64012 22.3848 8.64012C22.7952 8.64012 23.132 8.81903 23.3951 9.17685V8.71379H24.2054V11.6711C24.2054 12.0605 24.1739 12.3551 24.1107 12.5446C24.0476 12.734 23.9529 12.8919 23.8371 12.9971C23.7213 13.1023 23.5635 13.1971 23.374 13.2497C23.1846 13.3128 22.932 13.3444 22.6373 13.3444C22.0796 13.3444 21.6796 13.2497 21.4481 13.0602C21.2166 12.8708 21.1008 12.6288 21.1008 12.3341C21.1008 12.3025 21.1008 12.2604 21.1008 12.2288ZM21.8901 10.2924C21.8901 10.6397 21.9533 10.9028 22.0901 11.0607C22.2269 11.2185 22.3953 11.3027 22.5952 11.3027C22.8057 11.3027 22.9846 11.2185 23.132 11.0501C23.2793 10.8818 23.353 10.6397 23.353 10.3135C23.353 9.97669 23.2793 9.71358 23.1425 9.55572C23.0057 9.38734 22.8268 9.30314 22.6058 9.30314C22.3953 9.30314 22.2269 9.38734 22.0901 9.5452C21.9533 9.71358 21.8901 9.96616 21.8901 10.2924ZM25.7209 9.73463L24.9316 9.59782C25.0158 9.27157 25.1736 9.04004 25.3947 8.88218C25.6157 8.72432 25.9314 8.65065 26.3629 8.65065C26.7523 8.65065 27.0469 8.69275 27.2364 8.78746C27.4258 8.88218 27.5626 8.99794 27.6363 9.13476C27.71 9.27157 27.7521 9.53467 27.7521 9.91354L27.7415 10.9344C27.7415 11.2185 27.7521 11.4395 27.7836 11.5763C27.8152 11.7132 27.8678 11.8605 27.9415 12.0184H27.0785C27.0575 11.9657 27.0259 11.8815 26.9943 11.7658C26.9838 11.7132 26.9733 11.6816 26.9627 11.6605C26.8154 11.8079 26.6575 11.9131 26.4892 11.9868C26.3208 12.0605 26.1419 12.092 25.9524 12.092C25.6157 12.092 25.342 11.9973 25.1526 11.8184C24.9526 11.6395 24.8579 11.3974 24.8579 11.1238C24.8579 10.9344 24.9 10.7765 24.9947 10.6292C25.0789 10.4818 25.2052 10.3766 25.3736 10.2924C25.5315 10.2187 25.763 10.1451 26.0682 10.0925C26.4786 10.0188 26.7628 9.94511 26.9101 9.88197V9.78725C26.9101 9.61887 26.868 9.49258 26.7838 9.41891C26.6996 9.34524 26.5418 9.31367 26.3103 9.31367C26.1524 9.31367 26.0366 9.34524 25.9419 9.40838C25.8472 9.461 25.7735 9.57677 25.7209 9.73463ZM26.8891 10.4397C26.7733 10.4818 26.6049 10.5239 26.3629 10.5766C26.1208 10.6292 25.963 10.6818 25.8893 10.7239C25.7735 10.8081 25.7209 10.9028 25.7209 11.0291C25.7209 11.1554 25.763 11.2606 25.8577 11.3448C25.9524 11.429 26.0682 11.4816 26.205 11.4816C26.3629 11.4816 26.5102 11.429 26.6575 11.3238C26.7628 11.2396 26.8365 11.1449 26.868 11.0396C26.8891 10.966 26.8996 10.8186 26.8996 10.6187V10.4397H26.8891ZM28.5835 12.0184V7.46143H29.457V9.88197L30.4778 8.72432H31.5513L30.4146 9.92407L31.6249 12.0184H30.6883L29.8569 10.5239L29.457 10.9554V12.0078H28.5835V12.0184ZM34.056 10.966L34.9295 11.1133C34.8137 11.429 34.6453 11.6711 34.4033 11.8395C34.1612 12.0078 33.856 12.092 33.4982 12.092C32.9299 12.092 32.4984 11.9026 32.2248 11.5343C32.0038 11.2291 31.8985 10.8502 31.8985 10.3976C31.8985 9.8504 32.0459 9.41891 32.33 9.11371C32.6142 8.79799 32.972 8.65065 33.414 8.65065C33.9087 8.65065 34.2875 8.80851 34.5717 9.13476C34.8558 9.461 34.9926 9.95564 34.9821 10.6292H32.8036C32.8141 10.8923 32.8773 11.0922 33.0141 11.2291C33.1509 11.3764 33.3193 11.4501 33.5193 11.4501C33.6561 11.4501 33.7718 11.408 33.8666 11.3343C33.9402 11.2606 34.0034 11.1343 34.056 10.966ZM34.1086 10.0819C34.0981 9.82935 34.0349 9.63991 33.9087 9.5031C33.7824 9.36629 33.635 9.30314 33.4561 9.30314C33.2667 9.30314 33.1088 9.37681 32.9825 9.51363C32.8562 9.65044 32.7931 9.83987 32.8036 10.0819H34.1086ZM36.5186 12.0184H35.6451V8.71379H36.4555V9.18738C36.5923 8.96637 36.7186 8.81903 36.8344 8.75589C36.9501 8.68222 37.0764 8.65065 37.2132 8.65065C37.4132 8.65065 37.6026 8.70327 37.792 8.81903L37.5184 9.57677C37.3711 9.48205 37.2343 9.42943 37.108 9.42943C36.9817 9.42943 36.8764 9.461 36.7923 9.53467C36.7081 9.59782 36.6449 9.72411 36.5923 9.90302C36.5397 10.0819 36.5186 10.4503 36.5186 11.008V12.0184V12.0184ZM38.1393 8.27178V7.46143H39.0128V8.27178H38.1393ZM39.0128 8.71379H38.1393V11.8605C38.1393 12.1341 38.1288 12.292 38.1078 12.3446C38.0867 12.3972 38.0551 12.4498 37.992 12.4814C37.9394 12.5235 37.8657 12.534 37.771 12.534C37.7394 12.534 37.7078 12.534 37.6658 12.5235C37.6237 12.513 37.5921 12.513 37.55 12.5025L37.4027 13.2497C37.5184 13.2813 37.6237 13.3023 37.7289 13.3233C37.8341 13.3444 37.9183 13.3444 38.0131 13.3444C38.2551 13.3444 38.4551 13.2918 38.6129 13.1971C38.7708 13.1023 38.876 12.9655 38.9286 12.7971C38.9813 12.6288 39.0128 12.3236 39.0128 11.9026V8.71379V8.71379ZM40.5704 9.73463L39.7811 9.59782C39.8653 9.27157 40.0232 9.04004 40.2442 8.88218C40.4652 8.72432 40.7809 8.65065 41.2124 8.65065C41.6018 8.65065 41.8964 8.69275 42.0859 8.78746C42.2753 8.88218 42.4121 8.99794 42.4858 9.13476C42.5595 9.27157 42.6016 9.53467 42.6016 9.91354L42.591 10.9344C42.591 11.2185 42.6016 11.4395 42.6331 11.5763C42.6647 11.7132 42.7173 11.8605 42.791 12.0184H41.928C41.907 11.9657 41.8754 11.8815 41.8438 11.7658C41.8333 11.7132 41.8228 11.6816 41.8122 11.6605C41.6649 11.8079 41.507 11.9131 41.3387 11.9868C41.1703 12.0605 40.9914 12.092 40.8019 12.092C40.4652 12.092 40.1915 11.9973 40.0021 11.8184C39.8021 11.6395 39.7074 11.3974 39.7074 11.1238C39.7074 10.9344 39.7495 10.7765 39.8442 10.6292C39.9284 10.4818 40.0547 10.3766 40.2231 10.2924C40.381 10.2187 40.6125 10.1451 40.9177 10.0925C41.3281 10.0188 41.6123 9.94511 41.7596 9.88197V9.78725C41.7596 9.61887 41.7175 9.49258 41.6333 9.41891C41.5491 9.34524 41.3913 9.31367 41.1598 9.31367C41.0019 9.31367 40.8861 9.34524 40.7914 9.40838C40.6967 9.461 40.6336 9.57677 40.5704 9.73463ZM41.7491 10.4397C41.6333 10.4818 41.465 10.5239 41.2229 10.5766C40.9808 10.6292 40.823 10.6818 40.7493 10.7239C40.6336 10.8081 40.5809 10.9028 40.5809 11.0291C40.5809 11.1554 40.623 11.2606 40.7177 11.3448C40.8125 11.429 40.9282 11.4816 41.065 11.4816C41.2229 11.4816 41.3702 11.429 41.5176 11.3238C41.6228 11.2396 41.6965 11.1449 41.7281 11.0396C41.7491 10.966 41.7596 10.8186 41.7596 10.6187V10.4397H41.7491ZM44.117 9.73463L43.3277 9.59782C43.4119 9.27157 43.5698 9.04004 43.7908 8.88218C44.0118 8.72432 44.3275 8.65065 44.759 8.65065C45.1484 8.65065 45.4431 8.69275 45.6325 8.78746C45.8219 8.88218 45.9587 8.99794 46.0324 9.13476C46.1061 9.27157 46.1482 9.53467 46.1482 9.91354L46.1377 10.9344C46.1377 11.2185 46.1482 11.4395 46.1797 11.5763C46.2113 11.7132 46.2639 11.8605 46.3376 12.0184H45.4641C45.4431 11.9657 45.4115 11.8815 45.3799 11.7658C45.3694 11.7132 45.3589 11.6816 45.3483 11.6605C45.201 11.8079 45.0431 11.9131 44.8748 11.9868C44.7064 12.0605 44.5275 12.092 44.338 12.092C44.0013 12.092 43.7276 11.9973 43.5382 11.8184C43.3382 11.6395 43.2435 11.3974 43.2435 11.1238C43.2435 10.9344 43.2856 10.7765 43.3803 10.6292C43.4645 10.4818 43.5908 10.3766 43.7592 10.2924C43.9171 10.2187 44.1486 10.1451 44.4538 10.0925C44.8642 10.0188 45.1484 9.94511 45.2957 9.88197V9.78725C45.2957 9.61887 45.2536 9.49258 45.1694 9.41891C45.0852 9.34524 44.9274 9.31367 44.6959 9.31367C44.538 9.31367 44.4222 9.34524 44.3275 9.40838C44.2328 9.461 44.1696 9.57677 44.117 9.73463ZM45.2852 10.4397C45.1694 10.4818 45.0011 10.5239 44.759 10.5766C44.5169 10.6292 44.3591 10.6818 44.2854 10.7239C44.1696 10.8081 44.117 10.9028 44.117 11.0291C44.117 11.1554 44.1591 11.2606 44.2538 11.3448C44.3486 11.429 44.4643 11.4816 44.6011 11.4816C44.759 11.4816 44.9063 11.429 45.0537 11.3238C45.1589 11.2396 45.2326 11.1449 45.2642 11.0396C45.2852 10.966 45.2957 10.8186 45.2957 10.6187V10.4397H45.2852ZM50 12.0184H49.1265V10.3345C49.1265 9.97668 49.1054 9.74515 49.0739 9.63991C49.0318 9.53467 48.9792 9.45048 48.895 9.39786C48.8108 9.33472 48.7055 9.31367 48.5898 9.31367C48.4319 9.31367 48.3056 9.35576 48.1793 9.43996C48.053 9.52415 47.9794 9.62939 47.9268 9.7662C47.8847 9.90302 47.8636 10.1556 47.8636 10.5239V12.0184H46.9901V8.71379H47.8005V9.1979C48.0846 8.82956 48.453 8.64012 48.895 8.64012C49.0844 8.64012 49.2633 8.6717 49.4212 8.74537C49.579 8.81903 49.7053 8.90323 49.7895 9.00847C49.8737 9.11371 49.9263 9.24 49.9579 9.37681C49.9895 9.51362 50.0105 9.71358 50.0105 9.96616V12.0184H50Z" fill="#FF713C"/>
</g>
<defs>
<clipPath id="clip0">
<rect width="50" height="13.3446" fill="white"/>
</clipPath>
</defs>
</svg>
