<svg width="25" height="25" viewBox="0 0 25 25" fill="none" xmlns="http://www.w3.org/2000/svg">
<path fill-rule="evenodd" clip-rule="evenodd" d="M2.94894 5.19708H22.6232C23.9305 5.19708 25 6.2899 25 7.62557V21.6928C25 23.0285 23.9305 24.1213 22.6232 24.1213H2.37676C1.06954 24.1213 0 23.0285 0 21.6928V4.31563C0 3.68153 0.510563 3.2453 1.12676 3.16435L19.2694 0.798828C19.89 0.798828 20.3961 1.31601 20.3961 1.95011V3.91538H1.82218C1.82218 4.74287 2.06426 5.19259 2.95775 5.19259L2.94894 5.19708ZM13.9833 20.609C12.3283 20.9328 10.2025 20.3706 9.04489 19.0979C8.52113 18.5268 9.3662 17.6588 9.88997 18.2389C10.669 19.0934 12.0555 19.4937 13.1866 19.4667C14.6303 19.4352 15.9155 18.095 15.0924 16.5975C13.9569 14.5243 11.162 15.1044 9.72711 13.4764C8.56514 12.1632 9.11532 10.0945 10.4798 9.1771C11.9014 8.2192 14.3618 8.25517 15.5282 9.62682C16.0343 10.2159 15.1893 11.0794 14.6831 10.4858C13.7368 9.37947 11.5053 9.52788 10.6514 10.6702C9.43662 12.2982 11.2544 13.1751 12.522 13.5664C14.265 14.106 16.1972 15.0909 16.5141 17.1326C16.7694 18.7786 15.5194 20.3077 13.9789 20.6135L13.9833 20.609Z" fill="#EE4E2C"/>
<path fill-rule="evenodd" clip-rule="evenodd" d="M13.9832 20.6135C12.3283 20.9373 10.2024 20.3752 9.04482 19.1025C8.52105 18.5313 9.36612 17.6634 9.88989 18.2435C10.6689 19.098 12.0554 19.4982 13.1865 19.4713C14.6302 19.4398 15.911 18.0996 15.0924 16.602C13.9568 14.5288 11.1619 15.109 9.72704 13.481C8.56507 12.1678 9.11524 10.0991 10.4797 9.18167C11.9013 8.22377 14.3573 8.26425 15.5281 9.63139C16.0299 10.2205 15.1892 11.084 14.683 10.4904C13.7367 9.38405 11.5052 9.53245 10.6513 10.6747C9.43654 12.3027 11.2543 13.1797 12.5219 13.5709C14.2649 14.1106 16.1971 15.0955 16.5184 17.1372C16.7737 18.7832 15.5237 20.3122 13.9832 20.618V20.6135Z" fill="#FEFEFE"/>
</svg>
