<svg width="12" height="12" viewBox="0 0 12 12" fill="none" xmlns="http://www.w3.org/2000/svg">
<path d="M8.50481 3.95442C7.8439 3.34853 6.77443 3.34853 6.1143 3.95442L5.35731 4.6484L5.75573 5.01365L6.51272 4.31967C6.93301 3.93436 7.64235 3.89354 8.10639 4.31967C8.57121 4.7458 8.52668 5.39537 8.10639 5.78068L7.3494 6.47466L7.7486 6.84063L8.50559 6.14665C9.16493 5.54076 9.16493 4.56031 8.50481 3.95442ZM5.48855 8.18132C5.06826 8.56662 4.35892 8.60744 3.89488 8.18132C3.43006 7.75519 3.47459 7.10561 3.89488 6.72031L4.65187 6.02633L4.25267 5.66036L3.49568 6.35434C2.83477 6.96023 2.83477 7.94068 3.49568 8.54585C4.15658 9.15102 5.22606 9.15174 5.88619 8.54585L6.64318 7.85187L6.24476 7.48662L5.48855 8.18132ZM4.03393 4.08333C4.02219 4.07267 4.00633 4.06669 3.9898 4.06669C3.97327 4.06669 3.9574 4.07267 3.94566 4.08333L3.6363 4.36694C3.62467 4.37771 3.61814 4.39225 3.61814 4.4074C3.61814 4.42256 3.62467 4.4371 3.6363 4.44787L7.96734 8.41837C7.99155 8.44057 8.03139 8.44057 8.05561 8.41837L8.36497 8.13476C8.38919 8.11256 8.38919 8.07604 8.36497 8.05384L4.03393 4.08333Z" fill="#E55300"/>
</svg>
