<svg width="37" height="30" viewBox="0 0 37 30" fill="none" xmlns="http://www.w3.org/2000/svg">
<g clip-path="url(#clip0)">
<path d="M1.41033 17.3824C0.764828 17.4194 0.501847 17.1978 0.454033 16.5453C0.310589 14.6003 0.191052 12.6676 0.0595613 10.7226C0.0356539 10.4272 0.0117466 10.1317 -0.000207106 9.83626C-0.0121608 9.31924 0.358403 8.99917 0.848504 9.06072C1.3386 9.13458 1.82871 9.20844 2.31881 9.2823C3.95646 5.46614 6.58627 2.68403 10.3397 1.10832C13.4238 -0.184254 16.5915 -0.356597 19.7831 0.59129C23.3692 1.64997 26.1664 3.84119 28.1388 7.1034C30.0992 10.3656 30.6968 13.9109 30.0992 17.7271C30.4578 17.6779 30.7925 17.6286 31.1152 17.5917C31.677 17.5301 32.0237 17.8625 31.9878 18.3919C31.9639 18.7242 31.7488 18.9704 31.3662 19.032C30.8403 19.1182 30.3024 19.2043 29.7645 19.229C27.8997 19.3274 26.0349 19.4505 24.1701 19.4629C22.401 19.4752 20.6438 19.3274 18.8866 19.0689C16.6154 18.7489 14.392 18.2318 12.2523 17.3947C9.88549 16.4715 7.72187 15.1912 5.881 13.3693C5.43872 12.9384 5.41481 12.3599 5.91686 12.0029C6.14398 11.8428 6.3472 11.6459 6.59822 11.412C4.86494 11.1535 3.17947 10.8949 1.44619 10.6364C1.54182 12.126 1.63745 13.5786 1.73308 15.105C1.9602 14.9081 2.1395 14.7357 2.34271 14.5757C2.65351 14.3049 3.04798 14.3049 3.34682 14.588C6.43087 17.4563 9.9333 19.6598 13.7585 21.3217C16.0894 22.3311 18.4921 23.0821 20.9785 23.5375C23.8235 24.0669 26.6804 24.19 29.5612 23.9068C30.0513 23.8576 30.5414 23.7714 31.0435 23.7099C31.5336 23.636 31.9042 23.8699 31.9759 24.3008C32.0596 24.7439 31.7727 25.0886 31.2587 25.1748C29.6449 25.421 28.0192 25.5318 26.3816 25.5441C26.2501 25.5441 26.0947 25.6057 25.999 25.7041C23.9669 27.7353 21.5762 29.1018 18.8029 29.6803C14.2964 30.6159 10.1963 29.6065 6.61018 26.6397C3.83692 24.3377 2.1395 21.334 1.4701 17.7271C1.4701 17.604 1.43423 17.4932 1.41033 17.3824ZM20.9068 14.2679C20.859 12.5322 20.7036 10.8334 20.3808 9.13458C17.3087 9.72547 14.2486 9.72547 11.1765 9.13458C10.8537 10.8334 10.6864 12.5322 10.6744 14.2679C14.0932 14.2679 17.4761 14.2679 20.9068 14.2679ZM20.07 7.69429C19.7234 6.41402 19.3408 5.19531 18.7193 4.07508C18.3248 3.34878 17.8945 2.65941 17.2609 2.11776C16.5437 1.52687 15.7667 1.26835 14.918 1.72383C14.5116 1.94541 14.141 2.26548 13.8302 2.61017C12.8739 3.70578 12.336 5.03528 11.8818 6.41402C11.7383 6.82026 11.6307 7.23881 11.4873 7.69429C14.3681 8.22363 17.2011 8.23594 20.07 7.69429ZM26.2859 6.88181C24.8754 7.76815 23.3573 8.37135 21.8511 8.77759C22.0424 10.6364 22.2217 12.4337 22.401 14.2556C24.5287 14.2556 26.7043 14.2556 28.9038 14.2556C28.7364 11.5228 27.8758 9.08534 26.2859 6.88181ZM11.5231 22.3558C11.8459 23.6729 12.2882 24.9286 12.9337 26.0981C13.3401 26.849 13.8182 27.5507 14.5235 28.0677C15.3244 28.6586 16.1612 28.7078 16.9621 28.1292C17.3207 27.8707 17.6434 27.5384 17.9303 27.1937C18.516 26.4674 18.9464 25.6426 19.293 24.7686C19.2094 24.7316 19.1376 24.707 19.0779 24.6824C16.7828 24.1654 14.5713 23.3652 12.4197 22.3804C12.0969 22.2203 11.8339 22.245 11.5231 22.3558ZM5.31918 23.1067C6.72971 22.2696 8.22392 21.6418 9.81376 21.2109C9.78986 21.1247 9.78986 21.0509 9.75399 21.0386C7.30349 19.6352 4.97252 18.0349 2.84477 16.1145C2.35467 17.0008 4.06404 21.7649 5.31918 23.1067ZM3.77716 9.44234C3.89669 9.49158 3.94451 9.5162 4.00428 9.52851C4.75736 9.6393 5.51044 9.73778 6.27547 9.84857C6.9927 9.94706 7.70992 10.0455 8.42714 10.1686C8.74989 10.2179 8.97701 10.4148 9.06068 10.7472C9.14436 11.0673 9.02482 11.3258 8.77379 11.5351C8.48691 11.769 8.20002 12.0152 7.92508 12.2491C7.73382 12.4091 7.55452 12.5691 7.33935 12.7661C7.98485 13.2708 8.59449 13.7386 9.19217 14.1941C9.38343 12.3599 9.56274 10.5872 9.74204 8.7899C8.20002 8.35904 6.69385 7.76815 5.24746 6.8695C4.7454 7.74353 4.26726 8.58062 3.77716 9.44234ZM6.23961 24.2638C7.98485 26.1227 10.0289 27.4029 12.4555 28.0308C11.2841 26.4304 10.6505 24.5716 10.1246 22.6512C8.76184 23.0205 7.4828 23.5252 6.23961 24.2638ZM25.3177 5.76158C24.2299 4.25973 20.4167 1.95772 19.1137 1.99465C20.2732 3.59498 20.9426 5.42921 21.4566 7.3496C22.8194 7.00491 24.0984 6.48788 25.3177 5.76158ZM6.23961 5.74927C7.49475 6.48788 8.76184 7.01722 10.1246 7.36191C10.6505 5.45383 11.296 3.60729 12.5033 1.94541C10.0289 2.6471 7.98485 3.91505 6.23961 5.74927ZM22.3412 15.7575C22.3054 16.4838 22.2815 17.1855 22.2456 17.8871C22.3173 17.8995 22.3532 17.9118 22.389 17.9118C24.0028 17.9241 25.6046 17.9487 27.2183 17.9487C27.6247 17.9487 28.0312 17.8995 28.4376 17.8625C28.5093 17.8502 28.6289 17.7887 28.6408 17.7394C28.7484 17.087 28.844 16.4345 28.9397 15.7575C26.7043 15.7575 24.5407 15.7575 22.3412 15.7575ZM12.3001 15.7575C15.0136 16.9393 17.8586 17.5302 20.8111 17.7887C20.847 17.087 20.8829 16.4222 20.9068 15.7575C18.014 15.7575 15.1571 15.7575 12.3001 15.7575ZM24.0745 25.4826C23.0704 25.3471 22.1141 25.2117 21.1578 25.0886C20.7155 25.0271 20.7155 25.0271 20.5362 25.4702C20.5004 25.5687 20.4645 25.6549 20.4167 25.7534C19.9983 26.5289 19.5799 27.3168 19.1735 28.0677C20.9546 27.5876 22.5922 26.7259 24.0745 25.4826Z" fill="#FF713C"/>
<path d="M20.9069 14.2676C17.4762 14.2676 14.0933 14.2676 10.6626 14.2676C10.6865 12.5319 10.8539 10.8331 11.1647 9.13428C14.2487 9.72517 17.2969 9.72517 20.369 9.13428C20.7037 10.8331 20.871 12.5196 20.9069 14.2676Z" fill="white"/>
<path d="M20.0701 7.69395C17.2012 8.22329 14.3681 8.21098 11.4873 7.69395C11.6188 7.25079 11.7383 6.83224 11.8818 6.41369C12.336 5.04726 12.8739 3.70544 13.8302 2.60983C14.141 2.26515 14.5116 1.94508 14.918 1.7235C15.7667 1.26802 16.5437 1.51422 17.2609 2.11743C17.8945 2.64676 18.3248 3.34845 18.7193 4.07475C19.3409 5.20729 19.7234 6.41369 20.0701 7.69395Z" fill="white"/>
<path d="M26.2859 6.88135C27.8757 9.08488 28.7364 11.5223 28.9037 14.2552C26.7043 14.2552 24.5287 14.2552 22.4009 14.2552C22.2216 12.4456 22.0304 10.636 21.8511 8.77712C23.3572 8.37088 24.8754 7.76768 26.2859 6.88135Z" fill="white"/>
<path d="M11.5229 22.3554C11.8337 22.257 12.0967 22.22 12.4195 22.3678C14.5711 23.3526 16.7706 24.1527 19.0777 24.6698C19.1494 24.6821 19.2092 24.719 19.2928 24.7559C18.9581 25.6423 18.5278 26.4671 17.9301 27.181C17.6432 27.5257 17.3205 27.8581 16.9619 28.1166C16.161 28.6952 15.3242 28.646 14.5233 28.0551C13.8181 27.538 13.3519 26.8364 12.9335 26.0854C12.2999 24.916 11.8457 23.6603 11.5229 22.3554Z" fill="white"/>
<path d="M5.3192 23.106C4.06407 21.7642 2.35469 17.0001 2.84479 16.1138C4.97255 18.0219 7.30352 19.6222 9.75402 21.0379C9.78988 21.0502 9.78988 21.124 9.81379 21.2102C8.22395 21.6411 6.71779 22.2566 5.3192 23.106Z" fill="white"/>
<path d="M3.77734 9.44208C4.26744 8.58036 4.74559 7.73096 5.24765 6.85693C6.69404 7.76789 8.20021 8.35878 9.73028 8.78964C9.55097 10.5869 9.37167 12.3596 9.18041 14.1938C8.58272 13.726 7.97309 13.2582 7.32759 12.7658C7.55471 12.5689 7.73401 12.3965 7.91332 12.2488C8.20021 12.0026 8.47514 11.7687 8.76203 11.5348C9.01306 11.3255 9.12064 11.067 9.04892 10.747C8.96524 10.4269 8.73812 10.2299 8.41537 10.1684C7.69815 10.0576 6.98093 9.95911 6.26371 9.84832C5.51063 9.73753 4.75755 9.63904 3.99251 9.52825C3.95665 9.52825 3.89688 9.49132 3.77734 9.44208Z" fill="white"/>
<path d="M6.23975 24.2635C7.48293 23.5126 8.76197 23.0202 10.1247 22.6509C10.6507 24.5836 11.2722 26.4301 12.4557 28.0304C10.0291 27.4026 7.98498 26.1347 6.23975 24.2635Z" fill="white"/>
<path d="M25.3177 5.76125C24.0985 6.48755 22.8194 6.99227 21.4567 7.36158C20.9427 5.42887 20.2852 3.59465 19.1138 2.00663C20.4167 1.95739 24.2299 4.27171 25.3177 5.76125Z" fill="white"/>
<path d="M6.23975 5.74879C7.98498 3.90225 10.0291 2.6343 12.5154 1.93262C11.3081 3.60681 10.6626 5.44103 10.1366 7.34911C8.75002 7.01674 7.48293 6.4874 6.23975 5.74879Z" fill="white"/>
<path d="M22.3412 15.7568C24.5288 15.7568 26.6924 15.7568 28.9397 15.7568C28.844 16.4339 28.7484 17.0863 28.6408 17.7388C28.6289 17.788 28.5093 17.8619 28.4376 17.8619C28.0312 17.8988 27.6248 17.9481 27.2183 17.9481C25.6046 17.9481 24.0028 17.9234 22.389 17.9111C22.3532 17.9111 22.3173 17.8988 22.2456 17.8865C22.2815 17.1848 22.3173 16.4954 22.3412 15.7568Z" fill="white"/>
<path d="M12.3003 15.7568C15.1572 15.7568 18.0141 15.7568 20.9189 15.7568C20.883 16.4339 20.8591 17.0863 20.8233 17.788C17.8707 17.5295 15.0138 16.9509 12.3003 15.7568Z" fill="white"/>
<path d="M24.0743 25.4819C22.5801 26.7253 20.9425 27.587 19.1733 28.0671C19.5798 27.3039 19.9981 26.5283 20.4165 25.7528C20.4643 25.6666 20.5002 25.5681 20.5361 25.4696C20.7154 25.0388 20.7154 25.0265 21.1577 25.088C22.1259 25.2234 23.0822 25.3465 24.0743 25.4819Z" fill="white"/>
</g>
<path d="M29.4237 28.562C32.9715 28.562 35.8475 25.75 35.8475 22.2811C35.8475 18.8121 32.9715 16 29.4237 16C25.876 16 23 18.8121 23 22.2811C23 25.75 25.876 28.562 29.4237 28.562Z" fill="#FF713C" stroke="white" stroke-width="1.7878" stroke-linecap="round"/>
<path d="M28.7203 24.2031L27.982 23.1367H27.9383H27.1672V24.2031H26.2812V20.375H27.9383C28.2773 20.375 28.5708 20.4315 28.8188 20.5445C29.0703 20.6576 29.2635 20.818 29.3984 21.0258C29.5333 21.2336 29.6008 21.4797 29.6008 21.7641C29.6008 22.0484 29.5315 22.2945 29.393 22.5023C29.2581 22.7065 29.0648 22.8633 28.8133 22.9727L29.6719 24.2031H28.7203ZM28.7039 21.7641C28.7039 21.549 28.6346 21.3849 28.4961 21.2719C28.3576 21.1552 28.1552 21.0969 27.8891 21.0969H27.1672V22.4313H27.8891C28.1552 22.4313 28.3576 22.3729 28.4961 22.2563C28.6346 22.1396 28.7039 21.9755 28.7039 21.7641Z" fill="white"/>
<path d="M31.9816 21.2172C32.255 21.2172 32.503 21.281 32.7254 21.4086C32.9514 21.5326 33.1282 21.7094 33.2558 21.9391C33.3834 22.1651 33.4472 22.4294 33.4472 22.732C33.4472 23.0346 33.3834 23.3008 33.2558 23.5305C33.1282 23.7565 32.9514 23.9333 32.7254 24.0609C32.503 24.1849 32.255 24.2469 31.9816 24.2469C31.6061 24.2469 31.3108 24.1284 31.0957 23.8914V25.2641H30.2425V21.2609H31.0574V21.6C31.2688 21.3448 31.5769 21.2172 31.9816 21.2172ZM31.834 23.5469C32.0527 23.5469 32.2313 23.474 32.3699 23.3281C32.5121 23.1786 32.5832 22.9799 32.5832 22.732C32.5832 22.4841 32.5121 22.2872 32.3699 22.1414C32.2313 21.9919 32.0527 21.9172 31.834 21.9172C31.6152 21.9172 31.4347 21.9919 31.2925 22.1414C31.154 22.2872 31.0847 22.4841 31.0847 22.732C31.0847 22.9799 31.154 23.1786 31.2925 23.3281C31.4347 23.474 31.6152 23.5469 31.834 23.5469Z" fill="white"/>
<defs>
<clipPath id="clip0">
<rect width="32" height="30" fill="white"/>
</clipPath>
</defs>
</svg>
