<svg width="24" height="24" viewBox="0 0 24 24" fill="none" xmlns="http://www.w3.org/2000/svg">
<g clip-path="url(#clip0)">
<path d="M20.6018 21.4201C20.6018 21.3141 20.6018 21.208 20.6018 21.1373C20.6018 18.8045 20.6018 16.4363 20.6018 14.1035C20.6018 13.4319 20.3894 13.1845 19.7522 13.0077C18.4071 12.6896 17.0619 12.3715 15.7522 12.018C15.115 11.8413 14.5841 12.2301 14.5841 12.937C14.5841 16.2596 14.5841 19.6175 14.5841 22.94C14.5841 23.1521 14.5487 23.2228 14.3363 23.2934C13.6991 23.5055 13.0619 23.7176 12.4248 23.9297C12.1416 24.0357 11.8938 24.0357 11.5752 23.9297C7.9646 22.7986 4.31858 21.7029 0.707965 20.6071C0.212389 20.4304 0 20.1476 0 19.5821C0 16.9312 0 14.2802 0 11.5939C0 11.4878 0 11.4172 0 11.3111C0.672566 11.099 1.34513 10.887 1.9823 10.7102C5.23894 9.72054 8.53097 8.7662 11.7876 7.77651C11.8938 7.74116 12.0354 7.74116 12.177 7.77651C16.0354 8.90758 19.8938 10.074 23.7168 11.2051C23.9292 11.2758 24 11.3465 24 11.5585C24 14.2095 24 16.8958 24 19.5468C24 20.1476 23.7876 20.4304 23.2212 20.5718C22.4071 20.8192 21.6283 21.0666 20.8142 21.3141C20.7434 21.3494 20.6726 21.3848 20.6018 21.4201Z" fill="#FF713C"/>
<path d="M0.000107547 6.99866C0.000107547 6.04432 -0.0352907 5.08998 0.000107547 4.17098C0.000107547 3.78217 0.283293 3.53475 0.637276 3.42871C2.0532 3.00456 3.46913 2.5804 4.84966 2.1209C7.07975 1.44933 9.30984 0.742406 11.5399 0.0708302C11.8231 0.000138038 12.0709 -0.0352081 12.3541 0.0708302C16.0001 1.20191 19.6107 2.29763 23.2567 3.42871C23.7523 3.57009 23.9647 3.85286 23.9647 4.34771C23.9647 5.23136 23.9647 6.07967 23.9647 6.96332C23.4691 6.82193 22.9736 6.6452 22.478 6.50382C19.1152 5.47878 15.7877 4.48909 12.4249 3.4994C12.1417 3.42871 11.8231 3.42871 11.5399 3.4994C7.78772 4.63048 4.03551 5.76155 0.283293 6.89263C0.247895 6.92797 0.1417 6.96332 0.000107547 6.99866Z" fill="#FF713C"/>
<path d="M16.3186 13.9263C17.1328 14.1383 17.9469 14.3151 18.7257 14.5272C18.7965 14.5272 18.8319 14.6332 18.8673 14.7039C18.9027 14.7392 18.8673 14.8099 18.8673 14.8453C18.8673 17.1074 18.8673 19.4049 18.8673 21.6671C18.8673 21.8791 18.7965 21.9498 18.6195 22.0205C17.9115 22.1973 17.239 22.4447 16.531 22.6214C16.4602 22.6568 16.3894 22.6568 16.2832 22.6921C16.3186 19.7584 16.3186 16.86 16.3186 13.9263Z" fill="#FF713C"/>
<path d="M24 8.80154C24 9.04897 24 9.26104 24 9.50846C23.7522 9.43777 23.5398 9.36708 23.3274 9.29639C19.7168 8.20066 16.1062 7.14028 12.4602 6.04455C12.177 5.97386 11.823 5.97386 11.5044 6.04455C7.75221 7.14028 4 8.27135 0.247788 9.40243C0.176991 9.43777 0.106195 9.43777 0 9.47312C0 9.2257 0 9.01362 0 8.7662C0.60177 8.58947 1.20354 8.41274 1.76991 8.23601C5.09734 7.21097 8.42478 6.22128 11.7876 5.23159C11.8938 5.19624 12.0708 5.19624 12.177 5.23159C16.0708 6.39801 19.9292 7.56443 23.823 8.73085C23.8938 8.73085 23.9292 8.7662 24 8.80154Z" fill="#FF713C"/>
</g>
<defs>
<clipPath id="clip0">
<rect width="24" height="24" fill="white"/>
</clipPath>
</defs>
</svg>
