<svg width="29" height="30" viewBox="0 0 29 30" fill="none" xmlns="http://www.w3.org/2000/svg">
<path fill-rule="evenodd" clip-rule="evenodd" d="M14.5 1.33301C7.19598 1.33301 1.25 7.43739 1.25 14.9997C1.25 22.562 7.19598 28.6663 14.5 28.6663C21.804 28.6663 27.75 22.562 27.75 14.9997C27.75 7.43739 21.804 1.33301 14.5 1.33301ZM8.3125 17.6247C7.62799 17.6247 6.97463 17.3444 6.4953 16.8505C6.01646 16.3572 5.75 15.6911 5.75 14.9997C5.75 14.3082 6.01646 13.6422 6.4953 13.1488C6.97463 12.655 7.62798 12.3747 8.3125 12.3747C8.99702 12.3747 9.65036 12.655 10.1297 13.1488C10.6085 13.6422 10.875 14.3082 10.875 14.9997C10.875 15.6911 10.6085 16.3572 10.1297 16.8505C9.65036 17.3444 8.99702 17.6247 8.3125 17.6247ZM11.9375 14.9997C11.9375 15.6911 12.204 16.3572 12.6828 16.8505C13.1621 17.3444 13.8155 17.6247 14.5 17.6247C15.1845 17.6247 15.8379 17.3444 16.3172 16.8505C16.796 16.3572 17.0625 15.6911 17.0625 14.9997C17.0625 14.3082 16.796 13.6422 16.3172 13.1488C15.8379 12.655 15.1845 12.3747 14.5 12.3747C13.8155 12.3747 13.1621 12.655 12.6828 13.1488C12.204 13.6422 11.9375 14.3082 11.9375 14.9997ZM18.8703 16.8505C18.3915 16.3572 18.125 15.6911 18.125 14.9997C18.125 14.3082 18.3915 13.6422 18.8703 13.1488C19.3496 12.655 20.003 12.3747 20.6875 12.3747C21.372 12.3747 22.0254 12.655 22.5047 13.1488C22.9835 13.6422 23.25 14.3082 23.25 14.9997C23.25 15.6911 22.9835 16.3572 22.5047 16.8505C22.0254 17.3444 21.372 17.6247 20.6875 17.6247C20.003 17.6247 19.3496 17.3444 18.8703 16.8505Z" fill="#FF713C"/>
<path d="M6.4953 16.8505L6.85411 16.5023L6.85407 16.5022L6.4953 16.8505ZM6.4953 13.1488L6.13653 12.8005L6.13649 12.8006L6.4953 13.1488ZM10.1297 13.1488L10.4885 12.8006L10.4885 12.8005L10.1297 13.1488ZM10.1297 16.8505L9.77091 16.5023L9.7709 16.5023L10.1297 16.8505ZM12.6828 16.8505L13.0416 16.5023L13.0416 16.5023L12.6828 16.8505ZM16.3172 16.8505L15.9584 16.5023L15.9584 16.5023L16.3172 16.8505ZM16.3172 13.1488L16.676 12.8006L16.676 12.8006L16.3172 13.1488ZM12.6828 13.1488L12.324 12.8006L12.324 12.8006L12.6828 13.1488ZM18.8703 16.8505L19.2291 16.5023L19.2291 16.5023L18.8703 16.8505ZM18.8703 13.1488L18.5115 12.8006L18.5115 12.8006L18.8703 13.1488ZM22.5047 13.1488L22.8635 12.8006L22.8635 12.8006L22.5047 13.1488ZM22.5047 16.8505L22.1459 16.5023L22.1459 16.5023L22.5047 16.8505ZM1.75 14.9997C1.75 7.69951 7.48593 1.83301 14.5 1.83301V0.833008C6.90603 0.833008 0.75 7.17526 0.75 14.9997H1.75ZM14.5 28.1663C7.48593 28.1663 1.75 22.2999 1.75 14.9997H0.75C0.75 22.8241 6.90603 29.1663 14.5 29.1663V28.1663ZM27.25 14.9997C27.25 22.2999 21.5141 28.1663 14.5 28.1663V29.1663C22.0939 29.1663 28.25 22.8241 28.25 14.9997H27.25ZM14.5 1.83301C21.514 1.83301 27.25 7.69951 27.25 14.9997H28.25C28.25 7.17526 22.094 0.833008 14.5 0.833008V1.83301ZM6.13649 17.1987C6.70835 17.788 7.49045 18.1247 8.3125 18.1247V17.1247C7.76552 17.1247 7.24091 16.9008 6.85411 16.5023L6.13649 17.1987ZM5.25 14.9997C5.25 15.8189 5.5656 16.6106 6.13653 17.1988L6.85407 16.5022C6.46732 16.1038 6.25 15.5633 6.25 14.9997H5.25ZM6.13649 12.8006C5.56561 13.3888 5.25 14.1803 5.25 14.9997H6.25C6.25 14.4361 6.46731 13.8956 6.85411 13.497L6.13649 12.8006ZM8.3125 11.8747C7.49045 11.8747 6.70837 12.2114 6.13653 12.8005L6.85407 13.4971C7.24089 13.0986 7.76551 12.8747 8.3125 12.8747V11.8747ZM10.4885 12.8005C9.91662 12.2114 9.13455 11.8747 8.3125 11.8747V12.8747C8.85949 12.8747 9.3841 13.0986 9.77093 13.4971L10.4885 12.8005ZM11.375 14.9997C11.375 14.1803 11.0593 13.3888 10.4885 12.8006L9.77088 13.497C10.1577 13.8956 10.375 14.4361 10.375 14.9997H11.375ZM10.4885 17.1987C11.0594 16.6106 11.375 15.8189 11.375 14.9997H10.375C10.375 15.5632 10.1576 16.1038 9.77091 16.5023L10.4885 17.1987ZM8.3125 18.1247C9.13456 18.1247 9.91664 17.788 10.4885 17.1987L9.7709 16.5023C9.38408 16.9008 8.85948 17.1247 8.3125 17.1247V18.1247ZM13.0416 16.5023C12.6549 16.1038 12.4375 15.5632 12.4375 14.9997H11.4375C11.4375 15.8189 11.7531 16.6106 12.324 17.1987L13.0416 16.5023ZM14.5 17.1247C13.953 17.1247 13.4284 16.9008 13.0416 16.5023L12.324 17.1987C12.8958 17.788 13.678 18.1247 14.5 18.1247V17.1247ZM15.9584 16.5023C15.5716 16.9008 15.047 17.1247 14.5 17.1247V18.1247C15.322 18.1247 16.1042 17.788 16.676 17.1987L15.9584 16.5023ZM16.5625 14.9997C16.5625 15.5632 16.3451 16.1038 15.9584 16.5023L16.676 17.1987C17.2469 16.6106 17.5625 15.8189 17.5625 14.9997H16.5625ZM15.9584 13.497C16.3452 13.8956 16.5625 14.4361 16.5625 14.9997H17.5625C17.5625 14.1803 17.2468 13.3888 16.676 12.8006L15.9584 13.497ZM14.5 12.8747C15.047 12.8747 15.5716 13.0986 15.9584 13.497L16.676 12.8006C16.1042 12.2114 15.322 11.8747 14.5 11.8747V12.8747ZM13.0416 13.497C13.4284 13.0986 13.953 12.8747 14.5 12.8747V11.8747C13.678 11.8747 12.8958 12.2114 12.324 12.8006L13.0416 13.497ZM12.4375 14.9997C12.4375 14.4361 12.6548 13.8956 13.0416 13.497L12.324 12.8006C11.7532 13.3888 11.4375 14.1803 11.4375 14.9997H12.4375ZM17.625 14.9997C17.625 15.8189 17.9407 16.6106 18.5115 17.1987L19.2291 16.5023C18.8424 16.1038 18.625 15.5632 18.625 14.9997H17.625ZM18.5115 12.8006C17.9407 13.3888 17.625 14.1803 17.625 14.9997H18.625C18.625 14.4361 18.8423 13.8956 19.2291 13.497L18.5115 12.8006ZM20.6875 11.8747C19.8655 11.8747 19.0833 12.2114 18.5115 12.8006L19.2291 13.497C19.6159 13.0986 20.1405 12.8747 20.6875 12.8747V11.8747ZM22.8635 12.8006C22.2917 12.2114 21.5095 11.8747 20.6875 11.8747V12.8747C21.2345 12.8747 21.7591 13.0986 22.1459 13.497L22.8635 12.8006ZM23.75 14.9997C23.75 14.1803 23.4343 13.3888 22.8635 12.8006L22.1459 13.497C22.5327 13.8956 22.75 14.4361 22.75 14.9997H23.75ZM22.8635 17.1987C23.4343 16.6106 23.75 15.8189 23.75 14.9997H22.75C22.75 15.5632 22.5326 16.1038 22.1459 16.5023L22.8635 17.1987ZM20.6875 18.1247C21.5095 18.1247 22.2917 17.788 22.8635 17.1987L22.1459 16.5023C21.7591 16.9008 21.2345 17.1247 20.6875 17.1247V18.1247ZM18.5115 17.1987C19.0833 17.788 19.8655 18.1247 20.6875 18.1247V17.1247C20.1405 17.1247 19.6159 16.9008 19.2291 16.5023L18.5115 17.1987Z" fill="#FF713C"/>
</svg>
