<svg width="39" height="39" viewBox="0 0 39 39" fill="none" xmlns="http://www.w3.org/2000/svg">
<path fill-rule="evenodd" clip-rule="evenodd" d="M31.2412 9.37479L33.9996 9.84792L39.0001 4.84748L34.8623 4.13775L34.1525 0L29.1521 5.00037L29.6252 7.75879L28.4241 8.95986C25.2992 6.21858 21.3348 4.72065 17.1397 4.72065C7.66707 4.72065 0 12.3864 0 21.8603C0 31.3329 7.66578 39 17.1397 39C26.6123 39 34.2794 31.3342 34.2794 21.8603C34.2794 17.6652 32.7814 13.7008 30.0401 10.5759L31.2412 9.37479ZM32.6465 4.73786L32.883 6.11696L34.2621 6.35349L33.22 7.3955L31.841 7.15898L31.6044 5.77988L32.6465 4.73786ZM17.1397 36.7147C25.3304 36.7147 31.9941 30.051 31.9941 21.8603C31.9941 18.1754 30.6448 14.8 28.415 12.2009L25.1709 15.4451C26.5796 17.205 27.4235 19.4359 27.4235 21.8603C27.4235 27.5308 22.8102 32.1441 17.1397 32.1441C11.4692 32.1441 6.85587 27.5308 6.85587 21.8603C6.85587 16.1898 11.4692 11.5765 17.1397 11.5765C19.5641 11.5765 21.795 12.4204 23.5549 13.8291L26.7991 10.585C24.2001 8.35525 20.8246 7.00594 17.1397 7.00594C8.94897 7.00594 2.28529 13.6696 2.28529 21.8603C2.28529 30.051 8.94897 36.7147 17.1397 36.7147ZM25.1382 21.8603C25.1382 26.2707 21.5501 29.8588 17.1397 29.8588C12.7293 29.8588 9.14116 26.2707 9.14116 21.8603C9.14116 17.4499 12.7293 13.8618 17.1397 13.8618C18.9336 13.8618 20.5915 14.4555 21.9273 15.4568L18.6167 18.7674C18.1691 18.5528 17.6682 18.4324 17.1397 18.4324C15.2495 18.4324 13.7117 19.9702 13.7117 21.8603C13.7117 23.7505 15.2495 25.2883 17.1397 25.2883C19.0298 25.2883 20.5676 23.7505 20.5676 21.8603C20.5676 21.3317 20.4472 20.8309 20.2326 20.3833L23.5432 17.0727C24.5445 18.4085 25.1382 20.0664 25.1382 21.8603ZM17.1397 23.003C17.7697 23.003 18.2823 22.4904 18.2823 21.8603C18.2823 21.2303 17.7697 20.7177 17.1397 20.7177C16.5096 20.7177 15.997 21.2303 15.997 21.8603C15.997 22.4904 16.5096 23.003 17.1397 23.003Z" fill="#FF713C"/>
</svg>
