<svg width="29" height="40" viewBox="0 0 29 40" fill="none" xmlns="http://www.w3.org/2000/svg">
<g clip-path="url(#clip0)">
<path d="M4.42994 8.19305C5.7919 8.19305 7.12634 8.19305 8.44702 8.19305C8.70841 8.19305 8.88725 8.12302 9.05233 7.89893C9.79522 6.87652 10.7857 6.17624 12.0101 5.86812C12.2577 5.79809 12.354 5.68605 12.3128 5.43395C12.3128 5.40593 12.3128 5.39193 12.3128 5.36392C12.3128 4.18745 12.3128 4.18745 11.4736 3.41714C11.4048 3.34711 11.2672 3.33311 11.1572 3.33311C10.6894 3.3191 10.2217 3.34711 9.75395 3.3191C9.14863 3.29109 8.72216 2.87092 8.68089 2.29669C8.65338 1.8065 9.02482 1.27428 9.50632 1.19025C9.83649 1.13423 10.1942 1.17624 10.5381 1.16224C10.6344 1.16224 10.7445 1.14823 10.8408 1.16224C11.1984 1.20425 11.4598 1.09221 11.7075 0.784086C12.6154 -0.350368 14.2938 -0.280339 15.1467 0.896131C15.2981 1.10621 15.4356 1.17624 15.6833 1.17624C16.1235 1.16224 16.5775 1.16224 17.0177 1.17624C17.5817 1.19025 18.022 1.59641 18.0632 2.17064C18.1183 2.68885 17.7331 3.22106 17.1828 3.29109C16.66 3.34711 16.1372 3.33311 15.6145 3.33311C15.4081 3.33311 15.2705 3.37512 15.1605 3.5572C15.078 3.69725 14.9679 3.85131 14.8441 3.92134C14.4589 4.13142 14.3901 4.45355 14.4314 4.84571C14.4589 5.13983 14.3488 5.48997 14.4864 5.70005C14.5965 5.88212 14.9679 5.91014 15.2155 6.00818C16.2473 6.38633 17.0865 7.03058 17.7193 7.92694C17.8569 8.12302 18.0082 8.17904 18.2283 8.17904C19.6178 8.16504 20.9935 8.17904 22.383 8.17904C24.1439 8.17904 25.4095 9.46756 25.4095 11.2603C25.4095 12.8989 25.4095 14.5516 25.4233 16.1902C25.4233 16.4984 25.3408 16.5824 25.0381 16.5824C23.3322 16.5684 21.6263 16.5684 19.9205 16.5824C19.6178 16.5824 19.5215 16.4984 19.5215 16.1902C19.5353 15.532 19.5215 14.8597 19.5215 14.1454C18.9987 14.1454 18.4897 14.1314 17.9945 14.1594C17.8844 14.1594 17.7743 14.3135 17.7056 14.4255C16.8251 15.588 15.697 16.3583 14.2525 16.5824C12.1202 16.9045 10.3868 16.1902 9.05233 14.4676C8.85973 14.2295 8.68089 14.1454 8.39199 14.1454C7.16761 14.1594 5.94323 14.1454 4.71884 14.1594C4.49873 14.1594 4.38867 14.1174 4.38867 13.8513C4.40243 12.0446 4.40243 10.2379 4.40243 8.43114C4.40243 8.36112 4.41619 8.29109 4.42994 8.19305Z" fill="#FF713C"/>
<path d="M22.5437 21.0522C22.5775 21.0795 22.6113 21.1 22.6315 21.1272C23.6988 22.5179 24.6917 23.9563 25.3671 25.5924C25.5833 26.1309 25.7319 26.6831 25.7724 27.2626C25.8265 28.1965 25.482 28.9668 24.8335 29.6076C23.2665 31.1551 20.5444 30.6779 19.619 28.6941C19.2272 27.8556 19.2745 27.0035 19.5447 26.1514C19.9297 24.9379 20.5646 23.854 21.2603 22.8042C21.6183 22.2657 22.0101 21.7476 22.3951 21.2227C22.4424 21.1613 22.4964 21.1068 22.5437 21.0522ZM20.8618 25.2243C20.5646 25.7628 20.3552 26.315 20.2674 26.9149C20.1999 27.3853 20.2607 27.8215 20.5038 28.2374C20.6322 28.4487 20.8145 28.5782 21.0442 28.6396C21.2063 28.6805 21.3954 28.6191 21.49 28.476C21.5913 28.326 21.5913 28.1692 21.49 28.0192C21.4562 27.9715 21.4292 27.9238 21.3954 27.8761C20.8888 27.1603 20.7065 26.3695 20.8348 25.4969C20.8483 25.4083 20.8551 25.3129 20.8618 25.2243Z" fill="#FF713C"/>
<path d="M0 16.1624C0 12.843 0 9.56572 0 6.2744C0.852941 6.2744 1.70588 6.23239 2.54507 6.28841C3.02657 6.31642 3.23292 6.69457 3.23292 7.29681C3.23292 9.60774 3.23292 11.9327 3.23292 14.2436C3.23292 14.5797 3.24668 14.9159 3.23292 15.252C3.21917 15.7982 2.86148 16.1624 2.3112 16.1624C1.5408 16.1624 0.784156 16.1624 0 16.1624Z" fill="#FF713C"/>
<path d="M22.4515 19.7334C21.5435 19.7334 20.6218 19.7334 19.7138 19.7334C19.0535 19.7334 18.5995 19.2993 18.5858 18.683C18.572 18.0668 19.026 17.5906 19.6726 17.5906C21.5298 17.5766 23.3732 17.5766 25.2304 17.5906C25.8908 17.5906 26.3173 18.0528 26.3173 18.683C26.3035 19.3133 25.8633 19.7334 25.2029 19.7334C24.2812 19.7334 23.3732 19.7334 22.4515 19.7334Z" fill="#FF713C"/>
<path d="M20.9102 25.2627C20.9047 25.3716 20.8992 25.4888 20.8883 25.5976C20.7842 26.6611 20.9321 27.6408 21.343 28.5201C21.3704 28.5787 21.3923 28.6373 21.4197 28.6959C21.5018 28.8885 21.5018 29.0728 21.4197 29.257C21.343 29.4328 21.1896 29.5082 21.0581 29.4579C20.8718 29.3826 20.7239 29.2319 20.6199 28.9639C20.4226 28.4531 20.3733 27.9172 20.4281 27.3394C20.4993 26.6025 20.6746 25.9242 20.9102 25.2627Z" fill="white"/>
</g>
<defs>
<clipPath id="clip0">
<rect width="29" height="40" fill="white"/>
</clipPath>
</defs>
</svg>
