<svg width="27" height="41" viewBox="0 0 27 41" fill="none" xmlns="http://www.w3.org/2000/svg">
<path d="M22.0061 13.0822V14.1683H21.3701V11.1816H22.1333C22.5149 11.1816 22.7693 11.3174 23.0237 11.4532C23.1509 11.5889 23.2781 11.8604 23.2781 12.1319C23.2781 12.2677 23.2781 12.4034 23.1509 12.5392C23.0237 12.675 22.8965 12.8107 22.7693 12.8107C23.1509 13.4895 23.4053 13.8968 23.5325 14.1683H22.8965L22.3877 13.0822H22.0061ZM22.0061 12.5392H22.2605C22.3877 12.5392 22.6421 12.5392 22.6421 12.4034C22.6421 12.2677 22.7693 12.2677 22.7693 12.1319C22.7693 11.9962 22.7693 11.8604 22.6421 11.8604C22.5149 11.7247 22.3877 11.7247 22.2605 11.7247H22.1333V12.5392H22.0061Z" fill="white"/>
<path d="M25.1861 14.1677C24.9317 14.1677 24.6773 14.032 24.5501 13.8962C24.5501 14.032 24.5501 14.1677 24.5501 14.1677V15.118H23.9141V11.8599H24.4229L24.5501 12.1314C24.6773 11.8599 24.9317 11.8599 25.1861 11.8599C25.4405 11.8599 25.6949 11.9956 25.8221 12.1314C25.9493 12.4029 26.0765 12.6744 26.0765 12.9459C26.0765 13.2174 26.0765 13.3532 25.9493 13.6247C25.8221 13.7604 25.8221 13.8962 25.6949 14.032C25.4405 14.1677 25.3133 14.1677 25.1861 14.1677ZM24.9317 12.4029C24.8045 12.4029 24.6773 12.4029 24.6773 12.5386C24.5501 12.6744 24.5501 12.8102 24.5501 12.9459C24.5501 13.2174 24.5501 13.3532 24.6773 13.4889C24.8045 13.6247 24.8045 13.6247 25.0589 13.6247C25.3133 13.7604 25.4405 13.4889 25.4405 13.0817C25.4405 12.8102 25.4405 12.6744 25.3133 12.5386C25.1861 12.4029 25.1861 12.4029 24.9317 12.4029Z" fill="white"/>
<path d="M26.4574 40.098H25.1854V21.6352C25.1854 21.3637 25.0582 21.2279 24.8038 21.2279H22.5142V19.7346C22.5142 19.4631 22.387 19.3274 22.1326 19.3274H14.6279V15.3904H14.8823C15.1367 15.3904 15.2639 15.2547 15.2639 14.9832C15.2639 14.7117 15.1367 14.5759 14.8823 14.5759H14.6279V12.8111C14.6279 12.5396 14.5007 12.4038 14.2463 12.4038H2.03518C1.78079 12.4038 1.65359 12.5396 1.65359 12.8111V14.4401H1.39919C1.14479 14.4401 1.01759 14.5759 1.01759 14.8474C1.01759 15.1189 1.14479 15.2547 1.39919 15.2547H1.65359V39.9623H0.381597C0.127199 40.098 0 40.2338 0 40.5053C0 40.7768 0.127199 40.9126 0.381597 40.9126H2.03518H14.2463H24.8038H26.4574C26.7118 40.9126 26.839 40.7768 26.839 40.5053C26.839 40.2338 26.5846 40.098 26.4574 40.098Z" fill="#FF713C"/>
<path d="M21.7501 20.1416H14.627V21.227H21.7501V20.1416Z" fill="white"/>
<path d="M13.7372 13.2183H2.4165V14.5751H13.7372V13.2183Z" fill="#FF713C"/>
<path d="M2.4165 15.3901H13.7372V19.5986V21.6349V40.0977H2.4165V15.3901Z" fill="#FF713C"/>
<path d="M14.627 40.0975V22.042H22.1317H24.4213V40.0975H14.627Z" fill="#FF713C"/>
<path d="M5.08814 16.7476C4.83374 16.7476 4.70654 16.8833 4.70654 17.1548V36.9752C4.70654 37.2467 4.83374 37.5182 5.08814 37.5182C5.34254 37.5182 5.46974 37.3825 5.46974 37.111V17.1548C5.46974 16.8833 5.34254 16.7476 5.08814 16.7476Z" fill="white"/>
<path d="M8.14087 16.7476C7.88648 16.7476 7.75928 16.8833 7.75928 17.1548V36.9752C7.75928 37.2467 7.88648 37.3825 8.14087 37.3825C8.39527 37.3825 8.52247 37.2467 8.52247 36.9752V17.1548C8.52247 16.8833 8.39527 16.7476 8.14087 16.7476Z" fill="white"/>
<path d="M11.1926 16.7476C10.9382 16.7476 10.811 16.8833 10.811 17.1548V36.9752C10.811 37.2467 10.9382 37.3825 11.1926 37.3825C11.447 37.3825 11.5742 37.2467 11.5742 36.9752V17.1548C11.5742 16.8833 11.447 16.7476 11.1926 16.7476Z" fill="white"/>
<path d="M12.9735 12.2673H3.3064C3.052 12.2673 2.9248 11.9958 2.9248 11.8601V10.3667C2.9248 10.0952 3.1792 9.95947 3.3064 9.95947H12.9735C13.2279 9.95947 13.3551 10.231 13.3551 10.3667V11.7243C13.3551 12.1316 13.2279 12.2673 12.9735 12.2673Z" stroke="#FF713C" stroke-width="0.6588" stroke-miterlimit="10"/>
<path d="M8.14093 1L3.43457 9.55263H12.8473L8.14093 1Z" fill="#FF713C" stroke="#FF713C" stroke-width="0.056027" stroke-miterlimit="10"/>
<path d="M8.14043 2.08545L4.19727 9.55203H12.0836L8.14043 2.08545Z" fill="white" stroke="#FF713C" stroke-width="0.0476698" stroke-miterlimit="10"/>
<circle cx="15.5951" cy="24.9321" r="1.08781" fill="white"/>
<circle cx="15.5951" cy="29.2831" r="1.08781" fill="white"/>
<circle cx="15.5951" cy="33.6342" r="1.08781" fill="white"/>
<circle cx="15.5951" cy="36.8979" r="1.08781" fill="white"/>
<circle cx="18.8583" cy="24.9321" r="1.08781" fill="white"/>
<circle cx="18.8583" cy="29.2831" r="1.08781" fill="white"/>
<circle cx="18.8583" cy="33.6342" r="1.08781" fill="white"/>
<circle cx="18.8583" cy="36.8979" r="1.08781" fill="white"/>
<circle cx="22.122" cy="24.9321" r="1.08781" fill="white"/>
<circle cx="22.122" cy="29.2831" r="1.08781" fill="white"/>
<circle cx="22.122" cy="33.6342" r="1.08781" fill="white"/>
<circle cx="22.122" cy="36.8979" r="1.08781" fill="white"/>
</svg>
