<svg width="35" height="32" viewBox="0 0 35 32" fill="none" xmlns="http://www.w3.org/2000/svg">
<path d="M32.2059 0H2.64706C1.17647 0 0 1.04524 0 2.3518V22.9954C0 24.3019 1.17647 25.3472 2.64706 25.3472H13.3824L12.6471 27.699H10.8824C9.85294 27.699 8.97059 28.4829 8.97059 29.3975C8.97059 30.3121 9.85294 31.096 10.8824 31.096H24.1176C25.1471 31.096 26.0294 30.3121 26.0294 29.3975C26.0294 28.4829 25.1471 27.699 24.1176 27.699H22.3529L21.6176 25.3472H32.3529C33.8235 25.3472 35 24.3019 35 22.9954V2.3518C34.8529 1.04524 33.6765 0 32.2059 0Z" fill="#FF713C"/>
<path d="M33.8224 22.9948C33.8224 23.7788 33.0871 24.4321 32.2048 24.4321H20.7342H14.1166H2.64597C1.76361 24.4321 1.02832 23.7788 1.02832 22.9948V2.35127C1.02832 1.56734 1.76361 0.914062 2.64597 0.914062H32.2048C33.0871 0.914062 33.8224 1.56734 33.8224 2.35127V22.9948V22.9948Z" fill="white"/>
<path d="M30.5879 2.87402H4.1173C3.52907 2.87402 3.08789 3.26599 3.08789 3.78861V21.5578C3.08789 22.0804 3.52907 22.4724 4.1173 22.4724H30.5879C31.1761 22.4724 31.6173 22.0804 31.6173 21.5578V3.78861C31.7644 3.26599 31.1761 2.87402 30.5879 2.87402Z" fill="#FF713C"/>
<path d="M30.7347 3.78906H4.26416V21.5582H30.7347V3.78906Z" fill="white"/>
<path d="M21.1768 27.6985H13.6768L14.4121 25.3467H20.4415L21.1768 27.6985Z" fill="white"/>
<path d="M17.7649 5H17.0183C13.1358 5.16047 10 8.69072 10 13.0233C10 17.1954 13.1358 20.7257 17.0183 21.0466H17.7649C21.7967 20.8861 24.9326 17.3559 24.9326 13.0233C24.9326 8.53025 21.7967 5.16047 17.7649 5ZM22.6927 8.20932C22.0954 8.69072 21.6474 9.01165 21.0501 9.33258C20.4528 7.88839 19.7062 6.60466 18.6609 5.64186C20.3035 5.9628 21.6474 6.76513 22.6927 8.20932ZM17.7649 5.64186C18.9596 6.60466 19.8555 7.88839 20.4528 9.33258C19.5569 9.65351 18.6609 9.81398 17.7649 9.81398V5.64186ZM17.7649 10.6163C18.8102 10.6163 19.7062 10.4558 20.6021 9.97445C20.9008 10.9372 21.0501 11.9 21.0501 12.8628H17.7649V10.6163ZM17.7649 13.5047H21.0501C21.0501 14.4675 20.7515 15.4303 20.4528 16.2326C19.5569 15.9117 18.6609 15.7512 17.7649 15.7512V13.5047ZM16.2717 5.64186C15.2264 6.60466 14.4798 7.72792 14.0318 9.01165C13.4345 8.85118 12.8372 8.36979 12.3892 8.04885C13.4345 6.76513 14.7784 5.9628 16.2717 5.64186ZM12.0906 8.53025C12.6879 9.01165 13.2852 9.33258 13.8825 9.65351C13.5838 10.6163 13.4345 11.7396 13.4345 12.8628H10.896C10.7466 11.2582 11.1946 9.81398 12.0906 8.53025ZM12.2399 17.5163C11.3439 16.3931 10.7466 14.9489 10.7466 13.3442H13.2852C13.2852 14.4675 13.5838 15.4303 13.8825 16.3931C13.2852 16.8745 12.8372 17.1954 12.2399 17.5163ZM12.6879 17.9977C13.1358 17.6768 13.7331 17.3559 14.1811 17.035C14.6291 18.1582 15.3757 19.121 16.2717 20.0838C14.9278 19.9233 13.5838 19.121 12.6879 17.9977ZM17.1676 20.2443C16.1224 19.2815 15.2264 18.1582 14.6291 16.8745C15.3757 16.5536 16.2717 16.3931 17.1676 16.3931V20.2443ZM17.1676 15.7512C16.2717 15.7512 15.2264 16.0722 14.3305 16.3931C14.0318 15.4303 13.7331 14.4675 13.7331 13.5047H17.1676V15.7512ZM17.1676 12.8628H13.7331C13.7331 11.9 13.8825 10.9372 14.1811 9.97445C15.0771 10.2954 16.1224 10.6163 17.1676 10.6163V12.8628ZM17.1676 9.97445C16.2717 9.97445 15.3757 9.65351 14.4798 9.33258C15.0771 7.88839 15.973 6.60466 17.1676 5.64186V9.97445ZM17.7649 20.0838V16.2326C18.6609 16.2326 19.4075 16.3931 20.3035 16.714C19.7062 17.9977 18.8102 19.2815 17.7649 20.0838ZM18.6609 20.0838C19.5569 19.121 20.3035 18.1582 20.9008 16.8745C21.4981 17.1954 22.0954 17.5163 22.5434 17.8373C21.4981 19.121 20.1542 19.9233 18.6609 20.0838ZM22.842 17.5163C22.2447 17.0349 21.6474 16.714 21.0501 16.3931C21.3488 15.4303 21.6474 14.4675 21.6474 13.3442H24.3353C24.186 14.9489 23.738 16.3931 22.842 17.5163ZM24.3353 12.8628H21.6474C21.6474 11.7396 21.4981 10.7768 21.1994 9.81398C21.7967 9.49305 22.5434 9.17212 22.9914 8.69072C23.8873 9.81398 24.3353 11.2582 24.3353 12.8628Z" fill="#FF713C"/>
</svg>
