<svg width="44" height="27" viewBox="0 0 44 27" fill="none" xmlns="http://www.w3.org/2000/svg">
<path d="M34.4242 8.15691H26.2727L26.5455 7.80913L17.0909 0.15808C16.9697 0.0632318 16.7879 0 16.6364 0H12.4242C12.1212 0 11.8788 0.15808 11.7576 0.442623C11.6364 0.727166 11.6667 1.04333 11.8182 1.26464L15.8788 6.76581L17.0909 5.78571L13.9697 1.5808H16.3636L24.4849 8.15691H12.3636L4.75758 1.13817C4.60606 1.01171 4.45455 0.948478 4.24242 0.948478H0.757576C0.484849 0.948478 0.242424 1.10656 0.121212 1.32787C-0.030303 1.5808 -0.030303 1.86534 0.0909091 2.11827L3.21212 8.15691H0.757576C0.333333 8.15691 0 8.50468 0 8.94731V12.6148C0 12.9309 0.181818 13.2471 0.484849 13.3419C0.878788 13.5 10.0606 17.1674 12.8788 17.1674H18.1515L11.8182 25.7354C11.6364 25.9883 11.6061 26.3044 11.7273 26.5574C11.8485 26.8419 12.1212 27 12.3939 27H16.5758C16.7576 27 16.9091 26.9368 17.0303 26.8419L28.9394 17.1991H39.3939C41.2424 17.1991 43.9394 16.0925 43.9394 13.7213C44 11.0972 38.9091 8.15691 34.4242 8.15691ZM39.4545 15.6183H28.7576C28.5758 15.6183 28.4242 15.6815 28.303 15.7763L16.3636 25.4192H13.9697L20.2727 16.8829C20.4848 16.5984 20.4849 16.1874 20.2424 15.9028C20.0909 15.7131 19.8485 15.6183 19.6364 15.6183H12.8788C10.8788 15.6183 4.39394 13.2155 1.51515 12.0773V9.7377H4.48485C4.75758 9.7377 5 9.57963 5.12121 9.35831C5.27273 9.10539 5.27273 8.82084 5.15152 8.56792L2.0303 2.52927H4L11.6061 9.54801C11.7576 9.67447 11.9091 9.7377 12.1212 9.7377H34.4545C38.6364 9.7377 42.5455 12.4567 42.5455 13.6897C42.4848 14.8911 40.7273 15.6183 39.4545 15.6183Z" fill="#FF713C"/>
<circle cx="35" cy="12" r="1" fill="#F15A23"/>
<circle cx="32" cy="12" r="1" fill="#F15A23"/>
<circle cx="29" cy="12" r="1" fill="#F15A23"/>
</svg>
