<svg width="55" height="44" viewBox="0 0 55 44" fill="none" xmlns="http://www.w3.org/2000/svg">
<path d="M10.1599 20.968L9.29801 20.0641V21.3131C9.29801 25.2868 10.4151 29.12 12.8234 32.3211C15.7034 36.3043 19.8708 38.8631 24.6816 39.5044C30.4483 40.4593 36.373 38.5435 40.5364 34.2383C41.1205 33.6595 42.0492 33.6605 42.6321 34.2413C43.215 34.822 43.215 35.7463 42.6321 36.3271L42.632 36.3271L42.6265 36.3327C37.9119 41.1815 30.9086 43.4585 24.2106 42.3969L24.2106 42.3967L24.199 42.3952C18.5775 41.6383 13.711 38.6121 10.3589 34.0597C7.77294 30.4208 6.40283 26.0219 6.40283 21.6235V20.4692L5.56082 21.2588L2.92357 23.7318C2.53291 24.0526 2.14039 24.1894 1.79341 24.1894C1.46133 24.1894 1.13137 24.0647 0.83746 23.787C0.349031 23.0264 0.393199 22.2359 0.951984 21.6736L7.33269 15.7815L7.37614 15.7414L7.40903 15.6922C7.59082 15.4205 7.85949 15.2932 8.39575 15.2932C8.6623 15.2932 9.0051 15.4875 9.2829 15.762L15.1968 22.1193L15.2033 22.1263L15.21 22.133C15.5147 22.4365 15.6472 22.7781 15.6472 23.0983C15.6472 23.4184 15.5147 23.76 15.21 24.0636C14.6275 24.6439 13.6997 24.6453 13.1155 24.0678L10.1599 20.968Z" fill="#F15A23" stroke="#FFB6AE"/>
<path d="M12.3319 9.16131L12.3158 9.14531L12.2984 9.13083C11.9373 8.83106 11.7778 8.46408 11.7778 8.099C11.7778 7.72851 11.943 7.30768 12.3319 6.92026C17.2087 2.06136 24.0647 -0.212856 30.607 0.696678L30.6091 0.696965C36.232 1.45401 41.0995 4.48145 44.4516 9.03575L44.4548 9.04005C47.1931 12.6776 48.5611 16.9182 48.5611 21.3133V22.5708L49.4246 21.6567L51.9119 19.0236C52.4961 18.4468 53.4234 18.4484 54.0057 19.0286L54.0253 19.0481L54.0469 19.0654C54.5501 19.4664 54.6133 20.3538 54.0057 20.9591L54.0056 20.9591L54.0012 20.9636L47.9292 27.1685C47.9285 27.1692 47.9278 27.1699 47.9271 27.1706C47.343 27.7503 46.4137 27.7496 45.8305 27.1685L45.8305 27.1685L45.8259 27.1641L39.5936 21.1099L39.5761 21.0929L39.5569 21.0776C39.0537 20.6765 38.9906 19.7892 39.5982 19.1838L39.6178 19.1642L39.6351 19.1426C40.0385 18.6402 40.9326 18.5775 41.5411 19.1838L44.6572 22.2885L45.464 23.0923L45.5097 21.9543C45.67 17.9625 44.5467 14.1272 42.1445 10.7765L42.1446 10.7765L42.1376 10.7672C39.2564 6.93957 35.092 4.38638 30.2903 3.58905L30.2882 3.5887C24.3557 2.63022 18.4285 4.70831 14.2682 9.0128L14.2522 9.02932L14.2378 9.04723C13.7854 9.61062 12.8834 9.71082 12.3319 9.16131Z" fill="#F15A23" stroke="#FFB6AE"/>
<path d="M37.8435 28.4542H37.3761V28.1437C37.3761 27.5228 36.9087 27.0571 36.4413 26.9018V18.0535C37.0645 17.8982 37.3761 17.4325 37.3761 16.8116V16.5011H38.7784C38.9342 16.5011 39.09 16.3459 39.09 16.1906C39.09 16.0354 39.09 15.8802 38.9342 15.8802L28.1835 9.20508C28.0277 9.20508 27.8718 9.20508 27.8718 9.20508L17.1211 15.7249C16.9653 15.8802 16.9653 16.0354 16.9653 16.0354C16.9653 16.1906 17.1211 16.3459 17.2769 16.3459H18.6792V16.6563C18.6792 17.2773 19.1466 17.743 19.6141 17.8982V26.7466C18.9908 26.9018 18.6792 27.3675 18.6792 27.9885V28.2989H18.3676C17.5886 28.2989 16.9653 28.9199 16.9653 29.6961V30.6275C16.9653 30.7827 17.1211 30.9379 17.2769 30.9379H38.7784C38.9342 30.9379 39.09 30.7827 39.09 30.6275V29.6961C39.09 29.0751 38.4667 28.4542 37.8435 28.4542ZM26.3138 26.9018C25.6905 27.0571 25.3789 27.5228 25.3789 28.1437V28.4542H23.9767V28.1437C23.9767 27.5228 23.5092 27.0571 23.0418 26.9018V18.0535C23.665 17.8982 23.9767 17.4325 23.9767 16.8116V16.5011H25.3789V16.8116C25.3789 17.4325 25.8464 17.8982 26.3138 18.0535V26.9018ZM33.0135 26.9018C32.3903 27.0571 32.0786 27.5228 32.0786 28.1437V28.4542H30.6764V28.1437C30.6764 27.5228 30.209 27.0571 29.7415 26.9018V18.0535C30.3648 17.8982 30.6764 17.4325 30.6764 16.8116V16.5011H32.0786V16.8116C32.0786 17.4325 32.5461 17.8982 33.0135 18.0535V26.9018Z" fill="#E64510"/>
<path d="M36.7527 28.1436V28.4541H32.7017V28.1436C32.7017 27.8332 33.0133 27.5227 33.3249 27.5227H35.9736C36.441 27.5227 36.7527 27.8332 36.7527 28.1436Z" fill="#FFB6AE"/>
<path d="M22.4186 18.0535H20.3931V26.7466H22.4186V18.0535Z" fill="#FFB6AE"/>
<path d="M29.1183 18.0535H27.0928V26.7466H29.1183V18.0535Z" fill="#FFB6AE"/>
<path d="M29.4302 17.4326H26.7814C26.4698 17.4326 26.1582 17.1222 26.1582 16.8117V16.5012H30.2092V16.8117C30.0534 17.1222 29.7418 17.4326 29.4302 17.4326Z" fill="#FFB6AE"/>
<path d="M26.0025 28.1436C26.0025 27.8332 26.3141 27.5227 26.6257 27.5227H29.2744C29.5861 27.5227 29.8977 27.8332 29.8977 28.1436V28.4541H25.8467V28.1436H26.0025Z" fill="#FFB6AE"/>
<path d="M35.818 18.0535H33.7925V26.7466H35.818V18.0535Z" fill="#FFB6AE"/>
<path d="M36.7531 16.8117C36.7531 17.1222 36.4415 17.4326 36.1299 17.4326H33.4811C33.1695 17.4326 32.8579 17.1222 32.8579 16.8117V16.5012H36.9089V16.8117H36.7531Z" fill="#FFB6AE"/>
<path d="M18.9909 15.7251H18.5234L28.0277 9.82617L37.6877 15.7251H37.0645H32.3903H30.3648H25.6906H23.6651H18.9909Z" fill="#FFB6AE"/>
<path d="M19.3022 16.8117V16.5012H23.3532V16.8117C23.3532 17.1222 23.0416 17.4326 22.73 17.4326H20.0813C19.6139 17.4326 19.3022 17.1222 19.3022 16.8117Z" fill="#FFB6AE"/>
<path d="M19.3028 28.1436C19.3028 27.8332 19.6144 27.5227 19.926 27.5227H22.5747C22.8863 27.5227 23.198 27.8332 23.198 28.1436V28.4541H19.147V28.1436H19.3028Z" fill="#FFB6AE"/>
<path d="M38.4665 30.4724H17.7441V29.8514C17.7441 29.5409 18.0558 29.2305 18.3674 29.2305H18.9906H23.6648H25.6903H30.3645H32.39H37.0643H37.6875C37.9991 29.2305 38.3107 29.5409 38.3107 29.8514V30.4724H38.4665Z" fill="#FFB6AE"/>
<path d="M23.9766 13.0859H24.5998C24.9114 13.0859 25.0672 13.0859 25.223 13.2412C25.3788 13.3964 25.3788 13.3964 25.3788 13.7069C25.3788 13.8621 25.3788 13.8621 25.223 14.0173C25.223 14.1726 25.0672 14.1726 25.0672 14.1726C25.223 14.1726 25.223 14.3278 25.3788 14.3278C25.3788 14.483 25.5346 14.483 25.5346 14.6383C25.5346 14.7935 25.5346 14.9488 25.3788 15.104C25.223 15.2592 25.0672 15.2592 24.7556 15.2592H23.9766V13.0859ZM24.444 13.8621H24.7556C24.9114 13.8621 24.9114 13.8621 25.0672 13.8621L25.223 13.7069C25.223 13.5516 25.223 13.5516 25.0672 13.5516C25.0672 13.5516 24.9114 13.5516 24.7556 13.5516H24.5998V13.8621H24.444ZM24.444 14.1726V14.6383H24.7556C24.9114 14.6383 24.9114 14.6383 25.0672 14.6383L25.223 14.4831C25.223 14.3278 25.0672 14.1726 24.9114 14.1726H24.444Z" fill="white"/>
<path d="M27.2485 15.1042L27.0927 14.6385H26.3137L26.1579 15.1042H25.6904L26.4695 12.9309H26.9369L27.7159 14.949H27.2485V15.1042ZM26.9369 14.1728C26.7811 13.7071 26.7811 13.5518 26.7811 13.3966V13.2414C26.7811 13.3966 26.6253 13.7071 26.4695 14.1728H26.9369Z" fill="white"/>
<path d="M29.7413 15.104H29.118L28.1832 13.5516C28.1832 13.8621 28.1832 14.0173 28.1832 14.1726V15.104H27.8716V13.0859H28.4948L29.4297 14.6383C29.4297 14.3278 29.4297 14.1726 29.4297 14.0173V13.0859H29.8971V15.104H29.7413Z" fill="white"/>
<path d="M31.9223 15.104H31.4549L30.9875 14.1726L30.8317 14.3278V15.104H30.3643V13.0859H30.8317V14.0173L30.9875 13.7069L31.6107 13.0859H32.0781L31.1433 13.8621L31.9223 15.104Z" fill="white"/>
</svg>
