<svg width="43" height="42" viewBox="0 0 43 42" fill="none" xmlns="http://www.w3.org/2000/svg">
<path d="M35.6006 6.34426H29.3017L29.5124 6.07377L22.2066 0.122951C22.1129 0.0491803 21.9725 0 21.8554 0H18.6006C18.3664 0 18.1791 0.122951 18.0854 0.344262C17.9917 0.565574 18.0152 0.811475 18.1322 0.983607L21.27 5.26229L22.2066 4.5L19.7948 1.22951H21.6446L27.9201 6.34426H18.5537L12.6763 0.885246C12.5592 0.786885 12.4421 0.737705 12.2782 0.737705H9.5854C9.37466 0.737705 9.18733 0.860656 9.09366 1.03279C8.97658 1.22951 8.97658 1.45082 9.07025 1.64754L11.4821 6.34426H9.5854C9.25758 6.34426 9 6.61475 9 6.95902V9.81148C9 10.0574 9.1405 10.3033 9.37466 10.377C9.67906 10.5 16.7741 13.3525 18.9518 13.3525H23.0262L18.1322 20.0164C17.9917 20.2131 17.9683 20.459 18.062 20.6557C18.1556 20.877 18.3664 21 18.5771 21H21.8085C21.949 21 22.0661 20.9508 22.1598 20.877L31.3623 13.377H39.4408C40.8691 13.377 42.9532 12.5164 42.9532 10.6721C43 8.63115 39.0661 6.34426 35.6006 6.34426ZM39.4876 12.1475H31.2218C31.0813 12.1475 30.9642 12.1967 30.8705 12.2705L21.6446 19.7705H19.7948L24.6653 13.1311C24.8292 12.9098 24.8292 12.5902 24.6419 12.3689C24.5248 12.2213 24.3375 12.1475 24.1736 12.1475H18.9518C17.4063 12.1475 12.3953 10.2787 10.1708 9.39344V7.57377H12.4656C12.6763 7.57377 12.8636 7.45082 12.9573 7.27869C13.0744 7.08197 13.0744 6.86066 12.9807 6.66393L10.5689 1.96721H12.0909L17.9683 7.42623C18.0854 7.52459 18.2025 7.57377 18.3664 7.57377H35.624C38.8554 7.57377 41.876 9.68852 41.876 10.6475C41.8292 11.582 40.4711 12.1475 39.4876 12.1475Z" fill="#FF713C"/>
<path d="M20.5 33.0926C19.7501 32.611 18.75 32.3704 18 32.1296C17.5001 31.8889 17.2501 31.8889 16.7501 31.8889C16.25 31.6481 15.75 31.6481 15.2501 31.6481C14.7501 30.9259 14.5001 30.4445 14.5001 29.7222C15.5 29 16.5 27.5556 17.0001 26.1111C17.2501 26.1111 17.5001 26.1111 17.5001 25.8703C18 25.6295 18.25 24.9074 18.25 24.426C18.25 23.9444 18.25 23.463 18 23.2222C18 22.7407 18.25 22.2593 18.25 21.7777C18.25 18.1667 15.5 16 11.5 16C7.49996 16 4.74999 18.4074 4.74999 21.7777C4.74999 22.2593 4.74999 22.7407 4.99997 23.2222C4.50001 23.463 4.50001 23.9444 4.50001 24.426C4.50001 25.1481 4.74999 25.6295 5.24996 25.8703C5.49994 26.1111 5.75007 26.1111 5.75007 26.1111C6.25004 27.5556 6.99999 28.7592 8.25006 29.7222C8.00008 30.4445 7.74995 30.9259 7.24998 31.4074C6.50003 31.6481 6.00006 31.6481 6.00006 31.6481C5.75007 31.6481 5.24996 31.8889 4.74999 31.8889C3.75005 32.1296 2.99996 32.611 2.25 32.8518C0.749952 33.574 0 35.0185 0 36.4629V37.6666C0 38.6296 0.499968 39.5925 1.50005 40.0741C3.24994 41.037 6.50003 42 11.5 42C16.5 42 19.5001 41.037 21.5001 40.0741C22.5 39.5925 23 38.6296 23 37.6666V36.4629C22.75 35.0185 21.7501 33.8148 20.5 33.0926Z" fill="#FF713C"/>
<path d="M6.93624 25.5001C6.93624 25.5001 6.93624 25.25 6.70221 25.25H6.46819C6.46819 25.25 6.46819 25.25 6.23416 25.25C6.23416 25.25 6 24.7499 6 24.25C6 23.5001 6.23416 23 6.46819 23C6.70221 23 6.70221 23 6.93624 23C6.93624 23 6.93624 23 7.17026 23C7.40429 23 7.40429 23 7.40429 23C7.40429 23 7.40429 23 7.40429 22.75C7.40429 22.75 7.63831 22 7.63831 21.5001C7.87234 21.5001 8.10636 21.5001 8.34053 21.5001C9.51065 21.5001 11.149 21.25 12.5532 20C13.0213 20.5001 13.7234 21.25 15.1277 21.5001C15.3617 22 15.3617 22.75 15.3617 22.75C15.3617 23 15.3617 23 15.5957 23H15.8297C15.8297 23 15.8297 23 16.0638 23C16.0638 23 16.2978 22.75 16.5318 23C16.766 23 17 23.5001 17 24.25C17 24.7499 16.766 25.25 16.5318 25.25C16.5318 25.25 16.5318 25.25 16.2978 25.25H16.0638L15.8297 25.5001C15.3617 27 14.6596 28.5 13.7234 29.25C12.3191 30.25 10.6809 30.25 9.27662 29.25C8.10636 28.5 7.40429 27.25 6.93624 25.5001Z" fill="white"/>
<path d="M9.71995 30C10.44 30.4637 11.16 30.6956 11.8799 30.6956C12.6 30.6956 13.32 30.4637 14.0399 30.2319C14.2801 30.6956 14.76 31.1595 15 31.6232C14.76 32.087 14.0399 32.7827 13.32 33.4783C12.6 34.1739 11.4 34.1739 10.68 33.4783C9.71995 32.7827 9 32.087 9 31.6232C9.23998 31.1595 9.47997 30.6956 9.71995 30Z" fill="white"/>
</svg>
