<svg width="40" height="40" viewBox="0 0 40 40" fill="none" xmlns="http://www.w3.org/2000/svg">
<mask id="mask0" mask-type="alpha" maskUnits="userSpaceOnUse" x="0" y="0" width="40" height="40">
<path fill-rule="evenodd" clip-rule="evenodd" d="M0 0.119141H39.9811V39.9996H0V0.119141Z" fill="white"/>
</mask>
<g mask="url(#mask0)">
<path fill-rule="evenodd" clip-rule="evenodd" d="M7.37741 31.8166C14.5345 39.522 26.5235 38.714 32.6298 31.7947C25.8367 24.6228 14.3786 24.4706 7.37741 31.8166ZM5.68676 29.7167C9.65525 25.7961 14.4315 23.7193 20.0219 23.7232C25.6043 23.727 30.375 25.8096 34.3367 29.7276C39.0423 22.948 38.366 12.8723 31.1217 6.80202C24.4275 1.19256 14.2741 1.28589 7.72863 7.86295C1.02763 14.5966 1.64014 24.072 5.68676 29.7167ZM20.0125 39.9996C8.82403 39.9097 -0.00258936 31.0115 5.6981e-07 19.9961C0.00244661 9.26725 8.69698 0.0757108 20.0993 0.119295C31.0076 0.161015 40.0506 8.96388 39.9807 20.1775C39.9135 30.9508 31.2951 39.8806 20.0125 39.9996Z" fill="#3F4342"/>
</g>
<path fill-rule="evenodd" clip-rule="evenodd" d="M20.3985 19.3052C23.4356 19.3049 25.843 16.8975 25.8454 13.8587C25.8477 10.8476 23.4385 8.44169 20.4166 8.43699C17.3765 8.43243 14.9694 10.837 14.9704 13.8772C14.9713 16.8914 17.3856 19.3056 20.3985 19.3052ZM20.4016 22.0403C15.8801 22.0299 12.2333 18.3585 12.2447 13.8287C12.2557 9.34954 15.9211 5.70814 20.4129 5.71387C24.924 5.7196 28.5907 9.38833 28.571 13.8769C28.5513 18.3967 24.8945 22.0508 20.4016 22.0403Z" fill="#3F4342"/>
</svg>
