<svg width="42" height="34" viewBox="0 0 42 34" fill="none" xmlns="http://www.w3.org/2000/svg">
<g clip-path="url(#clip0)">
<path fill-rule="evenodd" clip-rule="evenodd" d="M3.40259 1.67325C2.46074 1.67325 1.64816 2.49811 1.64816 3.4542V30.6542C1.64816 31.6103 2.46074 32.4352 3.40259 32.4352H19.4583C20.5278 32.4352 21.319 31.5889 21.319 30.6542V3.4542C21.319 2.49811 20.5065 1.67325 19.5646 1.67325H3.40259ZM0.0532227 3.4542C0.0532227 1.60394 1.57988 0.0541992 3.40259 0.0541992H19.5646C21.3873 0.0541992 22.914 1.60394 22.914 3.4542V30.6542C22.914 32.5258 21.366 34.0542 19.4583 34.0542H3.40259C1.57988 34.0542 0.0532227 32.5045 0.0532227 30.6542V3.4542Z" fill="#FF713C"/>
<path fill-rule="evenodd" clip-rule="evenodd" d="M6.43311 26.7685C6.43311 26.3214 6.79014 25.959 7.23057 25.959H15.7369C16.1773 25.959 16.5344 26.3214 16.5344 26.7685C16.5344 27.2156 16.1773 27.578 15.7369 27.578H7.23057C6.79014 27.578 6.43311 27.2156 6.43311 26.7685Z" fill="#FF713C"/>
<path fill-rule="evenodd" clip-rule="evenodd" d="M8.55957 23.5302C8.55957 23.0831 8.91661 22.7207 9.35704 22.7207H13.6102C14.0506 22.7207 14.4077 23.0831 14.4077 23.5302C14.4077 23.9773 14.0506 24.3398 13.6102 24.3398H9.35704C8.91661 24.3398 8.55957 23.9773 8.55957 23.5302Z" fill="#FF713C"/>
<path fill-rule="evenodd" clip-rule="evenodd" d="M3.24316 4.102C3.24316 3.65492 3.6002 3.29248 4.04063 3.29248H18.9267C19.3671 3.29248 19.7242 3.65492 19.7242 4.102C19.7242 4.54909 19.3671 4.91153 18.9267 4.91153H4.04063C3.6002 4.91153 3.24316 4.54909 3.24316 4.102Z" fill="#FF713C"/>
<path fill-rule="evenodd" clip-rule="evenodd" d="M25.5724 21.3715C25.5724 20.9244 25.9294 20.562 26.3699 20.562H37.0028C37.3381 20.562 37.6376 20.775 37.7522 21.0949L42.0054 32.9679C42.0943 33.2161 42.0584 33.4927 41.9091 33.709C41.7599 33.9253 41.5161 34.0541 41.2559 34.0541H24.2433C23.8028 34.0541 23.4458 33.6916 23.4458 33.2446C23.4458 32.7975 23.8028 32.435 24.2433 32.435H40.1174L36.4442 22.1811H26.3699C25.9294 22.1811 25.5724 21.8186 25.5724 21.3715Z" fill="#FF713C"/>
<path fill-rule="evenodd" clip-rule="evenodd" d="M25.5723 24.6098C25.5723 24.1627 25.9293 23.8003 26.3697 23.8003H34.8761C35.3165 23.8003 35.6735 24.1627 35.6735 24.6098C35.6735 25.0569 35.3165 25.4193 34.8761 25.4193H26.3697C25.9293 25.4193 25.5723 25.0569 25.5723 24.6098Z" fill="#FF713C"/>
<path d="M11.6962 20.508C15.2296 20.508 18.0759 17.6187 18.0759 14.0319C18.0759 10.445 15.2296 7.55566 11.6962 7.55566C8.16275 7.55566 5.31641 10.445 5.31641 14.0319C5.31641 17.6187 8.16275 20.508 11.6962 20.508Z" fill="#FF713C"/>
<path d="M10.6814 15.9998L9.87137 14.8298H9.82337H8.97737V15.9998H8.00537V11.7998H9.82337C10.1954 11.7998 10.5174 11.8618 10.7894 11.9858C11.0654 12.1098 11.2774 12.2858 11.4254 12.5138C11.5734 12.7418 11.6474 13.0118 11.6474 13.3238C11.6474 13.6358 11.5714 13.9058 11.4194 14.1338C11.2714 14.3578 11.0594 14.5298 10.7834 14.6498L11.7254 15.9998H10.6814ZM10.6634 13.3238C10.6634 13.0878 10.5874 12.9078 10.4354 12.7838C10.2834 12.6558 10.0614 12.5918 9.76937 12.5918H8.97737V14.0558H9.76937C10.0614 14.0558 10.2834 13.9918 10.4354 13.8638C10.5874 13.7358 10.6634 13.5558 10.6634 13.3238Z" fill="white"/>
<path d="M14.2595 12.7238C14.5595 12.7238 14.8315 12.7938 15.0755 12.9338C15.3235 13.0698 15.5175 13.2638 15.6575 13.5158C15.7975 13.7638 15.8675 14.0538 15.8675 14.3858C15.8675 14.7178 15.7975 15.0098 15.6575 15.2618C15.5175 15.5098 15.3235 15.7038 15.0755 15.8438C14.8315 15.9798 14.5595 16.0478 14.2595 16.0478C13.8475 16.0478 13.5235 15.9178 13.2875 15.6578V17.1638H12.3515V12.7718H13.2455V13.1438C13.4775 12.8638 13.8155 12.7238 14.2595 12.7238ZM14.0975 15.2798C14.3375 15.2798 14.5335 15.1998 14.6855 15.0398C14.8415 14.8758 14.9195 14.6578 14.9195 14.3858C14.9195 14.1138 14.8415 13.8978 14.6855 13.7378C14.5335 13.5738 14.3375 13.4918 14.0975 13.4918C13.8575 13.4918 13.6595 13.5738 13.5035 13.7378C13.3515 13.8978 13.2755 14.1138 13.2755 14.3858C13.2755 14.6578 13.3515 14.8758 13.5035 15.0398C13.6595 15.1998 13.8575 15.2798 14.0975 15.2798Z" fill="white"/>
</g>
<defs>
<clipPath id="clip0">
<rect width="42" height="34" fill="white"/>
</clipPath>
</defs>
</svg>
