<svg width="32" height="37" viewBox="0 0 32 37" fill="none" xmlns="http://www.w3.org/2000/svg">
<g clip-path="url(#clip0)">
<path fill-rule="evenodd" clip-rule="evenodd" d="M5.10997 21.7152C5.98669 20.8384 7.33027 20.8384 8.20698 21.7152L13.9026 27.4108C14.0154 27.5236 14.0788 27.6766 14.0788 27.8362V32.6494C14.0788 32.9817 13.8094 33.251 13.4772 33.251C13.1449 33.251 12.8755 32.9817 12.8755 32.6494V28.0854L7.35612 22.566C6.94932 22.1592 6.36763 22.1592 5.96083 22.566L5.80039 22.7265C5.80039 22.7265 5.80039 22.7265 5.80039 22.7265C5.39359 23.1333 5.39359 23.7149 5.80039 24.1217L9.4905 27.8119C9.72546 28.0468 9.72546 28.4278 9.4905 28.6627C9.25554 28.8977 8.8746 28.8977 8.63964 28.6627L4.94953 24.9726C4.07281 24.0959 4.07281 22.7523 4.94953 21.8756L5.10997 21.7152C5.10997 21.7152 5.10997 21.7152 5.10997 21.7152Z" fill="#FF713C"/>
<path fill-rule="evenodd" clip-rule="evenodd" d="M0.0400391 13.3965C0.0400391 12.1818 1.03138 11.1904 2.24608 11.1904C3.46078 11.1904 4.45213 12.1818 4.45213 13.3965V20.6163C4.45213 20.9485 4.18276 21.2179 3.85048 21.2179C3.5182 21.2179 3.24883 20.9485 3.24883 20.6163V13.3965C3.24883 12.8463 2.79622 12.3937 2.24608 12.3937C1.69595 12.3937 1.24334 12.8463 1.24334 13.3965V22.4613C1.24334 24.236 1.90812 25.9252 3.15283 27.1699L7.4847 31.5018C7.59753 31.6146 7.66092 31.7677 7.66092 31.9272V32.7294C7.66092 33.0617 7.39155 33.3311 7.05927 33.3311C6.72699 33.3311 6.45762 33.0617 6.45762 32.7294V32.1765L2.30197 28.0208C0.819212 26.538 0.0400391 24.5372 0.0400391 22.4613V13.3965Z" fill="#FF713C"/>
<path d="M25.8065 22.566C25.3997 22.1592 24.818 22.1592 24.4112 22.566L18.8918 28.0854V32.6494C18.8918 32.9817 18.6224 33.251 18.2901 33.251C17.9578 33.251 17.6885 32.9817 17.6885 32.6494V27.8362C17.6885 27.6766 17.7519 27.5236 17.8647 27.4108L23.5603 21.7152C24.437 20.8384 25.7806 20.8384 26.6573 21.7152L25.8065 22.566Z" fill="#FF713C"/>
<path fill-rule="evenodd" clip-rule="evenodd" d="M29.5208 12.3937C28.9707 12.3937 28.518 12.8463 28.518 13.3965V20.6163C28.518 20.9485 28.2487 21.2179 27.9164 21.2179C27.5841 21.2179 27.3147 20.9485 27.3147 20.6163V13.3965C27.3147 12.1818 28.3061 11.1904 29.5208 11.1904C30.7355 11.1904 31.7268 12.1818 31.7268 13.3965V22.4613C31.7268 24.5372 30.9477 26.538 29.4649 28.0208L25.3093 32.1765V32.7294C25.3093 33.0617 25.0399 33.3311 24.7076 33.3311C24.3753 33.3311 24.106 33.0617 24.106 32.7294V31.9272C24.106 31.7677 24.1693 31.6146 24.2822 31.5018L28.614 27.1699C29.8588 25.9252 30.5235 24.236 30.5235 22.4613V13.3965C30.5235 12.8463 30.0709 12.3937 29.5208 12.3937Z" fill="#FF713C"/>
<path fill-rule="evenodd" clip-rule="evenodd" d="M5.65527 34.254C5.65527 33.9217 5.92464 33.6523 6.25692 33.6523H14.2789C14.6112 33.6523 14.8805 33.9217 14.8805 34.254V35.8584C14.8805 36.1907 14.6112 36.46 14.2789 36.46C13.9466 36.46 13.6773 36.1907 13.6773 35.8584V34.8556H6.85857V35.8584C6.85857 36.1907 6.5892 36.46 6.25692 36.46C5.92464 36.46 5.65527 36.1907 5.65527 35.8584V34.254Z" fill="#FF713C"/>
<path fill-rule="evenodd" clip-rule="evenodd" d="M16.8862 34.254C16.8862 33.9217 17.1556 33.6523 17.4879 33.6523H25.5099C25.8421 33.6523 26.1115 33.9217 26.1115 34.254V35.8584C26.1115 36.1907 25.8421 36.46 25.5099 36.46C25.1776 36.46 24.9082 36.1907 24.9082 35.8584V34.8556H18.0895V35.8584C18.0895 36.1907 17.8202 36.46 17.4879 36.46C17.1556 36.46 16.8862 36.1907 16.8862 35.8584V34.254Z" fill="#FF713C"/>
<path d="M21.5792 20.0549H10.1078C9.86712 20.0549 9.62646 19.8945 9.62646 19.6538V17.0868C9.62646 15.4824 10.188 13.878 11.3111 12.5945L12.5946 11.0703C12.8353 10.7495 12.9155 10.4286 12.9155 10.1077C12.9155 9.78681 12.755 9.46593 12.5946 9.14505L11.3111 7.62088C10.188 6.17692 9.62646 4.65275 9.62646 2.96813V0.401099C9.62646 0.16044 9.86712 0 10.1078 0H21.5792C21.8199 0 22.0605 0.16044 22.0605 0.401099V2.96813C22.0605 4.57253 21.499 6.17692 20.3759 7.46044L19.0924 8.98462C18.8517 9.30549 18.7715 9.62637 18.7715 9.94725C18.7715 10.2681 18.932 10.589 19.0924 10.9099L20.3759 12.4341C21.499 13.7978 22.0605 15.322 22.0605 16.9264V19.4934C22.0605 19.8945 21.8199 20.0549 21.5792 20.0549ZM10.5891 19.2527H21.0979V17.0868C21.0979 15.6429 20.6166 14.1989 19.5737 12.9956L18.2902 11.4714C17.9693 11.0703 17.8089 10.589 17.8089 10.0275C17.8089 9.54615 17.9693 9.06484 18.2902 8.58352L19.5737 7.05934C20.5364 5.85604 21.0979 4.41209 21.0979 2.96813V0.802198H10.5891V2.96813C10.5891 4.41209 11.0704 5.85604 12.1133 7.05934L13.3968 8.58352C13.7177 8.98462 13.8781 9.46593 13.8781 10.0275C13.8781 10.5088 13.7177 10.9901 13.3968 11.4714L12.1133 12.9956C11.1506 14.1989 10.5891 15.6429 10.5891 17.0868V19.2527Z" fill="#FF713C"/>
<path d="M10.5893 19.2528C10.5893 19.2528 9.94752 16.766 9.78708 16.5253C9.62664 16.3649 9.70686 16.1242 9.94752 15.9638C10.0277 15.8836 12.3541 14.8407 15.964 15.6429C19.0926 16.3649 21.0981 15.4023 21.0981 15.4023C21.3387 15.322 21.6596 15.322 21.7398 15.5627C21.9003 15.7231 21.0179 19.0121 21.0179 19.2528C21.0981 19.2528 11.5519 19.4935 10.5893 19.2528Z" fill="#FF713C"/>
<path d="M10.5889 5.53516H20.5361C20.5361 5.53516 20.2955 7.62087 19.3328 8.18241C18.3702 8.66373 15.8032 11.2308 13.3163 8.66373L10.5889 5.53516Z" fill="#FF713C"/>
</g>
<defs>
<clipPath id="clip0">
<rect width="31.6868" height="36.5" fill="white"/>
</clipPath>
</defs>
</svg>
