<svg width="32" height="35" viewBox="0 0 32 35" fill="none" xmlns="http://www.w3.org/2000/svg">
<path fill-rule="evenodd" clip-rule="evenodd" d="M0 32.7307C0 32.4121 0.30526 32.1538 0.681818 32.1538H31.1364C31.5129 32.1538 31.8182 32.4121 31.8182 32.7307C31.8182 33.0494 31.5129 33.3077 31.1364 33.3077H0.681818C0.30526 33.3077 0 33.0494 0 32.7307Z" fill="#FF713C"/>
<path fill-rule="evenodd" clip-rule="evenodd" d="M0 34.4231C0 34.1045 0.30526 33.8462 0.681818 33.8462H31.1364C31.5129 33.8462 31.8182 34.1045 31.8182 34.4231C31.8182 34.7417 31.5129 35 31.1364 35H0.681818C0.30526 35 0 34.7417 0 34.4231Z" fill="#FF713C"/>
<path fill-rule="evenodd" clip-rule="evenodd" d="M6.72754 16.6152H3.09118V28.7691H6.72754V16.6152ZM1.72754 14.6152V30.7691H8.09118V14.6152H1.72754Z" fill="#FF713C"/>
<path fill-rule="evenodd" clip-rule="evenodd" d="M14 13.5386H10.3636V28.7693H14V13.5386ZM9 11.5386V30.7693H15.3636V11.5386H9Z" fill="#FF713C"/>
<path fill-rule="evenodd" clip-rule="evenodd" d="M21.2725 8.92285H17.6361V28.769H21.2725V8.92285ZM16.2725 6.92285V30.769H22.6361V6.92285H16.2725Z" fill="#FF713C"/>
<path fill-rule="evenodd" clip-rule="evenodd" d="M29.4546 5.84619H25.8182V28.7693H29.4546V5.84619ZM24.4546 3.84619V30.7693H30.8182V3.84619H24.4546Z" fill="#FF713C"/>
<path d="M29.0002 1.365C29.0002 2.11887 28.3897 2.73 27.6366 2.73C26.8835 2.73 26.2729 2.11887 26.2729 1.365C26.2729 0.611131 26.8835 0 27.6366 0C28.3897 0 29.0002 0.611131 29.0002 1.365Z" fill="#FF713C"/>
<path fill-rule="evenodd" clip-rule="evenodd" d="M28.0802 1.07031C28.1347 1.27766 27.9802 1.48312 27.7351 1.5292L19.6825 3.04336L12.5034 9.11801C12.4741 9.1428 12.4409 9.16408 12.4048 9.18127L5.13206 12.6428C4.91326 12.7469 4.63612 12.6813 4.51305 12.4961C4.38997 12.311 4.46757 12.0765 4.68637 11.9724L11.9047 8.53673L19.1333 2.42024C19.1944 2.36851 19.2717 2.33261 19.3561 2.31675L27.5379 0.778284C27.7829 0.732204 28.0258 0.862947 28.0802 1.07031Z" fill="#FF713C"/>
<path d="M20.8181 2.90357C20.8181 3.65744 20.2076 4.26857 19.4545 4.26857C18.7013 4.26857 18.0908 3.65744 18.0908 2.90357C18.0908 2.14971 18.7013 1.53857 19.4545 1.53857C20.2076 1.53857 20.8181 2.14971 20.8181 2.90357Z" fill="#FF713C"/>
<path d="M13.5456 9.05738C13.5456 9.81125 12.9351 10.4224 12.182 10.4224C11.4289 10.4224 10.8184 9.81125 10.8184 9.05738C10.8184 8.30351 11.4289 7.69238 12.182 7.69238C12.9351 7.69238 13.5456 8.30351 13.5456 9.05738Z" fill="#FF713C"/>
</svg>
