<svg width="42" height="28" viewBox="0 0 42 28" fill="none" xmlns="http://www.w3.org/2000/svg">
<path d="M36.1247 0.539062H31.9134H23.8028H22.0871H18.6556H16.94H5.086C2.7464 0.539062 0.874721 2.21399 0.71875 4.34572V23.6835C0.874721 25.8152 2.7464 27.3379 4.77406 27.4901H36.2806C38.6202 27.3379 40.4919 25.5107 40.4919 23.2267V4.80251C40.4919 2.51852 38.4643 0.539062 36.1247 0.539062Z" fill="white"/>
<path fill-rule="evenodd" clip-rule="evenodd" d="M0.210344 4.30866C0.38768 1.88492 2.50576 0.0292969 5.08615 0.0292969H36.1248C38.7344 0.0292969 41.0019 2.22556 41.0019 4.80266V23.2268C41.0019 25.8088 38.8916 27.8314 36.3139 27.9991L36.2973 28.0002H4.75509L4.73603 27.9987C2.50632 27.8314 0.388171 26.1513 0.210344 23.7209L0.208984 23.7023V4.32723L0.210344 4.30866ZM1.22881 4.36515V23.6644C1.37168 25.4821 2.98175 26.836 4.79386 26.9803H36.2637C38.3575 26.8364 39.9821 25.2079 39.9821 23.2268V4.80266C39.9821 2.81177 38.1944 1.04912 36.1248 1.04912H5.08615C2.99416 1.04912 1.37262 2.53365 1.22881 4.36515Z" fill="#FF713C"/>
<path d="M38.7763 7.23877H2.43457V12.1113H38.7763V7.23877Z" fill="#FF713C"/>
<path d="M38.7763 5.56372H2.43457V4.8024C2.43457 3.432 3.68235 2.21387 5.08611 2.21387H36.1247C37.5285 2.21387 38.7763 3.27973 38.7763 4.8024V5.56372Z" fill="#FF713C"/>
<path d="M36.2738 9.88135H31.5732C31.3301 9.88135 31.168 10.065 31.168 10.3406C31.168 10.6162 31.3301 10.7999 31.5732 10.7999H36.2738C36.5169 10.7999 36.679 10.6162 36.679 10.3406C36.679 10.065 36.4359 9.88135 36.2738 9.88135Z" fill="white"/>
<path d="M36.2395 12.6367H28.8523C28.5885 12.6367 28.4126 12.8204 28.4126 13.096C28.4126 13.3715 28.5885 13.5552 28.8523 13.5552H36.2395C36.5033 13.5552 36.6792 13.3715 36.6792 13.096C36.6792 12.8204 36.4154 12.6367 36.2395 12.6367Z" fill="white"/>
<path d="M29.6918 16L26.6618 23H25.0618L22.0418 16H23.7918L25.9218 21L28.0818 16H29.6918ZM34.6519 21.5H31.4019L30.7819 23H29.1219L32.2419 16H33.8419L36.9719 23H35.2719L34.6519 21.5ZM34.1419 20.27L33.0319 17.59L31.9219 20.27H34.1419Z" fill="#FF713C"/>
</svg>
