<svg width="35" height="35" viewBox="0 0 35 35" fill="none" xmlns="http://www.w3.org/2000/svg">
<mask id="mask0" mask-type="alpha" maskUnits="userSpaceOnUse" x="0" y="0" width="35" height="25">
<path fill-rule="evenodd" clip-rule="evenodd" d="M0 0.120117H34.8578V24.7525H0V0.120117Z" fill="white"/>
</mask>
<g mask="url(#mask0)">
<path fill-rule="evenodd" clip-rule="evenodd" d="M30.509 16.5692H25.5976V22.3924C26.7796 22.3924 27.9365 22.3968 29.0933 22.3828C29.1724 22.3821 29.3025 22.2589 29.3211 22.1733C29.7222 20.3181 30.1108 18.4604 30.509 16.5692ZM10.2367 16.5545C10.2367 16.6446 10.2213 16.7361 10.2388 16.8207C10.6074 18.5972 10.9826 20.3718 11.3465 22.1494C11.3869 22.3464 11.47 22.3979 11.6593 22.3964C12.7435 22.3883 13.8282 22.3924 14.9124 22.3916C14.9719 22.3913 15.0309 22.3813 15.0936 22.3755V16.5545H10.2367ZM17.447 22.374H23.2228V16.5633H17.447V22.374ZM17.454 14.1733H23.2195V8.35634H17.454V14.1733ZM9.67484 14.1585H15.0984V8.35487H8.46478C8.87202 10.3085 9.27379 12.2347 9.67484 14.1585ZM31.0216 14.1674C31.4357 12.2299 31.8481 10.2997 32.2644 8.35046H25.59V14.1674H31.0216ZM4.85359 2.48061H3.0901C2.47432 2.48061 1.85853 2.49347 1.24312 2.47693C0.346972 2.45303 -0.199174 1.72252 0.0680653 0.922518C0.214628 0.483915 0.524888 0.22546 0.974419 0.154136C1.17932 0.121415 1.39041 0.122518 1.59859 0.122151C2.93442 0.119577 4.27025 0.119577 5.60609 0.121415C6.42202 0.122518 6.81359 0.44568 6.98129 1.24531C7.28791 2.70634 7.60655 4.16553 7.89239 5.63097C7.95327 5.94274 8.07978 6.00009 8.36525 5.99972C16.7146 5.99237 25.0639 5.99347 33.4132 5.99642C33.6305 5.99642 33.8591 5.99458 34.0625 6.05855C34.6667 6.24825 34.9634 6.81884 34.8238 7.49053C34.5948 8.5909 34.3549 9.68906 34.1212 10.7887C33.2123 15.0633 32.3027 19.3376 31.396 23.613C31.2283 24.4045 30.8287 24.7508 30.0281 24.7508C23.5888 24.753 17.1492 24.753 10.7095 24.7512C9.85931 24.7508 9.44952 24.4174 9.27999 23.6071C7.82895 16.674 6.37827 9.74053 4.92723 2.80744C4.90609 2.70597 4.88166 2.60524 4.85359 2.48061Z" fill="#FF713C"/>
</g>
<path fill-rule="evenodd" clip-rule="evenodd" d="M10.2554 30.4916C10.2713 31.7994 11.2454 32.7495 12.558 32.7386C13.7563 32.7284 14.7732 31.686 14.7502 30.4909C14.7266 29.24 13.7101 28.2343 12.4793 28.2446C11.2482 28.2548 10.2405 29.2724 10.2554 30.4916ZM8 30.4701C8.00318 28.0088 10.0404 25.9895 12.5104 26C14.993 26.0106 17.0095 28.0459 16.9999 30.5315C16.9908 32.9875 14.9309 35.0244 12.4811 34.9997C9.97371 34.975 7.99683 32.9762 8 30.4701Z" fill="#FF713C"/>
<mask id="mask1" mask-type="alpha" maskUnits="userSpaceOnUse" x="22" y="26" width="10" height="9">
<path fill-rule="evenodd" clip-rule="evenodd" d="M22.2051 26.1729H31.6603V34.9994H22.2051V26.1729Z" fill="white"/>
</mask>
<g mask="url(#mask1)">
<path fill-rule="evenodd" clip-rule="evenodd" d="M26.9229 32.7816C28.2259 32.7816 29.2862 31.8127 29.2944 30.6144C29.3029 29.3876 28.2218 28.3678 26.9203 28.3744C25.6518 28.3806 24.5692 29.3782 24.5688 30.541C24.5688 31.8051 25.594 32.7813 26.9229 32.7816ZM26.9325 34.9994C24.3151 35.0019 22.1933 33.0028 22.2051 30.5444C22.2162 28.1484 24.3433 26.1787 26.9259 26.1729C29.5199 26.167 31.6499 28.1587 31.6603 30.5995C31.6703 32.9987 29.5236 34.9967 26.9325 34.9994Z" fill="#FF713C"/>
</g>
</svg>
