<svg width="39" height="40" viewBox="0 0 39 40" fill="none" xmlns="http://www.w3.org/2000/svg">
<path d="M33.5755 28.5249C33.0144 27.4026 31.705 26.748 30.4892 27.1221L30.6763 27.5897L30.4892 27.1221C28.3381 27.7767 26.1871 28.4314 24.1295 29.1796C24.036 28.6185 23.7554 28.2444 23.3813 27.8703C22.9137 27.4026 22.3525 27.1221 21.6978 27.1221C20.7626 27.1221 19.7338 27.0285 18.705 27.1221C17.4892 27.2156 16.3669 26.935 15.2446 26.4674C14.2158 25.9998 13.187 25.7192 12.0647 25.3451L11.9712 25.8127L12.0647 25.3451C10.8489 24.971 9.53957 25.0645 8.32374 25.0645V25.5321V25.4386V25.0645C8.23022 25.0645 8.04316 25.0645 7.85611 25.0645C7.85611 24.971 7.85611 24.7839 7.85611 24.6904H7.38849H7.85611C7.85611 24.0357 7.66906 23.4746 7.20144 23.1005C6.82734 22.7264 6.17266 22.5393 5.51799 22.4458V22.9134V22.4458C4.39568 22.4458 3.36691 22.4458 2.2446 22.4458C2.05755 22.4458 1.8705 22.4458 1.68345 22.5393C1.1223 22.6329 0.748201 22.9134 0.467626 23.2875C0.18705 23.6616 0 24.2228 0 24.7839C0 28.5249 0 32.2659 0 36.007C0 36.1005 0 36.2875 0 36.3811C0.0935252 37.4098 0.935252 38.2516 2.05755 38.3451C3.27338 38.3451 4.48921 38.3451 5.79856 38.3451C6.92086 38.3451 7.76259 37.4098 7.85611 36.3811C7.85611 36.194 7.85611 36.007 7.85611 35.8199C8.41727 35.8199 8.88489 35.8199 9.35252 36.007C12.0647 36.9422 14.777 37.971 17.4892 38.9062C18.6115 39.2803 19.5468 39.1868 20.5755 38.6257C22.6331 37.4098 24.5971 36.2875 26.6547 35.1652C28.6187 34.0429 30.4892 33.0141 32.4532 31.8918C33.6691 31.0501 34.0432 29.6472 33.5755 28.5249ZM25.5324 33.6688L25.3453 33.2947C23.4748 34.417 21.5108 35.4458 19.6403 36.5681C19.1727 36.8487 18.7986 36.8487 18.3309 36.6616C15.7122 35.7264 13 34.7911 10.2878 33.7623C9.63309 33.4818 8.97842 33.3882 8.32374 33.3882V33.8559V33.3882C8.23022 33.3882 8.13669 33.3882 8.04316 33.3882V27.1221C9.63309 27.1221 11.1295 27.1221 12.6259 27.6832C13.8417 28.1508 14.964 28.5249 16.1799 28.9926C16.4604 29.0861 16.8345 29.1796 17.1151 29.1796C18.518 29.1796 19.9209 29.1796 21.3237 29.1796C21.5108 29.1796 21.6978 29.2731 21.7914 29.3667C21.8849 29.3667 21.8849 29.4602 21.8849 29.4602C21.8849 29.4602 21.8849 29.5537 21.8849 29.6472C21.8849 29.7408 21.7914 29.8343 21.6043 29.8343C21.5108 29.8343 21.5108 29.8343 21.3237 29.8343C19.8273 29.8343 18.2374 29.8343 16.741 29.8343C16.0863 29.8343 15.5252 29.9278 14.964 30.3019C14.4029 30.5825 14.0288 31.0501 13.7482 31.7048L14.1223 31.8918L14.0288 31.7983L13.7482 31.6113C13.5612 32.0789 13.4676 32.5465 13.4676 32.9206C13.3741 33.5753 13.9353 34.0429 14.4964 34.1365C15.0576 34.1365 15.5252 33.7623 15.6187 33.2012L15.2446 33.1077H15.1511L15.6187 33.2012C15.7122 32.64 15.8058 32.453 15.9928 32.3595C16.1799 32.2659 16.3669 32.1724 16.9281 32.1724C18.3309 32.1724 19.8273 32.1724 21.3237 32.1724C21.7914 32.1724 22.259 32.0789 22.7266 31.9854L22.6331 31.5177V31.6113L22.7266 31.9854C25.4388 31.1436 28.1511 30.3019 30.7698 29.4602C30.8633 29.4602 30.9568 29.3667 31.1439 29.3667C31.4245 29.2731 31.518 29.3667 31.6115 29.5537C31.705 29.7408 31.6115 29.9278 31.4245 30.0213C30.3957 30.5825 29.4604 31.1436 28.4317 31.7048C27.4029 32.2659 26.4676 32.8271 25.4388 33.3882L25.5324 33.6688ZM7.57554 27.2156V26.8415V27.2156ZM22.0719 28.9926L21.9784 29.0861L22.0719 28.9926ZM1.96403 35.9134H2.15108H1.96403ZM5.70504 24.5969C5.70504 24.5969 5.79856 24.6904 5.70504 24.5969C5.70504 26.5609 5.70504 28.4314 5.70504 30.2084C5.70504 32.0789 5.70504 33.8559 5.70504 35.7264C5.70504 35.8199 5.70504 35.8199 5.70504 35.9134C5.70504 35.9134 5.61151 35.9134 5.51799 35.9134C4.48921 35.9134 3.46043 35.9134 2.43165 35.9134C2.43165 32.1724 2.43165 28.4314 2.43165 24.6904C3.55396 24.5969 4.58273 24.5969 5.70504 24.5969L5.61151 24.2228V24.1293L5.70504 24.5969ZM0.654676 35.9134H0.467626H0.654676Z" fill="#FF713C"/>
<path d="M30.4893 27.1221L30.6763 27.4962L30.4893 27.1221Z" fill="#FF713C"/>
<path d="M16.187 24C20.6178 24 24.187 20.4308 24.187 16C24.187 11.5692 20.6178 8 16.187 8C11.7562 8 8.18701 11.5692 8.18701 16C8.18701 20.4308 11.7562 24 16.187 24Z" fill="#FF713C"/>
<path d="M31 16C35.4308 16 39 12.4308 39 8C39 3.56923 35.4308 0 31 0C26.5692 0 23 3.56923 23 8C23 12.4308 26.5692 16 31 16Z" fill="#FF713C"/>
<path d="M17.987 17.7027C18.187 17.9189 18.437 18.0811 18.787 18.0811C19.037 18.0811 19.287 18.027 19.487 17.9189C19.687 17.8108 19.837 17.5946 19.987 17.3784C20.087 17.1622 20.187 16.8919 20.187 16.5676C20.187 16.2432 20.137 16.027 19.987 15.7568C19.887 15.5405 19.687 15.3784 19.487 15.2162C19.287 15.1081 19.037 15 18.787 15C18.437 15 18.137 15.1081 17.937 15.3784V15.0541H17.187V19H17.987V17.7027V17.7027ZM18.187 15.973C18.337 15.8108 18.487 15.7568 18.687 15.7568C18.887 15.7568 19.037 15.8108 19.187 15.973C19.337 16.1351 19.387 16.2973 19.387 16.5676C19.387 16.8378 19.337 17 19.187 17.1622C19.037 17.3243 18.887 17.3784 18.687 17.3784C18.487 17.3784 18.337 17.3243 18.187 17.1622C18.037 17 17.987 16.8378 17.987 16.5676C17.987 16.2973 18.037 16.1351 18.187 15.973Z" fill="white"/>
<path d="M32.8 9.7027C33 9.91892 33.25 10.0811 33.6 10.0811C33.85 10.0811 34.1 10.027 34.3 9.91892C34.5 9.81081 34.65 9.5946 34.8 9.37838C34.9 9.16216 35 8.89189 35 8.56757C35 8.24324 34.95 8.02703 34.8 7.75676C34.7 7.54054 34.5 7.37838 34.3 7.21622C34.1 7.10811 33.85 7 33.6 7C33.25 7 32.95 7.10811 32.75 7.37838V7.05405H32V11H32.8V9.7027V9.7027ZM33 7.97297C33.15 7.81081 33.3 7.75676 33.5 7.75676C33.7 7.75676 33.85 7.81081 34 7.97297C34.15 8.13514 34.2 8.2973 34.2 8.56757C34.2 8.83784 34.15 9 34 9.16216C33.85 9.32432 33.7 9.37838 33.5 9.37838C33.3 9.37838 33.15 9.32432 33 9.16216C32.85 9 32.8 8.83784 32.8 8.56757C32.8 8.2973 32.85 8.13514 33 7.97297Z" fill="white"/>
<path d="M13.1706 16.8732H14.0887H14.1542L15.0723 18H16.187L15.2034 16.7042C15.5313 16.5915 15.728 16.4225 15.9247 16.1972C16.1214 15.9718 16.187 15.7465 16.187 15.4085C16.187 15.1268 16.1214 14.8451 15.9247 14.6761C15.728 14.507 15.5313 14.2817 15.2034 14.169C14.8755 14.0563 14.5477 14 14.1542 14H12.187V17.9437H13.2362V16.8732H13.1706ZM13.1706 14.7324H14.0231C14.3509 14.7324 14.6132 14.7887 14.7444 14.9014C14.9411 15.0141 15.0067 15.1831 15.0067 15.4085C15.0067 15.6338 14.9411 15.8028 14.7444 15.9155C14.5477 16.0282 14.3509 16.0845 14.0231 16.0845H13.1706V14.7324Z" fill="white"/>
<path d="M27.9836 8.87324H28.9016H28.9672L29.8852 10H31L30.0164 8.70423C30.3443 8.59155 30.541 8.42253 30.7377 8.19718C30.9344 7.97183 31 7.74648 31 7.40845C31 7.12676 30.9344 6.84507 30.7377 6.67606C30.541 6.50704 30.3443 6.28169 30.0164 6.16901C29.6885 6.05634 29.3607 6 28.9672 6H27V9.94366H28.0492V8.87324H27.9836ZM27.9836 6.73239H28.8361C29.1639 6.73239 29.4262 6.78873 29.5574 6.90141C29.7541 7.01408 29.8197 7.1831 29.8197 7.40845C29.8197 7.6338 29.7541 7.80282 29.5574 7.91549C29.3607 8.02817 29.1639 8.08451 28.8361 8.08451H27.9836V6.73239Z" fill="white"/>
</svg>
