<svg width="42" height="49" viewBox="0 0 42 49" fill="none" xmlns="http://www.w3.org/2000/svg">
<path d="M12.6161 29.0379V29.2472H9.98779V29.0379C9.98779 28.8285 10.1981 28.6191 10.4083 28.6191H12.0905C12.4059 28.6191 12.6161 28.8285 12.6161 29.0379Z" fill="#FF713C"/>
<path d="M3.36462 22.6528H2.10303V28.2009H3.36462V22.6528Z" fill="#FF713C"/>
<path d="M7.67468 22.6528H6.41309V28.2009H7.67468V22.6528Z" fill="#FF713C"/>
<path d="M7.88537 22.234H6.20325C5.99298 22.234 5.78271 22.0247 5.78271 21.8153V21.606H8.30591V21.8153C8.30591 22.0247 8.09564 22.234 7.88537 22.234Z" fill="#FF713C"/>
<path d="M5.78271 29.0379C5.78271 28.8285 5.99298 28.6191 6.20325 28.6191H7.88537C8.09564 28.6191 8.30591 28.8285 8.30591 29.0379V29.2472H5.78271V29.0379Z" fill="#FF713C"/>
<path d="M11.9857 22.6528H10.7241V28.2009H11.9857V22.6528Z" fill="#FF713C"/>
<path d="M12.6161 21.8153C12.6161 22.0247 12.4059 22.234 12.1956 22.234H10.4083C10.1981 22.234 9.98779 22.0247 9.98779 21.8153V21.606H12.6161V21.8153Z" fill="#FF713C"/>
<path d="M1.26218 21.1874H0.946777L7.04449 17.4189L13.1422 21.1874H12.8268H9.77795H8.51635H5.57263H4.31103H1.26218Z" fill="#FF713C"/>
<path d="M1.47217 21.8153V21.606H3.99536V21.8153C3.99536 22.0247 3.78509 22.234 3.57483 22.234H1.8927C1.68243 22.234 1.47217 22.0247 1.47217 21.8153Z" fill="#FF713C"/>
<path d="M1.47217 29.0379C1.47217 28.8285 1.68243 28.6191 1.8927 28.6191H3.57483C3.78509 28.6191 3.99536 28.8285 3.99536 29.0379V29.2472H1.47217V29.0379Z" fill="#FF713C"/>
<path d="M13.6677 30.5035H0.420898V30.0847C0.420898 29.8754 0.631164 29.666 0.84143 29.666H1.26196H4.20568H5.46728H8.411H9.6726H12.6163H13.0369C13.2471 29.666 13.4574 29.8754 13.4574 30.0847V30.5035H13.6677Z" fill="#FF713C"/>
<path d="M7.04401 20.5594C7.62464 20.5594 8.09533 20.0907 8.09533 19.5126C8.09533 18.9345 7.62464 18.4658 7.04401 18.4658C6.46337 18.4658 5.99268 18.9345 5.99268 19.5126C5.99268 20.0907 6.46337 20.5594 7.04401 20.5594Z" fill="#FF713C"/>
<path d="M7.04388 20.1404C7.39226 20.1404 7.67468 19.8592 7.67468 19.5124C7.67468 19.1655 7.39226 18.8843 7.04388 18.8843C6.6955 18.8843 6.41309 19.1655 6.41309 19.5124C6.41309 19.8592 6.6955 20.1404 7.04388 20.1404Z" fill="white"/>
<path fill-rule="evenodd" clip-rule="evenodd" d="M19.1128 18.9195C18.4339 18.9195 17.9195 19.4387 17.9195 20.029V29.4445C17.9195 30.0349 18.4339 30.5541 19.1128 30.5541H39.1142C39.793 30.5541 40.3074 30.0349 40.3074 29.4445V20.029C40.3074 19.4387 39.793 18.9195 39.1142 18.9195H19.1128ZM17 20.029C17 18.8849 17.9733 18 19.1128 18H39.1142C40.2536 18 41.2269 18.8849 41.2269 20.029V29.4445C41.2269 30.5887 40.2536 31.4735 39.1142 31.4735H19.1128C17.9733 31.4735 17 30.5887 17 29.4445V20.029Z" fill="#FF713C"/>
<path fill-rule="evenodd" clip-rule="evenodd" d="M20.6335 20.7701C20.0318 20.7701 19.7032 21.1593 19.7032 21.4597V28.3558C19.7032 28.6562 20.0318 29.0455 20.6335 29.0455H37.4691C38.0708 29.0455 38.3994 28.6562 38.3994 28.3558V21.4597C38.3994 21.1593 38.0708 20.7701 37.4691 20.7701H20.6335ZM18.7837 21.4597C18.7837 20.4994 19.6907 19.8506 20.6335 19.8506H37.4691C38.4119 19.8506 39.3189 20.4994 39.3189 21.4597V28.3558C39.3189 29.3161 38.4119 29.9649 37.4691 29.9649H20.6335C19.6907 29.9649 18.7837 29.3161 18.7837 28.3558V21.4597Z" fill="#FF713C"/>
<path d="M29.4853 28.2469C31.4253 28.2469 32.9979 26.6754 32.9979 24.7367C32.9979 22.7981 31.4253 21.2266 29.4853 21.2266C27.5453 21.2266 25.9727 22.7981 25.9727 24.7367C25.9727 26.6754 27.5453 28.2469 29.4853 28.2469Z" fill="#FF713C"/>
<path fill-rule="evenodd" clip-rule="evenodd" d="M35.7942 20.4634C36.0481 20.4634 36.254 20.6692 36.254 20.9231C36.254 21.2458 36.4284 21.5807 36.7838 21.8504C37.1385 22.1195 37.6517 22.3024 38.2462 22.3024C38.5001 22.3024 38.7059 22.5082 38.7059 22.7621C38.7059 23.016 38.5001 23.2218 38.2462 23.2218C37.4692 23.2218 36.7565 22.9839 36.228 22.5829C35.7003 22.1824 35.3345 21.5979 35.3345 20.9231C35.3345 20.6692 35.5403 20.4634 35.7942 20.4634Z" fill="#FF713C"/>
<path fill-rule="evenodd" clip-rule="evenodd" d="M19.397 27.0535C19.397 26.7996 19.6028 26.5938 19.8567 26.5938C20.5438 26.5938 21.1295 26.9594 21.5284 27.4911C21.9262 28.0216 22.1554 28.7342 22.1554 29.5055C22.1554 29.7594 21.9496 29.9652 21.6957 29.9652C21.4418 29.9652 21.2359 29.7594 21.2359 29.5055C21.2359 28.9101 21.0581 28.3966 20.7928 28.0428C20.5284 27.6903 20.1947 27.5132 19.8567 27.5132C19.6028 27.5132 19.397 27.3074 19.397 27.0535Z" fill="#FF713C"/>
<path fill-rule="evenodd" clip-rule="evenodd" d="M21.6957 20.4634C21.9496 20.4634 22.1554 20.6692 22.1554 20.9231C22.1554 22.1694 21.1443 23.2218 19.8567 23.2218C19.6028 23.2218 19.397 23.016 19.397 22.7621C19.397 22.5082 19.6028 22.3024 19.8567 22.3024C20.6263 22.3024 21.2359 21.6717 21.2359 20.9231C21.2359 20.6692 21.4418 20.4634 21.6957 20.4634Z" fill="#FF713C"/>
<path fill-rule="evenodd" clip-rule="evenodd" d="M35.3345 29.5055C35.3345 27.8849 36.6256 26.5938 38.2462 26.5938C38.5001 26.5938 38.7059 26.7996 38.7059 27.0535C38.7059 27.3074 38.5001 27.5132 38.2462 27.5132C37.1334 27.5132 36.254 28.3927 36.254 29.5055C36.254 29.7594 36.0481 29.9652 35.7942 29.9652C35.5403 29.9652 35.3345 29.7594 35.3345 29.5055Z" fill="#FF713C"/>
<path d="M29.0721 25.4802L28.6588 24.8608H28.6175H28.1629V25.4802H27.667V23.2915H28.6175C28.8241 23.2915 28.9894 23.3328 29.1134 23.3741C29.2374 23.4567 29.3613 23.5393 29.444 23.6632C29.5266 23.7871 29.568 23.9109 29.568 24.0761C29.568 24.2413 29.5266 24.3652 29.444 24.4891C29.3613 24.613 29.2374 24.6956 29.1134 24.7782L29.6093 25.4802H29.0721ZM28.9481 23.7871C28.8654 23.7458 28.7414 23.7045 28.5761 23.7045H28.1629V24.4478H28.5761C28.7414 24.4478 28.8241 24.4065 28.9067 24.3652C28.9894 24.2826 29.0307 24.2 29.0307 24.0761C29.0721 23.9522 29.0307 23.8697 28.9481 23.7871Z" fill="white"/>
<path d="M31.345 23.8697C31.469 23.9523 31.593 24.0349 31.6343 24.1588C31.7169 24.2827 31.7583 24.4478 31.7583 24.613C31.7583 24.7782 31.7169 24.9434 31.6343 25.0673C31.5516 25.1912 31.469 25.3151 31.345 25.3564C31.221 25.439 31.0557 25.4803 30.9317 25.4803C30.7251 25.4803 30.5598 25.3977 30.4358 25.2738V26.0584H29.9399V23.7871H30.3945V23.9936C30.5185 23.8284 30.6838 23.7871 30.9317 23.7871C31.0971 23.7871 31.221 23.7871 31.345 23.8697ZM31.1384 24.9847C31.221 24.9021 31.2624 24.7782 31.2624 24.6543C31.2624 24.5304 31.221 24.4066 31.1384 24.324C31.0557 24.2414 30.9731 24.2001 30.8491 24.2001C30.7251 24.2001 30.6425 24.2414 30.5598 24.324C30.4772 24.4066 30.4358 24.5304 30.4358 24.6543C30.4358 24.7782 30.4772 24.9021 30.5598 24.9847C30.6425 25.0673 30.7251 25.1086 30.8491 25.1086C30.9731 25.1086 31.0557 25.0673 31.1384 24.9847Z" fill="white"/>
<path fill-rule="evenodd" clip-rule="evenodd" d="M10.0839 33.3459C10.1014 33.3358 10.1195 33.3263 10.1379 33.3174C10.3369 33.2223 10.5666 33.2149 10.7711 33.2969L14.6057 34.8341C15.0097 34.996 15.2059 35.4549 15.044 35.8588C14.8819 36.2627 14.4232 36.4588 14.0193 36.297L11.9073 35.4503C12.0678 35.8644 12.2571 36.2683 12.4737 36.6581C13.686 38.84 15.6737 40.445 18.0705 41.1774C20.4658 41.9095 23.0072 41.6903 25.2267 40.5604C27.9067 39.1961 29.7729 36.7405 30.348 33.8227C30.4322 33.3958 30.8466 33.1179 31.2735 33.2019C31.7006 33.2861 31.9785 33.7005 31.8943 34.1274C31.225 37.5231 29.0554 40.3798 25.9417 41.9649C23.3566 43.281 20.3976 43.5366 17.6099 42.6846C14.8208 41.8323 12.5076 39.9638 11.0961 37.4235C10.9069 37.083 10.7354 36.7329 10.5828 36.3756L10.1212 37.882C9.99366 38.2981 9.5529 38.5321 9.13682 38.4046C8.72075 38.2771 8.48679 37.8364 8.61424 37.4203L9.72449 33.7975C9.78309 33.6062 9.91199 33.4452 10.0839 33.3459" fill="#FF713C"/>
<path fill-rule="evenodd" clip-rule="evenodd" d="M30.8927 15.1253C30.8751 15.1354 30.8571 15.1449 30.8386 15.1538C30.6397 15.2489 30.41 15.2563 30.2054 15.1742L26.3708 13.637C25.9669 13.4752 25.7707 13.0163 25.9326 12.6124C26.0946 12.2085 26.5534 12.0123 26.9572 12.1742L29.0692 13.0209C28.9088 12.6068 28.7195 12.2029 28.5028 11.8131C27.2905 9.63123 25.3029 8.02619 22.9061 7.29376C20.5108 6.56173 17.9693 6.78087 15.7499 7.91077C13.0699 9.27506 11.2037 11.7307 10.6285 14.6485C10.5443 15.0754 10.13 15.3533 9.70303 15.2693C9.27601 15.1851 8.99809 14.7707 9.08226 14.3438C9.7516 10.948 11.9212 8.09138 15.0349 6.50626C17.62 5.19017 20.579 4.93458 23.3667 5.78661C26.1557 6.63892 28.469 8.50737 29.8805 11.0476C30.0697 11.3882 30.2411 11.7383 30.3938 12.0955L30.8554 10.5892C30.9829 10.1731 31.4237 9.9391 31.8397 10.0666C32.2558 10.1941 32.4898 10.6348 32.3623 11.0509L31.2521 14.6737C31.1935 14.8649 31.0646 15.026 30.8927 15.1253" fill="#FF713C"/>
</svg>
