<svg width="36" height="27" viewBox="0 0 36 27" fill="none" xmlns="http://www.w3.org/2000/svg">
<path d="M9.7666 18C12.528 18 14.7666 15.7614 14.7666 13C14.7666 10.2386 12.528 8 9.7666 8C7.00518 8 4.7666 10.2386 4.7666 13C4.7666 15.7614 7.00518 18 9.7666 18Z" fill="white"/>
<path d="M32.4761 0H3.28041C2.43223 0 1.74756 0.593115 1.74756 1.32787C1.74756 2.06262 2.43223 2.65574 3.28041 2.65574H32.4761C33.3242 2.65574 34.0089 2.06262 34.0089 1.32787C34.0089 0.593115 33.3242 0 32.4761 0Z" fill="#FF713C"/>
<mask id="mask0" mask-type="alpha" maskUnits="userSpaceOnUse" x="0" y="4" width="36" height="23">
<path fill-rule="evenodd" clip-rule="evenodd" d="M33.7227 4.86816H2.0438C0.919709 4.86816 0 5.66489 0 6.63866V25.2288C0 26.2026 0.919709 26.9993 2.0438 26.9993H33.7227C34.8468 26.9993 35.7665 26.2026 35.7665 25.2288V6.63866C35.7665 5.66489 34.8468 4.86816 33.7227 4.86816Z" fill="white"/>
</mask>
<g mask="url(#mask0)">
<rect x="-0.233398" y="5" width="38" height="24" fill="#FF713C"/>
</g>
<path d="M10.7302 23.2375H6.64261C5.9375 23.2375 5.36523 22.7418 5.36523 22.131C5.36523 21.5202 5.9375 21.0244 6.64261 21.0244H10.7302C11.4353 21.0244 12.0076 21.5202 12.0076 22.131C12.0076 22.7418 11.4353 23.2375 10.7302 23.2375Z" fill="white"/>
<path d="M19.927 23.2375H15.8394C15.1343 23.2375 14.562 22.7418 14.562 22.131C14.562 21.5202 15.1343 21.0244 15.8394 21.0244H19.927C20.6321 21.0244 21.2044 21.5202 21.2044 22.131C21.2044 22.7418 20.6321 23.2375 19.927 23.2375Z" fill="white"/>
<path d="M29.1242 23.2375H25.0367C24.3315 23.2375 23.7593 22.7418 23.7593 22.131C23.7593 21.5202 24.3315 21.0244 25.0367 21.0244H29.1242C29.8294 21.0244 30.4016 21.5202 30.4016 22.131C30.4016 22.7418 29.8294 23.2375 29.1242 23.2375Z" fill="white"/>
<circle cx="9.7666" cy="13" r="5" fill="white" fill-opacity="0.83"/>
</svg>
