<svg width="26" height="33" viewBox="0 0 26 33" fill="none" xmlns="http://www.w3.org/2000/svg">
<g clip-path="url(#clip0)">
<path d="M25.9999 13.2983C25.9999 15.5499 25.9999 17.7312 25.9999 19.9828C25.9999 21.5307 25.5725 23.0083 24.789 24.3452C23.7205 26.1747 22.3671 27.7226 20.7287 29.0595C18.5917 30.8889 16.1698 32.2258 13.3917 32.9295C13.1068 32.9998 12.8219 32.9998 12.5369 32.9295C7.90679 31.6629 4.34515 28.9188 1.6383 25.1192C0.925971 24.0638 0.356108 22.8676 0.0711767 21.6011C-5.61882e-05 21.2493 -0.0712891 20.8975 -0.0712891 20.4753C-0.0712891 15.6203 -0.0712891 10.8356 -0.0712891 5.98063C-0.0712891 5.27701 0.213642 4.99556 0.925971 4.85483C4.27392 4.29193 7.4794 3.2365 10.3999 1.5478C11.041 1.12562 11.6821 0.703446 12.3232 0.281272C12.7506 -0.000178303 13.178 -0.0705408 13.5342 0.210909C16.0986 2.18106 19.0191 3.44758 22.1534 4.29193C23.0794 4.57338 24.0767 4.71411 25.0027 4.92519C25.715 5.06592 25.9999 5.34737 25.9999 6.05099C25.9999 8.44332 25.9999 10.8356 25.9999 13.2983ZM1.852 6.61389C1.852 6.75462 1.852 6.82498 1.852 6.96571C1.852 11.3985 1.852 15.8314 1.852 20.2642C1.852 21.1789 2.0657 22.0233 2.49309 22.7973C3.27666 24.486 4.48761 25.8228 5.84104 27.0894C7.83556 28.9188 10.115 30.326 12.7506 31.0297C12.8931 31.1 13.0356 31.1 13.178 31.0297C15.1725 30.5371 16.8821 29.6224 18.5205 28.4263C20.3725 27.019 21.9397 25.471 23.1506 23.4305C23.7917 22.3751 24.1479 21.1789 24.1479 19.9124C24.1479 15.6203 24.1479 11.2578 24.1479 6.96571C24.1479 6.82498 24.1479 6.68426 24.1479 6.61389C24.0767 6.61389 24.0767 6.54353 24.0767 6.54353C24.0054 6.54353 23.863 6.47317 23.7917 6.47317C19.9451 5.76954 16.3835 4.43266 13.178 2.18106C13.0356 2.1107 12.8931 2.1107 12.8219 2.25142C10.2575 4.01048 7.4794 5.20664 4.48761 6.05099C3.63282 6.26208 2.77803 6.40281 1.852 6.61389Z" fill="#FF713C"/>
<path d="M22.7234 14.0725C22.7234 15.7612 22.7234 17.3795 22.7234 19.0682C22.7234 20.2644 22.4384 21.3198 21.7973 22.3752C21.0138 23.7825 19.9453 24.9083 18.7343 25.8934C17.096 27.2302 15.3152 28.2857 13.2494 28.7782C13.0357 28.8486 12.822 28.8486 12.6083 28.7782C9.1179 27.8635 6.48228 25.823 4.41653 22.9381C3.84666 22.1641 3.41926 21.2494 3.2768 20.3347C3.20557 20.0533 3.20557 19.7718 3.20557 19.4904C3.20557 15.9019 3.20557 12.243 3.20557 8.65455C3.20557 8.09165 3.41927 7.88057 3.9179 7.8102C6.41105 7.38803 8.83296 6.61404 11.0412 5.27715C11.5398 4.9957 12.0384 4.64389 12.4658 4.29208C12.7508 4.08099 13.1069 4.01063 13.3919 4.29208C15.3152 5.76969 17.5234 6.6844 19.8741 7.31767C20.5864 7.52875 21.2987 7.66948 22.011 7.73984C22.5097 7.8102 22.7234 8.09165 22.7234 8.58419C22.7234 10.4136 22.7234 12.243 22.7234 14.0725ZM4.63022 9.07673C4.63022 9.14709 4.63022 9.28782 4.63022 9.35818C4.63022 12.6652 4.63022 16.0426 4.63022 19.3496C4.63022 20.0533 4.77269 20.6162 5.05762 21.2494C5.69872 22.516 6.55351 23.501 7.55077 24.4861C9.04666 25.8934 10.7563 26.9488 12.7508 27.4413C12.8932 27.4413 12.9645 27.5117 13.1069 27.4413C14.6028 27.0192 15.885 26.3859 17.096 25.4712C18.4494 24.4157 19.6604 23.2196 20.5864 21.742C21.085 20.8976 21.2987 20.0533 21.2987 19.1386C21.2987 15.9019 21.2987 12.6652 21.2987 9.42854C21.2987 9.35818 21.2987 9.21745 21.2987 9.14709H21.2275C21.1563 9.14709 21.085 9.14709 21.0138 9.07673C18.1645 8.51383 15.4576 7.52875 13.0357 5.84005C12.8932 5.76969 12.822 5.76969 12.7508 5.84005C10.8275 7.17694 8.76173 8.09165 6.55351 8.65455C5.98365 8.79528 5.34255 8.936 4.63022 9.07673Z" fill="#FF713C"/>
<path d="M20.0163 14.917C20.0163 13.5802 20.0163 12.3136 20.0163 10.9767C20.0163 10.6249 19.8738 10.4138 19.5177 10.3435C19.019 10.2731 18.5204 10.1324 17.9505 9.99166C16.241 9.56949 14.6738 8.86587 13.3204 7.81043C13.1779 7.6697 12.9642 7.6697 12.8218 7.74007V25.4714C12.9642 25.4714 13.1067 25.4714 13.2492 25.4714C14.7451 25.1196 16.0273 24.3456 17.2382 23.3605C18.093 22.6569 18.8766 21.8126 19.4464 20.8275C19.8738 20.1239 20.0875 19.3499 20.0875 18.4352C20.0163 17.3094 20.0163 16.1132 20.0163 14.917Z" fill="#FF713C"/>
<path d="M8 15.7809C8 14.3999 8.93413 13.1915 10.1796 13.0188C11.1138 13.0188 12.0479 13.3641 12.515 14.2272C12.515 14.3999 12.515 14.3999 12.6707 14.2272C13.1377 13.5367 13.7605 13.1915 14.3832 13.0188C15.7844 12.8462 16.8743 13.882 17.1856 15.263C17.3413 16.1262 17.0299 16.9893 16.4072 17.6798C15.3174 18.7156 14.3832 19.924 13.2934 20.9598C13.1377 21.1324 12.982 21.3051 12.8263 21.4777C12.6707 21.6503 12.515 21.6503 12.3593 21.4777C11.1138 20.2693 10.024 19.0609 8.77844 17.6798C8.46707 17.3346 8.15569 16.8167 8 16.2988C8 16.1262 8 15.9535 8 15.7809Z" fill="white" stroke="#FF713C" stroke-miterlimit="10"/>
</g>
<defs>
<clipPath id="clip0">
<rect width="26" height="33" fill="white"/>
</clipPath>
</defs>
</svg>
