<svg width="21" height="17" viewBox="0 0 21 17" fill="none" xmlns="http://www.w3.org/2000/svg">
<path fill-rule="evenodd" clip-rule="evenodd" d="M18.1342 11.6192C18.1193 11.6192 18.1043 11.6186 18.0893 11.6175C17.9278 11.6049 17.779 11.5253 17.679 11.3979L15.8041 9.01151C15.6065 8.76014 15.6502 8.39617 15.9016 8.1987C16.1531 8.00123 16.517 8.04494 16.7144 8.29624L17.7471 9.61065C17.7971 9.28829 17.825 8.9618 17.8304 8.63423C17.8605 6.80086 17.1856 5.04969 15.9298 3.70337C14.6748 2.35785 12.9774 1.56378 11.1504 1.4674C8.94434 1.35097 6.85511 2.22775 5.41747 3.87277C5.20712 4.11343 4.84142 4.13804 4.60068 3.92776C4.35994 3.71734 4.33534 3.35163 4.54569 3.11097C6.21878 1.19648 8.64832 0.175999 11.2114 0.311238C13.3394 0.423468 15.3158 1.34771 16.7764 2.91372C18.2377 4.48037 19.0231 6.51873 18.988 8.65326C18.9833 8.93944 18.9637 9.22512 18.9296 9.50848L19.7766 8.71969C20.0105 8.50181 20.3769 8.51484 20.5948 8.74878C20.8127 8.98271 20.7996 9.349 20.5657 9.56694L18.5287 11.4639C18.4212 11.5641 18.28 11.6192 18.1342 11.6192" fill="#E55300"/>
<path fill-rule="evenodd" clip-rule="evenodd" d="M10.74 16.7002C10.5899 16.7002 10.4397 16.6963 10.2886 16.6883C8.16058 16.5761 6.18423 15.6518 4.72359 14.0858C3.26236 12.5192 2.47697 10.4808 2.51207 8.34627C2.51677 8.06002 2.53631 7.77442 2.57039 7.49099L1.72342 8.27985C1.48941 8.49772 1.12313 8.4847 0.905253 8.25076C0.687379 8.01675 0.700404 7.65047 0.934342 7.43259L2.97133 5.53562C3.08986 5.4252 3.24912 5.3697 3.4107 5.38207C3.57213 5.39459 3.72105 5.47426 3.82105 5.60161L5.69595 7.98802C5.89349 8.2394 5.84979 8.60337 5.59841 8.80084C5.34703 8.99838 4.98307 8.95474 4.7856 8.7033L3.75296 7.38889C3.70296 7.71125 3.67503 8.03773 3.66967 8.36531C3.6395 10.1986 4.31447 11.9498 5.57026 13.2962C6.82526 14.6417 8.52252 15.4358 10.3495 15.5321C12.5553 15.6481 14.6449 14.7718 16.0825 13.1268C16.2928 12.886 16.6585 12.8614 16.8994 13.0718C17.1401 13.2821 17.1647 13.6478 16.9543 13.8886C15.3799 15.6902 13.1351 16.7002 10.74 16.7002" fill="#E55300"/>
<path d="M10.25 12.2993C9.77167 12.2993 9.31958 12.2074 8.89375 12.0235C8.46792 11.8399 8.0961 11.589 7.7783 11.271C7.46027 10.9532 7.20943 10.5814 7.0258 10.1556C6.84193 9.72973 6.75 9.27765 6.75 8.79932C6.75 8.31515 6.84193 7.86167 7.0258 7.43887C7.20943 7.01583 7.46027 6.64542 7.7783 6.32762C8.0961 6.00958 8.46792 5.75863 8.89375 5.57477C9.31958 5.39113 9.77167 5.29932 10.25 5.29932C10.7342 5.29932 11.1877 5.39113 11.6104 5.57477C12.0335 5.75863 12.4039 6.00958 12.7217 6.32762C13.0397 6.64542 13.2906 7.01583 13.4742 7.43887C13.6581 7.86167 13.75 8.31515 13.75 8.79932V9.30682C13.75 9.65098 13.6319 9.94405 13.3958 10.186C13.1594 10.4282 12.8692 10.5493 12.525 10.5493C12.315 10.5493 12.1196 10.5026 11.9388 10.4093C11.7579 10.316 11.6092 10.1935 11.4925 10.0418C11.335 10.1993 11.1498 10.3233 10.937 10.4139C10.724 10.5042 10.495 10.5493 10.25 10.5493C9.76583 10.5493 9.35318 10.3786 9.01205 10.0373C8.67068 9.69613 8.5 9.28348 8.5 8.79932C8.5 8.31515 8.67068 7.90238 9.01205 7.56102C9.35318 7.21988 9.76583 7.04932 10.25 7.04932C10.7342 7.04932 11.1469 7.21988 11.4883 7.56102C11.8294 7.90238 12 8.31515 12 8.79932V9.30682C12 9.47598 12.0525 9.60863 12.1575 9.70477C12.2625 9.80113 12.385 9.84932 12.525 9.84932C12.665 9.84932 12.7875 9.80113 12.8925 9.70477C12.9975 9.60863 13.05 9.47598 13.05 9.30682V8.79932C13.05 8.03515 12.7743 7.37738 12.2229 6.82602C11.6718 6.27488 11.0142 5.99932 10.25 5.99932C9.48583 5.99932 8.82807 6.27488 8.2767 6.82602C7.72557 7.37738 7.45 8.03515 7.45 8.79932C7.45 9.56348 7.72557 10.2211 8.2767 10.7723C8.82807 11.3236 9.48583 11.5993 10.25 11.5993H12V12.2993H10.25ZM10.25 9.84932C10.5417 9.84932 10.7896 9.74723 10.9938 9.54307C11.1979 9.3389 11.3 9.09098 11.3 8.79932C11.3 8.50765 11.1979 8.25973 10.9938 8.05557C10.7896 7.8514 10.5417 7.74932 10.25 7.74932C9.95833 7.74932 9.71042 7.8514 9.50625 8.05557C9.30208 8.25973 9.2 8.50765 9.2 8.79932C9.2 9.09098 9.30208 9.3389 9.50625 9.54307C9.71042 9.74723 9.95833 9.84932 10.25 9.84932Z" fill="#E55300"/>
</svg>
