<svg width="40" height="33" viewBox="0 0 40 33" fill="none" xmlns="http://www.w3.org/2000/svg">
<path fill-rule="evenodd" clip-rule="evenodd" d="M34.6928 22.5906C34.6631 22.5906 34.6332 22.5894 34.6033 22.5871C34.281 22.5621 33.9839 22.4031 33.7844 22.149L30.0427 17.3865C29.6485 16.8849 29.7357 16.1585 30.2373 15.7644C30.7392 15.3704 31.4654 15.4576 31.8594 15.9591L33.9202 18.5822C34.02 17.9389 34.0758 17.2873 34.0864 16.6336C34.1467 12.9748 32.7997 9.48011 30.2935 6.79332C27.789 4.10812 24.4017 2.52343 20.7556 2.33108C16.353 2.09874 12.1836 3.84849 9.31461 7.13137C8.89482 7.61166 8.165 7.66076 7.68457 7.24112C7.20414 6.82119 7.15504 6.09137 7.57482 5.61108C10.9137 1.79043 15.7623 -0.2461 20.8773 0.0237922C25.1241 0.247763 29.0683 2.09224 31.9831 5.21744C34.8993 8.34394 36.4667 12.4118 36.3966 16.6716C36.3872 17.2427 36.3483 17.8128 36.2802 18.3783L37.9705 16.8042C38.4373 16.3694 39.1685 16.3953 39.6033 16.8622C40.0381 17.3291 40.0121 18.06 39.5452 18.495L35.4801 22.2807C35.2655 22.4805 34.9838 22.5906 34.6928 22.5906Z" fill="#FF713C"/>
<path fill-rule="evenodd" clip-rule="evenodd" d="M19.9365 32.7312C19.6371 32.7312 19.3373 32.7232 19.0358 32.7073C14.789 32.4834 10.8448 30.6389 7.9299 27.5137C5.0138 24.3872 3.44644 20.3193 3.51647 16.0595C3.52586 15.4883 3.56485 14.9183 3.63286 14.3527L1.94261 15.927C1.47561 16.3618 0.744633 16.3358 0.309832 15.8689C-0.12497 15.4019 -0.098977 14.671 0.367882 14.2362L4.43301 10.4504C4.66954 10.2301 4.98738 10.1193 5.30983 10.144C5.632 10.169 5.92918 10.328 6.12875 10.5821L9.87041 15.3446C10.2646 15.8463 10.1774 16.5726 9.67575 16.9667C9.17409 17.3609 8.44774 17.2738 8.05366 16.772L5.99286 14.1489C5.89308 14.7923 5.83734 15.4438 5.82665 16.0975C5.76644 19.7562 7.11344 23.2509 9.61958 25.9378C12.1241 28.623 15.5113 30.2077 19.1573 30.4C23.5592 30.6314 27.7295 28.8826 30.5984 25.5998C31.0181 25.1193 31.7478 25.0701 32.2285 25.49C32.709 25.9098 32.7581 26.6396 32.3381 27.1201C29.1962 30.7156 24.7163 32.7312 19.9365 32.7312Z" fill="#FF713C"/>
<path d="M25.6162 21.0379V21.2472H22.9879V21.0379C22.9879 20.8285 23.1981 20.6191 23.4084 20.6191H25.0905C25.4059 20.6191 25.6162 20.8285 25.6162 21.0379Z" fill="#FF713C"/>
<path d="M16.3644 14.6533H15.1028V20.2014H16.3644V14.6533Z" fill="#FF713C"/>
<path d="M20.6747 14.6533H19.4131V20.2014H20.6747V14.6533Z" fill="#FF713C"/>
<path d="M20.8852 14.2345H19.2031C18.9928 14.2345 18.7825 14.0252 18.7825 13.8158V13.6064H21.3057V13.8158C21.3057 14.0252 21.0955 14.2345 20.8852 14.2345Z" fill="#FF713C"/>
<path d="M18.7825 21.0379C18.7825 20.8285 18.9928 20.6191 19.2031 20.6191H20.8852C21.0955 20.6191 21.3057 20.8285 21.3057 21.0379V21.2472H18.7825V21.0379Z" fill="#FF713C"/>
<path d="M24.9855 14.6533H23.7239V20.2014H24.9855V14.6533Z" fill="#FF713C"/>
<path d="M25.6162 13.8158C25.6162 14.0252 25.4059 14.2345 25.1956 14.2345H23.4084C23.1981 14.2345 22.9879 14.0252 22.9879 13.8158V13.6064H25.6162V13.8158Z" fill="#FF713C"/>
<path d="M14.262 13.1874H13.9466L20.0443 9.41895L26.142 13.1874H25.8266H22.7778H21.5162H18.5724H17.3108H14.262Z" fill="#FF713C"/>
<path d="M14.4723 13.8158V13.6064H16.9955V13.8158C16.9955 14.0252 16.7852 14.2345 16.5749 14.2345H14.8928C14.6826 14.2345 14.4723 14.0252 14.4723 13.8158Z" fill="#FF713C"/>
<path d="M14.4723 21.0379C14.4723 20.8285 14.6826 20.6191 14.8928 20.6191H16.5749C16.7852 20.6191 16.9955 20.8285 16.9955 21.0379V21.2472H14.4723V21.0379Z" fill="#FF713C"/>
<path d="M26.6677 22.5035H13.4209V22.0847C13.4209 21.8754 13.6312 21.666 13.8414 21.666H14.262H17.2057H18.4673H21.411H22.6726H25.6163H26.0369C26.2471 21.666 26.4574 21.8754 26.4574 22.0847V22.5035H26.6677Z" fill="#FF713C"/>
<path d="M20.0442 12.5594C20.6248 12.5594 21.0955 12.0907 21.0955 11.5126C21.0955 10.9345 20.6248 10.4658 20.0442 10.4658C19.4636 10.4658 18.9929 10.9345 18.9929 11.5126C18.9929 12.0907 19.4636 12.5594 20.0442 12.5594Z" fill="#FF713C"/>
<path d="M20.0439 12.1399C20.3923 12.1399 20.6747 11.8587 20.6747 11.5119C20.6747 11.165 20.3923 10.8838 20.0439 10.8838C19.6956 10.8838 19.4131 11.165 19.4131 11.5119C19.4131 11.8587 19.6956 12.1399 20.0439 12.1399Z" fill="white"/>
</svg>
