<svg width="21" height="19" viewBox="0 0 21 19" fill="none" xmlns="http://www.w3.org/2000/svg">
<path d="M7.13115 10.5391C7.13115 8.29601 8.2541 7.17448 10.5 7.17448C12.7459 7.17448 13.8689 8.29601 13.8689 10.5391C13.8689 12.7821 12.7459 13.9036 10.5 13.9036C8.2541 13.9036 7.13115 12.7821 7.13115 10.5391ZM7.32787 0H13.623L15.541 2.07812H18.8852C19.4754 2.07812 19.9754 2.28429 20.3852 2.69661C20.7951 3.10894 21 3.61198 21 4.20573V16.8724C21 17.4661 20.7951 17.9692 20.3852 18.3815C19.9754 18.7938 19.4754 19 18.8852 19H2.11475C1.52459 19 1.02459 18.7938 0.614754 18.3815C0.204918 17.9692 0 17.4661 0 16.8724V4.20573C0 3.61198 0.204918 3.10894 0.614754 2.69661C1.02459 2.28429 1.52459 2.07812 2.11475 2.07812H5.40984L7.32787 0ZM10.4754 15.8333C11.918 15.8333 13.1557 15.3138 14.1885 14.2747C15.2213 13.2357 15.7377 11.9905 15.7377 10.5391C15.7377 9.08767 15.2213 7.84245 14.1885 6.80339C13.1557 5.76432 11.918 5.24479 10.4754 5.24479C9.03279 5.24479 7.80328 5.76432 6.78689 6.80339C5.77049 7.84245 5.2623 9.08767 5.2623 10.5391C5.2623 11.9905 5.77049 13.2357 6.78689 14.2747C7.80328 15.3138 9.03279 15.8333 10.4754 15.8333Z" fill="#005E6A"/>
</svg>
