<svg width="60" height="60" viewBox="0 0 60 60" fill="none" xmlns="http://www.w3.org/2000/svg">
<rect width="60" height="60" rx="4" fill="white"/>
<path d="M17.9539 31.0972H20.148V33.289H22.3376V35.4808H11.3854V33.289H13.5749V28.9053H17.9585V31.0972H17.9539ZM46.4315 50.8074H48.6302V48.6294H46.443L46.4315 50.8074ZM20.1457 31.0972H22.3376V28.9053H20.1457V31.0972ZM50.8082 50.8074H53.0001V48.6294H50.8082V50.8074ZM24.5294 52.9993H28.8992V50.8097H24.5294V52.9993ZM44.2397 52.9993V50.8097H42.0479V52.9993H44.2397ZM35.4793 52.9993H37.6688V48.6156H35.4793V52.9993ZM17.9539 24.524V26.7158H24.5248V24.524H17.9539ZM15.7667 26.7135V24.524H11.3831V28.8938H13.5749V26.7135H15.7667ZM22.3376 22.3437H7.00171V7.00092H22.3376V22.3437ZM20.1457 9.19274H9.19353V20.1426H20.1457V9.19274ZM11.3831 48.6294H17.9539V42.0471H11.3831V48.6294ZM33.2875 46.4376V48.6294H35.4816V46.4376H33.2875ZM17.9539 11.3846H11.3854V17.9531H17.9539V11.3846ZM53.0001 7.00092V22.3345H37.6665V7.00092H53.0001ZM50.8105 9.19044H39.8583V20.1426H50.8082L50.8105 9.19044ZM7.00171 37.6634H22.3353V52.9993H7.00171V37.6634ZM9.19353 50.8074H20.148V39.8552H9.19353V50.8074ZM9.19353 24.524H7.00171V35.4785H9.19353V24.524ZM37.6665 35.4762V37.6634H39.8583V35.4762H37.6665ZM31.0956 44.2366V42.0471H28.9061V44.2389H24.5363V48.6294H28.9061V50.8189H31.0956V46.4307H33.2875V44.2389H31.0956V44.2366ZM24.5294 15.7636H28.8992V13.5695H24.5294V15.7636ZM42.0479 33.2867H46.4338V35.4785H48.6302V28.9076H46.4407V24.524H44.2466V31.0972H37.6734V33.289H39.8629V35.4808H42.0548V33.289L42.0479 33.2867ZM44.2397 39.8552H42.0479V37.6634H39.856V42.0471H33.2875V44.2389H37.6711V48.6294H39.8629V50.8189H42.0525V46.4307H50.8128V44.2389H44.242V39.8552H44.2397ZM44.2397 39.8552H46.4338V35.4854H44.2397V39.8552ZM26.7166 39.8552V37.6634H28.9038V35.4762H31.0933V33.2844H33.2875V28.9007H39.856V24.5171H37.6642V26.7089H35.4747V17.9485H33.2829V13.5649H35.4747V7.00092H33.2829V11.3823H31.0933V7.00092H24.5225V11.3823H26.7143V9.19274H28.9015V13.5626H31.0933V20.1426H33.2829V22.3322H31.0933V26.702H28.9015V22.3322H26.7143V20.1426H24.5225V24.5125H26.7143V26.7043H24.5225V33.289H26.7143V28.9053H28.9015V33.289H26.7143V35.4808H24.5225V42.0471H28.8923V39.8552H26.7166ZM50.8082 42.0471V39.8552H46.4384V42.0471H50.8082ZM48.6164 11.3846H42.0479V17.9531H48.6164V11.3846ZM31.0956 39.8552H35.4816V37.6634H33.2875V35.4762H31.0933V39.846L31.0956 39.8552ZM35.4793 35.4854V33.2936H33.2852V35.4854H35.4793ZM48.6164 26.7227H53.0001V24.524H48.6164V26.7227ZM50.8082 44.2458H53.0001V42.0563H50.8082V44.2458ZM50.8082 31.1064H53.0001V28.9053H50.8082V31.1064ZM31.0956 20.1426H28.9061V22.3345H31.0956V20.1426Z" fill="black"/>
</svg>
