<svg width="29" height="30" viewBox="0 0 29 30" fill="none" xmlns="http://www.w3.org/2000/svg">
<path d="M27.1276 24.3678C26.7357 24.3678 26.3438 24.3678 25.952 24.3678C25.6471 24.3678 25.6036 24.4128 25.7342 24.6831C26.1697 25.7191 26.6487 26.7101 27.0841 27.7461C27.2583 28.1966 27.2147 28.5569 26.7793 28.7822C26.2568 29.0524 25.6907 29.3227 25.1246 29.593C24.9069 29.6831 24.6892 29.8182 24.4715 29.9083C24.036 30.0885 23.6877 29.9984 23.5135 29.593C23.1216 28.8272 22.8168 28.0164 22.4249 27.2056C22.3378 26.9804 22.2072 26.7551 22.1201 26.5299C22.033 26.3047 21.9459 26.2596 21.7718 26.4398C21.3799 26.8903 20.9444 27.2957 20.509 27.7461C20.2913 27.9714 20.1171 28.2416 19.7688 28.2416C19.2898 28.2416 19.0285 27.9714 18.985 27.5209C18.9414 26.9804 18.985 26.9804 18.4625 27.2056C17.7222 27.4759 16.982 27.7011 16.2417 27.8813C15.2402 28.0614 14.1952 28.1966 13.1937 28.1515C12.0616 28.1065 10.9294 27.9263 9.84084 27.611C8.18619 27.1155 6.66216 26.3047 5.26877 25.2236C4.00601 24.1425 2.96096 22.9714 2.13363 21.62C1.48048 20.584 0.957958 19.4578 0.60961 18.2867C0.391892 17.566 0.261261 16.8452 0.130631 16.0795C0 15.2687 0.0435435 14.4578 0 13.647C0 12.8813 0.130631 12.1155 0.261261 11.3497C0.391892 10.629 0.566066 9.9083 0.827327 9.23262C1.87237 6.34974 3.61411 4.05244 6.05255 2.34073C7.18468 1.57497 8.4039 0.989382 9.71021 0.583977C11.3213 0.0884813 13.0195 -0.0916988 14.6742 0.0434363C16.024 0.133526 17.3303 0.448842 18.5931 0.989382C19.8994 1.52992 21.0751 2.25064 22.1201 3.15154C23.6877 4.45785 24.9505 6.07947 25.8213 7.97136C26.3003 9.05244 26.6922 10.1786 26.9099 11.3497C27.1712 12.7461 27.2583 14.1876 27.0841 15.584C26.9099 17.0705 26.5616 18.5119 25.9084 19.8182C25.7778 20.0885 25.7778 20.2687 26.039 20.4939C26.9535 21.3497 27.8243 22.2056 28.6952 23.1065C29.1306 23.5119 29.0435 24.0975 28.521 24.3227C28.3904 24.3678 28.3033 24.3678 28.1727 24.3678C28.1727 24.3678 28.1727 24.3678 28.1291 24.3678C27.8679 24.3678 27.476 24.3678 27.1276 24.3678ZM18.8108 14.638C18.7673 15.4488 18.6802 18.5569 18.506 19.3678C18.4625 19.593 18.3754 19.8182 18.027 19.8182C16.8514 19.8182 15.6321 19.8182 14.4565 19.8182C14.1517 19.8182 14.0646 19.7281 14.0646 19.4128C14.0646 17.9263 14.0646 16.4398 14.0646 14.9984C14.0646 14.638 14.1517 14.593 14.5 14.593C15.9369 14.593 17.3739 14.5479 18.8108 14.638C19.1592 14.638 19.5075 14.638 19.8559 14.638C21.3363 14.638 22.8168 14.638 24.2973 14.638C24.6456 14.638 24.6892 14.6831 24.6892 15.0434C24.6892 15.1335 24.6892 15.2236 24.6892 15.2687C24.5586 16.0344 24.4715 16.8452 24.1667 17.566C23.8619 18.1966 23.9925 18.647 24.515 19.0074C24.7327 19.1876 24.7763 19.1876 24.8634 18.9173C24.994 18.602 25.0811 18.2867 25.2117 17.9263C25.6036 16.8452 25.7342 15.7191 25.7778 14.5479C25.8213 13.602 25.7342 12.7011 25.5601 11.8002C25.473 11.1245 25.2988 10.4939 25.0811 9.9083C24.3844 7.97136 23.3393 6.25965 21.8589 4.86325C20.9009 3.96235 19.8559 3.19659 18.6366 2.65605C17.7222 2.2056 16.7643 1.89028 15.7628 1.7101C14.9354 1.57497 14.1081 1.39479 13.2808 1.43983C12.6276 1.48488 11.9309 1.57497 11.2778 1.7101C10.1892 1.89028 9.14414 2.25064 8.14264 2.74614C6.18318 3.73713 4.57207 5.22362 3.35285 7.11551C2.35135 8.64704 1.6982 10.3137 1.43694 12.1155C1.30631 13.1515 1.17568 14.1876 1.34985 15.2236C1.61111 16.2146 1.74174 17.2506 2.04655 18.1966C2.87387 20.584 4.26727 22.5209 6.22673 24.0524C7.01051 24.6831 7.88138 25.1786 8.7958 25.584C9.71021 25.9894 10.7117 26.3047 11.7132 26.4398C12.7147 26.575 13.6727 26.6651 14.6742 26.5299C15.8934 26.3497 17.0691 26.1245 18.2012 25.629C19.0721 25.2687 19.0721 25.2687 19.0285 24.2777C19.0285 24.0524 18.9414 24.0524 18.7673 24.1425C18.3318 24.3678 17.9399 24.5479 17.5045 24.7281C17.4174 24.7732 17.2868 24.8182 17.2432 24.7281C17.1562 24.638 17.2432 24.5479 17.3303 24.4578C17.8964 23.7822 18.3318 23.0164 18.6802 22.2056C18.8108 21.8903 19.0285 21.62 19.0285 21.3047C19.0285 19.9083 18.8108 16.1245 18.8108 14.638ZM20.4655 21.3948C20.4655 22.7461 20.4655 24.0524 20.4655 25.4038C20.4655 25.4939 20.4219 25.629 20.509 25.629C20.5961 25.6741 20.6396 25.5389 20.7267 25.4939C21.0315 25.1786 21.3363 24.8633 21.6411 24.5479C22.1201 24.0524 22.6426 24.1425 22.9474 24.7732C23.4264 25.8092 23.8619 26.8452 24.3408 27.8813C24.515 28.2867 24.515 28.2867 24.9069 28.0614C25.0375 27.9714 25.2117 27.9263 25.3423 27.8813C25.5165 27.7912 25.6036 27.7011 25.473 27.4759C24.9069 26.2596 24.3844 25.0885 23.8619 23.8723C23.7748 23.6921 23.8183 23.5569 23.8619 23.3768C24.036 23.0164 24.2973 22.8813 24.6456 22.8813C25.1682 22.8813 25.6907 22.8813 26.1697 22.8813C26.2568 22.8813 26.3438 22.9263 26.3874 22.8362C26.4309 22.7461 26.3438 22.7011 26.2568 22.611C26.0826 22.4308 25.952 22.2957 25.7778 22.1155C24.4715 20.8542 23.1652 19.593 21.8589 18.3317C21.467 17.9714 21.1186 17.566 20.6832 17.2056C20.5961 17.1606 20.5526 17.0254 20.4655 17.0705C20.3784 17.1155 20.4219 17.2506 20.4219 17.3407C20.4655 18.7371 20.4655 20.0434 20.4655 21.3948Z" fill="#FF713C"/>
<path d="M10.4939 13.511C9.79718 13.511 9.10049 13.511 8.36025 13.511C8.0119 13.511 7.92481 13.4209 7.96835 13.0605C8.0119 12.2497 8.05544 11.484 8.18607 10.6732C8.3167 9.95244 8.44733 9.18667 8.66505 8.51099C8.70859 8.33081 8.83923 8.24072 9.0134 8.24072C10.2326 8.24072 11.4083 8.24072 12.6275 8.24072C12.8888 8.24072 13.0194 8.37586 13.0194 8.64613C13.0194 10.1326 13.0194 11.6191 13.0194 13.1056C13.0194 13.4209 12.9323 13.511 12.6275 13.511C11.9744 13.511 11.2341 13.511 10.4939 13.511Z" fill="#FF713C"/>
<path d="M10.4939 14.5924C11.1906 14.5924 11.9308 14.5924 12.6275 14.5924C12.9759 14.5924 13.0629 14.6825 13.0629 15.0429C13.0629 16.4843 13.0629 17.9257 13.0629 19.3672C13.0629 19.7726 12.9759 19.8627 12.584 19.8627C11.4518 19.8627 10.3197 19.8627 9.18757 19.8627C8.79568 19.8627 8.70859 19.8176 8.62151 19.4122C8.44733 18.6465 8.3167 17.8357 8.14253 17.0248C8.0119 16.3492 8.05544 15.6735 7.96835 14.9978C7.92481 14.6375 8.0119 14.5474 8.36025 14.5474C9.10049 14.5924 9.79718 14.5924 10.4939 14.5924Z" fill="#FF713C"/>
<path d="M16.6335 13.5109C15.9368 13.5109 15.2401 13.5109 14.4999 13.5109C14.1515 13.5109 14.0645 13.4208 14.0645 13.1055C14.0645 11.619 14.0645 10.1325 14.0645 8.69105C14.0645 8.37573 14.1515 8.28564 14.4999 8.28564C15.6756 8.28564 16.8077 8.28564 17.9834 8.28564C18.2882 8.28564 18.4624 8.42078 18.5059 8.69105C18.6801 9.50186 18.8542 10.2676 18.9849 11.0784C19.072 11.7541 19.072 12.4298 19.159 13.0604C19.2026 13.4208 19.1155 13.5109 18.7672 13.5109C18.0269 13.5109 17.3302 13.5109 16.6335 13.5109Z" fill="#FF713C"/>
<path d="M4.7026 13.511C4.093 13.511 3.48339 13.511 2.83023 13.511C2.56897 13.511 2.43834 13.4209 2.48188 13.1506C2.52543 12.52 2.61252 11.8894 2.78669 11.3038C3.00441 10.4479 3.30921 9.59207 3.7011 8.78126C3.87528 8.4209 4.093 8.24072 4.48489 8.24072C5.3993 8.28577 6.27017 8.24072 7.18459 8.24072C7.57648 8.24072 7.62002 8.28577 7.53293 8.69117C7.4023 9.23171 7.31522 9.8173 7.22813 10.4029C7.05396 11.3038 6.96687 12.2497 6.96687 13.1506C6.96687 13.4209 6.83624 13.511 6.57498 13.511C5.96537 13.511 5.31221 13.511 4.7026 13.511Z" fill="#FF713C"/>
<path d="M22.4687 13.5111C21.8591 13.5111 21.2494 13.5111 20.6398 13.5111C20.2915 13.5111 20.2044 13.4661 20.2044 13.0607C20.2044 11.7994 19.9867 10.5832 19.769 9.32193C19.7254 9.05166 19.6819 8.82643 19.5948 8.55616C19.5512 8.33094 19.5948 8.1958 19.856 8.1958C20.8575 8.1958 21.9026 8.1958 22.9041 8.1958C23.0783 8.1958 23.2089 8.28589 23.296 8.46607C23.8621 9.54715 24.2539 10.6733 24.4717 11.8444C24.5587 12.2499 24.6458 12.6102 24.6458 13.0156C24.6458 13.421 24.6023 13.421 24.2104 13.421C23.6879 13.5111 23.0783 13.5111 22.4687 13.5111Z" fill="#FF713C"/>
<path d="M4.74695 14.5923C5.35656 14.5923 5.96617 14.5923 6.61932 14.5923C6.88058 14.5923 7.01121 14.6824 6.96767 14.9526C6.92413 15.6734 7.05476 16.3941 7.0983 17.1148C7.14185 17.7454 7.31602 18.331 7.44665 18.9617C7.49019 19.1869 7.53374 19.3671 7.57728 19.5923C7.62082 19.8175 7.44665 19.8626 7.27248 19.8626C6.66287 19.8626 6.00971 19.8626 5.4001 19.8626C5.05176 19.8626 4.65986 19.8626 4.31152 19.8626C4.0938 19.8626 3.96317 19.7725 3.83254 19.5472C3.22293 18.4662 2.87458 17.295 2.65686 16.1238C2.56977 15.7635 2.48269 15.4031 2.52623 14.9977C2.52623 14.6373 2.56977 14.5923 2.91812 14.5923C3.48419 14.5923 4.13734 14.5923 4.74695 14.5923Z" fill="#FF713C"/>
<path d="M13.1065 4.90761C13.1065 5.53824 13.1065 6.12383 13.1065 6.75446C13.1065 7.11482 13.0194 7.20491 12.6711 7.20491C11.626 7.20491 10.6245 7.20491 9.57948 7.20491C9.23114 7.20491 9.18759 7.11482 9.31822 6.7995C9.7972 5.58329 10.4068 4.45716 11.3648 3.6013C11.7131 3.28599 12.105 3.01572 12.5404 2.83554C12.9323 2.65536 13.1065 2.74545 13.1065 3.1959C13.1065 3.73644 13.1065 4.32203 13.1065 4.90761Z" fill="#FF713C"/>
<path d="M13.1059 23.1956C13.1059 23.7812 13.1059 24.3668 13.1059 24.9524C13.1059 25.4028 12.9753 25.4929 12.5834 25.3127C11.7996 24.9524 11.1465 24.4569 10.6675 23.7362C10.145 23.0154 9.70953 22.2497 9.36118 21.4389C9.31764 21.3938 9.31764 21.3037 9.27409 21.2587C9.18701 21.0334 9.27409 20.9434 9.49181 20.9434C9.79662 20.9434 10.1014 20.9434 10.4062 20.9434C11.19 20.9434 11.9303 20.9434 12.714 20.9434C13.0624 20.9434 13.1495 21.0334 13.1495 21.3938C13.1059 21.9794 13.1059 22.61 13.1059 23.1956Z" fill="#FF713C"/>
<path d="M14.1087 4.86236C14.1087 4.27677 14.1087 3.64614 14.1087 3.06055C14.1087 2.65515 14.1958 2.6101 14.5877 2.74524C15.0667 2.92542 15.5021 3.19569 15.8504 3.55605C16.8084 4.45695 17.4616 5.62812 17.9405 6.84434C18.0276 7.06956 17.897 7.15965 17.6793 7.15965C17.0697 7.15965 16.4601 7.15965 15.8504 7.15965C15.415 7.15965 14.936 7.15965 14.5006 7.15965C14.1958 7.15965 14.1087 7.06956 14.1087 6.75425C14.0652 6.12362 14.1087 5.49299 14.1087 4.86236Z" fill="#FF713C"/>
<path d="M14.1087 23.1956C14.1087 22.565 14.1087 21.9794 14.1087 21.3488C14.1087 21.0335 14.1958 20.9434 14.5006 20.9434C15.5456 20.9434 16.5907 20.9434 17.6357 20.9434C17.9841 20.9434 18.0276 21.0335 17.897 21.3488C17.418 22.5199 16.8084 23.601 15.894 24.5019C15.5021 24.9073 15.0231 25.1776 14.5441 25.3578C14.2393 25.4929 14.1087 25.4028 14.1087 25.0425C14.0652 24.4569 14.1087 23.8262 14.1087 23.1956Z" fill="#FF713C"/>
<path d="M20.7703 7.15965C20.3348 7.15965 19.8994 7.15965 19.5075 7.15965C19.2898 7.15965 19.2027 7.06956 19.1156 6.88938C18.6802 5.67316 18.1141 4.54704 17.3303 3.55605C17.2868 3.46596 17.1997 3.42091 17.2868 3.33082C17.3739 3.24073 17.5045 3.28578 17.5916 3.33082C18.1576 3.55605 18.7237 3.82632 19.2462 4.14163C20.3348 4.81731 21.2928 5.67316 22.1636 6.66416C22.2072 6.7092 22.2507 6.75425 22.2943 6.79929C22.3378 6.88938 22.4249 6.97947 22.3814 7.06956C22.3378 7.15965 22.2072 7.15965 22.1201 7.15965C21.5976 7.15965 21.2057 7.15965 20.7703 7.15965Z" fill="#FF713C"/>
<path d="M6.40084 7.15965C6.00895 7.15965 5.61705 7.15965 5.22516 7.15965C5.09453 7.15965 4.9639 7.2047 4.87681 7.06956C4.83327 6.93442 4.9639 6.84433 5.05099 6.75424C5.48642 6.2137 5.9654 5.71821 6.48792 5.26776C7.31525 4.54704 8.22967 3.96145 9.23117 3.511C9.3618 3.42091 9.53597 3.37587 9.6666 3.33082C9.75369 3.28578 9.84078 3.24073 9.92786 3.33082C10.015 3.42091 9.92786 3.511 9.84078 3.60109C9.18762 4.50199 8.62156 5.40289 8.27321 6.48397C8.05549 7.1146 7.75069 7.29479 7.14108 7.2047C6.87982 7.11461 6.6621 7.15965 6.40084 7.15965Z" fill="#FF713C"/>
<path d="M6.40162 20.9434C6.83706 20.9434 7.22895 20.9434 7.66439 20.9434C7.8821 20.9434 8.01274 21.0334 8.09982 21.2587C8.53526 22.4749 9.10132 23.601 9.88511 24.592C9.92865 24.6371 9.97219 24.7271 9.92865 24.8172C9.88511 24.9073 9.75448 24.8623 9.66739 24.8623C9.18841 24.7271 8.75298 24.5019 8.36108 24.2767C7.09832 23.556 6.00973 22.6551 5.09532 21.5289C5.00823 21.3938 4.79051 21.2587 4.8776 21.1235C4.96469 20.9434 5.13886 21.0334 5.31304 21.0334C5.66138 20.9434 6.05328 20.9434 6.40162 20.9434Z" fill="#FF713C"/>
</svg>
