<svg width="16" height="15" viewBox="0 0 16 15" fill="none" xmlns="http://www.w3.org/2000/svg">
<path d="M14.0594 13.2486V13.4856H11.0832V13.2486C11.0832 13.0115 11.3213 12.7744 11.5594 12.7744H13.4641C13.8213 12.7744 14.0594 13.0115 14.0594 13.2486Z" fill="#787777"/>
<path d="M3.58311 6.01855H2.15454V12.3009H3.58311V6.01855Z" fill="#787777"/>
<path d="M8.46391 6.01855H7.03534V12.3009H8.46391V6.01855Z" fill="#787777"/>
<path d="M8.70224 5.54421H6.79748C6.55938 5.54421 6.32129 5.30715 6.32129 5.07008V4.83301H9.17843V5.07008C9.17843 5.30715 8.94034 5.54421 8.70224 5.54421Z" fill="#787777"/>
<path d="M6.32129 13.2486C6.32129 13.0115 6.55938 12.7744 6.79748 12.7744H8.70224C8.94034 12.7744 9.17843 13.0115 9.17843 13.2486V13.4856H6.32129V13.2486Z" fill="#787777"/>
<path d="M13.3452 6.01855H11.9166V12.3009H13.3452V6.01855Z" fill="#787777"/>
<path d="M14.0594 5.07008C14.0594 5.30715 13.8213 5.54421 13.5832 5.54421H11.5594C11.3213 5.54421 11.0832 5.30715 11.0832 5.07008V4.83301H14.0594V5.07008Z" fill="#787777"/>
<path d="M1.20242 4.35904H0.845276L7.75004 0.0917969L14.6548 4.35904H14.2977H10.8453H9.41671H6.08337H4.6548H1.20242Z" fill="#787777"/>
<path d="M1.44055 5.07008V4.83301H4.2977V5.07008C4.2977 5.30715 4.0596 5.54421 3.8215 5.54421H1.91674C1.67865 5.54421 1.44055 5.30715 1.44055 5.07008Z" fill="#787777"/>
<path d="M1.44055 13.2486C1.44055 13.0115 1.67865 12.7744 1.91674 12.7744H3.8215C4.0596 12.7744 4.2977 13.0115 4.2977 13.2486V13.4856H1.44055V13.2486Z" fill="#787777"/>
<path d="M15.25 14.9082H0.25V14.4341C0.25 14.197 0.488095 13.96 0.72619 13.96H1.20238H4.53571H5.96429H9.29762H10.7262H14.0595H14.5357C14.7738 13.96 15.0119 14.197 15.0119 14.4341V14.9082H15.25Z" fill="#787777"/>
<path d="M7.74992 3.64803C8.40741 3.64803 8.9404 3.11734 8.9404 2.46269C8.9404 1.80804 8.40741 1.27734 7.74992 1.27734C7.09244 1.27734 6.55945 1.80804 6.55945 2.46269C6.55945 3.11734 7.09244 3.64803 7.74992 3.64803Z" fill="#787777"/>
<path d="M7.74963 3.17339C8.14411 3.17339 8.46391 2.85497 8.46391 2.46218C8.46391 2.0694 8.14411 1.75098 7.74963 1.75098C7.35514 1.75098 7.03534 2.0694 7.03534 2.46218C7.03534 2.85497 7.35514 3.17339 7.74963 3.17339Z" fill="white"/>
</svg>
