<svg width="40" height="32" viewBox="0 0 40 32" fill="none" xmlns="http://www.w3.org/2000/svg">
<g clip-path="url(#clip0)">
<path fill-rule="evenodd" clip-rule="evenodd" d="M0.0498047 0.799805C0.0498047 0.385591 0.385591 0.0498047 0.799805 0.0498047H33.7998C34.214 0.0498047 34.5498 0.385591 34.5498 0.799805V6.7998C34.5498 7.21402 34.214 7.5498 33.7998 7.5498C33.3856 7.5498 33.0498 7.21402 33.0498 6.7998V1.5498H1.5498V21.0498H17.7998C18.214 21.0498 18.5498 21.3856 18.5498 21.7998C18.5498 22.214 18.214 22.5498 17.7998 22.5498H0.799805C0.385591 22.5498 0.0498047 22.214 0.0498047 21.7998V0.799805Z" fill="#FF713C"/>
<path fill-rule="evenodd" clip-rule="evenodd" d="M37.4696 11.1302C36.6625 10.3231 35.4374 10.3231 34.6302 11.1302L22.1302 23.6302C21.0158 24.7447 20.2066 26.1112 19.9385 27.6302C19.9355 27.6476 19.9318 27.6648 19.9275 27.6818L19.7305 28.4698L19.7929 28.5322L19.8109 28.5503L19.9111 28.6504L20.0296 28.7689L20.818 28.5723C20.8325 28.5687 20.847 28.5655 20.8617 28.5627C22.2957 28.2939 23.7632 27.476 24.8696 26.3696L24.8717 26.3675L37.4696 13.8696C37.4699 13.8693 37.4702 13.8689 37.4705 13.8686C37.8351 13.5035 38.0499 12.9925 38.0499 12.4999C38.0499 12.0069 37.8348 11.4954 37.4696 11.1302ZM33.5696 10.0696C34.9625 8.67668 37.1374 8.67668 38.5302 10.0696C39.1651 10.7044 39.5499 11.5929 39.5499 12.4999C39.5499 13.4069 39.1651 14.2954 38.5302 14.9302L38.5281 14.9323L25.9302 27.4302C25.9299 27.4305 25.9296 27.4309 25.9293 27.4312C24.6413 28.7188 22.9185 29.6976 21.1607 30.0328L19.9818 30.3275C19.7262 30.3914 19.4559 30.3165 19.2696 30.1302L18.9069 29.7676L18.8889 29.7495L18.7888 29.6494L18.3696 29.2302C18.1833 29.0439 18.1084 28.7736 18.1723 28.518L18.4661 27.343C18.8026 25.4732 19.7901 23.8491 21.0696 22.5696L33.5696 10.0696Z" fill="#FF713C"/>
<path d="M37 15L33.5 11.5L26.5 18L30.5 22L37 15Z" fill="#FF713C" stroke="#FF713C" stroke-linecap="round" stroke-linejoin="round"/>
<path fill-rule="evenodd" clip-rule="evenodd" d="M32.6694 10.7695C32.9623 10.4766 33.4371 10.4766 33.73 10.7695L37.63 14.6695C37.9229 14.9624 37.9229 15.4372 37.63 15.7301C37.3371 16.023 36.8623 16.023 36.5694 15.7301L32.6694 11.8301C32.3765 11.5372 32.3765 11.0624 32.6694 10.7695Z" fill="#FF713C"/>
<path fill-rule="evenodd" clip-rule="evenodd" d="M25.8696 17.5693C26.1625 17.2764 26.6373 17.2764 26.9302 17.5693L30.8302 21.4693C31.1231 21.7622 31.1231 22.237 30.8302 22.5299C30.5373 22.8228 30.0625 22.8228 29.7696 22.5299L25.8696 18.6299C25.5767 18.337 25.5767 17.8622 25.8696 17.5693Z" fill="#FF713C"/>
<path fill-rule="evenodd" clip-rule="evenodd" d="M37.8899 16.5523C37.544 16.2879 37.1085 16.3521 36.9303 16.5303L36.4 16L36.9303 16.5303L35.3303 18.1303C35.0374 18.4232 34.5626 18.4232 34.2697 18.1303C33.9768 17.8375 33.9768 17.3626 34.2697 17.0697L35.8697 15.4697C36.6863 14.6531 38.0305 14.7158 38.8801 15.4239C38.8976 15.4384 38.9143 15.4537 38.9303 15.4697C39.7469 16.2863 39.6842 17.6305 38.9762 18.4802C38.9617 18.4976 38.9464 18.5143 38.9303 18.5303L33.0303 24.4303C32.7374 24.7232 32.2626 24.7232 31.9697 24.4303C31.6768 24.1375 31.6768 23.6626 31.9697 23.3697L37.842 17.4973C38.1026 17.1637 38.0536 16.7437 37.8899 16.5523Z" fill="#FF713C"/>
<path fill-rule="evenodd" clip-rule="evenodd" d="M19.8137 28.5535C20.1154 28.8373 20.1297 29.312 19.8459 29.6136L18.2459 31.3136C17.962 31.6153 17.4873 31.6296 17.1857 31.3458C16.8841 31.0619 16.8697 30.5872 17.1536 30.2856L18.7536 28.5856C19.0374 28.284 19.5121 28.2696 19.8137 28.5535Z" fill="#FF713C"/>
<path fill-rule="evenodd" clip-rule="evenodd" d="M14.0498 9.7998C14.0498 9.38559 14.3856 9.0498 14.7998 9.0498H29.7998C30.214 9.0498 30.5498 9.38559 30.5498 9.7998C30.5498 10.214 30.214 10.5498 29.7998 10.5498H14.7998C14.3856 10.5498 14.0498 10.214 14.0498 9.7998Z" fill="#FF713C"/>
<path fill-rule="evenodd" clip-rule="evenodd" d="M14.0498 5.7998C14.0498 5.38559 14.3856 5.0498 14.7998 5.0498H23.7998C24.214 5.0498 24.5498 5.38559 24.5498 5.7998C24.5498 6.21402 24.214 6.5498 23.7998 6.5498H14.7998C14.3856 6.5498 14.0498 6.21402 14.0498 5.7998Z" fill="#FF713C"/>
<path fill-rule="evenodd" clip-rule="evenodd" d="M14.0498 13.7998C14.0498 13.3856 14.3856 13.0498 14.7998 13.0498H24.7998C25.214 13.0498 25.5498 13.3856 25.5498 13.7998C25.5498 14.214 25.214 14.5498 24.7998 14.5498H14.7998C14.3856 14.5498 14.0498 14.214 14.0498 13.7998Z" fill="#FF713C"/>
<path d="M6.71282 10.0001L5.76782 8.6351H5.71182H4.72482V10.0001H3.59082V5.1001H5.71182C6.14582 5.1001 6.52149 5.17243 6.83882 5.3171C7.16082 5.46176 7.40815 5.6671 7.58082 5.9331C7.75349 6.1991 7.83982 6.5141 7.83982 6.8781C7.83982 7.2421 7.75115 7.5571 7.57382 7.8231C7.40115 8.08443 7.15382 8.2851 6.83182 8.4251L7.93082 10.0001H6.71282ZM6.69182 6.8781C6.69182 6.60276 6.60315 6.39276 6.42582 6.2481C6.24849 6.09876 5.98949 6.0241 5.64882 6.0241H4.72482V7.7321H5.64882C5.98949 7.7321 6.24849 7.65743 6.42582 7.5081C6.60315 7.35876 6.69182 7.14876 6.69182 6.8781Z" fill="#FF713C"/>
<path d="M10.8873 6.1781C11.2373 6.1781 11.5546 6.25976 11.8393 6.4231C12.1286 6.58176 12.3549 6.8081 12.5183 7.1021C12.6816 7.39143 12.7633 7.72976 12.7633 8.1171C12.7633 8.50443 12.6816 8.8451 12.5183 9.1391C12.3549 9.42843 12.1286 9.65476 11.8393 9.8181C11.5546 9.97676 11.2373 10.0561 10.8873 10.0561C10.4066 10.0561 10.0286 9.90443 9.75328 9.6011V11.3581H8.66128V6.2341H9.70428V6.6681C9.97495 6.34143 10.3693 6.1781 10.8873 6.1781ZM10.6983 9.1601C10.9783 9.1601 11.2069 9.06676 11.3843 8.8801C11.5663 8.68876 11.6573 8.43443 11.6573 8.1171C11.6573 7.79976 11.5663 7.54776 11.3843 7.3611C11.2069 7.16976 10.9783 7.0741 10.6983 7.0741C10.4183 7.0741 10.1873 7.16976 10.0053 7.3611C9.82795 7.54776 9.73928 7.79976 9.73928 8.1171C9.73928 8.43443 9.82795 8.68876 10.0053 8.8801C10.1873 9.06676 10.4183 9.1601 10.6983 9.1601Z" fill="#FF713C"/>
</g>
<defs>
<clipPath id="clip0">
<rect width="39.5" height="31.5" fill="white"/>
</clipPath>
</defs>
</svg>
