<svg width="21" height="37" viewBox="0 0 21 37" fill="none" xmlns="http://www.w3.org/2000/svg">
<path d="M21 10.0284C21 6.23157 19.3311 3.20813 16.202 1.45032C12.7947 -0.448122 8.2053 -0.518435 4.79801 1.45032C1.73841 3.20813 0 6.23157 0 10.0284C0 13.5441 1.59934 16.4269 3.33775 19.4503C4.38079 21.3488 5.42384 23.2472 6.11921 25.3566C5.63245 25.5675 5.28477 26.0597 5.28477 26.6222V28.0988C5.28477 28.5909 5.56291 29.0831 5.98013 29.2941V32.9503C5.98013 34.0753 6.95364 35.0597 8.13576 35.0597H8.41391C8.76159 35.6222 9.45695 36.0441 10.3609 36.0441C11.1954 36.0441 11.9603 35.6222 12.3079 35.0597H12.5166C13.6987 35.0597 14.6722 34.1456 14.6722 32.9503V29.505C15.298 29.3644 15.7848 28.8019 15.7848 28.1691V26.6925C15.7848 26.13 15.4371 25.6378 14.9503 25.4269C15.6457 23.3175 16.6887 21.4191 17.7318 19.5206C19.4007 16.4269 21 13.5441 21 10.0284ZM13.2815 32.88C13.2815 33.3019 12.9338 33.5831 12.5166 33.5831H8.13576C7.71854 33.5831 7.37086 33.2316 7.37086 32.88V32.8097H11.404C11.7517 32.8097 12.0993 32.5284 12.0993 32.1066C12.0993 31.6847 11.8212 31.4034 11.404 31.4034H7.37086V30.9816H11.404C11.7517 30.9816 12.0993 30.7003 12.0993 30.2784C12.0993 29.8566 11.8212 29.5753 11.404 29.5753H7.37086V29.3644H13.2815V32.88V32.88ZM6.6755 26.6222H14.394V28.0988H6.6755V26.6222ZM7.50993 25.2159C6.81457 22.8956 5.63245 20.7863 4.51987 18.7472C2.92053 15.9347 1.39073 13.1925 1.39073 10.0284C1.39073 6.72375 2.85099 4.12219 5.49338 2.57532C8.48344 0.887815 12.5166 0.887815 15.5066 2.57532C18.149 4.12219 19.6093 6.72375 19.6093 9.95813C19.6093 13.1222 18.0795 15.8644 16.4801 18.7472C15.3676 20.7863 14.1854 22.8253 13.4901 25.1456H7.50993V25.2159ZM10.3609 35.3409C9.94371 35.3409 9.59603 35.2003 9.31788 35.0597H11.3344C11.0563 35.2003 10.7086 35.3409 10.3609 35.3409Z" fill="#FF713C"/>
<path d="M9.22957 11C9.64995 11 10.2105 11 10.6308 11C11.0512 11 11.1914 11.1565 11.3315 11.6259C12.0321 13.6603 12.7328 15.6946 13.4334 17.7289C13.7136 18.6679 13.5735 18.8243 12.7328 18.8243C12.0321 18.8243 11.3315 18.8243 10.6308 18.8243C10.2105 18.8243 10.0703 18.9808 10.2105 19.4503C10.771 21.0152 11.3315 22.4235 11.7519 23.9884C11.892 24.3014 12.1722 24.7708 11.7519 25.0838C11.3315 25.3968 11.1914 24.7708 11.0512 24.4579C9.50982 21.9541 7.8283 19.6068 6.28689 17.103C5.86651 16.477 5.86651 16.3206 6.56715 16.1641C7.12766 16.0076 7.68817 16.1641 8.24868 16.1641C8.66906 16.1641 8.66906 16.0076 8.52893 15.5381C8.10855 14.2862 7.68817 13.0343 7.26779 11.7824C7.12766 11.1565 7.26779 11 7.82829 11C8.24868 11 8.80919 11 9.22957 11Z" fill="#FF713C"/>
</svg>
