<svg width="23" height="41" viewBox="0 0 23 41" fill="none" xmlns="http://www.w3.org/2000/svg">
<path d="M19.4124 0.168945H2.98652C1.34393 0.168945 0 1.77361 0 3.6992V6.74805V33.5459V36.5947C0 38.6808 1.34393 40.2854 2.83719 40.2854H19.263C20.9056 40.2854 22.1002 38.6808 22.1002 36.5947V33.5459V6.90852V3.6992C22.2496 1.77361 20.9056 0.168945 19.4124 0.168945Z" fill="#FF713C"/>
<path d="M2.83675 1.45166H19.2626C20.3079 1.45166 21.2038 2.57492 21.2038 3.85865V6.26564H0.895508V3.69818C0.895508 2.41446 1.79146 1.45166 2.83675 1.45166Z" fill="#FF713C"/>
<path d="M21.2038 7.5498H0.895508V33.0639H21.2038V7.5498Z" fill="white"/>
<path d="M19.412 39.1621H2.98616C1.94088 39.1621 1.04492 38.0389 1.04492 36.7551V34.3481H21.3533V36.7551C21.2039 38.0389 20.4573 39.1621 19.412 39.1621Z" fill="#FF713C"/>
<path d="M8.66136 4.34015H13.4398C13.7384 4.34015 13.8878 4.01939 13.8878 3.69864C13.8878 3.37788 13.7384 3.05713 13.4398 3.05713H8.66136C8.36271 3.05713 8.21338 3.37788 8.21338 3.69864C8.21338 4.17977 8.36271 4.34015 8.66136 4.34015Z" fill="white"/>
<circle cx="11.1113" cy="37" r="2" fill="white"/>
<path d="M11.7649 12H11.0183C7.13584 12.1605 4 15.6907 4 20.0233C4 24.1954 7.13584 27.7257 11.0183 28.0466H11.7649C15.7967 27.8861 18.9326 24.3559 18.9326 20.0233C18.9326 15.5303 15.7967 12.1605 11.7649 12ZM16.6927 15.2093C16.0954 15.6907 15.6474 16.0117 15.0501 16.3326C14.4528 14.8884 13.7062 13.6047 12.6609 12.6419C14.3035 12.9628 15.6474 13.7651 16.6927 15.2093ZM11.7649 12.6419C12.9596 13.6047 13.8555 14.8884 14.4528 16.3326C13.5569 16.6535 12.6609 16.814 11.7649 16.814V12.6419ZM11.7649 17.6163C12.8102 17.6163 13.7062 17.4558 14.6021 16.9744C14.9008 17.9372 15.0501 18.9 15.0501 19.8628H11.7649V17.6163ZM11.7649 20.5047H15.0501C15.0501 21.4675 14.7515 22.4303 14.4528 23.2326C13.5569 22.9117 12.6609 22.7512 11.7649 22.7512V20.5047ZM10.2717 12.6419C9.22641 13.6047 8.47978 14.7279 8.0318 16.0117C7.4345 15.8512 6.83719 15.3698 6.38921 15.0489C7.4345 13.7651 8.77843 12.9628 10.2717 12.6419ZM6.09056 15.5303C6.68787 16.0117 7.28517 16.3326 7.88247 16.6535C7.58382 17.6163 7.4345 18.7396 7.4345 19.8628H4.89596C4.74663 18.2582 5.19461 16.814 6.09056 15.5303ZM6.23989 24.5163C5.34393 23.3931 4.74663 21.9489 4.74663 20.3442H7.28517C7.28517 21.4675 7.58382 22.4303 7.88247 23.3931C7.28517 23.8745 6.83719 24.1954 6.23989 24.5163ZM6.68787 24.9977C7.13584 24.6768 7.73315 24.3559 8.18113 24.035C8.6291 25.1582 9.37573 26.121 10.2717 27.0838C8.92776 26.9233 7.58382 26.121 6.68787 24.9977ZM11.1676 27.2443C10.1224 26.2815 9.22641 25.1582 8.6291 23.8745C9.37573 23.5536 10.2717 23.3931 11.1676 23.3931V27.2443ZM11.1676 22.7512C10.2717 22.7512 9.22641 23.0722 8.33045 23.3931C8.0318 22.4303 7.73315 21.4675 7.73315 20.5047H11.1676V22.7512ZM11.1676 19.8628H7.73315C7.73315 18.9 7.88247 17.9372 8.18113 16.9744C9.07708 17.2954 10.1224 17.6163 11.1676 17.6163V19.8628ZM11.1676 16.9744C10.2717 16.9744 9.37573 16.6535 8.47978 16.3326C9.07708 14.8884 9.97304 13.6047 11.1676 12.6419V16.9744ZM11.7649 27.0838V23.2326C12.6609 23.2326 13.4075 23.3931 14.3035 23.714C13.7062 24.9977 12.8102 26.2815 11.7649 27.0838ZM12.6609 27.0838C13.5569 26.121 14.3035 25.1582 14.9008 23.8745C15.4981 24.1954 16.0954 24.5163 16.5434 24.8373C15.4981 26.121 14.1542 26.9233 12.6609 27.0838ZM16.842 24.5163C16.2447 24.0349 15.6474 23.714 15.0501 23.3931C15.3488 22.4303 15.6474 21.4675 15.6474 20.3442H18.3353C18.186 21.9489 17.738 23.3931 16.842 24.5163ZM18.3353 19.8628H15.6474C15.6474 18.7396 15.4981 17.7768 15.1994 16.814C15.7967 16.493 16.5434 16.1721 16.9914 15.6907C17.8873 16.814 18.3353 18.2582 18.3353 19.8628Z" fill="#FF713C"/>
</svg>
