<svg width="40" height="40" viewBox="0 0 40 40" fill="none" xmlns="http://www.w3.org/2000/svg">
<rect width="40" height="40" rx="8" fill="#F6F6F6"/>
<path fill-rule="evenodd" clip-rule="evenodd" d="M29.4422 16.4458C28.4301 15.3041 27.0548 14.6034 25.5497 14.4218C25.3421 14.3958 25.1345 14.3958 24.9269 14.3958C23.4997 14.3958 22.0984 14.9148 21.0086 15.849C21.5016 16.4718 21.8649 17.1724 22.1503 17.899C22.2801 18.2104 22.3579 18.5477 22.4358 18.8591C22.8769 18.2104 23.5257 17.7693 24.2522 17.6136C25.0048 17.4579 25.7573 17.5617 26.432 17.9509C26.8213 18.1845 27.1327 18.4958 27.3921 18.8591C27.7554 19.4041 27.9371 20.0269 27.9371 20.7016C27.9111 21.3503 27.7035 21.9731 27.2883 22.4921L26.7953 22.9851L23.3181 26.5402L20.1263 29.7839L18.3876 28.0193L16.2079 30.225L20.1003 34.1953L22.2801 31.9896L28.8453 25.2946L28.8713 25.2687L29.4941 24.6199L29.546 24.568C30.4801 23.4522 30.9991 22.025 30.9991 20.5718C31.0251 19.0667 30.4542 17.5876 29.4422 16.4458Z" fill="#229BD8"/>
<path fill-rule="evenodd" clip-rule="evenodd" d="M17.4795 27.1112L19.2441 25.2948L19.9187 24.6201C19.9966 24.5422 20.0485 24.4644 20.1263 24.3606C20.9308 23.2707 21.3719 21.9473 21.3719 20.5979C21.3719 20.027 21.2941 19.4821 21.1384 18.9371C20.9048 18.0548 20.4637 17.2245 19.8668 16.5238C19.27 15.8232 18.5175 15.2782 17.6871 14.9149C16.8567 14.5516 15.9485 14.37 15.0402 14.4219C14.132 14.4738 13.2497 14.7073 12.4453 15.1485C11.6408 15.5896 10.9402 16.1865 10.4212 16.939C9.90222 17.6915 9.51297 18.5479 9.35728 19.4561C9.17563 20.3643 9.22753 21.2985 9.46108 22.2068C9.69462 23.115 10.1358 23.9454 10.7067 24.646L11.3813 25.3207L13.1459 27.1372L15.3257 29.3429L16.4934 28.1492L17.4795 27.1112ZM13.4314 23.0112L12.9383 22.4922C12.601 22.0511 12.3674 21.5061 12.3155 20.9352C12.2636 20.3643 12.3674 19.7935 12.601 19.2745C12.8605 18.7555 13.2238 18.3143 13.7168 18.0289C14.1839 17.7175 14.7548 17.5618 15.3257 17.5618C15.8966 17.5618 16.4415 17.7175 16.9086 18.0289C17.3757 18.3403 17.7649 18.7814 17.9985 19.3004C18.232 19.8194 18.3358 20.3903 18.258 20.9612C18.1801 21.5321 17.9725 22.077 17.6092 22.5182L17.1421 22.9852L15.2478 24.9055L13.4314 23.0112Z" fill="#229BD8"/>
<path fill-rule="evenodd" clip-rule="evenodd" d="M13.6653 13.0728C14.0546 13.2285 14.4698 13.3063 14.859 13.2804C15.2483 13.2544 15.6635 13.1766 16.0527 12.9949C16.5717 12.7354 17.0128 12.3462 17.3242 11.8532C17.6356 11.3601 17.7913 10.7633 17.7913 10.1924C17.7913 9.62151 17.6356 9.07657 17.3502 8.58353C17.0647 8.09048 16.6495 7.70125 16.1565 7.44175C15.6635 7.18226 15.1185 7.0525 14.5476 7.07845C14.0027 7.1044 13.4577 7.28605 12.9906 7.6234C12.5236 7.93479 12.1603 8.37593 11.9267 8.89492C11.6932 9.41391 11.6153 9.9848 11.6672 10.5297C11.7191 11.1006 11.9527 11.6196 12.29 12.0608C12.7052 12.5279 13.1463 12.8652 13.6653 13.0728Z" fill="#229BD8"/>
<path fill-rule="evenodd" clip-rule="evenodd" d="M23.5777 12.5793C24.1227 13.0204 24.7714 13.254 25.4721 13.2799C26.1468 13.2799 26.8214 13.0464 27.3664 12.6312C27.548 12.4755 27.7297 12.2938 27.8854 12.1122C28.3006 11.5672 28.5341 10.8926 28.5341 10.1919C28.5341 9.49128 28.3006 8.81659 27.8854 8.27165C27.4702 7.72671 26.8733 7.33747 26.1987 7.18177C25.524 7.02608 24.8233 7.10392 24.2005 7.38937C23.5777 7.70076 23.0847 8.1938 22.7733 8.81659C22.4619 9.43938 22.3841 10.166 22.5398 10.8407C22.6695 11.5153 23.0328 12.1381 23.5777 12.5793Z" fill="#229BD8"/>
</svg>
