<svg width="39" height="33" viewBox="0 0 39 33" fill="none" xmlns="http://www.w3.org/2000/svg">
<path d="M24 9C24 8.73478 23.9078 8.48043 23.7437 8.29289C23.5796 8.10536 23.3571 8 23.125 8H3.875C3.64294 8 3.42038 8.10536 3.25628 8.29289C3.09219 8.48043 3 8.73478 3 9V10H24V9Z" fill="#F15A23"/>
<path d="M26 11.5C26 11.3674 25.9097 11.2402 25.7489 11.1464C25.5882 11.0527 25.3702 11 25.1429 11H2.85714C2.62981 11 2.4118 11.0527 2.25105 11.1464C2.09031 11.2402 2 11.3674 2 11.5V12H26V11.5Z" fill="#F15A23"/>
<path d="M26.355 13H1.645C1.20872 13 0.790307 13.1801 0.481809 13.5006C0.173312 13.8211 0 14.2558 0 14.7091V31.2909C0 31.7442 0.173312 32.1789 0.481809 32.4994C0.790307 32.8199 1.20872 33 1.645 33H26.355C26.7913 33 27.2097 32.8199 27.5182 32.4994C27.8267 32.1789 28 31.7442 28 31.2909V14.7091C28 14.2558 27.8267 13.8211 27.5182 13.5006C27.2097 13.1801 26.7913 13 26.355 13ZM5.74 16.1364C6.25918 16.1364 6.76669 16.2963 7.19837 16.596C7.63005 16.8957 7.9665 17.3216 8.16518 17.82C8.36386 18.3183 8.41585 18.8667 8.31456 19.3957C8.21327 19.9247 7.96327 20.4107 7.59616 20.7921C7.22904 21.1735 6.76131 21.4333 6.25211 21.5385C5.74291 21.6437 5.21511 21.5897 4.73546 21.3833C4.2558 21.1769 3.84583 20.8273 3.55739 20.3788C3.26895 19.9303 3.115 19.403 3.115 18.8636C3.115 18.1403 3.39156 17.4466 3.88384 16.9352C4.37613 16.4237 5.04381 16.1364 5.74 16.1364ZM24.5 29.3636H3.5L10.0275 22.5727C10.1439 22.4528 10.3011 22.3855 10.465 22.3855C10.6289 22.3855 10.7861 22.4528 10.9025 22.5727L14.1225 25.9182L18.5588 21.1818C18.6751 21.0619 18.8324 20.9946 18.9963 20.9946C19.1601 20.9946 19.3174 21.0619 19.4338 21.1818L24.5 26.4455V29.3636Z" fill="#F15A23"/>
<path d="M38.2999 8.14997C38.2999 10.3115 37.4413 12.3845 35.9129 13.9129C34.3845 15.4413 32.3115 16.2999 30.15 16.2999C27.9885 16.2999 25.9155 15.4413 24.3871 13.9129C22.8587 12.3845 22 10.3115 22 8.14997C22 5.98847 22.8587 3.91549 24.3871 2.38707C25.9155 0.858656 27.9885 0 30.15 0C32.3115 0 34.3845 0.858656 35.9129 2.38707C37.4413 3.91549 38.2999 5.98847 38.2999 8.14997ZM26.075 8.14997C26.075 8.28507 26.1287 8.41463 26.2242 8.51016C26.3197 8.60568 26.4493 8.65935 26.5844 8.65935H29.6406V11.7156C29.6406 11.8507 29.6943 11.9802 29.7898 12.0758C29.8853 12.1713 30.0149 12.225 30.15 12.225C30.2851 12.225 30.4146 12.1713 30.5102 12.0758C30.6057 11.9802 30.6593 11.8507 30.6593 11.7156V8.65935H33.7156C33.8507 8.65935 33.9802 8.60568 34.0758 8.51016C34.1713 8.41463 34.225 8.28507 34.225 8.14997C34.225 8.01488 34.1713 7.88532 34.0758 7.78979C33.9802 7.69427 33.8507 7.6406 33.7156 7.6406H30.6593V4.58436C30.6593 4.44927 30.6057 4.31971 30.5102 4.22418C30.4146 4.12865 30.2851 4.07499 30.15 4.07499C30.0149 4.07499 29.8853 4.12865 29.7898 4.22418C29.6943 4.31971 29.6406 4.44927 29.6406 4.58436V7.6406H26.5844C26.4493 7.6406 26.3197 7.69427 26.2242 7.78979C26.1287 7.88532 26.075 8.01488 26.075 8.14997Z" fill="#F15A23"/>
</svg>
