<svg width="31" height="31" viewBox="0 0 31 31" fill="none" xmlns="http://www.w3.org/2000/svg">
<rect width="31" height="31" rx="15.5" fill="#F15A23"/>
<path d="M31 0H0V31H31V0Z" fill="#FE0000"/>
<path d="M13.1303 12.168C13.1085 11.9932 13.1522 11.7966 13.1959 11.6218C13.3488 10.4421 13.5236 9.28426 13.6983 8.10456C13.7202 7.92979 13.742 7.75502 13.7857 7.58025C13.8731 7.16516 14.1789 6.99039 14.5722 6.9467C15.4023 6.85931 16.2325 6.77193 17.0627 6.92485C17.6962 7.03409 18.2424 7.31809 18.5045 7.97348C18.7011 8.4541 18.6793 8.93472 18.6138 9.43719C18.5045 10.3329 18.3516 11.2286 18.2424 12.1025C18.2205 12.3209 18.1331 12.4083 17.9147 12.4083C17.4996 12.3865 17.0845 12.4083 16.6694 12.4083C16.4073 12.4083 16.3854 12.3646 16.4073 12.1243C16.5384 11.1849 16.6694 10.2674 16.8005 9.3498C16.9097 8.58518 16.6257 8.27933 15.8611 8.32302C15.446 8.34487 15.446 8.34487 15.4023 8.7381C15.2494 9.87412 15.0965 10.9883 14.9436 12.1243C14.8999 12.3865 14.8999 12.3865 14.6814 12.2335C14.2445 11.9495 13.8076 11.9277 13.3269 12.1461C13.2396 12.1243 13.2177 12.1898 13.1303 12.168Z" fill="#FEFEFE"/>
<path d="M26.8289 23.5279C24.9938 23.6589 23.1369 23.79 21.3018 23.9211C18.1778 24.1396 15.0756 24.4891 11.9953 24.9479C10.466 25.1663 8.95861 25.4722 7.42937 25.7999C6.86136 25.931 6.3152 26.1276 5.76904 26.2805C5.57242 26.3242 5.39765 26.3679 5.20104 26.4116C5.06996 26.4334 4.91703 26.4553 4.78596 26.3897C4.26164 26.1276 3.75918 25.8654 3.23486 25.5814C3.47517 25.4503 3.73733 25.3848 3.97764 25.3411C4.85149 25.1663 5.72535 25.0134 6.5992 24.8386C7.73522 24.6202 8.87123 24.4454 10.0072 24.2706C11.034 24.1177 12.0608 23.9866 13.0876 23.8774C14.0488 23.7682 15.0319 23.6808 15.9931 23.5716C16.3645 23.5279 16.7578 23.5279 17.1292 23.4842C17.8938 23.4405 18.6802 23.3968 19.4449 23.3531C21.3018 23.2439 23.1588 23.2439 25.0157 23.2876C25.6274 23.3094 26.2391 23.3312 26.8508 23.3749C26.96 23.4405 27.0911 23.3531 27.2222 23.4405C27.1129 23.5716 26.96 23.4623 26.8289 23.5279Z" fill="#FDFDFD"/>
<path d="M7.75653 12.3864C7.3196 12.3646 6.72975 12.4301 6.16175 12.3646C5.2442 12.2335 4.76358 11.6437 4.85096 10.7043C4.9165 10.027 5.02573 9.34978 5.11312 8.67255C5.2442 7.64577 5.39712 6.61898 5.55005 5.57036C5.61559 5.17712 5.61559 5.15527 6.03067 5.15527C6.4239 5.15527 6.81714 5.15527 7.23222 5.15527C7.47253 5.15527 7.51622 5.19897 7.47253 5.43928C7.27591 6.77191 7.10114 8.10454 6.90452 9.43717C6.86083 9.69933 6.81714 9.96148 6.79529 10.2455C6.77345 10.595 6.88268 10.7261 7.23222 10.7261C7.99684 10.7261 8.76147 10.7261 9.52609 10.7261C9.89748 10.7261 9.89748 10.7261 9.85378 11.0975C9.81009 11.4252 9.7664 11.731 9.7227 12.0587C9.67901 12.3209 9.63532 12.3864 9.37316 12.3864C8.8707 12.3864 8.36823 12.3864 7.75653 12.3864Z" fill="#FEFEFE"/>
<path d="M13.5034 15.0956C13.7218 15.0956 13.9403 15.0956 14.1587 15.0956C14.3335 15.0956 14.3772 15.1393 14.3554 15.314C14.1587 16.7122 13.9621 18.0885 13.7874 19.4867C13.7437 19.8581 13.6781 20.2295 13.5907 20.6009C13.3067 21.6495 12.6295 22.3049 11.6246 22.6326C11.4498 22.6981 11.275 22.7418 11.1003 22.7855C10.9473 22.8292 10.8381 22.8074 10.7726 22.6326C10.6633 22.3049 10.5541 21.9772 10.423 21.6495C10.3575 21.4529 10.423 21.3218 10.6196 21.2781C10.9255 21.1907 11.2095 21.0378 11.4279 20.8193C11.7119 20.5572 11.8649 20.2513 11.9086 19.8799C12.1052 18.5036 12.28 17.1273 12.4984 15.7291C12.6077 15.0082 12.4766 15.0956 13.2412 15.0737C13.3286 15.0956 13.416 15.0956 13.5034 15.0956Z" fill="#FEFEFE"/>
<path d="M19.9908 12.3865C19.7942 12.3865 19.6194 12.3865 19.4228 12.3865C19.0951 12.3865 19.0732 12.3428 19.1169 12.0151C19.2043 11.3379 19.3135 10.6825 19.4009 10.0052C19.6412 8.3886 19.8815 6.75012 20.1 5.13349C20.1219 4.91502 20.2311 4.82764 20.4277 4.82764C20.8428 4.82764 21.2579 4.82764 21.6948 4.82764C21.8696 4.82764 21.9351 4.87133 21.9133 5.08979C21.5856 7.38366 21.2579 9.65569 20.9302 11.9496C20.9302 12.0151 20.9083 12.0806 20.9083 12.1462C20.9083 12.3209 20.7991 12.3865 20.6243 12.3865C20.4277 12.3865 20.2092 12.3865 19.9908 12.3865Z" fill="#FEFEFE"/>
<path d="M24.1854 13.3481C23.967 13.3481 23.7485 13.3481 23.53 13.3481C23.3771 13.3481 23.2679 13.2825 23.2023 13.1296C22.6562 11.9062 22.0882 10.6828 21.542 9.45944C21.4765 9.32836 21.4983 9.24098 21.5857 9.13174C22.0882 8.52005 22.5906 7.93019 23.0931 7.3185C23.2679 7.12188 23.4645 7.01265 23.7266 7.03449C24.1636 7.03449 24.6005 7.03449 25.0374 7.03449C25.1248 7.03449 25.234 7.01265 25.2777 7.12188C25.3214 7.20926 25.234 7.29665 25.1685 7.34034C24.6223 7.93019 24.098 8.52005 23.5519 9.1099C23.4426 9.21913 23.4208 9.30651 23.4863 9.45944C24.0106 10.5736 24.5131 11.7096 25.0374 12.8238C25.0593 12.8893 25.103 12.9549 25.1248 12.9985C25.1904 13.1952 25.1248 13.2826 24.9063 13.2826C24.666 13.3699 24.4257 13.3481 24.1854 13.3481Z" fill="#FEFEFE"/>
<path d="M11.8636 6.99011C12.0821 6.99011 12.3224 6.99011 12.5409 6.99011C12.6719 6.99011 12.7375 7.0338 12.7156 7.18673C12.4753 8.84705 12.235 10.4855 12.0165 12.1458C11.9947 12.3206 11.9073 12.3862 11.7544 12.3643C11.3393 12.3643 10.9242 12.3643 10.4873 12.3643C10.2252 12.3643 10.2033 12.3206 10.2252 12.0585C10.3344 11.2065 10.4655 10.3326 10.5965 9.48059C10.7058 8.75966 10.7932 8.03873 10.9024 7.3178C10.9461 7.01195 10.9679 6.96826 11.2956 6.96826C11.4922 6.99011 11.6889 6.99011 11.8636 6.99011Z" fill="#FEFEFE"/>
<path d="M21.1287 18.0665C21.2379 16.8431 21.3471 15.6416 21.4564 14.4182C21.4782 14.2215 21.5656 14.1123 21.7622 14.1123C22.1773 14.1123 22.5924 14.1123 23.0293 14.1123C23.2696 14.1123 23.3133 14.1778 23.2696 14.4182C23.073 15.4012 22.8764 16.4062 22.6579 17.3893C22.5924 17.7607 22.505 18.132 22.4395 18.4816C22.4176 18.6564 22.3302 18.7219 22.1555 18.7219C21.8715 18.7219 21.5656 18.7219 21.2816 18.7219C21.1068 18.7219 21.0413 18.6564 21.0631 18.4816C21.1068 18.3505 21.1068 18.1976 21.1287 18.0665Z" fill="#FEFEFE"/>
<path d="M21.498 21.2564C20.8863 21.2345 20.646 21.1034 20.5367 20.601C20.4275 20.1204 20.7552 19.5524 21.214 19.3776C21.7164 19.181 22.2845 19.3557 22.5029 19.7927C22.7214 20.2296 22.5248 20.8631 22.066 21.1253C21.8694 21.2345 21.6728 21.2345 21.498 21.2564Z" fill="#FEFDFD"/>
<path d="M13.0859 5.43928C13.0859 6.02914 12.5398 6.55345 11.9499 6.55345C11.4693 6.55345 11.1416 6.18206 11.1416 5.67959C11.1634 5.04605 11.6659 4.56543 12.2776 4.56543C12.7364 4.58728 13.0859 4.95866 13.0859 5.43928Z" fill="#FEFEFD"/>
<path d="M14.7271 13.5227C14.7271 14.2218 14.028 14.7679 13.3507 14.5931C13.0012 14.5058 12.8264 14.2654 12.7827 13.9159C12.6517 13.2168 13.3944 12.5177 14.0935 12.6707C14.4649 12.7799 14.7271 13.1076 14.7271 13.5227Z" fill="#FEFDFD"/>
<path d="M26.8281 23.5284C26.9374 23.441 27.0684 23.5066 27.1777 23.4629C27.0684 23.4192 26.9592 23.4847 26.8718 23.3974C27.1777 23.3755 27.4835 23.3974 27.7675 23.4629C27.4617 23.5284 27.134 23.5503 26.8281 23.5284Z" fill="#FDD7D7"/>
<path d="M11.0554 19.989C10.8369 18.6782 10.6184 17.3456 10.4 16.0348C10.2689 15.292 10.1597 14.5492 10.0067 13.8064C9.9412 13.3914 9.78828 13.2603 9.3732 13.2603C9.06735 13.2603 8.7615 13.2821 8.45565 13.2603C7.97503 13.2384 7.69103 13.4569 7.49441 13.872C7.01379 14.9425 6.55502 15.9911 6.0744 17.0616C5.59378 18.132 5.11316 19.2025 4.65438 20.273C4.567 20.4914 4.58884 20.5351 4.82915 20.5351C5.28793 20.5351 5.72485 20.5351 6.18363 20.5351C6.40209 20.5351 6.51132 20.4259 6.59871 20.2511C6.72979 19.9453 6.86086 19.6394 6.9701 19.3117C7.01379 19.1588 7.10118 19.0933 7.2541 19.1151C7.77841 19.137 8.30273 19.137 8.82704 19.1151C9.02366 19.1151 9.0455 19.1807 9.06735 19.3554C9.08919 19.6831 9.15473 19.989 9.17658 20.3167C9.19843 20.4914 9.28581 20.557 9.46058 20.557C9.70089 20.557 9.9412 20.557 10.1815 20.557C10.3344 20.557 10.4655 20.557 10.6184 20.557C11.1428 20.5351 11.1428 20.5351 11.0554 19.989ZM8.67411 17.5859C8.54304 17.5859 8.41196 17.5859 8.25903 17.5859C8.10611 17.5859 7.97503 17.5859 7.82211 17.5859C7.71287 17.5859 7.69103 17.5422 7.73472 17.4548C7.99688 16.7557 8.25903 16.0785 8.52119 15.3794C8.54304 15.3357 8.56488 15.292 8.60857 15.292C8.67411 15.292 8.65227 15.3575 8.65227 15.4012C8.71781 16.0785 8.7615 16.7557 8.82704 17.4329C8.84889 17.564 8.78335 17.5859 8.67411 17.5859Z" fill="#FEFEFE"/>
<path d="M19.9917 15.27C19.1179 15.0297 18.244 14.9423 17.3483 15.0079C16.1686 15.0953 15.404 15.707 15.0108 16.8211C14.836 17.3454 14.7486 17.8916 14.7705 18.4596C14.7705 18.6562 14.7486 18.831 14.7705 19.0276C14.836 19.8359 15.3385 20.4476 16.0812 20.5787C17.1954 20.7972 18.2877 20.6661 19.3582 20.3384C19.5548 20.2728 19.6203 20.1636 19.6422 19.967C19.7951 18.5251 19.9699 17.0833 20.2102 15.6633C20.2539 15.4448 20.2102 15.3356 19.9917 15.27ZM18.2877 16.6901C18.1785 17.4328 18.0911 18.1538 17.9819 18.8965C17.9819 18.9621 17.9382 19.0058 17.8726 19.0276C17.6542 19.0713 17.4138 19.1368 17.1735 19.0931C16.8677 19.0495 16.7148 18.8747 16.6492 18.5907C16.6274 18.4378 16.6055 18.2848 16.6055 18.1538C16.6274 17.7168 16.6711 17.2799 16.9551 16.9304C17.2172 16.5808 17.7634 16.4279 18.1785 16.5808C18.2877 16.559 18.3095 16.6027 18.2877 16.6901Z" fill="#FEFEFE"/>
</svg>
