<svg width="29" height="29" viewBox="0 0 29 29" fill="none" xmlns="http://www.w3.org/2000/svg">
<path d="M29 0.373047H0.373047V29H29V0.373047Z" fill="#FF713C"/>
<path d="M24.7416 27.4622H4.63175C4.63175 26.0427 3.44882 24.8598 2.0293 24.8598V4.74991C3.44882 4.74991 4.63175 3.56698 4.63175 2.14746H24.7416C24.7416 3.56698 25.9245 4.74991 27.3441 4.74991V24.8598C25.9245 24.8598 24.7416 26.0427 24.7416 27.4622Z" fill="#FF713C" stroke="white" stroke-width="0.8811" stroke-miterlimit="10"/>
<path d="M7.47082 20.9559H10.3099C10.5464 20.9559 10.6647 20.7193 10.6647 20.601C10.6647 20.3644 10.4282 20.2461 10.3099 20.2461H7.47082C7.23423 20.2461 7.11594 20.4827 7.11594 20.601C6.99764 20.7193 7.23423 20.9559 7.47082 20.9559Z" fill="white"/>
<path d="M21.9021 20.1279H12.6752C12.4386 20.1279 12.3203 20.3645 12.3203 20.4828C12.3203 20.7194 12.5569 20.8377 12.6752 20.8377H21.9021C22.1387 20.8377 22.257 20.6011 22.257 20.4828C22.3752 20.2462 22.1387 20.1279 21.9021 20.1279Z" fill="white"/>
<path d="M15.8694 23.3223H7.4706C7.23402 23.3223 7.11572 23.5589 7.11572 23.6771C7.11572 23.9137 7.35231 24.032 7.4706 24.032H15.8694C16.106 24.032 16.2243 23.7954 16.2243 23.6771C16.3426 23.5589 16.106 23.3223 15.8694 23.3223Z" fill="white"/>
<path d="M18.7084 11.4925H18.5901V11.3742C18.5901 11.1376 18.4718 10.9011 18.2352 10.9011V7.58884C18.4718 7.58884 18.5901 7.35225 18.5901 7.11567V6.87908H19.0632C19.0632 6.87908 19.1815 6.87908 19.1815 6.76079V6.64249L15.0413 4.04004H14.923L10.901 6.64249C10.901 6.64249 10.7827 6.76079 10.901 6.76079C10.7827 6.87908 10.901 6.87908 10.901 6.87908H11.3742V6.99737C11.3742 7.23396 11.4925 7.47055 11.7291 7.47055V10.9011C11.4925 10.9011 11.3742 11.1376 11.3742 11.3742V11.4925H11.2559C11.0193 11.4925 10.7827 11.7291 10.7827 11.9657V12.3206C10.7827 12.4389 10.7827 12.4389 10.901 12.4389H19.0632C19.1815 12.4389 19.1815 12.4389 19.1815 12.3206V11.9657C19.1815 11.7291 18.945 11.4925 18.7084 11.4925ZM18.3535 11.3742V11.4925H16.8157V11.3742C16.8157 11.2559 16.934 11.1376 17.0523 11.1376H18.1169C18.2352 11.1376 18.3535 11.2559 18.3535 11.3742ZM13.1486 10.9011V7.58884C13.3852 7.58884 13.5035 7.35225 13.5035 7.11567V6.87908H13.9766V6.99737C13.9766 7.23396 14.0949 7.47055 14.3315 7.47055V10.9011C14.0949 10.9011 13.9766 11.1376 13.9766 11.3742V11.4925H13.5035V11.3742C13.5035 11.1376 13.2669 11.0193 13.1486 10.9011ZM12.7937 7.58884V10.9011H12.0839V7.58884H12.7937ZM14.6864 7.58884H15.3962V10.9011H14.6864V7.58884ZM15.5144 7.35225H14.4498C14.3315 7.35225 14.2132 7.23396 14.2132 7.11567V6.87908H15.751V6.99737C15.751 7.23396 15.6327 7.35225 15.5144 7.35225ZM14.2132 11.3742C14.2132 11.2559 14.3315 11.1376 14.4498 11.1376H15.5144C15.6327 11.1376 15.751 11.2559 15.751 11.3742V11.4925H14.2132V11.3742V11.3742ZM15.6327 10.9011V7.58884C15.8693 7.58884 15.9876 7.35225 15.9876 7.11567V6.87908H16.4608V6.99737C16.4608 7.23396 16.5791 7.47055 16.8157 7.47055V10.9011C16.5791 10.9011 16.4608 11.1376 16.4608 11.3742V11.4925H15.9876V11.3742C15.9876 11.1376 15.8693 11.0193 15.6327 10.9011ZM17.1706 10.9011V7.58884H17.8803V10.9011H17.1706V10.9011ZM18.3535 6.99737C18.3535 7.11567 18.2352 7.23396 18.1169 7.23396H17.0523C16.934 7.23396 16.8157 7.11567 16.8157 6.99737V6.87908H18.3535V6.99737V6.99737ZM11.6108 6.64249H11.3742L15.0413 4.39492L18.7084 6.64249H18.4718H16.6974H15.9876H14.2132H13.5035H11.6108ZM11.7291 6.99737V6.87908H13.2669V6.99737C13.2669 7.11567 13.1486 7.23396 13.0303 7.23396H11.9656C11.8474 7.35225 11.7291 7.23396 11.7291 6.99737ZM11.7291 11.3742C11.7291 11.2559 11.8474 11.1376 11.9656 11.1376H13.0303C13.1486 11.1376 13.2669 11.2559 13.2669 11.3742V11.4925H11.7291V11.3742V11.3742ZM18.945 12.3206H11.0193V12.084C11.0193 11.9657 11.1376 11.8474 11.2559 11.8474H11.6108H13.3852H14.0949H15.8693H16.5791H18.3535H18.7084C18.8267 11.8474 18.945 11.9657 18.945 12.084V12.3206Z" fill="white"/>
<path d="M15.0412 6.28791C15.3961 6.28791 15.6326 6.05133 15.6326 5.69645C15.6326 5.34157 15.3961 5.10498 15.0412 5.10498C14.6863 5.10498 14.4497 5.34157 14.4497 5.69645C14.4497 5.93303 14.6863 6.28791 15.0412 6.28791ZM15.0412 5.34157C15.2778 5.34157 15.3961 5.45986 15.3961 5.69645C15.3961 5.93303 15.2778 6.05133 15.0412 6.05133C14.8046 6.05133 14.6863 5.81474 14.6863 5.69645C14.6863 5.45986 14.8046 5.34157 15.0412 5.34157Z" fill="white"/>
<path d="M13.3854 15.9876V17.0523H12.7939V14.3315H13.622C13.9769 14.3315 14.3318 14.4498 14.4501 14.5681C14.6866 14.6864 14.6866 14.923 14.6866 15.1596C14.6866 15.2779 14.6866 15.5145 14.5683 15.6328C14.4501 15.7511 14.3318 15.8694 14.2135 15.9876C14.6866 16.5791 14.9232 17.0523 15.0415 17.1706H14.3318L13.622 16.1059H13.3854V15.9876ZM13.3854 15.5145H13.622C13.8586 15.5145 13.9769 15.5145 13.9769 15.3962C14.0952 15.2779 14.0952 15.2779 14.0952 15.1596C14.0952 15.0413 14.0952 14.923 13.9769 14.923C13.8586 14.923 13.7403 14.8047 13.5037 14.8047H13.2671V15.5145H13.3854Z" fill="white"/>
<path d="M16.4608 17.1704C16.2242 17.1704 15.9876 17.0521 15.8693 16.9338C15.8693 17.0521 15.8693 17.1704 15.8693 17.2887V18.1168H15.2778V15.0411H15.751L15.8693 15.2777C15.9876 15.0411 16.2242 14.9229 16.4608 14.9229C16.6974 14.9229 16.9339 15.0411 17.0522 15.1594C17.1705 15.2777 17.2888 15.6326 17.2888 15.9875C17.2888 16.2241 17.2888 16.4607 17.1705 16.579C17.0522 16.6973 17.0522 16.8155 16.9339 16.9338C16.8156 17.0521 16.6974 17.1704 16.4608 17.1704ZM16.3425 15.396C16.2242 15.396 16.1059 15.396 15.9876 15.5143C15.8693 15.6326 15.8693 15.7509 15.8693 15.9875V16.1058C15.8693 16.3424 15.8693 16.4607 15.9876 16.579C16.1059 16.6973 16.1059 16.6973 16.3425 16.6973C16.5791 16.6973 16.6974 16.4607 16.6974 16.1058C16.6974 15.8692 16.6974 15.7509 16.5791 15.6326C16.5791 15.396 16.4608 15.396 16.3425 15.396Z" fill="white"/>
</svg>
