<svg width="44" height="12" viewBox="0 0 44 12" fill="none" xmlns="http://www.w3.org/2000/svg">
<path d="M5.07535 11.5C7.87839 11.5 10.1507 9.03757 10.1507 6C10.1507 2.96243 7.87839 0.5 5.07535 0.5C2.27231 0.5 0 2.96243 0 6C0 9.03757 2.27231 11.5 5.07535 11.5Z" fill="#02AFD9"/>
<path fill-rule="evenodd" clip-rule="evenodd" d="M2.14205 7.23434C2.19995 8.13358 2.72099 8.82369 3.68589 8.88643C4.61219 8.92825 5.51919 8.92825 6.44549 8.88643C7.2946 8.82369 7.93143 8.13358 7.98933 7.23434C8.02792 6.77426 8.04722 6.31419 8.02792 5.85411C7.81564 4.59936 6.85075 4.55753 6.77356 4.55753H6.75426H3.51221C3.39642 4.55753 3.29993 4.45297 3.29993 4.32749C3.29993 4.20202 3.39642 4.11837 3.51221 4.11837H6.77356C6.73496 3.28187 5.88585 3.11457 5.48059 3.09365H5.26832C4.74727 3.07274 4.20693 3.09365 3.68589 3.13548C2.70169 3.21913 2.19995 3.86742 2.14205 4.78757C2.08416 5.60316 2.08416 6.41875 2.14205 7.23434ZM7.02443 6.75335V7.06704C7.02443 7.1716 6.94724 7.25525 6.83145 7.25525C6.73496 7.25525 6.65777 7.1716 6.65777 7.06704V6.75335C6.56128 6.69061 6.50338 6.60696 6.50338 6.48149C6.50338 6.31419 6.65777 6.1678 6.83145 6.1678C7.00513 6.1678 7.15951 6.31419 7.15951 6.48149C7.15951 6.60696 7.10162 6.69061 7.02443 6.75335Z" fill="#FEFEFE"/>
<path fill-rule="evenodd" clip-rule="evenodd" d="M35.7488 5.79749V6.75119C35.7488 6.75119 35.421 7.38698 34.3414 7.52606C33.2618 7.68501 33.2618 6.98961 33.3389 6.81079C33.4161 6.63197 33.6667 6.39355 34.5728 6.2346C35.5174 6.07565 35.7488 5.79749 35.7488 5.79749ZM37.0211 4.88353V8.5791H35.8451V7.98304C35.4596 8.34068 34.9198 8.67844 34.1679 8.71818C31.816 8.77779 30.9099 6.09552 33.7631 5.30078C34.4378 5.10209 35.0933 5.1617 35.4403 4.98288C35.6716 4.8438 35.7295 4.62524 35.5752 4.42656C34.9969 3.63181 33.6088 3.94971 33.2233 5.04248L32.0473 4.74445C32.3557 3.53247 33.3004 2.99601 34.4378 2.8768C35.6524 2.75759 37.0211 3.43312 37.0211 4.88353ZM14.7545 4.22787C13.9063 4.22787 13.2122 4.94314 13.2122 5.83723C13.2122 6.71145 13.9063 7.42672 14.7545 7.42672C15.6028 7.42672 16.2968 6.71145 16.2968 5.83723C16.2968 4.94314 15.6028 4.22787 14.7545 4.22787ZM17.8005 3.05562H16.2968V3.65168C15.8341 3.23444 15.2172 2.97615 14.5232 2.97615C13.0195 2.97615 11.7856 4.26761 11.7856 5.8571C11.7856 7.46646 13.0195 8.75792 14.5232 8.75792C15.2172 8.75792 15.8341 8.49963 16.2968 8.08239V8.61884C16.2968 9.47319 15.6992 10.1487 14.8702 10.1487C14.1762 10.1487 13.6171 10.0096 13.1544 9.45332L12.1905 10.3474C12.9809 11.2216 13.7713 11.4998 14.8895 11.4998C16.5089 11.4998 17.8005 10.3673 17.8005 8.45989V7.62541V3.05562ZM43.9999 2.95628H42.4191L40.8383 6.51276L39.0261 2.95628H37.426L40.0478 8.02278L38.6598 10.9633H40.2599L43.9999 2.95628ZM28.4422 4.22787C29.3098 4.22787 30.0038 4.94314 30.0038 5.83723C30.0038 6.71145 29.3098 7.42672 28.4422 7.42672C27.594 7.42672 26.8999 6.71145 26.8999 5.83723C26.8999 4.94314 27.594 4.22787 28.4422 4.22787ZM25.4155 3.05562H26.8999V3.65168C27.3819 3.23444 27.9988 2.97615 28.6736 2.97615C30.1773 2.97615 31.4111 4.26761 31.4111 5.8571C31.4111 7.46646 30.1773 8.75792 28.6736 8.75792C27.9988 8.75792 27.3819 8.49963 26.8999 8.08239V10.9633H25.4155V3.05562ZM21.4441 4.18813C22.3888 4.18813 23.1407 4.94314 23.1407 5.8571C23.1407 6.79092 22.3888 7.54593 21.4441 7.54593C20.5188 7.54593 19.7669 6.79092 19.7669 5.8571C19.7669 4.94314 20.5188 4.18813 21.4441 4.18813ZM21.4441 2.85693C23.1021 2.85693 24.4516 4.208 24.4516 5.8571C24.4516 7.52606 23.1021 8.87713 21.4441 8.87713C19.7862 8.87713 18.4367 7.52606 18.4367 5.8571C18.4367 4.208 19.7862 2.85693 21.4441 2.85693Z" fill="#1D1819"/>
</svg>
