<svg width="26" height="36" viewBox="0 0 26 36" fill="none" xmlns="http://www.w3.org/2000/svg">
<path fill-rule="evenodd" clip-rule="evenodd" d="M0 4C0 3.58579 0.335786 3.25 0.75 3.25H22.625C23.0392 3.25 23.375 3.58579 23.375 4V31.125C23.375 31.5392 23.0392 31.875 22.625 31.875H13.875C13.4608 31.875 13.125 31.5392 13.125 31.125C13.125 30.7108 13.4608 30.375 13.875 30.375H21.875V4.75H1.5V30.375H3.375C3.78921 30.375 4.125 30.7108 4.125 31.125C4.125 31.5392 3.78921 31.875 3.375 31.875H0.75C0.335786 31.875 0 31.5392 0 31.125V4Z" fill="#FF713C"/>
<path fill-rule="evenodd" clip-rule="evenodd" d="M25.25 0.625C25.6642 0.625 26 0.960786 26 1.375V29.375C26 29.7892 25.6642 30.125 25.25 30.125C24.8358 30.125 24.5 29.7892 24.5 29.375V1.375C24.5 0.960786 24.8358 0.625 25.25 0.625Z" fill="#FF713C"/>
<path fill-rule="evenodd" clip-rule="evenodd" d="M2.625 1.375C2.625 0.960786 2.96079 0.625 3.375 0.625H25.25C25.6642 0.625 26 0.960786 26 1.375C26 1.78921 25.6642 2.125 25.25 2.125H3.375C2.96079 2.125 2.625 1.78921 2.625 1.375Z" fill="#FF713C"/>
<path fill-rule="evenodd" clip-rule="evenodd" d="M4.375 11.875C4.375 11.4608 4.71079 11.125 5.125 11.125H18.25C18.6642 11.125 19 11.4608 19 11.875C19 12.2892 18.6642 12.625 18.25 12.625H5.125C4.71079 12.625 4.375 12.2892 4.375 11.875Z" fill="#FF713C"/>
<path fill-rule="evenodd" clip-rule="evenodd" d="M4.375 8.375C4.375 7.96079 4.71079 7.625 5.125 7.625H12.125C12.5392 7.625 12.875 7.96079 12.875 8.375C12.875 8.78921 12.5392 9.125 12.125 9.125H5.125C4.71079 9.125 4.375 8.78921 4.375 8.375Z" fill="#FF713C"/>
<path fill-rule="evenodd" clip-rule="evenodd" d="M4.375 15.375C4.375 14.9608 4.71079 14.625 5.125 14.625H18.25C18.6642 14.625 19 14.9608 19 15.375C19 15.7892 18.6642 16.125 18.25 16.125H5.125C4.71079 16.125 4.375 15.7892 4.375 15.375Z" fill="#FF713C"/>
<path fill-rule="evenodd" clip-rule="evenodd" d="M8.625 22.25C7.10622 22.25 5.875 23.4812 5.875 25C5.875 26.5188 7.10622 27.75 8.625 27.75C10.1438 27.75 11.375 26.5188 11.375 25C11.375 23.4812 10.1438 22.25 8.625 22.25ZM4.375 25C4.375 22.6528 6.27779 20.75 8.625 20.75C10.9722 20.75 12.875 22.6528 12.875 25C12.875 27.3472 10.9722 29.25 8.625 29.25C6.27779 29.25 4.375 27.3472 4.375 25Z" fill="#FF713C"/>
<path fill-rule="evenodd" clip-rule="evenodd" d="M11.25 29.5C11.6642 29.5 12 29.8358 12 30.25V34.625C12 35.0392 11.6642 35.375 11.25 35.375C10.8358 35.375 10.5 35.0392 10.5 34.625V30.25C10.5 29.8358 10.8358 29.5 11.25 29.5Z" fill="#FF713C"/>
<path fill-rule="evenodd" clip-rule="evenodd" d="M8.625 30.375C9.03921 30.375 9.375 30.7108 9.375 31.125V33.75C9.375 34.1642 9.03921 34.5 8.625 34.5C8.21079 34.5 7.875 34.1642 7.875 33.75V31.125C7.875 30.7108 8.21079 30.375 8.625 30.375Z" fill="#FF713C"/>
<path fill-rule="evenodd" clip-rule="evenodd" d="M6 29.5C6.41421 29.5 6.75 29.8358 6.75 30.25V34.625C6.75 35.0392 6.41421 35.375 6 35.375C5.58579 35.375 5.25 35.0392 5.25 34.625V30.25C5.25 29.8358 5.58579 29.5 6 29.5Z" fill="#FF713C"/>
</svg>
