<svg width="46" height="25" viewBox="0 0 46 25" fill="none" xmlns="http://www.w3.org/2000/svg">
<g clip-path="url(#clip0)">
<path d="M3.58442 10.241L2.38961 11.1446C1.49351 12.0482 0.896104 12.9518 0.896104 14.1566V18.9759C0.896104 19.8795 1.49351 20.4819 2.09091 21.0843V23.1928C2.09091 24.0964 2.68831 24.6988 3.58442 24.6988H6.27273C7.16883 24.6988 7.76623 24.0964 7.76623 23.1928V21.3855H23V23.1928C23 24.0964 23.8961 24.6988 24.4935 24.6988H27.1818C28.0779 24.6988 28.6753 24.0964 28.6753 23.1928V21.0843C29.2727 20.4819 29.8701 19.8795 29.8701 18.9759V14.1566C29.8701 12.9518 29.2727 12.0482 28.3766 11.1446L27.1818 10.241L28.0779 9.33735H30.7662V8.13253H27.7792L26.5844 9.03614L24.4935 4.81928C23.8961 3.31325 23 2.71084 21.5065 2.71084H19.4156L18.5195 0H12.2468L11.3506 2.71084H9.25974C7.76623 2.71084 6.57143 3.31325 6.27273 4.81928L4.18182 9.03614L2.98701 8.13253H0V9.33735H2.68831L3.58442 10.241ZM6.57143 23.1928C6.57143 23.494 6.57143 23.494 6.27273 23.494H3.58442C3.28571 23.494 3.28571 23.494 3.28571 23.1928V21.3855H6.57143V23.1928ZM27.4805 23.1928C27.4805 23.494 27.4805 23.494 27.1818 23.494H24.4935C24.1948 23.494 24.1948 23.494 24.1948 23.1928V21.3855H27.4805V23.1928ZM27.4805 12.3494C28.0779 12.9518 28.3766 13.5542 28.3766 14.4578V19.2771C28.3766 19.8795 27.7792 20.4819 27.1818 20.4819H3.28571C2.68831 20.4819 2.09091 19.8795 2.09091 19.2771V14.1566C2.09091 13.253 2.38961 12.6506 2.98701 12.0482L4.48052 10.8434L4.77922 11.1446L6.27273 12.3494H15.2338H24.4935L25.987 11.1446L26.2857 10.8434L27.4805 12.3494ZM13.1429 1.20482H17.6234L18.2208 2.71084H15.2338H12.8442L13.1429 1.20482ZM5.37662 9.93976L7.46753 5.42169C7.76623 4.51807 8.36364 4.21687 9.55844 4.21687H11.3506H15.5325H20.3117H21.8052C22.7013 4.21687 23.2987 4.51807 23.8961 5.42169L25.987 9.93976L23.8961 11.4458H14.9351H6.87013L5.67532 10.5422L5.37662 9.93976Z" fill="#FF713C"/>
<path d="M20.909 17.771H10.1558V18.9758H20.909V17.771Z" fill="#FF713C"/>
<path d="M10.753 16.2653C10.753 15.9641 10.753 15.6629 10.4543 15.6629L8.96084 13.8557C8.66214 13.5545 8.36344 13.5545 8.06474 13.8557C7.76604 14.1569 7.76604 14.4581 8.06474 14.7593L8.96084 15.3617H5.97383C4.77902 15.3617 4.18162 14.1569 4.18162 13.8557C4.18162 13.5545 3.58422 13.2532 3.28552 13.5545C2.98682 13.8557 2.98682 14.1569 2.98682 14.4581C2.98682 14.4581 3.88292 16.8677 5.97383 16.8677H10.4543C10.4543 16.8677 10.753 16.5665 10.753 16.2653Z" fill="#FF713C"/>
<path d="M22.104 15.3614L23.0001 14.759C23.2988 14.4577 23.2988 14.1565 23.0001 13.8553C22.7014 13.5541 22.4027 13.5541 22.104 13.8553L20.0131 15.6626C19.7144 15.9638 19.7144 15.9638 20.0131 16.265C20.0131 16.5662 20.3118 16.5662 20.6105 16.5662H25.091C27.1819 16.5662 28.078 14.4577 28.078 14.1565C28.078 13.8553 28.078 13.5541 27.7793 13.2529C27.4806 13.2529 27.1819 13.2529 26.8832 13.5541C26.8832 13.5541 26.2858 15.0602 25.091 15.0602H22.104V15.3614Z" fill="#FF713C"/>
<path d="M32.2598 8.13244C32.2598 7.53003 32.2598 7.22883 32.2598 6.62642H32.5585C34.052 6.62642 35.2468 6.62642 36.7403 6.62642H37.039C38.2338 4.81919 40.6234 4.81919 41.5195 6.62642C41.5195 6.62642 41.5195 6.62642 41.8182 6.62642C43.3117 6.62642 44.5065 6.62642 46 6.62642C46 6.62642 46 6.62642 46.2987 6.62642C46.2987 7.22883 46.2987 7.53003 46.2987 8.13244C44.8052 8.13244 43.6104 8.13244 42.1169 8.13244C42.1169 8.73485 41.8182 9.03606 41.8182 9.63847C42.1169 9.93967 42.4156 9.93967 43.013 10.2409C44.5065 11.1445 45.1039 12.3493 45.1039 13.8553C45.1039 16.265 45.1039 18.3734 45.1039 20.783C45.1039 21.6867 44.5065 22.2891 43.6104 22.2891C43.3117 22.2891 42.7143 22.2891 42.4156 22.2891C42.4156 22.2891 42.4156 22.2891 42.4156 21.9879C42.4156 21.0842 42.4156 20.1806 42.4156 19.5782C42.4156 18.0722 41.2208 16.5662 39.4286 16.8674C37.9351 16.8674 36.7403 18.0722 36.7403 19.5782C36.7403 20.4818 36.7403 21.3855 36.7403 22.2891C36.7403 22.2891 36.7403 22.2891 36.7403 22.5903C36.4416 22.5903 36.1429 22.5903 35.8442 22.5903C35.5455 22.5903 35.2468 22.5903 34.9481 22.5903C34.3507 22.5903 33.7533 21.9879 33.7533 21.0842C33.7533 19.277 33.7533 17.4698 33.7533 15.6626C33.7533 15.0602 33.7533 14.4577 33.7533 14.1565C33.7533 12.6505 34.6494 11.4457 35.8442 10.8433C36.1429 10.5421 36.7403 10.5421 37.039 10.2409C36.7403 9.93967 36.7403 9.33726 36.7403 8.73485C34.9481 8.13244 33.4546 8.13244 32.2598 8.13244ZM39.1299 9.63847C40.026 9.63847 40.6234 9.03606 40.6234 8.13244C40.6234 7.22883 40.026 6.62642 39.1299 6.62642C38.2338 6.62642 37.6364 7.22883 37.6364 8.13244C37.6364 9.03606 38.2338 9.63847 39.1299 9.63847Z" fill="#FF713C"/>
<path d="M40.3244 21.3855C40.3244 21.9879 40.3244 22.8915 40.3244 23.4939C40.3244 24.3975 39.727 24.9999 38.8309 24.9999C37.9348 24.9999 37.3374 24.3975 37.3374 23.4939C37.3374 21.9879 37.3374 20.783 37.3374 19.277C37.3374 18.3734 37.9348 17.771 38.8309 17.771C39.727 17.771 40.3244 18.3734 40.3244 19.277C40.3244 20.1806 40.3244 20.783 40.3244 21.3855Z" fill="#FF713C"/>
</g>
<defs>
<clipPath id="clip0">
<rect width="46" height="25" fill="white"/>
</clipPath>
</defs>
</svg>
