<svg width="45" height="18" viewBox="0 0 45 18" fill="none" xmlns="http://www.w3.org/2000/svg">
<g clip-path="url(#clip0)">
<path d="M0 8.1V0.132H2.6094C2.95973 0.132 3.24966 0.18 3.49128 0.264C3.73289 0.348 3.92617 0.468 4.07114 0.636C4.21611 0.792 4.32483 0.984 4.39732 1.212C4.45772 1.428 4.49396 1.68 4.49396 1.944C4.49396 2.28 4.4698 2.568 4.42148 2.796C4.37315 3.036 4.28859 3.24 4.19195 3.396C4.08322 3.552 3.96242 3.684 3.80537 3.768C3.64832 3.864 3.47919 3.924 3.28591 3.96C3.73289 3.984 4.08322 4.128 4.34899 4.392C4.61477 4.656 4.73557 5.064 4.73557 5.592C4.73557 6.468 4.56644 7.104 4.21611 7.5C3.86577 7.896 3.32215 8.1 2.56107 8.1H0ZM2.2349 7.404C2.63356 7.404 2.93557 7.284 3.12886 7.044C3.32215 6.804 3.41879 6.408 3.41879 5.868C3.41879 5.58 3.40671 5.34 3.37047 5.148C3.33423 4.956 3.28591 4.8 3.21342 4.68C3.14094 4.56 3.0443 4.476 2.91141 4.416C2.7906 4.368 2.63356 4.344 2.45235 4.344H1.29262V7.404H2.2349ZM2.36779 3.72C2.69396 3.72 2.93557 3.6 3.08054 3.36C3.2255 3.12 3.29799 2.76 3.29799 2.28C3.29799 1.752 3.2255 1.38 3.09262 1.164C2.95973 0.948 2.71812 0.852 2.39195 0.852H1.3047V3.72H2.36779ZM7.55034 4.296C7.75571 4.296 7.93691 4.272 8.08188 4.212C8.22685 4.152 8.34765 4.056 8.43222 3.912C8.52886 3.768 8.58926 3.588 8.63758 3.36C8.67383 3.132 8.69799 2.844 8.69799 2.508C8.69799 2.172 8.68591 1.896 8.64966 1.692C8.61342 1.476 8.5651 1.308 8.49262 1.188C8.42014 1.068 8.32349 0.972 8.20269 0.924C8.08188 0.876 7.93691 0.852 7.76779 0.852H6.74094V4.296H7.55034V4.296ZM5.43624 8.1V0.132H7.94899C8.32349 0.132 8.64967 0.168 8.91544 0.252C9.18121 0.336 9.39866 0.456 9.55571 0.624C9.71275 0.792 9.83356 0.996 9.90604 1.248C9.97852 1.5 10.0148 1.8 10.0148 2.136C10.0148 2.676 9.97852 3.132 9.89396 3.492C9.82148 3.852 9.68859 4.152 9.50738 4.368C9.32617 4.584 9.08456 4.752 8.79463 4.848C8.49262 4.944 8.1302 4.992 7.6953 4.992H6.74094V7.356C6.74094 7.944 6.2094 8.076 5.43624 8.1ZM11.9114 0.132V6.324C11.9114 6.756 11.8268 7.068 11.6577 7.26C11.4886 7.452 11.1987 7.548 10.8 7.548C10.4255 7.548 10.1597 7.452 10.0027 7.26C9.95436 7.2 9.88188 7.152 9.85772 7.08C9.57987 6.684 9.0604 6.948 9.19329 7.308C9.26577 7.488 9.3745 7.644 9.50738 7.776C9.8094 8.076 10.3168 8.232 11.0295 8.232C12.4792 8.232 13.204 7.572 13.204 6.252V0.96C13.1678 0.348 12.3584 0.096 11.9114 0.132ZM14.5087 6.744C14.5933 6.9 14.7141 7.032 14.8591 7.14C15.1007 7.32 15.3906 7.416 15.753 7.416C15.9221 7.416 16.0792 7.392 16.2362 7.332C16.3933 7.272 16.5262 7.188 16.6349 7.08C16.7557 6.972 16.8403 6.84 16.9128 6.684C16.9732 6.528 17.0094 6.348 17.0094 6.156C17.0094 5.988 16.9852 5.832 16.9369 5.7C16.8886 5.568 16.8161 5.448 16.7436 5.352C16.6591 5.244 16.5624 5.148 16.4416 5.064C16.3208 4.98 16.2 4.884 16.0671 4.8C15.7651 4.608 15.4872 4.416 15.2336 4.236C14.9799 4.056 14.7624 3.852 14.5691 3.648C14.3758 3.444 14.2309 3.204 14.1221 2.952C14.0134 2.7 13.9651 2.4 13.9651 2.052C13.9651 1.752 14.0134 1.476 14.1101 1.236C14.2067 0.984 14.3396 0.768 14.5329 0.588C14.7141 0.408 14.9436 0.264 15.2094 0.156C15.4752 0.048 15.7772 0 16.1154 0C16.5624 0 16.949 0.108 17.2631 0.312C17.5772 0.516 17.7826 0.792 17.9034 1.14C18.0242 1.368 17.4201 1.656 17.2389 1.308C17.1664 1.188 17.0698 1.08 16.9611 0.996C16.7678 0.852 16.5383 0.78 16.2725 0.78C15.898 0.78 15.6201 0.876 15.4148 1.08C15.2094 1.284 15.1007 1.56 15.1007 1.932C15.1007 2.232 15.1732 2.484 15.3302 2.688C15.4872 2.892 15.6805 3.072 15.9101 3.228C16.1396 3.396 16.3933 3.552 16.6711 3.696C16.949 3.84 17.2027 4.02 17.4322 4.212C17.6617 4.404 17.8671 4.644 18.0121 4.92C18.1691 5.196 18.2416 5.544 18.2416 5.964C18.2416 6.288 18.1812 6.588 18.0725 6.864C17.9638 7.14 17.7946 7.38 17.5893 7.584C17.3839 7.788 17.1181 7.944 16.8161 8.052C16.5141 8.172 16.1638 8.22 15.7893 8.22C15.294 8.22 14.8591 8.1 14.4846 7.86C14.1946 7.668 13.953 7.416 13.7839 7.092C13.6027 6.72 14.3034 6.384 14.5087 6.744Z" fill="#FF713C"/>
<path d="M43.756 17.3281V13.1641C43.756 12.8401 43.6835 12.6121 43.5385 12.5041C43.3936 12.3841 43.1761 12.3241 42.862 12.3241C42.6083 12.3241 42.3788 12.3841 42.1614 12.5041C41.9439 12.6241 41.7869 12.7561 41.6902 12.9001V17.3161C41.6902 17.7241 40.9171 17.9521 40.458 17.9881V11.1001C41.1104 11.1241 41.6781 11.5681 41.6902 11.8081V12.2281C41.8473 12.0241 42.0889 11.8321 42.403 11.6761C42.7171 11.5201 43.0795 11.4361 43.5023 11.4361C44.0097 11.4361 44.3721 11.5681 44.6258 11.8321C44.8674 12.0961 44.9882 12.5161 44.9882 13.0681V17.9881C44.3359 18.0361 43.7802 17.7961 43.756 17.3281Z" fill="#FF713C"/>
<path d="M34.5507 17.7838C34.4661 17.8318 34.3695 17.8678 34.2728 17.8918C34.0675 17.9518 33.8017 17.9878 33.4634 17.9878C32.9319 17.9878 32.5212 17.8318 32.2191 17.5078C31.9171 17.1838 31.7722 16.7398 31.7722 16.1638V12.3718V12.0718H31.2769V11.4358H31.7722V10.1878C32.7386 10.1758 32.9802 10.5358 32.9923 10.7638V11.4478H34.2487V12.0958H32.9923V12.3718V16.1758C32.9923 16.5238 33.0648 16.7998 33.2097 17.0038C33.3547 17.1958 33.5842 17.3038 33.8983 17.3038C34.1037 17.3038 34.2608 17.2798 34.3816 17.2318C34.8044 17.1238 34.9252 17.6398 34.5507 17.7838Z" fill="#FF713C"/>
<path d="M29.5855 17.4V17.088C29.4405 17.376 29.2351 17.592 28.9573 17.76C28.6794 17.928 28.3532 18 27.9787 18C27.411 18 26.9761 17.844 26.6982 17.532C26.4204 17.22 26.2754 16.776 26.2754 16.212C26.2754 15.648 26.3841 15.216 26.6136 14.928C26.8311 14.628 27.1814 14.4 27.6526 14.244C27.8096 14.184 27.9667 14.148 28.1358 14.112C28.3049 14.076 28.474 14.052 28.6432 14.016C28.8123 13.98 28.9693 13.944 29.1143 13.896C29.2593 13.848 29.3922 13.788 29.5009 13.716V13.056C29.5009 12.72 29.4284 12.456 29.2955 12.288C29.1506 12.12 28.8969 12.024 28.4982 12.024C28.2083 12.024 27.9546 12.084 27.7371 12.216C27.6043 12.3 27.4834 12.408 27.3747 12.552C26.9881 12.912 26.517 12.384 26.7707 12.108C26.9519 11.856 27.1694 11.664 27.4351 11.544C27.7855 11.376 28.172 11.292 28.5828 11.292C28.8727 11.292 29.1506 11.316 29.4163 11.364C29.6821 11.412 29.8996 11.496 30.0928 11.628C30.2861 11.76 30.4311 11.94 30.5519 12.168C30.6606 12.396 30.721 12.708 30.721 13.08V16.656V16.884V16.896V17.988C30.0687 18.012 29.6096 17.904 29.5975 17.376V17.4H29.5855ZM29.4888 14.292C29.3438 14.364 29.1868 14.424 28.9935 14.472C28.8002 14.52 28.619 14.568 28.4499 14.628C28.0996 14.736 27.8459 14.904 27.7009 15.132C27.5438 15.36 27.4714 15.66 27.4714 16.02C27.4714 16.44 27.5438 16.74 27.7009 16.932C27.8459 17.124 28.0875 17.22 28.4016 17.22C28.6432 17.22 28.8606 17.16 29.0539 17.028C29.2472 16.908 29.3922 16.728 29.4888 16.512V14.292V14.292Z" fill="#FF713C"/>
<path d="M24.4028 17.3398V13.1758C24.4028 12.8518 24.3304 12.6238 24.1854 12.5158C24.0404 12.3958 23.823 12.3358 23.5089 12.3358C23.2552 12.3358 23.0257 12.3958 22.8082 12.5158C22.5908 12.6358 22.4337 12.7678 22.3371 12.9118V17.3638C22.325 17.7598 21.721 17.9878 21.1049 17.9998L21.0928 9.8998C21.576 9.8638 22.3008 10.1758 22.3371 10.5718V12.2398C22.4941 12.0358 22.7357 11.8438 23.0498 11.6878C23.3639 11.5318 23.7263 11.4478 24.1491 11.4478C24.6565 11.4478 25.0189 11.5798 25.2726 11.8438C25.5143 12.1078 25.6351 12.5278 25.6351 13.0798V17.9998C25.176 18.0238 24.4028 17.8678 24.4028 17.3398Z" fill="#FF713C"/>
<path d="M11.8028 16.8719C11.8511 16.9199 11.8995 16.9559 11.9599 17.0039C12.1894 17.1719 12.4672 17.2559 12.7813 17.2559C13.1196 17.2559 13.3612 17.1719 13.5303 16.9919C13.6995 16.8239 13.7719 16.5959 13.7719 16.3319C13.7719 16.1399 13.7478 15.9839 13.6874 15.8639C13.627 15.7319 13.5545 15.6239 13.4699 15.5399C13.3854 15.4439 13.2766 15.3719 13.1679 15.3119C13.0471 15.2519 12.9384 15.2039 12.8176 15.1559C12.5518 15.0479 12.3102 14.9399 12.0927 14.8199C11.8753 14.6999 11.682 14.5559 11.525 14.4119C11.3679 14.2559 11.235 14.0879 11.1505 13.8839C11.0538 13.6919 11.0176 13.4519 11.0176 13.1879C11.0176 12.8759 11.0659 12.5999 11.1746 12.3719C11.2713 12.1319 11.4162 11.9399 11.5974 11.7839C11.7787 11.6279 11.9961 11.5079 12.2377 11.4359C12.4793 11.3519 12.7572 11.3159 13.0471 11.3159C13.3974 11.3159 13.7357 11.3759 14.0498 11.5079C14.2672 11.6039 14.4484 11.7479 14.5934 11.9519C14.8471 12.3119 14.3156 12.6959 13.9411 12.3239C13.8927 12.2759 13.8444 12.2399 13.784 12.2039C13.6028 12.0959 13.3854 12.0479 13.1558 12.0479C13.0109 12.0479 12.878 12.0599 12.7572 12.0959C12.6243 12.1319 12.5156 12.1799 12.4189 12.2519C12.3223 12.3239 12.2498 12.4199 12.1894 12.5279C12.129 12.6359 12.1048 12.7679 12.1048 12.9359C12.1048 13.1999 12.1773 13.4039 12.3223 13.5479C12.4672 13.6919 12.6484 13.8119 12.8659 13.9079C13.0833 14.0039 13.325 14.0999 13.5787 14.1839C13.8323 14.2679 14.074 14.3879 14.2914 14.5319C14.5089 14.6759 14.6901 14.8679 14.835 15.1079C14.98 15.3479 15.0525 15.6599 15.0525 16.0679C15.0525 16.3679 15.0042 16.6439 14.8954 16.8839C14.7867 17.1239 14.6417 17.3279 14.4484 17.4959C14.2552 17.6639 14.0377 17.7959 13.7719 17.8799C13.5062 17.9759 13.2283 18.0119 12.9263 18.0119C12.4189 18.0119 11.9961 17.9159 11.6337 17.7119C11.4525 17.6159 11.2954 17.4839 11.1625 17.3279C10.788 16.8959 11.1988 16.3919 11.8028 16.8719Z" fill="#FF713C"/>
<path d="M9.15713 13.9802C9.09673 13.1882 9.06048 11.8922 8.00948 11.8922C6.95847 11.8922 6.82558 13.2482 6.8135 13.9682L9.15713 13.9802ZM9.90612 16.9202C9.84572 17.0642 9.77323 17.2082 9.68867 17.3402C9.59203 17.4722 9.47122 17.5802 9.32625 17.6882C9.18129 17.7842 9.00008 17.8682 8.77055 17.9162C8.5531 17.9762 8.27525 18.0002 7.96115 18.0002C7.11552 18.0002 6.51149 17.7362 6.08867 17.2682C5.25512 16.3802 5.15847 13.1642 5.99203 12.0962C6.42693 11.5322 6.98263 11.1602 7.70746 11.1602C9.86988 11.1602 10.0632 12.7682 10.1598 14.5562H6.72894C6.68062 15.8402 6.54773 17.2682 8.14236 17.2802C8.4927 17.2802 8.75847 17.2082 8.9276 17.0762C9.10881 16.9442 9.18129 16.8122 9.29001 16.6922C9.60411 16.3442 10.0269 16.6562 9.90612 16.9202Z" fill="#FF713C"/>
<path d="M3.67264 17.292L2.53707 13.728L1.72768 14.808V17.376C1.72768 17.832 0.845797 18 0.435059 18V10.044C0.821636 10.02 1.72768 10.176 1.72768 10.836V13.68L4.34915 10.044C4.627 9.73197 5.27935 9.93597 5.19479 10.128L3.43103 12.564L5.29143 18C4.84445 18 3.86593 18.048 3.67264 17.292Z" fill="#FF713C"/>
<path d="M19.5103 13.9802C19.4499 13.1882 19.4136 11.8922 18.3626 11.8922C17.3116 11.8922 17.1787 13.2482 17.1667 13.9682L19.5103 13.9802ZM20.2714 16.9202C20.211 17.0642 20.1385 17.2082 20.0539 17.3402C19.9573 17.4722 19.8365 17.5802 19.6915 17.6882C19.5465 17.7842 19.3653 17.8682 19.1358 17.9162C18.9183 17.9762 18.6405 18.0002 18.3264 18.0002C17.4808 18.0002 16.8767 17.7362 16.4539 17.2682C15.6203 16.3802 15.5237 13.1642 16.3573 12.0962C16.7922 11.5322 17.3479 11.1602 18.0727 11.1602C20.2351 11.1602 20.4284 12.7682 20.525 14.5562H17.0821C17.0338 15.8402 16.9009 17.2682 18.4955 17.2802C18.8459 17.2802 19.1116 17.2082 19.2808 17.0762C19.462 16.9442 19.5344 16.8122 19.6432 16.6922C19.9693 16.3442 20.3801 16.6562 20.2714 16.9202Z" fill="#FF713C"/>
<path d="M38.3316 17.4V17.088C38.1866 17.376 37.9812 17.592 37.7034 17.76C37.4255 17.928 37.0993 18 36.7248 18C36.1571 18 35.7222 17.844 35.4443 17.532C35.1665 17.22 35.0215 16.776 35.0215 16.212C35.0215 15.648 35.1302 15.216 35.3597 14.928C35.5772 14.628 35.9275 14.4 36.3987 14.244C36.5557 14.184 36.7128 14.148 36.8819 14.112C37.051 14.076 37.2201 14.052 37.3893 14.016C37.5584 13.98 37.7154 13.944 37.8604 13.896C38.0054 13.848 38.1383 13.788 38.247 13.716V13.056C38.247 12.72 38.1745 12.456 38.0416 12.288C37.8967 12.12 37.643 12.024 37.2443 12.024C36.9544 12.024 36.7007 12.084 36.4832 12.216C36.3503 12.3 36.2295 12.408 36.1208 12.552C35.7342 12.912 35.2631 12.384 35.5168 12.108C35.698 11.856 35.9154 11.664 36.1812 11.544C36.5316 11.376 36.9181 11.292 37.3289 11.292C37.6188 11.292 37.8967 11.316 38.1624 11.364C38.4282 11.412 38.6456 11.496 38.8389 11.628C39.0322 11.76 39.1772 11.94 39.298 12.168C39.4067 12.396 39.4671 12.708 39.4671 13.08V16.656V16.884V16.896V17.988C38.8148 18.012 38.3557 17.904 38.3436 17.376V17.4H38.3316ZM38.2349 14.292C38.0899 14.364 37.9329 14.424 37.7396 14.472C37.5463 14.52 37.3651 14.568 37.196 14.628C36.8456 14.736 36.592 14.904 36.447 15.132C36.2899 15.36 36.2175 15.66 36.2175 16.02C36.2175 16.44 36.2899 16.74 36.447 16.932C36.592 17.124 36.8336 17.22 37.1477 17.22C37.3893 17.22 37.6067 17.16 37.8 17.028C37.9933 16.908 38.1383 16.728 38.2349 16.512V14.292Z" fill="#FF713C"/>
</g>
<defs>
<clipPath id="clip0">
<rect width="45" height="18" fill="white"/>
</clipPath>
</defs>
</svg>
