<svg width="65" height="26" viewBox="0 0 65 26" fill="none" xmlns="http://www.w3.org/2000/svg">
<rect width="71" height="26" rx="5" fill="#F15A23"/>
<path d="M22.4589 13.632C22.9389 13.784 23.3149 14.04 23.5869 14.4C23.8589 14.752 23.9949 15.188 23.9949 15.708C23.9949 16.444 23.7069 17.012 23.1309 17.412C22.5629 17.804 21.7309 18 20.6349 18H16.2909V9.6H20.3949C21.4189 9.6 22.2029 9.796 22.7469 10.188C23.2989 10.58 23.5749 11.112 23.5749 11.784C23.5749 12.192 23.4749 12.556 23.2749 12.876C23.0829 13.196 22.8109 13.448 22.4589 13.632ZM18.2229 11.064V13.044H20.1549C20.6349 13.044 20.9989 12.96 21.2469 12.792C21.4949 12.624 21.6189 12.376 21.6189 12.048C21.6189 11.72 21.4949 11.476 21.2469 11.316C20.9989 11.148 20.6349 11.064 20.1549 11.064H18.2229ZM20.4909 16.536C21.0029 16.536 21.3869 16.452 21.6429 16.284C21.9069 16.116 22.0389 15.856 22.0389 15.504C22.0389 14.808 21.5229 14.46 20.4909 14.46H18.2229V16.536H20.4909ZM31.9707 16.44V18H25.4667V9.6H31.8147V11.16H27.3987V12.984H31.2987V14.496H27.3987V16.44H31.9707ZM35.2575 11.184H32.5695V9.6H39.8895V11.184H37.2015V18H35.2575V11.184ZM46.0456 16.2H42.1456L41.4016 18H39.4096L43.1536 9.6H45.0736L48.8296 18H46.7896L46.0456 16.2ZM45.4336 14.724L44.1016 11.508L42.7696 14.724H45.4336Z" fill="white" fill-opacity="0.95"/>
</svg>
