<svg width="14" height="12" viewBox="0 0 14 12" fill="none" xmlns="http://www.w3.org/2000/svg">
<path d="M13.0666 10.7031L7.37906 0.859375C7.29429 0.713086 7.148 0.640625 7.00035 0.640625C6.85269 0.640625 6.70503 0.713086 6.62163 0.859375L0.934136 10.7031C0.765971 10.9957 0.976518 11.3594 1.31285 11.3594H12.6878C13.0242 11.3594 13.2347 10.9957 13.0666 10.7031ZM6.56285 4.6875C6.56285 4.62734 6.61206 4.57812 6.67222 4.57812H7.32847C7.38863 4.57812 7.43785 4.62734 7.43785 4.6875V7.20312C7.43785 7.26328 7.38863 7.3125 7.32847 7.3125H6.67222C6.61206 7.3125 6.56285 7.26328 6.56285 7.20312V4.6875ZM7.00035 9.5C6.82862 9.49649 6.6651 9.42581 6.54489 9.30312C6.42468 9.18044 6.35736 9.01551 6.35736 8.84375C6.35736 8.67199 6.42468 8.50706 6.54489 8.38438C6.6651 8.26169 6.82862 8.19101 7.00035 8.1875C7.17207 8.19101 7.33559 8.26169 7.4558 8.38438C7.57601 8.50706 7.64334 8.67199 7.64334 8.84375C7.64334 9.01551 7.57601 9.18044 7.4558 9.30312C7.33559 9.42581 7.17207 9.49649 7.00035 9.5V9.5Z" fill="#D26121"/>
</svg>
