<svg width="35" height="28" viewBox="0 0 35 28" fill="none" xmlns="http://www.w3.org/2000/svg">
<path d="M22.5 11.3333H19.2675L15.8837 8.32556C15.7679 8.22218 15.6301 8.14019 15.4785 8.08432C15.3268 8.02844 15.1642 7.99979 15 8H10C9.83582 7.99979 9.67321 8.02844 9.52154 8.08432C9.36987 8.14019 9.23213 8.22218 9.11625 8.32556L5.7325 11.3333H2.5C1.12125 11.3333 0 12.33 0 13.5556V25.7778C0 27.0033 1.12125 28 2.5 28H22.5C23.8787 28 25 27.0033 25 25.7778V13.5556C25 12.33 23.8787 11.3333 22.5 11.3333ZM12.5 24.6667C9.1125 24.6667 6.25 22.1222 6.25 19.1111C6.25 16.0989 9.1125 13.5556 12.5 13.5556C15.8875 13.5556 18.75 16.0989 18.75 19.1111C18.75 22.1222 15.8875 24.6667 12.5 24.6667Z" fill="#F15A23"/>
<path d="M34.2999 8.14997C34.2999 10.3115 33.4413 12.3845 31.9129 13.9129C30.3845 15.4413 28.3115 16.2999 26.15 16.2999C23.9885 16.2999 21.9155 15.4413 20.3871 13.9129C18.8587 12.3845 18 10.3115 18 8.14997C18 5.98847 18.8587 3.91549 20.3871 2.38707C21.9155 0.858656 23.9885 0 26.15 0C28.3115 0 30.3845 0.858656 31.9129 2.38707C33.4413 3.91549 34.2999 5.98847 34.2999 8.14997ZM22.075 8.14997C22.075 8.28507 22.1287 8.41463 22.2242 8.51016C22.3197 8.60568 22.4493 8.65935 22.5844 8.65935H25.6406V11.7156C25.6406 11.8507 25.6943 11.9802 25.7898 12.0758C25.8853 12.1713 26.0149 12.225 26.15 12.225C26.2851 12.225 26.4146 12.1713 26.5102 12.0758C26.6057 11.9802 26.6593 11.8507 26.6593 11.7156V8.65935H29.7156C29.8507 8.65935 29.9802 8.60568 30.0758 8.51016C30.1713 8.41463 30.225 8.28507 30.225 8.14997C30.225 8.01488 30.1713 7.88532 30.0758 7.78979C29.9802 7.69427 29.8507 7.6406 29.7156 7.6406H26.6593V4.58436C26.6593 4.44927 26.6057 4.31971 26.5102 4.22418C26.4146 4.12865 26.2851 4.07499 26.15 4.07499C26.0149 4.07499 25.8853 4.12865 25.7898 4.22418C25.6943 4.31971 25.6406 4.44927 25.6406 4.58436V7.6406H22.5844C22.4493 7.6406 22.3197 7.69427 22.2242 7.78979C22.1287 7.88532 22.075 8.01488 22.075 8.14997Z" fill="#F15A23"/>
</svg>
