<svg width="44" height="39" viewBox="0 0 44 39" fill="none" xmlns="http://www.w3.org/2000/svg">
<path d="M7.5 38.9999C6 38.9999 4.88334 38.4999 4.15 37.4999C3.41667 36.4999 3.2 35.2332 3.5 33.6999C3.86667 31.9999 4.11667 30.2999 4.25 28.5999C4.38334 26.8999 4.46667 25.1999 4.5 23.4999C3.2 22.9999 2.12467 22.1666 1.274 20.9999C0.423336 19.8332 -0.0013302 18.4999 3.12989e-06 16.9999V15.5999C3.12989e-06 14.8666 0.242003 14.1666 0.726003 13.4999C1.21 12.8332 1.78467 12.3666 2.45 12.0999C6.15 10.5999 9.492 8.78324 12.476 6.6499C15.46 4.51657 17.8013 2.73324 19.5 1.2999C19.8667 0.999902 20.2587 0.775236 20.676 0.625902C21.0933 0.476569 21.5347 0.401236 22 0.399902C22.4667 0.399902 22.9087 0.475236 23.326 0.625902C23.7433 0.776569 24.1347 1.00124 24.5 1.2999C26.2 2.73324 28.542 4.51657 31.526 6.6499C34.51 8.78324 37.8513 10.5999 41.55 12.0999C42.2167 12.3666 42.792 12.8332 43.276 13.4999C43.76 14.1666 44.0013 14.8666 44 15.5999V16.9999C44 18.4999 43.5753 19.8332 42.726 20.9999C41.8767 22.1666 40.8013 22.9999 39.5 23.4999C39.5333 25.1999 39.6167 26.8999 39.75 28.5999C39.8833 30.2999 40.1333 31.9999 40.5 33.6999C40.8 35.2332 40.5833 36.4999 39.85 37.4999C39.1167 38.4999 38 38.9999 36.5 38.9999H7.5ZM9.8 12.9999H34.2C31.6 11.5332 29.258 10.0246 27.174 8.4739C25.09 6.92323 23.3653 5.56524 22 4.3999C20.6333 5.56657 18.908 6.92524 16.824 8.4759C14.74 10.0266 12.3987 11.5346 9.8 12.9999ZM27 19.9999C27.8333 19.9999 28.542 19.7079 29.126 19.1239C29.71 18.5399 30.0013 17.8319 30 16.9999H24C24 17.8332 24.292 18.5419 24.876 19.1259C25.46 19.7099 26.168 20.0012 27 19.9999ZM17 19.9999C17.8333 19.9999 18.542 19.7079 19.126 19.1239C19.71 18.5399 20.0013 17.8319 20 16.9999H14C14 17.8332 14.292 18.5419 14.876 19.1259C15.46 19.7099 16.168 20.0012 17 19.9999ZM7 19.9999C7.83334 19.9999 8.542 19.7079 9.126 19.1239C9.71 18.5399 10.0013 17.8319 10 16.9999H4C4 17.8332 4.292 18.5419 4.876 19.1259C5.46 19.7099 6.168 20.0012 7 19.9999ZM7.3 34.9999H12.65C12.95 32.9999 13.1833 31.0166 13.35 29.0499C13.5167 27.0832 13.65 25.0999 13.75 23.0999C13.45 22.9332 13.15 22.7579 12.85 22.5739C12.55 22.3899 12.2667 22.1652 12 21.8999C11.5 22.3999 10.958 22.8086 10.374 23.1259C9.79 23.4432 9.16534 23.6846 8.5 23.8499C8.43334 25.7499 8.31667 27.6252 8.15 29.4759C7.98334 31.3266 7.7 33.1679 7.3 34.9999ZM16.7 34.9999H27.3C27.0333 33.1666 26.8253 31.3332 26.676 29.4999C26.5267 27.6666 26.4013 25.8166 26.3 23.9499C25.4333 23.8832 24.6413 23.6752 23.924 23.3259C23.2067 22.9766 22.5653 22.5179 22 21.9499C21.4333 22.5166 20.7747 22.9752 20.024 23.3259C19.2733 23.6766 18.4987 23.8846 17.7 23.9499C17.6 25.8166 17.4753 27.6666 17.326 29.4999C17.1767 31.3332 16.968 33.1666 16.7 34.9999ZM31.35 34.9999H36.7C36.3 33.1666 36.0167 31.3246 35.85 29.4739C35.6833 27.6232 35.5667 25.7486 35.5 23.8499C34.8333 23.6832 34.2 23.4412 33.6 23.1239C33 22.8066 32.4667 22.3986 32 21.8999C31.7333 22.1666 31.45 22.3919 31.15 22.5759C30.85 22.7599 30.55 22.9346 30.25 23.0999C30.35 25.0999 30.492 27.0832 30.676 29.0499C30.86 31.0166 31.086 32.9999 31.35 34.9999ZM37 19.9999C37.8333 19.9999 38.542 19.7079 39.126 19.1239C39.71 18.5399 40.0013 17.8319 40 16.9999H34C34 17.8332 34.292 18.5419 34.876 19.1259C35.46 19.7099 36.168 20.0012 37 19.9999Z" fill="#FF713C"/>
</svg>
