<svg width="38" height="22" viewBox="0 0 38 22" fill="none" xmlns="http://www.w3.org/2000/svg">
<g clip-path="url(#clip0)">
<path d="M5.2001 21.5999C4.9001 21.5999 4.6001 21.2999 4.6001 20.9999V15.9999C4.6001 15.6999 4.9001 15.3999 5.2001 15.3999C5.5001 15.3999 5.8001 15.6999 5.8001 15.9999V20.9999C5.8001 21.2999 5.5001 21.5999 5.2001 21.5999Z" fill="#FF713C"/>
<path d="M13.2001 21.5999C12.9001 21.5999 12.6001 21.2999 12.6001 20.9999V15.9999C12.6001 15.6999 12.9001 15.3999 13.2001 15.3999C13.5001 15.3999 13.8001 15.6999 13.8001 15.9999V20.9999C13.8001 21.2999 13.5001 21.5999 13.2001 21.5999Z" fill="#FF713C"/>
<path d="M15.3998 21.5998H2.8998C2.6998 21.5998 2.5998 21.4998 2.4998 21.3998C2.3998 21.2998 2.2998 21.0998 2.2998 20.9998V14.3998C2.2998 14.3998 2.2998 14.3998 2.2998 14.2998C2.3998 12.9998 3.4998 11.8998 4.7998 11.5998L7.1998 11.1998C7.4998 11.0998 7.79981 11.3998 7.89981 11.6998C7.99981 11.9998 7.69981 12.2998 7.39981 12.3998L4.9998 12.8998C4.1998 12.9998 3.5998 13.6998 3.4998 14.4998V20.3998H14.7998V14.4998C14.6998 13.6998 14.0998 13.0998 13.2998 12.8998L10.8998 12.4998C10.5998 12.3998 10.2998 12.0998 10.3998 11.7998C10.4998 11.4998 10.7998 11.1998 11.0998 11.2998L13.4998 11.6998C14.7998 11.8998 15.8998 12.9998 15.9998 14.3998C15.9998 14.3998 15.9998 14.3998 15.9998 14.4998V21.0998C15.9998 21.2998 15.8998 21.3998 15.7998 21.4998C15.7998 21.4998 15.5998 21.5998 15.3998 21.5998Z" fill="#FF713C"/>
<path d="M23.7001 21.5999C23.4001 21.5999 23.1001 21.2999 23.1001 20.9999V15.9999C23.1001 15.6999 23.4001 15.3999 23.7001 15.3999C24.0001 15.3999 24.3001 15.6999 24.3001 15.9999V20.9999C24.4001 21.2999 24.1001 21.5999 23.7001 21.5999Z" fill="#FF713C"/>
<path d="M31.8002 21.5999C31.5002 21.5999 31.2002 21.2999 31.2002 20.9999V15.9999C31.2002 15.6999 31.5002 15.3999 31.8002 15.3999C32.1002 15.3999 32.4002 15.6999 32.4002 15.9999V20.9999C32.4002 21.2999 32.1002 21.5999 31.8002 21.5999Z" fill="#FF713C"/>
<path d="M33.9999 21.5998H21.4999C21.2999 21.5998 21.1999 21.4998 21.0999 21.3998C20.9999 21.2998 20.8999 21.0998 20.8999 20.9998V14.3998C20.8999 14.3998 20.8999 14.3998 20.8999 14.2998C20.9999 12.9998 22.0999 11.8998 23.3999 11.5998L25.7999 11.1998C26.0999 11.0998 26.3999 11.3998 26.4999 11.6998C26.5999 11.9998 26.2999 12.2998 25.9999 12.3998L23.5999 12.7998C22.7999 12.8998 22.1999 13.5998 22.0999 14.3998V20.2998H33.3999V14.3998C33.2999 13.5998 32.6999 12.9998 31.8999 12.7998L29.4999 12.3998C29.1999 12.2998 28.8999 11.9998 28.9999 11.6998C29.0999 11.3998 29.3999 11.0998 29.6999 11.1998L32.0999 11.5998C33.3999 11.7998 34.4999 12.8998 34.5999 14.2998C34.5999 14.2998 34.5999 14.2998 34.5999 14.3998V20.9998C34.5999 21.1998 34.4999 21.2998 34.3999 21.3998C34.2999 21.4998 34.1999 21.5998 33.9999 21.5998Z" fill="#FF713C"/>
<path d="M9.10004 14.5001C8.90004 14.5001 8.80004 14.4001 8.60004 14.3001L6.80004 12.3001C6.70004 12.0001 6.70004 11.6001 7.00004 11.4001C7.30004 11.2001 7.60004 11.2001 7.90004 11.5001L9.10004 13.0001L10.5 11.5001C10.7 11.3001 11.1 11.2001 11.4 11.5001C11.6 11.7001 11.7 12.1001 11.4 12.4001L9.50004 14.4001C9.50004 14.4001 9.30004 14.5001 9.10004 14.5001Z" fill="#FF713C"/>
<path d="M27.8002 14.3C27.6002 14.3 27.5002 14.2 27.4002 14.1L25.6002 12.3C25.4002 12.1 25.4002 11.7 25.6002 11.4C25.8002 11.2 26.2002 11.2 26.5002 11.4L27.9002 12.8L29.3002 11.4C29.5002 11.2 29.9002 11.2 30.2002 11.4C30.4002 11.6 30.4002 12 30.2002 12.3L28.4002 14.1C28.1002 14.2 27.9002 14.3 27.8002 14.3Z" fill="#FF713C"/>
<path d="M18.9998 10.9002C18.7998 10.9002 18.6998 10.8002 18.5998 10.7002L16.6998 9.00019C16.4998 8.80019 16.4998 8.4002 16.6998 8.1002C16.8998 7.9002 17.2998 7.9002 17.5998 8.1002L18.9998 9.50019L20.3998 8.1002C20.5998 7.9002 20.9998 7.9002 21.2998 8.1002C21.4998 8.3002 21.4998 8.70019 21.2998 9.00019L19.4998 10.8002C19.2998 10.9002 19.0998 10.9002 18.9998 10.9002Z" fill="#FF713C"/>
<path d="M19 7C17.1 7 15.5 5.4 15.5 3.5C15.5 1.6 17 0 19 0C20.9 0 22.5 1.6 22.5 3.5C22.5 5.4 20.9 7 19 7ZM19 1.2C17.7 1.2 16.7 2.2 16.7 3.5C16.7 4.8 17.7 5.8 19 5.8C20.3 5.8 21.3 4.8 21.3 3.5C21.2 2.2 20.2 1.2 19 1.2Z" fill="#FF713C"/>
<path d="M37.3 21.5999H0.6C0.3 21.5999 0 21.2999 0 20.9999C0 20.6999 0.3 20.3999 0.6 20.3999H37.3C37.6 20.3999 37.9 20.6999 37.9 20.9999C37.9 21.2999 37.6 21.5999 37.3 21.5999Z" fill="#FF713C"/>
<path d="M9.2002 10.2998C7.3002 10.2998 5.7002 8.6998 5.7002 6.7998C5.7002 4.8998 7.3002 3.2998 9.2002 3.2998C11.1002 3.2998 12.7002 4.8998 12.7002 6.7998C12.7002 8.6998 11.1002 10.2998 9.2002 10.2998ZM9.2002 4.5998C7.9002 4.5998 6.9002 5.5998 6.9002 6.8998C6.9002 8.1998 7.9002 9.1998 9.2002 9.1998C10.5002 9.1998 11.5002 8.1998 11.5002 6.8998C11.5002 5.5998 10.4002 4.5998 9.2002 4.5998Z" fill="#FF713C"/>
<path d="M27.7998 10.2998C25.8998 10.2998 24.2998 8.6998 24.2998 6.7998C24.2998 4.8998 25.8998 3.2998 27.7998 3.2998C29.6998 3.2998 31.2998 4.8998 31.2998 6.7998C31.2998 8.6998 29.6998 10.2998 27.7998 10.2998ZM27.7998 4.5998C26.4998 4.5998 25.4998 5.5998 25.4998 6.8998C25.4998 8.1998 26.4998 9.1998 27.7998 9.1998C29.0998 9.1998 30.0998 8.1998 30.0998 6.8998C29.9998 5.5998 28.9998 4.5998 27.7998 4.5998Z" fill="#FF713C"/>
<path d="M17.0002 7.8999L14.6002 8.2999C13.4002 8.4999 12.5002 9.3999 12.2002 10.4999L13.4002 10.8999C13.6002 10.1999 14.1002 9.5999 14.9002 9.4999L17.3002 9.0999C17.6002 8.9999 17.9002 8.6999 17.8002 8.3999C17.7002 8.0999 17.4002 7.8999 17.0002 7.8999Z" fill="#FF713C"/>
<path d="M23.3003 8.29999L20.9003 7.89999C20.6003 7.79999 20.3003 8.09999 20.2003 8.39999C20.1003 8.69999 20.4003 8.99999 20.7003 9.09999L23.1003 9.49999C23.8003 9.59999 24.3003 10.1 24.5003 10.8L25.7003 10.5C25.4003 9.39999 24.5003 8.49999 23.3003 8.29999Z" fill="#FF713C"/>
</g>
<defs>
<clipPath id="clip0">
<rect width="37.9" height="21.6" fill="white"/>
</clipPath>
</defs>
</svg>
