<svg width="46" height="32" viewBox="0 0 46 32" fill="none" xmlns="http://www.w3.org/2000/svg">
<path fill-rule="evenodd" clip-rule="evenodd" d="M6.07613 18.4434C5.39726 18.4434 4.88287 18.9626 4.88287 19.5529V28.9685C4.88287 29.5588 5.39726 30.078 6.07613 30.078H26.0776C26.7564 30.078 27.2708 29.5588 27.2708 28.9685V19.5529C27.2708 18.9626 26.7564 18.4434 26.0776 18.4434H6.07613ZM3.96338 19.5529C3.96338 18.4088 4.93669 17.5239 6.07613 17.5239H26.0776C27.217 17.5239 28.1903 18.4088 28.1903 19.5529V28.9685C28.1903 30.1126 27.217 30.9975 26.0776 30.9975H6.07613C4.93669 30.9975 3.96338 30.1126 3.96338 28.9685V19.5529Z" fill="#FF713C"/>
<path fill-rule="evenodd" clip-rule="evenodd" d="M7.5969 20.294C6.99515 20.294 6.66656 20.6833 6.66656 20.9836V27.8798C6.66656 28.1801 6.99516 28.5694 7.5969 28.5694H24.4324C25.0342 28.5694 25.3628 28.1801 25.3628 27.8798V20.9836C25.3628 20.6833 25.0342 20.294 24.4324 20.294H7.5969ZM5.74707 20.9836C5.74707 20.0234 6.65411 19.3745 7.5969 19.3745H24.4324C25.3752 19.3745 26.2823 20.0234 26.2823 20.9836V27.8798C26.2823 28.84 25.3752 29.4889 24.4324 29.4889H7.5969C6.65411 29.4889 5.74707 28.84 5.74707 27.8798V20.9836Z" fill="#FF713C"/>
<path d="M16.4487 27.7709C18.3887 27.7709 19.9613 26.1993 19.9613 24.2607C19.9613 22.3221 18.3887 20.7505 16.4487 20.7505C14.5087 20.7505 12.936 22.3221 12.936 24.2607C12.936 26.1993 14.5087 27.7709 16.4487 27.7709Z" fill="#FF713C"/>
<path fill-rule="evenodd" clip-rule="evenodd" d="M22.7576 19.9873C23.0115 19.9873 23.2173 20.1931 23.2173 20.447C23.2173 20.7697 23.3918 21.1046 23.7472 21.3743C24.1019 21.6435 24.6151 21.8263 25.2096 21.8263C25.4635 21.8263 25.6693 22.0321 25.6693 22.286C25.6693 22.5399 25.4635 22.7458 25.2096 22.7458C24.4326 22.7458 23.7198 22.5078 23.1914 22.1068C22.6637 21.7064 22.2979 21.1218 22.2979 20.447C22.2979 20.1931 22.5037 19.9873 22.7576 19.9873Z" fill="#FF713C"/>
<path fill-rule="evenodd" clip-rule="evenodd" d="M6.36035 26.5774C6.36035 26.3235 6.56619 26.1177 6.82009 26.1177C7.50713 26.1177 8.09292 26.4833 8.49175 27.0151C8.88963 27.5456 9.11881 28.2581 9.11881 29.0294C9.11881 29.2833 8.91298 29.4891 8.65907 29.4891C8.40516 29.4891 8.19932 29.2833 8.19932 29.0294C8.19932 28.434 8.02152 27.9206 7.75616 27.5667C7.49176 27.2142 7.15806 27.0372 6.82009 27.0372C6.56619 27.0372 6.36035 26.8313 6.36035 26.5774Z" fill="#FF713C"/>
<path fill-rule="evenodd" clip-rule="evenodd" d="M8.65907 19.9873C8.91298 19.9873 9.11881 20.1931 9.11881 20.447C9.11881 21.6933 8.10764 22.7458 6.82009 22.7458C6.56619 22.7458 6.36035 22.5399 6.36035 22.286C6.36035 22.0321 6.56619 21.8263 6.82009 21.8263C7.58971 21.8263 8.19932 21.1956 8.19932 20.447C8.19932 20.1931 8.40516 19.9873 8.65907 19.9873Z" fill="#FF713C"/>
<path fill-rule="evenodd" clip-rule="evenodd" d="M22.2979 29.0294C22.2979 27.4088 23.589 26.1177 25.2096 26.1177C25.4635 26.1177 25.6693 26.3235 25.6693 26.5774C25.6693 26.8313 25.4635 27.0372 25.2096 27.0372C24.0968 27.0372 23.2173 27.9166 23.2173 29.0294C23.2173 29.2833 23.0115 29.4891 22.7576 29.4891C22.5037 29.4891 22.2979 29.2833 22.2979 29.0294Z" fill="#FF713C"/>
<path d="M16.0354 25.0041L15.6222 24.3847H15.5809H15.1263V25.0041H14.6304V22.8154H15.5809C15.7875 22.8154 15.9528 22.8567 16.0768 22.898C16.2007 22.9806 16.3247 23.0632 16.4074 23.1871C16.49 23.311 16.5313 23.4349 16.5313 23.6001C16.5313 23.7652 16.49 23.8891 16.4074 24.013C16.3247 24.1369 16.2007 24.2195 16.0768 24.3021L16.5727 25.0041H16.0354ZM15.9115 23.311C15.8288 23.2697 15.7048 23.2284 15.5395 23.2284H15.1263V23.9717H15.5395C15.7048 23.9717 15.7875 23.9304 15.8701 23.8891C15.9528 23.8065 15.9941 23.7239 15.9941 23.6001C16.0354 23.4762 15.9941 23.3936 15.9115 23.311Z" fill="white"/>
<path d="M18.3084 23.3936C18.4324 23.4762 18.5563 23.5588 18.5977 23.6827C18.6803 23.8066 18.7216 23.9718 18.7216 24.137C18.7216 24.3021 18.6803 24.4673 18.5977 24.5912C18.515 24.7151 18.4324 24.839 18.3084 24.8803C18.1844 24.9629 18.0191 25.0042 17.8951 25.0042C17.6885 25.0042 17.5232 24.9216 17.3992 24.7977V25.5823H16.9033V23.311H17.3579V23.5175C17.4819 23.3523 17.6472 23.311 17.8951 23.311C18.0604 23.311 18.1844 23.311 18.3084 23.3936ZM18.1018 24.5086C18.1844 24.426 18.2257 24.3021 18.2257 24.1783C18.2257 24.0544 18.1844 23.9305 18.1018 23.8479C18.0191 23.7653 17.9365 23.724 17.8125 23.724C17.6885 23.724 17.6059 23.7653 17.5232 23.8479C17.4405 23.9305 17.3992 24.0544 17.3992 24.1783C17.3992 24.3021 17.4405 24.426 17.5232 24.5086C17.6059 24.5912 17.6885 24.6325 17.8125 24.6325C17.9365 24.6325 18.0191 24.5912 18.1018 24.5086Z" fill="white"/>
<path fill-rule="evenodd" clip-rule="evenodd" d="M6.07613 3.20513C5.39726 3.20513 4.88287 3.72433 4.88287 4.31465V13.7302C4.88287 14.3205 5.39726 14.8397 6.07613 14.8397H26.0776C26.7564 14.8397 27.2708 14.3205 27.2708 13.7302V4.31465C27.2708 3.72433 26.7564 3.20513 26.0776 3.20513H6.07613ZM3.96338 4.31465C3.96338 3.17052 4.93669 2.28564 6.07613 2.28564H26.0776C27.217 2.28564 28.1903 3.17052 28.1903 4.31465V13.7302C28.1903 14.8743 27.217 15.7592 26.0776 15.7592H6.07613C4.93669 15.7592 3.96338 14.8743 3.96338 13.7302V4.31465Z" fill="#FF713C"/>
<path fill-rule="evenodd" clip-rule="evenodd" d="M7.5969 5.05572C6.99515 5.05572 6.66656 5.44499 6.66656 5.74533V12.6415C6.66656 12.9418 6.99516 13.3311 7.5969 13.3311H24.4324C25.0342 13.3311 25.3628 12.9418 25.3628 12.6415V5.74533C25.3628 5.44499 25.0342 5.05572 24.4324 5.05572H7.5969ZM5.74707 5.74533C5.74707 4.78509 6.65411 4.13623 7.5969 4.13623H24.4324C25.3752 4.13623 26.2823 4.78509 26.2823 5.74533V12.6415C26.2823 13.6017 25.3752 14.2506 24.4324 14.2506H7.5969C6.65411 14.2506 5.74707 13.6017 5.74707 12.6415V5.74533Z" fill="#FF713C"/>
<path fill-rule="evenodd" clip-rule="evenodd" d="M22.7576 4.74902C23.0115 4.74902 23.2173 4.95486 23.2173 5.20877C23.2173 5.5314 23.3918 5.86634 23.7472 6.13604C24.1019 6.40517 24.6151 6.588 25.2096 6.588C25.4635 6.588 25.6693 6.79383 25.6693 7.04774C25.6693 7.30165 25.4635 7.50748 25.2096 7.50748C24.4326 7.50748 23.7198 7.26953 23.1914 6.86852C22.6637 6.46809 22.2979 5.88354 22.2979 5.20877C22.2979 4.95486 22.5037 4.74902 22.7576 4.74902Z" fill="#FF713C"/>
<path fill-rule="evenodd" clip-rule="evenodd" d="M6.36035 11.3391C6.36035 11.0852 6.56619 10.8794 6.82009 10.8794C7.50713 10.8794 8.09292 11.245 8.49175 11.7768C8.88963 12.3073 9.11881 13.0198 9.11881 13.7911C9.11881 14.045 8.91298 14.2508 8.65907 14.2508C8.40516 14.2508 8.19932 14.045 8.19932 13.7911C8.19932 13.1957 8.02152 12.6823 7.75616 12.3285C7.49176 11.9759 7.15806 11.7989 6.82009 11.7989C6.56619 11.7989 6.36035 11.593 6.36035 11.3391Z" fill="#FF713C"/>
<path fill-rule="evenodd" clip-rule="evenodd" d="M8.65907 4.74902C8.91298 4.74902 9.11881 4.95486 9.11881 5.20877C9.11881 6.455 8.10764 7.50748 6.82009 7.50748C6.56619 7.50748 6.36035 7.30165 6.36035 7.04774C6.36035 6.79383 6.56619 6.588 6.82009 6.588C7.58971 6.588 8.19932 5.95735 8.19932 5.20877C8.19932 4.95486 8.40516 4.74902 8.65907 4.74902Z" fill="#FF713C"/>
<path fill-rule="evenodd" clip-rule="evenodd" d="M22.2979 13.7911C22.2979 12.1705 23.589 10.8794 25.2096 10.8794C25.4635 10.8794 25.6693 11.0852 25.6693 11.3391C25.6693 11.593 25.4635 11.7989 25.2096 11.7989C24.0968 11.7989 23.2173 12.6783 23.2173 13.7911C23.2173 14.045 23.0115 14.2508 22.7576 14.2508C22.5037 14.2508 22.2979 14.045 22.2979 13.7911Z" fill="#FF713C"/>
<path d="M16.0354 9.76585L15.6222 9.14641H15.5809H15.1263V9.76585H14.6304V7.57715H15.5809C15.7875 7.57715 15.9528 7.61845 16.0768 7.65974C16.2007 7.74233 16.3247 7.82493 16.4074 7.94881C16.49 8.0727 16.5313 8.19659 16.5313 8.36178C16.5313 8.52696 16.49 8.65085 16.4074 8.77474C16.3247 8.89863 16.2007 8.98122 16.0768 9.06381L16.5727 9.76585H16.0354ZM15.9115 8.0727C15.8288 8.03141 15.7048 7.99011 15.5395 7.99011H15.1263V8.73344H15.5395C15.7048 8.73344 15.7875 8.69215 15.8701 8.65085C15.9528 8.56826 15.9941 8.48567 15.9941 8.36178C16.0354 8.23789 15.9941 8.1553 15.9115 8.0727Z" fill="white"/>
<path d="M18.3084 8.15535C18.4324 8.23794 18.5563 8.32053 18.5977 8.44442C18.6803 8.56831 18.7216 8.73349 18.7216 8.89868C18.7216 9.06386 18.6803 9.22905 18.5977 9.35294C18.515 9.47683 18.4324 9.60071 18.3084 9.64201C18.1844 9.7246 18.0191 9.7659 17.8951 9.7659C17.6885 9.7659 17.5232 9.68331 17.3992 9.55942V10.344H16.9033V8.07275H17.3579V8.27924C17.4819 8.11405 17.6472 8.07275 17.8951 8.07275C18.0604 8.07275 18.1844 8.07275 18.3084 8.15535ZM18.1018 9.27034C18.1844 9.18775 18.2257 9.06386 18.2257 8.93997C18.2257 8.81609 18.1844 8.6922 18.1018 8.6096C18.0191 8.52701 17.9365 8.48572 17.8125 8.48572C17.6885 8.48572 17.6059 8.52701 17.5232 8.6096C17.4405 8.6922 17.3992 8.81609 17.3992 8.93997C17.3992 9.06386 17.4405 9.18775 17.5232 9.27034C17.6059 9.35294 17.6885 9.39423 17.8125 9.39423C17.9365 9.39423 18.0191 9.35294 18.1018 9.27034Z" fill="white"/>
<path d="M12.5323 9.27989C12.6847 9.32814 12.8041 9.40941 12.8904 9.5237C12.9768 9.63544 13.0199 9.77385 13.0199 9.93893C13.0199 10.1726 12.9285 10.3529 12.7456 10.4799C12.5653 10.6043 12.3012 10.6666 11.9533 10.6666H10.5742V7.99989H11.8771C12.2022 7.99989 12.451 8.06211 12.6237 8.18655C12.799 8.311 12.8866 8.47989 12.8866 8.69322C12.8866 8.82274 12.8549 8.9383 12.7914 9.03989C12.7304 9.14147 12.6441 9.22147 12.5323 9.27989ZM11.1876 8.46465V9.09322H11.8009C11.9533 9.09322 12.0688 9.06655 12.1476 9.01322C12.2263 8.95989 12.2656 8.88116 12.2656 8.77703C12.2656 8.6729 12.2263 8.59544 12.1476 8.54465C12.0688 8.49131 11.9533 8.46465 11.8009 8.46465H11.1876ZM11.9076 10.2018C12.0701 10.2018 12.192 10.1751 12.2733 10.1218C12.3571 10.0685 12.399 9.98592 12.399 9.87417C12.399 9.65322 12.2352 9.54274 11.9076 9.54274H11.1876V10.2018H11.9076Z" fill="#FF713C"/>
<path d="M13.4453 8.61703H14.0395V10.6666H13.4453V8.61703ZM13.7424 8.33131C13.6332 8.33131 13.5443 8.29957 13.4757 8.23608C13.4072 8.17258 13.3729 8.09385 13.3729 7.99989C13.3729 7.90592 13.4072 7.82719 13.4757 7.7637C13.5443 7.7002 13.6332 7.66846 13.7424 7.66846C13.8516 7.66846 13.9405 7.69893 14.0091 7.75989C14.0776 7.82084 14.1119 7.89703 14.1119 7.98846C14.1119 8.0875 14.0776 8.17004 14.0091 8.23608C13.9405 8.29957 13.8516 8.33131 13.7424 8.33131Z" fill="#FF713C"/>
<path d="M14.5911 7.83989H15.1854V10.6666H14.5911V7.83989Z" fill="#FF713C"/>
<path d="M17.7712 8.61703L16.8455 10.7923C16.7515 11.0285 16.6347 11.1948 16.495 11.2913C16.3579 11.3878 16.1915 11.4361 15.996 11.4361C15.8893 11.4361 15.7839 11.4196 15.6798 11.3866C15.5757 11.3535 15.4906 11.3078 15.4245 11.2494L15.6417 10.8266C15.6874 10.8672 15.7395 10.8989 15.7979 10.9218C15.8588 10.9446 15.9185 10.9561 15.9769 10.9561C16.0582 10.9561 16.1242 10.9358 16.175 10.8951C16.2258 10.857 16.2715 10.7923 16.3122 10.7008L16.3198 10.6818L15.4322 8.61703H16.0455L16.6207 10.0075L17.1998 8.61703H17.7712Z" fill="#FF713C"/>
<path d="M19.9655 9.64941C19.9655 9.65703 19.9617 9.71036 19.9541 9.80941H18.4036C18.4316 9.93639 18.4976 10.0367 18.6017 10.1104C18.7058 10.184 18.8354 10.2208 18.9903 10.2208C19.097 10.2208 19.1909 10.2056 19.2722 10.1751C19.356 10.1421 19.4335 10.0913 19.5046 10.0227L19.8208 10.3656C19.6277 10.5866 19.3458 10.697 18.9751 10.697C18.7439 10.697 18.5395 10.6526 18.3617 10.5637C18.1839 10.4723 18.0468 10.3466 17.9503 10.1866C17.8538 10.0266 17.8055 9.84496 17.8055 9.64179C17.8055 9.44116 17.8525 9.26084 17.9465 9.10084C18.043 8.9383 18.1738 8.81258 18.3389 8.7237C18.5065 8.63227 18.6931 8.58655 18.8989 8.58655C19.0995 8.58655 19.2811 8.62973 19.4436 8.71608C19.6062 8.80243 19.7331 8.92687 19.8246 9.08941C19.9185 9.24941 19.9655 9.43608 19.9655 9.64941ZM18.9027 9.03608C18.7681 9.03608 18.6551 9.07417 18.5636 9.15036C18.4722 9.22655 18.4163 9.33068 18.396 9.46274H19.4055C19.3852 9.33322 19.3293 9.23036 19.2379 9.15417C19.1465 9.07544 19.0347 9.03608 18.9027 9.03608Z" fill="#FF713C"/>
<path d="M21.6831 10.5675C21.6247 10.6107 21.5523 10.6437 21.4659 10.6666C21.3821 10.6869 21.2932 10.697 21.1993 10.697C20.9555 10.697 20.7663 10.6348 20.6317 10.5104C20.4996 10.3859 20.4336 10.2031 20.4336 9.96179V9.11989H20.1174V8.66274H20.4336V8.1637H21.0278V8.66274H21.5383V9.11989H21.0278V9.95417C21.0278 10.0405 21.0494 10.1078 21.0926 10.1561C21.1383 10.2018 21.2018 10.2246 21.2831 10.2246C21.3771 10.2246 21.4571 10.1993 21.5231 10.1485L21.6831 10.5675Z" fill="#FF713C"/>
<path fill-rule="evenodd" clip-rule="evenodd" d="M29.7223 26.7229C29.7129 26.705 29.7041 26.6866 29.6959 26.6678C29.6084 26.4654 29.6098 26.2356 29.6996 26.0343L31.3818 22.2611C31.559 21.8636 32.025 21.685 32.4224 21.8622C32.8199 22.0395 32.9984 22.5054 32.8213 22.9028L31.8947 24.981C32.3146 24.8364 32.7254 24.6627 33.1232 24.461C35.3497 23.3328 37.0293 21.4078 37.8526 19.0406C38.6754 16.6749 38.5532 14.127 37.5088 11.8661C36.2476 9.13605 33.8649 7.17759 30.9711 6.49164C30.5478 6.39125 30.2858 5.96658 30.3861 5.54317C30.4865 5.11966 30.9112 4.85774 31.3346 4.95812C34.7023 5.7564 37.4742 8.0333 38.9395 11.2051C40.1561 13.8385 40.2987 16.8051 39.3411 19.5583C38.3831 22.3129 36.4278 24.5532 33.8356 25.8668C33.488 26.043 33.1317 26.2009 32.7689 26.3399L34.2566 26.8586C34.6675 27.0018 34.8845 27.4512 34.7413 27.8621C34.598 28.273 34.1487 28.49 33.7377 28.3468L30.1599 27.0992C29.971 27.0334 29.815 26.8985 29.7223 26.7229" fill="#FF713C"/>
</svg>
