<svg width="40" height="33" viewBox="0 0 40 33" fill="none" xmlns="http://www.w3.org/2000/svg">
<path fill-rule="evenodd" clip-rule="evenodd" d="M34.6929 22.5906C34.6631 22.5906 34.6332 22.5894 34.6033 22.5871C34.281 22.5621 33.984 22.4031 33.7844 22.149L30.0428 17.3865C29.6485 16.8849 29.7357 16.1585 30.2374 15.7644C30.7392 15.3704 31.4654 15.4576 31.8595 15.9591L33.9203 18.5822C34.0201 17.9389 34.0758 17.2873 34.0865 16.6336C34.1467 12.9748 32.7997 9.48011 30.2936 6.79332C27.789 4.10812 24.4017 2.52343 20.7557 2.33108C16.3531 2.09874 12.1837 3.84849 9.31467 7.13137C8.89488 7.61166 8.16506 7.66076 7.68463 7.24112C7.2042 6.82119 7.1551 6.09137 7.57488 5.61108C10.9138 1.79043 15.7623 -0.2461 20.8774 0.0237922C25.1242 0.247763 29.0683 2.09224 31.9831 5.21744C34.8994 8.34394 36.4667 12.4118 36.3967 16.6716C36.3873 17.2427 36.3483 17.8128 36.2803 18.3783L37.9706 16.8042C38.4374 16.3694 39.1685 16.3953 39.6033 16.8622C40.0381 17.3291 40.0121 18.06 39.5453 18.495L35.4802 22.2807C35.2656 22.4805 34.9838 22.5906 34.6929 22.5906" fill="#FF713C"/>
<path fill-rule="evenodd" clip-rule="evenodd" d="M19.9365 32.7307C19.6371 32.7307 19.3373 32.7227 19.0358 32.7069C14.789 32.4829 10.8448 30.6384 7.9299 27.5132C5.0138 24.3867 3.44644 20.3188 3.51647 16.0591C3.52586 15.4878 3.56485 14.9178 3.63286 14.3522L1.94261 15.9265C1.47561 16.3613 0.744633 16.3353 0.309832 15.8684C-0.12497 15.4014 -0.098977 14.6705 0.367882 14.2357L4.43301 10.45C4.66954 10.2296 4.98738 10.1188 5.30983 10.1435C5.632 10.1685 5.92918 10.3275 6.12875 10.5817L9.87041 15.3441C10.2646 15.8458 10.1774 16.5721 9.67575 16.9662C9.17409 17.3604 8.44774 17.2734 8.05366 16.7715L5.99286 14.1484C5.89308 14.7918 5.83734 15.4433 5.82665 16.097C5.76644 19.7557 7.11344 23.2504 9.61958 25.9373C12.1241 28.6225 15.5113 30.2072 19.1573 30.3996C23.5592 30.6309 27.7295 28.8822 30.5984 25.5993C31.0181 25.1188 31.7478 25.0696 32.2285 25.4895C32.709 25.9093 32.7581 26.6391 32.3381 27.1196C29.1962 30.7151 24.7163 32.7307 19.9365 32.7307" fill="#FF713C"/>
<path d="M25.6161 21.0379V21.2472H22.9878V21.0379C22.9878 20.8285 23.1981 20.6191 23.4083 20.6191H25.0905C25.4059 20.6191 25.6161 20.8285 25.6161 21.0379Z" fill="#FF713C"/>
<path d="M16.3646 14.6528H15.103V20.2009H16.3646V14.6528Z" fill="#FF713C"/>
<path d="M20.6747 14.6528H19.4131V20.2009H20.6747V14.6528Z" fill="#FF713C"/>
<path d="M20.8854 14.234H19.2032C18.993 14.234 18.7827 14.0247 18.7827 13.8153V13.606H21.3059V13.8153C21.3059 14.0247 21.0956 14.234 20.8854 14.234Z" fill="#FF713C"/>
<path d="M18.7827 21.0379C18.7827 20.8285 18.993 20.6191 19.2032 20.6191H20.8854C21.0956 20.6191 21.3059 20.8285 21.3059 21.0379V21.2472H18.7827V21.0379Z" fill="#FF713C"/>
<path d="M24.9857 14.6528H23.7241V20.2009H24.9857V14.6528Z" fill="#FF713C"/>
<path d="M25.6161 13.8153C25.6161 14.0247 25.4059 14.234 25.1956 14.234H23.4083C23.1981 14.234 22.9878 14.0247 22.9878 13.8153V13.606H25.6161V13.8153Z" fill="#FF713C"/>
<path d="M14.2622 13.1874H13.9468L20.0445 9.41895L26.1422 13.1874H25.8268H22.7779H21.5163H18.5726H17.311H14.2622Z" fill="#FF713C"/>
<path d="M14.4722 13.8153V13.606H16.9954V13.8153C16.9954 14.0247 16.7851 14.234 16.5748 14.234H14.8927C14.6824 14.234 14.4722 14.0247 14.4722 13.8153Z" fill="#FF713C"/>
<path d="M14.4722 21.0379C14.4722 20.8285 14.6824 20.6191 14.8927 20.6191H16.5748C16.7851 20.6191 16.9954 20.8285 16.9954 21.0379V21.2472H14.4722V21.0379Z" fill="#FF713C"/>
<path d="M26.6677 22.5035H13.4209V22.0847C13.4209 21.8754 13.6312 21.666 13.8414 21.666H14.262H17.2057H18.4673H21.411H22.6726H25.6163H26.0369C26.2471 21.666 26.4574 21.8754 26.4574 22.0847V22.5035H26.6677Z" fill="#FF713C"/>
<path d="M20.044 12.5594C20.6246 12.5594 21.0953 12.0907 21.0953 11.5126C21.0953 10.9345 20.6246 10.4658 20.044 10.4658C19.4634 10.4658 18.9927 10.9345 18.9927 11.5126C18.9927 12.0907 19.4634 12.5594 20.044 12.5594Z" fill="#FF713C"/>
<path d="M20.0439 12.1404C20.3923 12.1404 20.6747 11.8592 20.6747 11.5124C20.6747 11.1655 20.3923 10.8843 20.0439 10.8843C19.6955 10.8843 19.4131 11.1655 19.4131 11.5124C19.4131 11.8592 19.6955 12.1404 20.0439 12.1404Z" fill="white"/>
</svg>
