<svg width="46" height="47" viewBox="0 0 46 47" fill="none" xmlns="http://www.w3.org/2000/svg">
<mask id="mask0" mask-type="alpha" maskUnits="userSpaceOnUse" x="0" y="0" width="46" height="47">
<path fill-rule="evenodd" clip-rule="evenodd" d="M0 0H45.9811V46.9996H0V0Z" fill="white"/>
</mask>
<g mask="url(#mask0)">
<path fill-rule="evenodd" clip-rule="evenodd" d="M8.48402 37.3559C16.7152 46.4368 30.5033 45.4845 37.526 37.3301C29.7135 28.8779 16.5358 28.6984 8.48402 37.3559ZM6.53996 34.881C11.104 30.2606 16.597 27.813 23.0264 27.8175C29.4466 27.8221 34.9331 30.2764 39.4894 34.8938C44.9012 26.904 44.1234 15.0296 35.792 7.87576C28.0931 1.26494 16.416 1.37493 8.88826 9.12608C1.18162 17.0617 1.88606 28.2286 6.53996 34.881ZM23.0158 46.9996C10.1483 46.8936 -0.00297795 36.407 6.55322e-07 23.4253C0.00281378 10.7812 10.0021 -0.0511826 23.1156 0.000181927C35.661 0.04935 46.0611 10.4236 45.9807 23.639C45.9034 36.3355 35.9916 46.8593 23.0158 46.9996Z" fill="white"/>
</g>
<path fill-rule="evenodd" clip-rule="evenodd" d="M23.46 22.611C26.9529 22.6107 29.7217 19.7736 29.7244 16.1922C29.7271 12.6436 26.9563 9.80825 23.4808 9.80271C19.9846 9.79734 17.2162 12.6312 17.2173 16.2141C17.2184 19.7663 19.995 22.6115 23.46 22.611ZM23.4641 25.8345C18.2641 25.8222 14.07 21.4954 14.083 16.1569C14.0957 10.8782 18.3113 6.58676 23.4771 6.59351C28.6652 6.60027 32.8821 10.9239 32.8595 16.2137C32.8368 21.5404 28.6312 25.8468 23.4641 25.8345Z" fill="white"/>
</svg>
