<svg width="32" height="25" viewBox="0 0 32 25" fill="none" xmlns="http://www.w3.org/2000/svg">
<path d="M31.5626 23.6403C31.5626 23.2292 31.4532 22.6127 31.2346 21.8933C30.9066 20.9684 30.6879 20.9684 30.5786 20.2491C30.4693 19.427 30.5786 19.0159 30.2506 18.2966C30.1413 18.1938 30.1413 17.9883 29.9226 17.7828C29.704 17.68 29.5946 17.7828 29.1573 17.68C28.5013 17.5772 28.392 17.4745 28.064 17.5772C27.8453 17.68 27.8453 17.8855 27.6267 17.9883C27.408 18.0911 27.1894 17.9883 26.752 17.8855C26.6427 17.8855 26.3147 17.7828 25.5494 17.7828C24.8934 17.68 24.5654 17.68 24.1281 17.68C23.8001 17.68 23.2534 17.68 22.5975 17.8855C22.2695 17.9883 21.9415 18.0911 21.3948 18.2966C20.9575 18.5021 20.5202 18.6049 19.9735 18.9132C19.7549 19.0159 19.8642 19.0159 18.3336 20.0436C18.1149 20.1463 17.8962 20.3519 17.6776 20.6601C17.5683 20.7629 17.4589 20.9684 17.5683 21.2767C17.5683 21.585 17.7869 21.6878 17.7869 21.7905C17.6776 21.8933 17.2403 21.7905 16.5843 21.6878C16.0376 21.585 15.7096 21.585 15.2723 21.585C14.6163 21.585 14.0697 21.585 13.7417 21.585C12.9764 21.585 12.7577 21.6878 12.6484 21.6878C11.9924 21.8933 11.8831 21.9961 11.8831 22.0988C11.7737 22.3044 11.8831 22.5099 11.8831 22.5099C11.9924 22.7154 12.1017 22.8182 12.4297 23.0237C12.867 23.2292 13.3044 23.4348 13.523 23.4348C13.9603 23.5375 14.179 23.6403 14.6163 23.7431C14.7257 23.7431 15.163 23.8458 16.147 24.0513C16.9123 24.3596 17.3496 24.4624 18.0056 24.4624C18.5522 24.4624 19.0989 24.4624 19.5362 24.4624C19.7549 24.4624 19.9735 24.4624 20.3015 24.3596C20.6295 24.2569 20.9575 24.1541 21.3948 23.8458C22.0508 23.4348 22.0508 23.332 22.5975 23.0237C22.9255 22.8182 23.3628 22.5099 23.9094 22.4071C24.1281 22.3044 24.5654 22.2016 25.3307 22.0988C25.3307 22.0988 25.5494 22.0988 26.096 21.9961C26.424 21.9961 26.5334 21.9961 26.5334 22.0988C26.5334 22.2016 26.424 22.3044 26.424 22.4071C26.424 22.6127 26.5334 22.9209 26.752 23.0237C26.8614 23.1265 27.08 23.1265 27.1894 23.1265C27.9547 23.2292 28.72 23.332 29.4853 23.4348C30.1413 23.5375 30.4693 23.5375 31.1253 23.6403C31.3439 23.6403 31.4532 23.6403 31.5626 23.6403Z" fill="#F15A23"/>
<path d="M27.7367 18.0909C27.7367 17.8854 27.7367 17.7826 27.6274 17.7826C26.8621 17.6799 24.5661 17.2688 23.2542 17.3716C22.1609 17.4743 19.5369 18.6047 18.225 19.7351C17.569 20.3517 17.241 20.8655 17.3503 21.3794C17.3503 21.5849 17.4596 21.7904 17.569 21.8932C18.3343 22.7153 20.4116 21.5849 21.8329 20.66L21.9422 20.5573C22.0515 20.4545 22.0515 20.3517 22.0515 20.249C21.8329 20.3517 21.7235 20.3517 21.6142 20.3517L21.5049 20.4545C18.8809 22.0987 18.1156 21.9959 17.897 21.6876C17.7876 21.5849 17.7876 21.4821 17.7876 21.3794C17.6783 20.9683 18.1156 20.4545 18.5529 20.0434C19.8649 18.913 22.3795 17.8854 23.3635 17.7826C24.5661 17.6799 26.8621 17.9882 27.518 18.1937C27.518 18.2965 27.6274 18.1937 27.7367 18.0909Z" fill="#E64510"/>
<path d="M26.6427 22.3048C26.752 22.202 26.752 22.202 26.6427 22.3048C26.6427 22.0992 26.5333 21.9965 26.424 21.9965C24.1281 21.8937 23.1441 22.5103 22.1601 23.2296C21.5041 23.6407 20.9575 24.1545 19.8642 24.36C19.0989 24.5656 17.2402 24.36 15.3816 24.0517C13.0857 23.6407 11.9924 23.0241 11.883 22.7158C11.883 22.613 11.883 22.4075 11.883 22.3048C11.9924 22.0992 12.4297 21.8937 12.867 21.7909C14.0697 21.5854 16.2563 21.6882 17.3496 22.0992C17.4589 22.0992 17.5682 22.0992 17.6776 21.9965C17.6776 21.8937 17.6776 21.7909 17.5682 21.6882C16.4749 21.2771 14.2883 21.0716 12.9763 21.3799C12.539 21.3799 11.883 21.5854 11.6644 21.9965C11.5551 22.202 11.4457 22.5103 11.5551 22.7158C11.7737 23.5379 14.0697 24.1545 15.3816 24.36C17.0216 24.6683 19.2082 24.9766 20.0828 24.6683C21.2855 24.36 21.9415 23.949 22.5974 23.4352C23.5814 22.8186 24.3467 22.202 26.5333 22.3048C26.5333 22.4075 26.6427 22.3048 26.6427 22.3048Z" fill="#E64510"/>
<path d="M31.8908 23.7433C32.0002 23.6406 32.0002 23.5378 32.0002 23.4351C32.0002 22.7157 31.6722 21.9964 31.4535 21.1743C31.2349 20.4549 30.9069 19.7356 30.7975 19.0162C30.7975 18.9135 30.7975 18.8107 30.7975 18.7079C30.7975 18.2969 30.7975 17.9886 30.4695 17.6803C30.4695 17.6803 30.3602 17.5775 30.2509 17.5775C29.9229 17.372 29.1576 17.372 28.7203 17.2692C28.6109 17.2692 28.5016 17.2692 28.5016 17.2692C28.2829 17.2692 27.7363 17.1665 27.4083 17.8858C26.971 18.7079 26.4243 21.277 26.4243 22.0991C26.4243 22.6129 26.4243 22.9212 26.643 23.1268C26.8616 23.3323 27.8456 23.5378 29.8136 23.6406C30.4695 23.7433 30.9069 23.7433 31.2349 23.7433C31.4535 23.7433 31.6722 23.8461 31.8908 23.7433C31.8908 23.8461 31.7815 23.8461 31.8908 23.7433Z" fill="#E64510"/>
<path d="M27.627 18.0917C27.8456 17.6807 28.0643 17.6807 28.2829 17.6807C28.3923 17.6807 28.3923 17.6807 28.5016 17.6807C28.9389 17.6807 29.5949 17.7834 29.9229 17.8862H30.0322C30.1416 17.989 30.1416 18.2972 30.2509 18.6055C30.2509 18.7083 30.2509 18.8111 30.2509 18.9138C30.3602 19.6332 30.5789 20.4553 30.9069 21.1746C31.2349 21.9967 31.4535 22.7161 31.4535 23.3327C31.4535 23.3327 31.4535 23.3327 31.4535 23.4354C31.3442 23.4354 31.2349 23.4354 31.2349 23.4354C30.9069 23.4354 30.4696 23.3327 29.8136 23.2299C28.8296 23.1271 27.0803 23.0244 26.8616 22.8188C26.7523 22.7161 26.643 22.4078 26.7523 22.0995C26.7523 21.2774 27.299 18.8111 27.627 18.0917Z" fill="#FFB6AE"/>
<path d="M19.8636 20.6604L19.5356 20.1466C19.4263 19.9411 19.2076 19.9411 18.9889 20.0438L18.2236 20.5576C18.005 20.6604 18.005 20.8659 18.1143 21.0715L18.4423 21.4825C18.5516 21.688 18.7703 21.688 18.9889 21.5853L19.7543 21.0715C19.8636 21.0715 19.9729 20.7632 19.8636 20.6604Z" fill="#FFB6AE"/>
<path d="M19.6448 21.2773L19.0982 21.5856C18.9889 21.6884 18.7702 21.6884 18.5515 21.6884C18.3329 21.6884 18.2235 21.5856 18.1142 21.3801L18.0049 21.1745C17.7862 20.8663 17.8955 20.4552 18.2235 20.2497L18.7702 19.9414C18.8795 19.8386 19.0982 19.8386 19.3168 19.8386C19.5355 19.8386 19.6448 19.9414 19.7542 20.1469L19.8635 20.3524C19.9728 20.4552 19.9728 20.6607 19.9728 20.8663C19.9728 21.0718 19.8635 21.1745 19.6448 21.2773ZM19.5355 20.3524C19.4262 20.2497 19.4262 20.2497 19.2075 20.1469C19.0982 20.1469 18.9889 20.1469 18.8795 20.2497L18.4422 20.558C18.2235 20.6607 18.2235 20.969 18.3329 21.1745L18.4422 21.3801C18.4422 21.3801 18.5515 21.4828 18.6609 21.4828C18.7702 21.4828 18.8795 21.4828 18.9889 21.3801L19.5355 21.1745C19.7542 21.0718 19.7542 20.7635 19.6448 20.558L19.5355 20.3524Z" fill="#E64510"/>
<path d="M0.568934 1.16359C0.560461 1.57455 0.657058 2.19326 0.860846 2.91696C1.1697 3.8484 1.38832 3.8529 1.4828 4.57435C1.57516 5.39854 1.45738 5.80725 1.77047 6.5332C1.87766 6.6382 1.87343 6.84368 2.08781 7.05367C2.3043 7.16092 2.41573 7.06044 2.85084 7.17219C3.50457 7.28846 3.61176 7.39345 3.9418 7.29747C4.16253 7.19923 4.16677 6.99375 4.3875 6.89552C4.60823 6.79728 4.82473 6.90453 5.25984 7.01629C5.36915 7.01854 5.69495 7.12804 6.4601 7.14382C7.11383 7.26008 7.44175 7.26684 7.87898 7.27586C8.2069 7.28262 8.75344 7.29389 9.41352 7.10192C9.74356 7.00594 10.0736 6.90996 10.6244 6.71575C11.0658 6.51928 11.5052 6.42555 12.0581 6.12859C12.2788 6.03036 12.1695 6.0281 13.721 5.03223C13.9417 4.934 14.1646 4.73303 14.3895 4.42931C14.501 4.32882 14.6145 4.12559 14.5116 3.81511C14.5179 3.50688 14.3014 3.39964 14.3035 3.29689C14.415 3.1964 14.8501 3.30816 15.5038 3.42442C16.0482 3.53843 16.3761 3.54519 16.8134 3.55421C17.4692 3.56773 18.0158 3.579 18.3437 3.58576C19.1088 3.60153 19.3296 3.5033 19.4389 3.50555C20.0989 3.31359 20.2104 3.2131 20.2125 3.11036C20.326 2.90713 20.221 2.69939 20.221 2.69939C20.1159 2.49166 20.0087 2.38666 19.685 2.17442C19.252 1.95992 18.819 1.74542 18.6004 1.74091C18.1653 1.62916 17.9488 1.52191 17.5137 1.41015C17.4044 1.4079 16.9693 1.29614 15.9897 1.07038C15.231 0.746375 14.7958 0.634619 14.14 0.621098C13.5935 0.60983 13.0469 0.598562 12.6097 0.589547C12.3911 0.58504 12.1725 0.580534 11.8424 0.676515C11.5124 0.772496 11.1823 0.868477 10.7388 1.16769C10.0744 1.56513 10.0723 1.66787 9.51943 1.96483C9.18727 2.16355 8.74369 2.46277 8.19503 2.55424C7.9743 2.65247 7.53495 2.7462 6.76768 2.83317C6.76768 2.83317 6.54907 2.82866 6.00041 2.92013C5.67249 2.91337 5.56318 2.91112 5.5653 2.80838C5.56742 2.70564 5.67885 2.60515 5.68096 2.50241C5.6852 2.29692 5.58225 1.98644 5.36575 1.8792C5.25856 1.7742 5.03995 1.76969 4.93064 1.76744C4.16761 1.64892 3.40457 1.5304 2.64154 1.41189C1.98781 1.29562 1.65989 1.28886 1.00616 1.1726C0.787548 1.16809 0.678242 1.16584 0.568934 1.16359Z" fill="#F15A23"/>
<path d="M4.28018 6.79066C4.27594 6.99614 4.27383 7.09889 4.38313 7.10114C5.14617 7.21966 7.43315 7.67795 8.74695 7.60225C9.84214 7.52204 12.4888 6.44597 13.8238 5.34286C14.4924 4.73993 14.8309 4.23298 14.7322 3.71702C14.7364 3.51153 14.6313 3.3038 14.5241 3.1988C13.7759 2.36109 11.6758 3.44843 10.2357 4.34381L10.1243 4.4443C10.0129 4.54479 10.0108 4.64753 10.0086 4.75027C10.2294 4.65204 10.3387 4.65429 10.448 4.65654L10.5594 4.55605C13.2167 2.96627 13.9797 3.08479 14.192 3.39752C14.2992 3.50252 14.297 3.60526 14.2949 3.708C14.3958 4.12122 13.9479 4.62592 13.5022 5.02787C12.1673 6.13098 9.632 7.10657 8.64612 7.18903C7.44162 7.26698 5.15252 6.91143 4.50091 6.69243C4.50303 6.58968 4.39161 6.69017 4.28018 6.79066Z" fill="#E64510"/>
<path d="M5.4608 2.60083C5.34937 2.70132 5.34937 2.70132 5.4608 2.60083C5.45656 2.80631 5.56375 2.91131 5.67306 2.91356C7.96639 3.06363 8.96287 2.46746 9.96146 1.76855C10.6258 1.37111 11.1829 0.868664 12.2802 0.685717C13.0496 0.496008 14.9036 0.739802 16.7555 1.08634C19.0424 1.54463 20.1228 2.18362 20.2258 2.4941C20.2236 2.59684 20.2194 2.80232 20.2173 2.90506C20.1037 3.10829 19.6623 3.30476 19.2229 3.39849C18.0163 3.57919 15.8323 3.43137 14.7477 2.99787C14.6384 2.99561 14.5291 2.99336 14.4176 3.09385C14.4155 3.19659 14.4134 3.29933 14.5206 3.40433C15.6052 3.83783 17.7871 4.08839 19.1051 3.8072C19.5424 3.81622 20.2025 3.62426 20.4295 3.2178C20.5431 3.01457 20.6588 2.7086 20.5537 2.50086C20.352 1.67442 18.0693 1.01064 16.7618 0.778114C15.1286 0.436085 12.9488 0.0827863 12.068 0.372983C10.8592 0.656419 10.1949 1.05386 9.52847 1.55405C8.53199 2.15022 7.75413 2.7509 5.5701 2.60308C5.57222 2.50034 5.4608 2.60083 5.4608 2.60083Z" fill="#E64510"/>
<path d="M0.242895 1.05404C0.131469 1.15453 0.12935 1.25727 0.127232 1.36001C0.112405 2.07921 0.425499 2.80516 0.627168 3.6316C0.830955 4.3553 1.14405 5.08125 1.23853 5.8027C1.23641 5.90544 1.23429 6.00819 1.23217 6.11093C1.2237 6.5219 1.21735 6.83012 1.53891 7.14511C1.53891 7.14511 1.6461 7.2501 1.75541 7.25236C2.0791 7.4646 2.84425 7.48038 3.27936 7.59213C3.38867 7.59439 3.49797 7.59664 3.49797 7.59664C3.71659 7.60115 4.26101 7.71516 4.60376 7.00272C5.05793 6.1898 5.65742 3.63252 5.67437 2.81059C5.68496 2.29688 5.69131 1.98866 5.47694 1.77866C5.26256 1.56867 4.28303 1.34291 2.31762 1.1996C1.66389 1.08334 1.22666 1.07432 0.898737 1.06756C0.680123 1.06306 0.463628 0.955807 0.242895 1.05404C0.245013 0.9513 0.35432 0.953554 0.242895 1.05404Z" fill="#E64510"/>
<path d="M4.38952 6.79321C4.16243 7.19967 3.94381 7.19517 3.7252 7.19066C3.61589 7.18841 3.61589 7.18841 3.50658 7.18615C3.06935 7.17714 2.41563 7.06087 2.08982 6.95137L1.98052 6.94912C1.87333 6.84412 1.87968 6.5359 1.77673 6.22542C1.77885 6.12268 1.78097 6.01994 1.78308 5.91719C1.6886 5.19575 1.48694 4.36931 1.17384 3.64335C0.862863 2.81466 0.659076 2.09096 0.671786 1.47451C0.671786 1.47451 0.671786 1.47451 0.673904 1.37176C0.783211 1.37402 0.892518 1.37627 0.892518 1.37627C1.22044 1.38303 1.65555 1.49479 2.30928 1.61105C3.29093 1.73408 5.03773 1.87288 5.25211 2.08287C5.3593 2.18786 5.46225 2.49834 5.34659 2.80431C5.32964 3.62625 4.73227 6.08078 4.38952 6.79321Z" fill="#FFB6AE"/>
<path d="M12.2056 4.38278L12.5229 4.90324C12.628 5.11098 12.8466 5.11549 13.0673 5.01725L13.8431 4.51932C14.0638 4.42108 14.0681 4.2156 13.963 4.00786L13.6435 3.59014C13.5385 3.3824 13.3198 3.37789 13.0991 3.47613L12.3234 3.97406C12.2141 3.97181 12.0984 4.27778 12.2056 4.38278Z" fill="#FFB6AE"/>
<path d="M12.4365 3.77229L12.9894 3.47534C13.1008 3.37485 13.3194 3.37936 13.538 3.38386C13.7566 3.38837 13.8638 3.49337 13.9689 3.7011L14.074 3.90884C14.2862 4.22157 14.1684 4.63029 13.8363 4.82901L13.2834 5.12596C13.172 5.22645 12.9533 5.22195 12.7347 5.21744C12.5161 5.21293 12.4089 5.10794 12.3039 4.9002L12.1988 4.69246C12.0916 4.58747 12.0958 4.38198 12.1001 4.1765C12.1043 3.97102 12.2157 3.87053 12.4365 3.77229ZM12.5267 4.69922C12.6339 4.80422 12.6339 4.80422 12.8504 4.91147C12.9597 4.91372 13.069 4.91597 13.1804 4.81549L13.624 4.51627C13.8448 4.41804 13.8511 4.10982 13.746 3.90208L13.641 3.69434C13.641 3.69434 13.5338 3.58935 13.4245 3.58709C13.3152 3.58484 13.2059 3.58259 13.0944 3.68307L12.5437 3.87729C12.3229 3.97552 12.3166 4.28375 12.4216 4.49148L12.5267 4.69922Z" fill="#E64510"/>
<path d="M15.346 13.4276C16.4054 13.4276 17.2642 12.5687 17.2642 11.5093C17.2642 10.4499 16.4054 9.59106 15.346 9.59106C14.2866 9.59106 13.4277 10.4499 13.4277 11.5093C13.4277 12.5687 14.2866 13.4276 15.346 13.4276Z" fill="#FFB6AE"/>
<path d="M20.5091 15.9856H9.54315C9.21454 15.9856 8.95166 16.2698 8.95166 16.625C8.95166 16.9802 9.21454 17.2644 9.54315 17.2644H20.5091C20.8377 17.2644 21.1006 16.9802 21.1006 16.625C21.0912 16.2698 20.8283 15.9856 20.5091 15.9856Z" fill="#F15A23"/>
<path d="M21.5839 8.51365C21.5591 8.48769 21.5261 8.46174 21.493 8.44227C21.3692 8.36441 21.2205 8.3125 21.0553 8.3125H19.5771H10.4766H8.99842C8.61854 8.3125 8.31299 8.55258 8.31299 8.85105V14.8075C8.31299 15.106 8.61854 15.3461 8.99842 15.3461H21.0553C21.4352 15.3461 21.7408 15.106 21.7408 14.8075V8.85105C21.7408 8.72128 21.683 8.60449 21.5839 8.51365ZM20.5351 13.1789C19.6762 13.1789 18.9825 13.724 18.9825 14.3988H11.0547C11.0547 13.724 10.361 13.1789 9.50217 13.1789V10.4732C10.361 10.4732 11.0547 9.92815 11.0547 9.25334H18.9825C18.9825 9.92815 19.6762 10.4732 20.5351 10.4732V13.1789Z" fill="#F15A23"/>
</svg>
