<svg width="40" height="40" viewBox="0 0 40 40" fill="none" xmlns="http://www.w3.org/2000/svg">
<circle cx="20" cy="20" r="20" fill="#A8C0E2"/>
<path fill-rule="evenodd" clip-rule="evenodd" d="M15.6132 25.2959L14.9568 32.5361C14.9568 32.5361 18.7602 34.7683 22.0329 32.8168L21.4515 26.4931L15.6132 25.2959Z" fill="#FFBEAB"/>
<path fill-rule="evenodd" clip-rule="evenodd" d="M29.6642 20.1475C29.6642 20.1475 31.3306 17.2795 29.2076 15.7718C29.2076 15.7718 30.3425 13.2485 28.1924 11.4225C28.1924 11.4225 24.7617 3.35344 17.5599 9.01403C17.5599 9.01403 11.362 7.16167 9.36468 14.9088C9.36468 14.9088 7.30365 16.0718 8.24731 18.9661C8.24731 18.9661 8.01597 29.7032 17.3757 26.0835L29.6642 20.1475Z" fill="#D26121"/>
<path fill-rule="evenodd" clip-rule="evenodd" d="M26.5819 14.1503C26.5819 14.1503 34.5161 26.1662 26.32 29.8411C18.5831 33.3134 15.3209 25.3373 15.3209 25.3373C15.3209 25.3373 11.9164 21.7966 13.0617 19.0698C14.207 16.343 24.6483 12.6584 26.5819 14.1503Z" fill="#FFBEAB"/>
<path fill-rule="evenodd" clip-rule="evenodd" d="M14.5482 23.4461C14.5482 23.4461 22.3131 20.9762 21.6488 16.3681C21.6488 16.3681 22.994 16.5032 23.4069 14.9113C23.4069 14.9113 27.2182 18.3556 28.2221 15.9471C28.2221 15.9471 27.5551 9.98307 22.8971 11.9126C18.239 13.8422 13.993 15.8103 12.7429 17.1864C11.4929 18.5626 10.4637 21.8954 14.5482 23.4461Z" fill="#D26121"/>
<path fill-rule="evenodd" clip-rule="evenodd" d="M16.3413 26.4098L14.962 22.5998C14.962 22.5998 12.2969 21.3719 12.6478 23.4418C12.9987 25.5117 15.3924 26.6598 16.3413 26.4098Z" fill="#FFBEAB"/>
</svg>
