<svg width="34" height="49" viewBox="0 0 34 49" fill="none" xmlns="http://www.w3.org/2000/svg">
<path d="M33.5755 37.5254C33.0144 36.4031 31.705 35.7484 30.4892 36.1225L30.6763 36.5902L30.4892 36.1225C28.3381 36.7772 26.1871 37.4319 24.1295 38.1801C24.036 37.619 23.7554 37.2449 23.3813 36.8707C22.9137 36.4031 22.3525 36.1225 21.6978 36.1225C20.7626 36.1225 19.7338 36.029 18.705 36.1225C17.4892 36.2161 16.3669 35.9355 15.2446 35.4679C14.2158 35.0002 13.187 34.7197 12.0647 34.3456L11.9712 34.8132L12.0647 34.3456C10.8489 33.9715 9.53957 34.065 8.32374 34.065V34.5326V34.4391V34.065C8.23022 34.065 8.04316 34.065 7.85611 34.065C7.85611 33.9715 7.85611 33.7844 7.85611 33.6909H7.38849H7.85611C7.85611 33.0362 7.66906 32.4751 7.20144 32.101C6.82734 31.7269 6.17266 31.5398 5.51799 31.4463V31.9139V31.4463C4.39568 31.4463 3.36691 31.4463 2.2446 31.4463C2.05755 31.4463 1.8705 31.4463 1.68345 31.5398C1.1223 31.6333 0.748201 31.9139 0.467626 32.288C0.18705 32.6621 0 33.2233 0 33.7844C0 37.5254 0 41.2664 0 45.0074C0 45.101 0 45.288 0 45.3815C0.0935252 46.4103 0.935252 47.252 2.05755 47.3456C3.27338 47.3456 4.48921 47.3456 5.79856 47.3456C6.92086 47.3456 7.76259 46.4103 7.85611 45.3815C7.85611 45.1945 7.85611 45.0074 7.85611 44.8204C8.41727 44.8204 8.88489 44.8204 9.35252 45.0074C12.0647 45.9427 14.777 46.9715 17.4892 47.9067C18.6115 48.2808 19.5468 48.1873 20.5755 47.6261C22.6331 46.4103 24.5971 45.288 26.6547 44.1657C28.6187 43.0434 30.4892 42.0146 32.4532 40.8923C33.6691 40.0506 34.0432 38.6477 33.5755 37.5254ZM25.5324 42.6693L25.3453 42.2952C23.4748 43.4175 21.5108 44.4463 19.6403 45.5686C19.1727 45.8492 18.7986 45.8492 18.3309 45.6621C15.7122 44.7269 13 43.7916 10.2878 42.7628C9.63309 42.4823 8.97842 42.3887 8.32374 42.3887V42.8564V42.3887C8.23022 42.3887 8.13669 42.3887 8.04316 42.3887V36.1225C9.63309 36.1225 11.1295 36.1225 12.6259 36.6837C13.8417 37.1513 14.964 37.5254 16.1799 37.9931C16.4604 38.0866 16.8345 38.1801 17.1151 38.1801C18.518 38.1801 19.9209 38.1801 21.3237 38.1801C21.5108 38.1801 21.6978 38.2736 21.7914 38.3672C21.8849 38.3672 21.8849 38.4607 21.8849 38.4607C21.8849 38.4607 21.8849 38.5542 21.8849 38.6477C21.8849 38.7413 21.7914 38.8348 21.6043 38.8348C21.5108 38.8348 21.5108 38.8348 21.3237 38.8348C19.8273 38.8348 18.2374 38.8348 16.741 38.8348C16.0863 38.8348 15.5252 38.9283 14.964 39.3024C14.4029 39.583 14.0288 40.0506 13.7482 40.7053L14.1223 40.8923L14.0288 40.7988L13.7482 40.6118C13.5612 41.0794 13.4676 41.547 13.4676 41.9211C13.3741 42.5758 13.9353 43.0434 14.4964 43.1369C15.0576 43.1369 15.5252 42.7628 15.6187 42.2017L15.2446 42.1082H15.1511L15.6187 42.2017C15.7122 41.6405 15.8058 41.4535 15.9928 41.36C16.1799 41.2664 16.3669 41.1729 16.9281 41.1729C18.3309 41.1729 19.8273 41.1729 21.3237 41.1729C21.7914 41.1729 22.259 41.0794 22.7266 40.9859L22.6331 40.5182V40.6118L22.7266 40.9859C25.4388 40.1441 28.1511 39.3024 30.7698 38.4607C30.8633 38.4607 30.9568 38.3672 31.1439 38.3672C31.4245 38.2736 31.518 38.3672 31.6115 38.5542C31.705 38.7413 31.6115 38.9283 31.4245 39.0218C30.3957 39.583 29.4604 40.1441 28.4317 40.7053C27.4029 41.2664 26.4676 41.8276 25.4388 42.3887L25.5324 42.6693ZM7.57554 36.2161V35.842V36.2161ZM22.0719 37.9931L21.9784 38.0866L22.0719 37.9931ZM1.96403 44.9139H2.15108H1.96403ZM5.70504 33.5974C5.70504 33.5974 5.79856 33.6909 5.70504 33.5974C5.70504 35.5614 5.70504 37.4319 5.70504 39.2089C5.70504 41.0794 5.70504 42.8564 5.70504 44.7269C5.70504 44.8204 5.70504 44.8204 5.70504 44.9139C5.70504 44.9139 5.61151 44.9139 5.51799 44.9139C4.48921 44.9139 3.46043 44.9139 2.43165 44.9139C2.43165 41.1729 2.43165 37.4319 2.43165 33.6909C3.55396 33.5974 4.58273 33.5974 5.70504 33.5974L5.61151 33.2233V33.1297L5.70504 33.5974ZM0.654676 44.9139H0.467626H0.654676Z" fill="#FF713C"/>
<path d="M30.4893 36.1226L30.6763 36.4967L30.4893 36.1226Z" fill="#FF713C"/>
<path fill-rule="evenodd" clip-rule="evenodd" d="M8.07613 18.4434C7.39726 18.4434 6.88287 18.9626 6.88287 19.5529V28.9685C6.88287 29.5588 7.39726 30.078 8.07613 30.078H28.0776C28.7564 30.078 29.2708 29.5588 29.2708 28.9685V19.5529C29.2708 18.9626 28.7564 18.4434 28.0776 18.4434H8.07613ZM5.96338 19.5529C5.96338 18.4088 6.93669 17.5239 8.07613 17.5239H28.0776C29.217 17.5239 30.1903 18.4088 30.1903 19.5529V28.9685C30.1903 30.1126 29.217 30.9975 28.0776 30.9975H8.07613C6.93669 30.9975 5.96338 30.1126 5.96338 28.9685V19.5529Z" fill="#FF713C"/>
<path fill-rule="evenodd" clip-rule="evenodd" d="M9.5969 20.294C8.99515 20.294 8.66656 20.6833 8.66656 20.9836V27.8798C8.66656 28.1801 8.99516 28.5694 9.5969 28.5694H26.4324C27.0342 28.5694 27.3628 28.1801 27.3628 27.8798V20.9836C27.3628 20.6833 27.0342 20.294 26.4324 20.294H9.5969ZM7.74707 20.9836C7.74707 20.0234 8.65411 19.3745 9.5969 19.3745H26.4324C27.3752 19.3745 28.2823 20.0234 28.2823 20.9836V27.8798C28.2823 28.84 27.3752 29.4889 26.4324 29.4889H9.5969C8.65411 29.4889 7.74707 28.84 7.74707 27.8798V20.9836Z" fill="#FF713C"/>
<path d="M18.4487 27.7709C20.3887 27.7709 21.9613 26.1993 21.9613 24.2607C21.9613 22.3221 20.3887 20.7505 18.4487 20.7505C16.5087 20.7505 14.936 22.3221 14.936 24.2607C14.936 26.1993 16.5087 27.7709 18.4487 27.7709Z" fill="#FF713C"/>
<path fill-rule="evenodd" clip-rule="evenodd" d="M24.7576 19.9873C25.0115 19.9873 25.2173 20.1931 25.2173 20.447C25.2173 20.7697 25.3918 21.1046 25.7472 21.3743C26.1019 21.6435 26.6151 21.8263 27.2096 21.8263C27.4635 21.8263 27.6693 22.0321 27.6693 22.286C27.6693 22.5399 27.4635 22.7458 27.2096 22.7458C26.4326 22.7458 25.7198 22.5078 25.1914 22.1068C24.6637 21.7064 24.2979 21.1218 24.2979 20.447C24.2979 20.1931 24.5037 19.9873 24.7576 19.9873Z" fill="#FF713C"/>
<path fill-rule="evenodd" clip-rule="evenodd" d="M8.36035 26.5774C8.36035 26.3235 8.56619 26.1177 8.82009 26.1177C9.50713 26.1177 10.0929 26.4833 10.4918 27.0151C10.8896 27.5456 11.1188 28.2581 11.1188 29.0294C11.1188 29.2833 10.913 29.4891 10.6591 29.4891C10.4052 29.4891 10.1993 29.2833 10.1993 29.0294C10.1993 28.434 10.0215 27.9206 9.75616 27.5667C9.49176 27.2142 9.15806 27.0372 8.82009 27.0372C8.56619 27.0372 8.36035 26.8313 8.36035 26.5774Z" fill="#FF713C"/>
<path fill-rule="evenodd" clip-rule="evenodd" d="M10.6591 19.9873C10.913 19.9873 11.1188 20.1931 11.1188 20.447C11.1188 21.6933 10.1076 22.7458 8.82009 22.7458C8.56619 22.7458 8.36035 22.5399 8.36035 22.286C8.36035 22.0321 8.56619 21.8263 8.82009 21.8263C9.58971 21.8263 10.1993 21.1956 10.1993 20.447C10.1993 20.1931 10.4052 19.9873 10.6591 19.9873Z" fill="#FF713C"/>
<path fill-rule="evenodd" clip-rule="evenodd" d="M24.2979 29.0294C24.2979 27.4088 25.589 26.1177 27.2096 26.1177C27.4635 26.1177 27.6693 26.3235 27.6693 26.5774C27.6693 26.8313 27.4635 27.0372 27.2096 27.0372C26.0968 27.0372 25.2173 27.9166 25.2173 29.0294C25.2173 29.2833 25.0115 29.4891 24.7576 29.4891C24.5037 29.4891 24.2979 29.2833 24.2979 29.0294Z" fill="#FF713C"/>
<path d="M18.0354 25.0041L17.6222 24.3847H17.5809H17.1263V25.0041H16.6304V22.8154H17.5809C17.7875 22.8154 17.9528 22.8567 18.0768 22.898C18.2007 22.9806 18.3247 23.0632 18.4074 23.1871C18.49 23.311 18.5313 23.4349 18.5313 23.6001C18.5313 23.7652 18.49 23.8891 18.4074 24.013C18.3247 24.1369 18.2007 24.2195 18.0768 24.3021L18.5727 25.0041H18.0354ZM17.9115 23.311C17.8288 23.2697 17.7048 23.2284 17.5395 23.2284H17.1263V23.9717H17.5395C17.7048 23.9717 17.7875 23.9304 17.8701 23.8891C17.9528 23.8065 17.9941 23.7239 17.9941 23.6001C18.0354 23.4762 17.9941 23.3936 17.9115 23.311Z" fill="white"/>
<path d="M20.3084 23.3936C20.4324 23.4762 20.5563 23.5588 20.5977 23.6827C20.6803 23.8066 20.7216 23.9718 20.7216 24.137C20.7216 24.3021 20.6803 24.4673 20.5977 24.5912C20.515 24.7151 20.4324 24.839 20.3084 24.8803C20.1844 24.9629 20.0191 25.0042 19.8951 25.0042C19.6885 25.0042 19.5232 24.9216 19.3992 24.7977V25.5823H18.9033V23.311H19.3579V23.5175C19.4819 23.3523 19.6472 23.311 19.8951 23.311C20.0604 23.311 20.1844 23.311 20.3084 23.3936ZM20.1018 24.5086C20.1844 24.426 20.2257 24.3021 20.2257 24.1783C20.2257 24.0544 20.1844 23.9305 20.1018 23.8479C20.0191 23.7653 19.9365 23.724 19.8125 23.724C19.6885 23.724 19.6059 23.7653 19.5232 23.8479C19.4405 23.9305 19.3992 24.0544 19.3992 24.1783C19.3992 24.3021 19.4405 24.426 19.5232 24.5086C19.6059 24.5912 19.6885 24.6325 19.8125 24.6325C19.9365 24.6325 20.0191 24.5912 20.1018 24.5086Z" fill="white"/>
<path d="M8 17C8 15.8954 8.89543 15 10 15H26C27.1046 15 28 15.8954 28 17V17H8V17Z" fill="#FF713C"/>
<path d="M8 14C8 12.8954 8.89543 12 10 12H26C27.1046 12 28 12.8954 28 14V14H8V14Z" fill="#FF713C"/>
<path d="M8 14C8 12.8954 8.89543 12 10 12H26C27.1046 12 28 12.8954 28 14V14H8V14Z" fill="#FF713C"/>
</svg>
