<svg width="24" height="35" viewBox="0 0 24 35" fill="none" xmlns="http://www.w3.org/2000/svg">
<g clip-path="url(#clip0)">
<path d="M0 19.2973C0 16.4595 0 13.8108 0 10.973C0 8.13514 2.5 6.05405 5.625 6.05405C6.5 6.05405 6.5 6.05405 6.5 5.2973C6.5 4.16216 6.5 2.83784 6.5 1.7027C6.5 1.32432 6.375 1.32432 6 1.32432C5.75 1.32432 5.5 1.32432 5.25 1.32432C4.875 1.32432 4.625 1.13514 4.625 0.756757C4.625 0.378378 4.875 0 5.375 0C5.5 0 5.625 0 5.75 0C9.875 0 14 0 18.125 0C18.375 0 18.625 0 18.875 0C19.25 0 19.375 0.189189 19.375 0.567568C19.375 0.756757 19.25 1.13514 18.875 1.13514C18.625 1.13514 18.25 1.13514 18 1.13514C17.75 1.13514 17.625 1.13514 17.625 1.51351C17.625 2.83784 17.625 4.35135 17.625 5.67568C17.625 6.05405 17.75 6.05405 18 6.05405C18.875 6.05405 19.75 6.05405 20.625 6.43243C22.75 7.18919 24.125 8.89189 24.125 10.973C24.125 16.4595 24.125 22.1351 24.125 27.6216C24.125 29.1351 23.5 30.4595 22.125 31.4054C21.75 31.5946 21.625 31.973 21.625 32.3514C21.625 33.6757 20.625 34.6216 19.25 35C18.875 35 18.5 35.1892 18.125 35.1892C14 35.1892 9.875 35.1892 5.75 35.1892C3.75 35 2.5 33.8649 2.5 31.973C2.5 31.7838 2.5 31.5946 2.25 31.4054C0.625 30.4595 0 28.9459 0 27.2432C0 24.5946 0 21.9459 0 19.2973Z" fill="#FF713C"/>
<path d="M12 11.7292C8.625 11.7292 5.125 11.7292 1.75 11.7292C1.375 11.7292 1.25 11.7292 1.25 12.1076C1.25 12.6752 1.25 13.0536 1.25 13.6211C1.25 17.9725 1.25 22.1346 1.25 26.486C1.25 26.8644 1.375 26.8644 1.75 26.8644C8.5 26.8644 15.375 26.8644 22.125 26.8644C22.5 26.8644 22.625 26.6752 22.625 26.2968C22.625 21.5671 22.625 16.8373 22.625 11.9184C22.625 11.54 22.5 11.54 22.125 11.54C18.75 11.7292 15.375 11.7292 12 11.7292Z" fill="#FF713C"/>
<path d="M11.9997 10.5951C15.3747 10.5951 18.7497 10.5951 22.1247 10.5951C22.6247 10.5951 22.6247 10.5951 22.6247 10.2167C22.2497 8.70323 20.6247 7.37891 18.7497 7.37891C14.3747 7.37891 9.87467 7.37891 5.49967 7.37891C3.62467 7.37891 1.99967 8.70323 1.62467 10.2167C1.49967 10.5951 1.62467 10.7843 2.12467 10.7843C5.37467 10.5951 8.62467 10.5951 11.9997 10.5951Z" fill="white"/>
<path d="M11.9999 28.1895C8.62489 28.1895 5.37489 28.1895 1.99989 28.1895C1.37489 28.1895 1.37489 28.1895 1.49989 28.757C1.99989 30.2705 3.62489 31.4057 5.49989 31.4057C9.87489 31.4057 14.1249 31.4057 18.4999 31.4057C20.3749 31.4057 21.9999 30.2705 22.4999 28.757C22.6249 28.3786 22.6249 28.1895 22.1249 28.1895C18.7499 28.1895 15.3749 28.1895 11.9999 28.1895Z" fill="white"/>
<path d="M12 1.13477C10.75 1.13477 9.5 1.13477 8.125 1.13477C7.875 1.13477 7.75 1.13477 7.75 1.51314C7.75 2.83747 7.75 4.35098 7.75 5.67531C7.75 5.8645 7.875 6.05368 8.125 6.05368C9.125 6.05368 10 6.05368 11 6.05368C11.25 6.05368 11.375 6.05368 11.375 5.67531C11.375 5.10774 11.375 4.54017 11.375 4.16179C11.375 3.9726 11.25 3.78341 11 3.78341C10.625 3.78341 10.25 3.78341 9.875 3.78341C9.375 3.78341 9.125 3.59423 9.125 3.21585C9.125 2.83747 9.375 2.64828 9.875 2.64828C11.25 2.64828 12.75 2.64828 14.125 2.64828C14.625 2.64828 14.875 2.83747 14.875 3.21585C15 3.59423 14.625 3.78341 14.25 3.78341C13.875 3.78341 13.5 3.78341 13.125 3.78341C12.875 3.78341 12.75 3.78341 12.75 4.16179C12.75 4.72936 12.75 5.10774 12.75 5.67531C12.75 5.8645 12.875 6.05368 13.125 6.05368C14 6.05368 15 6.05368 15.875 6.05368C16.125 6.05368 16.25 5.8645 16.25 5.67531C16.25 4.35098 16.25 3.02666 16.25 1.70233C16.25 1.32395 16.125 1.32395 15.75 1.32395C14.5 1.13477 13.25 1.13477 12 1.13477Z" fill="white"/>
<path d="M11.9999 33.6756C12.4999 33.6756 12.9999 33.6756 13.4999 33.6756C15.1249 33.6756 16.8749 33.6756 18.4999 33.6756C19.3749 33.6756 19.9999 33.2972 20.2499 32.5405C20.3749 32.1621 20.2499 32.1621 19.8749 32.1621C19.3749 32.3513 18.8749 32.3513 18.3749 32.3513C14.4999 32.3513 10.7499 32.3513 6.87489 32.3513C5.99989 32.3513 5.24989 32.3513 4.37489 32.1621C3.74989 32.1621 3.74989 32.3513 3.87489 32.7297C4.12489 33.2972 4.74989 33.6756 5.49989 33.6756C7.62489 33.8648 9.74989 33.6756 11.9999 33.6756Z" fill="white"/>
<path d="M14.5716 19.8655C14.5716 19.3897 14.4461 18.9138 14.3207 18.5966C13.6935 17.169 12.9409 15.9001 12.0629 14.6312C11.9374 14.4726 11.812 14.4726 11.812 14.6312C11.1848 15.5829 10.5576 16.6932 10.0559 17.8035C9.80502 18.438 9.42871 19.0724 9.42871 19.7069C9.42871 21.6103 10.6831 23.1965 12.3137 23.0378C13.5681 22.8792 14.4461 21.6103 14.5716 19.8655Z" fill="white"/>
</g>
<defs>
<clipPath id="clip0">
<rect width="24" height="35" fill="white"/>
</clipPath>
</defs>
</svg>
