<svg width="49" height="48" viewBox="0 0 49 48" fill="none" xmlns="http://www.w3.org/2000/svg">
    <rect x="0.5" width="48" height="48" rx="24" fill="#F6F6F6"/>
    <path fill-rule="evenodd" clip-rule="evenodd" d="M32.3807 20.032C31.5133 19.0533 30.3344 18.4528 29.0443 18.2971C28.8664 18.2748 28.6885 18.2748 28.5105 18.2748C27.2872 18.2748 26.0861 18.7197 25.1519 19.5204C25.5745 20.0542 25.8859 20.6548 26.1306 21.2775C26.2418 21.5445 26.3085 21.8336 26.3752 22.1005C26.7534 21.5445 27.3094 21.1663 27.9322 21.0329C28.5772 20.8994 29.2223 20.9884 29.8006 21.322C30.1342 21.5222 30.4011 21.7891 30.6236 22.1005C30.935 22.5676 31.0906 23.1014 31.0906 23.6797C31.0684 24.2358 30.8905 24.7696 30.5346 25.2145L30.112 25.6371L27.1315 28.6843L24.3957 31.4646L22.9054 29.9521L21.037 31.8427L24.3734 35.2458L26.2418 33.3552L31.8691 27.6167L31.8914 27.5944L32.4252 27.0384L32.4697 26.9939C33.2704 26.0374 33.7153 24.8141 33.7153 23.5685C33.7375 22.2785 33.2482 21.0106 32.3807 20.032Z" fill="#229BD8"/>
    <path fill-rule="evenodd" clip-rule="evenodd" d="M22.1269 29.1737L23.6394 27.6168L24.2177 27.0385C24.2845 26.9717 24.3289 26.905 24.3957 26.816C25.0852 25.8819 25.4633 24.7475 25.4633 23.5909C25.4633 23.1016 25.3966 22.6345 25.2631 22.1674C25.0629 21.4111 24.6848 20.6994 24.1732 20.0988C23.6617 19.4983 23.0166 19.0312 22.3049 18.7198C21.5931 18.4084 20.8146 18.2527 20.0361 18.2972C19.2577 18.3417 18.5014 18.5418 17.8119 18.92C17.1224 19.2981 16.5218 19.8097 16.077 20.4547C15.6321 21.0997 15.2985 21.8337 15.165 22.6122C15.0093 23.3907 15.0538 24.1914 15.254 24.9699C15.4542 25.7484 15.8323 26.4602 16.3216 27.0607L16.9 27.639L18.4124 29.196L20.2808 31.0866L21.2817 30.0634L22.1269 29.1737ZM18.6571 25.6594L18.2345 25.2146C17.9453 24.8365 17.7452 24.3694 17.7007 23.88C17.6562 23.3907 17.7452 22.9014 17.9453 22.4565C18.1678 22.0117 18.4792 21.6336 18.9018 21.3889C19.3021 21.122 19.7915 20.9885 20.2808 20.9885C20.7701 20.9885 21.2372 21.122 21.6376 21.3889C22.038 21.6558 22.3716 22.0339 22.5718 22.4788C22.772 22.9236 22.8609 23.4129 22.7942 23.9023C22.7275 24.3916 22.5495 24.8587 22.2381 25.2368L21.8378 25.6372L20.2141 27.2831L18.6571 25.6594Z" fill="#229BD8"/>
    <path fill-rule="evenodd" clip-rule="evenodd" d="M18.8577 17.1408C19.1913 17.2743 19.5472 17.341 19.8808 17.3187C20.2145 17.2965 20.5703 17.2298 20.904 17.0741C21.3488 16.8516 21.727 16.518 21.9939 16.0954C22.2608 15.6728 22.3942 15.1612 22.3942 14.6719C22.3942 14.1826 22.2608 13.7155 22.0161 13.2929C21.7714 12.8702 21.4156 12.5366 20.993 12.3142C20.5703 12.0918 20.1033 11.9806 19.6139 12.0028C19.1468 12.025 18.6797 12.1807 18.2794 12.4699C17.879 12.7368 17.5676 13.1149 17.3674 13.5598C17.1673 14.0046 17.1005 14.4939 17.145 14.961C17.1895 15.4504 17.3897 15.8952 17.6788 16.2733C18.0347 16.6737 18.4128 16.9629 18.8577 17.1408Z" fill="#229BD8"/>
    <path fill-rule="evenodd" clip-rule="evenodd" d="M27.3541 16.7178C27.8212 17.0959 28.3772 17.2961 28.9778 17.3183C29.5561 17.3183 30.1344 17.1181 30.6015 16.7623C30.7572 16.6288 30.9129 16.4731 31.0463 16.3174C31.4022 15.8503 31.6024 15.272 31.6024 14.6715C31.6024 14.0709 31.4022 13.4926 31.0463 13.0255C30.6904 12.5584 30.1789 12.2248 29.6006 12.0913C29.0223 11.9579 28.4217 12.0246 27.8879 12.2693C27.3541 12.5362 26.9315 12.9588 26.6646 13.4926C26.3976 14.0264 26.3309 14.6492 26.4644 15.2275C26.5756 15.8058 26.887 16.3397 27.3541 16.7178Z" fill="#229BD8"/>
</svg>