<svg width="40" height="33" viewBox="0 0 40 33" fill="none" xmlns="http://www.w3.org/2000/svg">
<path fill-rule="evenodd" clip-rule="evenodd" d="M34.6929 22.5906C34.6631 22.5906 34.6332 22.5894 34.6033 22.5871C34.281 22.5621 33.984 22.4031 33.7844 22.149L30.0428 17.3865C29.6485 16.8849 29.7357 16.1585 30.2374 15.7644C30.7392 15.3704 31.4654 15.4576 31.8595 15.9591L33.9203 18.5822C34.0201 17.9389 34.0758 17.2873 34.0865 16.6336C34.1467 12.9748 32.7997 9.48011 30.2936 6.79332C27.789 4.10812 24.4017 2.52343 20.7557 2.33108C16.3531 2.09874 12.1837 3.84849 9.31467 7.13137C8.89488 7.61166 8.16506 7.66076 7.68463 7.24112C7.2042 6.82119 7.1551 6.09137 7.57488 5.61108C10.9138 1.79043 15.7623 -0.2461 20.8774 0.0237922C25.1242 0.247763 29.0683 2.09224 31.9831 5.21744C34.8994 8.34394 36.4667 12.4118 36.3967 16.6716C36.3873 17.2427 36.3483 17.8128 36.2803 18.3783L37.9706 16.8042C38.4374 16.3694 39.1685 16.3953 39.6033 16.8622C40.0381 17.3291 40.0121 18.06 39.5453 18.495L35.4802 22.2807C35.2656 22.4805 34.9838 22.5906 34.6929 22.5906" fill="#FF713C"/>
<path fill-rule="evenodd" clip-rule="evenodd" d="M19.9365 32.7307C19.6371 32.7307 19.3373 32.7227 19.0358 32.7069C14.789 32.4829 10.8448 30.6384 7.9299 27.5132C5.0138 24.3867 3.44644 20.3188 3.51647 16.0591C3.52586 15.4878 3.56485 14.9178 3.63286 14.3522L1.94261 15.9265C1.47561 16.3613 0.744633 16.3353 0.309832 15.8684C-0.12497 15.4014 -0.098977 14.6705 0.367882 14.2357L4.43301 10.45C4.66954 10.2296 4.98738 10.1188 5.30983 10.1435C5.632 10.1685 5.92918 10.3275 6.12875 10.5817L9.87041 15.3441C10.2646 15.8458 10.1774 16.5721 9.67575 16.9662C9.17409 17.3604 8.44774 17.2734 8.05366 16.7715L5.99286 14.1484C5.89308 14.7918 5.83734 15.4433 5.82665 16.097C5.76644 19.7557 7.11344 23.2504 9.61958 25.9373C12.1241 28.6225 15.5113 30.2072 19.1573 30.3996C23.5592 30.6309 27.7295 28.8822 30.5984 25.5993C31.0181 25.1188 31.7478 25.0696 32.2285 25.4895C32.709 25.9093 32.7581 26.6391 32.3381 27.1196C29.1962 30.7151 24.7163 32.7307 19.9365 32.7307" fill="#FF713C"/>
<path d="M21.8945 19.0634L22.0524 18.9052C22.2103 18.747 22.2103 18.747 22.2103 18.5887C22.2103 17.3229 22.2103 15.8988 22.2103 14.6329C22.2103 14.4747 22.2103 14.3164 22.0524 14.3164L21.8945 14.1582C21.8945 14.1582 21.8945 14.1582 22.0524 14.1582C22.3682 14.1582 22.684 14.1582 22.9998 14.1582C23.1577 14.1582 23.1577 14.1582 23.1577 14.3164C23.6314 15.1076 24.105 15.7405 24.7366 16.5317C25.0524 17.0064 25.3682 17.4811 25.684 17.7976C25.684 16.6899 25.684 15.7405 25.684 14.6329C25.684 14.4747 25.684 14.4747 25.5261 14.3164C25.5261 14.3164 25.3682 14.1582 25.2103 14.1582C25.684 14.1582 26.1576 14.1582 26.6313 14.1582C26.6313 14.1582 26.4734 14.1582 26.4734 14.3164C26.3155 14.3164 26.3155 14.4747 26.3155 14.6329C26.3155 16.2152 26.3155 17.6393 26.3155 19.2217C26.3155 19.2217 26.3155 19.2217 26.3155 19.3799C26.3155 19.3799 26.3155 19.3799 26.3155 19.5382C26.3155 19.5382 26.3155 19.5382 26.1576 19.5382C25.684 19.2217 25.3682 18.9052 25.0524 18.5887C24.2629 17.6393 23.6314 16.6899 22.8419 15.7405C22.8419 15.7405 22.8419 15.7405 22.8419 15.5823C22.8419 15.5823 22.8419 15.5823 22.8419 15.7405C22.8419 16.8482 22.8419 17.7976 22.8419 18.9052C22.8419 19.0635 22.8419 19.2217 22.9998 19.2217L23.1577 19.3799C23.1577 19.3799 23.1577 19.3799 22.9998 19.3799C22.684 19.0634 22.3682 19.0634 21.8945 19.0634Z" fill="#FF713C"/>
<path d="M20.158 16.2153C20.3159 16.2153 20.4738 16.3735 20.7896 16.3735C21.1054 16.69 21.4211 17.0064 21.4211 17.4811C21.4211 17.9558 21.2632 18.4305 20.7896 18.747C20.3159 18.9052 20.0001 19.0635 19.6843 19.0635H19.5264C18.8949 19.0635 18.1054 19.0635 17.4738 19.0635C17.4738 19.0635 17.4738 19.0635 17.3159 19.0635L17.4738 18.9052C17.6317 18.747 17.6317 18.5888 17.6317 18.4305C17.6317 17.1647 17.6317 15.8988 17.6317 14.4747C17.6317 14.3165 17.6317 14.1582 17.4738 14.1582C17.4738 14.1582 17.3159 14.1582 17.3159 14C17.3159 14 17.3159 14 17.4738 14C18.1054 14 18.8949 14 19.5264 14C19.8422 14 20.158 14.1582 20.4738 14.3165C20.9475 14.7912 20.9475 15.4241 20.4738 15.8988C20.3159 16.057 20.3159 16.2153 20.158 16.2153ZM18.5791 17.4811C18.5791 17.7976 18.5791 18.1141 18.5791 18.4305C18.5791 18.5888 18.5791 18.5888 18.737 18.5888C19.0527 18.5888 19.2106 18.5888 19.5264 18.5888C19.8422 18.5888 20.158 18.4305 20.4738 18.2723C20.7896 17.9558 20.7896 17.4811 20.6317 17.1647C20.158 16.69 20.0001 16.5317 19.6843 16.5317C19.3685 16.5317 19.0527 16.5317 18.737 16.5317C18.5791 16.5317 18.5791 16.5317 18.5791 16.69C18.5791 17.0064 18.5791 17.1647 18.5791 17.4811ZM18.5791 15.4241C18.5791 15.5823 18.5791 15.8988 18.5791 16.057C18.5791 16.2153 18.5791 16.2153 18.737 16.2153C19.0527 16.2153 19.2106 16.2153 19.5264 16.2153H19.6843C20.0001 15.8988 20.158 15.5823 20.0001 15.1076C20.0001 14.7912 19.5264 14.4747 19.3685 14.4747C19.2106 14.4747 18.8949 14.4747 18.737 14.4747C18.5791 14.4747 18.5791 14.4747 18.5791 14.6329C18.5791 14.9494 18.5791 15.1076 18.5791 15.4241Z" fill="#FF713C"/>
<path d="M28.9998 19.0635C28.5262 19.0635 28.0525 19.0635 27.4209 19.0635L27.5788 18.9052C27.7367 18.747 27.8946 18.747 27.8946 18.4305C27.8946 17.1646 27.8946 15.8988 27.8946 14.6329C27.8946 14.4747 27.8946 14.3164 27.7367 14.3164L27.5788 14.1582C28.0525 14.1582 28.5262 14.1582 28.9998 14.1582C28.9998 14.1582 28.9998 14.1582 28.8419 14.1582C28.684 14.3164 28.684 14.3164 28.684 14.6329C28.684 15.8988 28.684 17.1646 28.684 18.5887C28.684 18.747 28.684 18.9052 28.8419 18.9052C28.8419 18.9052 28.8419 19.0635 28.9998 19.0635Z" fill="#FF713C"/>
<path d="M11 14.4747C11 14.3165 11 14.3165 11 14.1582C11 14.1582 11 14 11.1579 14C11.6316 14 12.1053 14 12.5789 14C12.5789 14 12.7368 14 12.5789 14C12.421 14.6329 12.5789 15.2659 12.7368 15.7406C12.8947 16.2153 13.2105 16.5317 13.5263 16.8482V17.0064C13.3684 17.1647 13.2105 17.1647 13.0526 17.3229H12.8947C12.421 16.69 11.9474 16.057 11.4737 15.4241C11.3158 15.2659 11.1579 15.1076 11 14.9494V14.7912C11 14.6329 11 14.6329 11 14.4747Z" fill="#FF713C"/>
<path d="M16.0525 16.532C16.0525 16.8485 16.0525 17.165 16.0525 17.3232C16.0525 17.3232 16.0525 17.4815 15.8946 17.4815C15.5788 17.6397 15.4209 17.6397 15.1052 17.4815C14.9473 17.3232 14.6315 17.0067 14.3157 16.6903C14.1578 16.2156 14.1578 15.8991 14.3157 15.5826C14.4736 15.2662 14.9473 15.1079 15.263 15.2662C15.5788 15.2662 15.7367 15.4244 16.0525 15.5826C16.0525 15.5826 16.0525 15.5826 16.0525 15.7409C16.0525 15.8991 16.0525 16.2156 16.0525 16.532Z" fill="#FF713C"/>
<path d="M14.6315 14C15.1052 14 15.5788 14 15.8946 14C16.0525 14 16.0525 14 16.0525 14.1582C16.0525 14.3165 16.0525 14.4747 16.0525 14.6329C16.0525 14.7912 16.0525 14.7912 15.8946 14.6329C15.2631 14.4747 14.6315 14.6329 14.1578 15.1076C13.9999 15.4241 13.9999 15.7406 13.9999 15.8988C13.5262 15.7406 13.3683 15.2659 13.2104 14.7912C13.2104 14.6329 13.2104 14.3165 13.2104 14.1582C13.2104 14 13.3683 14 13.3683 14C13.842 14 14.3157 14 14.6315 14Z" fill="#FF713C"/>
<path d="M14.6313 18.7469C14.1576 18.7469 13.9997 18.4304 13.684 18.2722C13.5261 18.1139 13.3682 17.9557 13.3682 17.7975V17.6392C13.5261 17.481 13.684 17.481 13.684 17.3228C13.8418 17.3228 13.8418 17.3228 13.8418 17.3228C13.9997 17.6392 14.3155 17.7975 14.6313 17.9557C14.9471 18.1139 15.2629 18.1139 15.7366 17.9557L15.8945 17.7975C15.8945 18.1139 15.8945 18.4304 15.8945 18.7469C15.8945 19.0633 15.8945 18.9051 15.7366 18.9051C15.2629 18.9051 14.7892 18.9051 14.3155 18.9051C14.3155 18.9051 14.3155 18.9051 14.1576 18.9051C14.4734 18.9051 14.6313 18.9051 14.6313 18.7469Z" fill="#FF713C"/>
<path d="M11 17.4813C11 17.0066 11 16.5319 11 16.0572C11 16.0572 11 16.0572 11 15.8989C11.6316 16.5319 11.9474 17.1648 12.421 17.6395V17.7977C11.9474 18.2724 11.4737 18.5889 11.1579 19.0636C11.1579 19.0636 11.1579 19.0636 11.1579 18.9054C11 18.4307 11 17.956 11 17.4813Z" fill="#FF713C"/>
<path d="M12.5785 19.0632C12.2627 19.0632 11.947 19.0632 11.7891 19.0632C12.1048 18.7467 12.4206 18.4302 12.7364 18.1138C12.7364 18.1138 12.7364 18.1138 12.8943 18.1138C13.0522 18.4302 13.2101 18.7467 13.5259 19.0632C13.2101 19.0632 12.8943 19.0632 12.5785 19.0632Z" fill="#FF713C"/>
</svg>
