<svg width="44" height="42" viewBox="0 0 44 42" fill="none" xmlns="http://www.w3.org/2000/svg">
<circle cx="33.1404" cy="11.2586" r="9.1375" fill="#FF713C"/>
<path fill-rule="evenodd" clip-rule="evenodd" d="M24.1492 7.53818C25.5194 3.7936 29.1769 0.99707 33.4627 0.99707C38.917 0.99707 43.3532 5.44342 43.3532 10.8974C43.3532 16.3516 38.915 20.7983 33.461 20.7983C33.2807 20.7983 33.0964 20.7932 32.9222 20.7837V36.4641C32.9222 39.4828 30.4774 41.9313 27.4587 41.9361H27.4438C27.3867 41.9361 27.3398 41.9323 27.2837 41.9278L27.2836 41.9278C27.2315 41.9236 27.1714 41.9188 27.0876 41.9157V41.9361H5.57803V41.9208C2.66142 41.7888 0.361872 39.3903 0.353027 36.4706V33.3693C0.353027 32.9839 0.683332 32.7053 1.06806 32.7053H5.99678L6.16142 8.26615C6.16414 7.88345 6.47506 7.53818 6.85809 7.53818H24.1492ZM5.8386 40.5428H5.84302H23.8033C23.7592 40.4926 23.7104 40.4526 23.6629 40.4137C23.628 40.3851 23.5938 40.3571 23.5628 40.3261C22.5314 39.3011 21.9507 37.9075 21.9497 36.4536V34.0986H1.74636V36.4634C1.75657 38.7174 3.58498 40.5397 5.8386 40.5428ZM31.5289 36.4634C31.5292 38.7133 29.7076 40.5383 27.4581 40.5428H27.4448C25.1861 40.5387 23.3543 38.7127 23.343 36.4543V33.3693C23.3488 33.191 23.2808 33.0186 23.1546 32.8927C23.0284 32.7668 22.8559 32.6991 22.678 32.7053H7.39011L7.54999 8.93152H23.7625C23.639 9.56933 23.575 10.217 23.5716 10.8664C23.5703 12.2397 23.8567 13.5976 24.4125 14.8532H17.8323C17.4472 14.8532 17.1356 15.1651 17.1356 15.5498C17.1356 15.9346 17.4472 16.2465 17.8323 16.2465H25.1684C26.6056 18.5066 28.9031 20.0823 31.5289 20.6095V36.4634ZM24.9653 10.9076C24.965 15.6009 28.7698 19.4053 33.4627 19.4053C38.154 19.4002 41.9554 15.5985 41.9605 10.9076C41.9605 6.21459 38.1561 2.40979 33.4631 2.40979C28.7698 2.40979 24.9653 6.21425 24.9653 10.9076Z" fill="#FF713C"/>
<path fill-rule="evenodd" clip-rule="evenodd" d="M11.1304 21.6483C11.1304 20.4577 12.1305 19.4893 13.3602 19.4893C14.5899 19.4893 15.5903 20.4577 15.5903 21.6483C15.5903 22.8389 14.5899 23.8074 13.3602 23.8074C12.1305 23.8074 11.1304 22.8389 11.1304 21.6483ZM12.5237 21.6483C12.5237 22.0705 12.8986 22.414 13.3602 22.414C13.8214 22.414 14.197 22.0705 14.197 21.6483C14.197 21.2262 13.8214 20.8826 13.3602 20.8826C12.8989 20.8826 12.5237 21.2258 12.5237 21.6483Z" fill="#FF713C"/>
<path d="M17.1357 21.6449C17.1357 22.0296 17.4473 22.3416 17.8324 22.3416H27.1204C27.5051 22.3416 27.8171 22.0296 27.8171 21.6449C27.8171 21.2602 27.5051 20.9482 27.1204 20.9482H17.8324C17.4473 20.9482 17.1357 21.2602 17.1357 21.6449Z" fill="#FF713C"/>
<path fill-rule="evenodd" clip-rule="evenodd" d="M11.1304 15.592C11.1304 14.4014 12.1305 13.4326 13.3602 13.4326C14.5899 13.4326 15.5903 14.4014 15.5903 15.592C15.5903 16.7826 14.5899 17.7511 13.3602 17.7511C12.1305 17.7511 11.1304 16.7826 11.1304 15.592ZM12.5237 15.592C12.5237 16.0142 12.8986 16.3577 13.3602 16.3577V16.3581C13.8214 16.3581 14.197 16.0142 14.197 15.592C14.197 15.1695 13.8214 14.8259 13.3602 14.8259C12.8989 14.8259 12.5237 15.1699 12.5237 15.592Z" fill="#FF713C"/>
<path fill-rule="evenodd" clip-rule="evenodd" d="M11.1304 27.703C11.1304 26.5124 12.1305 25.5439 13.3602 25.5439C14.5899 25.5439 15.5903 26.5124 15.5903 27.703C15.5903 28.8936 14.5899 29.8621 13.3602 29.8621C12.1305 29.8621 11.1304 28.8936 11.1304 27.703ZM12.5237 27.703C12.5237 28.1255 12.8986 28.4687 13.3602 28.4687C13.8214 28.4687 14.197 28.1252 14.197 27.703C14.197 27.2808 13.8214 26.9373 13.3602 26.9373C12.8989 26.9373 12.5237 27.2808 12.5237 27.703Z" fill="#FF713C"/>
<path d="M27.1204 27.0449H17.8324C17.4473 27.0449 17.1357 27.3569 17.1357 27.7416C17.1357 28.1263 17.4473 28.4383 17.8324 28.4383H27.1204C27.5051 28.4383 27.8171 28.1263 27.8171 27.7416C27.8171 27.3569 27.5051 27.0449 27.1204 27.0449Z" fill="#FF713C"/>
<path d="M32.4537 14.7475C32.352 14.8516 32.2125 14.9104 32.067 14.9116C31.9216 14.9129 31.7811 14.8565 31.6776 14.7542L28.5519 11.6815C28.2276 11.3626 28.2231 10.8411 28.5419 10.5174L28.9266 10.1259C29.2455 9.80152 29.7664 9.79703 30.0908 10.1158L32.0422 12.034L37.2251 6.7609C37.544 6.43652 38.0654 6.43203 38.3893 6.75086L38.7807 7.13565C39.1051 7.45448 39.1096 7.97588 38.7907 8.29975L32.4537 14.7475Z" fill="white"/>
<path d="M1.20125 35.0765C1.04346 34.4454 1.52082 33.834 2.17139 33.834H21.5708C22.0475 33.834 22.4579 34.1704 22.5514 34.6379L23.4394 39.0777C23.4568 39.1648 23.4858 39.2493 23.5255 39.3288L23.817 39.9118C24.1495 40.5767 23.666 41.359 22.9226 41.359H11.1031L2.50311 40.284L1.20125 35.0765Z" fill="#FF713C"/>
</svg>
