<svg width="34" height="36" viewBox="0 0 34 36" fill="none" xmlns="http://www.w3.org/2000/svg">
<path fill-rule="evenodd" clip-rule="evenodd" d="M32.8125 16.3125H1.09375V14.6719H32.8125V16.3125Z" fill="#FF713C"/>
<path fill-rule="evenodd" clip-rule="evenodd" d="M30.625 9.20312H3.28125C2.37516 9.20312 1.64062 9.93766 1.64062 10.8438V32.7188C1.64062 33.6248 2.37516 34.3594 3.28125 34.3594H30.625C31.5311 34.3594 32.2656 33.6248 32.2656 32.7188V10.8438C32.2656 9.93766 31.5311 9.20312 30.625 9.20312ZM3.28125 7.5625C1.46907 7.5625 0 9.03157 0 10.8438V32.7188C0 34.5309 1.46907 36 3.28125 36H30.625C32.4372 36 33.9062 34.5309 33.9062 32.7188V10.8438C33.9062 9.03157 32.4372 7.5625 30.625 7.5625H3.28125Z" fill="#FF713C"/>
<path d="M4.375 18.5H7.65625V21.7812H4.375V18.5Z" fill="#FF713C"/>
<path d="M4.375 23.9688H7.65625V27.25H4.375V23.9688Z" fill="#FF713C"/>
<path d="M15.3125 18.5H18.5938V21.7812H15.3125V18.5Z" fill="#FF713C"/>
<path d="M15.3125 23.9688H18.5938V27.25H15.3125V23.9688Z" fill="#FF713C"/>
<path d="M9.84375 18.5H13.125V21.7812H9.84375V18.5Z" fill="#FF713C"/>
<path d="M9.84375 23.9688H13.125V27.25H9.84375V23.9688Z" fill="#FF713C"/>
<path d="M20.7812 18.5H24.0625V21.7812H20.7812V18.5Z" fill="#FF713C"/>
<path d="M20.7812 23.9688H24.0625V27.25H20.7812V23.9688Z" fill="#FF713C"/>
<path d="M26.25 18.5H29.5312V21.7812H26.25V18.5Z" fill="#FF713C"/>
<path d="M26.25 23.9688H29.5312V27.25H26.25V23.9688Z" fill="#FF713C"/>
<path d="M4.375 29.4375H7.65625V32.7188H4.375V29.4375Z" fill="#FF713C"/>
<path d="M17.3612 13.562C20.909 13.562 23.785 10.75 23.785 7.28108C23.785 3.81214 20.909 1 17.3612 1C13.8135 1 10.9375 3.81214 10.9375 7.28108C10.9375 10.75 13.8135 13.562 17.3612 13.562Z" fill="#FF713C" stroke="white" stroke-width="1.7878" stroke-linecap="round"/>
<path d="M16.6578 9.20313L15.9195 8.13672H15.8758H15.1047V9.20313H14.2188V5.375H15.8758C16.2148 5.375 16.5083 5.43151 16.7563 5.54453C17.0078 5.65755 17.201 5.81797 17.3359 6.02578C17.4708 6.23359 17.5383 6.47969 17.5383 6.76406C17.5383 7.04844 17.469 7.29453 17.3305 7.50234C17.1956 7.70651 17.0023 7.86328 16.7508 7.97266L17.6094 9.20313H16.6578ZM16.6414 6.76406C16.6414 6.54896 16.5721 6.3849 16.4336 6.27188C16.2951 6.15521 16.0927 6.09688 15.8266 6.09688H15.1047V7.43125H15.8266C16.0927 7.43125 16.2951 7.37292 16.4336 7.25625C16.5721 7.13958 16.6414 6.97552 16.6414 6.76406Z" fill="white"/>
<path d="M19.9191 6.21719C20.1925 6.21719 20.4405 6.28099 20.6629 6.40859C20.8889 6.53255 21.0657 6.70938 21.1933 6.93906C21.3209 7.1651 21.3847 7.42943 21.3847 7.73203C21.3847 8.03464 21.3209 8.30078 21.1933 8.53047C21.0657 8.75651 20.8889 8.93333 20.6629 9.06094C20.4405 9.1849 20.1925 9.24688 19.9191 9.24688C19.5436 9.24688 19.2483 9.12839 19.0332 8.89141V10.2641H18.18V6.26094H18.9949V6.6C19.2063 6.34479 19.5144 6.21719 19.9191 6.21719ZM19.7715 8.54688C19.9902 8.54688 20.1689 8.47396 20.3074 8.32813C20.4496 8.17865 20.5207 7.97995 20.5207 7.73203C20.5207 7.48411 20.4496 7.28724 20.3074 7.14141C20.1689 6.99193 19.9902 6.91719 19.7715 6.91719C19.5527 6.91719 19.3722 6.99193 19.23 7.14141C19.0915 7.28724 19.0222 7.48411 19.0222 7.73203C19.0222 7.97995 19.0915 8.17865 19.23 8.32813C19.3722 8.47396 19.5527 8.54688 19.7715 8.54688Z" fill="white"/>
</svg>
