<svg width="23" height="41" viewBox="0 0 23 41" fill="none" xmlns="http://www.w3.org/2000/svg">
<path d="M19.4124 0H2.98652C1.34393 0 0 1.60466 0 3.53025V6.57911V33.3769V36.4258C0 38.5118 1.34393 40.1165 2.83719 40.1165H19.263C20.9056 40.1165 22.1002 38.5118 22.1002 36.4258V33.3769V6.73957V3.53025C22.2496 1.60466 20.9056 0 19.4124 0Z" fill="#FF713C"/>
<path d="M2.83675 1.28271H19.2626C20.3079 1.28271 21.2038 2.40598 21.2038 3.68971V6.0967H0.895508V3.52924C0.895508 2.24551 1.79146 1.28271 2.83675 1.28271Z" fill="#FF713C"/>
<path d="M21.2038 7.38086H0.895508V32.895H21.2038V7.38086Z" fill="white"/>
<path d="M19.412 38.9932H2.98616C1.94088 38.9932 1.04492 37.8699 1.04492 36.5862V34.1792H21.3533V36.5862C21.2039 37.8699 20.4573 38.9932 19.412 38.9932Z" fill="#FF713C"/>
<path d="M8.66136 4.1712H13.4398C13.7384 4.1712 13.8878 3.85045 13.8878 3.52969C13.8878 3.20894 13.7384 2.88818 13.4398 2.88818H8.66136C8.36271 2.88818 8.21338 3.20894 8.21338 3.52969C8.21338 4.01082 8.36271 4.1712 8.66136 4.1712Z" fill="white"/>
<circle cx="11.1113" cy="36.8311" r="2" fill="white"/>
</svg>
