<svg width="37" height="43" viewBox="0 0 37 43" fill="none" xmlns="http://www.w3.org/2000/svg">
<path d="M29.1786 25.6592C23.8503 25.6592 19.5164 29.9931 19.5164 35.3214C19.5164 38.1978 20.7813 40.782 22.7805 42.5521H0.447917V0.447917H24.3859L30.2664 6.32839V25.7282C29.912 25.685 29.5496 25.6592 29.1786 25.6592Z" fill="white" stroke="#FF713C" stroke-width="0.895833"/>
<path d="M2.62349 0.447918L2.62349 42.5521H0.447899L0.447899 0.447918H2.62349Z" stroke="#FF713C" stroke-width="0.895833"/>
<path d="M24.5714 0V6.14286H30.7143L24.5714 0Z" fill="#FF713C"/>
<path d="M12.2857 12.2857H9.21426V18.4286H12.2857V12.2857Z" fill="#FF713C"/>
<path d="M16.8928 9.21429H13.8214V18.4286H16.8928V9.21429Z" fill="#FF713C"/>
<path d="M21.5 6.14287H18.4286V18.4286H21.5V6.14287Z" fill="#FF713C"/>
<path d="M24.5714 20.3482H7.29465V7.67857H8.0625V19.5804H24.5714V20.3482Z" fill="#FF713C"/>
<path d="M7.67857 6.14287L6.14285 7.67858H9.21428L7.67857 6.14287Z" fill="#FF713C"/>
<path d="M26.1071 19.9643L24.5714 18.4286V21.5L26.1071 19.9643Z" fill="#FF713C"/>
<path d="M9.21428 23.0357H6.14285V24.5714H9.21428V23.0357Z" fill="#FF713C"/>
<path d="M9.21428 26.1071H6.14285V27.6429H9.21428V26.1071Z" fill="#FF713C"/>
<path d="M9.21428 29.1786H6.14285V30.7143H9.21428V29.1786Z" fill="#FF713C"/>
<path d="M10.75 24.5714H24.5714V23.0357H10.75V24.5714Z" fill="#FF713C"/>
<path d="M24.5714 26.1071H10.75V27.6429H24.0961C24.2505 27.5407 24.4109 27.4471 24.5714 27.3541V26.1071Z" fill="#FF713C"/>
<path d="M10.75 29.1786V30.7143H21.2113C21.5315 30.163 21.907 29.65 22.3308 29.1786H10.75Z" fill="#FF713C"/>
<path d="M9.07143 33H6V34.5357H9.07143V33Z" fill="#FF713C"/>
<path d="M10.6071 33V34.5357H19.092C19.3517 33.9844 19.6562 33.4715 20 33H10.6071Z" fill="#FF713C"/>
<path d="M9.07143 36H6V37.5357H9.07143V36Z" fill="#FF713C"/>
<path d="M10.6071 36V37.5357L19.5 37.5C19.7597 36.9487 19.6562 36.4715 20 36H10.6071Z" fill="#FF713C"/>
<path d="M9.07143 39H6V40.5357H9.07143V39Z" fill="#FF713C"/>
<path d="M10.6071 39V40.5357L20.5 40.5C20.7597 39.9487 19.6562 39.4715 20 39H10.6071Z" fill="#FF713C"/>
<path d="M29.1786 42.5521C25.1851 42.5521 21.9479 39.3149 21.9479 35.3214C21.9479 31.3279 25.1851 28.0908 29.1786 28.0908C33.1721 28.0908 36.4092 31.3279 36.4092 35.3214C36.4092 39.3149 33.1721 42.5521 29.1786 42.5521Z" stroke="#FF713C" stroke-width="0.895833"/>
<path d="M29.1786 39.9286C31.723 39.9286 33.7857 37.8659 33.7857 35.3214C33.7857 32.777 31.723 30.7143 29.1786 30.7143C26.6341 30.7143 24.5714 32.777 24.5714 35.3214C24.5714 37.8659 26.6341 39.9286 29.1786 39.9286Z" fill="#FF713C"/>
<path d="M28.3031 36.7933L27.5997 35.7772H27.558H26.8233V36.7933H25.9792V33.1458H27.558C27.881 33.1458 28.1607 33.1997 28.3969 33.3074C28.6366 33.415 28.8207 33.5679 28.9492 33.7659C29.0778 33.9639 29.142 34.1984 29.142 34.4693C29.142 34.7403 29.076 34.9748 28.944 35.1728C28.8155 35.3673 28.6314 35.5167 28.3917 35.6209L29.2098 36.7933H28.3031ZM28.2875 34.4693C28.2875 34.2644 28.2215 34.1081 28.0895 34.0004C27.9575 33.8892 27.7647 33.8336 27.5111 33.8336H26.8233V35.105H27.5111C27.7647 35.105 27.9575 35.0495 28.0895 34.9383C28.2215 34.8271 28.2875 34.6708 28.2875 34.4693Z" fill="white"/>
<path d="M31.4105 33.9483C31.671 33.9483 31.9072 34.0091 32.1191 34.1306C32.3345 34.2488 32.503 34.4172 32.6246 34.6361C32.7462 34.8515 32.807 35.1033 32.807 35.3916C32.807 35.6799 32.7462 35.9335 32.6246 36.1524C32.503 36.3678 32.3345 36.5362 32.1191 36.6578C31.9072 36.7759 31.671 36.835 31.4105 36.835C31.0527 36.835 30.7713 36.7221 30.5664 36.4963V37.8042H29.7535V33.99H30.5299V34.313C30.7314 34.0699 31.0249 33.9483 31.4105 33.9483ZM31.2698 36.168C31.4782 36.168 31.6484 36.0985 31.7805 35.9596C31.9159 35.8172 31.9837 35.6278 31.9837 35.3916C31.9837 35.1554 31.9159 34.9678 31.7805 34.8289C31.6484 34.6864 31.4782 34.6152 31.2698 34.6152C31.0614 34.6152 30.8894 34.6864 30.754 34.8289C30.6219 34.9678 30.5559 35.1554 30.5559 35.3916C30.5559 35.6278 30.6219 35.8172 30.754 35.9596C30.8894 36.0985 31.0614 36.168 31.2698 36.168Z" fill="white"/>
<path d="M25.4742 29.1104C23.709 30.6009 22.5878 32.8301 22.5878 35.3214C22.5878 37.8127 23.709 40.0419 25.4742 41.5325C23.3621 40.2701 21.9479 37.961 21.9479 35.3214C21.9479 32.6819 23.3621 30.3727 25.4742 29.1104Z" stroke="#FF713C" stroke-width="0.895833"/>
</svg>
