<svg width="35" height="42" viewBox="0 0 35 42" fill="none" xmlns="http://www.w3.org/2000/svg">
<mask id="mask0" mask-type="alpha" maskUnits="userSpaceOnUse" x="0" y="24" width="35" height="18">
<path fill-rule="evenodd" clip-rule="evenodd" d="M0 24.3994H34.9249V41.2094H0V24.3994Z" fill="white"/>
</mask>
<g mask="url(#mask0)">
<path fill-rule="evenodd" clip-rule="evenodd" d="M5.95193 32.3626C5.95193 30.3794 5.95292 28.3963 5.95137 26.4131C5.95094 25.9231 5.8379 25.8118 5.35482 25.8115C4.21478 25.8105 3.07474 25.81 1.93469 25.8118C1.51879 25.8125 1.39248 25.9358 1.39219 26.3606C1.39022 30.3621 1.39022 34.3636 1.39219 38.3651C1.39248 38.7896 1.51893 38.9129 1.93498 38.9135C3.05159 38.9155 4.16806 38.9145 5.28453 38.9142C5.86472 38.9141 5.95165 38.8271 5.95179 38.2416C5.95221 36.2819 5.95193 34.3223 5.95193 32.3626ZM7.36266 36.2713C7.67709 36.2713 7.94637 36.2748 8.21564 36.2706C8.89207 36.2603 9.54127 36.3687 10.1831 36.6005C13.0339 37.6305 15.8953 38.6312 18.7453 39.6635C19.3823 39.8942 19.9413 39.8451 20.5259 39.5065C22.549 38.3347 24.5858 37.1865 26.6175 36.0297C28.7615 34.8088 30.9055 33.5884 33.0496 32.3675C33.4731 32.1263 33.6326 31.6895 33.4554 31.2592C33.2899 30.8572 32.8765 30.6805 32.3991 30.8102C32.2746 30.8442 32.152 30.8852 32.0286 30.9239C29.1476 31.828 26.2693 32.7402 23.3832 33.6274C22.9528 33.7596 22.4869 33.8264 22.036 33.8334C20.4841 33.8581 18.9316 33.8429 17.3793 33.843C16.1544 33.843 15.7051 34.2146 15.4906 35.4056C15.4237 35.7766 15.1287 36.0259 14.7811 36.0047C14.42 35.9828 14.0969 35.6763 14.1381 35.3044C14.184 34.8908 14.2443 34.4519 14.4233 34.0848C14.9704 32.9646 15.9216 32.4474 17.1588 32.4449C18.8051 32.4416 20.4515 32.4444 22.0979 32.4436C22.2271 32.4434 22.3583 32.4488 22.4851 32.4286C22.8253 32.3744 23.0751 32.1922 23.1756 31.8556C23.2805 31.5039 23.1899 31.174 22.8806 30.9883C22.6522 30.8511 22.3602 30.7572 22.0948 30.7536C20.5781 30.7318 19.0608 30.7502 17.544 30.7365C17.2686 30.7339 16.981 30.6829 16.7213 30.5914C15.4587 30.1471 14.1926 29.7089 12.9484 29.2165C11.1548 28.5069 9.28893 28.5662 7.41897 28.6163C7.40133 28.6167 7.38439 28.6454 7.36266 28.6649V36.2713ZM7.34205 27.2067C7.68994 27.2067 7.99308 27.209 8.29623 27.2063C9.58967 27.1951 10.8941 27.1367 12.1482 27.5111C13.2723 27.8467 14.3937 28.2135 15.4748 28.6657C16.7356 29.1931 18.0118 29.4332 19.3785 29.3579C20.4205 29.3005 21.4699 29.3526 22.5151 29.3853C23.5358 29.4172 24.6494 30.4134 24.6044 31.5998C24.6031 31.6332 24.6184 31.6674 24.6366 31.7494C24.7589 31.7192 24.8786 31.6962 24.994 31.6599C27.3481 30.9202 29.7023 30.181 32.055 29.4375C33.08 29.1136 34.2714 29.6595 34.7245 30.6692C35.1898 31.7059 34.8224 32.9411 33.857 33.4963C31.8097 34.6736 29.7546 35.8373 27.7025 37.0059C25.5277 38.2443 23.3457 39.4703 21.1807 40.7255C20.2528 41.2634 19.3342 41.3564 18.316 40.9865C15.4118 39.9313 12.4902 38.9239 9.58205 37.879C8.86004 37.6196 8.13082 37.6632 7.32088 37.6676C7.32088 38.0276 7.34403 38.3651 7.31637 38.6984C7.24326 39.5796 6.53409 40.2918 5.65076 40.3115C4.33445 40.3412 3.01631 40.3405 1.69986 40.3124C0.809896 40.2935 0.111308 39.5902 0.0233843 38.7065C0.0118117 38.5898 0.00150932 38.4723 0.00150932 38.3553C0.000521421 34.3629 -0.00159551 30.3707 0.00207384 26.3783C0.00306174 25.3541 0.523969 24.648 1.41336 24.4496C1.58342 24.4116 1.76308 24.4033 1.93836 24.4028C3.09082 24.3988 4.24342 24.3984 5.39588 24.4013C6.57431 24.4043 7.31072 25.1235 7.34092 26.2991C7.3484 26.589 7.34205 26.8791 7.34205 27.2067Z" fill="#FF713C"/>
<path d="M5.95137 26.4131L6.45137 26.4128V26.4127L5.95137 26.4131ZM5.35482 25.8115L5.35438 26.3115H5.35452L5.35482 25.8115ZM1.93469 25.8118L1.93389 25.3118L1.93385 25.3118L1.93469 25.8118ZM1.39219 26.3606L0.892195 26.3603L0.892195 26.3604L1.39219 26.3606ZM1.39219 38.3651L0.892195 38.3653L0.892195 38.3654L1.39219 38.3651ZM1.93498 38.9135L1.93586 38.4135L1.93566 38.4135L1.93498 38.9135ZM5.28453 38.9142L5.28441 38.4142H5.28441L5.28453 38.9142ZM5.95179 38.2416L6.45179 38.2417V38.2417L5.95179 38.2416ZM7.36266 36.2713H6.86266V36.7713H7.36266V36.2713ZM8.21564 36.2706L8.20803 35.7706L8.20778 35.7706L8.21564 36.2706ZM10.1831 36.6005L10.353 36.1303L10.353 36.1303L10.1831 36.6005ZM18.7453 39.6635L18.9156 39.1934L18.9155 39.1933L18.7453 39.6635ZM20.5259 39.5065L20.7765 39.9392L20.7765 39.9392L20.5259 39.5065ZM26.6175 36.0297L26.8649 36.4642L26.8649 36.4642L26.6175 36.0297ZM33.0496 32.3675L33.297 32.802L33.297 32.802L33.0496 32.3675ZM33.4554 31.2592L33.9178 31.0689L33.9178 31.0689L33.4554 31.2592ZM32.3991 30.8102L32.268 30.3276L32.2673 30.3278L32.3991 30.8102ZM32.0286 30.9239L31.8791 30.4468L31.8789 30.4468L32.0286 30.9239ZM23.3832 33.6274L23.53 34.1053L23.5301 34.1053L23.3832 33.6274ZM22.036 33.8334L22.0282 33.3335L22.028 33.3335L22.036 33.8334ZM17.3793 33.843V34.343L17.3793 34.343L17.3793 33.843ZM15.4906 35.4056L15.9826 35.4943L15.9826 35.4942L15.4906 35.4056ZM14.7811 36.0047L14.8115 35.5056L14.8113 35.5056L14.7811 36.0047ZM14.1381 35.3044L13.6412 35.2493L13.6412 35.2493L14.1381 35.3044ZM14.4233 34.0848L13.9741 33.8654L13.974 33.8655L14.4233 34.0848ZM17.1588 32.4449L17.1579 31.9449H17.1578L17.1588 32.4449ZM22.0979 32.4436L22.0982 32.9436H22.0985L22.0979 32.4436ZM22.4851 32.4286L22.5637 32.9224L22.5637 32.9224L22.4851 32.4286ZM23.1756 31.8556L23.6547 31.9987L23.6548 31.9985L23.1756 31.8556ZM22.8806 30.9883L23.1381 30.5596L23.138 30.5596L22.8806 30.9883ZM22.0948 30.7536L22.0877 31.2535L22.0879 31.2535L22.0948 30.7536ZM17.544 30.7365L17.5394 31.2365L17.5395 31.2365L17.544 30.7365ZM16.7213 30.5914L16.8874 30.1198L16.8873 30.1198L16.7213 30.5914ZM12.9484 29.2165L13.1324 28.7516L13.1323 28.7516L12.9484 29.2165ZM7.41897 28.6163L7.43097 29.1162L7.43236 29.1161L7.41897 28.6163ZM7.36266 28.6649L7.02898 28.2925L6.86266 28.4415V28.6649H7.36266ZM8.29623 27.2063L8.29192 26.7063L8.29181 26.7063L8.29623 27.2063ZM12.1482 27.5111L12.0052 27.9902L12.0052 27.9902L12.1482 27.5111ZM15.4748 28.6657L15.6677 28.2044L15.6677 28.2044L15.4748 28.6657ZM19.3785 29.3579L19.406 29.8572L19.406 29.8572L19.3785 29.3579ZM22.5151 29.3853L22.4995 29.8851L22.4995 29.8851L22.5151 29.3853ZM24.6044 31.5998L25.104 31.6187V31.6187L24.6044 31.5998ZM24.6366 31.7494L24.1485 31.8577L24.2594 32.3575L24.7564 32.2348L24.6366 31.7494ZM24.994 31.6599L25.1439 32.1369L25.1439 32.1369L24.994 31.6599ZM32.055 29.4375L31.9044 28.9608L31.9044 28.9608L32.055 29.4375ZM34.7245 30.6692L34.2683 30.8739L34.2683 30.8739L34.7245 30.6692ZM33.857 33.4963L33.6077 33.0628L33.6077 33.0628L33.857 33.4963ZM27.7025 37.0059L27.455 36.5714L27.455 36.5714L27.7025 37.0059ZM21.1807 40.7255L21.4315 41.158L21.4315 41.158L21.1807 40.7255ZM18.316 40.9865L18.1452 41.4565L18.1452 41.4565L18.316 40.9865ZM9.58205 37.879L9.75113 37.4085L9.75111 37.4085L9.58205 37.879ZM7.32088 37.6676L7.31818 37.1676L6.82088 37.1703V37.6676H7.32088ZM7.31637 38.6984L6.81808 38.6571L6.81808 38.6571L7.31637 38.6984ZM5.65076 40.3115L5.63958 39.8117L5.63951 39.8117L5.65076 40.3115ZM1.69986 40.3124L1.71052 39.8125L1.71048 39.8125L1.69986 40.3124ZM0.0233843 38.7065L-0.474176 38.7558L-0.474159 38.756L0.0233843 38.7065ZM0.00150932 38.3553H0.501509L0.501509 38.3552L0.00150932 38.3553ZM0.00207384 26.3783L-0.497926 26.3778V26.3778L0.00207384 26.3783ZM1.41336 24.4496L1.52224 24.9376L1.5223 24.9376L1.41336 24.4496ZM1.93836 24.4028L1.93997 24.9028L1.94008 24.9028L1.93836 24.4028ZM5.39588 24.4013L5.3946 24.9013L5.39463 24.9013L5.39588 24.4013ZM7.34092 26.2991L6.84109 26.312L6.84109 26.312L7.34092 26.2991ZM6.45193 32.3626C6.45193 30.3798 6.45292 28.3962 6.45137 26.4128L5.45137 26.4135C5.45292 28.3964 5.45193 30.3791 5.45193 32.3626H6.45193ZM6.45137 26.4127C6.45117 26.1793 6.43755 25.8262 6.18848 25.576C5.93836 25.3247 5.58514 25.3116 5.35511 25.3115L5.35452 26.3115C5.40596 26.3115 5.44641 26.3131 5.47843 26.3157C5.51065 26.3183 5.52966 26.3217 5.53928 26.3239C5.55705 26.328 5.52102 26.3229 5.4797 26.2814C5.43861 26.2401 5.43411 26.2048 5.43857 26.2243C5.44094 26.2346 5.44439 26.2543 5.44708 26.2873C5.44976 26.32 5.45132 26.3613 5.45137 26.4136L6.45137 26.4127ZM5.35525 25.3115C4.21514 25.3105 3.07458 25.31 1.93389 25.3118L1.9355 26.3118C3.07489 26.31 4.21442 26.3105 5.35438 26.3115L5.35525 25.3115ZM1.93385 25.3118C1.71113 25.3122 1.38948 25.337 1.15314 25.5745C0.917651 25.8112 0.892346 26.1331 0.892195 26.3603L1.89219 26.361C1.89222 26.3197 1.8938 26.2879 1.89617 26.2636C1.89855 26.2392 1.9014 26.2259 1.90277 26.2206C1.90407 26.2155 1.90313 26.2213 1.89678 26.2333C1.88999 26.2462 1.87876 26.263 1.86203 26.2798C1.84528 26.2967 1.82835 26.3082 1.815 26.3153C1.80247 26.3219 1.79612 26.3231 1.80041 26.322C1.80499 26.3208 1.81756 26.3181 1.8411 26.3157C1.86454 26.3134 1.89536 26.3119 1.93554 26.3118L1.93385 25.3118ZM0.892195 26.3604C0.890219 30.362 0.890219 34.3637 0.892195 38.3653L1.89219 38.3648C1.89022 34.3636 1.89022 30.3622 1.89219 26.3609L0.892195 26.3604ZM0.892195 38.3654C0.892346 38.5926 0.917727 38.9145 1.15345 39.1512C1.38988 39.3885 1.71151 39.4132 1.9343 39.4135L1.93566 38.4135C1.89546 38.4135 1.86461 38.4119 1.84115 38.4096C1.81758 38.4073 1.80499 38.4045 1.80038 38.4033C1.79606 38.4022 1.80237 38.4034 1.81488 38.41C1.82821 38.4171 1.84514 38.4286 1.8619 38.4454C1.87864 38.4622 1.88989 38.479 1.8967 38.4919C1.90308 38.504 1.90404 38.5098 1.90275 38.5048C1.9014 38.4996 1.89854 38.4863 1.89617 38.4619C1.8938 38.4377 1.89222 38.4059 1.89219 38.3647L0.892195 38.3654ZM1.93409 39.4135C3.05137 39.4155 4.16862 39.4145 5.28466 39.4142L5.28441 38.4142C4.1675 38.4145 3.05181 38.4155 1.93586 38.4135L1.93409 39.4135ZM5.28466 39.4142C5.4342 39.4142 5.58878 39.4093 5.72828 39.3823C5.87305 39.3544 6.04666 39.2946 6.19048 39.1497C6.33391 39.0053 6.39274 38.8316 6.42023 38.6872C6.44682 38.5476 6.45176 38.3926 6.45179 38.2417L5.45179 38.2415C5.45176 38.3833 5.44577 38.4588 5.43789 38.5001C5.43091 38.5368 5.43172 38.4946 5.48087 38.4451C5.53043 38.3952 5.5735 38.3938 5.53879 38.4005C5.49881 38.4082 5.42496 38.4142 5.28441 38.4142L5.28466 39.4142ZM6.45179 38.2417C6.45221 36.2819 6.45193 34.3222 6.45193 32.3626H5.45193C5.45193 34.3224 5.45221 36.2818 5.45179 38.2415L6.45179 38.2417ZM7.36266 36.7713C7.66823 36.7713 7.94926 36.7748 8.2235 36.7705L8.20778 35.7706C7.94348 35.7748 7.68596 35.7713 7.36266 35.7713V36.7713ZM8.22326 36.7705C8.83904 36.7611 9.4281 36.8594 10.0132 37.0708L10.353 36.1303C9.65443 35.8779 8.94511 35.7594 8.20803 35.7706L8.22326 36.7705ZM10.0132 37.0708C12.8896 38.11 15.7062 39.0945 18.575 40.1336L18.9155 39.1933C16.0845 38.168 13.1783 37.151 10.353 36.1303L10.0132 37.0708ZM18.575 40.1336C19.3504 40.4144 20.0635 40.3522 20.7765 39.9392L20.2753 39.0739C19.8192 39.338 19.4143 39.374 18.9156 39.1934L18.575 40.1336ZM20.7765 39.9392C22.7975 38.7686 24.8307 37.6224 26.8649 36.4642L26.3701 35.5952C24.3408 36.7506 22.3005 37.9008 20.2753 39.0739L20.7765 39.9392ZM26.8649 36.4642C27.9369 35.8537 29.0089 35.2434 30.0809 34.6331C31.1529 34.0228 32.2249 33.4125 33.297 32.802L32.8021 31.933C31.7301 32.5435 30.6581 33.1538 29.5861 33.7641C28.5141 34.3744 27.4421 34.9847 26.37 35.5952L26.8649 36.4642ZM33.297 32.802C33.924 32.4449 34.1972 31.7477 33.9178 31.0689L32.9931 31.4495C33.0679 31.6314 33.0222 31.8077 32.8021 31.933L33.297 32.802ZM33.9178 31.0689C33.6383 30.39 32.94 30.1451 32.268 30.3276L32.5302 31.2927C32.813 31.2158 32.9415 31.3243 32.9931 31.4496L33.9178 31.0689ZM32.2673 30.3278C32.1309 30.3651 31.9901 30.412 31.8791 30.4468L32.1782 31.401C32.3139 31.3585 32.4183 31.3232 32.5309 31.2925L32.2673 30.3278ZM31.8789 30.4468C28.9961 31.3515 26.1205 32.2629 23.2363 33.1494L23.5301 34.1053C26.4181 33.2176 29.2991 32.3045 32.1783 31.401L31.8789 30.4468ZM23.2364 33.1494C22.8557 33.2664 22.4371 33.3271 22.0282 33.3335L22.0438 34.3334C22.5367 34.3257 23.0498 34.2529 23.53 34.1053L23.2364 33.1494ZM22.028 33.3335C20.4814 33.3581 18.9382 33.3429 17.3792 33.343L17.3793 34.343C18.925 34.3429 20.4869 34.3581 22.0439 34.3334L22.028 33.3335ZM17.3793 33.343C16.7355 33.343 16.1681 33.4361 15.7373 33.7924C15.3052 34.1499 15.1117 34.6885 14.9985 35.317L15.9826 35.4942C16.084 34.9317 16.2224 34.689 16.3748 34.563C16.5286 34.4357 16.7982 34.343 17.3793 34.343V33.343ZM14.9985 35.3169C14.9845 35.3947 14.95 35.4436 14.9185 35.4702C14.8882 35.4958 14.8532 35.5082 14.8115 35.5056L14.7507 36.5038C15.3823 36.5422 15.8765 36.083 15.9826 35.4943L14.9985 35.3169ZM14.8113 35.5056C14.7593 35.5025 14.7054 35.477 14.6695 35.4396C14.637 35.4057 14.633 35.3786 14.6351 35.3595L13.6412 35.2493C13.5618 35.9657 14.1687 36.4685 14.7509 36.5038L14.8113 35.5056ZM14.6351 35.3595C14.6816 34.9399 14.7365 34.5832 14.8727 34.304L13.974 33.8655C13.752 34.3205 13.6864 34.8417 13.6412 35.2493L14.6351 35.3595ZM14.8726 34.3042C15.1076 33.823 15.4178 33.492 15.7848 33.2773C16.1544 33.061 16.6107 32.946 17.1599 32.9449L17.1578 31.9449C16.4698 31.9463 15.8317 32.0912 15.2797 32.4142C14.725 32.7387 14.2861 33.2264 13.9741 33.8654L14.8726 34.3042ZM17.1598 32.9449C18.8059 32.9416 20.45 32.9444 22.0982 32.9436L22.0977 31.9436C20.453 31.9444 18.8044 31.9416 17.1579 31.9449L17.1598 32.9449ZM22.0985 32.9436C22.1972 32.9435 22.3865 32.9506 22.5637 32.9224L22.4064 31.9348C22.3301 31.947 22.257 31.9434 22.0974 31.9436L22.0985 32.9436ZM22.5637 32.9224C23.0595 32.8434 23.49 32.5505 23.6547 31.9987L22.6965 31.7126C22.6603 31.8339 22.5912 31.9054 22.4064 31.9348L22.5637 32.9224ZM23.6548 31.9985C23.8102 31.4771 23.6837 30.8874 23.1381 30.5596L22.6232 31.4169C22.6783 31.45 22.6979 31.4832 22.7075 31.513C22.719 31.5488 22.7258 31.6142 22.6964 31.7128L23.6548 31.9985ZM23.138 30.5596C22.8452 30.3838 22.4678 30.2587 22.1018 30.2536L22.0879 31.2535C22.2525 31.2558 22.4591 31.3184 22.6233 31.4169L23.138 30.5596ZM22.102 30.2536C20.5942 30.232 19.0406 30.25 17.5485 30.2365L17.5395 31.2365C19.0811 31.2504 20.562 31.2317 22.0877 31.2535L22.102 30.2536ZM17.5486 30.2365C17.3289 30.2345 17.0958 30.1932 16.8874 30.1198L16.5553 31.063C16.8662 31.1725 17.2084 31.2334 17.5394 31.2365L17.5486 30.2365ZM16.8873 30.1198C15.6206 29.6741 14.3655 29.2396 13.1324 28.7516L12.7644 29.6814C14.0197 30.1783 15.2968 30.6202 16.5554 31.0631L16.8873 30.1198ZM13.1323 28.7516C11.2277 27.998 9.25649 28.0669 7.40558 28.1165L7.43236 29.1161C9.32136 29.0655 11.0819 29.0158 12.7645 29.6815L13.1323 28.7516ZM7.40697 28.1165C7.26764 28.1198 7.16836 28.1776 7.12131 28.2101C7.07382 28.243 7.0411 28.2772 7.02963 28.2893C7.02232 28.297 7.01618 28.3038 7.01305 28.3073C7.00825 28.3127 7.00899 28.3119 7.00757 28.3134C7.00593 28.3153 7.01469 28.3053 7.02898 28.2925L7.69634 29.0372C7.72149 29.0147 7.74052 28.9938 7.74872 28.9848C7.76404 28.9679 7.75525 28.9774 7.75506 28.9776C7.75275 28.98 7.72894 29.0058 7.69026 29.0325C7.65202 29.059 7.56148 29.113 7.43097 29.1162L7.40697 28.1165ZM6.86266 28.6649V36.2713H7.86266V28.6649H6.86266ZM7.34205 27.7067C7.68488 27.7067 7.99472 27.709 8.30065 27.7063L8.29181 26.7063C7.99145 26.709 7.69499 26.7067 7.34205 26.7067V27.7067ZM8.30054 27.7063C9.62607 27.6948 10.8403 27.6425 12.0052 27.9902L12.2912 27.032C10.9479 26.631 9.55328 26.6954 8.29192 26.7063L8.30054 27.7063ZM12.0052 27.9902C13.1221 28.3237 14.2244 28.6847 15.2818 29.127L15.6677 28.2044C14.563 27.7424 13.4225 27.3698 12.2912 27.032L12.0052 27.9902ZM15.2818 29.127C16.6075 29.6815 17.9589 29.9368 19.406 29.8572L19.351 28.8587C18.0648 28.9295 16.8637 28.7047 15.6677 28.2044L15.2818 29.127ZM19.406 29.8572C20.4204 29.8013 21.4407 29.8519 22.4995 29.8851L22.5308 28.8856C21.4991 28.8532 20.4206 28.7997 19.351 28.8587L19.406 29.8572ZM22.4995 29.8851C22.861 29.8964 23.2786 30.0852 23.6054 30.4128C23.9286 30.7368 24.121 31.1537 24.1048 31.5808L25.104 31.6187C25.1328 30.8595 24.7909 30.1852 24.3134 29.7065C23.8394 29.2314 23.1899 28.9062 22.5307 28.8856L22.4995 29.8851ZM24.1048 31.5808C24.1011 31.6774 24.1227 31.7569 24.129 31.7813C24.1385 31.8179 24.1418 31.8278 24.1485 31.8577L25.1247 31.641C25.1185 31.6131 25.1126 31.5895 25.1076 31.5702C25.1051 31.5608 25.1029 31.5523 25.1011 31.5459C25.0993 31.5388 25.0982 31.5348 25.0973 31.5314C25.0965 31.5282 25.0965 31.5281 25.0968 31.5296C25.0972 31.5312 25.0983 31.5361 25.0995 31.5433C25.102 31.5584 25.1053 31.585 25.104 31.6187L24.1048 31.5808ZM24.7564 32.2348C24.8438 32.2132 25.0097 32.1791 25.1439 32.1369L24.8442 31.1829C24.7475 31.2133 24.674 31.2251 24.5168 31.2639L24.7564 32.2348ZM25.1439 32.1369C27.4978 31.3973 29.8524 30.6579 32.2057 29.9143L31.9044 28.9608C29.5521 29.7041 27.1984 30.4432 24.8442 31.1829L25.1439 32.1369ZM32.2057 29.9143C32.9802 29.6696 33.9155 30.0876 34.2683 30.8739L35.1807 30.4645C34.6274 29.2315 33.1798 28.5577 31.9044 28.9608L32.2057 29.9143ZM34.2683 30.8739C34.6353 31.6916 34.3363 32.6438 33.6077 33.0628L34.1062 33.9297C35.3085 33.2383 35.7442 31.7202 35.1806 30.4644L34.2683 30.8739ZM33.6077 33.0628C31.5617 34.2394 29.5086 35.402 27.455 36.5714L27.9499 37.4404C30.0006 36.2726 32.0578 35.1077 34.1062 33.9297L33.6077 33.0628ZM27.455 36.5714C25.2836 37.8078 23.0971 39.0364 20.93 40.2929L21.4315 41.158C23.5943 39.9041 25.7717 38.6807 27.9499 37.4404L27.455 36.5714ZM20.93 40.2929C20.127 40.7584 19.3625 40.8348 18.4867 40.5166L18.1452 41.4565C19.3059 41.8781 20.3787 41.7684 21.4315 41.158L20.93 40.2929ZM18.4867 40.5166C15.5869 39.463 12.6457 38.4485 9.75113 37.4085L9.41298 38.3496C12.3346 39.3994 15.2367 40.3997 18.1452 41.4565L18.4867 40.5166ZM9.75111 37.4085C8.92496 37.1117 8.08515 37.1635 7.31818 37.1676L7.32359 38.1676C8.1765 38.163 8.79511 38.1276 9.413 38.3496L9.75111 37.4085ZM6.82088 37.6676C6.82088 38.0749 6.84358 38.3498 6.81808 38.6571L7.81466 38.7398C7.84448 38.3804 7.82088 37.9804 7.82088 37.6676H6.82088ZM6.81808 38.6571C6.76465 39.3011 6.2497 39.798 5.63958 39.8117L5.66194 40.8114C6.81848 40.7855 7.72187 39.8582 7.81466 38.7398L6.81808 38.6571ZM5.63951 39.8117C4.33087 39.8411 3.02005 39.8404 1.71052 39.8125L1.68919 40.8123C3.01257 40.8405 4.33803 40.8412 5.66202 40.8114L5.63951 39.8117ZM1.71048 39.8125C1.09523 39.7994 0.586039 39.3114 0.520928 38.657L-0.474159 38.756C-0.363423 39.869 0.524564 40.7875 1.68923 40.8123L1.71048 39.8125ZM0.520944 38.6571C0.509492 38.5416 0.501509 38.4456 0.501509 38.3553H-0.498491C-0.498491 38.4991 -0.485868 38.6379 -0.474176 38.7558L0.520944 38.6571ZM0.501509 38.3552C0.500521 34.3626 0.498405 30.3708 0.502074 26.3787L-0.497926 26.3778C-0.501596 30.3706 -0.499479 34.3633 -0.498491 38.3555L0.501509 38.3552ZM0.502074 26.3788C0.502487 25.9507 0.611 25.6274 0.777765 25.4C0.941747 25.1764 1.18549 25.0127 1.52224 24.9376L1.30449 23.9616C0.751842 24.0849 0.290434 24.3735 -0.0286321 24.8086C-0.344916 25.2399 -0.497351 25.7817 -0.497926 26.3778L0.502074 26.3788ZM1.5223 24.9376C1.63868 24.9116 1.77507 24.9033 1.93997 24.9028L1.93675 23.9028C1.7511 23.9034 1.52816 23.9117 1.30443 23.9616L1.5223 24.9376ZM1.94008 24.9028C3.09152 24.8988 4.24312 24.8984 5.3946 24.9013L5.39717 23.9013C4.24373 23.8984 3.09013 23.8988 1.93665 23.9028L1.94008 24.9028ZM5.39463 24.9013C5.88127 24.9026 6.22565 25.0496 6.44977 25.2683C6.67383 25.487 6.82863 25.827 6.84109 26.312L7.84076 26.2863C7.82302 25.5956 7.59452 24.9882 7.14821 24.5527C6.70197 24.1171 6.08893 23.9031 5.39714 23.9013L5.39463 24.9013ZM6.84109 26.312C6.84836 26.5938 6.84205 26.8642 6.84205 27.2067H7.84205C7.84205 26.8941 7.84845 26.5842 7.84076 26.2862L6.84109 26.312Z" fill="#FF713C"/>
</g>
<path d="M20.29 17L18.94 15.05H18.86H17.45V17H15.83V10H18.86C19.48 10 20.0167 10.1033 20.47 10.31C20.93 10.5167 21.2833 10.81 21.53 11.19C21.7767 11.57 21.9 12.02 21.9 12.54C21.9 13.06 21.7733 13.51 21.52 13.89C21.2733 14.2633 20.92 14.55 20.46 14.75L22.03 17H20.29ZM20.26 12.54C20.26 12.1467 20.1333 11.8467 19.88 11.64C19.6267 11.4267 19.2567 11.32 18.77 11.32H17.45V13.76H18.77C19.2567 13.76 19.6267 13.6533 19.88 13.44C20.1333 13.2267 20.26 12.9267 20.26 12.54ZM26.2535 11.54C26.7535 11.54 27.2068 11.6567 27.6135 11.89C28.0268 12.1167 28.3502 12.44 28.5835 12.86C28.8168 13.2733 28.9335 13.7567 28.9335 14.31C28.9335 14.8633 28.8168 15.35 28.5835 15.77C28.3502 16.1833 28.0268 16.5067 27.6135 16.74C27.2068 16.9667 26.7535 17.08 26.2535 17.08C25.5668 17.08 25.0268 16.8633 24.6335 16.43V18.94H23.0735V11.62H24.5635V12.24C24.9502 11.7733 25.5135 11.54 26.2535 11.54ZM25.9835 15.8C26.3835 15.8 26.7102 15.6667 26.9635 15.4C27.2235 15.1267 27.3535 14.7633 27.3535 14.31C27.3535 13.8567 27.2235 13.4967 26.9635 13.23C26.7102 12.9567 26.3835 12.82 25.9835 12.82C25.5835 12.82 25.2535 12.9567 24.9935 13.23C24.7402 13.4967 24.6135 13.8567 24.6135 14.31C24.6135 14.7633 24.7402 15.1267 24.9935 15.4C25.2535 15.6667 25.5835 15.8 25.9835 15.8Z" fill="#FF713C"/>
<circle cx="22" cy="13" r="11.5" stroke="#FF713C" stroke-width="3"/>
</svg>
