<svg width="31" height="36" viewBox="0 0 31 36" fill="none" xmlns="http://www.w3.org/2000/svg">
<path d="M29.3966 31.8086H1.02344V34.1542H29.3966V31.8086Z" fill="#FF713C" stroke="#FF713C" stroke-width="1.7878" stroke-linecap="round"/>
<path d="M6.3768 18.625H1V28.8971H6.3768V18.625Z" stroke="#FF713C" stroke-width="1.7878" stroke-linecap="round"/>
<path d="M14.0106 15.7139H8.63379V28.655H14.0106V15.7139Z" stroke="#FF713C" stroke-width="1.7878" stroke-linecap="round"/>
<path d="M21.6805 12.6396H16.3037V28.897H21.6805V12.6396Z" stroke="#FF713C" stroke-width="1.7878" stroke-linecap="round"/>
<path d="M29.2909 9H23.9141V28.8162H29.2909V9Z" stroke="#FF713C" stroke-width="1.7878" stroke-linecap="round"/>
<path d="M29.3966 2.69141L1.02344 13.8532" stroke="#FF713C" stroke-width="1.4416" stroke-linecap="round" stroke-linejoin="round"/>
<path d="M27.1641 1.39746L29.3975 2.69158V4.95629" stroke="#FF713C" stroke-width="1.4416" stroke-linecap="round" stroke-linejoin="round"/>
<path d="M13.2664 34.4773H6.566C5.9042 34.4773 5.3252 33.9111 5.3252 33.264C5.3252 32.617 5.9042 32.0508 6.566 32.0508H13.2664C13.9281 32.0508 14.5072 32.617 14.5072 33.264C14.5072 33.9111 14.0109 34.4773 13.2664 34.4773Z" fill="white" stroke="#FF713C" stroke-width="1.7878" stroke-linecap="round"/>
<path d="M13.2664 32.0515H6.566C5.9042 32.0515 5.3252 31.4853 5.3252 30.8382C5.3252 30.1912 5.9042 29.625 6.566 29.625H13.2664C13.9281 29.625 14.5072 30.1912 14.5072 30.8382C14.5072 31.4853 14.0109 32.0515 13.2664 32.0515Z" fill="white" stroke="#FF713C" stroke-width="1.7878" stroke-linecap="round"/>
<path d="M13.2664 29.6257H6.566C5.9042 29.6257 5.3252 29.0595 5.3252 28.4125C5.3252 27.7654 5.9042 27.1992 6.566 27.1992H13.2664C13.9281 27.1992 14.5072 27.7654 14.5072 28.4125C14.5072 29.0595 14.0109 29.6257 13.2664 29.6257Z" fill="white" stroke="#FF713C" stroke-width="1.7878" stroke-linecap="round"/>
<path d="M13.2664 27.1989H6.566C5.9042 27.1989 5.3252 26.6328 5.3252 25.9857C5.3252 25.3386 5.9042 24.7725 6.566 24.7725H13.2664C13.9281 24.7725 14.5072 25.3386 14.5072 25.9857C14.5072 26.7136 14.0109 27.1989 13.2664 27.1989Z" fill="white" stroke="#FF713C" stroke-width="1.7878" stroke-linecap="round"/>
<path d="M11.6121 24.8523H4.9117C4.2499 24.8523 3.6709 24.2861 3.6709 23.639C3.6709 22.992 4.2499 22.4258 4.9117 22.4258H11.6121C12.2738 22.4258 12.8529 22.992 12.8529 23.639C12.8529 24.2861 12.3566 24.8523 11.6121 24.8523Z" fill="white" stroke="#FF713C" stroke-width="1.7878" stroke-linecap="round"/>
<path d="M13.2664 22.4265H6.566C5.9042 22.4265 5.3252 21.8603 5.3252 21.2132C5.3252 20.5662 5.9042 20 6.566 20H13.2664C13.9281 20 14.5072 20.5662 14.5072 21.2132C14.5072 21.8603 14.0109 22.4265 13.2664 22.4265Z" fill="white" stroke="#FF713C" stroke-width="1.7878" stroke-linecap="round"/>
<path d="M16.6583 34.3964C19.902 34.3964 22.5315 31.8254 22.5315 28.6538C22.5315 25.4822 19.902 22.9111 16.6583 22.9111C13.4147 22.9111 10.7852 25.4822 10.7852 28.6538C10.7852 31.8254 13.4147 34.3964 16.6583 34.3964Z" fill="#FF713C" stroke="white" stroke-width="1.7878" stroke-linecap="round"/>
<path fill-rule="evenodd" clip-rule="evenodd" d="M14.1768 26.6328V29.8681H14.5904V28.4122H14.7558C14.8526 28.4122 14.9212 28.44 14.978 28.463C15.0181 28.4792 15.0524 28.4931 15.0867 28.4931C15.1694 28.4931 15.2521 28.574 15.3348 28.6549L15.3348 28.6549C15.4176 28.7358 15.5003 28.8166 15.583 28.9784L15.7484 29.221L15.9139 29.4637L15.9966 29.6255V29.7063L16.1621 29.949H16.7411L16.5757 29.7063C16.5757 29.661 16.5235 29.5901 16.4632 29.508C16.416 29.4439 16.3637 29.3729 16.3275 29.3019C16.2305 29.1124 16.1336 28.9783 16.0533 28.8673C15.9965 28.7888 15.9481 28.7219 15.9139 28.6549C15.8562 28.5421 15.7583 28.4686 15.6763 28.4071C15.6406 28.3803 15.608 28.3558 15.583 28.3313C15.7484 28.2505 15.9139 28.1696 15.9966 28.0078C16.0793 27.9269 16.1621 27.6843 16.1621 27.5225C16.1621 27.2799 15.9966 27.0372 15.8312 26.8755C15.6657 26.7137 15.3348 26.6328 15.004 26.6328H14.1768ZM14.6731 27.1181H14.8385H15.3348C15.4176 27.1181 15.5003 27.199 15.583 27.2799C15.6657 27.4416 15.6657 27.5225 15.6657 27.6034C15.6657 27.7652 15.6657 27.846 15.583 27.9269C15.5416 27.9674 15.5002 27.9876 15.4589 28.0078C15.4175 28.028 15.3761 28.0483 15.3348 28.0887C15.2521 28.1696 15.0867 28.1696 14.8385 28.1696H14.8385H14.6731V27.1181Z" fill="white"/>
<path fill-rule="evenodd" clip-rule="evenodd" d="M17.1543 27.8467V31.1629H17.5679V30.0305C17.7333 30.1114 17.8988 30.1114 18.0642 30.1114C18.3951 30.1114 18.6433 30.0305 18.8914 29.7879C19.1396 29.5452 19.2223 29.3026 19.2223 28.979C19.2223 28.6555 19.0569 28.4129 18.8914 28.1702C18.726 27.9276 18.3951 27.8467 17.9815 27.8467H17.1543ZM17.5679 28.2511H17.8988H18.3124L18.5605 28.4937C18.6433 28.6555 18.6433 28.7364 18.6433 28.8981C18.6433 29.1408 18.6433 29.3026 18.4778 29.4643C18.3951 29.6261 18.2297 29.707 17.9815 29.707C17.8161 29.707 17.7333 29.707 17.5679 29.6261V28.2511Z" fill="white"/>
</svg>
