<svg width="39" height="43" viewBox="0 0 39 43" fill="none" xmlns="http://www.w3.org/2000/svg">
<g clip-path="url(#clip0_30851_63686)">
<path d="M35.0186 4.65574C24.5912 6.95017 19.2836 2.11948 18.5615 1.40657C18.5615 1.40657 18.5469 1.3359 18.5192 1.36398C18.4912 1.3363 18.4767 1.40726 18.4767 1.40726C17.7656 2.12495 12.4847 6.99186 2.04286 4.76864C2.04286 4.76864 0.504319 23.5467 6.61275 31.1848C13.1372 39.3416 18.6289 41.796 18.6519 41.7758C18.6795 41.7971 24.2018 39.3512 30.6231 31.1024C36.6341 23.385 35.0186 4.65574 35.0186 4.65574Z" fill="#22424D"/>
<path d="M33.5033 6.59131C24.0367 8.63529 19.2149 4.33568 18.5648 3.7004C18.5648 3.7004 18.5519 3.6371 18.5262 3.66287C18.5015 3.63705 18.4886 3.70038 18.4886 3.70038C17.8427 4.3396 13.0502 8.67283 3.57208 6.69255C3.57208 6.69255 2.17457 23.4112 7.71768 30.2105C13.6411 37.4736 18.6187 40.1054 18.6449 40.085C18.6701 40.1043 23.6838 37.4801 29.5127 30.1354C34.9641 23.2657 33.5033 6.59131 33.5033 6.59131Z" fill="#B3E2DA"/>
<g opacity="0.06">
<path d="M18.4898 5.34912C18.4898 5.34912 18.5034 5.28144 18.5303 5.30815C18.556 5.28131 18.5702 5.34878 18.5702 5.34878C19.2379 6.00083 24.1061 10.3416 33.6439 8.49338C33.5917 6.78938 33.4988 5.7241 33.4988 5.7241C24.031 7.7671 19.2102 3.4674 18.5602 2.83319C18.5602 2.83319 18.5462 2.76891 18.5215 2.79459C18.4958 2.76993 18.4829 2.83325 18.4829 2.83325C17.8371 3.47248 13.0455 7.80455 3.56974 5.82622C3.56974 5.82622 3.48034 6.8929 3.43695 8.59529C12.9857 10.3818 17.8272 6.00585 18.4898 5.34912Z" fill="black"/>
</g>
<path opacity="0.34" d="M30.7069 11.2464C23.5578 12.8141 19.064 9.3389 18.5722 8.85019C18.5722 8.85019 18.5616 8.80171 18.5429 8.82153C18.5241 8.80166 18.5143 8.85077 18.5143 8.85077C18.0253 9.33943 13.5997 12.8434 6.44035 11.3192C6.44035 11.3192 6.19155 24.0286 10.3798 29.2658C14.8501 34.8581 18.6183 36.5465 18.6391 36.5265C18.6575 36.541 22.444 34.8648 26.8462 29.2091C30.9635 23.9175 30.7069 11.2464 30.7069 11.2464Z" fill="white"/>
<path d="M15.7029 19.4353C15.2833 19.4353 14.8677 19.3545 14.48 19.1976C14.0923 19.0406 13.7401 18.8105 13.4433 18.5205C13.1466 18.2305 12.9112 17.8861 12.7506 17.5072C12.5901 17.1282 12.5074 16.7221 12.5074 16.3119C12.5074 15.9017 12.5901 15.4956 12.7506 15.1166C12.9112 14.7377 13.1466 14.3933 13.4433 14.1033C13.7401 13.8133 14.0923 13.5832 14.48 13.4262C14.8677 13.2693 15.2833 13.1885 15.7029 13.1885C16.5504 13.1885 17.3632 13.5176 17.9625 14.1033C18.5617 14.6891 18.8984 15.4835 18.8984 16.3119C18.8984 17.1403 18.5617 17.9347 17.9625 18.5205C17.3632 19.1063 16.5504 19.4353 15.7029 19.4353ZM23.1591 22.2117C22.4058 22.2117 21.6833 21.9192 21.1506 21.3985C20.6179 20.8779 20.3186 20.1717 20.3186 19.4353C20.3186 18.699 20.6179 17.9928 21.1506 17.4721C21.6833 16.9515 22.4058 16.659 23.1591 16.659C23.9124 16.659 24.6349 16.9515 25.1676 17.4721C25.7003 17.9928 25.9995 18.699 25.9995 19.4353C25.9995 20.1717 25.7003 20.8779 25.1676 21.3985C24.6349 21.9192 23.9124 22.2117 23.1591 22.2117ZM23.1591 22.9058C24.0066 22.9058 24.8194 23.2349 25.4187 23.8206C26.0179 24.4064 26.3546 25.2009 26.3546 26.0292L26.3546 26.3763L19.9636 26.3763L19.9636 26.0292C19.9636 25.2009 20.3003 24.4064 20.8995 23.8206C21.4988 23.2349 22.3116 22.9058 23.1591 22.9058ZM15.7029 20.1294C16.1692 20.1294 16.6309 20.2192 17.0616 20.3936C17.4924 20.568 17.8838 20.8236 18.2135 21.1459C18.5432 21.4682 18.8048 21.8508 18.9832 22.2718C19.1616 22.6929 19.2535 23.1442 19.2535 23.5999L19.2535 26.3763L12.1523 26.3763L12.1523 23.5999C12.1523 22.6795 12.5264 21.7967 13.1923 21.1459C13.8581 20.4951 14.7612 20.1294 15.7029 20.1294Z" fill="#D26121"/>
</g>
<defs>
<clipPath id="clip0_30851_63686">
<rect width="33.7522" height="40.2879" fill="white" transform="translate(0.993408 2.83203) rotate(-4.8126)"/>
</clipPath>
</defs>
</svg>
