<svg width="31" height="28" viewBox="0 0 31 28" fill="none" xmlns="http://www.w3.org/2000/svg">
<path d="M28.8715 18.1884C28.3939 17.2331 27.2793 16.6758 26.2443 16.9942L26.4036 17.3923L26.2443 16.9942C24.4133 17.5515 22.5822 18.1088 20.8308 18.7457C20.7512 18.268 20.5123 17.9496 20.1939 17.6311C19.7958 17.2331 19.3182 16.9942 18.7609 16.9942C17.9648 16.9942 17.089 16.9146 16.2133 16.9942C15.1784 17.0739 14.223 16.835 13.2677 16.437C12.392 16.0389 11.5162 15.8001 10.5609 15.4816L10.4813 15.8797L10.5609 15.4816C9.52594 15.1632 8.41138 15.2428 7.37643 15.2428V15.6408V15.5612V15.2428C7.29682 15.2428 7.1376 15.2428 6.97838 15.2428C6.97838 15.1632 6.97838 15.004 6.97838 14.9243H6.58032H6.97838C6.97838 14.3671 6.81915 13.8894 6.4211 13.571C6.10265 13.2525 5.54537 13.0933 4.98809 13.0137V13.4117V13.0137C4.03275 13.0137 3.15703 13.0137 2.20169 13.0137C2.04247 13.0137 1.88324 13.0137 1.72402 13.0933C1.24635 13.1729 0.927907 13.4117 0.689073 13.7302C0.450239 14.0486 0.291016 14.5263 0.291016 15.004C0.291016 18.1884 0.291016 21.3729 0.291016 24.5573C0.291016 24.6369 0.291016 24.7962 0.291016 24.8758C0.370627 25.7515 1.08713 26.468 2.04247 26.5476C3.07742 26.5476 4.11236 26.5476 5.22693 26.5476C6.18226 26.5476 6.89877 25.7515 6.97838 24.8758C6.97838 24.7166 6.97838 24.5573 6.97838 24.3981C7.45605 24.3981 7.8541 24.3981 8.25216 24.5573C10.5609 25.3534 12.8696 26.2292 15.1784 27.0253C16.1337 27.3437 16.9298 27.2641 17.8055 26.7865C19.557 25.7515 21.2288 24.7962 22.9803 23.8408C24.6521 22.8855 26.2443 22.0098 27.9162 21.0544C28.9511 20.3379 29.2696 19.1438 28.8715 18.1884ZM22.0249 22.567L21.8657 22.2486C20.2735 23.2039 18.6016 24.0797 17.0094 25.035C16.6114 25.2738 16.2929 25.2738 15.8949 25.1146C13.6657 24.3185 11.357 23.5224 9.04827 22.6467C8.49099 22.4078 7.93371 22.3282 7.37643 22.3282V22.7263V22.3282C7.29682 22.3282 7.21721 22.3282 7.1376 22.3282V16.9942C8.49099 16.9942 9.76478 16.9942 11.0386 17.4719C12.0735 17.87 13.0288 18.1884 14.0638 18.5865C14.3026 18.6661 14.6211 18.7457 14.8599 18.7457C16.0541 18.7457 17.2483 18.7457 18.4424 18.7457C18.6016 18.7457 18.7609 18.8253 18.8405 18.9049C18.9201 18.9049 18.9201 18.9845 18.9201 18.9845C18.9201 18.9845 18.9201 19.0641 18.9201 19.1438C18.9201 19.2234 18.8405 19.303 18.6813 19.303C18.6016 19.303 18.6016 19.303 18.4424 19.303C17.1686 19.303 15.8152 19.303 14.5415 19.303C13.9842 19.303 13.5065 19.3826 13.0288 19.701C12.5512 19.9399 12.2327 20.3379 11.9939 20.8952L12.3123 21.0544L12.2327 20.9748L11.9939 20.8156C11.8347 21.2137 11.7551 21.6117 11.7551 21.9302C11.6755 22.4874 12.1531 22.8855 12.6308 22.9651C13.1085 22.9651 13.5065 22.6467 13.5861 22.169L13.2677 22.0894H13.1881L13.5861 22.169C13.6657 21.6913 13.7454 21.5321 13.9046 21.4525C14.0638 21.3729 14.223 21.2933 14.7007 21.2933C15.8949 21.2933 17.1686 21.2933 18.4424 21.2933C18.8405 21.2933 19.2385 21.2137 19.6366 21.134L19.557 20.736V20.8156L19.6366 21.134C21.9453 20.4175 24.2541 19.701 26.4832 18.9845C26.5628 18.9845 26.6424 18.9049 26.8016 18.9049C27.0405 18.8253 27.1201 18.9049 27.1997 19.0641C27.2793 19.2234 27.1997 19.3826 27.0405 19.4622C26.1647 19.9399 25.3686 20.4175 24.4929 20.8952C23.6172 21.3729 22.8211 21.8505 21.9453 22.3282L22.0249 22.567ZM6.73954 17.0739V16.7554V17.0739ZM19.0793 18.5865L18.9997 18.6661L19.0793 18.5865ZM1.96286 24.4777H2.12208H1.96286ZM5.14731 14.8447C5.14731 14.8447 5.22693 14.9243 5.14731 14.8447C5.14731 16.5166 5.14731 18.1088 5.14731 19.6214C5.14731 21.2137 5.14731 22.7263 5.14731 24.3185C5.14731 24.3981 5.14731 24.3981 5.14731 24.4777C5.14731 24.4777 5.0677 24.4777 4.98809 24.4777C4.11236 24.4777 3.23664 24.4777 2.36091 24.4777C2.36091 21.2933 2.36091 18.1088 2.36091 14.9243C3.31625 14.8447 4.19198 14.8447 5.14731 14.8447L5.0677 14.5263V14.4467L5.14731 14.8447ZM0.848296 24.4777H0.689073H0.848296Z" fill="#FF713C"/>
<path d="M26.2446 16.9941L26.4043 17.3134L26.2446 16.9941Z" fill="#FF713C"/>
<path d="M2.41949 9.28326C2.89716 10.2386 4.01172 10.7959 5.04667 10.4774L4.88745 10.0794L5.04667 10.4774C6.87773 9.92015 8.7088 9.36287 10.4602 8.72598C10.5399 9.20365 10.7787 9.5221 11.0971 9.84054C11.4952 10.2386 11.9729 10.4774 12.5301 10.4774C13.3263 10.4774 14.202 10.557 15.0777 10.4774C16.1127 10.3978 17.068 10.6367 18.0233 11.0347C18.8991 11.4328 19.7748 11.6716 20.7301 11.9901L20.8097 11.592L20.7301 11.9901C21.7651 12.3085 22.8796 12.2289 23.9146 12.2289L23.9146 11.8308L23.9146 11.9104L23.9146 12.2289C23.9942 12.2289 24.1534 12.2289 24.3126 12.2289C24.3126 12.3085 24.3126 12.4677 24.3126 12.5473L24.7107 12.5473L24.3126 12.5473C24.3126 13.1046 24.4719 13.5823 24.8699 13.9007C25.1884 14.2192 25.7456 14.3784 26.3029 14.458L26.3029 14.06L26.3029 14.458C27.2583 14.458 28.134 14.458 29.0893 14.458C29.2485 14.458 29.4078 14.458 29.567 14.3784C30.0447 14.2988 30.3631 14.06 30.6019 13.7415C30.8408 13.4231 31 12.9454 31 12.4677C31 9.28326 31 6.0988 31 2.91435C31 2.83474 31 2.67551 31 2.5959C30.9204 1.72017 30.2039 1.00367 29.2485 0.92406C28.2136 0.92406 27.1787 0.92406 26.0641 0.92406C25.1088 0.92406 24.3923 1.72017 24.3126 2.5959C24.3126 2.75512 24.3126 2.91435 24.3126 3.07357C23.835 3.07357 23.4369 3.07357 23.0389 2.91435C20.7301 2.11823 18.4214 1.24251 16.1127 0.446391C15.1573 0.127945 14.3612 0.207556 13.4855 0.685225C11.734 1.72017 10.0622 2.67551 8.31074 3.63085C6.6389 4.58619 5.04667 5.46191 3.37483 6.41725C2.33988 7.13375 2.02143 8.32792 2.41949 9.28326ZM9.26608 4.90463L9.4253 5.22308C11.0175 4.26774 12.6894 3.39202 14.2816 2.43668C14.6797 2.19784 14.9981 2.19784 15.3962 2.35706C17.6253 3.15318 19.934 3.9493 22.2427 4.82502C22.8 5.06386 23.3573 5.14347 23.9146 5.14347L23.9146 4.74541L23.9146 5.14347C23.9942 5.14347 24.0738 5.14347 24.1534 5.14347L24.1534 10.4774C22.8 10.4774 21.5262 10.4774 20.2525 9.99977C19.2175 9.60171 18.2622 9.28326 17.2272 8.8852C16.9884 8.80559 16.6699 8.72598 16.4311 8.72598C15.2369 8.72598 14.0428 8.72598 12.8486 8.72598C12.6894 8.72598 12.5301 8.64637 12.4505 8.56676C12.3709 8.56676 12.3709 8.48715 12.3709 8.48715C12.3709 8.48715 12.3709 8.40753 12.3709 8.32792C12.3709 8.24831 12.4505 8.1687 12.6098 8.1687C12.6894 8.1687 12.6894 8.1687 12.8486 8.1687C14.1224 8.1687 15.4758 8.1687 16.7496 8.1687C17.3068 8.1687 17.7845 8.08909 18.2622 7.77064C18.7398 7.53181 19.0583 7.13375 19.2971 6.57647L18.9787 6.41725L19.0583 6.49686L19.2971 6.65608C19.4563 6.25803 19.536 5.85997 19.536 5.54152C19.6156 4.98424 19.1379 4.58619 18.6602 4.50657C18.1826 4.50657 17.7845 4.82502 17.7049 5.30269L18.0233 5.3823L18.1029 5.3823L17.7049 5.30269C17.6253 5.78036 17.5457 5.93958 17.3864 6.01919C17.2272 6.0988 17.068 6.17841 16.5903 6.17841C15.3962 6.17841 14.1224 6.17841 12.8486 6.17841C12.4505 6.17841 12.0525 6.25803 11.6544 6.33764L11.734 6.73569L11.734 6.65608L11.6544 6.33764C9.34569 7.05414 7.03695 7.77064 4.80783 8.48715C4.72822 8.48715 4.64861 8.56676 4.48939 8.56676C4.25056 8.64637 4.17094 8.56676 4.09133 8.40753C4.01172 8.24831 4.09133 8.08909 4.25055 8.00948C5.12628 7.53181 5.92239 7.05414 6.79812 6.57647C7.67385 6.0988 8.46996 5.62113 9.34569 5.14346L9.26608 4.90463ZM24.5515 10.3978L24.5515 10.7163L24.5515 10.3978ZM12.2117 8.8852L12.2913 8.80559L12.2117 8.8852ZM29.3282 2.99396L29.1689 2.99396L29.3282 2.99396ZM26.1437 12.6269C26.1437 12.6269 26.0641 12.5473 26.1437 12.6269C26.1437 10.9551 26.1437 9.36287 26.1437 7.85026C26.1437 6.25803 26.1437 4.74541 26.1437 3.15318C26.1437 3.07357 26.1437 3.07357 26.1437 2.99396C26.1437 2.99396 26.2233 2.99396 26.3029 2.99396C27.1787 2.99396 28.0544 2.99396 28.9301 2.99396C28.9301 6.17841 28.9301 9.36287 28.9301 12.5473C27.9748 12.6269 27.099 12.6269 26.1437 12.6269L26.2233 12.9454L26.2233 13.025L26.1437 12.6269ZM30.4427 2.99396L30.6019 2.99396L30.4427 2.99396Z" fill="#FF713C"/>
<path d="M5.04639 10.4775L4.88674 10.1583L5.04639 10.4775Z" fill="#FF713C"/>
<path d="M15.4999 19C19.0898 19 22 16.3138 22 13.0001C22 9.68632 19.0898 7 15.4999 7C11.9102 7 9 9.68632 9 13.0001C9 16.3138 11.9102 19 15.4999 19Z" fill="#FF713C" stroke="white" stroke-width="1.7878" stroke-linecap="round"/>
<path d="M14.3826 14.915L13.6614 13.8244H13.6186H12.8654V14.915H12V11H13.6186C13.9499 11 14.2365 11.0578 14.4787 11.1734C14.7245 11.289 14.9132 11.453 15.045 11.6655C15.1768 11.8781 15.2426 12.1298 15.2426 12.4206C15.2426 12.7114 15.175 12.9631 15.0396 13.1756C14.9079 13.3844 14.7191 13.5447 14.4734 13.6566L15.3121 14.915H14.3826ZM14.3665 12.4206C14.3665 12.2006 14.2989 12.0328 14.1635 11.9172C14.0282 11.7979 13.8306 11.7383 13.5706 11.7383H12.8654V13.1029H13.5706C13.8306 13.1029 14.0282 13.0433 14.1635 12.9239C14.2989 12.8046 14.3665 12.6368 14.3665 12.4206Z" fill="white"/>
<path d="M17.5683 11.8613C17.8354 11.8613 18.0776 11.9265 18.2948 12.057C18.5157 12.1838 18.6884 12.3647 18.813 12.5996C18.9377 12.8307 19 13.101 19 13.4105C19 13.72 18.9377 13.9922 18.813 14.2271C18.6884 14.4582 18.5157 14.6391 18.2948 14.7696C18.0776 14.8963 17.8354 14.9597 17.5683 14.9597C17.2015 14.9597 16.913 14.8386 16.7029 14.5962V16H15.8695V11.906H16.6655V12.2528C16.8721 11.9918 17.173 11.8613 17.5683 11.8613ZM17.4241 14.2438C17.6378 14.2438 17.8123 14.1693 17.9476 14.0201C18.0865 13.8673 18.156 13.6641 18.156 13.4105C18.156 13.157 18.0865 12.9556 17.9476 12.8065C17.8123 12.6536 17.6378 12.5772 17.4241 12.5772C17.2104 12.5772 17.0341 12.6536 16.8952 12.8065C16.7599 12.9556 16.6922 13.157 16.6922 13.4105C16.6922 13.6641 16.7599 13.8673 16.8952 14.0201C17.0341 14.1693 17.2104 14.2438 17.4241 14.2438Z" fill="white"/>
</svg>
