<svg width="41" height="28" viewBox="0 0 41 28" fill="none" xmlns="http://www.w3.org/2000/svg">
<path d="M35.7177 1H31.5883H23.6353H21.953H18.5882H16.9059H5.28236C2.98824 1 1.15294 2.64237 1 4.73266V23.6946C1.15294 25.7848 2.98824 27.2779 4.97648 27.4272H35.8706C38.1647 27.2779 40 25.4863 40 23.2466V5.18057C40 2.94098 38.0118 1 35.7177 1Z" fill="white" stroke="#FF713C"/>
<path d="M38.3174 7.56934H2.68213V12.3472H38.3174V7.56934Z" fill="#FF713C"/>
<path d="M38.3174 5.92683H2.68213V5.1803C2.68213 3.83655 3.90566 2.64209 5.28213 2.64209H35.7174C37.0939 2.64209 38.3174 3.68724 38.3174 5.1803V5.92683Z" fill="#FF713C"/>
<path d="M26.2863 19.5138C25.8275 19.2152 25.2157 19.0659 24.7569 18.9166C24.451 18.7673 24.2981 18.7673 23.9922 18.7673C23.6863 18.618 23.3804 18.618 23.0745 18.618C22.7687 18.1701 22.6157 17.8715 22.6157 17.4235C23.2275 16.9756 23.8392 16.0798 24.1451 15.184C24.2981 15.184 24.451 15.184 24.451 15.0346C24.7569 14.8853 24.9098 14.4374 24.9098 14.1388C24.9098 13.8402 24.9098 13.5416 24.7569 13.3923C24.7569 13.0936 24.9098 12.7951 24.9098 12.4964C24.9098 10.2568 23.2275 8.91309 20.7804 8.91309C18.3333 8.91309 16.651 10.4062 16.651 12.4964C16.651 12.7951 16.651 13.0936 16.8039 13.3923C16.4981 13.5416 16.4981 13.8402 16.4981 14.1388C16.4981 14.5867 16.651 14.8853 16.9568 15.0346C17.1098 15.184 17.2628 15.184 17.2628 15.184C17.5687 16.0798 18.0275 16.8263 18.7922 17.4235C18.6393 17.8715 18.4862 18.1701 18.1804 18.4687C17.7216 18.618 17.4157 18.618 17.4157 18.618C17.2628 18.618 16.9568 18.7673 16.651 18.7673C16.0393 18.9166 15.5804 19.2152 15.1216 19.3645C14.2039 19.8124 13.7451 20.7083 13.7451 21.6041V22.3506C13.7451 22.9479 14.051 23.5451 14.6628 23.8437C15.7333 24.441 17.7216 25.0382 20.7804 25.0382C23.8392 25.0382 25.6745 24.441 26.8981 23.8437C27.5098 23.5451 27.8157 22.9479 27.8157 22.3506V21.6041C27.6627 20.7083 27.051 19.9617 26.2863 19.5138Z" fill="#FF713C"/>
<path d="M20.6273 9.36084C22.7684 9.36084 24.2978 10.5553 24.2978 12.4963C24.2978 12.6456 24.2978 12.7949 24.2978 13.0935C24.1449 13.0935 23.992 13.0935 23.992 13.0935C23.992 12.9442 23.839 12.6456 23.839 12.347C22.6155 12.347 22.1567 11.4512 22.1567 11.4512C20.1684 12.347 18.0273 12.0484 18.0273 12.0484C17.7214 12.4963 17.5684 12.7949 17.5684 12.9442C17.4155 12.9442 17.2625 12.9442 17.2625 12.9442C17.2625 12.7949 17.2625 12.6456 17.2625 12.4963C17.1096 10.5553 18.4861 9.36084 20.6273 9.36084Z" fill="white"/>
<path d="M17.7217 14.8858C17.7217 14.8858 17.7217 14.7365 17.5687 14.7365H17.4158C17.4158 14.7365 17.4158 14.7365 17.2629 14.7365C17.2629 14.7365 17.1099 14.4379 17.1099 14.1393C17.1099 13.6914 17.2629 13.3927 17.4158 13.3927C17.5687 13.3927 17.5687 13.3927 17.7217 13.3927C17.7217 13.3927 17.7217 13.3927 17.8746 13.3927C18.0275 13.3927 18.0275 13.3927 18.0275 13.3927C18.0275 13.3927 18.0275 13.3927 18.0275 13.2434C18.0275 13.2434 18.1805 12.7955 18.1805 12.497C18.3334 12.497 18.4863 12.497 18.6394 12.497C19.404 12.497 20.4746 12.3476 21.3923 11.6011C21.6982 11.8997 22.1569 12.3476 23.0746 12.497C23.2276 12.7955 23.2276 13.2434 23.2276 13.2434C23.2276 13.3927 23.2276 13.3927 23.3805 13.3927H23.5334C23.5334 13.3927 23.5334 13.3927 23.6863 13.3927C23.6863 13.3927 23.8393 13.2434 23.9922 13.3927C24.1452 13.3927 24.2982 13.6914 24.2982 14.1393C24.2982 14.4379 24.1452 14.7365 23.9922 14.7365C23.9922 14.7365 23.9922 14.7365 23.8393 14.7365H23.6863L23.5334 14.8858C23.2276 15.7816 22.7688 16.6775 22.1569 17.1254C21.2393 17.7226 20.1688 17.7226 19.2511 17.1254C18.4863 16.6775 18.0275 15.931 17.7217 14.8858Z" fill="white"/>
<path d="M19.2513 17.7227C19.7102 18.0212 20.1689 18.1706 20.6277 18.1706C21.0866 18.1706 21.5454 18.0212 22.0042 17.872C22.1572 18.1706 22.4631 18.4692 22.616 18.7678C22.4631 19.0664 22.0042 19.5143 21.5454 19.9622C21.0866 20.4101 20.3219 20.4101 19.8631 19.9622C19.2513 19.5143 18.7925 19.0664 18.7925 18.7678C18.9454 18.4692 19.0983 18.1706 19.2513 17.7227Z" fill="white"/>
<path d="M35.864 10.1606H31.2548C31.0164 10.1606 30.8574 10.3408 30.8574 10.611C30.8574 10.8812 31.0164 11.0613 31.2548 11.0613H35.864C36.1024 11.0613 36.2613 10.8812 36.2613 10.611C36.2613 10.3408 36.0229 10.1606 35.864 10.1606Z" fill="white"/>
<path d="M35.83 12.8623H28.5864C28.3277 12.8623 28.1553 13.0424 28.1553 13.3126C28.1553 13.5828 28.3277 13.763 28.5864 13.763H35.83C36.0887 13.763 36.2612 13.5828 36.2612 13.3126C36.2612 13.0424 36.0025 12.8623 35.83 12.8623Z" fill="white"/>
</svg>
