<svg width="45" height="24" viewBox="0 0 45 24" fill="none" xmlns="http://www.w3.org/2000/svg">
<mask id="path-1-inside-1" fill="white">
<path d="M3.05943 13.848H0V21.6914H1.29597V18.8108H2.43711C2.43711 18.8108 4.1556 18.8797 4.77071 17.2887C5.31668 15.8769 4.71896 13.848 3.05943 13.848ZM3.71654 16.5833C3.57782 17.5799 2.61019 17.6879 2.61019 17.6879H1.26161V14.9892H2.64498C3.33644 14.9892 3.84253 15.6724 3.71654 16.5833"/>
</mask>
<path d="M3.05943 13.848H0V21.6914H1.29597V18.8108H2.43711C2.43711 18.8108 4.1556 18.8797 4.77071 17.2887C5.31668 15.8769 4.71896 13.848 3.05943 13.848ZM3.71654 16.5833C3.57782 17.5799 2.61019 17.6879 2.61019 17.6879H1.26161V14.9892H2.64498C3.33644 14.9892 3.84253 15.6724 3.71654 16.5833" fill="#FF713C"/>
<path d="M0 13.848H-0.1V13.748H0V13.848ZM0 21.6914V21.7914H-0.1V21.6914H0ZM1.29597 21.6914H1.39597V21.7914H1.29597V21.6914ZM1.29597 18.8108H1.19597V18.7108H1.29597V18.8108ZM2.43711 18.8108V18.7107L2.44112 18.7109L2.43711 18.8108ZM4.77071 17.2887L4.67744 17.2527L4.67744 17.2527L4.77071 17.2887ZM2.61019 17.6879L2.62135 17.7879H2.61019V17.6879ZM1.26161 17.6879V17.7879H1.16161V17.6879H1.26161ZM1.26161 14.9892H1.16161V14.8892H1.26161V14.9892ZM3.05943 13.948H0V13.748H3.05943V13.948ZM0.1 13.848V21.6914H-0.1V13.848H0.1ZM0 21.5914H1.29597V21.7914H0V21.5914ZM1.19597 21.6914V18.8108H1.39597V21.6914H1.19597ZM1.29597 18.7108H2.43711V18.9108H1.29597V18.7108ZM2.43711 18.8108C2.44112 18.7109 2.44108 18.7109 2.44104 18.7109C2.44104 18.7109 2.44102 18.7109 2.44101 18.7109C2.441 18.7109 2.44102 18.7109 2.44106 18.7109C2.44115 18.7109 2.44133 18.7109 2.44162 18.7109C2.4422 18.7109 2.44318 18.711 2.44456 18.711C2.44732 18.7111 2.45165 18.7112 2.45747 18.7112C2.46912 18.7113 2.48673 18.7113 2.50962 18.7107C2.5554 18.7095 2.62218 18.7062 2.70452 18.6973C2.86942 18.6795 3.09539 18.6398 3.33949 18.5523C3.82639 18.3777 4.38299 18.0143 4.67744 17.2527L4.86399 17.3248C4.54333 18.1542 3.93313 18.5518 3.407 18.7405C3.14459 18.8346 2.90249 18.8771 2.72595 18.8962C2.63757 18.9057 2.56529 18.9094 2.51469 18.9106C2.48938 18.9113 2.46947 18.9113 2.45565 18.9112C2.44874 18.9111 2.44334 18.911 2.43956 18.9109C2.43767 18.9109 2.43617 18.9108 2.43509 18.9108C2.43456 18.9108 2.43412 18.9108 2.43379 18.9108C2.43362 18.9108 2.43348 18.9108 2.43337 18.9108C2.43331 18.9108 2.43324 18.9107 2.43322 18.9107C2.43316 18.9107 2.4331 18.9107 2.43711 18.8108ZM4.67744 17.2527C4.94117 16.5707 4.92844 15.7374 4.65 15.0778C4.37301 14.4217 3.83962 13.948 3.05943 13.948V13.748C3.93877 13.748 4.534 14.2888 4.83426 15.0001C5.13308 15.7079 5.14622 16.5949 4.86398 17.3248L4.67744 17.2527ZM3.81559 16.597C3.74117 17.1317 3.4418 17.432 3.16182 17.5957C3.02297 17.6769 2.88921 17.7245 2.79022 17.7519C2.7406 17.7656 2.69935 17.7743 2.67007 17.7797C2.65542 17.7824 2.64374 17.7842 2.63547 17.7854C2.63133 17.786 2.62804 17.7865 2.62566 17.7868C2.62447 17.7869 2.62351 17.7871 2.62277 17.7871C2.62241 17.7872 2.6221 17.7872 2.62185 17.7872C2.62173 17.7873 2.62162 17.7873 2.62152 17.7873C2.62148 17.7873 2.62142 17.7873 2.62139 17.7873C2.62134 17.7873 2.62128 17.7873 2.61019 17.6879C2.5991 17.5885 2.59905 17.5886 2.59901 17.5886C2.599 17.5886 2.59896 17.5886 2.59894 17.5886C2.59891 17.5886 2.59889 17.5886 2.59888 17.5886C2.59887 17.5886 2.59891 17.5886 2.59901 17.5886C2.59921 17.5885 2.59963 17.5885 2.60028 17.5884C2.60157 17.5882 2.60373 17.5879 2.60671 17.5875C2.61268 17.5866 2.62193 17.5852 2.63401 17.583C2.65819 17.5785 2.69362 17.5711 2.73688 17.5591C2.82366 17.5351 2.94048 17.4934 3.06087 17.423C3.29939 17.2835 3.5532 17.0314 3.6175 16.5695L3.81559 16.597ZM2.61019 17.7879H1.26161V17.5879H2.61019V17.7879ZM1.16161 17.6879V14.9892H1.36161V17.6879H1.16161ZM1.26161 14.8892H2.64498V15.0892H1.26161V14.8892ZM2.64498 14.8892C3.41848 14.8892 3.94668 15.6493 3.8156 16.597L3.61748 16.5696C3.73839 15.6955 3.2544 15.0892 2.64498 15.0892V14.8892Z" fill="white" mask="url(#path-1-inside-1)"/>
<mask id="path-3-inside-2" fill="white">
<path d="M9.52437 19.0107C9.52437 19.0107 9.85101 15.6412 7.46735 15.7314C4.61579 15.8408 4.89153 20.68 6.60323 21.5099C7.98617 22.1803 9.52437 21.365 9.52437 21.365V20.1696C6.39621 21.6184 6.65498 19.0281 6.65498 19.0281L9.52437 19.0107ZM7.62304 16.8192C8.53892 16.873 8.40062 18.0683 8.40062 18.0683H6.68934C6.68934 18.0683 6.67407 16.7623 7.62304 16.8192"/>
</mask>
<path d="M9.52437 19.0107C9.52437 19.0107 9.85101 15.6412 7.46735 15.7314C4.61579 15.8408 4.89153 20.68 6.60323 21.5099C7.98617 22.1803 9.52437 21.365 9.52437 21.365V20.1696C6.39621 21.6184 6.65498 19.0281 6.65498 19.0281L9.52437 19.0107ZM7.62304 16.8192C8.53892 16.873 8.40062 18.0683 8.40062 18.0683H6.68934C6.68934 18.0683 6.67407 16.7623 7.62304 16.8192" fill="#FF713C"/>
<path d="M9.52437 19.0107L9.6239 19.0204L9.6152 19.1102L9.52497 19.1107L9.52437 19.0107ZM7.46735 15.7314L7.46352 15.6315L7.46357 15.6315L7.46735 15.7314ZM6.60323 21.5099L6.55961 21.5999L6.5596 21.5999L6.60323 21.5099ZM9.52437 21.365H9.62437V21.4252L9.5712 21.4533L9.52437 21.365ZM9.52437 20.1696L9.48234 20.0789L9.62437 20.0131V20.1696H9.52437ZM6.65498 19.0281L6.55548 19.0181L6.56442 18.9286L6.65438 18.9281L6.65498 19.0281ZM8.40062 18.0683L8.49996 18.0798L8.48972 18.1683H8.40062V18.0683ZM6.68934 18.0683V18.1683H6.59051L6.58935 18.0695L6.68934 18.0683ZM9.52437 19.0107C9.42483 19.0011 9.42483 19.0011 9.42483 19.0011C9.42483 19.0011 9.42483 19.0011 9.42484 19.0011C9.42484 19.001 9.42485 19.0009 9.42487 19.0007C9.4249 19.0004 9.42494 18.9999 9.42501 18.9992C9.42514 18.9978 9.42534 18.9955 9.4256 18.9925C9.42611 18.9866 9.42685 18.9775 9.42772 18.9656C9.42947 18.9418 9.43176 18.9065 9.43386 18.8615C9.43804 18.7714 9.44144 18.6424 9.43818 18.4878C9.43166 18.1778 9.39846 17.7678 9.29296 17.3624C9.18723 16.9562 9.01093 16.5624 8.72382 16.2766C8.4398 15.9939 8.04059 15.8098 7.47114 15.8313L7.46357 15.6315C8.08595 15.6079 8.53978 15.8112 8.86492 16.1349C9.18696 16.4555 9.37594 16.8872 9.48651 17.312C9.5973 17.7377 9.63142 18.1645 9.63814 18.4835C9.6415 18.6434 9.638 18.7769 9.63364 18.8708C9.63146 18.9177 9.62906 18.9548 9.62719 18.9802C9.62625 18.993 9.62545 19.0028 9.62487 19.0096C9.62458 19.013 9.62435 19.0156 9.62418 19.0174C9.6241 19.0183 9.62403 19.019 9.62399 19.0195C9.62396 19.0197 9.62394 19.0199 9.62393 19.0201C9.62392 19.0202 9.62392 19.0202 9.62391 19.0203C9.62391 19.0203 9.6239 19.0204 9.52437 19.0107ZM7.47119 15.8313C6.79079 15.8574 6.30112 16.1637 5.96967 16.6223C5.63574 17.0843 5.45998 17.705 5.42391 18.356C5.38788 19.0062 5.49181 19.6781 5.70835 20.2361C5.92584 20.7965 6.25102 21.228 6.64686 21.4199L6.5596 21.5999C6.09958 21.3768 5.74841 20.8922 5.5219 20.3084C5.29443 19.7223 5.1867 19.0218 5.22422 18.3449C5.26169 17.6686 5.44469 17.0072 5.80758 16.5051C6.17293 15.9997 6.71814 15.6601 7.46352 15.6315L7.47119 15.8313ZM6.64685 21.4199C7.31056 21.7416 8.01562 21.7086 8.56135 21.5911C8.83348 21.5325 9.06357 21.4534 9.22545 21.389C9.30633 21.3568 9.36998 21.3284 9.41313 21.3082C9.43469 21.2981 9.45112 21.29 9.462 21.2846C9.46744 21.2818 9.47148 21.2798 9.47409 21.2784C9.4754 21.2778 9.47634 21.2773 9.47692 21.277C9.4772 21.2768 9.4774 21.2767 9.4775 21.2766C9.47756 21.2766 9.47758 21.2766 9.47759 21.2766C9.47759 21.2766 9.47758 21.2766 9.47758 21.2766C9.47756 21.2766 9.47754 21.2766 9.52437 21.365C9.5712 21.4533 9.57116 21.4534 9.57112 21.4534C9.5711 21.4534 9.57105 21.4534 9.57101 21.4534C9.57092 21.4535 9.57081 21.4536 9.57067 21.4536C9.5704 21.4538 9.57004 21.454 9.56958 21.4542C9.56867 21.4547 9.56738 21.4553 9.56573 21.4562C9.56244 21.4579 9.55768 21.4603 9.55151 21.4634C9.53918 21.4696 9.52121 21.4784 9.49802 21.4893C9.45164 21.511 9.38432 21.541 9.29938 21.5748C9.12963 21.6423 8.88874 21.7252 8.60345 21.7866C8.03434 21.9091 7.27884 21.9485 6.55961 21.5999L6.64685 21.4199ZM9.42437 21.365V20.1696H9.62437V21.365H9.42437ZM9.56639 20.2604C8.77636 20.6263 8.18733 20.7435 7.74697 20.702C7.30136 20.6601 7.01422 20.4561 6.83468 20.1995C6.65803 19.9469 6.58958 19.6497 6.56405 19.4213C6.55118 19.3062 6.54897 19.2064 6.54998 19.1351C6.55049 19.0994 6.55181 19.0708 6.55303 19.0507C6.55363 19.0407 6.55422 19.0329 6.55466 19.0274C6.55489 19.0246 6.55508 19.0225 6.55522 19.0209C6.55529 19.0201 6.55535 19.0195 6.55539 19.019C6.55541 19.0188 6.55543 19.0186 6.55545 19.0185C6.55545 19.0184 6.55546 19.0183 6.55546 19.0183C6.55547 19.0182 6.55548 19.0181 6.65498 19.0281C6.75449 19.038 6.75449 19.038 6.7545 19.0379C6.7545 19.0379 6.7545 19.0379 6.7545 19.0379C6.7545 19.0379 6.75449 19.038 6.75449 19.038C6.75447 19.0382 6.75444 19.0385 6.7544 19.039C6.75431 19.0399 6.75418 19.0414 6.75401 19.0435C6.75367 19.0478 6.75318 19.0543 6.75266 19.0629C6.75161 19.0801 6.75042 19.1057 6.74996 19.138C6.74904 19.2027 6.75106 19.2939 6.76281 19.3991C6.78651 19.611 6.84888 19.8708 6.99856 20.0848C7.14534 20.2946 7.38004 20.4666 7.7657 20.5029C8.15661 20.5397 8.7083 20.4374 9.48234 20.0789L9.56639 20.2604ZM6.65438 18.9281L9.52376 18.9107L9.52497 19.1107L6.65559 19.1281L6.65438 18.9281ZM7.6289 16.7194C7.88197 16.7342 8.06888 16.8292 8.20277 16.9675C8.33457 17.1036 8.40946 17.2758 8.45203 17.4386C8.49472 17.6018 8.50651 17.7616 8.50792 17.8795C8.50862 17.9387 8.50671 17.9881 8.50459 18.0229C8.50353 18.0403 8.50242 18.0542 8.50155 18.0638C8.50112 18.0687 8.50074 18.0725 8.50046 18.0752C8.50033 18.0765 8.50021 18.0776 8.50013 18.0783C8.50008 18.0787 8.50005 18.0791 8.50002 18.0793C8.50001 18.0794 8.5 18.0795 8.49999 18.0796C8.49998 18.0797 8.49997 18.0797 8.49997 18.0797C8.49997 18.0798 8.49996 18.0798 8.40062 18.0683C8.30129 18.0568 8.30128 18.0569 8.30128 18.0569C8.30128 18.0569 8.30128 18.0569 8.30128 18.0569C8.30128 18.0569 8.30128 18.0569 8.30128 18.0569C8.30128 18.0569 8.3013 18.0567 8.30132 18.0566C8.30136 18.0562 8.30143 18.0555 8.30152 18.0546C8.30171 18.0528 8.302 18.0499 8.30236 18.0459C8.30307 18.038 8.30403 18.0261 8.30496 18.0108C8.30683 17.98 8.30857 17.9356 8.30793 17.8819C8.30664 17.774 8.29577 17.6316 8.25854 17.4892C8.2212 17.3465 8.15894 17.2097 8.05908 17.1066C7.9613 17.0056 7.82205 16.931 7.61718 16.919L7.6289 16.7194ZM8.40062 18.1683H6.68934V17.9683H8.40062V18.1683ZM6.68934 18.0683C6.58935 18.0695 6.58935 18.0695 6.58935 18.0694C6.58935 18.0694 6.58935 18.0693 6.58935 18.0693C6.58935 18.0692 6.58935 18.0691 6.58935 18.069C6.58934 18.0687 6.58934 18.0684 6.58934 18.068C6.58933 18.0671 6.58933 18.066 6.58933 18.0646C6.58933 18.0617 6.58935 18.0576 6.58941 18.0524C6.58954 18.042 6.58987 18.0271 6.59062 18.0083C6.59214 17.9707 6.5954 17.9176 6.60239 17.8542C6.6163 17.7279 6.64528 17.5581 6.70622 17.3886C6.76695 17.2196 6.86174 17.0444 7.0113 16.9148C7.16351 16.7829 7.36629 16.7036 7.62903 16.7194L7.61706 16.919C7.40531 16.9063 7.25414 16.969 7.14231 17.0659C7.02783 17.1651 6.94851 17.3058 6.89444 17.4562C6.84057 17.6061 6.81406 17.7592 6.80118 17.8761C6.79478 17.9342 6.79182 17.9827 6.79046 18.0163C6.78978 18.0332 6.78951 18.0462 6.7894 18.0549C6.78934 18.0593 6.78933 18.0625 6.78933 18.0646C6.78933 18.0656 6.78933 18.0663 6.78934 18.0668C6.78934 18.067 6.78934 18.0671 6.78934 18.0672C6.78934 18.0672 6.78934 18.0672 6.78934 18.0672C6.78934 18.0672 6.78934 18.0672 6.78934 18.0672C6.78934 18.0672 6.78934 18.0672 6.68934 18.0683Z" fill="white" mask="url(#path-3-inside-2)"/>
<path d="M13.7244 19.9347H13.7236V17.2893V17.2787L13.7193 17.269L13.6736 17.2893L13.7193 17.2689L13.7192 17.2689L13.7191 17.2687L13.7189 17.2681L13.7181 17.2665L13.7156 17.2612C13.7133 17.2568 13.7101 17.2506 13.7057 17.2429C13.697 17.2276 13.6839 17.2062 13.6654 17.1811C13.6284 17.1307 13.5702 17.0647 13.4842 17.0003C13.3114 16.8708 13.0302 16.7501 12.5923 16.769C12.5923 16.769 12.5923 16.769 12.5922 16.769L12.5944 16.819C11.7409 16.8546 11.7718 18.3766 11.7718 18.3766L13.7244 19.9347ZM13.7244 19.9347L13.7228 19.9436L13.6736 19.9347L13.7228 19.9437L13.7228 19.9438L13.7227 19.944L13.7226 19.9447L13.7222 19.9466L13.7208 19.9533C13.7195 19.9588 13.7175 19.9667 13.7147 19.9765C13.7091 19.9961 13.7001 20.0235 13.6861 20.0561C13.6583 20.1214 13.6106 20.2079 13.5313 20.2942C13.3713 20.4683 13.0877 20.636 12.5944 20.636C12.3307 20.636 12.1452 20.4828 12.0174 20.2662C11.8905 20.051 11.8165 19.7674 11.7734 19.489C11.7301 19.2096 11.7173 18.9308 11.7153 18.7223C11.7142 18.618 11.7159 18.531 11.7178 18.47C11.7188 18.4395 11.7198 18.4155 11.7206 18.399L11.7216 18.3802L11.7218 18.3755L13.7244 19.9347ZM14.7635 21.7453V15.7794H13.7406V16.2206V16.3079L13.6653 16.2638C12.9857 15.8652 12.4117 15.7786 11.947 15.901C11.4822 16.0234 11.1171 16.3575 10.8603 16.82C10.3457 17.7472 10.2758 19.1764 10.7124 20.3696C10.9301 20.9643 11.2201 21.3104 11.5281 21.4992C11.8361 21.6879 12.1681 21.723 12.4765 21.6844C12.7855 21.6458 13.0689 21.5334 13.2758 21.4299C13.3791 21.3782 13.4629 21.329 13.5207 21.2928C13.5496 21.2747 13.5719 21.2599 13.587 21.2497L13.604 21.238L13.6082 21.235L13.6092 21.2343L13.6094 21.2341L13.6094 21.2341L13.6094 21.2341L13.6908 21.1749L13.6888 21.2756C13.6755 21.9449 13.4868 22.3547 13.1995 22.5847C12.9131 22.814 12.5401 22.8553 12.1785 22.8139C11.8162 22.7724 11.4574 22.647 11.1904 22.5329C11.0566 22.4758 10.9452 22.4212 10.8672 22.3808C10.8493 22.3716 10.8332 22.3631 10.819 22.3555V23.6003C10.8195 23.6006 10.8201 23.6009 10.8206 23.6012C10.8379 23.6108 10.8642 23.6249 10.8996 23.6418C10.9704 23.6758 11.0777 23.7214 11.2219 23.7671C11.5102 23.8585 11.9464 23.9504 12.5341 23.95L12.5342 23.95C13.0954 23.9502 13.5129 23.8117 13.8244 23.6063C14.1361 23.4008 14.3445 23.1264 14.4839 22.8504C14.6235 22.5743 14.6935 22.2976 14.7285 22.0894C14.7461 21.9855 14.7548 21.899 14.7591 21.8386C14.7613 21.8085 14.7624 21.7849 14.7629 21.769L14.7634 21.751L14.7635 21.7466L14.7635 21.7455L14.7635 21.7453V21.7453V21.7453ZM12.5342 24C14.8135 24.0009 14.8135 21.7453 14.8135 21.7453L12.5342 24Z" fill="#FF713C" stroke="white" stroke-width="0.1"/>
<path d="M24.1677 21.0895L24.1677 21.0895L24.1677 21.0895L24.2471 21.0318V21.13V21.5529H25.3226V13.9887H24.2984V16.0756V16.1629L24.2231 16.1187C23.5439 15.7203 22.9701 15.6337 22.5055 15.7561C22.0408 15.8786 21.6757 16.2127 21.419 16.6752C20.9043 17.6023 20.8343 19.0313 21.2712 20.2246L21.2712 20.2246C21.4887 20.8193 21.7786 21.1654 22.0866 21.3542C22.3945 21.543 22.7264 21.5781 23.0349 21.5396C23.3438 21.501 23.6272 21.3887 23.8341 21.2852C23.9374 21.2336 24.0212 21.1844 24.079 21.1482C24.1079 21.1301 24.1303 21.1153 24.1453 21.1051L24.1623 21.0934L24.1665 21.0904L24.1675 21.0897L24.1677 21.0895ZM24.2815 19.7897H24.2823L24.2807 19.7985L24.2315 19.7897L24.2807 19.7986L24.2807 19.7987L24.2806 19.7989L24.2805 19.7995L24.2801 19.8015L24.2787 19.8081C24.2774 19.8137 24.2755 19.8216 24.2727 19.8314C24.2671 19.851 24.2581 19.8784 24.2442 19.9111C24.2165 19.9764 24.169 20.0629 24.0898 20.1493C23.93 20.3235 23.6466 20.4914 23.1531 20.4914C22.8894 20.4914 22.7039 20.3381 22.5761 20.1214C22.4491 19.906 22.3751 19.6223 22.3319 19.3437C22.2886 19.0642 22.2757 18.7852 22.2736 18.5766C22.2726 18.4722 22.2742 18.3852 22.2761 18.3241C22.2771 18.2936 22.2781 18.2696 22.2789 18.2531L22.2799 18.2343L22.2801 18.2296L22.2801 18.2269L22.28 18.2137C22.28 18.2022 22.2801 18.1855 22.2805 18.1643C22.2813 18.1219 22.2835 18.0615 22.2888 17.9889C22.2994 17.844 22.3225 17.6497 22.373 17.4535C22.4233 17.2579 22.5018 17.0568 22.6251 16.9013C22.7495 16.7444 22.9204 16.6335 23.151 16.6235L23.151 16.6235C23.5889 16.6049 23.87 16.7258 24.0426 16.8555C24.1284 16.92 24.1865 16.986 24.2234 17.0364C24.2419 17.0617 24.255 17.083 24.2637 17.0984C24.268 17.106 24.2713 17.1122 24.2735 17.1167L24.2761 17.122L24.2768 17.1236L24.277 17.1241L24.2771 17.1243L24.2772 17.1244L24.2315 17.1447L24.2772 17.1245L24.2815 17.1341V17.1447V19.7897Z" fill="#FF713C" stroke="white" stroke-width="0.1"/>
<mask id="path-7-inside-3" fill="white">
<path d="M19.7208 20.5864V17.7973C19.7208 17.7973 19.9482 14.8181 16.143 16.0219V17.199C16.143 17.199 16.5918 16.8909 17.4568 16.8909C18.3205 16.8909 18.5801 17.2897 18.5801 17.8867C18.5801 17.8867 15.849 17.3444 15.6068 19.6266C15.365 21.9084 17.6295 22.072 18.5801 21.2029C18.5801 21.2029 18.9628 22.0573 20.3606 21.6034V20.5864C20.3606 20.5864 20.0152 20.7135 19.7208 20.5864ZM16.9206 19.7351C16.955 18.4855 18.5407 18.7526 18.5407 18.7526C18.5407 18.7526 18.5458 19.5448 18.5458 20.2525C18.2857 20.7055 16.8858 20.9847 16.9206 19.7351"/>
</mask>
<path d="M19.7208 20.5864V17.7973C19.7208 17.7973 19.9482 14.8181 16.143 16.0219V17.199C16.143 17.199 16.5918 16.8909 17.4568 16.8909C18.3205 16.8909 18.5801 17.2897 18.5801 17.8867C18.5801 17.8867 15.849 17.3444 15.6068 19.6266C15.365 21.9084 17.6295 22.072 18.5801 21.2029C18.5801 21.2029 18.9628 22.0573 20.3606 21.6034V20.5864C20.3606 20.5864 20.0152 20.7135 19.7208 20.5864ZM16.9206 19.7351C16.955 18.4855 18.5407 18.7526 18.5407 18.7526C18.5407 18.7526 18.5458 19.5448 18.5458 20.2525C18.2857 20.7055 16.8858 20.9847 16.9206 19.7351" fill="#FF713C"/>
<path d="M19.7208 20.5864L19.6812 20.6782L19.6208 20.6521V20.5864H19.7208ZM19.7208 17.7973H19.6206L19.6211 17.7897L19.7208 17.7973ZM16.143 16.0219H16.043V15.9486L16.1129 15.9265L16.143 16.0219ZM16.143 17.199L16.1996 17.2814L16.043 17.3889V17.199H16.143ZM18.5801 17.8867H18.6801V18.0085L18.5607 17.9848L18.5801 17.8867ZM15.6068 19.6266L15.5074 19.6161L15.5074 19.616L15.6068 19.6266ZM18.5801 21.2029L18.5127 21.1291L18.6148 21.0357L18.6714 21.162L18.5801 21.2029ZM20.3606 21.6034H20.4606V21.6761L20.3914 21.6986L20.3606 21.6034ZM20.3606 20.5864L20.326 20.4925L20.4606 20.443V20.5864H20.3606ZM18.5407 18.7526L18.5573 18.654L18.6401 18.668L18.6407 18.752L18.5407 18.7526ZM18.5458 20.2525H18.6458V20.2792L18.6325 20.3023L18.5458 20.2525ZM19.6208 20.5864V17.7973H19.8208V20.5864H19.6208ZM19.7208 17.7973C19.6211 17.7897 19.6211 17.7898 19.6211 17.7898C19.6211 17.7898 19.6211 17.7898 19.6211 17.7898C19.6211 17.7898 19.6211 17.7898 19.6211 17.7897C19.6212 17.7895 19.6212 17.7891 19.6212 17.7886C19.6213 17.7875 19.6214 17.7857 19.6215 17.7832C19.6218 17.7783 19.6222 17.7708 19.6225 17.7608C19.6232 17.7407 19.6238 17.711 19.6232 17.6732C19.622 17.5976 19.6163 17.4903 19.598 17.3651C19.5612 17.1137 19.4744 16.7957 19.2771 16.5158C19.0816 16.2383 18.7746 15.9938 18.2864 15.8892C17.7953 15.784 17.1146 15.8194 16.1732 16.1172L16.1129 15.9265C17.0741 15.6224 17.7919 15.5788 18.3283 15.6937C18.8677 15.8092 19.2173 16.0837 19.4406 16.4006C19.6622 16.715 19.7564 17.0666 19.7959 17.3362C19.8157 17.4714 19.8219 17.5875 19.8232 17.6701C19.8238 17.7115 19.8232 17.7446 19.8224 17.7676C19.822 17.7791 19.8216 17.7881 19.8212 17.7944C19.821 17.7976 19.8209 17.8001 19.8208 17.8018C19.8207 17.8027 19.8207 17.8034 19.8206 17.8039C19.8206 17.8042 19.8206 17.8044 19.8206 17.8046C19.8206 17.8047 19.8206 17.8048 19.8206 17.8048C19.8206 17.8049 19.8206 17.805 19.7208 17.7973ZM16.243 16.0219V17.199H16.043V16.0219H16.243ZM16.143 17.199C16.0864 17.1166 16.0865 17.1165 16.0865 17.1165C16.0865 17.1165 16.0866 17.1165 16.0866 17.1164C16.0867 17.1164 16.0867 17.1163 16.0868 17.1163C16.087 17.1162 16.0871 17.1161 16.0873 17.1159C16.0878 17.1157 16.0883 17.1153 16.0889 17.1149C16.0902 17.114 16.0919 17.1129 16.0941 17.1115C16.0984 17.1087 16.1045 17.1049 16.1123 17.1001C16.128 17.0907 16.1508 17.0776 16.1806 17.0621C16.2401 17.0312 16.3276 16.9908 16.4426 16.9506C16.6726 16.8701 17.0122 16.7909 17.4568 16.7909V16.9909C17.0364 16.9909 16.7191 17.0658 16.5086 17.1394C16.4032 17.1762 16.3244 17.2128 16.2728 17.2396C16.2469 17.253 16.2279 17.264 16.2157 17.2714C16.2096 17.2751 16.2052 17.2779 16.2025 17.2796C16.2011 17.2804 16.2002 17.281 16.1998 17.2814C16.1995 17.2815 16.1994 17.2816 16.1994 17.2816C16.1993 17.2816 16.1994 17.2816 16.1994 17.2816C16.1994 17.2816 16.1995 17.2816 16.1995 17.2815C16.1995 17.2815 16.1995 17.2815 16.1995 17.2815C16.1996 17.2815 16.1996 17.2814 16.143 17.199ZM17.4568 16.7909C17.9019 16.7909 18.214 16.8935 18.4134 17.0945C18.6128 17.2956 18.6801 17.5759 18.6801 17.8867H18.4801C18.4801 17.6005 18.4177 17.3829 18.2714 17.2354C18.125 17.0878 17.8755 16.9909 17.4568 16.9909V16.7909ZM18.5801 17.8867C18.5607 17.9848 18.5607 17.9848 18.5607 17.9848C18.5607 17.9848 18.5607 17.9848 18.5607 17.9848C18.5607 17.9848 18.5606 17.9848 18.5605 17.9847C18.5603 17.9847 18.5599 17.9846 18.5593 17.9845C18.5582 17.9843 18.5565 17.984 18.5541 17.9835C18.5494 17.9827 18.5422 17.9814 18.5326 17.9797C18.5135 17.9765 18.4851 17.9719 18.4486 17.9669C18.3757 17.9568 18.2707 17.9449 18.1438 17.9374C17.8894 17.9226 17.5499 17.9262 17.2049 17.9987C16.8597 18.0711 16.5144 18.2113 16.2417 18.4651C15.9708 18.7173 15.7645 19.0883 15.7063 19.6372L15.5074 19.616C15.5702 19.0237 15.7961 18.6067 16.1054 18.3187C16.413 18.0324 16.7959 17.8802 17.1638 17.8029C17.5318 17.7257 17.8902 17.7223 18.1554 17.7378C18.2884 17.7456 18.3986 17.7581 18.476 17.7688C18.5147 17.7741 18.5452 17.779 18.5662 17.7826C18.5767 17.7844 18.5848 17.7858 18.5905 17.7869C18.5933 17.7874 18.5955 17.7878 18.597 17.7881C18.5978 17.7882 18.5984 17.7884 18.5988 17.7884C18.599 17.7885 18.5992 17.7885 18.5993 17.7886C18.5994 17.7886 18.5995 17.7886 18.5995 17.7886C18.5996 17.7886 18.5996 17.7886 18.5801 17.8867ZM15.7063 19.6371C15.6475 20.1912 15.7419 20.6064 15.9215 20.9064C16.1009 21.206 16.3703 21.3993 16.6778 21.5014C17.2989 21.7077 18.0646 21.5387 18.5127 21.1291L18.6476 21.2767C18.145 21.7362 17.3032 21.9199 16.6148 21.6912C16.2676 21.5759 15.9568 21.3548 15.7499 21.0091C15.5432 20.6638 15.4452 20.2029 15.5074 19.6161L15.7063 19.6371ZM18.5801 21.2029C18.6714 21.162 18.6714 21.162 18.6713 21.1619C18.6713 21.1619 18.6713 21.1618 18.6713 21.1618C18.6713 21.1617 18.6712 21.1617 18.6712 21.1616C18.6712 21.1616 18.6712 21.1615 18.6712 21.1615C18.6712 21.1616 18.6713 21.1618 18.6715 21.1622C18.6719 21.163 18.6726 21.1646 18.6738 21.1669C18.6761 21.1714 18.68 21.1786 18.6855 21.1881C18.6967 21.2071 18.7145 21.2348 18.7402 21.2673C18.7916 21.3323 18.8739 21.4158 18.9964 21.4869C19.2378 21.627 19.6526 21.7282 20.3297 21.5083L20.3914 21.6986C19.6707 21.9326 19.1953 21.8335 18.896 21.6599C18.7481 21.5741 18.6474 21.4724 18.5833 21.3913C18.5513 21.3508 18.5283 21.3154 18.5131 21.2894C18.5054 21.2764 18.4997 21.2657 18.4957 21.2579C18.4938 21.2541 18.4922 21.2509 18.4911 21.2485C18.4905 21.2473 18.49 21.2463 18.4897 21.2455C18.4895 21.2451 18.4893 21.2448 18.4892 21.2445C18.4891 21.2444 18.4891 21.2442 18.489 21.2441C18.489 21.2441 18.4889 21.244 18.4889 21.2439C18.4889 21.2439 18.4889 21.2438 18.5801 21.2029ZM20.2606 21.6034V20.5864H20.4606V21.6034H20.2606ZM20.3606 20.5864C20.3951 20.6802 20.3951 20.6802 20.395 20.6802C20.395 20.6802 20.395 20.6802 20.395 20.6802C20.3949 20.6803 20.3949 20.6803 20.3948 20.6803C20.3947 20.6803 20.3946 20.6804 20.3944 20.6804C20.3941 20.6806 20.3937 20.6807 20.3932 20.6809C20.3922 20.6812 20.3909 20.6817 20.3893 20.6822C20.3861 20.6834 20.3815 20.6849 20.3758 20.6867C20.3644 20.6904 20.3482 20.6954 20.3279 20.7008C20.2876 20.7116 20.2308 20.7246 20.1639 20.7332C20.0319 20.7502 19.8516 20.7517 19.6812 20.6782L19.7605 20.4945C19.8845 20.5481 20.024 20.5496 20.1383 20.5348C20.1945 20.5276 20.2425 20.5167 20.2761 20.5077C20.2928 20.5032 20.3059 20.4992 20.3145 20.4964C20.3188 20.495 20.3219 20.4939 20.3239 20.4932C20.3249 20.4929 20.3256 20.4927 20.3259 20.4925C20.3261 20.4925 20.3262 20.4924 20.3262 20.4924C20.3262 20.4924 20.3262 20.4924 20.3262 20.4925C20.3261 20.4925 20.3261 20.4925 20.3261 20.4925C20.3261 20.4925 20.3261 20.4925 20.3261 20.4925C20.326 20.4925 20.326 20.4925 20.3606 20.5864ZM16.8206 19.7323C16.8299 19.3966 16.9445 19.1536 17.1182 18.983C17.2896 18.8148 17.5106 18.7248 17.7218 18.6777C17.9333 18.6305 18.1418 18.6248 18.2961 18.6305C18.3735 18.6334 18.4381 18.6391 18.4836 18.6442C18.5064 18.6468 18.5244 18.6492 18.5369 18.6509C18.5432 18.6518 18.5481 18.6526 18.5515 18.6531C18.5532 18.6534 18.5546 18.6536 18.5555 18.6537C18.556 18.6538 18.5564 18.6539 18.5567 18.6539C18.5569 18.654 18.557 18.654 18.5571 18.654C18.5571 18.654 18.5572 18.654 18.5572 18.654C18.5573 18.654 18.5573 18.654 18.5407 18.7526C18.5241 18.8513 18.5241 18.8513 18.5241 18.8513C18.5241 18.8513 18.5241 18.8513 18.5241 18.8513C18.5241 18.8513 18.5241 18.8513 18.5241 18.8513C18.524 18.8512 18.5238 18.8512 18.5235 18.8512C18.523 18.8511 18.522 18.8509 18.5207 18.8507C18.5182 18.8503 18.5142 18.8497 18.5088 18.849C18.4981 18.8474 18.482 18.8453 18.4613 18.843C18.42 18.8384 18.3604 18.833 18.2887 18.8304C18.1445 18.825 17.9545 18.8307 17.7653 18.8729C17.5757 18.9152 17.3939 18.9926 17.2583 19.1258C17.125 19.2566 17.0285 19.4488 17.0206 19.7378L16.8206 19.7323ZM18.5407 18.7526C18.6407 18.752 18.6407 18.752 18.6407 18.752C18.6407 18.752 18.6407 18.752 18.6407 18.752C18.6407 18.7521 18.6407 18.7521 18.6407 18.7522C18.6407 18.7522 18.6407 18.7524 18.6407 18.7526C18.6407 18.753 18.6407 18.7535 18.6407 18.7543C18.6407 18.7558 18.6407 18.7581 18.6407 18.7611C18.6408 18.7671 18.6408 18.7759 18.6409 18.7875C18.641 18.8105 18.6412 18.8442 18.6415 18.8869C18.642 18.9723 18.6426 19.0934 18.6432 19.2367C18.6445 19.5233 18.6458 19.8984 18.6458 20.2525H18.4458C18.4458 19.8989 18.4445 19.5241 18.4432 19.2376C18.4426 19.0944 18.442 18.9733 18.4415 18.888C18.4412 18.8454 18.441 18.8117 18.4409 18.7887C18.4408 18.7772 18.4408 18.7683 18.4407 18.7623C18.4407 18.7594 18.4407 18.7571 18.4407 18.7556C18.4407 18.7548 18.4407 18.7542 18.4407 18.7539C18.4407 18.7537 18.4407 18.7535 18.4407 18.7534C18.4407 18.7534 18.4407 18.7533 18.4407 18.7533C18.4407 18.7533 18.4407 18.7533 18.4407 18.7533C18.4407 18.7533 18.4407 18.7533 18.5407 18.7526ZM18.6325 20.3023C18.5523 20.442 18.3938 20.5559 18.216 20.6307C18.0358 20.7064 17.8216 20.7482 17.6148 20.7319C17.4074 20.7156 17.2012 20.6401 17.0495 20.4743C16.8972 20.3079 16.8114 20.0634 16.8206 19.7323L17.0206 19.7379C17.0124 20.0316 17.0885 20.2207 17.1971 20.3393C17.3062 20.4585 17.4597 20.5191 17.6305 20.5326C17.8018 20.5461 17.9841 20.5112 18.1385 20.4463C18.2953 20.3804 18.4092 20.2895 18.459 20.2027L18.6325 20.3023Z" fill="white" mask="url(#path-7-inside-3)"/>
<path d="M32.2854 21.553H33.3095V15.9625H32.2854V21.553Z" fill="#FF713C" stroke="white" stroke-width="0.1"/>
<path d="M32.7983 15.2508C33.1498 15.2508 33.4393 14.9509 33.4393 14.5757C33.4393 14.201 33.1498 13.9012 32.7983 13.9012C32.4454 13.9012 32.156 14.2011 32.156 14.5757C32.156 14.9509 32.4454 15.2508 32.7983 15.2508Z" fill="#FF713C" stroke="white" stroke-width="0.1"/>
<path d="M41.364 16.3837V15.963H40.3059V21.553H41.3805V17.7787C41.3805 17.6986 41.4255 17.6072 41.4922 17.5196C41.5602 17.4301 41.6564 17.3374 41.771 17.2535C41.9996 17.0862 42.3081 16.9494 42.6243 16.9494C42.9458 16.9494 43.1211 17.1006 43.2135 17.2547C43.2589 17.3304 43.2837 17.4057 43.2973 17.4618C43.3041 17.4899 43.3081 17.5135 43.3104 17.5303C43.3116 17.5387 43.3123 17.5454 43.3128 17.5501L43.3133 17.5558L43.3134 17.5574L43.3134 17.5579L43.3134 17.5581L43.3134 17.5582L43.2635 17.5613L43.3135 17.5582V17.5613V21.553H44.4752V17.3075C44.4752 17.212 44.445 17.0702 44.3809 16.9097C44.3172 16.7499 44.2213 16.5748 44.0927 16.4124C43.8357 16.0877 43.4515 15.8176 42.9356 15.8176C42.4096 15.8176 42.0383 15.9686 41.7991 16.1181C41.6794 16.1929 41.5926 16.2676 41.5359 16.3232C41.5076 16.3509 41.4869 16.3739 41.4734 16.3897C41.4667 16.3976 41.4617 16.4037 41.4586 16.4078L41.4552 16.4122L41.4544 16.4131L41.4544 16.4132L41.4543 16.4132L41.4543 16.4133L41.4543 16.4133L41.364 16.5372V16.3837Z" fill="#FF713C" stroke="white" stroke-width="0.1"/>
<mask id="path-12-inside-4" fill="white">
<path d="M30.5763 20.5864V17.7973C30.5763 17.7973 30.8033 14.8181 26.9981 16.0219V17.199C26.9981 17.199 27.4473 16.8909 28.3119 16.8909C29.176 16.8909 29.4356 17.2897 29.4356 17.8867C29.4356 17.8867 26.7045 17.3444 26.4623 19.6266C26.2205 21.9084 28.4849 22.072 29.4356 21.2029C29.4356 21.2029 29.8187 22.0573 31.216 21.6034V20.5864C31.216 20.5864 30.8703 20.7135 30.5763 20.5864ZM27.7765 19.7351C27.8104 18.4855 29.3957 18.7526 29.3957 18.7526C29.3957 18.7526 29.4008 19.5448 29.4008 20.2525C29.1412 20.7055 27.7413 20.9847 27.7765 19.7351"/>
</mask>
<path d="M30.5763 20.5864V17.7973C30.5763 17.7973 30.8033 14.8181 26.9981 16.0219V17.199C26.9981 17.199 27.4473 16.8909 28.3119 16.8909C29.176 16.8909 29.4356 17.2897 29.4356 17.8867C29.4356 17.8867 26.7045 17.3444 26.4623 19.6266C26.2205 21.9084 28.4849 22.072 29.4356 21.2029C29.4356 21.2029 29.8187 22.0573 31.216 21.6034V20.5864C31.216 20.5864 30.8703 20.7135 30.5763 20.5864ZM27.7765 19.7351C27.8104 18.4855 29.3957 18.7526 29.3957 18.7526C29.3957 18.7526 29.4008 19.5448 29.4008 20.2525C29.1412 20.7055 27.7413 20.9847 27.7765 19.7351" fill="#FF713C"/>
<path d="M30.5763 20.5864L30.5366 20.6781L30.4763 20.6521V20.5864H30.5763ZM30.5763 17.7973H30.476L30.4766 17.7897L30.5763 17.7973ZM26.9981 16.0219H26.8981V15.9486L26.9679 15.9265L26.9981 16.0219ZM26.9981 17.199L27.0546 17.2815L26.8981 17.3888V17.199H26.9981ZM29.4356 17.8867H29.5356V18.0085L29.4161 17.9848L29.4356 17.8867ZM26.4623 19.6266L26.3628 19.6161L26.3628 19.616L26.4623 19.6266ZM29.4356 21.2029L29.3681 21.1291L29.4702 21.0358L29.5268 21.162L29.4356 21.2029ZM31.216 21.6034H31.316V21.6761L31.2469 21.6986L31.216 21.6034ZM31.216 20.5864L31.1815 20.4925L31.316 20.443V20.5864H31.216ZM29.3957 18.7526L29.4123 18.654L29.4952 18.668L29.4957 18.752L29.3957 18.7526ZM29.4008 20.2525H29.5008V20.2791L29.4876 20.3022L29.4008 20.2525ZM30.4763 20.5864V17.7973H30.6763V20.5864H30.4763ZM30.5763 17.7973C30.4766 17.7897 30.4766 17.7898 30.4766 17.7898C30.4766 17.7898 30.4766 17.7899 30.4766 17.7899C30.4766 17.7898 30.4766 17.7898 30.4766 17.7897C30.4766 17.7895 30.4766 17.7891 30.4767 17.7886C30.4768 17.7875 30.4769 17.7857 30.477 17.7832C30.4773 17.7783 30.4776 17.7708 30.478 17.7608C30.4787 17.7408 30.4792 17.711 30.4786 17.6732C30.4775 17.5976 30.4717 17.4903 30.4534 17.3651C30.4165 17.1137 30.3297 16.7957 30.1324 16.5158C29.9368 16.2383 29.6298 15.9938 29.1415 15.8892C28.6504 15.784 27.9696 15.8194 27.0282 16.1172L26.9679 15.9265C27.9291 15.6224 28.6469 15.5788 29.1834 15.6937C29.7229 15.8092 30.0725 16.0837 30.2959 16.4006C30.5175 16.715 30.6118 17.0666 30.6513 17.3361C30.6711 17.4714 30.6773 17.5875 30.6786 17.6701C30.6793 17.7115 30.6787 17.7445 30.6779 17.7676C30.6775 17.7791 30.677 17.7881 30.6767 17.7944C30.6765 17.7976 30.6764 17.8 30.6762 17.8018C30.6762 17.8027 30.6761 17.8034 30.6761 17.8039C30.6761 17.8042 30.6761 17.8044 30.676 17.8046C30.676 17.8046 30.676 17.8047 30.676 17.8048C30.676 17.8049 30.676 17.8049 30.5763 17.7973ZM27.0981 16.0219V17.199H26.8981V16.0219H27.0981ZM26.9981 17.199C26.9415 17.1165 26.9416 17.1165 26.9416 17.1165C26.9416 17.1165 26.9416 17.1164 26.9417 17.1164C26.9417 17.1164 26.9418 17.1163 26.9419 17.1163C26.942 17.1162 26.9422 17.116 26.9424 17.1159C26.9428 17.1156 26.9434 17.1153 26.944 17.1149C26.9453 17.114 26.947 17.1129 26.9492 17.1115C26.9535 17.1087 26.9596 17.1049 26.9674 17.1001C26.9831 17.0906 27.0059 17.0776 27.0357 17.0621C27.0952 17.0312 27.1828 16.9908 27.2978 16.9506C27.5279 16.8701 27.8675 16.7909 28.3119 16.7909V16.9909C27.8917 16.9909 27.5744 17.0658 27.3637 17.1394C27.2584 17.1762 27.1796 17.2128 27.1279 17.2396C27.102 17.253 27.0829 17.264 27.0707 17.2714C27.0646 17.2751 27.0602 17.2779 27.0575 17.2796C27.0562 17.2805 27.0552 17.2811 27.0548 17.2814C27.0545 17.2815 27.0544 17.2816 27.0544 17.2816C27.0544 17.2817 27.0544 17.2816 27.0544 17.2816C27.0544 17.2816 27.0545 17.2816 27.0545 17.2816C27.0545 17.2815 27.0545 17.2815 27.0546 17.2815C27.0546 17.2815 27.0546 17.2815 26.9981 17.199ZM28.3119 16.7909C28.7571 16.7909 29.0693 16.8935 29.2688 17.0945C29.4683 17.2956 29.5356 17.5759 29.5356 17.8867H29.3356C29.3356 17.6005 29.2731 17.3829 29.1268 17.2354C28.9804 17.0878 28.7307 16.9909 28.3119 16.9909V16.7909ZM29.4356 17.8867C29.4161 17.9848 29.4162 17.9848 29.4162 17.9848C29.4162 17.9848 29.4162 17.9848 29.4162 17.9848C29.4161 17.9848 29.4161 17.9848 29.4159 17.9847C29.4157 17.9847 29.4153 17.9846 29.4148 17.9845C29.4137 17.9843 29.4119 17.984 29.4096 17.9835C29.4049 17.9827 29.3976 17.9814 29.3881 17.9797C29.369 17.9765 29.3406 17.9719 29.3041 17.9669C29.2311 17.9568 29.1262 17.9449 28.9992 17.9374C28.7448 17.9226 28.4054 17.9262 28.0603 17.9987C27.7151 18.0711 27.3699 18.2113 27.0972 18.4651C26.8263 18.7173 26.62 19.0883 26.5617 19.6372L26.3628 19.616C26.4257 19.0237 26.6516 18.6067 26.9609 18.3187C27.2685 18.0324 27.6514 17.8802 28.0192 17.8029C28.3873 17.7257 28.7457 17.7223 29.0109 17.7378C29.1438 17.7456 29.2541 17.7581 29.3314 17.7688C29.3701 17.7741 29.4006 17.779 29.4216 17.7826C29.4322 17.7844 29.4403 17.7858 29.4459 17.7869C29.4487 17.7874 29.4509 17.7878 29.4525 17.7881C29.4532 17.7882 29.4538 17.7884 29.4543 17.7884C29.4545 17.7885 29.4547 17.7885 29.4548 17.7886C29.4549 17.7886 29.4549 17.7886 29.455 17.7886C29.455 17.7886 29.4551 17.7886 29.4356 17.8867ZM26.5617 19.6371C26.503 20.1912 26.5974 20.6064 26.777 20.9064C26.9563 21.206 27.2258 21.3993 27.5333 21.5014C28.1543 21.7077 28.9201 21.5387 29.3681 21.1291L29.5031 21.2767C29.0005 21.7362 28.1587 21.9199 27.4702 21.6912C27.1231 21.5759 26.8123 21.3548 26.6054 21.0091C26.3987 20.6638 26.3007 20.2029 26.3628 19.6161L26.5617 19.6371ZM29.4356 21.2029C29.5268 21.162 29.5268 21.1619 29.5268 21.1619C29.5268 21.1619 29.5268 21.1618 29.5267 21.1618C29.5267 21.1617 29.5267 21.1616 29.5267 21.1616C29.5266 21.1615 29.5266 21.1615 29.5266 21.1615C29.5266 21.1615 29.5267 21.1618 29.5269 21.1622C29.5273 21.163 29.5281 21.1646 29.5293 21.1668C29.5316 21.1714 29.5354 21.1786 29.541 21.1881C29.5522 21.2071 29.57 21.2348 29.5957 21.2673C29.6471 21.3323 29.7295 21.4158 29.852 21.4869C30.0935 21.627 30.5083 21.7282 31.1851 21.5083L31.2469 21.6986C30.5264 21.9326 30.051 21.8335 29.7516 21.6599C29.6037 21.5741 29.5029 21.4724 29.4389 21.3914C29.4068 21.3508 29.3838 21.3154 29.3686 21.2894C29.3609 21.2764 29.3552 21.2657 29.3512 21.258C29.3492 21.2541 29.3477 21.2509 29.3465 21.2485C29.346 21.2474 29.3455 21.2464 29.3451 21.2456C29.345 21.2452 29.3448 21.2448 29.3447 21.2445C29.3446 21.2444 29.3445 21.2443 29.3445 21.2441C29.3445 21.2441 29.3444 21.244 29.3444 21.244C29.3444 21.2439 29.3444 21.2438 29.4356 21.2029ZM31.116 21.6034V20.5864H31.316V21.6034H31.116ZM31.216 20.5864C31.2505 20.6802 31.2505 20.6802 31.2505 20.6802C31.2505 20.6802 31.2504 20.6802 31.2504 20.6803C31.2504 20.6803 31.2503 20.6803 31.2503 20.6803C31.2501 20.6804 31.25 20.6804 31.2498 20.6805C31.2495 20.6806 31.2491 20.6807 31.2486 20.6809C31.2477 20.6812 31.2464 20.6817 31.2447 20.6823C31.2415 20.6834 31.237 20.6849 31.2312 20.6868C31.2198 20.6904 31.2036 20.6954 31.1833 20.7008C31.143 20.7116 31.0861 20.7246 31.0192 20.7332C30.8872 20.7502 30.7068 20.7517 30.5366 20.6781L30.616 20.4946C30.7398 20.5481 30.8793 20.5496 30.9936 20.5348C31.0499 20.5276 31.0978 20.5167 31.1315 20.5076C31.1483 20.5031 31.1613 20.4992 31.17 20.4964C31.1743 20.495 31.1774 20.4939 31.1794 20.4932C31.1804 20.4929 31.1811 20.4927 31.1814 20.4925C31.1816 20.4925 31.1817 20.4924 31.1817 20.4924C31.1817 20.4924 31.1817 20.4924 31.1817 20.4924C31.1817 20.4924 31.1816 20.4925 31.1816 20.4925C31.1816 20.4925 31.1816 20.4925 31.1816 20.4925C31.1815 20.4925 31.1815 20.4925 31.216 20.5864ZM27.6765 19.7324C27.6857 19.3966 27.8001 19.1536 27.9737 18.9831C28.145 18.8148 28.366 18.7248 28.5771 18.6777C28.7885 18.6305 28.997 18.6248 29.1512 18.6305C29.2286 18.6334 29.2932 18.6391 29.3387 18.6442C29.3614 18.6468 29.3795 18.6492 29.392 18.6509C29.3982 18.6518 29.4031 18.6526 29.4066 18.6531C29.4083 18.6534 29.4096 18.6536 29.4106 18.6537C29.4111 18.6538 29.4115 18.6539 29.4118 18.6539C29.4119 18.654 29.412 18.654 29.4121 18.654C29.4122 18.654 29.4122 18.654 29.4122 18.654C29.4123 18.654 29.4123 18.654 29.3957 18.7526C29.3791 18.8513 29.3791 18.8513 29.3792 18.8513C29.3792 18.8513 29.3792 18.8513 29.3792 18.8513C29.3792 18.8513 29.3792 18.8513 29.3791 18.8513C29.379 18.8512 29.3788 18.8512 29.3786 18.8512C29.378 18.8511 29.3771 18.8509 29.3758 18.8507C29.3732 18.8503 29.3692 18.8497 29.3638 18.849C29.3531 18.8474 29.3371 18.8453 29.3164 18.843C29.2751 18.8384 29.2155 18.833 29.1438 18.8304C28.9997 18.825 28.8097 18.8307 28.6206 18.8729C28.4311 18.9152 28.2494 18.9926 28.1139 19.1257C27.9807 19.2566 27.8843 19.4487 27.8765 19.7378L27.6765 19.7324ZM29.3957 18.7526C29.4957 18.752 29.4957 18.752 29.4957 18.752C29.4957 18.752 29.4957 18.752 29.4957 18.752C29.4957 18.7521 29.4957 18.7521 29.4957 18.7522C29.4957 18.7522 29.4957 18.7524 29.4957 18.7526C29.4957 18.753 29.4957 18.7535 29.4957 18.7543C29.4957 18.7558 29.4958 18.7581 29.4958 18.7611C29.4958 18.7671 29.4959 18.7759 29.4959 18.7875C29.4961 18.8105 29.4963 18.8442 29.4965 18.8869C29.497 18.9723 29.4976 19.0934 29.4983 19.2367C29.4995 19.5233 29.5008 19.8984 29.5008 20.2525H29.3008C29.3008 19.8989 29.2995 19.5241 29.2983 19.2376C29.2976 19.0944 29.297 18.9733 29.2965 18.888C29.2963 18.8454 29.2961 18.8117 29.2959 18.7887C29.2959 18.7772 29.2958 18.7683 29.2958 18.7623C29.2958 18.7594 29.2957 18.7571 29.2957 18.7556C29.2957 18.7548 29.2957 18.7542 29.2957 18.7539C29.2957 18.7537 29.2957 18.7535 29.2957 18.7534C29.2957 18.7534 29.2957 18.7533 29.2957 18.7533C29.2957 18.7533 29.2957 18.7533 29.2957 18.7533C29.2957 18.7533 29.2957 18.7533 29.3957 18.7526ZM29.4876 20.3022C29.4075 20.442 29.249 20.5559 29.0713 20.6307C28.8912 20.7064 28.677 20.7482 28.4702 20.7319C28.2629 20.7156 28.0568 20.64 27.9052 20.4743C27.7529 20.3079 27.6672 20.0633 27.6765 19.7323L27.8765 19.7379C27.8682 20.0316 27.9443 20.2207 28.0527 20.3393C28.1618 20.4585 28.3152 20.5191 28.486 20.5326C28.6572 20.546 28.8395 20.5112 28.9938 20.4463C29.1505 20.3804 29.2643 20.2895 29.3141 20.2028L29.4876 20.3022Z" fill="white" mask="url(#path-12-inside-4)"/>
<mask id="path-14-inside-5" fill="white">
<path d="M38.6636 20.5864V17.7973C38.6636 17.7973 38.8901 14.8181 35.0853 16.0219V17.199C35.0853 17.199 35.5346 16.8909 36.3991 16.8909C37.2633 16.8909 37.5229 17.2897 37.5229 17.8867C37.5229 17.8867 34.7918 17.3444 34.5491 19.6266C34.3078 21.9088 36.5722 22.072 37.5229 21.2029C37.5229 21.2029 37.906 22.0573 39.3033 21.6034V20.5864C39.3033 20.5864 38.9572 20.7135 38.6636 20.5864ZM35.8638 19.7351C35.8977 18.4855 37.4834 18.7526 37.4834 18.7526C37.4834 18.7526 37.4877 19.5448 37.4877 20.2525C37.2281 20.7055 35.829 20.9847 35.8638 19.7351"/>
</mask>
<path d="M38.6636 20.5864V17.7973C38.6636 17.7973 38.8901 14.8181 35.0853 16.0219V17.199C35.0853 17.199 35.5346 16.8909 36.3991 16.8909C37.2633 16.8909 37.5229 17.2897 37.5229 17.8867C37.5229 17.8867 34.7918 17.3444 34.5491 19.6266C34.3078 21.9088 36.5722 22.072 37.5229 21.2029C37.5229 21.2029 37.906 22.0573 39.3033 21.6034V20.5864C39.3033 20.5864 38.9572 20.7135 38.6636 20.5864ZM35.8638 19.7351C35.8977 18.4855 37.4834 18.7526 37.4834 18.7526C37.4834 18.7526 37.4877 19.5448 37.4877 20.2525C37.2281 20.7055 35.829 20.9847 35.8638 19.7351" fill="#FF713C"/>
<path d="M38.6636 20.5864L38.6239 20.6781L38.5636 20.652V20.5864H38.6636ZM38.6636 17.7973H38.5633L38.5639 17.7898L38.6636 17.7973ZM35.0853 16.0219H34.9853V15.9486L35.0552 15.9265L35.0853 16.0219ZM35.0853 17.199L35.1419 17.2815L34.9853 17.3888V17.199H35.0853ZM37.5229 17.8867H37.6229V18.0085L37.5034 17.9848L37.5229 17.8867ZM34.5491 19.6266L34.4497 19.6161L34.4497 19.616L34.5491 19.6266ZM37.5229 21.2029L37.4554 21.1291L37.5575 21.0358L37.6141 21.162L37.5229 21.2029ZM39.3033 21.6034H39.4033V21.6761L39.3342 21.6986L39.3033 21.6034ZM39.3033 20.5864L39.2688 20.4925L39.4033 20.4431V20.5864H39.3033ZM37.4834 18.7526L37.5001 18.654L37.583 18.668L37.5834 18.7521L37.4834 18.7526ZM37.4877 20.2525H37.5877V20.2791L37.5744 20.3022L37.4877 20.2525ZM38.5636 20.5864V17.7973H38.7636V20.5864H38.5636ZM38.6636 17.7973C38.5639 17.7898 38.5639 17.7898 38.5639 17.7898C38.5639 17.7898 38.5639 17.7899 38.5639 17.7899C38.5639 17.7899 38.5639 17.7898 38.5639 17.7897C38.5639 17.7895 38.5639 17.7891 38.564 17.7886C38.564 17.7875 38.5642 17.7857 38.5643 17.7833C38.5646 17.7784 38.5649 17.7708 38.5653 17.7608C38.566 17.7408 38.5665 17.711 38.5659 17.6732C38.5647 17.5976 38.559 17.4904 38.5406 17.3652C38.5037 17.1137 38.4169 16.7957 38.2195 16.5158C38.0239 16.2383 37.7169 15.9938 37.2287 15.8892C36.7375 15.784 36.0568 15.8194 35.1155 16.1172L35.0552 15.9265C36.0163 15.6224 36.7341 15.5788 37.2705 15.6937C37.8099 15.8092 38.1596 16.0837 38.383 16.4006C38.6047 16.715 38.6989 17.0666 38.7385 17.3361C38.7583 17.4714 38.7646 17.5875 38.7659 17.6701C38.7665 17.7115 38.7659 17.7445 38.7652 17.7676C38.7648 17.7791 38.7643 17.7881 38.764 17.7944C38.7638 17.7976 38.7637 17.8 38.7635 17.8018C38.7635 17.8027 38.7634 17.8034 38.7634 17.8039C38.7634 17.8042 38.7634 17.8044 38.7633 17.8045C38.7633 17.8046 38.7633 17.8047 38.7633 17.8048C38.7633 17.8049 38.7633 17.8049 38.6636 17.7973ZM35.1853 16.0219V17.199H34.9853V16.0219H35.1853ZM35.0853 17.199C35.0288 17.1165 35.0288 17.1165 35.0289 17.1165C35.0289 17.1165 35.0289 17.1164 35.029 17.1164C35.029 17.1164 35.0291 17.1163 35.0292 17.1163C35.0293 17.1162 35.0295 17.116 35.0297 17.1159C35.0301 17.1156 35.0306 17.1153 35.0313 17.1149C35.0326 17.114 35.0343 17.1129 35.0364 17.1115C35.0408 17.1087 35.0469 17.1049 35.0547 17.1001C35.0704 17.0906 35.0932 17.0776 35.123 17.0621C35.1825 17.0312 35.2701 16.9908 35.385 16.9506C35.6152 16.8701 35.9548 16.7909 36.3991 16.7909V16.9909C35.979 16.9909 35.6617 17.0658 35.451 17.1394C35.3456 17.1762 35.2668 17.2128 35.2151 17.2396C35.1893 17.253 35.1702 17.264 35.158 17.2714C35.1519 17.2751 35.1475 17.2779 35.1448 17.2796C35.1434 17.2805 35.1425 17.2811 35.142 17.2814C35.1418 17.2815 35.1417 17.2816 35.1416 17.2816C35.1416 17.2817 35.1417 17.2816 35.1417 17.2816C35.1417 17.2816 35.1417 17.2816 35.1418 17.2816C35.1418 17.2815 35.1418 17.2815 35.1418 17.2815C35.1419 17.2815 35.1419 17.2815 35.0853 17.199ZM36.3991 16.7909C36.8444 16.7909 37.1566 16.8935 37.3561 17.0945C37.5556 17.2956 37.6229 17.5759 37.6229 17.8867H37.4229C37.4229 17.6005 37.3604 17.3829 37.2141 17.2354C37.0677 17.0878 36.818 16.9909 36.3991 16.9909V16.7909ZM37.5229 17.8867C37.5034 17.9848 37.5034 17.9848 37.5035 17.9848C37.5035 17.9848 37.5035 17.9848 37.5034 17.9848C37.5034 17.9848 37.5033 17.9848 37.5032 17.9847C37.503 17.9847 37.5026 17.9846 37.5021 17.9845C37.501 17.9843 37.4992 17.984 37.4969 17.9835C37.4921 17.9827 37.4849 17.9814 37.4754 17.9797C37.4563 17.9765 37.4279 17.9719 37.3914 17.9669C37.3184 17.9568 37.2134 17.9449 37.0865 17.9374C36.8321 17.9226 36.4926 17.9262 36.1476 17.9987C35.8023 18.0711 35.457 18.2113 35.1843 18.4651C34.9133 18.7173 34.7069 19.0884 34.6486 19.6372L34.4497 19.616C34.5127 19.0237 34.7387 18.6067 35.048 18.3187C35.3556 18.0324 35.7386 17.8802 36.1065 17.8029C36.4745 17.7257 36.833 17.7223 37.0982 17.7378C37.2311 17.7456 37.3414 17.7581 37.4187 17.7688C37.4574 17.7741 37.4879 17.779 37.5089 17.7826C37.5195 17.7844 37.5276 17.7858 37.5332 17.7869C37.536 17.7874 37.5382 17.7878 37.5397 17.7881C37.5405 17.7882 37.5411 17.7884 37.5416 17.7884C37.5418 17.7885 37.5419 17.7885 37.5421 17.7886C37.5422 17.7886 37.5422 17.7886 37.5423 17.7886C37.5423 17.7886 37.5424 17.7886 37.5229 17.8867ZM34.6486 19.6371C34.59 20.1913 34.6844 20.6065 34.8641 20.9066C35.0435 21.2062 35.313 21.3995 35.6205 21.5016C36.2416 21.7078 37.0074 21.5387 37.4554 21.1291L37.5904 21.2767C37.0878 21.7362 36.2459 21.92 35.5575 21.6914C35.2103 21.5761 34.8995 21.355 34.6925 21.0093C34.4857 20.664 34.3876 20.203 34.4497 19.6161L34.6486 19.6371ZM37.5229 21.2029C37.6141 21.162 37.6141 21.1619 37.6141 21.1619C37.6141 21.1619 37.614 21.1618 37.614 21.1618C37.614 21.1617 37.614 21.1616 37.614 21.1616C37.6139 21.1615 37.6139 21.1615 37.6139 21.1615C37.6139 21.1615 37.614 21.1618 37.6142 21.1622C37.6146 21.163 37.6154 21.1646 37.6165 21.1668C37.6189 21.1714 37.6227 21.1786 37.6283 21.1881C37.6394 21.2071 37.6573 21.2348 37.683 21.2673C37.7344 21.3323 37.8168 21.4158 37.9393 21.4869C38.1808 21.627 38.5956 21.7282 39.2724 21.5083L39.3342 21.6986C38.6137 21.9326 38.1383 21.8335 37.8389 21.6599C37.691 21.5741 37.5902 21.4724 37.5261 21.3914C37.4941 21.3508 37.4711 21.3154 37.4559 21.2894C37.4482 21.2764 37.4425 21.2657 37.4385 21.258C37.4365 21.2541 37.435 21.2509 37.4338 21.2485C37.4333 21.2474 37.4328 21.2464 37.4324 21.2456C37.4323 21.2452 37.4321 21.2448 37.432 21.2445C37.4319 21.2444 37.4318 21.2443 37.4318 21.2441C37.4318 21.2441 37.4317 21.244 37.4317 21.244C37.4317 21.2439 37.4316 21.2438 37.5229 21.2029ZM39.2033 21.6034V20.5864H39.4033V21.6034H39.2033ZM39.3033 20.5864C39.3378 20.6802 39.3378 20.6802 39.3377 20.6802C39.3377 20.6802 39.3377 20.6803 39.3377 20.6803C39.3376 20.6803 39.3376 20.6803 39.3375 20.6803C39.3374 20.6804 39.3373 20.6804 39.3371 20.6805C39.3368 20.6806 39.3364 20.6807 39.3359 20.6809C39.3349 20.6813 39.3336 20.6817 39.332 20.6823C39.3287 20.6834 39.3242 20.6849 39.3185 20.6868C39.307 20.6904 39.2908 20.6954 39.2705 20.7008C39.2302 20.7116 39.1733 20.7246 39.1063 20.7332C38.9743 20.7502 38.7939 20.7518 38.6239 20.6781L38.7033 20.4946C38.8269 20.5481 38.9663 20.5496 39.0808 20.5348C39.1371 20.5276 39.1851 20.5167 39.2187 20.5076C39.2355 20.5031 39.2486 20.4991 39.2573 20.4964C39.2616 20.495 39.2648 20.4939 39.2667 20.4932C39.2677 20.4929 39.2684 20.4926 39.2687 20.4925C39.2689 20.4925 39.269 20.4924 39.269 20.4924C39.269 20.4924 39.269 20.4924 39.269 20.4924C39.269 20.4924 39.269 20.4924 39.2689 20.4924C39.2689 20.4925 39.2689 20.4925 39.2689 20.4925C39.2689 20.4925 39.2688 20.4925 39.3033 20.5864ZM35.7638 19.7324C35.7729 19.3966 35.8875 19.1536 36.0611 18.983C36.2324 18.8148 36.4535 18.7248 36.6646 18.6777C36.8761 18.6305 37.0846 18.6248 37.2388 18.6305C37.3163 18.6334 37.3809 18.6391 37.4264 18.6442C37.4491 18.6468 37.4672 18.6492 37.4797 18.6509C37.486 18.6518 37.4908 18.6526 37.4943 18.6531C37.496 18.6534 37.4973 18.6536 37.4983 18.6537C37.4988 18.6538 37.4992 18.6539 37.4995 18.6539C37.4996 18.654 37.4997 18.654 37.4998 18.654C37.4999 18.654 37.4999 18.654 37.5 18.654C37.5 18.654 37.5001 18.654 37.4834 18.7526C37.4668 18.8513 37.4669 18.8513 37.4669 18.8513C37.4669 18.8513 37.4669 18.8513 37.4669 18.8513C37.4669 18.8513 37.4669 18.8513 37.4668 18.8513C37.4667 18.8512 37.4666 18.8512 37.4663 18.8512C37.4657 18.8511 37.4648 18.8509 37.4635 18.8507C37.4609 18.8503 37.4569 18.8497 37.4516 18.849C37.4408 18.8474 37.4248 18.8453 37.4041 18.843C37.3627 18.8384 37.3032 18.833 37.2314 18.8304C37.0873 18.825 36.8972 18.8307 36.7081 18.8729C36.5185 18.9152 36.3368 18.9926 36.2012 19.1257C36.068 19.2566 35.9716 19.4487 35.9637 19.7378L35.7638 19.7324ZM37.4834 18.7526C37.5834 18.7521 37.5834 18.7521 37.5834 18.7521C37.5834 18.7521 37.5834 18.7521 37.5834 18.7521C37.5834 18.7522 37.5834 18.7522 37.5834 18.7523C37.5834 18.7524 37.5834 18.7525 37.5834 18.7527C37.5834 18.7531 37.5834 18.7537 37.5834 18.7544C37.5835 18.7559 37.5835 18.7582 37.5835 18.7612C37.5835 18.7672 37.5836 18.776 37.5836 18.7876C37.5837 18.8106 37.5839 18.8443 37.5841 18.887C37.5845 18.9724 37.585 19.0935 37.5856 19.2368C37.5866 19.5234 37.5877 19.8985 37.5877 20.2525H37.3877C37.3877 19.8988 37.3866 19.524 37.3856 19.2376C37.385 19.0943 37.3845 18.9732 37.3841 18.8879C37.3839 18.8453 37.3837 18.8116 37.3836 18.7886C37.3836 18.7771 37.3835 18.7682 37.3835 18.7622C37.3835 18.7593 37.3835 18.757 37.3835 18.7555C37.3834 18.7547 37.3834 18.7541 37.3834 18.7538C37.3834 18.7536 37.3834 18.7534 37.3834 18.7533C37.3834 18.7533 37.3834 18.7532 37.3834 18.7532C37.3834 18.7532 37.3834 18.7532 37.3834 18.7532C37.3834 18.7532 37.3834 18.7532 37.4834 18.7526ZM37.5744 20.3022C37.4943 20.442 37.3359 20.5559 37.1583 20.6306C36.9783 20.7064 36.7642 20.7482 36.5575 20.7319C36.3502 20.7156 36.1442 20.64 35.9925 20.4743C35.8404 20.3079 35.7546 20.0634 35.7638 19.7323L35.9637 19.7379C35.9556 20.0316 36.0317 20.2207 36.1401 20.3393C36.2491 20.4585 36.4026 20.5191 36.5732 20.5326C36.7443 20.546 36.9265 20.5112 37.0807 20.4463C37.2374 20.3804 37.3512 20.2895 37.4009 20.2028L37.5744 20.3022Z" fill="white" mask="url(#path-14-inside-5)"/>
<path d="M5.87408 0.150283C3.15644 0.150283 0.941992 2.46091 0.941992 5.3258C0.941992 8.19112 3.15642 10.5009 5.87408 10.5009C7.02887 10.5009 8.0912 10.0844 8.93242 9.38565C7.8736 8.38332 7.21052 6.93481 7.21052 5.3258C7.21052 3.71636 7.8736 2.26785 8.93241 1.26512C8.09118 0.56675 7.02886 0.150283 5.87408 0.150283Z" fill="#FF713C" stroke="white" stroke-width="0.3"/>
<path d="M12.442 0.150283C11.2872 0.150283 10.2245 0.566772 9.38357 1.26513C10.4416 2.26781 11.1055 3.7163 11.1055 5.3258C11.1055 6.93487 10.4416 8.38335 9.38356 9.38564C10.2244 10.0844 11.2872 10.5009 12.442 10.5009C15.1596 10.5009 17.3741 8.19112 17.3741 5.3258C17.3741 2.46091 15.1596 0.150283 12.442 0.150283Z" fill="#FF713C" stroke="white" stroke-width="0.3"/>
<path d="M9.15771 1.46535C8.14705 2.41269 7.51035 3.79063 7.51035 5.3262C7.51035 6.86223 8.14706 8.24018 9.15771 9.1871C10.1677 8.24014 10.8051 6.86217 10.8051 5.3262C10.8051 3.79069 10.1677 2.41273 9.15771 1.46535Z" fill="#FF713C" stroke="white" stroke-width="0.3"/>
<path d="M19.0801 10.5009C21.7973 10.5009 24.0118 8.1907 24.0118 5.32536C24.0118 2.46045 21.7973 0.149838 19.0801 0.149838C16.3625 0.149838 14.148 2.46046 14.148 5.32536C14.148 8.19069 16.3625 10.5009 19.0801 10.5009Z" fill="#FF713C" stroke="white" stroke-width="0.3"/>
<path d="M21.8362 3.31444C21.4357 3.02772 20.3918 2.57874 19.1212 2.57562V2.57518L19.0805 2.57562L19.0381 2.57518V2.57562C17.768 2.57874 16.7244 3.02772 16.3235 3.31444C16.1937 3.40735 16.1148 3.5256 16.122 3.60117C16.1437 3.66874 16.2196 3.70608 16.4432 3.63495C16.8279 3.51182 17.7553 2.96059 19.0805 2.94859C20.4053 2.96059 21.3314 3.51182 21.7166 3.63495C21.9406 3.70608 22.0161 3.66874 22.0381 3.60117C22.0453 3.5256 21.966 3.40735 21.8362 3.31444Z" fill="white"/>
<path d="M19.8908 6.8701C19.8908 6.8701 19.0505 6.927 19.5387 7.43821C20.0262 7.94943 21.5979 8.574 22.8981 7.43821C22.8981 7.43821 23.4407 6.98434 22.627 6.8701C21.8146 6.75719 19.8908 6.8701 19.8908 6.8701Z" fill="white"/>
<path d="M19.3916 7.12598L21.0172 3.16073H21.4686L23.0717 7.12598H22.678L21.2429 3.61682L19.7484 7.12598H19.3916Z" fill="white"/>
<path d="M15.5894 6.8701C15.5894 6.8701 14.7494 6.927 15.2373 7.43821C15.7247 7.94943 17.2968 8.574 18.5971 7.43821C18.5971 7.43821 19.1396 6.98434 18.326 6.8701C17.5136 6.75719 15.5894 6.8701 15.5894 6.8701Z" fill="white"/>
<path d="M15.0898 7.12598L16.7154 3.16073H17.1664L18.7691 7.12598H18.3758L16.9411 3.61682L15.4466 7.12598H15.0898Z" fill="white"/>
</svg>
