<svg width="38" height="27" viewBox="0 0 38 27" fill="none" xmlns="http://www.w3.org/2000/svg">
<g clip-path="url(#clip0)">
<path d="M22.8596 11.4387C20.5856 8.94194 18.3116 6.44516 15.9777 3.89032C15.9777 4.70323 15.9777 5.45806 15.9777 6.2129C15.9777 6.27097 16.0974 6.3871 16.1573 6.3871C17.2344 6.96774 17.773 8.07097 17.414 9.17419C17.1147 10.2194 16.0376 10.9742 14.8407 10.8581C13.7037 10.8 12.6266 9.8129 12.6266 8.76774C13.1651 8.70968 13.7037 8.65161 14.1825 8.65161C14.4218 8.88387 14.6014 9.05806 14.7809 9.17419C15.0801 9.34839 15.3195 9.23226 15.5588 9C15.7384 8.82581 15.7982 8.59355 15.7384 8.30323C15.6187 8.0129 15.4392 7.83871 15.1399 7.83871C14.8407 7.83871 14.5415 7.83871 14.2423 7.83871C14.2423 5.16774 14.2423 2.6129 14.2423 0C14.362 0 14.4817 0 14.6014 0C19.0895 0 23.6376 0 28.1258 0C28.3053 0 28.4848 0.0580645 28.6045 0.174194C29.9809 1.45161 31.3573 2.67097 32.7336 3.94839C32.8533 4.06452 32.9132 4.23871 32.9132 4.4129C32.9132 6.61935 32.9132 8.88387 32.9132 11.0903C32.9132 11.3226 32.973 11.4968 33.1525 11.671C33.5116 12.0774 33.8707 12.5419 34.2297 13.0065C34.3494 13.1806 34.4092 13.3548 34.4092 13.5871C34.4092 14.9226 34.4092 16.2581 34.4092 17.6516C34.4092 17.7677 34.4092 17.8839 34.4092 18.0581C35.6061 18.0581 36.7431 18.0581 37.9399 18.0581C37.9399 21.0774 37.9399 24.0968 37.9399 27.0581C25.2533 27.0581 12.6266 27.0581 -0.0600586 27.0581C-0.0600586 26.3613 -0.0600586 25.6645 -0.0600586 24.9097C5.86435 24.9097 11.7888 24.9097 17.7132 24.9097C17.7132 22.5871 17.7132 20.3226 17.7132 18.0581C18.91 18.0581 20.1069 18.0581 21.3037 18.0581C21.3037 17.8839 21.3037 17.7677 21.3037 17.7097C21.3037 16.3161 21.3037 14.9806 21.3037 13.5871C21.3037 13.4129 21.3636 13.2387 21.4832 13.1226C21.962 12.4839 22.3809 11.9613 22.8596 11.4387ZM35.7856 24.8516C35.7856 23.2839 35.7856 21.7742 35.7856 20.2065C30.5195 20.2065 25.3132 20.2065 20.047 20.2065C20.047 21.7742 20.047 23.3419 20.047 24.8516C25.3132 24.8516 30.5195 24.8516 35.7856 24.8516ZM32.2549 18C32.2549 17.8839 32.2549 17.7677 32.2549 17.6516C32.2549 16.8387 32.1951 15.9677 32.2549 15.1548C32.3147 14.3419 32.0754 13.7032 31.4769 13.1226C31.3573 13.0065 31.2376 12.8903 30.9982 12.8903C29.2029 12.8903 27.4077 12.9484 25.6124 12.8903C24.7746 12.8323 24.1762 13.0645 23.7573 13.7613C23.6376 13.9355 23.5777 14.1097 23.5777 14.3419C23.5777 15.4452 23.5777 16.5484 23.5777 17.6516C23.5777 17.7677 23.5777 17.8839 23.5777 18C26.4502 18 29.3226 18 32.2549 18ZM30.699 10.7419C30.699 9.29032 30.699 7.83871 30.699 6.3871C28.784 6.3871 26.9289 6.3871 25.0738 6.3871C25.0738 7.83871 25.0738 9.29032 25.0738 10.7419C26.9888 10.7419 28.8439 10.7419 30.699 10.7419ZM25.4329 1.91613C23.5179 1.91613 21.7226 1.91613 19.8077 1.91613C20.8848 2.67097 21.962 3.42581 22.9793 4.18064C23.8171 3.42581 24.5951 2.67097 25.4329 1.91613ZM17.5336 2.55484C17.4738 2.55484 17.4738 2.55484 17.5336 2.55484C19.2691 4.5871 21.0644 6.56129 22.8596 8.59355C22.8596 7.89677 22.8596 7.25806 22.8596 6.61935C22.8596 6.44516 22.7998 6.32903 22.6203 6.2129C21.4234 5.34194 20.2266 4.52903 19.0297 3.65806C18.551 3.25161 18.0124 2.90323 17.5336 2.55484ZM27.8864 2.38065C27.2281 2.96129 26.6297 3.54194 25.9714 4.18064C27.3478 4.18064 28.6045 4.18064 29.9809 4.18064C29.2628 3.54194 28.6045 2.96129 27.8864 2.38065Z" fill="#FF713C"/>
<path d="M16.5762 17.4195C16.2769 18.4066 15.9179 19.3357 15.6187 20.3227C15.3793 21.1357 15.0801 21.8905 14.8407 22.7034C14.7809 22.8776 14.721 22.9937 14.4817 23.0518C12.6265 23.3421 10.7116 23.6905 8.85647 23.9227C8.43757 23.9808 8.01867 23.8647 7.59978 23.8066C5.92418 23.5744 4.24859 23.284 2.573 22.9937C2.39348 22.9937 2.27379 22.9357 2.21395 22.7615C1.67537 21.0195 1.07694 19.2776 0.538358 17.5357C0.538358 17.4776 0.538358 17.4776 0.478516 17.4195C1.0171 17.2453 1.55568 17.0131 2.09426 16.8389C2.33363 16.7808 2.39348 16.6647 2.39348 16.3744C2.39348 15.2711 2.39348 14.226 2.39348 13.1228C2.39348 12.9486 2.45332 12.8324 2.63285 12.7744C3.05174 12.6002 3.4108 12.426 3.8297 12.2518C4.66749 11.9615 5.44544 11.4969 6.04387 10.8002C6.10371 10.684 6.34308 10.626 6.46277 10.626C7.83915 10.626 9.27537 10.626 10.6517 10.626C10.7714 10.626 10.951 10.684 11.0706 10.8002C11.6691 11.4969 12.3872 11.9034 13.2848 12.2518C13.7037 12.3679 14.0628 12.6002 14.4817 12.7744C14.6612 12.8324 14.721 12.9486 14.721 13.1228C14.721 14.226 14.721 15.3873 14.721 16.4905C14.721 16.7227 14.7809 16.7808 15.0202 16.8389C15.4391 17.0131 15.9777 17.2453 16.5762 17.4195ZM2.87222 18.5808C3.11159 19.3937 3.4108 20.1486 3.65017 20.9615C3.71001 21.1937 3.8297 21.3098 4.12891 21.3679C5.14623 21.484 6.16355 21.7163 7.18088 21.8324C7.71946 21.8905 8.31789 22.0647 8.79663 22.0066C10.2328 21.8324 11.6092 21.6002 13.0454 21.3679C13.1651 21.3679 13.2848 21.1937 13.3447 21.1357C13.584 20.3808 13.8832 19.626 14.1226 18.8131C14.1226 18.755 14.1226 18.6969 14.1825 18.5808C12.5667 18.0002 10.951 17.4195 9.33521 16.8389C8.79663 16.6066 8.37773 16.6647 7.83915 16.8389C6.10371 17.4195 4.48796 18.0002 2.87222 18.5808ZM9.87379 15.0389C9.87379 14.226 9.87379 13.4131 9.87379 12.6002C8.97615 12.6002 8.01867 12.6002 7.12104 12.6002C7.12104 13.4131 7.12104 14.1679 7.12104 15.0389C7.48009 14.9227 7.83915 14.7486 8.1982 14.6324C8.37773 14.5744 8.55726 14.5744 8.67694 14.6324C9.15568 14.7486 9.51474 14.8647 9.87379 15.0389ZM11.0108 13.4131C11.0108 14.1098 11.0108 14.7486 11.0108 15.4453C11.5494 15.6195 12.088 15.8518 12.6864 16.026C12.6864 15.3873 12.6864 14.8066 12.6864 14.226C12.6864 14.1679 12.6265 14.1098 12.5667 14.0518C12.0281 13.8195 11.5494 13.6453 11.0108 13.4131ZM6.04387 13.4131C5.50529 13.6453 4.9667 13.8776 4.48796 14.1098C4.42812 14.1098 4.36828 14.1679 4.36828 14.226C4.36828 14.8066 4.36828 15.3873 4.36828 16.026C4.84702 15.8518 5.3856 15.6776 5.86434 15.4453C5.92419 15.4453 6.04387 15.3292 6.04387 15.2131C6.04387 14.6324 6.04387 14.0518 6.04387 13.4131Z" fill="#FF713C"/>
<path d="M35.7855 24.8517C30.5193 24.8517 25.313 24.8517 20.0469 24.8517C20.0469 23.284 20.0469 21.7743 20.0469 20.2065C25.313 20.2065 30.5193 20.2065 35.7855 20.2065C35.7855 21.7743 35.7855 23.284 35.7855 24.8517Z" fill="white"/>
<path d="M32.2548 17.9998C29.3824 17.9998 26.5099 17.9998 23.5776 17.9998C23.5776 17.8837 23.5776 17.7676 23.5776 17.6515C23.5776 16.5482 23.5776 15.445 23.5776 14.3418C23.5776 14.1676 23.6973 13.9353 23.7572 13.7611C24.1761 13.0063 24.7745 12.8321 25.6123 12.8902C27.4076 12.9482 29.2028 12.8902 30.9981 12.8902C31.1776 12.8902 31.2973 12.9482 31.4768 13.1224C32.0753 13.7031 32.3146 14.3418 32.2548 15.1547C32.195 15.9676 32.2548 16.8386 32.2548 17.6515C32.2548 17.7676 32.2548 17.8837 32.2548 17.9998Z" fill="white"/>
<path d="M30.6989 10.742C28.8438 10.742 26.9887 10.742 25.0737 10.742C25.0737 9.29043 25.0737 7.83882 25.0737 6.38721C26.9288 6.38721 28.784 6.38721 30.6989 6.38721C30.6989 7.83882 30.6989 9.23237 30.6989 10.742Z" fill="white"/>
<path d="M25.4328 1.91602C24.595 2.67085 23.8171 3.42569 22.9793 4.18053C21.9021 3.42569 20.8848 2.67085 19.8076 1.91602C21.7226 1.91602 23.5179 1.91602 25.4328 1.91602Z" fill="white"/>
<path d="M17.5337 2.55469C18.0124 2.90307 18.551 3.25146 19.0297 3.59985C20.2266 4.47082 21.4234 5.28372 22.6203 6.15469C22.7998 6.27082 22.8596 6.38695 22.8596 6.56114C22.8596 7.19985 22.8596 7.83856 22.8596 8.53533C21.0045 6.50307 19.2691 4.52888 17.5337 2.55469C17.4738 2.55469 17.4738 2.55469 17.5337 2.55469Z" fill="white"/>
<path d="M27.8866 2.38086C28.6047 2.9615 29.263 3.54215 29.9811 4.18086C28.6047 4.18086 27.3481 4.18086 25.9717 4.18086C26.6299 3.54215 27.2284 2.9615 27.8866 2.38086Z" fill="white"/>
<path d="M2.87207 18.5806C4.54766 18 6.16341 17.4193 7.71931 16.7806C8.2579 16.5484 8.67679 16.5484 9.21538 16.7806C10.8311 17.4193 12.4469 17.9419 14.0626 18.5226C14.0626 18.5806 14.0626 18.6968 14.0028 18.7548C13.7634 19.5097 13.524 20.2645 13.2248 21.0774C13.165 21.1935 13.0453 21.3097 12.9256 21.3097C11.4894 21.5419 10.113 21.8323 8.67679 21.9484C8.13821 22.0064 7.59963 21.8323 7.06105 21.7742C6.04372 21.6 5.0264 21.4258 4.00908 21.3097C3.70987 21.2516 3.59018 21.1935 3.53034 20.9032C3.41065 20.1484 3.11144 19.3935 2.87207 18.5806Z" fill="white"/>
<path d="M9.87358 15.0388C9.45468 14.9227 9.09562 14.7485 8.73657 14.6324C8.55704 14.5743 8.37751 14.5743 8.25783 14.6324C7.89877 14.7485 7.53972 14.8646 7.18066 15.0388C7.18066 14.2259 7.18066 13.413 7.18066 12.6001C8.0783 12.6001 9.03578 12.6001 9.93342 12.6001C9.87358 13.413 9.87358 14.1678 9.87358 15.0388Z" fill="white"/>
<path d="M11.0107 13.4131C11.5493 13.6453 12.0879 13.8776 12.5666 14.1099C12.6265 14.1099 12.6863 14.226 12.6863 14.2841C12.6863 14.8647 12.6863 15.4453 12.6863 16.0841C12.0879 15.8518 11.5493 15.6776 11.0107 15.5034C11.0107 14.7486 11.0107 14.1099 11.0107 13.4131Z" fill="white"/>
<path d="M6.04403 13.4131C6.04403 14.0518 6.04403 14.6905 6.04403 15.2712C6.04403 15.3292 5.92434 15.4453 5.8645 15.5034C5.38576 15.6776 4.84718 15.8518 4.30859 16.026C4.30859 15.3873 4.30859 14.8066 4.30859 14.226C4.30859 14.1679 4.36844 14.1099 4.42828 14.1099C4.96686 13.8776 5.4456 13.6453 6.04403 13.4131Z" fill="white"/>
</g>
<defs>
<clipPath id="clip0">
<rect width="38" height="27" fill="white"/>
</clipPath>
</defs>
</svg>
