<svg width="27" height="27" viewBox="0 0 27 27" fill="none" xmlns="http://www.w3.org/2000/svg">
<path d="M13.5 0C6.05602 0 0 6.05602 0 13.5C0 20.944 6.05602 27 13.5 27C20.944 27 27 20.944 27 13.5C27 6.05602 20.944 0 13.5 0ZM19.9202 19.9202C19.7093 20.1311 19.4232 20.2495 19.125 20.2495C18.8268 20.2495 18.5407 20.1311 18.3298 19.9202L15.3176 16.9088C14.045 17.7844 12.4912 18.1529 10.9609 17.9419C9.43069 17.7309 8.03453 16.9557 7.04644 15.7683C6.05834 14.581 5.54965 13.0672 5.62017 11.5241C5.6907 9.98097 6.33535 8.51992 7.42764 7.42764C8.51992 6.33535 9.98097 5.6907 11.5241 5.62017C13.0672 5.54965 14.581 6.05834 15.7683 7.04644C16.9557 8.03453 17.7309 9.43069 17.9419 10.9609C18.1529 12.4912 17.7844 14.045 16.9088 15.3176L19.9202 18.3298C20.1311 18.5407 20.2495 18.8268 20.2495 19.125C20.2495 19.4232 20.1311 19.7093 19.9202 19.9202Z" fill="#FFAA3C"/>
<path d="M11.8125 15.75C13.9871 15.75 15.75 13.9871 15.75 11.8125C15.75 9.63788 13.9871 7.875 11.8125 7.875C9.63788 7.875 7.875 9.63788 7.875 11.8125C7.875 13.9871 9.63788 15.75 11.8125 15.75Z" fill="#FFAA3C"/>
</svg>
