<svg width="24" height="25" viewBox="0 0 24 25" fill="none" xmlns="http://www.w3.org/2000/svg">
<path d="M20 12.5001C20 11.4001 20.9 10.5001 22 10.5001V6.50009C22 5.40009 21.1 4.50009 20 4.50009H4C2.9 4.50009 2.01 5.40009 2.01 6.50009V10.5001C3.11 10.5001 4 11.4001 4 12.5001C4 13.6001 3.11 14.5001 2 14.5001V18.5001C2 19.6001 2.9 20.5001 4 20.5001H20C21.1 20.5001 22 19.6001 22 18.5001V14.5001C20.9 14.5001 20 13.6001 20 12.5001ZM15.58 17.3001L12 15.0001L8.42 17.3001L9.5 13.1801L6.21 10.4901L10.45 10.2401L12 6.30009L13.54 10.2501L17.78 10.5001L14.49 13.1901L15.58 17.3001Z" fill="#141414"/>
</svg>
