<svg width="41" height="28" viewBox="0 0 41 28" fill="none" xmlns="http://www.w3.org/2000/svg">
<path fill-rule="evenodd" clip-rule="evenodd" d="M38 1.5H3C2.17157 1.5 1.5 2.17157 1.5 3V25C1.5 25.8284 2.17157 26.5 3 26.5H38C38.8284 26.5 39.5 25.8284 39.5 25V3C39.5 2.17157 38.8284 1.5 38 1.5ZM3 0C1.34315 0 0 1.34315 0 3V25C0 26.6569 1.34315 28 3 28H38C39.6569 28 41 26.6569 41 25V3C41 1.34315 39.6569 0 38 0H3Z" fill="#FF713C"/>
<path d="M3 5C3 4.44772 3.44772 4 4 4H37C37.5523 4 38 4.44772 38 5V9H3V5Z" fill="#FF713C"/>
<path fill-rule="evenodd" clip-rule="evenodd" d="M4.5 5.5V7.5H36.5V5.5H4.5ZM4 4C3.44772 4 3 4.44772 3 5V9H38V5C38 4.44772 37.5523 4 37 4H4Z" fill="#FF713C"/>
<mask id="mask0" mask-type="alpha" maskUnits="userSpaceOnUse" x="6" y="12" width="12" height="9">
<path fill-rule="evenodd" clip-rule="evenodd" d="M6 12H17.9427V20.4394H6V12Z" fill="white"/>
</mask>
<g mask="url(#mask0)">
<path fill-rule="evenodd" clip-rule="evenodd" d="M16.4528 17.6357H14.7701V19.6308C15.175 19.6308 15.5714 19.6323 15.9677 19.6275C15.9948 19.6273 16.0394 19.5851 16.0458 19.5557C16.1832 18.9201 16.3163 18.2836 16.4528 17.6357V17.6357ZM9.5072 17.6306C9.5072 17.6615 9.50195 17.6928 9.50795 17.7218C9.63423 18.3305 9.76276 18.9385 9.88742 19.5475C9.90129 19.615 9.92977 19.6326 9.9946 19.6321C10.3661 19.6294 10.7377 19.6307 11.1092 19.6305C11.1295 19.6304 11.1498 19.627 11.1713 19.6249V17.6306H9.5072ZM11.9775 19.6245H13.9564V17.6337H11.9775V19.6245ZM11.9799 16.8148H13.9553V14.8218H11.9799V16.8148ZM9.31473 16.8098H11.1729V14.8213H8.90015C9.03968 15.4907 9.17733 16.1506 9.31473 16.8098V16.8098ZM16.6283 16.8128C16.7702 16.149 16.9115 15.4877 17.0542 14.8198H14.7674V16.8128H16.6283ZM7.6629 12.8087H7.0587C6.84773 12.8087 6.63676 12.8131 6.42591 12.8075C6.11888 12.7993 5.93176 12.549 6.02332 12.2749C6.07353 12.1246 6.17983 12.0361 6.33385 12.0117C6.40405 12.0004 6.47637 12.0008 6.5477 12.0007C7.00537 11.9998 7.46304 11.9998 7.92071 12.0004C8.20026 12.0008 8.33442 12.1115 8.39188 12.3855C8.49693 12.8861 8.6061 13.386 8.70403 13.8881C8.72489 13.9949 8.76823 14.0146 8.86604 14.0144C11.7266 14.0119 14.5872 14.0123 17.4478 14.0133C17.5222 14.0133 17.6005 14.0127 17.6702 14.0346C17.8772 14.0996 17.9789 14.2951 17.9311 14.5252C17.8526 14.9022 17.7704 15.2784 17.6904 15.6552C17.379 17.1197 17.0673 18.5841 16.7566 20.0489C16.6992 20.3201 16.5623 20.4388 16.288 20.4388C14.0818 20.4395 11.8755 20.4395 9.66921 20.4389C9.37792 20.4388 9.23752 20.3245 9.17944 20.0469C8.68229 17.6716 8.18527 15.2961 7.68813 12.9207C7.68089 12.8859 7.67252 12.8514 7.6629 12.8087V12.8087Z" fill="#FF713C"/>
</g>
<path fill-rule="evenodd" clip-rule="evenodd" d="M9.51348 22.4056C9.51892 22.8536 9.85268 23.1792 10.3024 23.1754C10.7129 23.1719 11.0613 22.8148 11.0535 22.4053C11.0454 21.9767 10.6971 21.6322 10.2754 21.6357C9.85365 21.6392 9.5084 21.9879 9.51348 22.4056M8.74072 22.3982C8.74181 21.5549 9.4398 20.8631 10.286 20.8667C11.1366 20.8703 11.8275 21.5676 11.8242 22.4192C11.8211 23.2607 11.1153 23.9586 10.276 23.9501C9.41694 23.9417 8.73964 23.2568 8.74072 22.3982" fill="#FF713C"/>
<mask id="mask1" mask-type="alpha" maskUnits="userSpaceOnUse" x="13" y="20" width="4" height="4">
<path fill-rule="evenodd" clip-rule="evenodd" d="M13.6079 20.9263H16.8474V23.9504H13.6079V20.9263Z" fill="white"/>
</mask>
<g mask="url(#mask1)">
<path fill-rule="evenodd" clip-rule="evenodd" d="M15.2243 23.1905C15.6707 23.1905 16.034 22.8586 16.0368 22.448C16.0397 22.0277 15.6693 21.6783 15.2234 21.6806C14.7888 21.6827 14.4179 22.0245 14.4177 22.4229C14.4177 22.856 14.769 23.1904 15.2243 23.1905M15.2276 23.9504C14.3308 23.9512 13.6039 23.2663 13.6079 22.424C13.6117 21.6031 14.3405 20.9283 15.2253 20.9263C16.1141 20.9243 16.8438 21.6067 16.8474 22.4429C16.8508 23.2649 16.1153 23.9494 15.2276 23.9504" fill="#FF713C"/>
</g>
<path fill-rule="evenodd" clip-rule="evenodd" d="M20 14.5C20 14.2239 20.2239 14 20.5 14H33.5C33.7761 14 34 14.2239 34 14.5C34 14.7761 33.7761 15 33.5 15H20.5C20.2239 15 20 14.7761 20 14.5Z" fill="#FF713C"/>
<path fill-rule="evenodd" clip-rule="evenodd" d="M20 17.5C20 17.2239 20.2239 17 20.5 17H33.5C33.7761 17 34 17.2239 34 17.5C34 17.7761 33.7761 18 33.5 18H20.5C20.2239 18 20 17.7761 20 17.5Z" fill="#FF713C"/>
<path fill-rule="evenodd" clip-rule="evenodd" d="M20 20.5C20 20.2239 20.2239 20 20.5 20H27C27.2761 20 27.5 20.2239 27.5 20.5C27.5 20.7761 27.2761 21 27 21H20.5C20.2239 21 20 20.7761 20 20.5Z" fill="#FF713C"/>
<path fill-rule="evenodd" clip-rule="evenodd" d="M28.5 20.5C28.5 20.2239 28.7239 20 29 20H33.5C33.7761 20 34 20.2239 34 20.5C34 20.7761 33.7761 21 33.5 21H29C28.7239 21 28.5 20.7761 28.5 20.5Z" fill="#FF713C"/>
</svg>
