<svg width="132" height="137" viewBox="0 0 132 137" fill="none" xmlns="http://www.w3.org/2000/svg">
<path d="M105.469 21.2591L103.822 20.7667L103.515 21.6051C102.932 21.5568 102.36 21.6255 101.824 21.7936L101.312 21.0429L99.8346 21.8792L100.204 22.7115C99.7822 23.0857 99.4258 23.5421 99.1635 24.0694L98.294 23.8972L97.8531 25.5725L98.68 25.9075C98.6468 26.503 98.7282 27.0905 98.9056 27.6434L98.1843 28.1499L99.0378 29.6829L99.8418 29.3253C100.218 29.766 100.673 30.1419 101.194 30.4236L101.047 31.3098L102.695 31.8023L103.001 30.9638C103.585 31.0122 104.157 30.9432 104.693 30.7751L105.205 31.5261L106.682 30.6896L106.313 29.8573C106.734 29.4833 107.091 29.0266 107.353 28.4996L108.223 28.6716L108.664 26.9963L107.837 26.6616C107.87 26.0658 107.788 25.4785 107.611 24.9254L108.332 24.4189L107.479 22.8861L106.675 23.2434C106.299 22.8027 105.844 22.4271 105.322 22.1453L105.469 21.2591ZM105.489 26.9511C105.159 28.2034 103.893 28.9206 102.661 28.5524C101.43 28.1843 100.698 26.8703 101.028 25.6179C101.358 24.3653 102.623 23.6484 103.855 24.0166C105.087 24.3847 105.818 25.6985 105.489 26.9511Z" fill="#1E4587" fill-opacity="0.05"/>
<path d="M101.501 32.8688C101.296 32.4555 101.017 32.0979 100.687 31.8043L100.976 31.1524L99.819 30.4973L99.4174 31.0858C98.9975 30.9543 98.549 30.9 98.0924 30.9381L97.8521 30.2811L96.5611 30.6673L96.6761 31.3618C96.2675 31.5826 95.9111 31.8776 95.6163 32.2229L94.9863 31.9431L94.3176 33.1443L94.8824 33.5409C94.7436 33.9747 94.6796 34.4349 94.7055 34.9019L94.0575 35.1645L94.4026 36.4773L95.0841 36.3419C95.2897 36.7552 95.5687 37.113 95.8987 37.4063L95.6096 38.0583L96.7664 38.7137L97.1681 38.1252C97.5882 38.2566 98.0364 38.3107 98.493 38.2726L98.7334 38.9298L100.024 38.5436L99.9093 37.8489C100.318 37.6281 100.675 37.3332 100.969 36.988L101.599 37.2679L102.268 36.0664L101.703 35.6698C101.842 35.2362 101.906 34.7758 101.88 34.3088L102.528 34.0464L102.183 32.7337L101.501 32.8688ZM98.7599 36.3825C97.7948 36.6712 96.803 36.1098 96.5449 35.1281C96.2869 34.1469 96.8603 33.117 97.8255 32.8282C98.7906 32.5395 99.7824 33.1012 100.04 34.0824C100.299 35.0641 99.7251 36.0937 98.7599 36.3825Z" fill="#1E4587" fill-opacity="0.05"/>
<path d="M91.5538 29.0706L91.0792 29.4038L91.641 30.4127L92.1702 30.1774C92.4176 30.4677 92.7173 30.715 93.0604 30.9004L92.9637 31.484L94.0478 31.8081L94.2498 31.256C94.6336 31.2879 95.0099 31.2427 95.3629 31.1319L95.7001 31.6262L96.6721 31.0759L96.4293 30.5282C96.7066 30.2819 96.9411 29.9811 97.1138 29.634L97.6863 29.7477L97.9762 28.6448L97.432 28.4247C97.454 28.0325 97.4001 27.6458 97.2834 27.2817L97.7581 26.9482L97.1962 25.9394L96.667 26.1748C96.4196 25.8846 96.1202 25.6374 95.7768 25.4519L95.8735 24.8683L94.7895 24.5442L94.5874 25.0963C94.2039 25.0645 93.8273 25.1096 93.4744 25.2203L93.1372 24.7259L92.1651 25.2761L92.4079 25.8241C92.1307 26.0704 91.8962 26.3709 91.7235 26.718L91.1512 26.6044L90.8611 27.7072L91.4056 27.9274C91.3835 28.3196 91.4371 28.7065 91.5538 29.0706ZM94.8113 26.6834C95.6222 26.9259 96.1034 27.7907 95.8865 28.6151C95.6697 29.4394 94.8368 29.9113 94.0259 29.6689C93.2153 29.4265 92.7338 28.5616 92.9506 27.7374C93.1675 26.9129 94.0007 26.4411 94.8113 26.6834Z" fill="#1E4587" fill-opacity="0.05"/>
<path d="M111.695 85.4157H95.8615V74.7275H111.695V85.4157Z" fill="#AAD6E6"/>
<path d="M111.116 84.8813H96.441V76.7314H111.116V84.8813Z" fill="#FEFEFE"/>
<path d="M108.492 78.3H97.6371V77.9492H108.492V78.3Z" fill="#AAD6E6"/>
<path d="M102.845 79.3732H97.6366V79.0225H102.845V79.3732Z" fill="#AAD6E6"/>
<path d="M104.197 80.4474H97.6371V80.0967H104.197V80.4474Z" fill="#AAD6E6"/>
<path d="M99.9487 81.5206H97.6371V81.1699H99.9487V81.5206Z" fill="#AAD6E6"/>
<path d="M99.134 82.5949H97.6371V82.2441H99.134V82.5949Z" fill="#AAD6E6"/>
<path d="M30.6118 81.306L19.3453 81.3591L19.3136 74.1469L30.5801 74.0938L30.6118 81.306Z" fill="#AAD6E6"/>
<path d="M23.6358 79.546C23.5875 79.546 23.5389 79.5306 23.497 79.4988L21.4409 77.9403C21.3805 77.8943 21.3448 77.8214 21.3443 77.7436C21.344 77.6658 21.3794 77.5926 21.4393 77.5463L23.4814 75.9684C23.5859 75.8875 23.7338 75.9103 23.8114 76.0185C23.889 76.1267 23.8676 76.2805 23.7631 76.361L21.9774 77.7406L23.7752 79.1037C23.8803 79.1835 23.9033 79.3364 23.8267 79.4457C23.7802 79.5112 23.7087 79.546 23.6358 79.546Z" fill="#FBFCFC"/>
<path d="M26.3035 79.5336C26.2317 79.5336 26.1602 79.4996 26.114 79.4352C26.0361 79.3265 26.0578 79.1733 26.1623 79.0927L27.9477 77.7126L26.1504 76.35C26.0453 76.27 26.0224 76.1171 26.0992 76.0078C26.176 75.8985 26.3236 75.8746 26.4287 75.9544L28.4842 77.5131C28.5446 77.5589 28.5803 77.6321 28.5805 77.7096C28.5811 77.7871 28.5462 77.8606 28.486 77.9069L26.444 79.4848C26.4017 79.5177 26.3526 79.5336 26.3035 79.5336Z" fill="#FBFCFC"/>
<path d="M24.4331 79.5415C24.4073 79.5415 24.3811 79.5372 24.3553 79.5278C24.2322 79.4832 24.1675 79.3434 24.2106 79.216L25.2695 76.0741C25.3125 75.9467 25.4469 75.8793 25.5699 75.9239C25.6929 75.9686 25.7579 76.1081 25.7146 76.2358L24.6557 79.3774C24.6216 79.4785 24.5305 79.5415 24.4331 79.5415Z" fill="#FBFCFC"/>
<path d="M112.758 96.489C112.758 98.0193 92.2889 99.26 67.0389 99.26C41.7891 99.26 21.3199 98.0193 21.3199 96.489C21.3199 94.9584 41.7891 93.7178 67.0389 93.7178C92.2889 93.7178 112.758 94.9584 112.758 96.489Z" fill="#AAD6E6"/>
<path d="M53.9168 96.3147H38.0831V85.626H53.9168V96.3147Z" fill="#4057A5"/>
<path d="M53.9168 96.3147H38.0831V85.626H53.9168V96.3147Z" fill="#AAD6E6"/>
<path d="M53.3375 95.7797H38.6623V87.6299H53.3375V95.7797Z" fill="#509CAB"/>
<path d="M50.7139 89.1981H39.8582V88.8477H50.7139V89.1981Z" fill="#FEC920"/>
<path d="M45.0669 90.2723H39.8582V89.9219H45.0669V90.2723Z" fill="#FEFEFE"/>
<path d="M46.418 91.3458H39.8582V90.9951H46.418V91.3458Z" fill="#FEFEFE"/>
<path d="M42.1703 92.4198H39.8582V92.0693H42.1703V92.4198Z" fill="#FEC920"/>
<path d="M41.3556 93.493H39.8582V93.1426H41.3556V93.493Z" fill="#FEFEFE"/>
<path d="M73.4839 96.4894H60.5935L62.7763 78.7051H71.3011L73.4839 96.4894Z" fill="#4057A5"/>
<path d="M73.4831 96.4896H60.5938L62.0873 84.3226L62.7766 78.7051H71.3001L72.3175 86.9922L73.4831 96.4896Z" fill="#1E4587"/>
<path d="M72.3176 86.9922L62.0876 84.3226L62.7766 78.7051H71.3001L72.3176 86.9922Z" fill="#060505" fill-opacity="0.1"/>
<path d="M97.4249 34.8525H96.1369H37.9399H36.6516C35.7928 34.8525 35.0964 35.5754 35.0964 36.4669V79.1677C35.0964 80.059 35.7928 80.7821 36.6516 80.7821H37.9399H96.1369H97.4249C98.284 80.7821 98.9804 80.059 98.9804 79.1677V36.4669C98.9804 35.5754 98.284 34.8525 97.4249 34.8525Z" fill="#4057A5"/>
<path d="M97.4249 34.8525H96.1369H37.9399H36.6516C35.7928 34.8525 35.0964 35.5754 35.0964 36.4669V79.1677C35.0964 80.059 35.7928 80.7821 36.6516 80.7821H37.9399H96.1369H97.4249C98.284 80.7821 98.9804 80.059 98.9804 79.1677V36.4669C98.9804 35.5754 98.284 34.8525 97.4249 34.8525Z" fill="#1E4587"/>
<path d="M96.9349 77.6088H37.1431V36.4326H96.9349V77.6088Z" fill="#AAD6E6"/>
<path d="M77.8347 95.1533H56.2429C56.0916 95.1533 55.9691 95.2805 55.9691 95.4372V96.1841C55.9691 96.3408 56.0914 96.468 56.2424 96.468H77.8347C77.9857 96.468 78.1082 96.3408 78.1082 96.1841V95.4372C78.1082 95.2805 77.9857 95.1533 77.8347 95.1533Z" fill="#4057A5"/>
<path d="M77.8347 95.1533H56.2429C56.0916 95.1533 55.9691 95.2805 55.9691 95.4372V96.1841C55.9691 96.3408 56.0914 96.468 56.2424 96.468H77.8347C77.9857 96.468 78.1082 96.3408 78.1082 96.1841V95.4372C78.1082 95.2805 77.9857 95.1533 77.8347 95.1533Z" fill="#1E4587"/>
<path d="M96.9349 42.6097H37.1431V36.4727H96.9349V42.6097Z" fill="#060505" fill-opacity="0.2"/>
<path d="M37.1432 77.6091H62.7657V42.6823H37.1432V77.6091ZM0 0H132V137H0V0ZM0 137H132V0H0V137Z" fill="#FEFEFE" fill-opacity="0.4"/>
<path d="M85.649 45.7368H80.2847C80.0089 45.7368 79.7847 45.5044 79.7847 45.2178V43.8117C79.7847 43.525 80.0086 43.293 80.2847 43.293H85.649C85.9251 43.293 86.149 43.5253 86.149 43.8117V45.2178C86.149 45.5044 85.9251 45.7368 85.649 45.7368Z" fill="#FEFEFE" fill-opacity="0.7"/>
<path d="M76.2168 45.7368H70.8528C70.5767 45.7368 70.3528 45.5044 70.3528 45.2178V43.8117C70.3528 43.525 70.5767 43.293 70.8528 43.293H76.2168C76.4929 43.293 76.7168 43.5253 76.7168 43.8117V45.2178C76.7168 45.5044 76.4929 45.7368 76.2168 45.7368Z" fill="#FEFEFE" fill-opacity="0.7"/>
<path d="M64.0736 75.4936H58.7094C58.4333 75.4936 58.2097 75.2613 58.2097 74.9747V73.5688C58.2097 73.2822 58.4333 73.0498 58.7094 73.0498H64.0736C64.3498 73.0498 64.5737 73.2822 64.5737 73.5688V74.9747C64.5737 75.2613 64.3498 75.4936 64.0736 75.4936Z" fill="#FEFEFE" fill-opacity="0.7"/>
<path d="M92.9896 38.6543H94.9796" stroke="#FEFEFE" stroke-width="1.5" stroke-linecap="round" stroke-linejoin="round"/>
<path d="M92.9896 39.6338H94.9796" stroke="#FEFEFE" stroke-width="1.5" stroke-linecap="round" stroke-linejoin="round"/>
<path d="M92.9896 40.6123H94.9796" stroke="#FEFEFE" stroke-width="1.5" stroke-linecap="round" stroke-linejoin="round"/>
<path d="M41.1967 68.9113H61.2522V48.0963H41.1967V68.9113ZM0 0H132V137H0V0ZM0 137H132V0H0V137Z" fill="#FEFEFE" fill-opacity="0.5"/>
<path d="M82.8202 73.3458H76.7492C75.7801 73.3458 74.9947 72.5304 74.9947 71.5248C74.9947 70.5195 75.7801 69.7041 76.7492 69.7041H82.8202C83.7893 69.7041 84.5747 70.5195 84.5747 71.5248C84.5747 72.5304 83.7893 73.3458 82.8202 73.3458Z" fill="#FEC920"/>
<path d="M88.1546 57.8174H69.3992C69.1875 57.8174 69.0159 57.6393 69.0159 57.4196C69.0159 57.1999 69.1875 57.0215 69.3992 57.0215H88.1546C88.3666 57.0215 88.5382 57.1999 88.5382 57.4196C88.5382 57.6393 88.3666 57.8174 88.1546 57.8174Z" fill="#FEFEFE" fill-opacity="0.7"/>
<path d="M88.1546 60.7237H69.3992C69.1875 60.7237 69.0159 60.5456 69.0159 60.3259C69.0159 60.1061 69.1875 59.9277 69.3992 59.9277H88.1546C88.3666 59.9277 88.5382 60.1061 88.5382 60.3259C88.5382 60.5456 88.3666 60.7237 88.1546 60.7237Z" fill="#FEFEFE" fill-opacity="0.7"/>
<path d="M88.1543 63.6309H76.4729C76.2612 63.6309 76.0896 63.4528 76.0896 63.2328C76.0896 63.0131 76.2612 62.835 76.4729 62.835H88.1543C88.3663 62.835 88.5379 63.0131 88.5379 63.2328C88.5379 63.4528 88.3663 63.6309 88.1543 63.6309Z" fill="#FEFEFE" fill-opacity="0.7"/>
<path d="M39.0316 39.5486H40.3566V38.1737H39.0316V39.5486ZM0 0H132V137H0V0ZM0 137H132V0H0V137Z" fill="#060505" fill-opacity="0.4"/>
<path d="M42.5528 39.549H41.9879C41.778 39.549 41.608 39.3723 41.608 39.1545V38.5684C41.608 38.3503 41.778 38.1738 41.9879 38.1738H42.5528C42.7627 38.1738 42.9327 38.3506 42.9327 38.5684V39.1545C42.9327 39.3723 42.7627 39.549 42.5528 39.549Z" fill="#060505" fill-opacity="0.4"/>
<path d="M44.8465 39.549C44.4806 39.549 44.1841 39.2411 44.1841 38.8616V38.8613C44.1841 38.4815 44.4806 38.1738 44.8465 38.1738C45.2124 38.1738 45.5089 38.4815 45.5089 38.8616C45.5089 39.2411 45.2124 39.549 44.8465 39.549Z" fill="#060505" fill-opacity="0.4"/>
<path d="M45.8877 36.4336L37.0263 70.7987V36.4336H45.8877Z" fill="#FEFEFE" fill-opacity="0.1"/>
<path d="M55.8877 36.4326L45.2697 77.6088H37.9553L48.571 36.4326H55.8877Z" fill="#FEFEFE" fill-opacity="0.1"/>
<path d="M66.5224 36.4326L55.9043 77.6088H52.5959L63.214 36.4326H66.5224Z" fill="#FEFEFE" fill-opacity="0.1"/>
<path d="M76.3153 36.4326L65.6973 77.6088H64.5135L75.1315 36.4326H76.3153Z" fill="#FEFEFE" fill-opacity="0.1"/>
<path d="M42.3231 73.2673L42.7171 72.9186L42.5644 72.6922C42.6731 72.5471 42.7514 72.3845 42.8 72.214L43.0678 72.2089L43.1103 71.6751L42.8467 71.6276C42.8257 71.452 42.7741 71.279 42.6897 71.1182L42.8763 70.9188L42.5424 70.5121L42.3233 70.6719C42.1837 70.5599 42.0274 70.4796 41.8637 70.4303L41.8604 70.1525L41.3459 70.1113L41.2988 70.3853C41.129 70.4081 40.9619 70.4626 40.8067 70.5512L40.6157 70.3587L40.2216 70.7075L40.3744 70.9338C40.2654 71.0791 40.1871 71.2418 40.1387 71.412L39.8707 71.4169L39.8282 71.9512L40.092 71.9984C40.1129 72.1742 40.1645 72.3472 40.2491 72.5079L40.0622 72.7074L40.3961 73.1141L40.6154 72.9541C40.7548 73.0663 40.9111 73.1466 41.075 73.1958L41.0782 73.4738L41.5927 73.5145L41.64 73.2407C41.8096 73.2181 41.9767 73.1636 42.132 73.0749L42.3231 73.2673ZM40.9359 72.2852C40.6863 71.9812 40.7228 71.5231 41.0171 71.2625C41.3119 71.0017 41.7531 71.037 42.0026 71.341C42.2522 71.645 42.2158 72.1028 41.921 72.3636C41.6267 72.6242 41.1855 72.5892 40.9359 72.2852Z" fill="#FEFEFE" fill-opacity="0.9"/>
<path d="M44.8912 72.5179L44.5825 72.2447L44.4329 72.3956C44.3113 72.326 44.1804 72.2834 44.0471 72.2656L44.0105 72.0508L43.6071 72.0829L43.6046 72.3008C43.4762 72.3394 43.3535 72.4024 43.2446 72.4902L43.073 72.3649L42.8113 72.6837L42.9576 72.8398C42.8912 72.9656 42.8507 73.1013 42.8343 73.2391L42.6276 73.2761L42.6611 73.6947L42.8709 73.6984C42.9089 73.8322 42.9703 73.9594 43.0556 74.0733L42.9358 74.2506L43.2445 74.5238L43.3945 74.3733C43.5161 74.4425 43.6471 74.4855 43.7801 74.5031L43.8169 74.7177L44.2201 74.6857L44.2226 74.4679C44.351 74.4293 44.4737 74.3662 44.5828 74.2783L44.7546 74.4037L45.0163 74.085L44.8698 73.9287C44.936 73.8031 44.9765 73.6673 44.9929 73.5296L45.1997 73.4925L45.1663 73.0738L44.9563 73.0703C44.9185 72.9367 44.8571 72.8091 44.7718 72.6955L44.8912 72.5179ZM44.3315 73.7543C44.1359 73.9926 43.7902 74.0201 43.5595 73.8159C43.3284 73.6114 43.3 73.2527 43.4957 73.0144C43.6913 72.7761 44.0369 72.7484 44.2679 72.9529C44.4986 73.1571 44.5272 73.516 44.3315 73.7543Z" fill="#FEFEFE" fill-opacity="0.6"/>
<path d="M42.5866 75.5672L42.8458 75.3377L42.7452 75.1887C42.817 75.0932 42.8684 74.9859 42.9006 74.8737L43.0764 74.8706L43.1046 74.5189L42.9313 74.4878C42.9175 74.3722 42.8833 74.2581 42.8279 74.1524L42.9506 74.0214L42.7308 73.7535L42.5869 73.8587C42.495 73.7849 42.3921 73.732 42.2843 73.6993L42.2821 73.5166L41.9433 73.4898L41.9127 73.6699C41.8008 73.6849 41.6909 73.7209 41.5887 73.7794L41.463 73.6526L41.2038 73.8821L41.3041 74.0311C41.2324 74.1268 41.1808 74.2339 41.1493 74.3459L40.9728 74.3491L40.9448 74.7007L41.1184 74.7316C41.132 74.8478 41.166 74.9617 41.2218 75.0674L41.0988 75.1986L41.3186 75.4665L41.4628 75.3611C41.5542 75.4349 41.6573 75.488 41.7654 75.5201L41.7673 75.703L42.1059 75.7299L42.1371 75.5497C42.2484 75.5348 42.3585 75.4991 42.4607 75.4406L42.5866 75.5672ZM41.6738 74.9207C41.5096 74.7206 41.5334 74.4191 41.7272 74.2475C41.9212 74.0757 42.2116 74.099 42.3758 74.2991C42.54 74.4992 42.5162 74.8007 42.3222 74.9725C42.1284 75.1441 41.838 75.1208 41.6738 74.9207Z" fill="#FEFEFE" fill-opacity="0.4"/>
<path d="M90.33 51.8789V52.2466H89.5945" stroke="#FEFEFE" stroke-width="0.7733" stroke-miterlimit="10"/>
<path d="M88.0316 52.2471H66.933" stroke="#FEFEFE" stroke-width="0.7733" stroke-miterlimit="10" stroke-dasharray="4.11 4.11"/>
<path d="M66.1516 52.2466H65.4162V51.8789" stroke="#FEFEFE" stroke-width="0.7733" stroke-miterlimit="10"/>
<path d="M65.4162 51.1604V45.7725" stroke="#FEFEFE" stroke-width="0.7733" stroke-miterlimit="10" stroke-dasharray="3.78 3.78"/>
<path d="M65.4162 45.4135V45.0459H66.1516" stroke="#FEFEFE" stroke-width="0.7733" stroke-miterlimit="10"/>
<path d="M67.7145 45.0459H88.8131" stroke="#FEFEFE" stroke-width="0.7733" stroke-miterlimit="10" stroke-dasharray="4.11 4.11"/>
<path d="M89.5945 45.0459H90.33V45.4135" stroke="#FEFEFE" stroke-width="0.7733" stroke-miterlimit="10"/>
<path d="M90.3299 46.1318V51.5196" stroke="#FEFEFE" stroke-width="0.7733" stroke-miterlimit="10" stroke-dasharray="3.78 3.78"/>
<path d="M89.9137 45.2543H90.7462V44.8379H89.9137V45.2543Z" fill="#4057A5"/>
<path d="M89.9137 45.2543H90.7462V44.8379H89.9137V45.2543Z" stroke="#FEFEFE" stroke-width="0.7733" stroke-miterlimit="10"/>
<path d="M89.9137 52.4545H90.7462V52.0381H89.9137V52.4545Z" fill="#4057A5"/>
<path d="M89.9137 52.4545H90.7462V52.0381H89.9137V52.4545Z" stroke="#FEFEFE" stroke-width="0.7733" stroke-miterlimit="10"/>
<path d="M64.9997 45.2543H65.8328V44.8379H64.9997V45.2543Z" fill="#4057A5"/>
<path d="M64.9997 45.2543H65.8328V44.8379H64.9997V45.2543Z" stroke="#FEFEFE" stroke-width="0.7733" stroke-miterlimit="10"/>
<path d="M64.9997 52.4545H65.8328V52.0381H64.9997V52.4545Z" fill="#4057A5"/>
<path d="M64.9997 52.4545H65.8328V52.0381H64.9997V52.4545Z" stroke="#FEFEFE" stroke-width="0.7733" stroke-miterlimit="10"/>
<path d="M77.4568 45.2543H78.2899V44.8379H77.4568V45.2543Z" fill="#4057A5"/>
<path d="M77.4568 45.2543H78.2899V44.8379H77.4568V45.2543Z" stroke="#FEFEFE" stroke-width="0.7733" stroke-miterlimit="10"/>
<path d="M77.4568 52.4545H78.2899V52.0381H77.4568V52.4545Z" fill="#4057A5"/>
<path d="M77.4568 52.4545H78.2899V52.0381H77.4568V52.4545Z" stroke="#FEFEFE" stroke-width="0.7733" stroke-miterlimit="10"/>
<path d="M89.9137 48.8549H90.7462V48.4385H89.9137V48.8549Z" fill="#4057A5"/>
<path d="M89.9137 48.8549H90.7462V48.4385H89.9137V48.8549Z" stroke="#FEFEFE" stroke-width="0.7733" stroke-miterlimit="10"/>
<path d="M64.9997 48.8549H65.8328V48.4385H64.9997V48.8549Z" fill="#4057A5"/>
<path d="M64.9997 48.8549H65.8328V48.4385H64.9997V48.8549Z" stroke="#FEFEFE" stroke-width="0.7733" stroke-miterlimit="10"/>
<path d="M57.8674 50.1871H58.6151V49.4111H57.8674V50.1871Z" stroke="#060505" stroke-opacity="0.8" stroke-miterlimit="10"/>
<path d="M57.8674 68.1402H58.6151V67.3643H57.8674V68.1402Z" stroke="#060505" stroke-opacity="0.8" stroke-miterlimit="10"/>
<path d="M49.2182 59.1637H49.9659V58.3877H49.2182V59.1637Z" stroke="#060505" stroke-opacity="0.8" stroke-miterlimit="10"/>
<path d="M58.2412 67.7524C53.4644 67.7524 49.592 63.7334 49.592 58.7756C49.592 53.8179 53.4644 49.7988 58.2412 49.7988" stroke="#060505" stroke-miterlimit="10"/>
<path d="M49.5922 49.7988V67.7524" stroke="#060505" stroke-miterlimit="10"/>
<path d="M49.7859 49.7985C49.7859 49.9095 49.6991 49.9993 49.5922 49.9993C49.4852 49.9993 49.3984 49.9095 49.3984 49.7985C49.3984 49.6873 49.4852 49.5977 49.5922 49.5977C49.6991 49.5977 49.7859 49.6873 49.7859 49.7985Z" stroke="#060505" stroke-miterlimit="10"/>
<path d="M49.7859 67.7519C49.7859 67.8629 49.6991 67.953 49.5922 67.953C49.4852 67.953 49.3984 67.8629 49.3984 67.7519C49.3984 67.6407 49.4852 67.5508 49.5922 67.5508C49.6991 67.5508 49.7859 67.6407 49.7859 67.7519Z" stroke="#060505" stroke-miterlimit="10"/>
<path d="M90.1029 44.6416L91.1032 47.4167L92.7761 45.6803L90.1029 44.6416Z" fill="#4057A5"/>
<path d="M92.5404 46.7846L92.1676 47.1715L91.3391 46.3117L91.7119 45.9248L92.5404 46.7846Z" fill="#4057A5"/>
<path d="M92.7767 45.6808L90.1029 44.6426L91.1032 47.4171L91.7537 46.7425L92.1676 47.1724L92.5404 46.7855L92.1262 46.3556L92.7767 45.6808Z" fill="#1E4587"/>
<path d="M113.83 45.8608C114.625 46.9065 118.516 55.6271 117.6 57.561C116.685 59.4952 109.938 56.8298 109.938 56.8298L110.474 54.0584C110.474 54.0584 113.131 54.3037 113.398 54.0578C113.664 53.8122 109.988 49.6308 109.988 49.6308L113.83 45.8608Z" fill="#11171E"/>
<path d="M117.6 57.5623C117.496 57.7838 117.315 57.9448 117.077 58.056C117.075 58.0559 117.073 58.0582 117.07 58.0605C117.026 58.0802 116.978 58.0994 116.93 58.1165C116.925 58.1184 116.918 58.1204 116.91 58.1225C116.87 58.1374 116.824 58.1519 116.778 58.1616C116.598 58.2126 116.397 58.243 116.181 58.2552C116.124 58.2594 116.067 58.2612 116.007 58.2628C115.922 58.2654 115.836 58.2655 115.748 58.2628C115.675 58.2612 115.599 58.2597 115.524 58.2554C113.228 58.1294 109.938 56.8314 109.938 56.8314L110.474 54.0575C110.474 54.0575 113.13 54.3038 113.397 54.0572C113.461 53.9973 113.292 53.7043 113 53.2945L112.995 53.2893C112.285 52.2941 110.85 50.6229 110.257 49.9396C110.09 49.7469 109.988 49.6309 109.988 49.6309L113.829 45.8617C114.624 46.9058 118.516 55.6262 117.6 57.5623Z" fill="#509CAB"/>
<path d="M117.072 58.0589C117.07 58.0587 117.067 58.0611 117.065 58.0634C117.021 58.0831 116.973 58.1023 116.925 58.1191C116.92 58.1213 116.913 58.1233 116.905 58.1254C116.864 58.1403 116.819 58.1548 116.773 58.1645C116.593 58.2155 116.393 58.2459 116.176 58.2582C116.119 58.2624 116.062 58.2641 116.003 58.2657C115.917 58.2681 115.832 58.2685 115.744 58.2658C115.671 58.2642 115.595 58.2624 115.519 58.2582C113.225 58.1326 109.938 56.8346 109.938 56.8346L110.474 54.061C110.474 54.061 113.456 54.4891 113.723 54.2424C113.728 54.238 113.729 54.2353 113.731 54.2308C113.783 54.1311 113.467 53.7662 112.998 53.2978L112.993 53.2926C112.284 52.2972 110.849 50.6262 110.257 49.9429L112.074 48.1332L113.398 48.0602C113.398 48.0602 116.088 53.0768 117.072 58.0589Z" fill="#060505" fill-opacity="0.2"/>
<path d="M105.213 45.1206C104.723 45.4483 104.467 45.9377 104.641 46.2131L116.337 64.6666C116.512 64.9417 117.05 64.8995 117.541 64.5714C118.031 64.2437 118.287 63.7543 118.112 63.4789L106.417 45.0254C106.242 44.7503 105.704 44.7925 105.213 45.1206Z" fill="#11171E"/>
<path d="M106.416 45.025L118.112 63.4788C118.286 63.7536 118.03 64.2432 117.54 64.5702C117.05 64.8988 116.512 64.9402 116.338 64.6654L104.642 46.2116C104.546 46.0599 104.581 45.8438 104.715 45.6231C104.776 45.5204 104.861 45.414 104.966 45.3173C105.038 45.2488 105.122 45.181 105.213 45.1201C105.702 44.7929 106.242 44.7502 106.416 45.025Z" fill="#FEFEFE" fill-opacity="0.7"/>
<path d="M118.109 63.4821C118.283 63.7569 118.027 64.2466 117.538 64.5736C117.047 64.9022 116.51 64.9437 116.336 64.6688C116.24 64.5171 116.508 64.311 116.672 63.9989L104.717 45.6247C104.778 45.522 104.863 45.4156 104.968 45.3189L116.661 63.7767C116.735 63.7067 116.816 63.6381 116.907 63.5773C117.396 63.2499 117.935 63.2073 118.109 63.4821Z" fill="#060505" fill-opacity="0.3"/>
<path d="M103.835 44.5507C103.415 44.9687 103.254 45.4989 103.476 45.7351L118.321 61.5773C118.542 61.8137 119.062 61.6664 119.482 61.2485C119.902 60.8308 120.063 60.3006 119.841 60.0641L104.996 44.2222C104.774 43.9857 104.255 44.1328 103.835 44.5507Z" fill="#4057A5"/>
<path d="M104.996 44.2227L119.841 60.0646C120.062 60.3005 119.9 60.8315 119.482 61.2484C119.062 61.6669 118.543 61.8126 118.321 61.5767L103.476 45.7346C103.355 45.6045 103.349 45.3853 103.439 45.1425C103.481 45.0295 103.544 44.9084 103.629 44.7931C103.687 44.7116 103.757 44.6286 103.835 44.5507C104.254 44.1341 104.774 43.9868 104.996 44.2227Z" fill="#AAD6E6"/>
<path d="M119.837 60.0673C120.058 60.3032 119.897 60.8343 119.479 61.251C119.058 61.6695 118.54 61.8152 118.319 61.5793C118.197 61.4493 118.421 61.1942 118.525 60.8556L103.441 45.1442C103.483 45.0315 103.546 44.9104 103.631 44.7949L118.473 60.6396C118.533 60.5563 118.599 60.4733 118.677 60.3954C119.096 59.9787 119.616 59.8315 119.837 60.0673Z" fill="#060505" fill-opacity="0.3"/>
<path d="M115.492 92.497L114.316 92.6794C112.164 86.5599 110.209 78.7549 108.949 73.3061C108.754 72.4617 108.575 71.6718 108.415 70.9561C108.407 70.9191 108.401 70.8846 108.392 70.8501C108.076 69.4287 107.834 68.2962 107.683 67.5784C107.568 67.0159 107.504 66.7078 107.504 66.7078L111.758 66.1189L111.94 67.9611L112.209 70.6675L112.261 71.1982L112.443 73.0426L112.93 77.9892C115.179 83.6254 115.492 92.497 115.492 92.497Z" fill="#FCBAA9"/>
<path d="M112.231 70.6598L108.455 70.9481C108.447 70.9112 108.441 70.8768 108.433 70.8423C108.118 69.4248 107.877 68.295 107.727 67.5791L111.964 67.9602L112.231 70.6598Z" fill="#FC843F" fill-opacity="0.5"/>
<path d="M112.707 69.4741L108.22 69.8883L108.046 69.9034L107.235 66.3941C107.235 66.3941 105.555 59.8952 106.053 54.4861C106.214 54.3029 110.563 55.3575 110.563 55.3575C113.344 60.6299 112.457 66.5983 112.457 66.5983L112.707 69.4741Z" fill="#FEC920"/>
<path d="M108.212 69.897L108.038 69.9122L107.227 66.4011C107.227 66.4011 109.313 63.004 108.753 61.1714C108.836 61.3021 110.861 64.6322 108.212 69.897Z" fill="#060505" fill-opacity="0.2"/>
<path d="M111.894 96.8516C112.114 96.6666 112.365 96.5255 112.634 96.4343C112.634 96.4343 113.438 95.6065 113.825 93.1139L114.877 92.829C115.243 92.7369 115.626 92.892 115.835 93.2172C115.864 93.2611 115.887 93.3096 115.902 93.3608C115.956 93.628 115.993 93.8987 116.014 94.1708C116.12 95.0141 116.029 96.9075 116.029 96.9075H115.839L115.764 95.1892C115.736 94.6059 115.305 95.29 115.182 95.9183C115.059 96.5466 114.797 97.2149 113.565 97.2461C112.128 97.2754 111.531 97.2171 111.894 96.8516Z" fill="#2F357B"/>
<path d="M115.872 93.2378C115.941 92.6544 115.962 91.6406 115.962 91.6406L113.623 91.9097C113.623 91.9097 113.907 93.0627 113.673 93.9285C114.851 93.6079 115.872 93.2378 115.872 93.2378Z" fill="#2F357B"/>
<path d="M105.906 92.8055L104.712 92.7789C103.685 86.8871 103.056 79.6199 102.696 74.1429C102.639 73.284 102.589 72.472 102.546 71.7137C102.526 71.3531 102.506 71.0073 102.488 70.6739C102.397 69.0278 102.34 67.7234 102.306 66.9169C102.282 66.3284 102.271 66.0049 102.271 66.0049L106.582 66.1709L106.506 67.2965L106.255 71.0122L106.227 71.4367L106.058 73.8904L105.776 78.0675C107.069 84.0139 105.906 92.8055 105.906 92.8055Z" fill="#FCBAA9"/>
<path d="M106.511 67.2957L106.261 71.0047L106.234 71.4287L102.582 71.7051C102.563 71.3454 102.543 71 102.525 70.6672C102.435 69.024 102.379 67.7222 102.345 66.917L106.511 67.2957Z" fill="#FC843F" fill-opacity="0.5"/>
<path d="M107.253 66.7494C107.159 67.5092 106.894 70.4633 106.894 70.4633L102.114 70.0185C100.386 57.02 104.129 54.11 104.129 54.11L108.04 55.6313C109.349 62.4356 109.16 63.4968 107.253 66.7494Z" fill="#FEC920"/>
<path d="M102.378 96.8516C102.597 96.6666 102.848 96.5255 103.117 96.4343C103.117 96.4343 103.921 95.6065 104.308 93.1139L105.361 92.829C105.727 92.7369 106.109 92.892 106.318 93.2172C106.347 93.2611 106.37 93.3096 106.385 93.3608C106.439 93.628 106.477 93.8987 106.497 94.1708C106.603 95.0141 106.513 96.9075 106.513 96.9075H106.322L106.247 95.1892C106.219 94.6059 105.788 95.29 105.665 95.9183C105.542 96.5466 105.281 97.2149 104.048 97.2461C102.611 97.2754 102.015 97.2171 102.378 96.8516Z" fill="#2F357B"/>
<path d="M106.355 93.2378C106.424 92.6544 106.446 91.6406 106.446 91.6406L104.107 91.9097C104.107 91.9097 104.39 93.0627 104.157 93.9285C105.335 93.6079 106.355 93.2378 106.355 93.2378Z" fill="#2F357B"/>
<path d="M110.853 43.8766C110.983 44.6815 109.969 44.9503 109.969 44.9503C108.367 44.1399 108.104 43.2267 108.104 43.2267C109.502 42.5694 109.201 40.4737 109.201 40.4737L109.472 40.6299L111.402 41.1307C111.402 41.1307 110.813 42.1693 110.73 42.4091C110.73 42.4113 110.728 42.4133 110.728 42.4155C110.304 43.6691 110.853 43.8766 110.853 43.8766Z" fill="#FCBAA9"/>
<path d="M107.868 37.9693C107.823 38.4732 107.568 38.8585 107.299 38.8298C107.03 38.8011 106.848 38.3694 106.893 37.8655C106.938 37.3616 107.193 36.9764 107.462 37.005C107.731 37.0337 107.913 37.4654 107.868 37.9693Z" stroke="#11171E" stroke-width="0.5" stroke-linecap="round" stroke-linejoin="round"/>
<path d="M110.778 41.3526C110.76 41.3663 110.738 41.3798 110.718 41.3889C110.439 41.5519 110.121 41.7029 109.772 41.7463C108.794 41.8703 108.151 41.6655 107.764 41.1753L107.762 41.1751C107.223 40.4443 107.178 39.2469 107.389 37.8314C107.484 37.182 107.625 36.6233 107.84 36.1999C107.843 36.1958 107.844 36.1793 107.847 36.1749C107.857 36.1582 107.865 36.1344 107.875 36.1174C108.193 35.5277 108.664 35.1737 109.374 35.0794C109.62 35.0473 109.896 35.0446 110.204 35.0732C112.916 35.3345 112.995 39.9882 110.778 41.3526Z" fill="#FCBAA9"/>
<path d="M110.695 41.404C110.418 41.565 110.106 41.6757 109.758 41.7186C108.786 41.8413 108.15 41.6078 107.766 41.1175C108.224 41.2723 108.849 41.3785 109.487 41.1562C109.888 41.0171 110.309 41.1548 110.695 41.404Z" fill="#060505"/>
<path d="M107.841 36.1736C107.841 36.1736 107.519 38.1044 109.244 39.1332C109.244 39.1332 109.836 41.238 110.971 41.3886C112.517 41.5935 114.083 39.4782 113.751 37.1166C113.319 34.0541 108.929 33.3377 107.841 36.1736Z" fill="#11171E"/>
<path d="M108.388 38.4919C108.415 38.1878 108.699 37.7029 109.154 37.8213C109.624 37.9438 109.781 39.1774 108.585 39.322C108.413 39.3426 108.33 39.1259 108.388 38.4919Z" fill="#FDA754"/>
<path d="M111.34 34.4571C111.34 34.4571 109.577 33.7978 108.513 34.4346C107.271 35.1783 106.749 36.0289 108.004 37.5692C108.004 37.5692 111.124 36.8861 112.112 37.206C113.1 37.5264 113.794 37.9032 113.794 37.9032C114.189 35.8771 112.385 34.1455 111.34 34.4571Z" fill="#11171E"/>
<path d="M108.411 38.008C108.411 38.008 108.695 40.3069 107.771 42.1397C107.771 42.1397 111.938 44.1317 113.509 43.4608C115.079 42.7899 113.955 39.8507 114.035 38.2342C114.116 36.6182 113.645 34.1661 111.319 34.456C108.994 34.7459 108.411 38.008 108.411 38.008Z" fill="#11171E"/>
<path d="M106.911 37.7246L108.716 37.9072" stroke="#11171E" stroke-width="0.5" stroke-linecap="round" stroke-linejoin="round"/>
<path d="M105.414 43.4254C105.414 43.4254 107.613 42.7509 110.831 43.9034C114.049 45.0557 114.104 46.4939 114.104 46.4939C114.104 46.4939 111.819 51.2045 111.248 56.6499L102.764 55.8476C102.764 55.8476 102.099 48.08 105.414 43.4254Z" fill="#11171E"/>
<path d="M114.105 46.4922C114.105 46.4922 111.82 51.2038 111.247 56.6505L102.764 55.8494C102.764 55.8494 102.671 54.767 102.729 53.1704C102.768 52.0563 102.879 50.6899 103.143 49.2634C103.518 47.2571 104.199 45.1312 105.414 43.4255C105.414 43.4255 107.614 42.7519 110.83 43.9036C114.049 45.0555 114.105 46.4922 114.105 46.4922Z" fill="#509CAB"/>
<path d="M105.027 49.7178C105.027 49.7178 104.573 51.923 102.739 53.1958C102.778 52.08 102.89 50.712 103.155 49.2837L105.027 49.7178Z" fill="#060505" fill-opacity="0.2"/>
<path d="M107.622 43.2247C107.622 43.2247 108.128 48.8242 110.507 49.1837C112.886 49.543 114.139 45.4987 113.756 44.9772C113.373 44.4557 110.338 43.3408 107.622 43.2247Z" fill="#11171E"/>
<path d="M107.622 43.2247C107.622 43.2247 108.128 48.8242 110.507 49.1837C112.886 49.543 114.139 45.4987 113.756 44.9772C113.373 44.4557 110.338 43.3408 107.622 43.2247Z" fill="#3B8090"/>
<path d="M96.85 48.2899L95.2698 47.2032C95.2698 47.2032 94.8648 46.612 94.6148 46.5437C94.3647 46.4757 92.1202 46.462 91.8905 46.5641C91.6608 46.666 92.2424 48.1869 92.5725 48.3474C92.9026 48.5079 94.3284 48.5469 94.6677 48.4682C95.0071 48.3895 94.8316 48.3987 94.8316 48.3987L96.4049 49.8201L96.85 48.2899Z" fill="#FCBAA9"/>
<path d="M100.857 50.6098L95.8929 47.4861C95.8929 47.4861 95.1228 48.1336 95.3919 49.8167C95.3919 49.8167 99.5274 55.5627 101.936 55.2846C103.523 53.7281 101.807 50.5713 100.857 50.6098Z" fill="#11171E"/>
<path d="M100.857 50.6098L95.8928 47.4861C95.8928 47.4861 95.1227 48.1336 95.3919 49.8167C95.3919 49.8167 99.5273 55.5626 101.936 55.2845C103.438 53.8983 101.991 50.6082 100.857 50.6098Z" fill="#509CAB"/>
<path d="M103.739 44.0629C103.739 44.0629 101.963 46.838 100.254 50.9117C100.254 50.9117 98.8525 54.8995 102.354 55.1974C104.626 54.3776 107.109 49.2606 107.109 49.2606C107.109 49.2606 108.065 41.3543 103.739 44.0629Z" fill="#509CAB"/>
<path d="M30.1271 94.8083L31.942 94.935L32.1552 90.8957L30.3403 90.769L30.1271 94.8083Z" fill="#FCBAA9"/>
<path d="M30.3403 90.7676L32.1521 90.8945L32.0408 92.9759L30.229 92.849L30.3403 90.7676Z" fill="#FC843F"/>
<path d="M24.6016 53.8457L29.9437 53.6402C30.9912 58.5946 34.3345 76.1407 32.8359 91.9463L29.6567 91.6649C29.6567 91.6649 29.2879 70.7726 26.2472 63.1606C24.8804 58.7965 24.6288 55.1076 24.6016 53.8457Z" fill="#1E4587"/>
<path d="M33.2266 92.7003L29.3234 92.2546L29.4072 91.1409L33.4655 91.5319L33.2266 92.7003Z" fill="#153769"/>
<path d="M26.2519 63.1505C26.6995 64.2719 27.0866 65.6795 27.4258 67.2663C27.5714 63.58 26.4042 59.7218 26.4042 59.7218C26.4042 59.7218 25.421 59.2623 25.2456 59.1816C25.6634 61.3024 26.2519 63.1505 26.2519 63.1505Z" fill="#060505" fill-opacity="0.2"/>
<path d="M32.1272 94.3692H30.006C29.9345 94.3695 29.8724 94.421 29.8568 94.4936L29.5129 96.1075C29.4833 96.2519 29.5725 96.3941 29.7116 96.4245C29.7301 96.4286 29.7494 96.4302 29.7681 96.43C30.4548 96.4185 30.9546 96.3749 31.8163 96.3749C32.3472 96.3749 33.9486 96.4324 34.6817 96.4324C35.4146 96.4324 35.5101 95.6809 35.2102 95.6118C33.8644 95.3077 32.8511 94.8857 32.42 94.4846C32.3403 94.4084 32.2357 94.367 32.1272 94.3692Z" fill="#2F357B"/>
<path d="M32.2473 94.6209C32.2307 94.6163 32.2183 94.6015 32.2162 94.584C32.2133 94.567 32.2215 94.5503 32.236 94.5426C32.2983 94.5009 32.8625 94.1415 33.0557 94.2453C33.1001 94.267 33.128 94.3141 33.1267 94.365C33.1383 94.4524 33.1056 94.5396 33.0401 94.5955C32.9419 94.6651 32.8237 94.6977 32.7049 94.6878C32.5504 94.6829 32.397 94.6607 32.2473 94.6209ZM32.3672 94.5609C32.571 94.6325 32.7933 94.6209 32.9892 94.5286C33.0309 94.4897 33.0518 94.4319 33.0446 94.3741C33.0425 94.3396 33.029 94.3237 33.018 94.3237C33.0016 94.3146 32.9831 94.3105 32.9646 94.3122C32.7521 94.3546 32.5491 94.4393 32.3672 94.5609Z" fill="#2F357B"/>
<path d="M32.2357 94.63C32.2233 94.6212 32.2159 94.6064 32.2162 94.5908C32.2183 94.5653 32.2603 94.0442 32.4625 93.8738C32.5105 93.8299 32.5747 93.8096 32.638 93.8184C32.703 93.8181 32.7584 93.8655 32.7711 93.9313C32.8067 94.1228 32.458 94.5218 32.2782 94.6232H32.2581C32.2515 94.6275 32.2439 94.63 32.2357 94.63ZM32.5161 93.9244C32.3933 94.0875 32.321 94.285 32.3091 94.4916C32.4891 94.3511 32.7114 94.0488 32.6893 93.9313C32.6869 93.9198 32.6827 93.8875 32.6293 93.8875H32.609C32.5747 93.8877 32.5419 93.9009 32.5161 93.9244Z" fill="#2F357B"/>
<path d="M21.1352 94.668L22.8883 94.5998L22.9021 90.4036L21.1469 90.472L21.1352 94.668Z" fill="#FCBAA9"/>
<path d="M21.1467 90.4727L22.8985 90.4047L22.8904 92.5662L21.1389 92.6341L21.1467 90.4727Z" fill="#FC843F"/>
<path d="M20.641 53.657L27.3222 53.3999C27.08 58.3019 27.0476 58.1036 26.2949 62.8175C26.1044 66.9612 25.8623 71.3716 25.6049 73.7233C24.974 79.5116 23.6318 92.1597 23.6318 92.1597L20.4098 92.2837C20.4098 92.2837 20.6868 80.2158 20.8122 74.5464C20.9508 68.391 20.6682 54.9189 20.641 53.657Z" fill="#1E4587"/>
<path d="M24.064 92.1716L20.2963 92.3167L20.2596 91.1573L24.167 90.9315L24.064 92.1716Z" fill="#153769"/>
<path d="M23.1314 94.4268H21.0102C20.9386 94.4274 20.8766 94.4789 20.861 94.5515L20.517 96.1654C20.4875 96.3095 20.5767 96.4517 20.7158 96.4821C20.7343 96.4862 20.7533 96.4881 20.7723 96.4879C21.4587 96.4764 21.9587 96.4325 22.8204 96.4325C23.3513 96.4325 24.9528 96.4901 25.6859 96.4901C26.4187 96.4901 26.5143 95.7388 26.2144 95.6694C24.8685 95.3653 23.8556 94.9433 23.4247 94.5422C23.3447 94.4663 23.2399 94.4246 23.1314 94.4268Z" fill="#2F357B"/>
<path d="M23.2513 94.6776C23.2347 94.673 23.2223 94.6584 23.2201 94.6409C23.2172 94.6239 23.2254 94.6072 23.2399 94.5995C23.3023 94.5576 23.8664 94.1981 24.0597 94.302C24.1043 94.3239 24.1323 94.3707 24.131 94.4217C24.1428 94.5091 24.1098 94.5962 24.0444 94.6524C23.9462 94.722 23.8276 94.7543 23.7088 94.7445C23.5544 94.7398 23.401 94.7173 23.2513 94.6776ZM23.3714 94.6176C23.5752 94.6891 23.7973 94.6776 23.9931 94.5855C24.0349 94.5464 24.0557 94.4888 24.0486 94.4307C24.0465 94.3962 24.0333 94.3803 24.0222 94.3803C24.0058 94.3713 23.9871 94.3672 23.9686 94.3688C23.7561 94.4113 23.5533 94.4959 23.3714 94.6176Z" fill="#2F357B"/>
<path d="M23.2399 94.6875C23.2275 94.6788 23.2201 94.664 23.2203 94.6484C23.2227 94.6231 23.2644 94.1015 23.4667 93.931C23.5147 93.8872 23.5789 93.8675 23.6422 93.876C23.7072 93.8757 23.7626 93.9231 23.7753 93.9888C23.8109 94.1804 23.4622 94.579 23.2824 94.6804H23.2623C23.2557 94.6848 23.2481 94.6875 23.2399 94.6875ZM23.5202 93.9817C23.3975 94.1447 23.3252 94.3426 23.3133 94.5492C23.4933 94.4086 23.7156 94.1067 23.6934 93.9888C23.6911 93.9773 23.6868 93.9453 23.6335 93.9453H23.6132C23.5789 93.9453 23.5461 93.9582 23.5202 93.9817Z" fill="#2F357B"/>
<path d="M46.633 48.5657L49.1483 49.5425L47.8297 48.1736C47.7307 48.2308 47.605 48.2202 47.5208 48.1328C47.4191 48.0273 47.4191 47.856 47.5208 47.7505C47.6224 47.645 47.7874 47.645 47.8891 47.7505C47.9733 47.8379 47.9836 47.9681 47.9287 48.0711L49.2473 49.44L48.3062 46.8291L47.473 47.0209L47.4405 46.7085L47.2827 46.5449L46.3592 47.5034L46.5171 47.667L46.8178 47.7009L46.633 48.5657Z" fill="#11171E"/>
<path d="M46.633 48.5657L49.1483 49.5425L47.8297 48.1736C47.7307 48.2308 47.605 48.2202 47.5208 48.1328C47.4191 48.0273 47.4191 47.856 47.5208 47.7505C47.6224 47.645 47.7874 47.645 47.8891 47.7505C47.9733 47.8379 47.9836 47.9681 47.9287 48.0711L49.2473 49.44L48.3062 46.8291L47.473 47.0209L47.4405 46.7085L47.2827 46.5449L46.3592 47.5034L46.5171 47.667L46.8178 47.7009L46.633 48.5657Z" fill="#FEFEFE" fill-opacity="0.2"/>
<path d="M36.9946 52.2933C38.4987 52.8946 42.8073 47.2097 42.8073 47.2097C42.8073 47.2097 46.3106 47.4615 46.4838 47.2288C46.657 46.9958 45.7598 44.3757 45.5041 44.3501C45.2482 44.3245 42.1208 45.2583 41.9894 45.4458C41.858 45.6336 38.1299 48.7844 37.9658 48.6737C37.1904 49.2759 35.7695 51.136 36.9946 52.2933Z" fill="#FCBAA9"/>
<path d="M43.2814 46.8462C43.3121 46.8421 43.3407 46.8376 43.3674 46.8307C43.3528 46.8207 43.3404 46.8106 43.3279 46.8004C43.3137 46.8174 43.2997 46.832 43.2814 46.8462Z" fill="#CC5C44"/>
<path d="M32.9766 44.7984C32.9766 44.7984 35.5946 51.9724 37.1581 52.3569C39.0772 52.0377 38.0253 49.3882 37.7002 48.6163C37.5244 48.5295 35.9813 44.2596 35.9813 44.2596L32.9766 44.7984Z" fill="#FCBAA9"/>
<path d="M31.6465 44.0172L31.9468 44.5215L33.3496 46.8822L33.6402 47.3688L37.1693 45.8633C37.1693 45.8633 35.3907 40.2085 34.8429 39.6526L31.6465 44.0172Z" fill="#4057A5"/>
<path d="M31.6465 44.0172L31.9468 44.5215L33.3496 46.8822L33.6402 47.3688L37.1693 45.8633C37.1693 45.8633 35.3907 40.2085 34.8429 39.6526L31.6465 44.0172Z" fill="#AAD6E6"/>
<path d="M31.9575 44.5177L33.363 46.8811C34.0751 45.2291 33.7359 43.049 33.7359 43.049L31.9575 44.5177Z" fill="#060505" fill-opacity="0.2"/>
<path d="M33.4825 47.3868L37.2501 45.7047L37.3757 46.0335L33.6059 47.6727L33.4825 47.3868Z" fill="#509CAB"/>
<path d="M20.3684 55.6133L20.2146 56.7684C20.2146 56.7684 26.7375 57.2357 30.7672 56.9697L30.5877 56.1927L20.3684 55.6133Z" fill="#509CAB"/>
<path d="M34.8822 39.6344C34.8822 39.6344 32.8673 37.2155 29.3384 37.2593C25.8094 37.3032 24.7225 37.7313 23.4948 38.993C21.7018 40.8356 20.1095 55.8738 20.1095 55.8738C20.1095 55.8738 25.1047 57.1407 30.7179 56.4138C30.7179 56.4138 30.554 52.2767 31.6848 49.4121C33.8836 43.8411 34.8822 39.6344 34.8822 39.6344Z" fill="#509CAB"/>
<path d="M20.1087 55.8741C20.1087 55.8741 25.1036 57.141 30.7185 56.4154C30.7185 56.4154 30.6973 55.906 30.721 55.1189C30.7306 54.7479 30.7521 54.3111 30.7891 53.8405C30.8257 53.3541 30.8818 52.8282 30.961 52.2924C31.0032 52.0043 31.0535 51.7137 31.1104 51.4224C31.2491 50.7287 31.4356 50.039 31.6837 49.4125C31.8223 49.0605 31.9566 48.7131 32.0867 48.3725C32.3127 47.7788 32.5242 47.2013 32.7221 46.6493C33.1363 45.4883 33.4882 44.4265 33.7801 43.5006C33.9896 42.8362 34.1678 42.2408 34.3154 41.7298C34.4799 41.1618 34.6082 40.6947 34.7013 40.3476C34.8236 39.8871 34.8825 39.6355 34.8825 39.6355C34.8825 39.6355 34.7466 39.4725 34.4812 39.2296C33.7433 38.5537 32.0027 37.2673 29.4556 37.2618C29.4164 37.2598 29.3774 37.2597 29.3384 37.2599C26.6498 37.2942 25.3783 37.5502 24.3833 38.2287C24.0712 38.4398 23.787 38.6934 23.4946 38.9949C23.2948 39.201 23.0946 39.5724 22.9028 40.0707C22.5841 40.8889 22.2759 42.0453 21.9907 43.3659C21.9485 43.5627 21.9068 43.7641 21.8649 43.9675C21.6788 44.8848 21.5 45.8619 21.335 46.8493C21.2882 47.129 21.2417 47.4103 21.1972 47.6896C21.1296 48.118 21.0644 48.5462 21.001 48.9673C20.8416 50.0301 20.7005 51.0605 20.5774 51.9852C20.4036 53.3167 20.2706 54.4294 20.1924 55.1192C20.1383 55.6001 20.1087 55.8741 20.1087 55.8741ZM29.5506 37.3895C29.7994 37.3834 30.0423 37.3885 30.2574 37.4044C31.2185 37.4775 32.702 38.1706 32.6837 38.5443C32.6636 38.9181 32.1598 39.8953 30.7361 39.7522C30.2444 39.7039 29.762 39.5032 29.3355 39.2458C28.5275 38.7618 27.9236 38.078 27.8558 37.8477C27.7751 37.5761 28.6876 37.4152 29.5506 37.3895Z" fill="#AAD6E6"/>
<path d="M26.7601 42.5409C26.7601 42.5409 25.1212 47.3009 24.9392 51.1775L30.0076 51.5324C30.0076 51.5324 31.9565 45.1196 32.3248 43.1284C32.3248 43.1284 28.2816 42.9588 26.7601 42.5409Z" fill="#509CAB"/>
<path d="M31.3289 43.3721L32.0326 43.4007L31.5393 43.8413L31.3289 43.3721Z" fill="#FEFEFE"/>
<path d="M21.2067 47.6653C23.3911 46.5749 24.9591 42.5217 24.9591 42.5217L23.6515 41.8087L22.0006 43.34C21.9586 43.5369 21.9166 43.7381 21.8747 43.9415C21.6886 44.8592 21.5099 45.8366 21.3446 46.8245C21.298 47.104 21.2512 47.3859 21.2067 47.6653Z" fill="#060505" fill-opacity="0.2"/>
<path d="M28.2787 37.8067C28.7154 38.9051 30.1588 39.3302 30.9057 39.3499C31.9538 39.3775 32.2156 38.5157 32.2156 38.5157C32.2156 38.5157 31.3459 38.1329 31.4051 37.6364C31.4398 37.3474 31.5576 37.0599 31.7135 36.7814C31.7938 36.6341 31.8871 36.4908 31.9835 36.3511L30.4735 33.4307C30.2345 34.7599 29.4293 37.3162 28.2787 37.8067Z" fill="#FCBAA9"/>
<path d="M30.4831 34.832C29.9045 36.3278 30.874 37.2854 31.4014 37.6398C31.4366 37.3507 31.5547 37.0633 31.7111 36.7843L30.4831 34.832Z" fill="#060505" fill-opacity="0.2"/>
<path d="M35.8168 31.6773C35.8168 31.6773 35.9061 34.1935 34.5176 34.9672C33.1288 35.7409 33.6457 31.1504 33.6457 31.1504L35.8168 31.6773Z" fill="#CC5C44"/>
<path d="M35.8168 31.6773C35.8168 31.6773 35.9061 34.1935 34.5176 34.9672C33.1288 35.7409 33.6457 31.1504 33.6457 31.1504L35.8168 31.6773Z" fill="#5F5755"/>
<path d="M30.5863 36.4385C31.1048 37.4352 32.0903 37.8125 33.0015 37.6485C33.5871 37.5437 34.1417 37.2131 34.5223 36.6812C34.5732 36.612 34.6196 36.5373 34.6644 36.4605C35.4631 35.0412 36.116 31.3605 34.5124 31.2355C33.1989 31.1329 31.9837 30.5109 31.16 31.5481C30.9238 31.8413 30.7627 32.191 30.6844 32.5658C30.2954 34.2999 29.9867 35.2991 30.5863 36.4385Z" fill="#FCBAA9"/>
<path d="M32.554 30.8358L32.4651 31.624C32.1872 31.6925 31.972 31.9357 32.0144 32.2669C32.1049 32.9734 31.511 33.8753 30.9327 34.1445C30.9327 34.1445 30.9833 33.8622 30.737 33.867C30.4906 33.872 30.2117 35.3384 30.4985 36.149C30.4985 36.149 29.7725 35.2265 29.7473 33.6031C29.7243 32.1016 29.8945 31.1809 30.1973 30.5148L32.554 30.8358Z" fill="#CC5C44"/>
<path d="M32.554 30.8358L32.4651 31.624C32.1872 31.6925 31.972 31.9357 32.0144 32.2669C32.1049 32.9734 31.511 33.8753 30.9327 34.1445C30.9327 34.1445 30.9833 33.8622 30.737 33.867C30.4906 33.872 30.2117 35.3384 30.4985 36.149C30.4985 36.149 29.7725 35.2265 29.7473 33.6031C29.7243 32.1016 29.8945 31.1809 30.1973 30.5148L32.554 30.8358Z" fill="#5F5755"/>
<path d="M29.9534 31.3252C29.9534 31.3252 30.9057 31.6389 32.4709 31.5834C34.8968 31.4971 35.7751 32.5462 35.7751 32.5462C35.7751 32.5462 36.4038 32.1499 36.4318 31.4469C36.4597 30.7444 35.5339 30.4703 35.5339 30.4703C35.5339 30.4703 35.3591 29.6458 34.7675 29.3066C34.1758 28.9675 33.4665 29.4525 33.4665 29.4525C33.4665 29.4525 32.7944 28.5576 31.8565 28.6247C30.7044 28.7069 30.5781 29.7925 30.5781 29.7925C30.5781 29.7925 29.4977 29.7273 29.4423 30.2878C29.3872 30.8485 29.9534 31.3252 29.9534 31.3252Z" fill="#11171E"/>
<path d="M34.0236 34.1169C33.9532 34.6163 33.5523 34.9643 33.1281 34.894C32.7037 34.8236 32.4167 34.3617 32.487 33.8623C32.5574 33.363 32.9586 33.015 33.383 33.0854C33.8072 33.1556 34.094 33.6176 34.0236 34.1169Z" stroke="#11171E" stroke-width="0.5" stroke-linecap="round" stroke-linejoin="round"/>
<path d="M35.9197 34.5563C35.8493 35.0556 35.4484 35.4036 35.0242 35.3333C34.6001 35.2631 34.3133 34.8011 34.3837 34.3018C34.454 33.8024 34.855 33.4544 35.2791 33.5247C35.7033 33.595 35.9901 34.057 35.9197 34.5563Z" stroke="#11171E" stroke-width="0.5" stroke-linecap="round" stroke-linejoin="round"/>
<path d="M34.0005 34.2192C34.0005 34.2192 34.269 34.1021 34.3915 34.3094" stroke="#11171E" stroke-width="0.5" stroke-linecap="round" stroke-linejoin="round"/>
<path d="M32.4957 33.8703L31.1839 33.4737C31.0125 33.422 30.8285 33.4417 30.6739 33.528L30.6088 33.5643" stroke="#11171E" stroke-width="0.5" stroke-linecap="round" stroke-linejoin="round"/>
<path d="M29.5785 33.7541C29.6535 34.1987 29.8975 34.598 30.2562 34.8639C30.7337 35.2125 31.1632 34.8292 31.1917 34.2658C31.2124 33.765 30.9958 32.9653 30.4368 32.8448C29.878 32.7247 29.4928 33.2073 29.5785 33.7541Z" fill="#FCBAA9"/>
<path d="M23.3734 65.1436L12.144 64.0036L12.8811 56.8623L24.111 58.0022L23.3734 65.1436Z" fill="#FEC920"/>
<path d="M16.9664 59.3016L14.7595 60.6499L16.6456 62.4147" stroke="#FEFEFE" stroke-width="2" stroke-linecap="round" stroke-linejoin="round"/>
<path d="M19.2906 62.7044L21.4975 61.3563L19.6114 59.5912" stroke="#FEFEFE" stroke-width="2" stroke-linecap="round" stroke-linejoin="round"/>
<path d="M17.4301 62.5059L18.8259 59.4985" stroke="#FEFEFE" stroke-width="2" stroke-linecap="round" stroke-linejoin="round"/>
<path d="M17.7283 45.1566C17.1925 46.0394 16.5598 55.4953 16.5598 55.4953C16.5598 55.4953 16.3316 55.5922 16.3218 55.7965C16.3117 56.0007 16.4268 58.6385 16.4703 58.7584C16.5134 58.8784 18.5248 59.9928 18.7967 59.6825C19.0688 59.3722 19.3204 56.3618 19.3204 56.3618L18.2416 55.3934C18.2416 55.3934 19.091 48.4055 19.782 47.2414C20.2023 45.569 18.6793 44.4063 17.7283 45.1566Z" fill="#FCBAA9"/>
<path d="M22.2112 39.669C22.2112 39.669 18.2233 44.2741 17.691 45.1551C17.2695 46.179 18.5681 47.7267 19.7311 47.2353C20.4174 46.0733 23.3625 43.4937 23.3625 43.4937L22.2112 39.669Z" fill="#FCBAA9"/>
<path d="M25.3417 37.7256C26.0209 39.0247 25.6954 41.868 24.616 42.9301C22.9831 44.5369 20.9766 45.9538 20.9766 45.9538L18.773 43.298C18.773 43.298 20.8561 40.9576 22.1212 39.6056C23.6593 37.9613 25.3417 37.7256 25.3417 37.7256Z" fill="#4057A5"/>
<path d="M25.3417 37.7256C26.0209 39.0247 25.6954 41.868 24.616 42.9301C22.9831 44.5369 20.9766 45.9538 20.9766 45.9538L18.773 43.298C18.773 43.298 20.8561 40.9576 22.1212 39.6056C23.6593 37.9613 25.3417 37.7256 25.3417 37.7256Z" fill="#AAD6E6"/>
<path d="M18.7827 43.1173L18.5454 43.4915L20.8459 46.263L21.1394 46.0192L18.7827 43.1173Z" fill="#509CAB"/>
</svg>
