<svg width="29" height="25" viewBox="0 0 29 25" fill="none" xmlns="http://www.w3.org/2000/svg">
<path d="M14.2909 6.94812V12.5025C14.2909 12.8775 14.4436 13.2246 14.6936 13.4885L18.5678 17.3627C18.8274 17.6223 19.1796 17.7682 19.5468 17.7682C19.9139 17.7682 20.2661 17.6223 20.5257 17.3627C20.7854 17.103 20.9312 16.7509 20.9312 16.3837C20.9312 16.0165 20.7854 15.6644 20.5257 15.4047L17.0542 11.9332V6.94812C17.0542 6.18439 16.4293 5.55952 15.6656 5.55952C15.2997 5.56318 14.9501 5.71109 14.6927 5.97111C14.4353 6.23113 14.2909 6.58224 14.2909 6.94812ZM16.0405 0.005095C14.3694 -0.0426297 12.7056 0.245327 11.1477 0.851928C9.58975 1.45853 8.16932 2.37145 6.97043 3.53668C5.77154 4.7019 4.81855 6.09576 4.16784 7.63578C3.51712 9.1758 3.18191 10.8307 3.18204 12.5025H0.696433C0.071561 12.5025 -0.233932 13.2524 0.210422 13.6829L4.08463 17.5571C4.36235 17.8348 4.79282 17.8348 5.07054 17.5571L8.95864 13.6829C9.37522 13.2524 9.06973 12.5025 8.44485 12.5025H5.95925C5.95925 7.10087 10.4028 2.69899 15.8183 2.78231C20.9701 2.85174 25.3164 7.19807 25.3997 12.3637C25.483 17.7931 21.095 22.2228 15.6795 22.2228C13.4716 22.2228 11.4442 21.4868 9.80569 20.2371C9.25024 19.8205 8.47262 19.8622 7.98661 20.3621C7.38951 20.9592 7.44506 21.9451 8.11159 22.445C10.2854 24.1042 12.9448 25.0021 15.6795 25C22.7058 25 28.3713 19.2095 28.1769 12.1554C27.9964 5.62895 22.5531 0.185614 16.0405 0.005095Z" fill="white" fill-opacity="0.9"/>
</svg>
