<svg width="22" height="25" viewBox="0 0 22 25" fill="none" xmlns="http://www.w3.org/2000/svg">
<path d="M13.3575 16.7862C13.3575 16.3572 12.9989 16.0002 12.5684 16.0002H8.47971C8.04931 16.0002 7.69071 16.3572 7.69071 16.7862V24.2142C7.69071 24.6432 7.33201 25.0002 6.90161 25.0002H0.876106C0.445706 25.0002 0.0870056 24.6432 0.0870056 24.2142V10.7862C0.0870056 10.3572 0.373906 9.71424 0.660906 9.42924L9.98611 0.214238C10.273 -0.0707617 10.7752 -0.0707617 11.1338 0.214238L20.459 9.42924C20.746 9.71424 21.0329 10.3572 21.0329 10.7862V24.2142C21.0329 24.6432 20.6743 25.0002 20.2439 25.0002H14.2184C13.788 25.0002 13.4293 24.6432 13.4293 24.2142V16.7862H13.3575Z" fill="#F1F1F1"/>
<path d="M10.5602 12.5C11.5809 12.5 12.4083 11.661 12.4083 10.625C12.4083 9.589 11.5809 8.75 10.5602 8.75C9.53951 8.75 8.71201 9.589 8.71201 10.625C8.71201 11.661 9.53951 12.5 10.5602 12.5Z" fill="#1BC1CE"/>
</svg>
