<svg width="25" height="25" viewBox="0 0 25 25" fill="none" xmlns="http://www.w3.org/2000/svg">
<path d="M10.7064 1.16329C10.8715 0.814127 11.127 0.520122 11.4439 0.314539C11.7609 0.108955 12.1267 0 12.5 0C12.8732 0 13.239 0.108955 13.556 0.314539C13.873 0.520122 14.1284 0.814127 14.2935 1.16329L17.0732 7.04006L23.2876 7.97868C23.657 8.03463 24.004 8.19731 24.2894 8.44832C24.5748 8.69932 24.7871 9.02863 24.9023 9.39897C25.0176 9.76931 25.0311 10.1659 24.9415 10.5438C24.8518 10.9218 24.6625 11.266 24.395 11.5376L19.8979 16.1081L20.9603 22.5637C21.023 22.947 20.9817 23.3409 20.8411 23.7009C20.7004 24.061 20.4662 24.3729 20.1646 24.6015C19.8631 24.8301 19.5063 24.9662 19.1345 24.9945C18.7627 25.0228 18.3908 24.9421 18.0606 24.7616L12.4987 21.7137L6.93931 24.7616C6.60915 24.9421 6.2372 25.0228 5.86543 24.9945C5.49366 24.9662 5.13687 24.8301 4.83533 24.6015C4.53379 24.3729 4.2995 24.061 4.15889 23.7009C4.01829 23.3409 3.97698 22.947 4.03961 22.5637L5.0995 16.1081L0.602473 11.535C0.335643 11.2632 0.147017 10.9189 0.0579083 10.5411C-0.0312006 10.1634 -0.0172415 9.76714 0.0982087 9.39722C0.213659 9.02729 0.425999 8.69841 0.711236 8.44774C0.996474 8.19707 1.34324 8.03459 1.71236 7.97868L7.9267 7.03746L10.7039 1.16329H10.7064Z" fill="#FFAA3C"/>
</svg>
