<svg width="23" height="25" viewBox="0 0 23 25" fill="none" xmlns="http://www.w3.org/2000/svg">
<path d="M10.0016 15.1163V24.4186H0C0 21.9515 1.05374 19.5854 2.92941 17.8409C4.80508 16.0963 7.34903 15.1163 10.0016 15.1163ZM10.0016 13.9535C5.8572 13.9535 2.50041 10.8314 2.50041 6.97674C2.50041 3.12209 5.8572 0 10.0016 0C14.1461 0 17.5029 3.12209 17.5029 6.97674C17.5029 10.8314 14.1461 13.9535 10.0016 13.9535ZM13.2459 20.7116C13.0874 20.0912 13.0874 19.4448 13.2459 18.8244L12.0057 18.1581L13.2559 16.1442L14.4961 16.8105C14.9939 16.372 15.5956 16.0485 16.2526 15.8663V14.5349H18.7531V15.8663C19.4182 16.05 20.0183 16.3779 20.5096 16.8105L21.7498 16.1442L23 18.1581L21.7598 18.8244C21.9181 19.4445 21.9181 20.0904 21.7598 20.7105L23 21.3767L21.7498 23.3907L20.5096 22.7244C20.0118 23.1629 19.4101 23.4864 18.7531 23.6686V25H16.2526V23.6686C15.5956 23.4864 14.9939 23.1629 14.4961 22.7244L13.2559 23.3907L12.0057 21.3767L13.2459 20.7116ZM17.5029 18.6047C17.1713 18.6047 16.8533 18.7272 16.6188 18.9452C16.3844 19.1633 16.2526 19.459 16.2526 19.7674C16.2526 20.0758 16.3844 20.3716 16.6188 20.5897C16.8533 20.8077 17.1713 20.9302 17.5029 20.9302C17.8344 20.9302 18.1524 20.8077 18.3869 20.5897C18.6213 20.3716 18.7531 20.0758 18.7531 19.7674C18.7531 19.459 18.6213 19.1633 18.3869 18.9452C18.1524 18.7272 17.8344 18.6047 17.5029 18.6047Z" fill="white" fill-opacity="0.9"/>
</svg>
