<svg width="26" height="26" viewBox="0 0 26 26" fill="none" xmlns="http://www.w3.org/2000/svg">
<mask id="mask0" mask-type="alpha" maskUnits="userSpaceOnUse" x="4" y="3" width="18" height="22">
<path fill-rule="evenodd" clip-rule="evenodd" d="M19.2856 12.6071V17.9643L21.4285 20.1071V21.1786H4.28564V20.1071L6.4285 17.9643V12.6071C6.4285 9.30714 8.17493 6.56429 11.2499 5.83571V5.10714C11.2499 4.21786 11.9678 3.5 12.8571 3.5C13.7464 3.5 14.4642 4.21786 14.4642 5.10714V5.83571C17.5285 6.56429 19.2856 9.31786 19.2856 12.6071ZM14.9999 22.25C14.9999 23.4286 14.0356 24.3929 12.8571 24.3929C11.6678 24.3929 10.7142 23.4286 10.7142 22.25H14.9999Z" fill="white"/>
</mask>
<g mask="url(#mask0)">
<rect y="0.286133" width="25.7143" height="25.7143" fill="white"/>
</g>
</svg>
