<svg width="140" height="185" viewBox="0 0 140 185" fill="none" xmlns="http://www.w3.org/2000/svg">
    <circle cx="70" cy="88" r="70" fill="url(#paint0_linear_13065_13347)"/>
    <path d="M46.8077 12.4203C48.4126 6.66531 54.3789 3.30101 60.1339 4.90588L114.319 20.0164C120.074 21.6213 123.439 27.5876 121.834 33.3426L88.9004 151.439C87.2955 157.194 81.3292 160.558 75.5742 158.953L21.3889 143.843C15.6339 142.238 12.2696 136.272 13.8745 130.517L46.8077 12.4203Z" fill="#111520"/>
    <path d="M49.3125 16.8626C50.9174 11.1077 56.8837 7.74339 62.6386 9.34826L115.435 24.0714C121.957 25.8902 125.77 32.6521 123.951 39.1743L91.9863 153.797C90.0604 160.703 82.9009 164.74 75.9949 162.814L23.8936 148.285C18.1387 146.68 14.7744 140.714 16.3792 134.959L49.3125 16.8626Z" fill="#111520"/>
    <path d="M49.5866 13.1952C50.7635 8.97494 55.1388 6.50778 59.3591 7.68469L113.544 22.7952C117.765 23.9722 120.232 28.3475 119.055 32.5678L86.1217 150.664C84.9448 154.884 80.5695 157.351 76.3492 156.175L22.1638 141.064C17.9435 139.887 15.4764 135.512 16.6533 131.292L49.5866 13.1952Z" fill="#F3F7FF"/>
    <path d="M68.3903 10.2031L104.514 20.2768L103.545 23.7503C103.01 25.6686 101.021 26.79 99.1032 26.255L69.9264 18.1186C68.0081 17.5836 66.8867 15.5949 67.4216 13.6765L68.3903 10.2031Z" fill="#111520"/>
    <path d="M117.668 48.2784C117.829 47.7029 118.425 47.3664 119.001 47.5269V47.5269C119.576 47.6874 119.913 48.284 119.752 48.8595L115.297 64.8373C115.136 65.4128 114.54 65.7492 113.964 65.5887V65.5887C113.389 65.4282 113.052 64.8316 113.213 64.2561L117.668 48.2784Z" fill="#59616B"/>
    <path d="M94.6937 19.7847C95.5088 20.012 96.0395 20.6628 95.879 21.2383V21.2383C95.7185 21.8138 94.9276 22.0961 94.1125 21.8688L71.4822 15.5579C70.667 15.3306 70.1364 14.6798 70.2968 14.1043V14.1043C70.4573 13.5288 71.2482 13.2465 72.0633 13.4738L94.6937 19.7847Z" fill="#59616B"/>
    <path d="M111.082 71.8975C111.243 71.322 111.839 70.9856 112.415 71.1461V71.1461C112.99 71.3065 113.327 71.9032 113.166 72.4787L111.423 78.7308C111.262 79.3063 110.666 79.6428 110.09 79.4823V79.4823C109.515 79.3218 109.178 78.7251 109.339 78.1497L111.082 71.8975Z" fill="#59616B"/>
    <path d="M100.863 22.6281C100.703 23.2036 100.106 23.54 99.5306 23.3795C98.9551 23.219 98.6186 22.6224 98.7791 22.0469C98.9396 21.4714 99.5362 21.135 100.112 21.2955C100.687 21.456 101.024 22.0526 100.863 22.6281Z" fill="#59616B"/>
    <g filter="url(#filter0_d_13065_13347)">
        <path d="M28.4557 61.4734C28.9906 59.5551 31.8613 58.6796 34.8674 59.5179L109.981 80.4648C112.988 81.3031 114.991 83.5378 114.456 85.4561L110.969 97.9604C110.434 99.8788 107.563 100.754 104.557 99.916L29.4431 78.969C26.4369 78.1307 24.4337 75.8961 24.9686 73.9777L28.4557 61.4734Z" fill="white"/>
    </g>
    <path d="M104.423 179.937C104.423 182.326 86.1797 184.264 63.6756 184.264C41.1715 184.264 22.9283 182.326 22.9283 179.937C22.9283 177.547 41.1715 175.609 63.6756 175.609C86.1797 175.609 104.423 177.547 104.423 179.937Z" fill="#DADADA"/>
    <path d="M35.5968 64.8436L34.7181 68.8762L36.7167 69.4456L38.0951 65.5553L35.5968 64.8436ZM33.3281 72.773L35.8264 73.4847L36.7077 69.4431L34.7091 68.8737L33.3281 72.773ZM32.1119 67.0534L34.9826 69.8101L36.4522 68.5117L33.9228 65.4374L32.1119 67.0534ZM39.8858 69.2585L39.1984 66.9308L35.4261 68.2194L35.9933 70.0885L39.8858 69.2585ZM39.3139 71.266L36.4432 68.5092L34.9736 69.8076L37.503 72.8819L39.3139 71.266ZM31.5425 69.052L32.2299 71.3797L35.9997 70.0999L35.435 68.222L31.5425 69.052ZM49.1188 68.6959L48.24 72.7286L50.2386 73.298L51.617 69.4077L49.1188 68.6959ZM46.8501 76.6253L49.3483 77.337L50.2297 73.2954L48.2311 72.7261L46.8501 76.6253ZM45.6339 70.9057L48.5045 73.6625L49.9741 72.3641L47.4448 69.2897L45.6339 70.9057ZM53.4077 73.1108L52.7204 70.7831L48.948 72.0718L49.5153 73.9408L53.4077 73.1108ZM52.8358 75.1183L49.9652 72.3616L48.4956 73.6599L51.0249 76.7343L52.8358 75.1183ZM45.0645 72.9043L45.7518 75.232L49.5216 73.9523L48.957 72.0743L45.0645 72.9043ZM62.6407 72.5483L61.7619 76.5809L63.7605 77.1503L65.139 73.26L62.6407 72.5483ZM60.372 80.4777L62.8703 81.1894L63.7516 77.1478L61.753 76.5784L60.372 80.4777ZM59.1558 74.7581L62.0264 77.5148L63.4961 76.2164L60.9667 73.1421L59.1558 74.7581ZM66.9297 76.9632L66.2423 74.6355L62.47 75.9241L63.0372 77.7931L66.9297 76.9632ZM66.3578 78.9707L63.4871 76.2139L62.0175 77.5123L64.5469 80.5866L66.3578 78.9707ZM58.5864 76.7567L59.2738 79.0844L63.0436 77.8046L62.4789 75.9267L58.5864 76.7567ZM76.1627 76.4006L75.2839 80.4333L77.2825 81.0027L78.6609 77.1123L76.1627 76.4006ZM73.894 84.33L76.3922 85.0417L77.2736 81.0001L75.275 80.4307L73.894 84.33ZM72.6778 78.6104L75.5484 81.3672L77.018 80.0688L74.4887 76.9944L72.6778 78.6104ZM80.4516 80.8155L79.7643 78.4878L75.9919 79.7765L76.5592 81.6455L80.4516 80.8155ZM79.8797 82.823L77.0091 80.0662L75.5395 81.3646L78.0688 84.439L79.8797 82.823ZM72.1084 80.609L72.7957 82.9367L76.5655 81.657L76.0009 79.779L72.1084 80.609ZM89.6846 80.253L88.8058 84.2856L90.8044 84.855L92.1829 80.9647L89.6846 80.253ZM87.4159 88.1823L89.9142 88.8941L90.7955 84.8525L88.7969 84.2831L87.4159 88.1823ZM86.1997 82.4627L89.0703 85.2195L90.5399 83.9211L88.0106 80.8468L86.1997 82.4627ZM93.9736 84.6678L93.2862 82.3401L89.5139 83.6288L90.0811 85.4978L93.9736 84.6678ZM93.4016 86.6754L90.531 83.9186L89.0614 85.217L91.5908 88.2913L93.4016 86.6754ZM85.6303 84.4613L86.3177 86.789L90.0875 85.5093L89.5228 83.6314L85.6303 84.4613ZM103.207 84.1053L102.328 88.138L104.326 88.7074L105.705 84.817L103.207 84.1053ZM100.938 92.0347L103.436 92.7464L104.317 88.7048L102.319 88.1354L100.938 92.0347ZM99.7217 86.3151L102.592 89.0719L104.062 87.7735L101.533 84.6991L99.7217 86.3151ZM107.496 88.5202L106.808 86.1925L103.036 87.4812L103.603 89.3502L107.496 88.5202ZM106.924 90.5277L104.053 87.7709L102.583 89.0693L105.113 92.1437L106.924 90.5277ZM99.1523 88.3137L99.8396 90.6414L103.609 89.3617L103.045 87.4837L99.1523 88.3137Z" fill="#F1F1F1"/>
    <path d="M79.8381 40.7471C83.2244 41.7406 85.1673 45.2048 84.2021 48.4945L83.7057 50.1865C85.4322 51.3374 86.3122 53.4642 85.7093 55.5192L84.1109 60.967C83.3644 63.511 80.6501 64.9549 78.0498 64.1919L68.7106 61.4518C66.1092 60.6885 64.6052 58.007 65.3516 55.463L66.95 50.0152C67.553 47.9602 69.4437 46.6463 71.5172 46.6104L72.0137 44.9183C72.9901 41.6319 76.4967 39.7667 79.8381 40.7471ZM76.1635 53.3127C75.6253 53.1548 75.0625 53.4542 74.9081 53.9805L74.1938 56.4149C74.0361 56.9522 74.348 57.5082 74.8862 57.6661C75.4356 57.8273 75.9984 57.528 76.1561 56.9907L76.8703 54.5563C77.0248 54.0299 76.7129 53.4739 76.1635 53.3127ZM79.2975 42.6727C77.0213 42.0048 74.6435 43.2604 73.9824 45.4721L73.5493 46.9481L81.8132 49.3728L82.2399 47.9187C82.893 45.6927 81.5737 43.3405 79.2975 42.6727Z" fill="#949397"/>
    <defs>
        <filter id="filter0_d_13065_13347" x="22.8822" y="58.2002" width="101.66" height="53.0342" filterUnits="userSpaceOnUse" color-interpolation-filters="sRGB">
            <feFlood flood-opacity="0" result="BackgroundImageFix"/>
            <feColorMatrix in="SourceAlpha" type="matrix" values="0 0 0 0 0 0 0 0 0 0 0 0 0 0 0 0 0 0 127 0" result="hardAlpha"/>
            <feOffset dx="4" dy="5"/>
            <feGaussianBlur stdDeviation="3"/>
            <feComposite in2="hardAlpha" operator="out"/>
            <feColorMatrix type="matrix" values="0 0 0 0 0.913725 0 0 0 0 0.945098 0 0 0 0 0.992157 0 0 0 0.43 0"/>
            <feBlend mode="normal" in2="BackgroundImageFix" result="effect1_dropShadow_13065_13347"/>
            <feBlend mode="normal" in="SourceGraphic" in2="effect1_dropShadow_13065_13347" result="shape"/>
        </filter>
        <linearGradient id="paint0_linear_13065_13347" x1="29.0426" y1="141.245" x2="129.947" y2="38.8511" gradientUnits="userSpaceOnUse">
            <stop offset="0.105691" stop-color="#F1F1F1"/>
            <stop offset="1" stop-color="#949397"/>
        </linearGradient>
    </defs>
</svg>
