<svg width="111" height="99" viewBox="0 0 111 99" fill="none" xmlns="http://www.w3.org/2000/svg">
<path d="M111 73.8215H0V73.7646H111V73.8215Z" fill="#EBEBEB"/>
<path d="M92.5249 77.3916H99.878V77.4485H92.5249V77.3916Z" fill="#EBEBEB"/>
<path d="M71.601 78.0029H73.5308V78.0598H71.601V78.0029Z" fill="#EBEBEB"/>
<path d="M88.0421 75.2988H92.3027V75.3557H88.0421V75.2988Z" fill="#EBEBEB"/>
<path d="M11.6459 75.6777H21.2347V75.7346H11.6459V75.6777Z" fill="#EBEBEB"/>
<path d="M23.2113 75.6777H24.6173V75.7346H23.2113V75.6777Z" fill="#EBEBEB"/>
<path d="M29.1866 76.6289H49.9827V76.6858H29.1866V76.6289Z" fill="#EBEBEB"/>
<path d="M52.6171 63.7183H9.74914C9.05051 63.7183 8.48196 63.1414 8.48196 62.4324V1.28564C8.48196 0.576703 9.05051 0 9.74914 0H52.6171C53.3155 0 53.8841 0.576703 53.8841 1.28564V62.4324C53.8841 63.1414 53.3155 63.7183 52.6171 63.7183ZM9.74914 0.0563187C9.08092 0.0563187 8.53746 0.607791 8.53746 1.28564V62.4324C8.53746 63.1105 9.08092 63.662 9.74914 63.662H52.6171C53.2851 63.662 53.8286 63.1105 53.8286 62.4324V1.28564C53.8286 0.607791 53.2851 0.0563187 52.6171 0.0563187H9.74914Z" fill="#EBEBEB"/>
<path d="M100.635 63.7183H57.767C57.0686 63.7183 56.5001 63.1414 56.5001 62.4324V1.28564C56.5001 0.576703 57.0686 0 57.767 0H100.635C101.334 0 101.902 0.576703 101.902 1.28564V62.4324C101.902 63.1414 101.334 63.7183 100.635 63.7183ZM57.767 0.0563187C57.099 0.0563187 56.5556 0.607791 56.5556 1.28564V62.4324C56.5556 63.1105 57.099 63.662 57.767 63.662H100.635C101.303 63.662 101.847 63.1105 101.847 62.4324V1.28564C101.847 0.607791 101.303 0.0563187 100.635 0.0563187H57.767Z" fill="#EBEBEB"/>
<path d="M19.0105 10.7898C19.0349 7.83822 21.3992 5.45301 24.3136 5.45301C25.0158 5.45301 25.6858 5.59268 26.2992 5.84431C27.3408 3.68212 29.5288 2.19238 32.0603 2.19238C35.1219 2.19238 37.6804 4.37101 38.3165 7.28337C41.1958 7.47125 43.4742 9.89926 43.4742 12.8684C43.4742 15.9603 41.0044 18.4667 37.9575 18.4667H20.4031C18.2432 18.4667 16.4923 16.6899 16.4923 14.4982C16.4923 12.8044 17.5384 11.3593 19.0105 10.7898Z" fill="#E0E0E0"/>
<path d="M81.2713 54.6985C81.2864 52.8774 82.7454 51.4055 84.5436 51.4055C84.9769 51.4055 85.3903 51.4918 85.7688 51.647C86.4115 50.3127 87.7617 49.3936 89.3237 49.3936C91.2127 49.3936 92.7915 50.738 93.184 52.535C94.9607 52.651 96.3664 54.1491 96.3664 55.9813C96.3664 57.8891 94.8426 59.4354 92.9625 59.4354H82.1306C80.798 59.4354 79.7175 58.3392 79.7175 56.9869C79.7175 55.9418 80.3631 55.05 81.2713 54.6985Z" fill="#E0E0E0"/>
<path d="M22.6773 44.8912C22.7029 41.7973 25.1815 39.297 28.2364 39.297C28.9726 39.297 29.6746 39.4437 30.3177 39.7072C31.4095 37.4405 33.7032 35.8789 36.357 35.8789C39.5662 35.8789 42.2484 38.1627 42.9153 41.2157C45.9336 41.4126 48.3219 43.9579 48.3219 47.0703C48.3219 50.3114 45.7327 52.9387 42.5388 52.9387H24.137C21.873 52.9387 20.0375 51.0764 20.0375 48.7788C20.0375 47.0034 21.1342 45.4882 22.6773 44.8912Z" fill="#F0F0F0"/>
<path d="M26.5051 50.2461C26.5051 50.7162 26.1293 51.0976 25.6659 51.0976C25.2026 51.0976 24.8268 50.7162 24.8268 50.2461C24.8268 49.7759 25.2026 49.3945 25.6659 49.3945C26.1293 49.3945 26.5051 49.7759 26.5051 50.2461Z" fill="#E6E6E6"/>
<path d="M29.6686 50.2461C29.6686 50.7162 29.2928 51.0976 28.8295 51.0976C28.3661 51.0976 27.9903 50.7162 27.9903 50.2461C27.9903 49.7759 28.3661 49.3945 28.8295 49.3945C29.2928 49.3945 29.6686 49.7759 29.6686 50.2461Z" fill="white"/>
<path d="M80.0757 17.6413C80.0934 15.4985 81.8099 13.7666 83.9258 13.7666C84.4355 13.7666 84.9219 13.868 85.3673 14.0507C86.1234 12.4807 87.7122 11.3994 89.5502 11.3994C91.7728 11.3994 93.6305 12.9811 94.0923 15.0955C96.1827 15.232 97.8368 16.9948 97.8368 19.1504C97.8368 21.3951 96.0435 23.2148 93.8315 23.2148H81.0867C79.5187 23.2148 78.2475 21.9247 78.2475 20.3336C78.2475 19.1038 79.007 18.0549 80.0757 17.6413Z" fill="#F5F5F5"/>
<path d="M91.7039 21.1914C91.7039 21.4955 91.4608 21.7422 91.1611 21.7422C90.8614 21.7422 90.6181 21.4955 90.6181 21.1914C90.6181 20.8873 90.8614 20.6406 91.1611 20.6406C91.4608 20.6406 91.7039 20.8873 91.7039 21.1914Z" fill="white"/>
<path d="M93.7505 21.1914C93.7505 21.4955 93.5074 21.7422 93.2077 21.7422C92.908 21.7422 92.6647 21.4955 92.6647 21.1914C92.6647 20.8873 92.908 20.6406 93.2077 20.6406C93.5074 20.6406 93.7505 20.8873 93.7505 21.1914Z" fill="white"/>
<path d="M89.6572 21.1914C89.6572 21.4955 89.4142 21.7422 89.1145 21.7422C88.8148 21.7422 88.5714 21.4955 88.5714 21.1914C88.5714 20.8873 88.8148 20.6406 89.1145 20.6406C89.4142 20.6406 89.6572 20.8873 89.6572 21.1914Z" fill="#E6E6E6"/>
<path d="M98.5433 81.3887C98.5433 82.7975 79.2721 83.9395 55.4999 83.9395C31.7277 83.9395 12.4566 82.7975 12.4566 81.3887C12.4566 79.98 31.7277 78.8379 55.4999 78.8379C79.2721 78.8379 98.5433 79.98 98.5433 81.3887Z" fill="#F5F5F5"/>
<path d="M44.7207 9.56836H40.6384C35.2209 9.56836 30.5762 12.9137 28.5931 17.6782H25.345C19.1601 17.6782 14.1462 22.7661 14.1462 29.0422C14.1462 35.3182 19.1601 40.406 25.345 40.406H44.7207V9.56836Z" fill="#F15A23"/>
<path d="M35.0743 10.2058L34.9838 10.0001C35.4928 9.76947 36.0214 9.56784 36.5546 9.40137L36.6199 9.61673C36.0953 9.78073 35.5752 9.97875 35.0743 10.2058Z" fill="#F15A23"/>
<path d="M30.0084 14.1765L29.8352 14.0357C30.8593 12.7386 32.0903 11.6462 33.4936 10.7891L33.6079 10.9821C32.2273 11.8256 31.0163 12.9003 30.0084 14.1765Z" fill="#F15A23"/>
<path d="M44.7207 9.56836H40.6384C35.2209 9.56836 30.5762 12.9137 28.5931 17.6782H25.345C19.1601 17.6782 14.1462 22.7661 14.1462 29.0422C14.1462 35.3182 19.1601 40.406 25.345 40.406H44.7207V9.56836Z" fill="black" fill-opacity="0.2"/>
<path d="M29.3683 16.1179H35.2246L39.5536 12.2139H32.8093C31.424 13.2682 30.2496 14.595 29.3683 16.1179Z" fill="#F15A23"/>
<path d="M16.0594 22.6885C15.2824 23.8531 14.7141 25.1733 14.4077 26.5925H21.0899V22.6885H16.0594Z" fill="#F15A23"/>
<path d="M43.4744 10.4785H35.8731C35.0561 10.8031 34.2769 11.2084 33.551 11.686H39.1454L43.4744 10.4785Z" fill="#F15A23"/>
<path d="M67.0122 26.4194C65.894 21.6185 61.7775 17.9954 56.7778 17.6997C54.7998 12.9232 50.1467 9.56836 44.7208 9.56836C39.139 9.56836 34.3769 13.1194 32.5019 18.1155C31.5247 17.833 30.4939 17.6782 29.4272 17.6782C23.2423 17.6782 18.2286 22.7661 18.2286 29.0422C18.2286 35.3182 23.2423 40.406 29.4272 40.406H65.0937C68.9736 40.406 72.1191 37.2141 72.1191 33.2769C72.1191 30.015 69.9593 27.2666 67.0122 26.4194Z" fill="#E64510"/>
<path d="M66.7709 27.2875L66.2669 27.1435L66.147 26.6276C65.1081 22.1672 61.2342 18.8667 56.7254 18.5986L56.1726 18.5671L55.9595 18.0489C54.0525 13.4443 49.6413 10.4707 44.7196 10.4707C44.562 10.4707 44.4066 10.473 44.2512 10.4797C48.9798 10.6644 53.1711 13.593 55.016 18.0489L55.2291 18.5671L55.7819 18.5986C60.2907 18.8667 64.1646 22.1672 65.2035 26.6276L65.3234 27.1435L65.8274 27.2875C68.4536 28.0421 70.2873 30.5046 70.2873 33.2777C70.2873 36.7109 67.5345 39.5064 64.1513 39.5064H65.0948C68.478 39.5064 71.2308 36.7109 71.2308 33.2777C71.2308 30.5046 69.3971 28.0421 66.7709 27.2875Z" fill="black" fill-opacity="0.2"/>
<path d="M65.8273 27.2882L65.3234 27.1443L65.2035 26.6284C64.1645 22.1679 60.2906 18.8674 55.7818 18.5994L55.229 18.5678L55.0159 18.0497C53.1711 13.5938 48.9797 10.6652 44.2511 10.4805H44.2356C39.4049 10.6787 35.0626 13.826 33.331 18.4374L33.0424 19.2099L32.2587 18.9826C32.2365 18.9758 32.2121 18.969 32.1899 18.9645C31.2886 18.71 30.3562 18.5813 29.4282 18.5813C29.2661 18.5813 29.1063 18.5859 28.9442 18.5926C23.483 18.8494 19.1163 23.4383 19.1163 29.0431C19.1163 34.8124 23.7428 39.5071 29.4282 39.5071H64.1512C67.5345 39.5071 70.2873 36.7117 70.2873 33.2785C70.2873 30.5054 68.4536 28.0429 65.8273 27.2882Z" fill="white"/>
<path d="M38.9294 52.2956H38.4745C37.8372 52.2956 37.3206 51.7714 37.3206 51.1246V46.4932H40.0833V51.1246C40.0833 51.7714 39.5668 52.2956 38.9294 52.2956Z" fill="#E64510"/>
<path d="M38.9294 52.2956H38.4745C37.8372 52.2956 37.3206 51.7714 37.3206 51.1246V46.4932H40.0833V51.1246C40.0833 51.7714 39.5668 52.2956 38.9294 52.2956Z" fill="black" fill-opacity="0.2"/>
<path d="M39.1323 47.9352H38.2714C37.0651 47.9352 36.0874 46.9429 36.0874 45.7188V40.4072H41.3166V45.7188C41.3166 46.9429 40.3387 47.9352 39.1323 47.9352Z" fill="#E64510"/>
<path d="M41.3166 41.7363L36.0874 42.5373V40.4062H41.3166V41.7363Z" fill="black" fill-opacity="0.2"/>
<path d="M40.9128 44.4081C40.9128 44.7969 40.6022 45.1121 40.219 45.1121C39.8358 45.1121 39.5253 44.7969 39.5253 44.4081C39.5253 44.0193 39.8358 43.7041 40.219 43.7041C40.6022 43.7041 40.9128 44.0193 40.9128 44.4081Z" fill="white"/>
<path d="M39.0626 44.4081C39.0626 44.7969 38.7521 45.1121 38.3689 45.1121C37.9857 45.1121 37.6751 44.7969 37.6751 44.4081C37.6751 44.0193 37.9857 43.7041 38.3689 43.7041C38.7521 43.7041 39.0626 44.0193 39.0626 44.4081Z" fill="white" fill-opacity="0.5"/>
<path d="M56.1167 60.0838H44.4739C40.9852 60.0838 38.1469 57.2037 38.1469 53.6635V52.2949H39.2569V53.6635C39.2569 56.5826 41.5972 58.9574 44.4739 58.9574H56.1167V60.0838Z" fill="#E64510"/>
<path d="M83.2919 31.8496H64.2124C62.62 31.8496 61.3173 33.1715 61.3173 34.7874V78.4508C61.3173 80.0667 62.62 81.3886 64.2124 81.3886H83.2919C84.8843 81.3886 86.187 80.0667 86.187 78.4508V34.7874C86.187 33.1715 84.8843 31.8496 83.2919 31.8496Z" fill="#005E6A"/>
<path d="M83.2919 31.8496H64.2124C62.62 31.8496 61.3173 33.1715 61.3173 34.7874V78.4508C61.3173 80.0667 62.62 81.3886 64.2124 81.3886H83.2919C84.8843 81.3886 86.187 80.0667 86.187 78.4508V34.7874C86.187 33.1715 84.8843 31.8496 83.2919 31.8496Z" fill="black" fill-opacity="0.2"/>
<path d="M78.0914 31.8496H59.0119C57.4195 31.8496 56.1168 33.1715 56.1168 34.7874V78.4508C56.1168 80.0667 57.4195 81.3886 59.0119 81.3886H78.0914C79.6838 81.3886 80.9868 80.0667 80.9868 78.4508V34.7874C80.9868 33.1715 79.6838 31.8496 78.0914 31.8496Z" fill="#005E6A"/>
<path d="M59.0118 80.4096C57.9475 80.4096 57.0817 79.531 57.0817 78.4511V34.7879C57.0817 33.7079 57.9475 32.8291 59.0118 32.8291H78.0914C79.1556 32.8291 80.0217 33.7079 80.0217 34.7879V78.4511C80.0217 79.531 79.1556 80.4096 78.0914 80.4096H59.0118Z" fill="black" fill-opacity="0.2"/>
<path d="M59.9097 80.4096C58.8455 80.4096 57.9797 79.531 57.9797 78.4511V34.7879C57.9797 33.7079 58.8455 32.8291 59.9097 32.8291H78.0913C79.1556 32.8291 80.0216 33.7079 80.0216 34.7879V78.4511C80.0216 79.531 79.1556 80.4096 78.0913 80.4096H59.9097Z" fill="white"/>
<path d="M77.02 15.6042H60.9829C60.1573 15.6042 59.4818 14.9187 59.4818 14.0809C59.4818 13.2431 60.1573 12.5576 60.9829 12.5576H77.02C77.8456 12.5576 78.5211 13.2431 78.5211 14.0809C78.5211 14.9187 77.8456 15.6042 77.02 15.6042Z" fill="#005E6A"/>
<path d="M71.7313 14.4144H60.7405C60.5598 14.4144 60.4122 14.2646 60.4122 14.0812C60.4122 13.8979 60.5598 13.748 60.7405 13.748H71.7313C71.912 13.748 72.0597 13.8979 72.0597 14.0812C72.0597 14.2646 71.912 14.4144 71.7313 14.4144Z" fill="white"/>
<path d="M76.0271 14.0812C76.0271 14.2653 75.88 14.4144 75.6986 14.4144C75.5172 14.4144 75.3702 14.2653 75.3702 14.0812C75.3702 13.8972 75.5172 13.748 75.6986 13.748C75.88 13.748 76.0271 13.8972 76.0271 14.0812Z" fill="#005E6A"/>
<path d="M77.4747 14.0812C77.4747 14.2653 77.3277 14.4144 77.1463 14.4144C76.965 14.4144 76.818 14.2653 76.818 14.0812C76.818 13.8972 76.965 13.748 77.1463 13.748C77.3277 13.748 77.4747 13.8972 77.4747 14.0812Z" fill="#005E6A"/>
<path d="M74.5795 14.0812C74.5795 14.2653 74.4326 14.4144 74.2512 14.4144C74.0698 14.4144 73.9229 14.2653 73.9229 14.0812C73.9229 13.8972 74.0698 13.748 74.2512 13.748C74.4326 13.748 74.5795 13.8972 74.5795 14.0812Z" fill="#005E6A"/>
<path d="M77.0188 20.5007H60.9818C60.1561 20.5007 59.4806 19.8152 59.4806 18.9774C59.4806 18.1396 60.1561 17.4541 60.9818 17.4541H77.0188C77.8444 17.4541 78.52 18.1396 78.52 18.9774C78.52 19.8152 77.8444 20.5007 77.0188 20.5007Z" fill="#005E6A"/>
<path d="M71.7312 19.3099H60.7404C60.5597 19.3099 60.4121 19.1601 60.4121 18.9767C60.4121 18.7934 60.5597 18.6436 60.7404 18.6436H71.7312C71.9119 18.6436 72.0595 18.7934 72.0595 18.9767C72.0595 19.1601 71.9119 19.3099 71.7312 19.3099Z" fill="white"/>
<path d="M76.0271 18.9767C76.0271 19.1608 75.8799 19.3099 75.6985 19.3099C75.5172 19.3099 75.3702 19.1608 75.3702 18.9767C75.3702 18.7927 75.5172 18.6436 75.6985 18.6436C75.8799 18.6436 76.0271 18.7927 76.0271 18.9767Z" fill="#005E6A"/>
<path d="M77.4746 18.9767C77.4746 19.1608 77.3276 19.3099 77.1463 19.3099C76.9649 19.3099 76.8179 19.1608 76.8179 18.9767C76.8179 18.7927 76.9649 18.6436 77.1463 18.6436C77.3276 18.6436 77.4746 18.7927 77.4746 18.9767Z" fill="#005E6A"/>
<path d="M74.5795 18.9767C74.5795 19.1608 74.4325 19.3099 74.2511 19.3099C74.0698 19.3099 73.9228 19.1608 73.9228 18.9767C73.9228 18.7927 74.0698 18.6436 74.2511 18.6436C74.4325 18.6436 74.5795 18.7927 74.5795 18.9767Z" fill="#005E6A"/>
<path d="M77.0188 25.3972H60.9818C60.1561 25.3972 59.4806 24.7117 59.4806 23.8739C59.4806 23.0361 60.1561 22.3506 60.9818 22.3506H77.0188C77.8444 22.3506 78.52 23.0361 78.52 23.8739C78.52 24.7117 77.8444 25.3972 77.0188 25.3972Z" fill="#005E6A"/>
<path d="M71.7312 24.2076H60.7404C60.5597 24.2076 60.4121 24.0576 60.4121 23.8742C60.4121 23.6908 60.5597 23.541 60.7404 23.541H71.7312C71.9119 23.541 72.0595 23.6908 72.0595 23.8742C72.0595 24.0576 71.9119 24.2076 71.7312 24.2076Z" fill="white"/>
<path d="M76.0271 23.8742C76.0271 24.0582 75.8799 24.2076 75.6985 24.2076C75.5172 24.2076 75.3702 24.0582 75.3702 23.8742C75.3702 23.6901 75.5172 23.541 75.6985 23.541C75.8799 23.541 76.0271 23.6901 76.0271 23.8742Z" fill="#005E6A"/>
<path d="M77.4746 23.8742C77.4746 24.0582 77.3276 24.2076 77.1463 24.2076C76.9649 24.2076 76.8179 24.0582 76.8179 23.8742C76.8179 23.6901 76.9649 23.541 77.1463 23.541C77.3276 23.541 77.4746 23.6901 77.4746 23.8742Z" fill="#005E6A"/>
<path d="M74.5795 23.8742C74.5795 24.0582 74.4325 24.2076 74.2511 24.2076C74.0698 24.2076 73.9228 24.0582 73.9228 23.8742C73.9228 23.6901 74.0698 23.541 74.2511 23.541C74.4325 23.541 74.5795 23.6901 74.5795 23.8742Z" fill="#407BFF" fill-opacity="0.6"/>
<path d="M77.0188 30.2929H60.9818C60.1561 30.2929 59.4806 29.6074 59.4806 28.7696C59.4806 27.9318 60.1561 27.2461 60.9818 27.2461H77.0188C77.8444 27.2461 78.52 27.9318 78.52 28.7696C78.52 29.6074 77.8444 30.2929 77.0188 30.2929Z" fill="#005E6A"/>
<path d="M71.7312 29.1031H60.7404C60.5597 29.1031 60.4121 28.9533 60.4121 28.7699C60.4121 28.5866 60.5597 28.4365 60.7404 28.4365H71.7312C71.9119 28.4365 72.0595 28.5866 72.0595 28.7699C72.0595 28.9533 71.9119 29.1031 71.7312 29.1031Z" fill="white"/>
<path d="M76.0271 28.7699C76.0271 28.954 75.8799 29.1031 75.6985 29.1031C75.5172 29.1031 75.3702 28.954 75.3702 28.7699C75.3702 28.5859 75.5172 28.4365 75.6985 28.4365C75.8799 28.4365 76.0271 28.5859 76.0271 28.7699Z" fill="#005E6A"/>
<path d="M77.4746 28.7699C77.4746 28.954 77.3276 29.1031 77.1463 29.1031C76.9649 29.1031 76.8179 28.954 76.8179 28.7699C76.8179 28.5859 76.9649 28.4365 77.1463 28.4365C77.3276 28.4365 77.4746 28.5859 77.4746 28.7699Z" fill="#005E6A"/>
<path d="M74.5795 28.7699C74.5795 28.954 74.4325 29.1031 74.2511 29.1031C74.0698 29.1031 73.9228 28.954 73.9228 28.7699C73.9228 28.5859 74.0698 28.4365 74.2511 28.4365C74.4325 28.4365 74.5795 28.5859 74.5795 28.7699Z" fill="#407BFF" fill-opacity="0.6"/>
<path d="M77.0188 35.1902H60.9818C60.1561 35.1902 59.4806 34.5047 59.4806 33.6669C59.4806 32.8291 60.1561 32.1436 60.9818 32.1436H77.0188C77.8444 32.1436 78.52 32.8291 78.52 33.6669C78.52 34.5047 77.8444 35.1902 77.0188 35.1902Z" fill="#005E6A"/>
<path d="M71.7312 34.0003H60.7404C60.5597 34.0003 60.4121 33.8505 60.4121 33.6672C60.4121 33.4838 60.5597 33.334 60.7404 33.334H71.7312C71.9119 33.334 72.0595 33.4838 72.0595 33.6672C72.0595 33.8505 71.9119 34.0003 71.7312 34.0003Z" fill="white"/>
<path d="M76.0271 33.6672C76.0271 33.8512 75.8799 34.0003 75.6985 34.0003C75.5172 34.0003 75.3702 33.8512 75.3702 33.6672C75.3702 33.4831 75.5172 33.334 75.6985 33.334C75.8799 33.334 76.0271 33.4831 76.0271 33.6672Z" fill="#005E6A"/>
<path d="M77.4746 33.6672C77.4746 33.8512 77.3276 34.0003 77.1463 34.0003C76.9649 34.0003 76.8179 33.8512 76.8179 33.6672C76.8179 33.4831 76.9649 33.334 77.1463 33.334C77.3276 33.334 77.4746 33.4831 77.4746 33.6672Z" fill="#407BFF" fill-opacity="0.6"/>
<path d="M74.5795 33.6672C74.5795 33.8512 74.4325 34.0003 74.2511 34.0003C74.0698 34.0003 73.9228 33.8512 73.9228 33.6672C73.9228 33.4831 74.0698 33.334 74.2511 33.334C74.4325 33.334 74.5795 33.4831 74.5795 33.6672Z" fill="#005E6A"/>
<path d="M77.0188 40.0867H60.9818C60.1561 40.0867 59.4806 39.4011 59.4806 38.5633C59.4806 37.7255 60.1561 37.04 60.9818 37.04H77.0188C77.8444 37.04 78.52 37.7255 78.52 38.5633C78.52 39.4011 77.8444 40.0867 77.0188 40.0867Z" fill="#005E6A"/>
<path d="M71.7312 38.8968H60.7404C60.5597 38.8968 60.4121 38.747 60.4121 38.5637C60.4121 38.3803 60.5597 38.2305 60.7404 38.2305H71.7312C71.9119 38.2305 72.0595 38.3803 72.0595 38.5637C72.0595 38.747 71.9119 38.8968 71.7312 38.8968Z" fill="white"/>
<path d="M76.0271 38.5637C76.0271 38.7477 75.8799 38.8968 75.6985 38.8968C75.5172 38.8968 75.3702 38.7477 75.3702 38.5637C75.3702 38.3796 75.5172 38.2305 75.6985 38.2305C75.8799 38.2305 76.0271 38.3796 76.0271 38.5637Z" fill="#005E6A"/>
<path d="M77.4746 38.5637C77.4746 38.7477 77.3276 38.8968 77.1463 38.8968C76.9649 38.8968 76.8179 38.7477 76.8179 38.5637C76.8179 38.3796 76.9649 38.2305 77.1463 38.2305C77.3276 38.2305 77.4746 38.3796 77.4746 38.5637Z" fill="#005E6A"/>
<path d="M74.5795 38.5637C74.5795 38.7477 74.4325 38.8968 74.2511 38.8968C74.0698 38.8968 73.9228 38.7477 73.9228 38.5637C73.9228 38.3796 74.0698 38.2305 74.2511 38.2305C74.4325 38.2305 74.5795 38.3796 74.5795 38.5637Z" fill="#005E6A"/>
<path d="M77.0188 44.9822H60.9818C60.1561 44.9822 59.4806 44.2967 59.4806 43.4589C59.4806 42.6211 60.1561 41.9355 60.9818 41.9355H77.0188C77.8444 41.9355 78.52 42.6211 78.52 43.4589C78.52 44.2967 77.8444 44.9822 77.0188 44.9822Z" fill="#005E6A"/>
<path d="M71.7312 43.7923H60.7404C60.5597 43.7923 60.4121 43.6425 60.4121 43.4592C60.4121 43.2758 60.5597 43.126 60.7404 43.126H71.7312C71.9119 43.126 72.0595 43.2758 72.0595 43.4592C72.0595 43.6425 71.9119 43.7923 71.7312 43.7923Z" fill="white"/>
<path d="M76.0271 43.4592C76.0271 43.6432 75.8799 43.7923 75.6985 43.7923C75.5172 43.7923 75.3702 43.6432 75.3702 43.4592C75.3702 43.2751 75.5172 43.126 75.6985 43.126C75.8799 43.126 76.0271 43.2751 76.0271 43.4592Z" fill="#005E6A"/>
<path d="M77.4746 43.4592C77.4746 43.6432 77.3276 43.7923 77.1463 43.7923C76.9649 43.7923 76.8179 43.6432 76.8179 43.4592C76.8179 43.2751 76.9649 43.126 77.1463 43.126C77.3276 43.126 77.4746 43.2751 77.4746 43.4592Z" fill="#005E6A"/>
<path d="M74.5795 43.4592C74.5795 43.6432 74.4325 43.7923 74.2511 43.7923C74.0698 43.7923 73.9228 43.6432 73.9228 43.4592C73.9228 43.2751 74.0698 43.126 74.2511 43.126C74.4325 43.126 74.5795 43.2751 74.5795 43.4592Z" fill="#005E6A"/>
<path d="M77.0188 49.8786H60.9818C60.1561 49.8786 59.4806 49.1931 59.4806 48.3553C59.4806 47.5175 60.1561 46.832 60.9818 46.832H77.0188C77.8444 46.832 78.52 47.5175 78.52 48.3553C78.52 49.1931 77.8444 49.8786 77.0188 49.8786Z" fill="#005E6A"/>
<path d="M71.7312 48.689H60.7404C60.5597 48.689 60.4121 48.539 60.4121 48.3556C60.4121 48.1723 60.5597 48.0225 60.7404 48.0225H71.7312C71.9119 48.0225 72.0595 48.1723 72.0595 48.3556C72.0595 48.539 71.9119 48.689 71.7312 48.689Z" fill="white"/>
<path d="M76.0271 48.3556C76.0271 48.5397 75.8799 48.689 75.6985 48.689C75.5172 48.689 75.3702 48.5397 75.3702 48.3556C75.3702 48.1716 75.5172 48.0225 75.6985 48.0225C75.8799 48.0225 76.0271 48.1716 76.0271 48.3556Z" fill="#005E6A"/>
<path d="M77.4746 48.3556C77.4746 48.5397 77.3276 48.689 77.1463 48.689C76.9649 48.689 76.8179 48.5397 76.8179 48.3556C76.8179 48.1716 76.9649 48.0225 77.1463 48.0225C77.3276 48.0225 77.4746 48.1716 77.4746 48.3556Z" fill="#005E6A"/>
<path d="M74.5795 48.3556C74.5795 48.5397 74.4325 48.689 74.2511 48.689C74.0698 48.689 73.9228 48.5397 73.9228 48.3556C73.9228 48.1716 74.0698 48.0225 74.2511 48.0225C74.4325 48.0225 74.5795 48.1716 74.5795 48.3556Z" fill="#005E6A"/>
<path d="M77.0188 54.7751H60.9818C60.1561 54.7751 59.4806 54.0896 59.4806 53.2518C59.4806 52.414 60.1561 51.7285 60.9818 51.7285H77.0188C77.8444 51.7285 78.52 52.414 78.52 53.2518C78.52 54.0896 77.8444 54.7751 77.0188 54.7751Z" fill="#005E6A"/>
<path d="M71.7312 53.5855H60.7404C60.5597 53.5855 60.4121 53.4355 60.4121 53.2521C60.4121 53.0688 60.5597 52.9189 60.7404 52.9189H71.7312C71.9119 52.9189 72.0595 53.0688 72.0595 53.2521C72.0595 53.4355 71.9119 53.5855 71.7312 53.5855Z" fill="white"/>
<path d="M76.0271 53.2521C76.0271 53.4362 75.8799 53.5855 75.6985 53.5855C75.5172 53.5855 75.3702 53.4362 75.3702 53.2521C75.3702 53.0681 75.5172 52.9189 75.6985 52.9189C75.8799 52.9189 76.0271 53.0681 76.0271 53.2521Z" fill="#005E6A"/>
<path d="M77.4746 53.2521C77.4746 53.4362 77.3276 53.5855 77.1463 53.5855C76.9649 53.5855 76.8179 53.4362 76.8179 53.2521C76.8179 53.0681 76.9649 52.9189 77.1463 52.9189C77.3276 52.9189 77.4746 53.0681 77.4746 53.2521Z" fill="#005E6A"/>
<path d="M74.5795 53.2521C74.5795 53.4362 74.4325 53.5855 74.2511 53.5855C74.0698 53.5855 73.9228 53.4362 73.9228 53.2521C73.9228 53.0681 74.0698 52.9189 74.2511 52.9189C74.4325 52.9189 74.5795 53.0681 74.5795 53.2521Z" fill="#407BFF" fill-opacity="0.6"/>
<path d="M77.0194 59.8298H60.9823C60.1567 59.8298 59.4811 59.1443 59.4811 58.3065C59.4811 57.4687 60.1567 56.7832 60.9823 56.7832H77.0194C77.845 56.7832 78.5205 57.4687 78.5205 58.3065C78.5205 59.1443 77.845 59.8298 77.0194 59.8298Z" fill="#005E6A"/>
<path d="M71.7312 58.64H60.7404C60.5597 58.64 60.4121 58.4902 60.4121 58.3068C60.4121 58.1234 60.5597 57.9736 60.7404 57.9736H71.7312C71.9119 57.9736 72.0596 58.1234 72.0596 58.3068C72.0596 58.4902 71.9119 58.64 71.7312 58.64Z" fill="white"/>
<path d="M76.027 58.3068C76.027 58.4909 75.8799 58.64 75.6985 58.64C75.5171 58.64 75.3701 58.4909 75.3701 58.3068C75.3701 58.1228 75.5171 57.9736 75.6985 57.9736C75.8799 57.9736 76.027 58.1228 76.027 58.3068Z" fill="#005E6A"/>
<path d="M77.4745 58.3068C77.4745 58.4909 77.3276 58.64 77.1462 58.64C76.9648 58.64 76.8179 58.4909 76.8179 58.3068C76.8179 58.1228 76.9648 57.9736 77.1462 57.9736C77.3276 57.9736 77.4745 58.1228 77.4745 58.3068Z" fill="#005E6A"/>
<path d="M74.5795 58.3068C74.5795 58.4909 74.4326 58.64 74.2512 58.64C74.0698 58.64 73.9229 58.4909 73.9229 58.3068C73.9229 58.1228 74.0698 57.9736 74.2512 57.9736C74.4326 57.9736 74.5795 58.1228 74.5795 58.3068Z" fill="#005E6A"/>
<path d="M77.0188 64.7263H60.9817C60.1561 64.7263 59.4806 64.0408 59.4806 63.203C59.4806 62.3652 60.1561 61.6797 60.9817 61.6797H77.0188C77.8444 61.6797 78.5199 62.3652 78.5199 63.203C78.5199 64.0408 77.8444 64.7263 77.0188 64.7263Z" fill="#005E6A"/>
<path d="M71.7312 63.5365H60.7404C60.5597 63.5365 60.412 63.3867 60.412 63.2033C60.412 63.0199 60.5597 62.8701 60.7404 62.8701H71.7312C71.9119 62.8701 72.0595 63.0199 72.0595 63.2033C72.0595 63.3867 71.9119 63.5365 71.7312 63.5365Z" fill="white"/>
<path d="M76.0271 63.2033C76.0271 63.3873 75.8799 63.5365 75.6985 63.5365C75.5171 63.5365 75.3702 63.3873 75.3702 63.2033C75.3702 63.0192 75.5171 62.8701 75.6985 62.8701C75.8799 62.8701 76.0271 63.0192 76.0271 63.2033Z" fill="#005E6A"/>
<path d="M77.4746 63.2033C77.4746 63.3873 77.3276 63.5365 77.1462 63.5365C76.9649 63.5365 76.8179 63.3873 76.8179 63.2033C76.8179 63.0192 76.9649 62.8701 77.1462 62.8701C77.3276 62.8701 77.4746 63.0192 77.4746 63.2033Z" fill="#005E6A"/>
<path d="M74.5794 63.2033C74.5794 63.3873 74.4325 63.5365 74.2511 63.5365C74.0697 63.5365 73.9228 63.3873 73.9228 63.2033C73.9228 63.0192 74.0697 62.8701 74.2511 62.8701C74.4325 62.8701 74.5794 63.0192 74.5794 63.2033Z" fill="#005E6A"/>
<path d="M77.0188 69.6228H60.9817C60.1561 69.6228 59.4806 68.9373 59.4806 68.0995C59.4806 67.2617 60.1561 66.5762 60.9817 66.5762H77.0188C77.8444 66.5762 78.5199 67.2617 78.5199 68.0995C78.5199 68.9373 77.8444 69.6228 77.0188 69.6228Z" fill="#005E6A"/>
<path d="M71.7312 68.4332H60.7404C60.5597 68.4332 60.412 68.2832 60.412 68.0998C60.412 67.9164 60.5597 67.7666 60.7404 67.7666H71.7312C71.9119 67.7666 72.0595 67.9164 72.0595 68.0998C72.0595 68.2832 71.9119 68.4332 71.7312 68.4332Z" fill="white"/>
<path d="M76.0271 68.0998C76.0271 68.2838 75.8799 68.4332 75.6985 68.4332C75.5171 68.4332 75.3702 68.2838 75.3702 68.0998C75.3702 67.9157 75.5171 67.7666 75.6985 67.7666C75.8799 67.7666 76.0271 67.9157 76.0271 68.0998Z" fill="#005E6A"/>
<path d="M77.4746 68.0998C77.4746 68.2838 77.3276 68.4332 77.1462 68.4332C76.9649 68.4332 76.8179 68.2838 76.8179 68.0998C76.8179 67.9157 76.9649 67.7666 77.1462 67.7666C77.3276 67.7666 77.4746 67.9157 77.4746 68.0998Z" fill="#005E6A"/>
<path d="M74.5794 68.0998C74.5794 68.2838 74.4325 68.4332 74.2511 68.4332C74.0697 68.4332 73.9228 68.2838 73.9228 68.0998C73.9228 67.9157 74.0697 67.7666 74.2511 67.7666C74.4325 67.7666 74.5794 67.9157 74.5794 68.0998Z" fill="#407BFF" fill-opacity="0.6"/>
<path d="M77.0188 74.5185H60.9817C60.1561 74.5185 59.4806 73.833 59.4806 72.9952C59.4806 72.1574 60.1561 71.4717 60.9817 71.4717H77.0188C77.8444 71.4717 78.5199 72.1574 78.5199 72.9952C78.5199 73.833 77.8444 74.5185 77.0188 74.5185Z" fill="#005E6A"/>
<path d="M71.7312 73.3287H60.7404C60.5597 73.3287 60.412 73.1789 60.412 72.9955C60.412 72.8121 60.5597 72.6621 60.7404 72.6621H71.7312C71.9119 72.6621 72.0595 72.8121 72.0595 72.9955C72.0595 73.1789 71.9119 73.3287 71.7312 73.3287Z" fill="white"/>
<path d="M76.0271 72.9955C76.0271 73.1796 75.8799 73.3287 75.6985 73.3287C75.5171 73.3287 75.3702 73.1796 75.3702 72.9955C75.3702 72.8115 75.5171 72.6621 75.6985 72.6621C75.8799 72.6621 76.0271 72.8115 76.0271 72.9955Z" fill="#005E6A"/>
<path d="M77.4746 72.9955C77.4746 73.1796 77.3276 73.3287 77.1462 73.3287C76.9649 73.3287 76.8179 73.1796 76.8179 72.9955C76.8179 72.8115 76.9649 72.6621 77.1462 72.6621C77.3276 72.6621 77.4746 72.8115 77.4746 72.9955Z" fill="#005E6A"/>
<path d="M74.5794 72.9955C74.5794 73.1796 74.4325 73.3287 74.2511 73.3287C74.0697 73.3287 73.9228 73.1796 73.9228 72.9955C73.9228 72.8115 74.0697 72.6621 74.2511 72.6621C74.4325 72.6621 74.5794 72.8115 74.5794 72.9955Z" fill="#407BFF" fill-opacity="0.6"/>
<path d="M77.0188 79.4148H60.9817C60.1561 79.4148 59.4806 78.7293 59.4806 77.8915C59.4806 77.0537 60.1561 76.3682 60.9817 76.3682H77.0188C77.8444 76.3682 78.5199 77.0537 78.5199 77.8915C78.5199 78.7293 77.8444 79.4148 77.0188 79.4148Z" fill="#005E6A"/>
<path d="M71.7312 78.225H60.7404C60.5597 78.225 60.412 78.0751 60.412 77.8918C60.412 77.7084 60.5597 77.5586 60.7404 77.5586H71.7312C71.9119 77.5586 72.0595 77.7084 72.0595 77.8918C72.0595 78.0751 71.9119 78.225 71.7312 78.225Z" fill="white"/>
<path d="M76.0271 77.8918C76.0271 78.0758 75.8799 78.225 75.6985 78.225C75.5171 78.225 75.3702 78.0758 75.3702 77.8918C75.3702 77.7077 75.5171 77.5586 75.6985 77.5586C75.8799 77.5586 76.0271 77.7077 76.0271 77.8918Z" fill="#005E6A"/>
<path d="M77.4746 77.8918C77.4746 78.0758 77.3276 78.225 77.1462 78.225C76.9649 78.225 76.8179 78.0758 76.8179 77.8918C76.8179 77.7077 76.9649 77.5586 77.1462 77.5586C77.3276 77.5586 77.4746 77.7077 77.4746 77.8918Z" fill="#407BFF" fill-opacity="0.6"/>
<path d="M74.5794 77.8918C74.5794 78.0758 74.4325 78.225 74.2511 78.225C74.0697 78.225 73.9228 78.0758 73.9228 77.8918C73.9228 77.7077 74.0697 77.5586 74.2511 77.5586C74.4325 77.5586 74.5794 77.7077 74.5794 77.8918Z" fill="#005E6A"/>
<path d="M77.0188 84.3113H60.9817C60.1561 84.3113 59.4806 83.6258 59.4806 82.788C59.4806 81.9502 60.1561 81.2646 60.9817 81.2646H77.0188C77.8444 81.2646 78.5199 81.9502 78.5199 82.788C78.5199 83.6258 77.8444 84.3113 77.0188 84.3113Z" fill="#005E6A"/>
<path d="M71.7312 83.1214H60.7404C60.5597 83.1214 60.412 82.9716 60.412 82.7883C60.412 82.6049 60.5597 82.4551 60.7404 82.4551H71.7312C71.9119 82.4551 72.0595 82.6049 72.0595 82.7883C72.0595 82.9716 71.9119 83.1214 71.7312 83.1214Z" fill="white"/>
<path d="M76.0271 82.7883C76.0271 82.9723 75.8799 83.1214 75.6985 83.1214C75.5171 83.1214 75.3702 82.9723 75.3702 82.7883C75.3702 82.6042 75.5171 82.4551 75.6985 82.4551C75.8799 82.4551 76.0271 82.6042 76.0271 82.7883Z" fill="#005E6A"/>
<path d="M77.4746 82.7883C77.4746 82.9723 77.3276 83.1214 77.1462 83.1214C76.9649 83.1214 76.8179 82.9723 76.8179 82.7883C76.8179 82.6042 76.9649 82.4551 77.1462 82.4551C77.3276 82.4551 77.4746 82.6042 77.4746 82.7883Z" fill="#005E6A"/>
<path d="M74.5794 82.7883C74.5794 82.9723 74.4325 83.1214 74.2511 83.1214C74.0697 83.1214 73.9228 82.9723 73.9228 82.7883C73.9228 82.6042 74.0697 82.4551 74.2511 82.4551C74.4325 82.4551 74.5794 82.6042 74.5794 82.7883Z" fill="#005E6A"/>
<path d="M77.0188 89.2077H60.9817C60.1561 89.2077 59.4806 88.5222 59.4806 87.6844C59.4806 86.8466 60.1561 86.1611 60.9817 86.1611H77.0188C77.8444 86.1611 78.5199 86.8466 78.5199 87.6844C78.5199 88.5222 77.8444 89.2077 77.0188 89.2077Z" fill="#005E6A"/>
<path d="M71.7312 88.0179H60.7404C60.5597 88.0179 60.412 87.8681 60.412 87.6847C60.412 87.5014 60.5597 87.3516 60.7404 87.3516H71.7312C71.9119 87.3516 72.0595 87.5014 72.0595 87.6847C72.0595 87.8681 71.9119 88.0179 71.7312 88.0179Z" fill="white"/>
<path d="M76.0271 87.6847C76.0271 87.8688 75.8799 88.0179 75.6985 88.0179C75.5171 88.0179 75.3702 87.8688 75.3702 87.6847C75.3702 87.5007 75.5171 87.3516 75.6985 87.3516C75.8799 87.3516 76.0271 87.5007 76.0271 87.6847Z" fill="#005E6A"/>
<path d="M77.4746 87.6847C77.4746 87.8688 77.3276 88.0179 77.1462 88.0179C76.9649 88.0179 76.8179 87.8688 76.8179 87.6847C76.8179 87.5007 76.9649 87.3516 77.1462 87.3516C77.3276 87.3516 77.4746 87.5007 77.4746 87.6847Z" fill="#005E6A"/>
<path d="M74.5794 87.6847C74.5794 87.8688 74.4325 88.0179 74.2511 88.0179C74.0697 88.0179 73.9228 87.8688 73.9228 87.6847C73.9228 87.5007 74.0697 87.3516 74.2511 87.3516C74.4325 87.3516 74.5794 87.5007 74.5794 87.6847Z" fill="#005E6A"/>
<path d="M77.0188 94.1042H60.9817C60.1561 94.1042 59.4806 93.4187 59.4806 92.5809C59.4806 91.7431 60.1561 91.0576 60.9817 91.0576H77.0188C77.8444 91.0576 78.5199 91.7431 78.5199 92.5809C78.5199 93.4187 77.8444 94.1042 77.0188 94.1042Z" fill="#005E6A"/>
<path d="M71.7312 92.9146H60.7404C60.5597 92.9146 60.412 92.7646 60.412 92.5812C60.412 92.3979 60.5597 92.248 60.7404 92.248H71.7312C71.9119 92.248 72.0595 92.3979 72.0595 92.5812C72.0595 92.7646 71.9119 92.9146 71.7312 92.9146Z" fill="white"/>
<path d="M76.0271 92.5812C76.0271 92.7653 75.8799 92.9146 75.6985 92.9146C75.5171 92.9146 75.3702 92.7653 75.3702 92.5812C75.3702 92.3972 75.5171 92.248 75.6985 92.248C75.8799 92.248 76.0271 92.3972 76.0271 92.5812Z" fill="#005E6A"/>
<path d="M77.4746 92.5812C77.4746 92.7653 77.3276 92.9146 77.1462 92.9146C76.9649 92.9146 76.8179 92.7653 76.8179 92.5812C76.8179 92.3972 76.9649 92.248 77.1462 92.248C77.3276 92.248 77.4746 92.3972 77.4746 92.5812Z" fill="#005E6A"/>
<path d="M74.5794 92.5812C74.5794 92.7653 74.4325 92.9146 74.2511 92.9146C74.0697 92.9146 73.9228 92.7653 73.9228 92.5812C73.9228 92.3972 74.0697 92.248 74.2511 92.248C74.4325 92.248 74.5794 92.3972 74.5794 92.5812Z" fill="#005E6A"/>
<path d="M77.0188 99.0007H60.9817C60.1561 99.0007 59.4806 98.3152 59.4806 97.4774C59.4806 96.6396 60.1561 95.9541 60.9817 95.9541H77.0188C77.8444 95.9541 78.5199 96.6396 78.5199 97.4774C78.5199 98.3152 77.8444 99.0007 77.0188 99.0007Z" fill="#005E6A"/>
<path d="M71.7312 97.8111H60.7404C60.5597 97.8111 60.412 97.6611 60.412 97.4777C60.412 97.2943 60.5597 97.1445 60.7404 97.1445H71.7312C71.9119 97.1445 72.0595 97.2943 72.0595 97.4777C72.0595 97.6611 71.9119 97.8111 71.7312 97.8111Z" fill="white"/>
<path d="M76.0271 97.4777C76.0271 97.6618 75.8799 97.8111 75.6985 97.8111C75.5171 97.8111 75.3702 97.6618 75.3702 97.4777C75.3702 97.2937 75.5171 97.1445 75.6985 97.1445C75.8799 97.1445 76.0271 97.2937 76.0271 97.4777Z" fill="#005E6A"/>
<path d="M77.4746 97.4777C77.4746 97.6618 77.3276 97.8111 77.1462 97.8111C76.9649 97.8111 76.8179 97.6618 76.8179 97.4777C76.8179 97.2937 76.9649 97.1445 77.1462 97.1445C77.3276 97.1445 77.4746 97.2937 77.4746 97.4777Z" fill="#005E6A"/>
<path d="M74.5794 97.4777C74.5794 97.6618 74.4325 97.8111 74.2511 97.8111C74.0697 97.8111 73.9228 97.6618 73.9228 97.4777C73.9228 97.2937 74.0697 97.1445 74.2511 97.1445C74.4325 97.1445 74.5794 97.2937 74.5794 97.4777Z" fill="#407BFF" fill-opacity="0.6"/>
<path d="M84.7092 46.2284H82.4646C82.1025 46.2284 81.8061 45.9276 81.8061 45.5602V42.7461C81.8061 42.3786 82.1025 42.0781 82.4646 42.0781H84.7092C85.0713 42.0781 85.3677 42.3786 85.3677 42.7461V45.5602C85.3677 45.9276 85.0713 46.2284 84.7092 46.2284Z" fill="black" fill-opacity="0.2"/>
<path d="M56.1166 63.6377V78.4502C56.1166 80.0661 57.4193 81.388 59.0117 81.388H62.5668L61.2966 65.0396L56.1166 63.6377Z" fill="black" fill-opacity="0.2"/>
<path d="M50.8244 63.7643L49.4054 65.5602C49.1474 65.8866 48.7596 66.0801 48.3633 66.0801H35.551C34.8711 66.0801 34.2741 66.6397 34.2179 67.3297L33.0893 81.1688C33.0331 81.8588 33.5388 82.4182 34.2188 82.4182H59.3042C59.9841 82.4182 60.5811 81.8588 60.6373 81.1688L61.997 64.4935C62.0532 63.8035 61.5477 63.2441 60.8677 63.2441H51.8665C51.4702 63.2441 51.0824 63.4379 50.8244 63.7643Z" fill="#005E6A"/>
<path d="M50.8244 63.7643L49.4054 65.5602C49.1474 65.8866 48.7596 66.0801 48.3633 66.0801H35.551C34.8711 66.0801 34.2741 66.6397 34.2179 67.3297L33.0893 81.1688C33.0331 81.8588 33.5388 82.4182 34.2188 82.4182H59.3042C59.9841 82.4182 60.5811 81.8588 60.6373 81.1688L61.997 64.4935C62.0532 63.8035 61.5477 63.2441 60.8677 63.2441H51.8665C51.4702 63.2441 51.0824 63.4379 50.8244 63.7643Z" fill="black" fill-opacity="0.3"/>
<path d="M45.7585 64.7485L44.6083 66.4496C44.3992 66.7589 44.0402 66.9423 43.644 66.9423H33.1065C32.4265 66.9423 31.9133 67.4723 31.9603 68.1259L32.9023 81.2346C32.9493 81.8881 33.5387 82.418 34.2187 82.418H59.3041C59.9841 82.418 60.4973 81.8881 60.4503 81.2346L59.3152 65.4395C59.2681 64.7859 58.6787 64.2559 57.9987 64.2559H46.7229C46.3266 64.2559 45.9676 64.4392 45.7585 64.7485Z" fill="#005E6A"/>
<path d="M58.5199 35.4531L60.7669 36.444L59.4785 37.9694L57.5999 37.1432L58.5199 35.4531Z" fill="#CE7A63"/>
<path d="M58.5202 35.4541L60.7677 36.4454L60.0461 37.2992L58.0045 36.4004L58.5202 35.4541Z" fill="black" fill-opacity="0.2"/>
<path d="M59.7656 38.775L59.5137 38.7063C59.3637 38.6653 59.244 38.551 59.1943 38.4019L59.0294 38.4728C58.9341 38.5138 58.8278 38.521 58.7277 38.4938L55.2936 37.5565C55.3148 37.2415 55.603 36.9015 55.603 36.9015C55.603 36.9015 57.1335 37.2314 57.5937 36.8757C57.6291 36.8483 57.6754 36.8408 57.7151 36.8614C57.9896 37.0027 59.0733 37.5334 59.7831 37.4929C59.8772 37.4874 59.9471 37.5779 59.9251 37.671C59.8039 38.1826 59.7656 38.775 59.7656 38.775Z" fill="#263238"/>
<path d="M78.7062 28.2777L77.7439 30.323C76.3238 33.3419 72.8244 34.8597 70.0304 33.6721C68.3994 32.9773 66.6187 31.5108 65.4067 30.84C64.37 33.1446 62.43 35.6873 60.9446 37.4568L57.9413 35.9223C59.0628 33.3103 60.8095 29.2303 61.9175 26.5806C62.3201 25.6205 63.2602 24.9618 64.2524 24.9346C69.2462 24.7975 78.7062 28.2777 78.7062 28.2777Z" fill="#263238"/>
<path d="M64.2407 42.1358L66.3998 42.0391L66.0008 44.4457L64.1962 44.5294L64.2407 42.1358Z" fill="#CE7A63"/>
<path d="M64.2423 42.137L66.4022 42.04L66.2378 43.0295L64.2231 43.1625L64.2423 42.137Z" fill="black" fill-opacity="0.2"/>
<path d="M66.8287 44.5557L66.58 44.635C66.432 44.6821 66.2705 44.6511 66.1495 44.5523L66.0478 44.7019C65.989 44.7883 65.9034 44.8526 65.8045 44.8841L62.4115 45.9641C62.2627 45.6867 62.3259 45.2429 62.3259 45.2429C62.3259 45.2429 63.7918 44.6876 63.9918 44.1367C64.0073 44.0942 64.0423 44.0627 64.0866 44.0583C64.3928 44.0278 65.5882 43.8851 66.1654 43.4645C66.2419 43.4087 66.3488 43.4472 66.3794 43.5377C66.5478 44.0353 66.8287 44.5557 66.8287 44.5557Z" fill="#263238"/>
<path d="M80.1052 27.4678L80.0889 29.6277C80.0637 32.814 77.4019 35.6582 74.2234 35.8979C72.3681 36.0366 69.8608 36.0803 68.4142 36.0517C68.2032 38.2824 67.5166 40.9109 66.8251 42.8163L63.6999 42.5946C63.6182 39.8906 63.4978 36.0561 63.3967 33.5134C63.358 32.5217 63.9628 31.5466 64.8956 31.0808C69.5817 28.74 80.1052 27.4678 80.1052 27.4678Z" fill="#263238"/>
<path d="M66.1601 42.8442C66.153 42.8442 66.1456 42.843 66.1385 42.8408C66.0994 42.8287 66.0771 42.7867 66.089 42.7468C66.5616 41.1704 67.4127 36.2489 67.4507 33.9912C67.451 33.9696 67.4604 33.9493 67.4765 33.9352C67.4926 33.9211 67.5136 33.9146 67.5349 33.9176C72.1002 34.5338 75.1921 34.3244 76.4763 33.3119C78.7319 31.5334 78.6996 28.6545 78.1277 27.1532C78.1128 27.1143 78.1319 27.0708 78.1702 27.0559C78.2085 27.041 78.2516 27.0599 78.2663 27.0988C78.8543 28.642 78.8871 31.6019 76.5674 33.4309C75.2404 34.4774 72.2232 34.6951 67.5974 34.0781C67.5402 36.3825 66.7 41.2263 66.2313 42.7908C66.2215 42.8232 66.1921 42.8442 66.1601 42.8442Z" fill="black" fill-opacity="0.1"/>
<path d="M65.2842 31.1046C64.7942 32.137 64.1347 33.2087 63.4262 34.2306C63.4419 34.6767 63.4592 35.1501 63.477 35.6415C64.583 33.869 65.2862 31.1016 65.2862 31.1016C65.2862 31.1016 65.2858 31.1032 65.2842 31.1046Z" fill="black" fill-opacity="0.2"/>
<path d="M73.3696 17.3007C73.2856 17.6127 73.2065 17.8844 73.1147 18.1702C73.0275 18.4534 72.9298 18.7318 72.8321 19.0112C72.6311 19.5677 72.4229 20.1222 72.1804 20.6704C71.941 21.2207 71.6895 21.7667 71.391 22.3111C71.0976 22.8584 70.7713 23.399 70.3629 23.9472L70.2352 24.1187C70.1539 24.2278 70.0481 24.3124 69.9346 24.3683C69.7148 24.4755 69.4877 24.5642 69.2601 24.639C69.0342 24.7184 68.7993 24.7684 68.5683 24.8153C68.3345 24.856 68.0995 24.8825 67.8615 24.8895C67.7429 24.8939 67.6222 24.8899 67.502 24.8855L67.3177 24.8706C67.2523 24.8641 67.1989 24.8522 67.1125 24.8472C66.7297 24.8246 66.4375 24.4914 66.4598 24.103C66.4638 24.0349 66.4771 23.9694 66.4985 23.9081L66.7617 23.1674C66.7712 23.1402 66.8135 23.1043 66.8433 23.0714L66.9432 22.9751L67.1462 22.7868C67.2805 22.6625 67.4138 22.5453 67.5405 22.4244C67.6702 22.3105 67.7918 22.189 67.9124 22.0779C68.0339 21.9671 68.1438 21.8477 68.2574 21.7417L67.8291 22.1626C68.0528 21.7726 68.2624 21.3138 68.4685 20.8456L68.6189 20.488L68.7621 20.1204C68.86 19.8761 68.9548 19.6269 69.0464 19.3758C69.2289 18.8735 69.4095 18.3627 69.5821 17.8492L70.0918 16.3231L70.1041 16.2867C70.407 15.3798 71.3769 14.8943 72.2703 15.2017C73.1296 15.4973 73.604 16.4241 73.3696 17.3007Z" fill="#CE7A63"/>
<path d="M71.7306 14.4639C70.8238 14.7279 69.604 15.744 69.1849 18.0452C69.7922 19.0026 72.6435 18.2637 72.6435 18.2637L71.7306 14.4639Z" fill="#DADADA"/>
<path d="M67.4647 23.1893L67.5569 24.1856C67.282 25.1995 66.0586 24.6154 66.0586 24.6154L65.3586 24.5755C65.1213 24.562 64.927 24.3487 64.8992 24.0716L64.8295 23.3756C64.7977 23.0583 64.994 22.7731 65.2647 22.7433L65.8729 22.6764C66.0499 22.6568 66.2288 22.682 66.3939 22.7497L67.4647 23.1893Z" fill="#CE7A63"/>
<path d="M77.9505 21.3057L77.7399 21.9628C77.7399 21.86 77.736 21.7551 77.728 21.6483C77.7499 21.6241 77.7678 21.5999 77.7856 21.5758C77.8631 21.4689 77.9267 21.3702 77.9505 21.3057Z" fill="#CE7A63"/>
<path d="M72.1701 14.3265C73.595 14.0172 75.2334 13.785 76.6985 13.7019C78.3715 13.607 79.7635 14.9798 79.7208 16.6796C79.5931 21.7563 80.2975 27.0939 80.1976 28.0726C80.1976 28.0726 69.6482 29.6136 68.0308 26.4317C67.3515 21.9188 69.5467 22.4938 69.7225 17.3121C69.7686 15.9548 70.8613 14.6108 72.1701 14.3265Z" fill="#DADADA"/>
<path d="M71.3381 18.9157L71.3738 18.9054L71.38 18.8665C71.435 18.5307 71.699 18.286 72.0222 18.2713L72.0617 18.2695L72.0748 18.2308C72.1878 17.8964 72.4763 17.6801 72.8155 17.6719H72.8167C73.1651 17.6926 73.4913 17.9357 73.6363 18.2862L73.6605 18.3451L73.7157 18.3288C73.7173 18.3284 73.7191 18.3278 73.7207 18.3276C73.7844 18.3094 73.8508 18.3007 73.9175 18.302C73.9292 18.3022 73.9408 18.3028 73.9525 18.3034C74.3464 18.3294 74.6809 18.6815 74.7057 19.105C74.7313 19.541 74.4193 19.8899 74.0103 19.883L71.5129 19.8409C71.2696 19.8368 71.0592 19.6222 71.0439 19.3628C71.0316 19.1532 71.1526 18.9695 71.3381 18.9157Z" fill="#005E6A"/>
<path d="M80.8129 22.2249L80.795 22.3721C80.7692 22.5676 80.6957 22.751 80.5944 22.9062C80.3759 23.2348 80.1535 23.4746 79.929 23.6782C79.7065 23.8818 79.4861 24.0531 79.2676 24.2103C78.8306 24.5227 78.3876 24.7626 77.9506 24.9843C77.5077 25.198 77.0647 25.3874 76.6158 25.5507C76.2166 25.6938 75.8273 25.8188 75.4082 25.9236C75.1638 26.3549 74.5084 26.5101 74.5084 26.5101L73.9343 26.9173C73.7397 27.0564 73.4556 27.01 73.2649 26.8105L72.7862 26.3066C72.5677 26.0768 72.5479 25.7301 72.7425 25.5366L73.1795 25.1032C73.3066 24.9762 73.4636 24.8835 73.6344 24.8331L74.3276 24.6296C74.3753 24.555 74.4368 24.4865 74.5064 24.43L74.5441 24.4018C74.8758 24.1317 75.2373 23.8616 75.577 23.5915C75.9186 23.3214 76.2563 23.0533 76.5741 22.7812C76.8939 22.5132 77.1919 22.233 77.4521 21.9669C77.5554 21.8581 77.6507 21.7492 77.7282 21.6485C77.7361 21.7553 77.7401 21.8601 77.7401 21.9629L77.9506 21.3058C77.9268 21.3703 77.8632 21.4691 77.7858 21.5759C77.7679 21.6001 77.75 21.6243 77.7282 21.6485C77.7123 21.3562 77.6726 21.0518 77.6249 20.7394C77.5514 20.3121 77.4521 19.8747 77.3369 19.4353C77.2157 18.9959 77.0866 18.5505 76.9376 18.109C76.8661 17.8893 76.7867 17.6696 76.7112 17.4499L76.4847 16.8311L76.451 16.7384C76.1232 15.8415 76.5741 14.8437 77.458 14.5112C78.3042 14.1927 79.2417 14.6039 79.6072 15.4242L79.7046 15.6419L79.788 15.8395C79.8436 15.9705 79.8913 16.1015 79.9429 16.2325C80.0422 16.4945 80.1276 16.7586 80.2131 17.0246C80.3779 17.5568 80.5249 18.099 80.6322 18.6573C80.6878 18.9375 80.7374 19.2196 80.7792 19.5059C80.8149 19.7921 80.8447 20.0843 80.8646 20.3806C80.9063 20.9712 80.8963 21.586 80.8129 22.2249Z" fill="#CE7A63"/>
<path d="M71.2972 28.0512H62.7226C62.3492 28.0512 62.2698 27.9636 62.5463 27.8565L66.4585 26.3412C66.735 26.2342 67.2667 26.1465 67.6402 26.1465H76.2147C76.5881 26.1465 76.6676 26.2342 76.3911 26.3412L72.4788 27.8565C72.2023 27.9636 71.6706 28.0512 71.2972 28.0512Z" fill="#E64510"/>
<path d="M71.2972 28.0512H62.7226C62.3492 28.0512 62.2698 27.9636 62.5463 27.8565L66.4585 26.3412C66.735 26.2342 67.2667 26.1465 67.6402 26.1465H76.2147C76.5881 26.1465 76.6676 26.2342 76.3911 26.3412L72.4788 27.8565C72.2023 27.9636 71.6706 28.0512 71.2972 28.0512Z" fill="black" fill-opacity="0.4"/>
<path d="M71.2972 27.6916H62.7227C62.3493 27.6916 61.9876 27.3816 61.919 27.0027L60.9481 21.6401C60.8796 21.2612 61.1289 20.9512 61.5023 20.9512H70.0768C70.4503 20.9512 70.8122 21.2612 70.8807 21.6401L71.8516 27.0027C71.9201 27.3816 71.6707 27.6916 71.2972 27.6916Z" fill="#E64510"/>
<path d="M71.2972 27.6916H62.7227C62.3493 27.6916 61.9876 27.3816 61.919 27.0027L60.9481 21.6401C60.8796 21.2612 61.1289 20.9512 61.5023 20.9512H70.0768C70.4503 20.9512 70.8122 21.2612 70.8807 21.6401L71.8516 27.0027C71.9201 27.3816 71.6707 27.6916 71.2972 27.6916Z" fill="black" fill-opacity="0.3"/>
<path d="M71.0962 27.6916H62.7227C62.3493 27.6916 61.9876 27.3816 61.919 27.0027L60.9481 21.6401C60.8796 21.2612 61.1289 20.9512 61.5023 20.9512H69.876C70.2495 20.9512 70.6112 21.2612 70.6797 21.6401L71.6506 27.0027C71.7191 27.3816 71.4697 27.6916 71.0962 27.6916Z" fill="#E64510"/>
<path d="M77.2531 13.7246C77.9814 13.8064 79.525 14.3615 80.5402 16.4842C79.5435 18.4831 76.9428 19.2438 76.9428 19.2438C76.9428 19.2438 75.1331 14.7868 77.2531 13.7246Z" fill="#D8D8D8"/>
<path d="M72.9772 14.8915C73.0166 14.6676 73.2041 14.2906 73.4545 14.1125C73.4895 13.841 73.432 13.5636 73.2587 13.2668L75.5045 11.1162C75.7106 12.1072 76.1357 13.4204 76.6474 13.8243C76.1355 14.3642 75.1936 15.3394 73.9663 15.6284C72.7389 15.9174 72.8914 15.3807 72.9772 14.8915Z" fill="#CE7A63"/>
<path d="M73.3085 13.3576L75.2766 12.3816C75.0837 13.4385 73.9916 14.3688 73.4639 13.9859C73.4676 13.7823 73.4194 13.5754 73.3085 13.3576Z" fill="black" fill-opacity="0.2"/>
<path d="M73.0012 10.1456C73.0446 10.8824 72.4911 11.5154 71.765 11.5594C71.0389 11.6034 70.415 11.0417 70.3717 10.3049C70.3283 9.56808 70.8819 8.93504 71.608 8.89105C72.3341 8.84706 72.9579 9.40877 73.0012 10.1456Z" fill="#263238"/>
<path d="M75.2199 9.2585C75.6193 10.7649 75.8587 11.7965 75.2212 12.7078C73.9549 14.5184 72.6814 14.0575 71.8443 12.6988C71.091 11.4759 70.5642 9.21788 71.8001 8.15662C73.0177 7.11102 74.8204 7.75214 75.2199 9.2585Z" fill="#CE7A63"/>
<path d="M72.2446 9.033C71.961 9.40354 71.2018 10.1902 69.995 9.59574C68.7882 9.00151 69.1694 7.38122 69.8434 6.82933C70.8199 6.02973 71.8649 6.43104 71.8649 6.43104C71.8649 6.43104 71.7187 5.59021 72.89 5.48553C74.0612 5.38086 74.0531 6.23123 74.0531 6.23123C74.0531 6.23123 75.5354 5.49731 76.3323 6.63995C77.0736 7.70319 76.116 8.62178 76.116 8.62178C76.116 8.62178 77.1959 9.01775 76.9145 10.1478C76.6731 11.1173 75.8192 11.1644 75.8192 11.1644C75.8192 11.1644 74.7003 11.3123 74.4614 10.4929C74.2226 9.6734 74.5415 9.03701 74.5415 9.03701C74.5415 9.03701 72.7823 9.85859 72.2446 9.033Z" fill="#263238"/>
<path d="M74.0773 10.7275C74.0757 10.7276 74.0737 10.7277 74.0721 10.7276L73.7938 10.7158C73.7665 10.7147 73.7452 10.6909 73.7463 10.6632C73.7475 10.6352 73.7711 10.614 73.7978 10.615L74.0677 10.6265L75.4478 10.1958C75.4746 10.1877 75.5018 10.2027 75.5099 10.2292C75.518 10.2558 75.5032 10.2839 75.477 10.2922L74.0889 10.7254C74.085 10.7267 74.0812 10.7273 74.0773 10.7275Z" fill="#263238"/>
<path d="M75.9899 8.78574C75.9449 8.78847 75.8989 8.78883 75.8519 8.78684C75.797 8.78451 75.7544 8.73762 75.7567 8.68195C75.759 8.62628 75.8068 8.5824 75.8601 8.58543C76.1727 8.59879 76.4206 8.48928 76.5413 8.28469C76.6355 8.12512 76.6362 7.93386 76.543 7.77353C76.5151 7.72554 76.5306 7.66383 76.5779 7.63552C76.6254 7.6072 76.686 7.62312 76.7139 7.6711C76.8429 7.89286 76.842 8.16774 76.7117 8.38845C76.5719 8.6255 76.3129 8.76618 75.9899 8.78574Z" fill="#263238"/>
<path d="M70.5998 10.1001C70.4172 10.1111 70.2161 10.0963 69.9948 10.0485C69.4228 9.92523 69.0406 9.53304 68.9463 8.97236C68.8477 8.38569 69.0976 7.74279 69.5279 7.47664C69.5748 7.44775 69.6359 7.46262 69.6644 7.51017C69.6929 7.55771 69.678 7.61979 69.6312 7.64868C69.2665 7.8741 69.0564 8.42858 69.1421 8.93849C69.189 9.21753 69.3678 9.70746 70.0361 9.85153C71.2174 10.1059 71.758 9.31106 71.9751 8.81451C71.9974 8.76369 72.0559 8.74036 72.1062 8.76315C72.1565 8.78575 72.1789 8.84538 72.1568 8.89619C71.9558 9.35582 71.5049 10.0452 70.5998 10.1001Z" fill="#263238"/>
<path d="M72.9359 12.2747C72.87 12.308 72.7977 12.337 72.7181 12.3606C72.6966 12.3669 72.6753 12.3535 72.6703 12.3306C72.6654 12.3078 72.6784 12.2846 72.7005 12.2779C73.2816 12.1068 73.461 11.5947 73.4627 11.5896C73.4703 11.5669 73.4934 11.5542 73.514 11.5614C73.5347 11.5686 73.5453 11.5928 73.5376 11.6153C73.5308 11.6353 73.3866 12.0477 72.9359 12.2747Z" fill="#263238"/>
<path d="M73.4047 10.1951C73.4047 10.1951 73.6379 9.96351 73.9082 9.9954C73.6563 10.1593 73.4047 10.1951 73.4047 10.1951Z" fill="black" fill-opacity="0.2"/>
<path d="M73.4597 10.315C73.4597 10.315 73.7109 10.1515 73.9461 10.2549C73.6908 10.3473 73.4597 10.315 73.4597 10.315Z" fill="black" fill-opacity="0.2"/>
<path d="M71.4084 10.8992C71.4084 10.8992 71.2332 10.8127 71.1811 10.9275C71.327 10.9592 71.4084 10.8992 71.4084 10.8992Z" fill="black" fill-opacity="0.2"/>
<path d="M71.4361 11.0199C71.4361 11.0199 71.2883 10.9366 71.28 11.0836C71.3926 11.1035 71.4361 11.0199 71.4361 11.0199Z" fill="black" fill-opacity="0.2"/>
<path d="M76.2471 10.8592C76.1505 11.2668 75.8758 11.5904 75.5816 11.7643C75.1389 12.0259 74.7847 11.6569 74.7962 11.1655C74.8066 10.7231 75.0496 10.054 75.5474 9.99269C76.0379 9.93229 76.3576 10.3931 76.2471 10.8592Z" fill="#CE7A63"/>
<path d="M73.0453 10.4048C73.0852 10.525 73.0541 10.6434 72.9765 10.6691C72.8988 10.6948 72.8035 10.6182 72.7636 10.498C72.7237 10.3779 72.7544 10.2595 72.8322 10.2338C72.9099 10.2081 73.0054 10.2847 73.0453 10.4048Z" fill="#263238"/>
<path d="M71.7949 10.8503C71.8348 10.9705 71.8038 11.0889 71.7261 11.1146C71.6484 11.1403 71.5531 11.0637 71.5132 10.9435C71.4733 10.8234 71.5042 10.7048 71.5819 10.6791C71.6595 10.6534 71.755 10.7302 71.7949 10.8503Z" fill="#263238"/>
<path d="M71.1152 11.808C71.0375 11.8127 70.9535 11.7718 70.9107 11.7039L70.6871 11.3494C70.6597 11.306 70.6532 11.2565 70.669 11.2138C70.6843 11.1727 70.719 11.1417 70.7646 11.1284L71.7822 10.8335C71.8687 10.8085 71.9764 10.8511 72.0269 10.931L72.2505 11.2855C72.278 11.3289 72.2847 11.3784 72.2689 11.4211C72.2536 11.4622 72.2186 11.4932 72.173 11.5065L71.1554 11.8014C71.1425 11.8052 71.1289 11.8072 71.1152 11.808ZM71.8285 10.9273C71.822 10.9277 71.8155 10.9289 71.8094 10.9306L70.792 11.2255C70.7813 11.2286 70.7671 11.2353 70.7618 11.2495C70.7572 11.2621 70.7603 11.2787 70.7707 11.295L70.9943 11.6496C71.021 11.6918 71.084 11.7174 71.1282 11.7043L72.1456 11.4096C72.1564 11.4065 72.1705 11.3996 72.1758 11.3854C72.1805 11.3728 72.1773 11.3562 72.167 11.3399L71.9434 10.9853C71.9203 10.9488 71.8705 10.9247 71.8285 10.9273Z" fill="#263238"/>
<path d="M72.2182 10.8375L72.7116 11.779C72.7116 11.779 72.3999 12.0511 72.1073 12.0024C71.9758 11.4523 72.2182 10.8375 72.2182 10.8375Z" fill="#BA4D3C"/>
<path d="M72.8024 11.3197C72.7247 11.3245 72.6407 11.2833 72.5979 11.2154L72.3743 10.8609C72.3468 10.8175 72.3404 10.768 72.3561 10.7253C72.3714 10.6842 72.4062 10.6532 72.4518 10.6399L73.4694 10.3453C73.5567 10.3202 73.6639 10.363 73.7141 10.4427L73.9379 10.797C73.9653 10.8404 73.9718 10.8899 73.9561 10.9326C73.9408 10.9738 73.9058 11.0047 73.8602 11.018L72.8426 11.3129C72.8297 11.3167 72.8161 11.3189 72.8024 11.3197ZM73.5157 10.439C73.5092 10.4394 73.5027 10.4404 73.4966 10.4421L72.4792 10.737C72.4685 10.7401 72.4543 10.7468 72.449 10.761C72.4444 10.7736 72.4475 10.7902 72.4578 10.8065L72.6817 11.1611C72.7082 11.2033 72.7704 11.2292 72.8154 11.216L73.833 10.9211C73.8438 10.918 73.8577 10.9113 73.863 10.8971C73.8677 10.8845 73.8645 10.8677 73.8542 10.8514L73.6306 10.497C73.6077 10.4605 73.5575 10.4364 73.5157 10.439ZM73.8466 10.9696L73.8478 10.9695L73.8466 10.9696Z" fill="#263238"/>
<path d="M72.0794 11.1529C72.0743 11.1532 72.0688 11.1526 72.0636 11.1511C72.0377 11.1438 72.0222 11.1178 72.0286 11.0914C72.0309 11.0824 72.087 10.8694 72.5143 10.9287C72.5414 10.9325 72.5606 10.958 72.5569 10.9855C72.5531 11.013 72.5286 11.0326 72.5009 11.0285C72.1709 10.9828 72.125 11.1156 72.1247 11.1171C72.1181 11.1377 72.0996 11.1517 72.0794 11.1529Z" fill="#263238"/>
<path d="M73.3102 9.94448C73.3212 9.93916 73.3311 9.9309 73.3384 9.91995C73.3615 9.88625 73.353 9.83992 73.3194 9.81651C72.9828 9.58207 72.6671 9.70802 72.6539 9.71346C72.6162 9.72887 72.5984 9.77215 72.614 9.81018C72.6295 9.848 72.6724 9.86641 72.7099 9.85121C72.7202 9.84715 72.9675 9.7516 73.236 9.93867C73.2588 9.95445 73.2872 9.95577 73.3102 9.94448Z" fill="#263238"/>
<path d="M70.9922 10.7182C71.0146 10.7101 71.0328 10.6915 71.0389 10.6665C71.1171 10.3486 71.3656 10.2566 71.3761 10.2529C71.4143 10.2393 71.4345 10.1969 71.4209 10.1583C71.4073 10.1198 71.3655 10.0991 71.3273 10.1123C71.3134 10.1174 70.9938 10.2314 70.8959 10.6297C70.8861 10.6695 70.9103 10.71 70.9497 10.7201C70.9643 10.7239 70.9789 10.7228 70.9922 10.7182Z" fill="#263238"/>
</svg>
