<svg width="78" height="78" viewBox="0 0 78 78" fill="none" xmlns="http://www.w3.org/2000/svg">
<g filter="url(#filter0_d)">
<circle cx="39" cy="37" r="35" fill="#FF713C"/>
<path fill-rule="evenodd" clip-rule="evenodd" d="M24.083 14.083V20.25H21V14.083C21 13.266 21.325 12.481 21.903 11.903C22.481 11.325 23.266 11 24.083 11H30.25V14.083H24.083ZM27.167 17.167H36.417V26.417H27.167V17.167ZM51.833 17.167V26.417H42.583V17.167H51.833ZM45.667 34.125H42.583V35.667H37.958V41.833H41.042V38.75H45.667V41.833H48.75V38.75H51.833V34.125H48.75V31.042H51.833V27.958H48.75V31.042H45.667V27.958H42.583V31.042H45.667V34.125ZM45.667 34.125H48.75V38.75H45.667V34.125ZM27.167 32.583V41.833H36.417V32.583H27.167ZM30.25 20.25V23.333H33.333V20.25H30.25ZM45.667 23.333V20.25H48.75V23.333H45.667ZM30.25 35.667V38.75H33.333V35.667H30.25ZM30.25 27.958H27.167V31.042H30.25V27.958ZM34.875 27.958H41.042V34.125H37.958V31.042H34.875V27.958ZM41.042 20.25H37.958V26.417H41.042V20.25ZM57.097 11.903C56.519 11.325 55.734 11 54.917 11H48.75V14.083H54.917V20.25H58V14.083C58 13.266 57.675 12.481 57.097 11.903ZM24.083 38.75V44.917H30.25V48H24.083C23.266 48 22.481 47.675 21.903 47.097C21.325 46.519 21 45.734 21 44.917V38.75H24.083ZM54.917 38.75V44.917H48.75V48H54.917C55.734 48 56.519 47.675 57.097 47.097C57.675 46.519 58 45.734 58 44.917V38.75H54.917Z" fill="white"/>
<path d="M53.689 59.3551V58.3221V56.2581H50.641H48.609V55.2251H53.689V53.1611H48.609H45.562V55.2251V56.2581V58.3221H48.609H50.641V59.3551H45.562V61.4191H50.641H53.689V59.3551Z" fill="white"/>
<path d="M44.5471 53.1611H42.5151V61.4181H44.5471V53.1611Z" fill="white"/>
<path d="M33.3721 53.1611V55.2251H39.4671V56.2581H35.4031H33.3721V58.3221V61.4191H35.4031V58.3531L38.4521 61.4191H41.4991L38.3191 58.3221H39.4671H41.4991V56.2581V55.2251V53.1611H39.4671H33.3721Z" fill="white"/>
<path fill-rule="evenodd" clip-rule="evenodd" d="M29.3029 58.3217H27.2759V56.2627H29.3029V58.3217ZM28.8009 56.7737H27.7849V57.8057H28.8009V56.7737Z" fill="white"/>
<path d="M26.261 53.1611H24.483C24.416 53.1611 24.351 53.1881 24.304 53.2371C24.28 53.2611 24.261 53.2891 24.248 53.3211C24.236 53.3521 24.229 53.3861 24.229 53.4201V61.1601C24.229 61.1941 24.236 61.2281 24.248 61.2591C24.261 61.2911 24.28 61.3191 24.304 61.3431C24.351 61.3911 24.416 61.4181 24.483 61.4181H29.308V59.3591H26.261V53.1611Z" fill="white"/>
<path d="M32.1019 53.1611H27.2759V55.2251H30.3249V58.3221H32.3519V53.4201C32.3519 53.3511 32.3269 53.2861 32.2799 53.2371C32.2319 53.1891 32.1689 53.1621 32.1019 53.1611Z" fill="white"/>
<path d="M32.3572 59.3555H30.3252V64.0005H32.3572V59.3555Z" fill="white"/>
<path d="M27.064 52H23.254C23.187 52 23.122 52.028 23.075 52.076C23.027 52.124 23 52.19 23 52.258V56.129H23.508V52.77C23.509 52.702 23.536 52.638 23.584 52.59C23.631 52.543 23.695 52.516 23.762 52.516H27.068L27.064 52Z" fill="white"/>
<path d="M54.4921 58.709V62.069C54.4921 62.137 54.4651 62.202 54.4181 62.251C54.3701 62.299 54.3061 62.326 54.2381 62.327H50.9321V62.838H54.7421C54.7751 62.839 54.8091 62.832 54.8401 62.819C54.8711 62.807 54.9001 62.788 54.9241 62.764C54.9481 62.74 54.9671 62.711 54.9801 62.68C54.9931 62.648 55.0001 62.614 55.0001 62.58V58.709H54.4921Z" fill="white"/>
</g>
<defs>
<filter id="filter0_d" x="0" y="0" width="78" height="78" filterUnits="userSpaceOnUse" color-interpolation-filters="sRGB">
<feFlood flood-opacity="0" result="BackgroundImageFix"/>
<feColorMatrix in="SourceAlpha" type="matrix" values="0 0 0 0 0 0 0 0 0 0 0 0 0 0 0 0 0 0 127 0"/>
<feOffset dy="2"/>
<feGaussianBlur stdDeviation="2"/>
<feColorMatrix type="matrix" values="0 0 0 0 0 0 0 0 0 0 0 0 0 0 0 0 0 0 0.15 0"/>
<feBlend mode="normal" in2="BackgroundImageFix" result="effect1_dropShadow"/>
<feBlend mode="normal" in="SourceGraphic" in2="effect1_dropShadow" result="shape"/>
</filter>
</defs>
</svg>
