<svg width="301" height="66" viewBox="0 0 301 66" fill="none" xmlns="http://www.w3.org/2000/svg">
<path d="M9.66981 0.599999C10.7418 0.599999 11.5818 0.855999 12.1898 1.368C12.7978 1.88 13.1018 2.584 13.1018 3.48C13.1018 4.376 12.7978 5.08 12.1898 5.592C11.5818 6.096 10.7418 6.348 9.66981 6.348H7.41381V9H6.52581V0.599999H9.66981ZM9.64581 5.568C10.4778 5.568 11.1138 5.388 11.5538 5.028C11.9938 4.66 12.2138 4.144 12.2138 3.48C12.2138 2.8 11.9938 2.28 11.5538 1.92C11.1138 1.552 10.4778 1.368 9.64581 1.368H7.41381V5.568H9.64581ZM15.3438 3.924C15.5438 3.5 15.8398 3.18 16.2318 2.964C16.6318 2.748 17.1238 2.64 17.7078 2.64V3.468L17.5038 3.456C16.8398 3.456 16.3198 3.66 15.9438 4.068C15.5678 4.476 15.3798 5.048 15.3798 5.784V9H14.5278V2.688H15.3438V3.924ZM21.6219 9.06C21.0139 9.06 20.4659 8.924 19.9779 8.652C19.4899 8.372 19.1059 7.988 18.8259 7.5C18.5459 7.012 18.4059 6.46 18.4059 5.844C18.4059 5.228 18.5459 4.676 18.8259 4.188C19.1059 3.7 19.4899 3.32 19.9779 3.048C20.4659 2.776 21.0139 2.64 21.6219 2.64C22.2299 2.64 22.7779 2.776 23.2659 3.048C23.7539 3.32 24.1339 3.7 24.4059 4.188C24.6859 4.676 24.8259 5.228 24.8259 5.844C24.8259 6.46 24.6859 7.012 24.4059 7.5C24.1339 7.988 23.7539 8.372 23.2659 8.652C22.7779 8.924 22.2299 9.06 21.6219 9.06ZM21.6219 8.304C22.0699 8.304 22.4699 8.204 22.8219 8.004C23.1819 7.796 23.4619 7.504 23.6619 7.128C23.8619 6.752 23.9619 6.324 23.9619 5.844C23.9619 5.364 23.8619 4.936 23.6619 4.56C23.4619 4.184 23.1819 3.896 22.8219 3.696C22.4699 3.488 22.0699 3.384 21.6219 3.384C21.1739 3.384 20.7699 3.488 20.4099 3.696C20.0579 3.896 19.7779 4.184 19.5699 4.56C19.3699 4.936 19.2699 5.364 19.2699 5.844C19.2699 6.324 19.3699 6.752 19.5699 7.128C19.7779 7.504 20.0579 7.796 20.4099 8.004C20.7699 8.204 21.1739 8.304 21.6219 8.304ZM28.1073 9.06C27.5953 9.06 27.1033 8.988 26.6313 8.844C26.1673 8.692 25.8033 8.504 25.5393 8.28L25.9233 7.608C26.1873 7.816 26.5193 7.988 26.9193 8.124C27.3193 8.252 27.7353 8.316 28.1673 8.316C28.7433 8.316 29.1673 8.228 29.4393 8.052C29.7193 7.868 29.8593 7.612 29.8593 7.284C29.8593 7.052 29.7833 6.872 29.6313 6.744C29.4793 6.608 29.2873 6.508 29.0553 6.444C28.8233 6.372 28.5153 6.304 28.1313 6.24C27.6193 6.144 27.2073 6.048 26.8953 5.952C26.5833 5.848 26.3153 5.676 26.0913 5.436C25.8753 5.196 25.7673 4.864 25.7673 4.44C25.7673 3.912 25.9873 3.48 26.4273 3.144C26.8673 2.808 27.4793 2.64 28.2633 2.64C28.6713 2.64 29.0793 2.696 29.4873 2.808C29.8953 2.912 30.2313 3.052 30.4953 3.228L30.1233 3.912C29.6033 3.552 28.9833 3.372 28.2633 3.372C27.7193 3.372 27.3073 3.468 27.0273 3.66C26.7553 3.852 26.6193 4.104 26.6193 4.416C26.6193 4.656 26.6953 4.848 26.8473 4.992C27.0073 5.136 27.2033 5.244 27.4353 5.316C27.6673 5.38 27.9873 5.448 28.3953 5.52C28.8993 5.616 29.3033 5.712 29.6073 5.808C29.9113 5.904 30.1713 6.068 30.3873 6.3C30.6033 6.532 30.7113 6.852 30.7113 7.26C30.7113 7.812 30.4793 8.252 30.0153 8.58C29.5593 8.9 28.9233 9.06 28.1073 9.06ZM37.6324 6.108H32.3524C32.4004 6.764 32.6524 7.296 33.1084 7.704C33.5644 8.104 34.1404 8.304 34.8364 8.304C35.2284 8.304 35.5884 8.236 35.9164 8.1C36.2444 7.956 36.5284 7.748 36.7684 7.476L37.2484 8.028C36.9684 8.364 36.6164 8.62 36.1924 8.796C35.7764 8.972 35.3164 9.06 34.8124 9.06C34.1644 9.06 33.5884 8.924 33.0844 8.652C32.5884 8.372 32.2004 7.988 31.9204 7.5C31.6404 7.012 31.5004 6.46 31.5004 5.844C31.5004 5.228 31.6324 4.676 31.8964 4.188C32.1684 3.7 32.5364 3.32 33.0004 3.048C33.4724 2.776 34.0004 2.64 34.5844 2.64C35.1684 2.64 35.6924 2.776 36.1564 3.048C36.6204 3.32 36.9844 3.7 37.2484 4.188C37.5124 4.668 37.6444 5.22 37.6444 5.844L37.6324 6.108ZM34.5844 3.372C33.9764 3.372 33.4644 3.568 33.0484 3.96C32.6404 4.344 32.4084 4.848 32.3524 5.472H36.8284C36.7724 4.848 36.5364 4.344 36.1204 3.96C35.7124 3.568 35.2004 3.372 34.5844 3.372ZM40.9206 9.06C40.4086 9.06 39.9166 8.988 39.4446 8.844C38.9806 8.692 38.6166 8.504 38.3526 8.28L38.7366 7.608C39.0006 7.816 39.3326 7.988 39.7326 8.124C40.1326 8.252 40.5486 8.316 40.9806 8.316C41.5566 8.316 41.9806 8.228 42.2526 8.052C42.5326 7.868 42.6726 7.612 42.6726 7.284C42.6726 7.052 42.5966 6.872 42.4446 6.744C42.2926 6.608 42.1006 6.508 41.8686 6.444C41.6366 6.372 41.3286 6.304 40.9446 6.24C40.4326 6.144 40.0206 6.048 39.7086 5.952C39.3966 5.848 39.1286 5.676 38.9046 5.436C38.6886 5.196 38.5806 4.864 38.5806 4.44C38.5806 3.912 38.8006 3.48 39.2406 3.144C39.6806 2.808 40.2926 2.64 41.0766 2.64C41.4846 2.64 41.8926 2.696 42.3006 2.808C42.7086 2.912 43.0446 3.052 43.3086 3.228L42.9366 3.912C42.4166 3.552 41.7966 3.372 41.0766 3.372C40.5326 3.372 40.1206 3.468 39.8406 3.66C39.5686 3.852 39.4326 4.104 39.4326 4.416C39.4326 4.656 39.5086 4.848 39.6606 4.992C39.8206 5.136 40.0166 5.244 40.2486 5.316C40.4806 5.38 40.8006 5.448 41.2086 5.52C41.7126 5.616 42.1166 5.712 42.4206 5.808C42.7246 5.904 42.9846 6.068 43.2006 6.3C43.4166 6.532 43.5246 6.852 43.5246 7.26C43.5246 7.812 43.2926 8.252 42.8286 8.58C42.3726 8.9 41.7366 9.06 40.9206 9.06ZM51.1923 2.64C51.7843 2.64 52.3203 2.776 52.8003 3.048C53.2803 3.312 53.6563 3.688 53.9283 4.176C54.2003 4.664 54.3363 5.22 54.3363 5.844C54.3363 6.476 54.2003 7.036 53.9283 7.524C53.6563 8.012 53.2803 8.392 52.8003 8.664C52.3283 8.928 51.7923 9.06 51.1923 9.06C50.6803 9.06 50.2163 8.956 49.8003 8.748C49.3923 8.532 49.0563 8.22 48.7923 7.812V11.328H47.9403V2.688H48.7563V3.936C49.0123 3.52 49.3483 3.2 49.7643 2.976C50.1883 2.752 50.6643 2.64 51.1923 2.64ZM51.1323 8.304C51.5723 8.304 51.9723 8.204 52.3323 8.004C52.6923 7.796 52.9723 7.504 53.1723 7.128C53.3803 6.752 53.4843 6.324 53.4843 5.844C53.4843 5.364 53.3803 4.94 53.1723 4.572C52.9723 4.196 52.6923 3.904 52.3323 3.696C51.9723 3.488 51.5723 3.384 51.1323 3.384C50.6843 3.384 50.2803 3.488 49.9203 3.696C49.5683 3.904 49.2883 4.196 49.0803 4.572C48.8803 4.94 48.7803 5.364 48.7803 5.844C48.7803 6.324 48.8803 6.752 49.0803 7.128C49.2883 7.504 49.5683 7.796 49.9203 8.004C50.2803 8.204 50.6843 8.304 51.1323 8.304ZM61.4191 6.108H56.1391C56.1871 6.764 56.4391 7.296 56.8951 7.704C57.3511 8.104 57.9271 8.304 58.6231 8.304C59.0151 8.304 59.3751 8.236 59.7031 8.1C60.0311 7.956 60.3151 7.748 60.5551 7.476L61.0351 8.028C60.7551 8.364 60.4031 8.62 59.9791 8.796C59.5631 8.972 59.1031 9.06 58.5991 9.06C57.9511 9.06 57.3751 8.924 56.8711 8.652C56.3751 8.372 55.9871 7.988 55.7071 7.5C55.4271 7.012 55.2871 6.46 55.2871 5.844C55.2871 5.228 55.4191 4.676 55.6831 4.188C55.9551 3.7 56.3231 3.32 56.7871 3.048C57.2591 2.776 57.7871 2.64 58.3711 2.64C58.9551 2.64 59.4791 2.776 59.9431 3.048C60.4071 3.32 60.7711 3.7 61.0351 4.188C61.2991 4.668 61.4311 5.22 61.4311 5.844L61.4191 6.108ZM58.3711 3.372C57.7631 3.372 57.2511 3.568 56.8351 3.96C56.4271 4.344 56.1951 4.848 56.1391 5.472H60.6151C60.5591 4.848 60.3231 4.344 59.9071 3.96C59.4991 3.568 58.9871 3.372 58.3711 3.372ZM70.8873 2.64C71.6793 2.64 72.2993 2.868 72.7473 3.324C73.2033 3.78 73.4313 4.452 73.4313 5.34V9H72.5793V5.424C72.5793 4.768 72.4193 4.268 72.0993 3.924C71.7873 3.58 71.3433 3.408 70.7673 3.408C70.1113 3.408 69.5953 3.612 69.2193 4.02C68.8433 4.42 68.6553 4.976 68.6553 5.688V9H67.8033V5.424C67.8033 4.768 67.6433 4.268 67.3233 3.924C67.0113 3.58 66.5633 3.408 65.9793 3.408C65.3313 3.408 64.8153 3.612 64.4313 4.02C64.0553 4.42 63.8673 4.976 63.8673 5.688V9H63.0153V2.688H63.8313V3.84C64.0553 3.456 64.3673 3.16 64.7673 2.952C65.1673 2.744 65.6273 2.64 66.1473 2.64C66.6753 2.64 67.1313 2.752 67.5153 2.976C67.9073 3.2 68.1993 3.532 68.3913 3.972C68.6233 3.556 68.9553 3.232 69.3873 3C69.8273 2.76 70.3273 2.64 70.8873 2.64ZM78.8439 2.64C79.4359 2.64 79.9719 2.776 80.4519 3.048C80.9319 3.312 81.3079 3.688 81.5799 4.176C81.8519 4.664 81.9879 5.22 81.9879 5.844C81.9879 6.468 81.8519 7.024 81.5799 7.512C81.3079 8 80.9319 8.38 80.4519 8.652C79.9719 8.924 79.4359 9.06 78.8439 9.06C78.3159 9.06 77.8399 8.948 77.4159 8.724C76.9999 8.5 76.6639 8.176 76.4079 7.752V9H75.5919V0.0959995H76.4439V3.888C76.7079 3.48 77.0439 3.172 77.4519 2.964C77.8679 2.748 78.3319 2.64 78.8439 2.64ZM78.7839 8.304C79.2239 8.304 79.6239 8.204 79.9839 8.004C80.3439 7.796 80.6239 7.504 80.8239 7.128C81.0319 6.752 81.1359 6.324 81.1359 5.844C81.1359 5.364 81.0319 4.936 80.8239 4.56C80.6239 4.184 80.3439 3.896 79.9839 3.696C79.6239 3.488 79.2239 3.384 78.7839 3.384C78.3359 3.384 77.9319 3.488 77.5719 3.696C77.2199 3.896 76.9399 4.184 76.7319 4.56C76.5319 4.936 76.4319 5.364 76.4319 5.844C76.4319 6.324 76.5319 6.752 76.7319 7.128C76.9399 7.504 77.2199 7.796 77.5719 8.004C77.9319 8.204 78.3359 8.304 78.7839 8.304ZM85.7476 2.64C86.5716 2.64 87.2036 2.848 87.6436 3.264C88.0836 3.672 88.3036 4.28 88.3036 5.088V9H87.4876V8.016C87.2956 8.344 87.0116 8.6 86.6356 8.784C86.2676 8.968 85.8276 9.06 85.3156 9.06C84.6116 9.06 84.0516 8.892 83.6356 8.556C83.2196 8.22 83.0116 7.776 83.0116 7.224C83.0116 6.688 83.2036 6.256 83.5876 5.928C83.9796 5.6 84.5996 5.436 85.4476 5.436H87.4516V5.052C87.4516 4.508 87.2996 4.096 86.9956 3.816C86.6916 3.528 86.2476 3.384 85.6636 3.384C85.2636 3.384 84.8796 3.452 84.5116 3.588C84.1436 3.716 83.8276 3.896 83.5636 4.128L83.1796 3.492C83.4996 3.22 83.8836 3.012 84.3316 2.868C84.7796 2.716 85.2516 2.64 85.7476 2.64ZM85.4476 8.388C85.9276 8.388 86.3396 8.28 86.6836 8.064C87.0276 7.84 87.2836 7.52 87.4516 7.104V6.072H85.4716C84.3916 6.072 83.8516 6.448 83.8516 7.2C83.8516 7.568 83.9916 7.86 84.2716 8.076C84.5516 8.284 84.9436 8.388 85.4476 8.388ZM93.6837 2.64C94.4757 2.64 95.1037 2.872 95.5677 3.336C96.0397 3.792 96.2757 4.46 96.2757 5.34V9H95.4237V5.424C95.4237 4.768 95.2597 4.268 94.9317 3.924C94.6037 3.58 94.1357 3.408 93.5277 3.408C92.8477 3.408 92.3077 3.612 91.9077 4.02C91.5157 4.42 91.3197 4.976 91.3197 5.688V9H90.4677V0.0959995H91.3197V3.792C91.5517 3.424 91.8717 3.14 92.2797 2.94C92.6877 2.74 93.1557 2.64 93.6837 2.64ZM100.647 2.64C101.471 2.64 102.103 2.848 102.543 3.264C102.983 3.672 103.203 4.28 103.203 5.088V9H102.387V8.016C102.195 8.344 101.911 8.6 101.535 8.784C101.167 8.968 100.727 9.06 100.215 9.06C99.5108 9.06 98.9508 8.892 98.5348 8.556C98.1188 8.22 97.9108 7.776 97.9108 7.224C97.9108 6.688 98.1028 6.256 98.4868 5.928C98.8788 5.6 99.4988 5.436 100.347 5.436H102.351V5.052C102.351 4.508 102.199 4.096 101.895 3.816C101.591 3.528 101.147 3.384 100.563 3.384C100.163 3.384 99.7788 3.452 99.4108 3.588C99.0428 3.716 98.7268 3.896 98.4628 4.128L98.0788 3.492C98.3988 3.22 98.7828 3.012 99.2308 2.868C99.6788 2.716 100.151 2.64 100.647 2.64ZM100.347 8.388C100.827 8.388 101.239 8.28 101.583 8.064C101.927 7.84 102.183 7.52 102.351 7.104V6.072H100.371C99.2908 6.072 98.7508 6.448 98.7508 7.2C98.7508 7.568 98.8908 7.86 99.1708 8.076C99.4508 8.284 99.8428 8.388 100.347 8.388ZM106.183 3.924C106.383 3.5 106.679 3.18 107.071 2.964C107.471 2.748 107.963 2.64 108.547 2.64V3.468L108.343 3.456C107.679 3.456 107.159 3.66 106.783 4.068C106.407 4.476 106.219 5.048 106.219 5.784V9H105.367V2.688H106.183V3.924ZM115.721 2.688V9H114.905V7.848C114.681 8.232 114.373 8.532 113.981 8.748C113.589 8.956 113.141 9.06 112.637 9.06C111.813 9.06 111.161 8.832 110.681 8.376C110.209 7.912 109.973 7.236 109.973 6.348V2.688H110.825V6.264C110.825 6.928 110.989 7.432 111.317 7.776C111.645 8.12 112.113 8.292 112.721 8.292C113.385 8.292 113.909 8.092 114.293 7.692C114.677 7.284 114.869 6.72 114.869 6V2.688H115.721ZM120.166 2.64C120.99 2.64 121.622 2.848 122.062 3.264C122.502 3.672 122.722 4.28 122.722 5.088V9H121.906V8.016C121.714 8.344 121.43 8.6 121.054 8.784C120.686 8.968 120.246 9.06 119.734 9.06C119.03 9.06 118.47 8.892 118.054 8.556C117.638 8.22 117.43 7.776 117.43 7.224C117.43 6.688 117.622 6.256 118.006 5.928C118.398 5.6 119.018 5.436 119.866 5.436H121.87V5.052C121.87 4.508 121.718 4.096 121.414 3.816C121.11 3.528 120.666 3.384 120.082 3.384C119.682 3.384 119.298 3.452 118.93 3.588C118.562 3.716 118.246 3.896 117.982 4.128L117.598 3.492C117.918 3.22 118.302 3.012 118.75 2.868C119.198 2.716 119.67 2.64 120.166 2.64ZM119.866 8.388C120.346 8.388 120.758 8.28 121.102 8.064C121.446 7.84 121.702 7.52 121.87 7.104V6.072H119.89C118.81 6.072 118.27 6.448 118.27 7.2C118.27 7.568 118.41 7.86 118.69 8.076C118.97 8.284 119.362 8.388 119.866 8.388ZM128.102 2.64C128.894 2.64 129.522 2.872 129.986 3.336C130.458 3.792 130.694 4.46 130.694 5.34V9H129.842V5.424C129.842 4.768 129.678 4.268 129.35 3.924C129.022 3.58 128.554 3.408 127.946 3.408C127.266 3.408 126.726 3.612 126.326 4.02C125.934 4.42 125.738 4.976 125.738 5.688V9H124.886V2.688H125.702V3.852C125.934 3.468 126.254 3.172 126.662 2.964C127.078 2.748 127.558 2.64 128.102 2.64ZM141.607 0.0959995V9H140.791V7.752C140.535 8.176 140.195 8.5 139.771 8.724C139.355 8.948 138.883 9.06 138.355 9.06C137.763 9.06 137.227 8.924 136.747 8.652C136.267 8.38 135.891 8 135.619 7.512C135.347 7.024 135.211 6.468 135.211 5.844C135.211 5.22 135.347 4.664 135.619 4.176C135.891 3.688 136.267 3.312 136.747 3.048C137.227 2.776 137.763 2.64 138.355 2.64C138.867 2.64 139.327 2.748 139.735 2.964C140.151 3.172 140.491 3.48 140.755 3.888V0.0959995H141.607ZM138.427 8.304C138.867 8.304 139.263 8.204 139.615 8.004C139.975 7.796 140.255 7.504 140.455 7.128C140.663 6.752 140.767 6.324 140.767 5.844C140.767 5.364 140.663 4.936 140.455 4.56C140.255 4.184 139.975 3.896 139.615 3.696C139.263 3.488 138.867 3.384 138.427 3.384C137.979 3.384 137.575 3.488 137.215 3.696C136.863 3.896 136.583 4.184 136.375 4.56C136.175 4.936 136.075 5.364 136.075 5.844C136.075 6.324 136.175 6.752 136.375 7.128C136.583 7.504 136.863 7.796 137.215 8.004C137.575 8.204 137.979 8.304 138.427 8.304ZM146.038 2.64C146.862 2.64 147.494 2.848 147.934 3.264C148.374 3.672 148.594 4.28 148.594 5.088V9H147.778V8.016C147.586 8.344 147.302 8.6 146.926 8.784C146.558 8.968 146.118 9.06 145.606 9.06C144.902 9.06 144.342 8.892 143.926 8.556C143.51 8.22 143.302 7.776 143.302 7.224C143.302 6.688 143.494 6.256 143.878 5.928C144.27 5.6 144.89 5.436 145.738 5.436H147.742V5.052C147.742 4.508 147.59 4.096 147.286 3.816C146.982 3.528 146.538 3.384 145.954 3.384C145.554 3.384 145.17 3.452 144.802 3.588C144.434 3.716 144.118 3.896 143.854 4.128L143.47 3.492C143.79 3.22 144.174 3.012 144.622 2.868C145.07 2.716 145.542 2.64 146.038 2.64ZM145.738 8.388C146.218 8.388 146.63 8.28 146.974 8.064C147.318 7.84 147.574 7.52 147.742 7.104V6.072H145.762C144.682 6.072 144.142 6.448 144.142 7.2C144.142 7.568 144.282 7.86 144.562 8.076C144.842 8.284 145.234 8.388 145.738 8.388ZM154.082 8.616C153.922 8.76 153.722 8.872 153.482 8.952C153.25 9.024 153.006 9.06 152.75 9.06C152.158 9.06 151.702 8.9 151.382 8.58C151.062 8.26 150.902 7.808 150.902 7.224V3.408H149.774V2.688H150.902V1.308H151.754V2.688H153.674V3.408H151.754V7.176C151.754 7.552 151.846 7.84 152.03 8.04C152.222 8.232 152.494 8.328 152.846 8.328C153.022 8.328 153.19 8.3 153.35 8.244C153.518 8.188 153.662 8.108 153.782 8.004L154.082 8.616ZM157.691 2.64C158.515 2.64 159.147 2.848 159.587 3.264C160.027 3.672 160.247 4.28 160.247 5.088V9H159.431V8.016C159.239 8.344 158.955 8.6 158.579 8.784C158.211 8.968 157.771 9.06 157.259 9.06C156.555 9.06 155.995 8.892 155.579 8.556C155.163 8.22 154.955 7.776 154.955 7.224C154.955 6.688 155.147 6.256 155.531 5.928C155.923 5.6 156.543 5.436 157.391 5.436H159.395V5.052C159.395 4.508 159.243 4.096 158.939 3.816C158.635 3.528 158.191 3.384 157.607 3.384C157.207 3.384 156.823 3.452 156.455 3.588C156.087 3.716 155.771 3.896 155.507 4.128L155.123 3.492C155.443 3.22 155.827 3.012 156.275 2.868C156.723 2.716 157.195 2.64 157.691 2.64ZM157.391 8.388C157.871 8.388 158.283 8.28 158.627 8.064C158.971 7.84 159.227 7.52 159.395 7.104V6.072H157.415C156.335 6.072 155.795 6.448 155.795 7.2C155.795 7.568 155.935 7.86 156.215 8.076C156.495 8.284 156.887 8.388 157.391 8.388ZM167.61 2.64C168.434 2.64 169.066 2.848 169.506 3.264C169.946 3.672 170.166 4.28 170.166 5.088V9H169.35V8.016C169.158 8.344 168.874 8.6 168.498 8.784C168.13 8.968 167.69 9.06 167.178 9.06C166.474 9.06 165.914 8.892 165.498 8.556C165.082 8.22 164.874 7.776 164.874 7.224C164.874 6.688 165.066 6.256 165.45 5.928C165.842 5.6 166.462 5.436 167.31 5.436H169.314V5.052C169.314 4.508 169.162 4.096 168.858 3.816C168.554 3.528 168.11 3.384 167.526 3.384C167.126 3.384 166.742 3.452 166.374 3.588C166.006 3.716 165.69 3.896 165.426 4.128L165.042 3.492C165.362 3.22 165.746 3.012 166.194 2.868C166.642 2.716 167.114 2.64 167.61 2.64ZM167.31 8.388C167.79 8.388 168.202 8.28 168.546 8.064C168.89 7.84 169.146 7.52 169.314 7.104V6.072H167.334C166.254 6.072 165.714 6.448 165.714 7.2C165.714 7.568 165.854 7.86 166.134 8.076C166.414 8.284 166.806 8.388 167.31 8.388ZM174.67 5.832L173.182 7.2V9H172.33V0.0959995H173.182V6.132L176.95 2.688H178.006L175.306 5.268L178.258 9H177.214L174.67 5.832ZM181.478 2.64C182.302 2.64 182.934 2.848 183.374 3.264C183.814 3.672 184.034 4.28 184.034 5.088V9H183.218V8.016C183.026 8.344 182.742 8.6 182.366 8.784C181.998 8.968 181.558 9.06 181.046 9.06C180.342 9.06 179.782 8.892 179.366 8.556C178.95 8.22 178.742 7.776 178.742 7.224C178.742 6.688 178.934 6.256 179.318 5.928C179.71 5.6 180.33 5.436 181.178 5.436H183.182V5.052C183.182 4.508 183.03 4.096 182.726 3.816C182.422 3.528 181.978 3.384 181.394 3.384C180.994 3.384 180.61 3.452 180.242 3.588C179.874 3.716 179.558 3.896 179.294 4.128L178.91 3.492C179.23 3.22 179.614 3.012 180.062 2.868C180.51 2.716 180.982 2.64 181.478 2.64ZM181.178 8.388C181.658 8.388 182.07 8.28 182.414 8.064C182.758 7.84 183.014 7.52 183.182 7.104V6.072H181.202C180.122 6.072 179.582 6.448 179.582 7.2C179.582 7.568 179.722 7.86 180.002 8.076C180.282 8.284 180.674 8.388 181.178 8.388ZM189.414 2.64C190.206 2.64 190.834 2.872 191.298 3.336C191.77 3.792 192.006 4.46 192.006 5.34V9H191.154V5.424C191.154 4.768 190.99 4.268 190.662 3.924C190.334 3.58 189.866 3.408 189.258 3.408C188.578 3.408 188.038 3.612 187.638 4.02C187.246 4.42 187.05 4.976 187.05 5.688V9H186.198V2.688H187.014V3.852C187.246 3.468 187.566 3.172 187.974 2.964C188.39 2.748 188.87 2.64 189.414 2.64ZM205.032 2.64C205.824 2.64 206.444 2.868 206.892 3.324C207.348 3.78 207.576 4.452 207.576 5.34V9H206.724V5.424C206.724 4.768 206.564 4.268 206.244 3.924C205.932 3.58 205.488 3.408 204.912 3.408C204.256 3.408 203.74 3.612 203.364 4.02C202.988 4.42 202.8 4.976 202.8 5.688V9H201.948V5.424C201.948 4.768 201.788 4.268 201.468 3.924C201.156 3.58 200.708 3.408 200.124 3.408C199.476 3.408 198.96 3.612 198.576 4.02C198.2 4.42 198.012 4.976 198.012 5.688V9H197.16V2.688H197.976V3.84C198.2 3.456 198.512 3.16 198.912 2.952C199.312 2.744 199.772 2.64 200.292 2.64C200.82 2.64 201.276 2.752 201.66 2.976C202.052 3.2 202.344 3.532 202.536 3.972C202.768 3.556 203.1 3.232 203.532 3C203.972 2.76 204.472 2.64 205.032 2.64ZM215.256 6.108H209.976C210.024 6.764 210.276 7.296 210.732 7.704C211.188 8.104 211.764 8.304 212.46 8.304C212.852 8.304 213.212 8.236 213.54 8.1C213.868 7.956 214.152 7.748 214.392 7.476L214.872 8.028C214.592 8.364 214.24 8.62 213.816 8.796C213.4 8.972 212.94 9.06 212.436 9.06C211.788 9.06 211.212 8.924 210.708 8.652C210.212 8.372 209.824 7.988 209.544 7.5C209.264 7.012 209.124 6.46 209.124 5.844C209.124 5.228 209.256 4.676 209.52 4.188C209.792 3.7 210.16 3.32 210.624 3.048C211.096 2.776 211.624 2.64 212.208 2.64C212.792 2.64 213.316 2.776 213.78 3.048C214.244 3.32 214.608 3.7 214.872 4.188C215.136 4.668 215.268 5.22 215.268 5.844L215.256 6.108ZM212.208 3.372C211.6 3.372 211.088 3.568 210.672 3.96C210.264 4.344 210.032 4.848 209.976 5.472H214.452C214.396 4.848 214.16 4.344 213.744 3.96C213.336 3.568 212.824 3.372 212.208 3.372ZM224.724 2.64C225.516 2.64 226.136 2.868 226.584 3.324C227.04 3.78 227.268 4.452 227.268 5.34V9H226.416V5.424C226.416 4.768 226.256 4.268 225.936 3.924C225.624 3.58 225.18 3.408 224.604 3.408C223.948 3.408 223.432 3.612 223.056 4.02C222.68 4.42 222.492 4.976 222.492 5.688V9H221.64V5.424C221.64 4.768 221.48 4.268 221.16 3.924C220.848 3.58 220.4 3.408 219.816 3.408C219.168 3.408 218.652 3.612 218.268 4.02C217.892 4.42 217.704 4.976 217.704 5.688V9H216.852V2.688H217.668V3.84C217.892 3.456 218.204 3.16 218.604 2.952C219.004 2.744 219.464 2.64 219.984 2.64C220.512 2.64 220.968 2.752 221.352 2.976C221.744 3.2 222.036 3.532 222.228 3.972C222.46 3.556 222.792 3.232 223.224 3C223.664 2.76 224.164 2.64 224.724 2.64ZM231.637 2.64C232.461 2.64 233.093 2.848 233.533 3.264C233.973 3.672 234.193 4.28 234.193 5.088V9H233.377V8.016C233.185 8.344 232.901 8.6 232.525 8.784C232.157 8.968 231.717 9.06 231.205 9.06C230.501 9.06 229.941 8.892 229.525 8.556C229.109 8.22 228.901 7.776 228.901 7.224C228.901 6.688 229.093 6.256 229.477 5.928C229.869 5.6 230.489 5.436 231.337 5.436H233.341V5.052C233.341 4.508 233.189 4.096 232.885 3.816C232.581 3.528 232.137 3.384 231.553 3.384C231.153 3.384 230.769 3.452 230.401 3.588C230.033 3.716 229.717 3.896 229.453 4.128L229.069 3.492C229.389 3.22 229.773 3.012 230.221 2.868C230.669 2.716 231.141 2.64 231.637 2.64ZM231.337 8.388C231.817 8.388 232.229 8.28 232.573 8.064C232.917 7.84 233.173 7.52 233.341 7.104V6.072H231.361C230.281 6.072 229.741 6.448 229.741 7.2C229.741 7.568 229.881 7.86 230.161 8.076C230.441 8.284 230.833 8.388 231.337 8.388ZM238.697 5.832L237.209 7.2V9H236.357V0.0959995H237.209V6.132L240.977 2.688H242.033L239.333 5.268L242.285 9H241.241L238.697 5.832ZM245.505 2.64C246.329 2.64 246.961 2.848 247.401 3.264C247.841 3.672 248.061 4.28 248.061 5.088V9H247.245V8.016C247.053 8.344 246.769 8.6 246.393 8.784C246.025 8.968 245.585 9.06 245.073 9.06C244.369 9.06 243.809 8.892 243.393 8.556C242.977 8.22 242.769 7.776 242.769 7.224C242.769 6.688 242.961 6.256 243.345 5.928C243.737 5.6 244.357 5.436 245.205 5.436H247.209V5.052C247.209 4.508 247.057 4.096 246.753 3.816C246.449 3.528 246.005 3.384 245.421 3.384C245.021 3.384 244.637 3.452 244.269 3.588C243.901 3.716 243.585 3.896 243.321 4.128L242.937 3.492C243.257 3.22 243.641 3.012 244.089 2.868C244.537 2.716 245.009 2.64 245.505 2.64ZM245.205 8.388C245.685 8.388 246.097 8.28 246.441 8.064C246.785 7.84 247.041 7.52 247.209 7.104V6.072H245.229C244.149 6.072 243.609 6.448 243.609 7.2C243.609 7.568 243.749 7.86 244.029 8.076C244.309 8.284 244.701 8.388 245.205 8.388ZM253.441 2.64C254.233 2.64 254.861 2.872 255.325 3.336C255.797 3.792 256.033 4.46 256.033 5.34V9H255.181V5.424C255.181 4.768 255.017 4.268 254.689 3.924C254.361 3.58 253.893 3.408 253.285 3.408C252.605 3.408 252.065 3.612 251.665 4.02C251.273 4.42 251.077 4.976 251.077 5.688V9H250.225V2.688H251.041V3.852C251.273 3.468 251.593 3.172 252.001 2.964C252.417 2.748 252.897 2.64 253.441 2.64ZM270.45 2.688L268.062 9H267.258L265.266 3.828L263.274 9H262.47L260.094 2.688H260.91L262.89 8.052L264.918 2.688H265.65L267.666 8.052L269.67 2.688H270.45ZM273.604 2.64C274.428 2.64 275.06 2.848 275.5 3.264C275.94 3.672 276.16 4.28 276.16 5.088V9H275.344V8.016C275.152 8.344 274.868 8.6 274.492 8.784C274.124 8.968 273.684 9.06 273.172 9.06C272.468 9.06 271.908 8.892 271.492 8.556C271.076 8.22 270.868 7.776 270.868 7.224C270.868 6.688 271.06 6.256 271.444 5.928C271.836 5.6 272.456 5.436 273.304 5.436H275.308V5.052C275.308 4.508 275.156 4.096 274.852 3.816C274.548 3.528 274.104 3.384 273.52 3.384C273.12 3.384 272.736 3.452 272.368 3.588C272 3.716 271.684 3.896 271.42 4.128L271.036 3.492C271.356 3.22 271.74 3.012 272.188 2.868C272.636 2.716 273.108 2.64 273.604 2.64ZM273.304 8.388C273.784 8.388 274.196 8.28 274.54 8.064C274.884 7.84 275.14 7.52 275.308 7.104V6.072H273.328C272.248 6.072 271.708 6.448 271.708 7.2C271.708 7.568 271.848 7.86 272.128 8.076C272.408 8.284 272.8 8.388 273.304 8.388ZM280.664 5.832L279.176 7.2V9H278.324V0.0959995H279.176V6.132L282.944 2.688H284L281.3 5.268L284.252 9H283.208L280.664 5.832ZM288.705 8.616C288.545 8.76 288.345 8.872 288.105 8.952C287.873 9.024 287.629 9.06 287.373 9.06C286.781 9.06 286.325 8.9 286.005 8.58C285.685 8.26 285.525 7.808 285.525 7.224V3.408H284.397V2.688H285.525V1.308H286.377V2.688H288.297V3.408H286.377V7.176C286.377 7.552 286.469 7.84 286.653 8.04C286.845 8.232 287.117 8.328 287.469 8.328C287.645 8.328 287.813 8.3 287.973 8.244C288.141 8.188 288.285 8.108 288.405 8.004L288.705 8.616ZM295.794 2.688V9H294.978V7.848C294.754 8.232 294.446 8.532 294.054 8.748C293.662 8.956 293.214 9.06 292.71 9.06C291.886 9.06 291.234 8.832 290.754 8.376C290.282 7.912 290.046 7.236 290.046 6.348V2.688H290.898V6.264C290.898 6.928 291.062 7.432 291.39 7.776C291.718 8.12 292.186 8.292 292.794 8.292C293.458 8.292 293.982 8.092 294.366 7.692C294.75 7.284 294.942 6.72 294.942 6V2.688H295.794ZM4.87901 20.64C5.67101 20.64 6.29901 20.872 6.76301 21.336C7.23501 21.792 7.47101 22.46 7.47101 23.34V27H6.61901V23.424C6.61901 22.768 6.45501 22.268 6.12701 21.924C5.79901 21.58 5.33101 21.408 4.72301 21.408C4.04301 21.408 3.50301 21.612 3.10301 22.02C2.71101 22.42 2.51501 22.976 2.51501 23.688V27H1.66301V18.096H2.51501V21.792C2.74701 21.424 3.06701 21.14 3.47501 20.94C3.88301 20.74 4.35101 20.64 4.87901 20.64ZM9.6341 20.688H10.4861V27H9.6341V20.688ZM10.0661 19.308C9.8901 19.308 9.7421 19.248 9.6221 19.128C9.5021 19.008 9.4421 18.864 9.4421 18.696C9.4421 18.536 9.5021 18.396 9.6221 18.276C9.7421 18.156 9.8901 18.096 10.0661 18.096C10.2421 18.096 10.3901 18.156 10.5101 18.276C10.6301 18.388 10.6901 18.524 10.6901 18.684C10.6901 18.86 10.6301 19.008 10.5101 19.128C10.3901 19.248 10.2421 19.308 10.0661 19.308ZM15.9228 20.64C16.7148 20.64 17.3428 20.872 17.8068 21.336C18.2788 21.792 18.5148 22.46 18.5148 23.34V27H17.6628V23.424C17.6628 22.768 17.4988 22.268 17.1708 21.924C16.8428 21.58 16.3748 21.408 15.7668 21.408C15.0868 21.408 14.5468 21.612 14.1468 22.02C13.7548 22.42 13.5588 22.976 13.5588 23.688V27H12.7068V20.688H13.5228V21.852C13.7548 21.468 14.0748 21.172 14.4828 20.964C14.8988 20.748 15.3788 20.64 15.9228 20.64ZM26.5453 20.688V26.232C26.5453 27.304 26.2813 28.096 25.7533 28.608C25.2333 29.128 24.4453 29.388 23.3893 29.388C22.8053 29.388 22.2493 29.3 21.7213 29.124C21.2013 28.956 20.7773 28.72 20.4493 28.416L20.8813 27.768C21.1853 28.04 21.5533 28.252 21.9853 28.404C22.4253 28.556 22.8853 28.632 23.3653 28.632C24.1653 28.632 24.7533 28.444 25.1293 28.068C25.5053 27.7 25.6933 27.124 25.6933 26.34V25.536C25.4293 25.936 25.0813 26.24 24.6493 26.448C24.2253 26.656 23.7533 26.76 23.2333 26.76C22.6413 26.76 22.1013 26.632 21.6133 26.376C21.1333 26.112 20.7533 25.748 20.4733 25.284C20.2013 24.812 20.0653 24.28 20.0653 23.688C20.0653 23.096 20.2013 22.568 20.4733 22.104C20.7533 21.64 21.1333 21.28 21.6133 21.024C22.0933 20.768 22.6333 20.64 23.2333 20.64C23.7693 20.64 24.2533 20.748 24.6853 20.964C25.1173 21.18 25.4653 21.492 25.7293 21.9V20.688H26.5453ZM23.3173 26.004C23.7733 26.004 24.1853 25.908 24.5533 25.716C24.9213 25.516 25.2053 25.24 25.4053 24.888C25.6133 24.536 25.7173 24.136 25.7173 23.688C25.7173 23.24 25.6133 22.844 25.4053 22.5C25.2053 22.148 24.9213 21.876 24.5533 21.684C24.1933 21.484 23.7813 21.384 23.3173 21.384C22.8613 21.384 22.4493 21.48 22.0813 21.672C21.7213 21.864 21.4373 22.136 21.2293 22.488C21.0293 22.84 20.9293 23.24 20.9293 23.688C20.9293 24.136 21.0293 24.536 21.2293 24.888C21.4373 25.24 21.7213 25.516 22.0813 25.716C22.4493 25.908 22.8613 26.004 23.3173 26.004ZM34.6219 20.688V26.232C34.6219 27.304 34.3579 28.096 33.8299 28.608C33.3099 29.128 32.5219 29.388 31.4659 29.388C30.8819 29.388 30.3259 29.3 29.7979 29.124C29.2779 28.956 28.8539 28.72 28.5259 28.416L28.9579 27.768C29.2619 28.04 29.6299 28.252 30.0619 28.404C30.5019 28.556 30.9619 28.632 31.4419 28.632C32.2419 28.632 32.8299 28.444 33.2059 28.068C33.5819 27.7 33.7699 27.124 33.7699 26.34V25.536C33.5059 25.936 33.1579 26.24 32.7259 26.448C32.3019 26.656 31.8299 26.76 31.3099 26.76C30.7179 26.76 30.1779 26.632 29.6899 26.376C29.2099 26.112 28.8299 25.748 28.5499 25.284C28.2779 24.812 28.1419 24.28 28.1419 23.688C28.1419 23.096 28.2779 22.568 28.5499 22.104C28.8299 21.64 29.2099 21.28 29.6899 21.024C30.1699 20.768 30.7099 20.64 31.3099 20.64C31.8459 20.64 32.3299 20.748 32.7619 20.964C33.1939 21.18 33.5419 21.492 33.8059 21.9V20.688H34.6219ZM31.3939 26.004C31.8499 26.004 32.2619 25.908 32.6299 25.716C32.9979 25.516 33.2819 25.24 33.4819 24.888C33.6899 24.536 33.7939 24.136 33.7939 23.688C33.7939 23.24 33.6899 22.844 33.4819 22.5C33.2819 22.148 32.9979 21.876 32.6299 21.684C32.2699 21.484 31.8579 21.384 31.3939 21.384C30.9379 21.384 30.5259 21.48 30.1579 21.672C29.7979 21.864 29.5139 22.136 29.3059 22.488C29.1059 22.84 29.0059 23.24 29.0059 23.688C29.0059 24.136 29.1059 24.536 29.3059 24.888C29.5139 25.24 29.7979 25.516 30.1579 25.716C30.5259 25.908 30.9379 26.004 31.3939 26.004ZM39.0624 20.64C39.8864 20.64 40.5184 20.848 40.9584 21.264C41.3984 21.672 41.6184 22.28 41.6184 23.088V27H40.8024V26.016C40.6104 26.344 40.3264 26.6 39.9504 26.784C39.5824 26.968 39.1424 27.06 38.6304 27.06C37.9264 27.06 37.3664 26.892 36.9504 26.556C36.5344 26.22 36.3264 25.776 36.3264 25.224C36.3264 24.688 36.5184 24.256 36.9024 23.928C37.2944 23.6 37.9144 23.436 38.7624 23.436H40.7664V23.052C40.7664 22.508 40.6144 22.096 40.3104 21.816C40.0064 21.528 39.5624 21.384 38.9784 21.384C38.5784 21.384 38.1944 21.452 37.8264 21.588C37.4584 21.716 37.1424 21.896 36.8784 22.128L36.4944 21.492C36.8144 21.22 37.1984 21.012 37.6464 20.868C38.0944 20.716 38.5664 20.64 39.0624 20.64ZM38.7624 26.388C39.2424 26.388 39.6544 26.28 39.9984 26.064C40.3424 25.84 40.5984 25.52 40.7664 25.104V24.072H38.7864C37.7064 24.072 37.1664 24.448 37.1664 25.2C37.1664 25.568 37.3064 25.86 37.5864 26.076C37.8664 26.284 38.2584 26.388 38.7624 26.388ZM48.5372 18.6V27H47.6732V19.368H45.6932V18.6H48.5372ZM54.9791 27L52.9751 24.36L50.9591 27H49.9991L52.4951 23.76L50.1191 20.688H51.0791L52.9751 23.16L54.8711 20.688H55.8071L53.4311 23.76L55.9511 27H54.9791ZM62.3561 26.232V27H56.4641V26.388L59.9561 22.968C60.3961 22.536 60.6921 22.164 60.8441 21.852C61.0041 21.532 61.0841 21.212 61.0841 20.892C61.0841 20.396 60.9121 20.012 60.5681 19.74C60.2321 19.46 59.7481 19.32 59.1161 19.32C58.1321 19.32 57.3681 19.632 56.8241 20.256L56.2121 19.728C56.5401 19.344 56.9561 19.048 57.4601 18.84C57.9721 18.632 58.5481 18.528 59.1881 18.528C60.0441 18.528 60.7201 18.732 61.2161 19.14C61.7201 19.54 61.9721 20.092 61.9721 20.796C61.9721 21.228 61.8761 21.644 61.6841 22.044C61.4921 22.444 61.1281 22.904 60.5921 23.424L57.7361 26.232H62.3561ZM70.1492 24.792H68.4692V27H67.6052V24.792H62.8652V24.168L67.3172 18.6H68.2772L63.9812 24.024H67.6292V22.08H68.4692V24.024H70.1492V24.792ZM73.4114 29.388C73.1474 29.388 72.8994 29.352 72.6674 29.28C72.4274 29.216 72.2314 29.116 72.0794 28.98L72.3794 28.332C72.6274 28.548 72.9554 28.656 73.3634 28.656C73.6994 28.656 73.9554 28.556 74.1314 28.356C74.3154 28.156 74.4074 27.86 74.4074 27.468V20.688H75.2594V27.468C75.2594 28.06 75.0994 28.528 74.7794 28.872C74.4594 29.216 74.0034 29.388 73.4114 29.388ZM74.8394 19.296C74.6634 19.296 74.5154 19.236 74.3954 19.116C74.2754 18.996 74.2154 18.852 74.2154 18.684C74.2154 18.524 74.2754 18.384 74.3954 18.264C74.5154 18.144 74.6634 18.084 74.8394 18.084C75.0154 18.084 75.1634 18.144 75.2834 18.264C75.4034 18.376 75.4634 18.512 75.4634 18.672C75.4634 18.848 75.4034 18.996 75.2834 19.116C75.1634 19.236 75.0154 19.296 74.8394 19.296ZM79.6984 20.64C80.5224 20.64 81.1544 20.848 81.5944 21.264C82.0344 21.672 82.2544 22.28 82.2544 23.088V27H81.4384V26.016C81.2464 26.344 80.9624 26.6 80.5864 26.784C80.2184 26.968 79.7784 27.06 79.2664 27.06C78.5624 27.06 78.0024 26.892 77.5864 26.556C77.1704 26.22 76.9624 25.776 76.9624 25.224C76.9624 24.688 77.1544 24.256 77.5384 23.928C77.9304 23.6 78.5504 23.436 79.3984 23.436H81.4024V23.052C81.4024 22.508 81.2504 22.096 80.9464 21.816C80.6424 21.528 80.1984 21.384 79.6144 21.384C79.2144 21.384 78.8304 21.452 78.4624 21.588C78.0944 21.716 77.7784 21.896 77.5144 22.128L77.1304 21.492C77.4504 21.22 77.8344 21.012 78.2824 20.868C78.7304 20.716 79.2024 20.64 79.6984 20.64ZM79.3984 26.388C79.8784 26.388 80.2904 26.28 80.6344 26.064C80.9784 25.84 81.2344 25.52 81.4024 25.104V24.072H79.4224C78.3424 24.072 77.8024 24.448 77.8024 25.2C77.8024 25.568 77.9424 25.86 78.2224 26.076C78.5024 26.284 78.8944 26.388 79.3984 26.388ZM92.2905 20.64C93.0825 20.64 93.7025 20.868 94.1505 21.324C94.6065 21.78 94.8345 22.452 94.8345 23.34V27H93.9825V23.424C93.9825 22.768 93.8225 22.268 93.5025 21.924C93.1905 21.58 92.7465 21.408 92.1705 21.408C91.5145 21.408 90.9985 21.612 90.6225 22.02C90.2465 22.42 90.0585 22.976 90.0585 23.688V27H89.2065V23.424C89.2065 22.768 89.0465 22.268 88.7265 21.924C88.4145 21.58 87.9665 21.408 87.3825 21.408C86.7345 21.408 86.2185 21.612 85.8345 22.02C85.4585 22.42 85.2705 22.976 85.2705 23.688V27H84.4185V20.688H85.2345V21.84C85.4585 21.456 85.7705 21.16 86.1705 20.952C86.5705 20.744 87.0305 20.64 87.5505 20.64C88.0785 20.64 88.5345 20.752 88.9185 20.976C89.3105 21.2 89.6025 21.532 89.7945 21.972C90.0265 21.556 90.3585 21.232 90.7905 21C91.2305 20.76 91.7305 20.64 92.2905 20.64ZM97.079 27.06C96.903 27.06 96.751 26.996 96.623 26.868C96.503 26.74 96.443 26.584 96.443 26.4C96.443 26.216 96.503 26.064 96.623 25.944C96.751 25.816 96.903 25.752 97.079 25.752C97.255 25.752 97.407 25.816 97.535 25.944C97.663 26.064 97.727 26.216 97.727 26.4C97.727 26.584 97.663 26.74 97.535 26.868C97.407 26.996 97.255 27.06 97.079 27.06ZM102.559 18.6H103.447V27H102.559V18.6ZM109.066 20.64C109.858 20.64 110.486 20.872 110.95 21.336C111.422 21.792 111.658 22.46 111.658 23.34V27H110.806V23.424C110.806 22.768 110.642 22.268 110.314 21.924C109.986 21.58 109.518 21.408 108.91 21.408C108.23 21.408 107.69 21.612 107.29 22.02C106.898 22.42 106.702 22.976 106.702 23.688V27H105.85V20.688H106.666V21.852C106.898 21.468 107.218 21.172 107.626 20.964C108.042 20.748 108.522 20.64 109.066 20.64ZM115.909 18.756C115.541 18.756 115.261 18.856 115.069 19.056C114.885 19.256 114.793 19.552 114.793 19.944V20.688H116.737V21.408H114.817V27H113.965V21.408H112.837V20.688H113.965V19.908C113.965 19.332 114.129 18.876 114.457 18.54C114.793 18.204 115.265 18.036 115.873 18.036C116.113 18.036 116.345 18.072 116.569 18.144C116.793 18.208 116.981 18.304 117.133 18.432L116.845 19.068C116.597 18.86 116.285 18.756 115.909 18.756ZM120.212 27.06C119.604 27.06 119.056 26.924 118.568 26.652C118.08 26.372 117.696 25.988 117.416 25.5C117.136 25.012 116.996 24.46 116.996 23.844C116.996 23.228 117.136 22.676 117.416 22.188C117.696 21.7 118.08 21.32 118.568 21.048C119.056 20.776 119.604 20.64 120.212 20.64C120.82 20.64 121.368 20.776 121.856 21.048C122.344 21.32 122.724 21.7 122.996 22.188C123.276 22.676 123.416 23.228 123.416 23.844C123.416 24.46 123.276 25.012 122.996 25.5C122.724 25.988 122.344 26.372 121.856 26.652C121.368 26.924 120.82 27.06 120.212 27.06ZM120.212 26.304C120.66 26.304 121.06 26.204 121.412 26.004C121.772 25.796 122.052 25.504 122.252 25.128C122.452 24.752 122.552 24.324 122.552 23.844C122.552 23.364 122.452 22.936 122.252 22.56C122.052 22.184 121.772 21.896 121.412 21.696C121.06 21.488 120.66 21.384 120.212 21.384C119.764 21.384 119.36 21.488 119 21.696C118.648 21.896 118.368 22.184 118.16 22.56C117.96 22.936 117.86 23.364 117.86 23.844C117.86 24.324 117.96 24.752 118.16 25.128C118.368 25.504 118.648 25.796 119 26.004C119.36 26.204 119.764 26.304 120.212 26.304ZM125.821 21.924C126.021 21.5 126.317 21.18 126.709 20.964C127.109 20.748 127.601 20.64 128.185 20.64V21.468L127.981 21.456C127.317 21.456 126.797 21.66 126.421 22.068C126.045 22.476 125.857 23.048 125.857 23.784V27H125.005V20.688H125.821V21.924ZM137.45 20.64C138.242 20.64 138.862 20.868 139.31 21.324C139.766 21.78 139.994 22.452 139.994 23.34V27H139.142V23.424C139.142 22.768 138.982 22.268 138.662 21.924C138.35 21.58 137.906 21.408 137.33 21.408C136.674 21.408 136.158 21.612 135.782 22.02C135.406 22.42 135.218 22.976 135.218 23.688V27H134.366V23.424C134.366 22.768 134.206 22.268 133.886 21.924C133.574 21.58 133.126 21.408 132.542 21.408C131.894 21.408 131.378 21.612 130.994 22.02C130.618 22.42 130.43 22.976 130.43 23.688V27H129.578V20.688H130.394V21.84C130.618 21.456 130.93 21.16 131.33 20.952C131.73 20.744 132.19 20.64 132.71 20.64C133.238 20.64 133.694 20.752 134.078 20.976C134.47 21.2 134.762 21.532 134.954 21.972C135.186 21.556 135.518 21.232 135.95 21C136.39 20.76 136.89 20.64 137.45 20.64ZM144.362 20.64C145.186 20.64 145.818 20.848 146.258 21.264C146.698 21.672 146.918 22.28 146.918 23.088V27H146.102V26.016C145.91 26.344 145.626 26.6 145.25 26.784C144.882 26.968 144.442 27.06 143.93 27.06C143.226 27.06 142.666 26.892 142.25 26.556C141.834 26.22 141.626 25.776 141.626 25.224C141.626 24.688 141.818 24.256 142.202 23.928C142.594 23.6 143.214 23.436 144.062 23.436H146.066V23.052C146.066 22.508 145.914 22.096 145.61 21.816C145.306 21.528 144.862 21.384 144.278 21.384C143.878 21.384 143.494 21.452 143.126 21.588C142.758 21.716 142.442 21.896 142.178 22.128L141.794 21.492C142.114 21.22 142.498 21.012 142.946 20.868C143.394 20.716 143.866 20.64 144.362 20.64ZM144.062 26.388C144.542 26.388 144.954 26.28 145.298 26.064C145.642 25.84 145.898 25.52 146.066 25.104V24.072H144.086C143.006 24.072 142.466 24.448 142.466 25.2C142.466 25.568 142.606 25.86 142.886 26.076C143.166 26.284 143.558 26.388 144.062 26.388ZM150.775 27.06C150.263 27.06 149.771 26.988 149.299 26.844C148.835 26.692 148.471 26.504 148.207 26.28L148.591 25.608C148.855 25.816 149.187 25.988 149.587 26.124C149.987 26.252 150.403 26.316 150.835 26.316C151.411 26.316 151.835 26.228 152.107 26.052C152.387 25.868 152.527 25.612 152.527 25.284C152.527 25.052 152.451 24.872 152.299 24.744C152.147 24.608 151.955 24.508 151.723 24.444C151.491 24.372 151.183 24.304 150.799 24.24C150.287 24.144 149.875 24.048 149.563 23.952C149.251 23.848 148.983 23.676 148.759 23.436C148.543 23.196 148.435 22.864 148.435 22.44C148.435 21.912 148.655 21.48 149.095 21.144C149.535 20.808 150.147 20.64 150.931 20.64C151.339 20.64 151.747 20.696 152.155 20.808C152.563 20.912 152.899 21.052 153.163 21.228L152.791 21.912C152.271 21.552 151.651 21.372 150.931 21.372C150.387 21.372 149.975 21.468 149.695 21.66C149.423 21.852 149.287 22.104 149.287 22.416C149.287 22.656 149.363 22.848 149.515 22.992C149.675 23.136 149.871 23.244 150.103 23.316C150.335 23.38 150.655 23.448 151.063 23.52C151.567 23.616 151.971 23.712 152.275 23.808C152.579 23.904 152.839 24.068 153.055 24.3C153.271 24.532 153.379 24.852 153.379 25.26C153.379 25.812 153.147 26.252 152.683 26.58C152.227 26.9 151.591 27.06 150.775 27.06ZM154.804 20.688H155.656V27H154.804V20.688ZM155.236 19.308C155.06 19.308 154.912 19.248 154.792 19.128C154.672 19.008 154.612 18.864 154.612 18.696C154.612 18.536 154.672 18.396 154.792 18.276C154.912 18.156 155.06 18.096 155.236 18.096C155.412 18.096 155.56 18.156 155.68 18.276C155.8 18.388 155.86 18.524 155.86 18.684C155.86 18.86 155.8 19.008 155.68 19.128C155.56 19.248 155.412 19.308 155.236 19.308ZM164.083 20.64C164.875 20.64 165.503 20.872 165.967 21.336C166.439 21.792 166.675 22.46 166.675 23.34V27H165.823V23.424C165.823 22.768 165.659 22.268 165.331 21.924C165.003 21.58 164.535 21.408 163.927 21.408C163.247 21.408 162.707 21.612 162.307 22.02C161.915 22.42 161.719 22.976 161.719 23.688V27H160.867V20.688H161.683V21.852C161.915 21.468 162.235 21.172 162.643 20.964C163.059 20.748 163.539 20.64 164.083 20.64ZM171.441 27.06C170.833 27.06 170.285 26.924 169.797 26.652C169.309 26.372 168.925 25.988 168.645 25.5C168.365 25.012 168.225 24.46 168.225 23.844C168.225 23.228 168.365 22.676 168.645 22.188C168.925 21.7 169.309 21.32 169.797 21.048C170.285 20.776 170.833 20.64 171.441 20.64C172.049 20.64 172.597 20.776 173.085 21.048C173.573 21.32 173.953 21.7 174.225 22.188C174.505 22.676 174.645 23.228 174.645 23.844C174.645 24.46 174.505 25.012 174.225 25.5C173.953 25.988 173.573 26.372 173.085 26.652C172.597 26.924 172.049 27.06 171.441 27.06ZM171.441 26.304C171.889 26.304 172.289 26.204 172.641 26.004C173.001 25.796 173.281 25.504 173.481 25.128C173.681 24.752 173.781 24.324 173.781 23.844C173.781 23.364 173.681 22.936 173.481 22.56C173.281 22.184 173.001 21.896 172.641 21.696C172.289 21.488 171.889 21.384 171.441 21.384C170.993 21.384 170.589 21.488 170.229 21.696C169.877 21.896 169.597 22.184 169.389 22.56C169.189 22.936 169.089 23.364 169.089 23.844C169.089 24.324 169.189 24.752 169.389 25.128C169.597 25.504 169.877 25.796 170.229 26.004C170.589 26.204 170.993 26.304 171.441 26.304ZM179.559 26.616C179.399 26.76 179.199 26.872 178.959 26.952C178.727 27.024 178.483 27.06 178.227 27.06C177.635 27.06 177.179 26.9 176.859 26.58C176.539 26.26 176.379 25.808 176.379 25.224V21.408H175.251V20.688H176.379V19.308H177.231V20.688H179.151V21.408H177.231V25.176C177.231 25.552 177.323 25.84 177.507 26.04C177.699 26.232 177.971 26.328 178.323 26.328C178.499 26.328 178.667 26.3 178.827 26.244C178.995 26.188 179.139 26.108 179.259 26.004L179.559 26.616ZM180.96 20.688H181.812V27H180.96V20.688ZM181.392 19.308C181.216 19.308 181.068 19.248 180.948 19.128C180.828 19.008 180.768 18.864 180.768 18.696C180.768 18.536 180.828 18.396 180.948 18.276C181.068 18.156 181.216 18.096 181.392 18.096C181.568 18.096 181.716 18.156 181.836 18.276C181.956 18.388 182.016 18.524 182.016 18.684C182.016 18.86 181.956 19.008 181.836 19.128C181.716 19.248 181.568 19.308 181.392 19.308ZM186.121 18.756C185.753 18.756 185.473 18.856 185.281 19.056C185.097 19.256 185.005 19.552 185.005 19.944V20.688H186.949V21.408H185.029V27H184.177V21.408H183.049V20.688H184.177V19.908C184.177 19.332 184.341 18.876 184.669 18.54C185.005 18.204 185.477 18.036 186.085 18.036C186.325 18.036 186.557 18.072 186.781 18.144C187.005 18.208 187.193 18.304 187.345 18.432L187.057 19.068C186.809 18.86 186.497 18.756 186.121 18.756ZM189.061 20.688H189.913V27H189.061V20.688ZM189.493 19.308C189.317 19.308 189.169 19.248 189.049 19.128C188.929 19.008 188.869 18.864 188.869 18.696C188.869 18.536 188.929 18.396 189.049 18.276C189.169 18.156 189.317 18.096 189.493 18.096C189.669 18.096 189.817 18.156 189.937 18.276C190.057 18.388 190.117 18.524 190.117 18.684C190.117 18.86 190.057 19.008 189.937 19.128C189.817 19.248 189.669 19.308 189.493 19.308ZM194.484 23.832L192.996 25.2V27H192.144V18.096H192.996V24.132L196.764 20.688H197.82L195.12 23.268L198.072 27H197.028L194.484 23.832ZM201.292 20.64C202.116 20.64 202.748 20.848 203.188 21.264C203.628 21.672 203.848 22.28 203.848 23.088V27H203.032V26.016C202.84 26.344 202.556 26.6 202.18 26.784C201.812 26.968 201.372 27.06 200.86 27.06C200.156 27.06 199.596 26.892 199.18 26.556C198.764 26.22 198.556 25.776 198.556 25.224C198.556 24.688 198.748 24.256 199.132 23.928C199.524 23.6 200.144 23.436 200.992 23.436H202.996V23.052C202.996 22.508 202.844 22.096 202.54 21.816C202.236 21.528 201.792 21.384 201.208 21.384C200.808 21.384 200.424 21.452 200.056 21.588C199.688 21.716 199.372 21.896 199.108 22.128L198.724 21.492C199.044 21.22 199.428 21.012 199.876 20.868C200.324 20.716 200.796 20.64 201.292 20.64ZM200.992 26.388C201.472 26.388 201.884 26.28 202.228 26.064C202.572 25.84 202.828 25.52 202.996 25.104V24.072H201.016C199.936 24.072 199.396 24.448 199.396 25.2C199.396 25.568 199.536 25.86 199.816 26.076C200.096 26.284 200.488 26.388 200.992 26.388ZM207.704 27.06C207.192 27.06 206.7 26.988 206.228 26.844C205.764 26.692 205.4 26.504 205.136 26.28L205.52 25.608C205.784 25.816 206.116 25.988 206.516 26.124C206.916 26.252 207.332 26.316 207.764 26.316C208.34 26.316 208.764 26.228 209.036 26.052C209.316 25.868 209.456 25.612 209.456 25.284C209.456 25.052 209.38 24.872 209.228 24.744C209.076 24.608 208.884 24.508 208.652 24.444C208.42 24.372 208.112 24.304 207.728 24.24C207.216 24.144 206.804 24.048 206.492 23.952C206.18 23.848 205.912 23.676 205.688 23.436C205.472 23.196 205.364 22.864 205.364 22.44C205.364 21.912 205.584 21.48 206.024 21.144C206.464 20.808 207.076 20.64 207.86 20.64C208.268 20.64 208.676 20.696 209.084 20.808C209.492 20.912 209.828 21.052 210.092 21.228L209.72 21.912C209.2 21.552 208.58 21.372 207.86 21.372C207.316 21.372 206.904 21.468 206.624 21.66C206.352 21.852 206.216 22.104 206.216 22.416C206.216 22.656 206.292 22.848 206.444 22.992C206.604 23.136 206.8 23.244 207.032 23.316C207.264 23.38 207.584 23.448 207.992 23.52C208.496 23.616 208.9 23.712 209.204 23.808C209.508 23.904 209.768 24.068 209.984 24.3C210.2 24.532 210.308 24.852 210.308 25.26C210.308 25.812 210.076 26.252 209.612 26.58C209.156 26.9 208.52 27.06 207.704 27.06ZM211.733 20.688H212.585V27H211.733V20.688ZM212.165 19.308C211.989 19.308 211.841 19.248 211.721 19.128C211.601 19.008 211.541 18.864 211.541 18.696C211.541 18.536 211.601 18.396 211.721 18.276C211.841 18.156 211.989 18.096 212.165 18.096C212.341 18.096 212.489 18.156 212.609 18.276C212.729 18.388 212.789 18.524 212.789 18.684C212.789 18.86 212.729 19.008 212.609 19.128C212.489 19.248 212.341 19.308 212.165 19.308ZM221.049 20.64C221.641 20.64 222.177 20.776 222.657 21.048C223.137 21.312 223.513 21.688 223.785 22.176C224.057 22.664 224.193 23.22 224.193 23.844C224.193 24.476 224.057 25.036 223.785 25.524C223.513 26.012 223.137 26.392 222.657 26.664C222.185 26.928 221.649 27.06 221.049 27.06C220.537 27.06 220.073 26.956 219.657 26.748C219.249 26.532 218.913 26.22 218.649 25.812V29.328H217.797V20.688H218.613V21.936C218.869 21.52 219.205 21.2 219.621 20.976C220.045 20.752 220.521 20.64 221.049 20.64ZM220.989 26.304C221.429 26.304 221.829 26.204 222.189 26.004C222.549 25.796 222.829 25.504 223.029 25.128C223.237 24.752 223.341 24.324 223.341 23.844C223.341 23.364 223.237 22.94 223.029 22.572C222.829 22.196 222.549 21.904 222.189 21.696C221.829 21.488 221.429 21.384 220.989 21.384C220.541 21.384 220.137 21.488 219.777 21.696C219.425 21.904 219.145 22.196 218.937 22.572C218.737 22.94 218.637 23.364 218.637 23.844C218.637 24.324 218.737 24.752 218.937 25.128C219.145 25.504 219.425 25.796 219.777 26.004C220.137 26.204 220.541 26.304 220.989 26.304ZM231.275 24.108H225.995C226.043 24.764 226.295 25.296 226.751 25.704C227.207 26.104 227.783 26.304 228.479 26.304C228.871 26.304 229.231 26.236 229.559 26.1C229.887 25.956 230.171 25.748 230.411 25.476L230.891 26.028C230.611 26.364 230.259 26.62 229.835 26.796C229.419 26.972 228.959 27.06 228.455 27.06C227.807 27.06 227.231 26.924 226.727 26.652C226.231 26.372 225.843 25.988 225.563 25.5C225.283 25.012 225.143 24.46 225.143 23.844C225.143 23.228 225.275 22.676 225.539 22.188C225.811 21.7 226.179 21.32 226.643 21.048C227.115 20.776 227.643 20.64 228.227 20.64C228.811 20.64 229.335 20.776 229.799 21.048C230.263 21.32 230.627 21.7 230.891 22.188C231.155 22.668 231.287 23.22 231.287 23.844L231.275 24.108ZM228.227 21.372C227.619 21.372 227.107 21.568 226.691 21.96C226.283 22.344 226.051 22.848 225.995 23.472H230.471C230.415 22.848 230.179 22.344 229.763 21.96C229.355 21.568 228.843 21.372 228.227 21.372ZM240.744 20.64C241.536 20.64 242.156 20.868 242.604 21.324C243.06 21.78 243.288 22.452 243.288 23.34V27H242.436V23.424C242.436 22.768 242.276 22.268 241.956 21.924C241.644 21.58 241.2 21.408 240.624 21.408C239.968 21.408 239.452 21.612 239.076 22.02C238.7 22.42 238.512 22.976 238.512 23.688V27H237.66V23.424C237.66 22.768 237.5 22.268 237.18 21.924C236.868 21.58 236.42 21.408 235.836 21.408C235.188 21.408 234.672 21.612 234.288 22.02C233.912 22.42 233.724 22.976 233.724 23.688V27H232.872V20.688H233.688V21.84C233.912 21.456 234.224 21.16 234.624 20.952C235.024 20.744 235.484 20.64 236.004 20.64C236.532 20.64 236.988 20.752 237.372 20.976C237.764 21.2 238.056 21.532 238.248 21.972C238.48 21.556 238.812 21.232 239.244 21C239.684 20.76 240.184 20.64 240.744 20.64ZM248.7 20.64C249.292 20.64 249.828 20.776 250.308 21.048C250.788 21.312 251.164 21.688 251.436 22.176C251.708 22.664 251.844 23.22 251.844 23.844C251.844 24.468 251.708 25.024 251.436 25.512C251.164 26 250.788 26.38 250.308 26.652C249.828 26.924 249.292 27.06 248.7 27.06C248.172 27.06 247.696 26.948 247.272 26.724C246.856 26.5 246.52 26.176 246.264 25.752V27H245.448V18.096H246.3V21.888C246.564 21.48 246.9 21.172 247.308 20.964C247.724 20.748 248.188 20.64 248.7 20.64ZM248.64 26.304C249.08 26.304 249.48 26.204 249.84 26.004C250.2 25.796 250.48 25.504 250.68 25.128C250.888 24.752 250.992 24.324 250.992 23.844C250.992 23.364 250.888 22.936 250.68 22.56C250.48 22.184 250.2 21.896 249.84 21.696C249.48 21.488 249.08 21.384 248.64 21.384C248.192 21.384 247.788 21.488 247.428 21.696C247.076 21.896 246.796 22.184 246.588 22.56C246.388 22.936 246.288 23.364 246.288 23.844C246.288 24.324 246.388 24.752 246.588 25.128C246.796 25.504 247.076 25.796 247.428 26.004C247.788 26.204 248.192 26.304 248.64 26.304ZM255.604 20.64C256.428 20.64 257.06 20.848 257.5 21.264C257.94 21.672 258.16 22.28 258.16 23.088V27H257.344V26.016C257.152 26.344 256.868 26.6 256.492 26.784C256.124 26.968 255.684 27.06 255.172 27.06C254.468 27.06 253.908 26.892 253.492 26.556C253.076 26.22 252.868 25.776 252.868 25.224C252.868 24.688 253.06 24.256 253.444 23.928C253.836 23.6 254.456 23.436 255.304 23.436H257.308V23.052C257.308 22.508 257.156 22.096 256.852 21.816C256.548 21.528 256.104 21.384 255.52 21.384C255.12 21.384 254.736 21.452 254.368 21.588C254 21.716 253.684 21.896 253.42 22.128L253.036 21.492C253.356 21.22 253.74 21.012 254.188 20.868C254.636 20.716 255.108 20.64 255.604 20.64ZM255.304 26.388C255.784 26.388 256.196 26.28 256.54 26.064C256.884 25.84 257.14 25.52 257.308 25.104V24.072H255.328C254.248 24.072 253.708 24.448 253.708 25.2C253.708 25.568 253.848 25.86 254.128 26.076C254.408 26.284 254.8 26.388 255.304 26.388ZM263.54 20.64C264.332 20.64 264.96 20.872 265.424 21.336C265.896 21.792 266.132 22.46 266.132 23.34V27H265.28V23.424C265.28 22.768 265.116 22.268 264.788 21.924C264.46 21.58 263.992 21.408 263.384 21.408C262.704 21.408 262.164 21.612 261.764 22.02C261.372 22.42 261.176 22.976 261.176 23.688V27H260.324V18.096H261.176V21.792C261.408 21.424 261.728 21.14 262.136 20.94C262.544 20.74 263.012 20.64 263.54 20.64ZM270.503 20.64C271.327 20.64 271.959 20.848 272.399 21.264C272.839 21.672 273.059 22.28 273.059 23.088V27H272.243V26.016C272.051 26.344 271.767 26.6 271.391 26.784C271.023 26.968 270.583 27.06 270.071 27.06C269.367 27.06 268.807 26.892 268.391 26.556C267.975 26.22 267.767 25.776 267.767 25.224C267.767 24.688 267.959 24.256 268.343 23.928C268.735 23.6 269.355 23.436 270.203 23.436H272.207V23.052C272.207 22.508 272.055 22.096 271.751 21.816C271.447 21.528 271.003 21.384 270.419 21.384C270.019 21.384 269.635 21.452 269.267 21.588C268.899 21.716 268.583 21.896 268.319 22.128L267.935 21.492C268.255 21.22 268.639 21.012 269.087 20.868C269.535 20.716 270.007 20.64 270.503 20.64ZM270.203 26.388C270.683 26.388 271.095 26.28 271.439 26.064C271.783 25.84 272.039 25.52 272.207 25.104V24.072H270.227C269.147 24.072 268.607 24.448 268.607 25.2C268.607 25.568 268.747 25.86 269.027 26.076C269.307 26.284 269.699 26.388 270.203 26.388ZM276.039 21.924C276.239 21.5 276.535 21.18 276.927 20.964C277.327 20.748 277.819 20.64 278.403 20.64V21.468L278.199 21.456C277.535 21.456 277.015 21.66 276.639 22.068C276.263 22.476 276.075 23.048 276.075 23.784V27H275.223V20.688H276.039V21.924ZM285.578 20.688V27H284.762V25.848C284.538 26.232 284.23 26.532 283.838 26.748C283.446 26.956 282.998 27.06 282.494 27.06C281.67 27.06 281.018 26.832 280.538 26.376C280.066 25.912 279.83 25.236 279.83 24.348V20.688H280.682V24.264C280.682 24.928 280.846 25.432 281.174 25.776C281.502 26.12 281.97 26.292 282.578 26.292C283.242 26.292 283.766 26.092 284.15 25.692C284.534 25.284 284.726 24.72 284.726 24V20.688H285.578ZM290.022 20.64C290.846 20.64 291.478 20.848 291.918 21.264C292.358 21.672 292.578 22.28 292.578 23.088V27H291.762V26.016C291.57 26.344 291.286 26.6 290.91 26.784C290.542 26.968 290.102 27.06 289.59 27.06C288.886 27.06 288.326 26.892 287.91 26.556C287.494 26.22 287.286 25.776 287.286 25.224C287.286 24.688 287.478 24.256 287.862 23.928C288.254 23.6 288.874 23.436 289.722 23.436H291.726V23.052C291.726 22.508 291.574 22.096 291.27 21.816C290.966 21.528 290.522 21.384 289.938 21.384C289.538 21.384 289.154 21.452 288.786 21.588C288.418 21.716 288.102 21.896 287.838 22.128L287.454 21.492C287.774 21.22 288.158 21.012 288.606 20.868C289.054 20.716 289.526 20.64 290.022 20.64ZM289.722 26.388C290.202 26.388 290.614 26.28 290.958 26.064C291.302 25.84 291.558 25.52 291.726 25.104V24.072H289.746C288.666 24.072 288.126 24.448 288.126 25.2C288.126 25.568 288.266 25.86 288.546 26.076C288.826 26.284 289.218 26.388 289.722 26.388ZM297.958 20.64C298.75 20.64 299.378 20.872 299.842 21.336C300.314 21.792 300.55 22.46 300.55 23.34V27H299.698V23.424C299.698 22.768 299.534 22.268 299.206 21.924C298.878 21.58 298.41 21.408 297.802 21.408C297.122 21.408 296.582 21.612 296.182 22.02C295.79 22.42 295.594 22.976 295.594 23.688V27H294.742V20.688H295.558V21.852C295.79 21.468 296.11 21.172 296.518 20.964C296.934 20.748 297.414 20.64 297.958 20.64ZM7.00347 36.096V45H6.18747V43.752C5.93147 44.176 5.59147 44.5 5.16747 44.724C4.75147 44.948 4.27947 45.06 3.75147 45.06C3.15947 45.06 2.62347 44.924 2.14347 44.652C1.66347 44.38 1.28747 44 1.01547 43.512C0.743466 43.024 0.607466 42.468 0.607466 41.844C0.607466 41.22 0.743466 40.664 1.01547 40.176C1.28747 39.688 1.66347 39.312 2.14347 39.048C2.62347 38.776 3.15947 38.64 3.75147 38.64C4.26347 38.64 4.72347 38.748 5.13147 38.964C5.54747 39.172 5.88747 39.48 6.15147 39.888V36.096H7.00347ZM3.82347 44.304C4.26347 44.304 4.65947 44.204 5.01147 44.004C5.37147 43.796 5.65147 43.504 5.85147 43.128C6.05947 42.752 6.16347 42.324 6.16347 41.844C6.16347 41.364 6.05947 40.936 5.85147 40.56C5.65147 40.184 5.37147 39.896 5.01147 39.696C4.65947 39.488 4.26347 39.384 3.82347 39.384C3.37547 39.384 2.97147 39.488 2.61147 39.696C2.25947 39.896 1.97947 40.184 1.77147 40.56C1.57147 40.936 1.47147 41.364 1.47147 41.844C1.47147 42.324 1.57147 42.752 1.77147 43.128C1.97947 43.504 2.25947 43.796 2.61147 44.004C2.97147 44.204 3.37547 44.304 3.82347 44.304ZM11.4343 38.64C12.2583 38.64 12.8903 38.848 13.3303 39.264C13.7703 39.672 13.9903 40.28 13.9903 41.088V45H13.1743V44.016C12.9823 44.344 12.6983 44.6 12.3223 44.784C11.9543 44.968 11.5143 45.06 11.0023 45.06C10.2983 45.06 9.73828 44.892 9.32228 44.556C8.90628 44.22 8.69828 43.776 8.69828 43.224C8.69828 42.688 8.89028 42.256 9.27428 41.928C9.66628 41.6 10.2863 41.436 11.1343 41.436H13.1383V41.052C13.1383 40.508 12.9863 40.096 12.6823 39.816C12.3783 39.528 11.9343 39.384 11.3503 39.384C10.9503 39.384 10.5663 39.452 10.1983 39.588C9.83028 39.716 9.51428 39.896 9.25028 40.128L8.86628 39.492C9.18628 39.22 9.57028 39.012 10.0183 38.868C10.4663 38.716 10.9383 38.64 11.4343 38.64ZM11.1343 44.388C11.6143 44.388 12.0263 44.28 12.3703 44.064C12.7143 43.84 12.9703 43.52 13.1383 43.104V42.072H11.1583C10.0783 42.072 9.53828 42.448 9.53828 43.2C9.53828 43.568 9.67828 43.86 9.95828 44.076C10.2383 44.284 10.6303 44.388 11.1343 44.388ZM19.4784 44.616C19.3184 44.76 19.1184 44.872 18.8784 44.952C18.6464 45.024 18.4024 45.06 18.1464 45.06C17.5544 45.06 17.0984 44.9 16.7784 44.58C16.4584 44.26 16.2984 43.808 16.2984 43.224V39.408H15.1704V38.688H16.2984V37.308H17.1504V38.688H19.0704V39.408H17.1504V43.176C17.1504 43.552 17.2424 43.84 17.4264 44.04C17.6184 44.232 17.8904 44.328 18.2424 44.328C18.4184 44.328 18.5864 44.3 18.7464 44.244C18.9144 44.188 19.0584 44.108 19.1784 44.004L19.4784 44.616ZM23.0874 38.64C23.9114 38.64 24.5434 38.848 24.9834 39.264C25.4234 39.672 25.6434 40.28 25.6434 41.088V45H24.8274V44.016C24.6354 44.344 24.3514 44.6 23.9754 44.784C23.6074 44.968 23.1674 45.06 22.6554 45.06C21.9514 45.06 21.3914 44.892 20.9754 44.556C20.5594 44.22 20.3514 43.776 20.3514 43.224C20.3514 42.688 20.5434 42.256 20.9274 41.928C21.3194 41.6 21.9394 41.436 22.7874 41.436H24.7914V41.052C24.7914 40.508 24.6394 40.096 24.3354 39.816C24.0314 39.528 23.5874 39.384 23.0034 39.384C22.6034 39.384 22.2194 39.452 21.8514 39.588C21.4834 39.716 21.1674 39.896 20.9034 40.128L20.5194 39.492C20.8394 39.22 21.2234 39.012 21.6714 38.868C22.1194 38.716 22.5914 38.64 23.0874 38.64ZM22.7874 44.388C23.2674 44.388 23.6794 44.28 24.0234 44.064C24.3674 43.84 24.6234 43.52 24.7914 43.104V42.072H22.8114C21.7314 42.072 21.1914 42.448 21.1914 43.2C21.1914 43.568 21.3314 43.86 21.6114 44.076C21.8914 44.284 22.2834 44.388 22.7874 44.388ZM30.7982 36.096H31.6502V45H30.7982V36.096ZM39.3668 42.108H34.0868C34.1348 42.764 34.3868 43.296 34.8428 43.704C35.2988 44.104 35.8748 44.304 36.5708 44.304C36.9628 44.304 37.3228 44.236 37.6508 44.1C37.9788 43.956 38.2628 43.748 38.5028 43.476L38.9828 44.028C38.7028 44.364 38.3508 44.62 37.9268 44.796C37.5108 44.972 37.0508 45.06 36.5468 45.06C35.8988 45.06 35.3228 44.924 34.8188 44.652C34.3228 44.372 33.9348 43.988 33.6548 43.5C33.3748 43.012 33.2348 42.46 33.2348 41.844C33.2348 41.228 33.3668 40.676 33.6308 40.188C33.9028 39.7 34.2708 39.32 34.7348 39.048C35.2068 38.776 35.7348 38.64 36.3188 38.64C36.9028 38.64 37.4268 38.776 37.8908 39.048C38.3548 39.32 38.7188 39.7 38.9828 40.188C39.2468 40.668 39.3788 41.22 39.3788 41.844L39.3668 42.108ZM36.3188 39.372C35.7108 39.372 35.1988 39.568 34.7828 39.96C34.3748 40.344 34.1428 40.848 34.0868 41.472H38.5628C38.5068 40.848 38.2708 40.344 37.8548 39.96C37.4468 39.568 36.9348 39.372 36.3188 39.372ZM44.215 38.64C44.807 38.64 45.343 38.776 45.823 39.048C46.303 39.312 46.679 39.688 46.951 40.176C47.223 40.664 47.359 41.22 47.359 41.844C47.359 42.468 47.223 43.024 46.951 43.512C46.679 44 46.303 44.38 45.823 44.652C45.343 44.924 44.807 45.06 44.215 45.06C43.687 45.06 43.211 44.948 42.787 44.724C42.371 44.5 42.035 44.176 41.779 43.752V45H40.963V36.096H41.815V39.888C42.079 39.48 42.415 39.172 42.823 38.964C43.239 38.748 43.703 38.64 44.215 38.64ZM44.155 44.304C44.595 44.304 44.995 44.204 45.355 44.004C45.715 43.796 45.995 43.504 46.195 43.128C46.403 42.752 46.507 42.324 46.507 41.844C46.507 41.364 46.403 40.936 46.195 40.56C45.995 40.184 45.715 39.896 45.355 39.696C44.995 39.488 44.595 39.384 44.155 39.384C43.707 39.384 43.303 39.488 42.943 39.696C42.591 39.896 42.311 40.184 42.103 40.56C41.903 40.936 41.803 41.364 41.803 41.844C41.803 42.324 41.903 42.752 42.103 43.128C42.311 43.504 42.591 43.796 42.943 44.004C43.303 44.204 43.707 44.304 44.155 44.304ZM48.9458 38.688H49.7978V45H48.9458V38.688ZM49.3778 37.308C49.2018 37.308 49.0538 37.248 48.9338 37.128C48.8138 37.008 48.7538 36.864 48.7538 36.696C48.7538 36.536 48.8138 36.396 48.9338 36.276C49.0538 36.156 49.2018 36.096 49.3778 36.096C49.5538 36.096 49.7018 36.156 49.8218 36.276C49.9418 36.388 50.0018 36.524 50.0018 36.684C50.0018 36.86 49.9418 37.008 49.8218 37.128C49.7018 37.248 49.5538 37.308 49.3778 37.308ZM55.2345 38.64C56.0265 38.64 56.6545 38.872 57.1185 39.336C57.5905 39.792 57.8265 40.46 57.8265 41.34V45H56.9745V41.424C56.9745 40.768 56.8105 40.268 56.4825 39.924C56.1545 39.58 55.6865 39.408 55.0785 39.408C54.3985 39.408 53.8585 39.612 53.4585 40.02C53.0665 40.42 52.8705 40.976 52.8705 41.688V45H52.0185V36.096H52.8705V39.792C53.1025 39.424 53.4225 39.14 53.8305 38.94C54.2385 38.74 54.7065 38.64 55.2345 38.64ZM62.9802 36.096H63.8322V45H62.9802V36.096ZM68.2608 38.64C69.0848 38.64 69.7168 38.848 70.1568 39.264C70.5968 39.672 70.8168 40.28 70.8168 41.088V45H70.0008V44.016C69.8088 44.344 69.5248 44.6 69.1488 44.784C68.7808 44.968 68.3408 45.06 67.8288 45.06C67.1248 45.06 66.5648 44.892 66.1488 44.556C65.7328 44.22 65.5248 43.776 65.5248 43.224C65.5248 42.688 65.7168 42.256 66.1008 41.928C66.4928 41.6 67.1128 41.436 67.9608 41.436H69.9648V41.052C69.9648 40.508 69.8128 40.096 69.5088 39.816C69.2048 39.528 68.7608 39.384 68.1768 39.384C67.7768 39.384 67.3928 39.452 67.0248 39.588C66.6568 39.716 66.3408 39.896 66.0768 40.128L65.6928 39.492C66.0128 39.22 66.3968 39.012 66.8448 38.868C67.2928 38.716 67.7648 38.64 68.2608 38.64ZM67.9608 44.388C68.4408 44.388 68.8528 44.28 69.1968 44.064C69.5408 43.84 69.7968 43.52 69.9648 43.104V42.072H67.9848C66.9048 42.072 66.3648 42.448 66.3648 43.2C66.3648 43.568 66.5048 43.86 66.7848 44.076C67.0648 44.284 67.4568 44.388 67.9608 44.388ZM76.197 38.64C76.989 38.64 77.617 38.872 78.081 39.336C78.553 39.792 78.789 40.46 78.789 41.34V45H77.937V41.424C77.937 40.768 77.773 40.268 77.445 39.924C77.117 39.58 76.649 39.408 76.041 39.408C75.361 39.408 74.821 39.612 74.421 40.02C74.029 40.42 73.833 40.976 73.833 41.688V45H72.981V38.688H73.797V39.852C74.029 39.468 74.349 39.172 74.757 38.964C75.173 38.748 75.653 38.64 76.197 38.64ZM80.0161 47.388C79.7521 47.388 79.5041 47.352 79.2721 47.28C79.0321 47.216 78.8361 47.116 78.6841 46.98L78.9841 46.332C79.2321 46.548 79.5601 46.656 79.9681 46.656C80.3041 46.656 80.5601 46.556 80.7361 46.356C80.9201 46.156 81.0121 45.86 81.0121 45.468V38.688H81.8641V45.468C81.8641 46.06 81.7041 46.528 81.3841 46.872C81.0641 47.216 80.6081 47.388 80.0161 47.388ZM81.4441 37.296C81.2681 37.296 81.1201 37.236 81.0001 37.116C80.8801 36.996 80.8201 36.852 80.8201 36.684C80.8201 36.524 80.8801 36.384 81.0001 36.264C81.1201 36.144 81.2681 36.084 81.4441 36.084C81.6201 36.084 81.7681 36.144 81.8881 36.264C82.0081 36.376 82.0681 36.512 82.0681 36.672C82.0681 36.848 82.0081 36.996 81.8881 37.116C81.7681 37.236 81.6201 37.296 81.4441 37.296ZM89.783 38.688V45H88.967V43.848C88.743 44.232 88.435 44.532 88.043 44.748C87.651 44.956 87.203 45.06 86.699 45.06C85.875 45.06 85.223 44.832 84.743 44.376C84.271 43.912 84.035 43.236 84.035 42.348V38.688H84.887V42.264C84.887 42.928 85.051 43.432 85.379 43.776C85.707 44.12 86.175 44.292 86.783 44.292C87.447 44.292 87.971 44.092 88.355 43.692C88.739 43.284 88.931 42.72 88.931 42V38.688H89.783ZM95.3432 44.616C95.1832 44.76 94.9832 44.872 94.7432 44.952C94.5112 45.024 94.2672 45.06 94.0112 45.06C93.4192 45.06 92.9632 44.9 92.6432 44.58C92.3232 44.26 92.1632 43.808 92.1632 43.224V39.408H91.0352V38.688H92.1632V37.308H93.0152V38.688H94.9352V39.408H93.0152V43.176C93.0152 43.552 93.1072 43.84 93.2912 44.04C93.4832 44.232 93.7552 44.328 94.1072 44.328C94.2832 44.328 94.4512 44.3 94.6112 44.244C94.7792 44.188 94.9232 44.108 95.0432 44.004L95.3432 44.616ZM101.943 38.64C102.767 38.64 103.399 38.848 103.839 39.264C104.279 39.672 104.499 40.28 104.499 41.088V45H103.683V44.016C103.491 44.344 103.207 44.6 102.831 44.784C102.463 44.968 102.023 45.06 101.511 45.06C100.807 45.06 100.247 44.892 99.8309 44.556C99.4149 44.22 99.2069 43.776 99.2069 43.224C99.2069 42.688 99.3989 42.256 99.7829 41.928C100.175 41.6 100.795 41.436 101.643 41.436H103.647V41.052C103.647 40.508 103.495 40.096 103.191 39.816C102.887 39.528 102.443 39.384 101.859 39.384C101.459 39.384 101.075 39.452 100.707 39.588C100.339 39.716 100.023 39.896 99.7589 40.128L99.3749 39.492C99.6949 39.22 100.079 39.012 100.527 38.868C100.975 38.716 101.447 38.64 101.943 38.64ZM101.643 44.388C102.123 44.388 102.535 44.28 102.879 44.064C103.223 43.84 103.479 43.52 103.647 43.104V42.072H101.667C100.587 42.072 100.047 42.448 100.047 43.2C100.047 43.568 100.187 43.86 100.467 44.076C100.747 44.284 101.139 44.388 101.643 44.388ZM109.003 41.832L107.515 43.2V45H106.663V36.096H107.515V42.132L111.283 38.688H112.339L109.639 41.268L112.591 45H111.547L109.003 41.832ZM115.811 38.64C116.635 38.64 117.267 38.848 117.707 39.264C118.147 39.672 118.367 40.28 118.367 41.088V45H117.551V44.016C117.359 44.344 117.075 44.6 116.699 44.784C116.331 44.968 115.891 45.06 115.379 45.06C114.675 45.06 114.115 44.892 113.699 44.556C113.283 44.22 113.075 43.776 113.075 43.224C113.075 42.688 113.267 42.256 113.651 41.928C114.043 41.6 114.663 41.436 115.511 41.436H117.515V41.052C117.515 40.508 117.363 40.096 117.059 39.816C116.755 39.528 116.311 39.384 115.727 39.384C115.327 39.384 114.943 39.452 114.575 39.588C114.207 39.716 113.891 39.896 113.627 40.128L113.243 39.492C113.563 39.22 113.947 39.012 114.395 38.868C114.843 38.716 115.315 38.64 115.811 38.64ZM115.511 44.388C115.991 44.388 116.403 44.28 116.747 44.064C117.091 43.84 117.347 43.52 117.515 43.104V42.072H115.535C114.455 42.072 113.915 42.448 113.915 43.2C113.915 43.568 114.055 43.86 114.335 44.076C114.615 44.284 115.007 44.388 115.511 44.388ZM123.747 38.64C124.539 38.64 125.167 38.872 125.631 39.336C126.103 39.792 126.339 40.46 126.339 41.34V45H125.487V41.424C125.487 40.768 125.323 40.268 124.995 39.924C124.667 39.58 124.199 39.408 123.591 39.408C122.911 39.408 122.371 39.612 121.971 40.02C121.579 40.42 121.383 40.976 121.383 41.688V45H120.531V38.688H121.347V39.852C121.579 39.468 121.899 39.172 122.307 38.964C122.723 38.748 123.203 38.64 123.747 38.64ZM133.833 41.832L132.345 43.2V45H131.493V36.096H132.345V42.132L136.113 38.688H137.169L134.469 41.268L137.421 45H136.377L133.833 41.832ZM140.641 38.64C141.465 38.64 142.097 38.848 142.537 39.264C142.977 39.672 143.197 40.28 143.197 41.088V45H142.381V44.016C142.189 44.344 141.905 44.6 141.529 44.784C141.161 44.968 140.721 45.06 140.209 45.06C139.505 45.06 138.945 44.892 138.529 44.556C138.113 44.22 137.905 43.776 137.905 43.224C137.905 42.688 138.097 42.256 138.481 41.928C138.873 41.6 139.493 41.436 140.341 41.436H142.345V41.052C142.345 40.508 142.193 40.096 141.889 39.816C141.585 39.528 141.141 39.384 140.557 39.384C140.157 39.384 139.773 39.452 139.405 39.588C139.037 39.716 138.721 39.896 138.457 40.128L138.073 39.492C138.393 39.22 138.777 39.012 139.225 38.868C139.673 38.716 140.145 38.64 140.641 38.64ZM140.341 44.388C140.821 44.388 141.233 44.28 141.577 44.064C141.921 43.84 142.177 43.52 142.345 43.104V42.072H140.365C139.285 42.072 138.745 42.448 138.745 43.2C138.745 43.568 138.885 43.86 139.165 44.076C139.445 44.284 139.837 44.388 140.341 44.388ZM153.233 38.64C154.025 38.64 154.645 38.868 155.093 39.324C155.549 39.78 155.777 40.452 155.777 41.34V45H154.925V41.424C154.925 40.768 154.765 40.268 154.445 39.924C154.133 39.58 153.689 39.408 153.113 39.408C152.457 39.408 151.941 39.612 151.565 40.02C151.189 40.42 151.001 40.976 151.001 41.688V45H150.149V41.424C150.149 40.768 149.989 40.268 149.669 39.924C149.357 39.58 148.909 39.408 148.325 39.408C147.677 39.408 147.161 39.612 146.777 40.02C146.401 40.42 146.213 40.976 146.213 41.688V45H145.361V38.688H146.177V39.84C146.401 39.456 146.713 39.16 147.113 38.952C147.513 38.744 147.973 38.64 148.493 38.64C149.021 38.64 149.477 38.752 149.861 38.976C150.253 39.2 150.545 39.532 150.737 39.972C150.969 39.556 151.301 39.232 151.733 39C152.173 38.76 152.673 38.64 153.233 38.64ZM157.937 38.688H158.789V45H157.937V38.688ZM158.369 37.308C158.193 37.308 158.045 37.248 157.925 37.128C157.805 37.008 157.745 36.864 157.745 36.696C157.745 36.536 157.805 36.396 157.925 36.276C158.045 36.156 158.193 36.096 158.369 36.096C158.545 36.096 158.693 36.156 158.813 36.276C158.933 36.388 158.993 36.524 158.993 36.684C158.993 36.86 158.933 37.008 158.813 37.128C158.693 37.248 158.545 37.308 158.369 37.308ZM166.34 41.832L164.853 43.2V45H164.001V36.096H164.853V42.132L168.621 38.688H169.677L166.977 41.268L169.929 45H168.885L166.34 41.832ZM170.964 38.688H171.816V45H170.964V38.688ZM171.396 37.308C171.22 37.308 171.072 37.248 170.952 37.128C170.832 37.008 170.772 36.864 170.772 36.696C170.772 36.536 170.832 36.396 170.952 36.276C171.072 36.156 171.22 36.096 171.396 36.096C171.572 36.096 171.72 36.156 171.84 36.276C171.96 36.388 172.02 36.524 172.02 36.684C172.02 36.86 171.96 37.008 171.84 37.128C171.72 37.248 171.572 37.308 171.396 37.308ZM174.852 39.924C175.052 39.5 175.348 39.18 175.74 38.964C176.14 38.748 176.632 38.64 177.216 38.64V39.468L177.012 39.456C176.348 39.456 175.828 39.66 175.452 40.068C175.076 40.476 174.888 41.048 174.888 41.784V45H174.036V38.688H174.852V39.924ZM178.609 38.688H179.461V45H178.609V38.688ZM179.041 37.308C178.865 37.308 178.717 37.248 178.597 37.128C178.477 37.008 178.417 36.864 178.417 36.696C178.417 36.536 178.477 36.396 178.597 36.276C178.717 36.156 178.865 36.096 179.041 36.096C179.217 36.096 179.365 36.156 179.485 36.276C179.605 36.388 179.665 36.524 179.665 36.684C179.665 36.86 179.605 37.008 179.485 37.128C179.365 37.248 179.217 37.308 179.041 37.308ZM189.554 38.64C190.346 38.64 190.966 38.868 191.414 39.324C191.87 39.78 192.098 40.452 192.098 41.34V45H191.246V41.424C191.246 40.768 191.086 40.268 190.766 39.924C190.454 39.58 190.01 39.408 189.434 39.408C188.778 39.408 188.262 39.612 187.886 40.02C187.51 40.42 187.322 40.976 187.322 41.688V45H186.47V41.424C186.47 40.768 186.31 40.268 185.99 39.924C185.678 39.58 185.23 39.408 184.646 39.408C183.998 39.408 183.482 39.612 183.098 40.02C182.722 40.42 182.534 40.976 182.534 41.688V45H181.682V38.688H182.498V39.84C182.722 39.456 183.034 39.16 183.434 38.952C183.834 38.744 184.294 38.64 184.814 38.64C185.342 38.64 185.798 38.752 186.182 38.976C186.574 39.2 186.866 39.532 187.058 39.972C187.29 39.556 187.622 39.232 188.054 39C188.494 38.76 188.994 38.64 189.554 38.64ZM196.598 41.832L195.11 43.2V45H194.258V36.096H195.11V42.132L198.878 38.688H199.934L197.234 41.268L200.186 45H199.142L196.598 41.832ZM203.406 38.64C204.23 38.64 204.862 38.848 205.302 39.264C205.742 39.672 205.962 40.28 205.962 41.088V45H205.146V44.016C204.954 44.344 204.67 44.6 204.294 44.784C203.926 44.968 203.486 45.06 202.974 45.06C202.27 45.06 201.71 44.892 201.294 44.556C200.878 44.22 200.67 43.776 200.67 43.224C200.67 42.688 200.862 42.256 201.246 41.928C201.638 41.6 202.258 41.436 203.106 41.436H205.11V41.052C205.11 40.508 204.958 40.096 204.654 39.816C204.35 39.528 203.906 39.384 203.322 39.384C202.922 39.384 202.538 39.452 202.17 39.588C201.802 39.716 201.486 39.896 201.222 40.128L200.838 39.492C201.158 39.22 201.542 39.012 201.99 38.868C202.438 38.716 202.91 38.64 203.406 38.64ZM203.106 44.388C203.586 44.388 203.998 44.28 204.342 44.064C204.686 43.84 204.942 43.52 205.11 43.104V42.072H203.13C202.05 42.072 201.51 42.448 201.51 43.2C201.51 43.568 201.65 43.86 201.93 44.076C202.21 44.284 202.602 44.388 203.106 44.388ZM211.342 38.64C212.134 38.64 212.762 38.872 213.226 39.336C213.698 39.792 213.934 40.46 213.934 41.34V45H213.082V41.424C213.082 40.768 212.918 40.268 212.59 39.924C212.262 39.58 211.794 39.408 211.186 39.408C210.506 39.408 209.966 39.612 209.566 40.02C209.174 40.42 208.978 40.976 208.978 41.688V45H208.126V38.688H208.942V39.852C209.174 39.468 209.494 39.172 209.902 38.964C210.318 38.748 210.798 38.64 211.342 38.64ZM226.96 38.64C227.752 38.64 228.372 38.868 228.82 39.324C229.276 39.78 229.504 40.452 229.504 41.34V45H228.652V41.424C228.652 40.768 228.492 40.268 228.172 39.924C227.86 39.58 227.416 39.408 226.84 39.408C226.184 39.408 225.668 39.612 225.292 40.02C224.916 40.42 224.728 40.976 224.728 41.688V45H223.876V41.424C223.876 40.768 223.716 40.268 223.396 39.924C223.084 39.58 222.636 39.408 222.052 39.408C221.404 39.408 220.888 39.612 220.504 40.02C220.128 40.42 219.94 40.976 219.94 41.688V45H219.088V38.688H219.904V39.84C220.128 39.456 220.44 39.16 220.84 38.952C221.24 38.744 221.7 38.64 222.22 38.64C222.748 38.64 223.204 38.752 223.588 38.976C223.98 39.2 224.272 39.532 224.464 39.972C224.696 39.556 225.028 39.232 225.46 39C225.9 38.76 226.4 38.64 226.96 38.64ZM237.184 42.108H231.904C231.952 42.764 232.204 43.296 232.66 43.704C233.116 44.104 233.692 44.304 234.388 44.304C234.78 44.304 235.14 44.236 235.468 44.1C235.796 43.956 236.08 43.748 236.32 43.476L236.8 44.028C236.52 44.364 236.168 44.62 235.744 44.796C235.328 44.972 234.868 45.06 234.364 45.06C233.716 45.06 233.14 44.924 232.636 44.652C232.14 44.372 231.752 43.988 231.472 43.5C231.192 43.012 231.052 42.46 231.052 41.844C231.052 41.228 231.184 40.676 231.448 40.188C231.72 39.7 232.088 39.32 232.552 39.048C233.024 38.776 233.552 38.64 234.136 38.64C234.72 38.64 235.244 38.776 235.708 39.048C236.172 39.32 236.536 39.7 236.8 40.188C237.064 40.668 237.196 41.22 237.196 41.844L237.184 42.108ZM234.136 39.372C233.528 39.372 233.016 39.568 232.6 39.96C232.192 40.344 231.96 40.848 231.904 41.472H236.38C236.324 40.848 236.088 40.344 235.672 39.96C235.264 39.568 234.752 39.372 234.136 39.372ZM238.78 36.096H239.632V45H238.78V36.096ZM244.061 38.64C244.885 38.64 245.517 38.848 245.957 39.264C246.397 39.672 246.617 40.28 246.617 41.088V45H245.801V44.016C245.609 44.344 245.325 44.6 244.949 44.784C244.581 44.968 244.141 45.06 243.629 45.06C242.925 45.06 242.365 44.892 241.949 44.556C241.533 44.22 241.325 43.776 241.325 43.224C241.325 42.688 241.517 42.256 241.901 41.928C242.293 41.6 242.913 41.436 243.761 41.436H245.765V41.052C245.765 40.508 245.613 40.096 245.309 39.816C245.005 39.528 244.561 39.384 243.977 39.384C243.577 39.384 243.193 39.452 242.825 39.588C242.457 39.716 242.141 39.896 241.877 40.128L241.493 39.492C241.813 39.22 242.197 39.012 242.645 38.868C243.093 38.716 243.565 38.64 244.061 38.64ZM243.761 44.388C244.241 44.388 244.653 44.28 244.997 44.064C245.341 43.84 245.597 43.52 245.765 43.104V42.072H243.785C242.705 42.072 242.165 42.448 242.165 43.2C242.165 43.568 242.305 43.86 242.585 44.076C242.865 44.284 243.257 44.388 243.761 44.388ZM248.781 36.096H249.633V45H248.781V36.096ZM257.542 38.688V45H256.726V43.848C256.502 44.232 256.194 44.532 255.802 44.748C255.41 44.956 254.962 45.06 254.458 45.06C253.634 45.06 252.982 44.832 252.502 44.376C252.03 43.912 251.794 43.236 251.794 42.348V38.688H252.646V42.264C252.646 42.928 252.81 43.432 253.138 43.776C253.466 44.12 253.934 44.292 254.542 44.292C255.206 44.292 255.73 44.092 256.114 43.692C256.498 43.284 256.69 42.72 256.69 42V38.688H257.542ZM259.778 38.688H260.63V45H259.778V38.688ZM260.21 37.308C260.034 37.308 259.886 37.248 259.766 37.128C259.646 37.008 259.586 36.864 259.586 36.696C259.586 36.536 259.646 36.396 259.766 36.276C259.886 36.156 260.034 36.096 260.21 36.096C260.386 36.096 260.534 36.156 260.654 36.276C260.774 36.388 260.834 36.524 260.834 36.684C260.834 36.86 260.774 37.008 260.654 37.128C260.534 37.248 260.386 37.308 260.21 37.308ZM271.337 42.108H266.057C266.105 42.764 266.357 43.296 266.813 43.704C267.269 44.104 267.845 44.304 268.541 44.304C268.933 44.304 269.293 44.236 269.621 44.1C269.949 43.956 270.233 43.748 270.473 43.476L270.953 44.028C270.673 44.364 270.321 44.62 269.897 44.796C269.481 44.972 269.021 45.06 268.517 45.06C267.869 45.06 267.293 44.924 266.789 44.652C266.293 44.372 265.905 43.988 265.625 43.5C265.345 43.012 265.205 42.46 265.205 41.844C265.205 41.228 265.337 40.676 265.601 40.188C265.873 39.7 266.241 39.32 266.705 39.048C267.177 38.776 267.705 38.64 268.289 38.64C268.873 38.64 269.397 38.776 269.861 39.048C270.325 39.32 270.689 39.7 270.953 40.188C271.217 40.668 271.349 41.22 271.349 41.844L271.337 42.108ZM268.289 39.372C267.681 39.372 267.169 39.568 266.753 39.96C266.345 40.344 266.113 40.848 266.057 41.472H270.533C270.477 40.848 270.241 40.344 269.825 39.96C269.417 39.568 268.905 39.372 268.289 39.372ZM272.582 41.376H275.726V42.12H272.582V41.376ZM285.355 38.64C286.147 38.64 286.767 38.868 287.215 39.324C287.671 39.78 287.899 40.452 287.899 41.34V45H287.047V41.424C287.047 40.768 286.887 40.268 286.567 39.924C286.255 39.58 285.811 39.408 285.235 39.408C284.579 39.408 284.063 39.612 283.687 40.02C283.311 40.42 283.123 40.976 283.123 41.688V45H282.271V41.424C282.271 40.768 282.111 40.268 281.791 39.924C281.479 39.58 281.031 39.408 280.447 39.408C279.799 39.408 279.283 39.612 278.899 40.02C278.523 40.42 278.335 40.976 278.335 41.688V45H277.483V38.688H278.299V39.84C278.523 39.456 278.835 39.16 279.235 38.952C279.635 38.744 280.095 38.64 280.615 38.64C281.143 38.64 281.599 38.752 281.983 38.976C282.375 39.2 282.667 39.532 282.859 39.972C283.091 39.556 283.423 39.232 283.855 39C284.295 38.76 284.795 38.64 285.355 38.64ZM292.267 38.64C293.091 38.64 293.723 38.848 294.163 39.264C294.603 39.672 294.823 40.28 294.823 41.088V45H294.007V44.016C293.815 44.344 293.531 44.6 293.155 44.784C292.787 44.968 292.347 45.06 291.835 45.06C291.131 45.06 290.571 44.892 290.155 44.556C289.739 44.22 289.531 43.776 289.531 43.224C289.531 42.688 289.723 42.256 290.107 41.928C290.499 41.6 291.119 41.436 291.967 41.436H293.971V41.052C293.971 40.508 293.819 40.096 293.515 39.816C293.211 39.528 292.767 39.384 292.183 39.384C291.783 39.384 291.399 39.452 291.031 39.588C290.663 39.716 290.347 39.896 290.083 40.128L289.699 39.492C290.019 39.22 290.403 39.012 290.851 38.868C291.299 38.716 291.771 38.64 292.267 38.64ZM291.967 44.388C292.447 44.388 292.859 44.28 293.203 44.064C293.547 43.84 293.803 43.52 293.971 43.104V42.072H291.991C290.911 42.072 290.371 42.448 290.371 43.2C290.371 43.568 290.511 43.86 290.791 44.076C291.071 44.284 291.463 44.388 291.967 44.388ZM296.987 38.688H297.839V45H296.987V38.688ZM297.419 37.308C297.243 37.308 297.095 37.248 296.975 37.128C296.855 37.008 296.795 36.864 296.795 36.696C296.795 36.536 296.855 36.396 296.975 36.276C297.095 36.156 297.243 36.096 297.419 36.096C297.595 36.096 297.743 36.156 297.863 36.276C297.983 36.388 298.043 36.524 298.043 36.684C298.043 36.86 297.983 37.008 297.863 37.128C297.743 37.248 297.595 37.308 297.419 37.308ZM300.06 36.096H300.912V45H300.06V36.096ZM64.2871 54.096V63H63.4711V61.752C63.2151 62.176 62.8751 62.5 62.4511 62.724C62.0351 62.948 61.5631 63.06 61.0351 63.06C60.4431 63.06 59.9071 62.924 59.4271 62.652C58.9471 62.38 58.5711 62 58.2991 61.512C58.0271 61.024 57.8911 60.468 57.8911 59.844C57.8911 59.22 58.0271 58.664 58.2991 58.176C58.5711 57.688 58.9471 57.312 59.4271 57.048C59.9071 56.776 60.4431 56.64 61.0351 56.64C61.5471 56.64 62.0071 56.748 62.4151 56.964C62.8311 57.172 63.1711 57.48 63.4351 57.888V54.096H64.2871ZM61.1071 62.304C61.5471 62.304 61.9431 62.204 62.2951 62.004C62.6551 61.796 62.9351 61.504 63.1351 61.128C63.3431 60.752 63.4471 60.324 63.4471 59.844C63.4471 59.364 63.3431 58.936 63.1351 58.56C62.9351 58.184 62.6551 57.896 62.2951 57.696C61.9431 57.488 61.5471 57.384 61.1071 57.384C60.6591 57.384 60.2551 57.488 59.8951 57.696C59.5431 57.896 59.2631 58.184 59.0551 58.56C58.8551 58.936 58.7551 59.364 58.7551 59.844C58.7551 60.324 58.8551 60.752 59.0551 61.128C59.2631 61.504 59.5431 61.796 59.8951 62.004C60.2551 62.204 60.6591 62.304 61.1071 62.304ZM68.7179 56.64C69.5419 56.64 70.1739 56.848 70.6139 57.264C71.0539 57.672 71.2739 58.28 71.2739 59.088V63H70.4579V62.016C70.2659 62.344 69.9819 62.6 69.6059 62.784C69.2379 62.968 68.7979 63.06 68.2859 63.06C67.5819 63.06 67.0219 62.892 66.6059 62.556C66.1899 62.22 65.9819 61.776 65.9819 61.224C65.9819 60.688 66.1739 60.256 66.5579 59.928C66.9499 59.6 67.5699 59.436 68.4179 59.436H70.4219V59.052C70.4219 58.508 70.2699 58.096 69.9659 57.816C69.6619 57.528 69.2179 57.384 68.6339 57.384C68.2339 57.384 67.8499 57.452 67.4819 57.588C67.1139 57.716 66.7979 57.896 66.5339 58.128L66.1499 57.492C66.4699 57.22 66.8539 57.012 67.3019 56.868C67.7499 56.716 68.2219 56.64 68.7179 56.64ZM68.4179 62.388C68.8979 62.388 69.3099 62.28 69.6539 62.064C69.9979 61.84 70.2539 61.52 70.4219 61.104V60.072H68.4419C67.3619 60.072 66.8219 60.448 66.8219 61.2C66.8219 61.568 66.9619 61.86 67.2419 62.076C67.5219 62.284 67.9139 62.388 68.4179 62.388ZM76.654 56.64C77.446 56.64 78.074 56.872 78.538 57.336C79.01 57.792 79.246 58.46 79.246 59.34V63H78.394V59.424C78.394 58.768 78.23 58.268 77.902 57.924C77.574 57.58 77.106 57.408 76.498 57.408C75.818 57.408 75.278 57.612 74.878 58.02C74.486 58.42 74.29 58.976 74.29 59.688V63H73.438V56.688H74.254V57.852C74.486 57.468 74.806 57.172 75.214 56.964C75.63 56.748 76.11 56.64 76.654 56.64ZM87.6157 56.64C88.4077 56.64 89.0357 56.872 89.4997 57.336C89.9717 57.792 90.2077 58.46 90.2077 59.34V63H89.3557V59.424C89.3557 58.768 89.1917 58.268 88.8637 57.924C88.5357 57.58 88.0677 57.408 87.4597 57.408C86.7797 57.408 86.2397 57.612 85.8397 58.02C85.4477 58.42 85.2517 58.976 85.2517 59.688V63H84.3997V56.688H85.2157V57.852C85.4477 57.468 85.7677 57.172 86.1757 56.964C86.5917 56.748 87.0717 56.64 87.6157 56.64ZM94.9743 63.06C94.3663 63.06 93.8183 62.924 93.3303 62.652C92.8423 62.372 92.4583 61.988 92.1783 61.5C91.8983 61.012 91.7583 60.46 91.7583 59.844C91.7583 59.228 91.8983 58.676 92.1783 58.188C92.4583 57.7 92.8423 57.32 93.3303 57.048C93.8183 56.776 94.3663 56.64 94.9743 56.64C95.5823 56.64 96.1303 56.776 96.6183 57.048C97.1063 57.32 97.4863 57.7 97.7583 58.188C98.0383 58.676 98.1783 59.228 98.1783 59.844C98.1783 60.46 98.0383 61.012 97.7583 61.5C97.4863 61.988 97.1063 62.372 96.6183 62.652C96.1303 62.924 95.5823 63.06 94.9743 63.06ZM94.9743 62.304C95.4223 62.304 95.8223 62.204 96.1743 62.004C96.5343 61.796 96.8143 61.504 97.0143 61.128C97.2143 60.752 97.3143 60.324 97.3143 59.844C97.3143 59.364 97.2143 58.936 97.0143 58.56C96.8143 58.184 96.5343 57.896 96.1743 57.696C95.8223 57.488 95.4223 57.384 94.9743 57.384C94.5263 57.384 94.1223 57.488 93.7623 57.696C93.4103 57.896 93.1303 58.184 92.9223 58.56C92.7223 58.936 92.6223 59.364 92.6223 59.844C92.6223 60.324 92.7223 60.752 92.9223 61.128C93.1303 61.504 93.4103 61.796 93.7623 62.004C94.1223 62.204 94.5263 62.304 94.9743 62.304ZM107.64 56.64C108.432 56.64 109.052 56.868 109.5 57.324C109.956 57.78 110.184 58.452 110.184 59.34V63H109.332V59.424C109.332 58.768 109.172 58.268 108.852 57.924C108.54 57.58 108.096 57.408 107.52 57.408C106.864 57.408 106.348 57.612 105.972 58.02C105.596 58.42 105.408 58.976 105.408 59.688V63H104.556V59.424C104.556 58.768 104.396 58.268 104.076 57.924C103.764 57.58 103.316 57.408 102.732 57.408C102.084 57.408 101.568 57.612 101.184 58.02C100.808 58.42 100.62 58.976 100.62 59.688V63H99.7677V56.688H100.584V57.84C100.808 57.456 101.12 57.16 101.52 56.952C101.92 56.744 102.38 56.64 102.9 56.64C103.428 56.64 103.884 56.752 104.268 56.976C104.66 57.2 104.952 57.532 105.144 57.972C105.376 57.556 105.708 57.232 106.14 57C106.58 56.76 107.08 56.64 107.64 56.64ZM114.948 63.06C114.34 63.06 113.792 62.924 113.304 62.652C112.816 62.372 112.432 61.988 112.152 61.5C111.872 61.012 111.732 60.46 111.732 59.844C111.732 59.228 111.872 58.676 112.152 58.188C112.432 57.7 112.816 57.32 113.304 57.048C113.792 56.776 114.34 56.64 114.948 56.64C115.556 56.64 116.104 56.776 116.592 57.048C117.08 57.32 117.46 57.7 117.732 58.188C118.012 58.676 118.152 59.228 118.152 59.844C118.152 60.46 118.012 61.012 117.732 61.5C117.46 61.988 117.08 62.372 116.592 62.652C116.104 62.924 115.556 63.06 114.948 63.06ZM114.948 62.304C115.396 62.304 115.796 62.204 116.148 62.004C116.508 61.796 116.788 61.504 116.988 61.128C117.188 60.752 117.288 60.324 117.288 59.844C117.288 59.364 117.188 58.936 116.988 58.56C116.788 58.184 116.508 57.896 116.148 57.696C115.796 57.488 115.396 57.384 114.948 57.384C114.5 57.384 114.096 57.488 113.736 57.696C113.384 57.896 113.104 58.184 112.896 58.56C112.696 58.936 112.596 59.364 112.596 59.844C112.596 60.324 112.696 60.752 112.896 61.128C113.104 61.504 113.384 61.796 113.736 62.004C114.096 62.204 114.5 62.304 114.948 62.304ZM120.557 57.924C120.757 57.5 121.053 57.18 121.445 56.964C121.845 56.748 122.337 56.64 122.921 56.64V57.468L122.717 57.456C122.053 57.456 121.533 57.66 121.157 58.068C120.781 58.476 120.593 59.048 120.593 59.784V63H119.741V56.688H120.557V57.924ZM134.598 54.6V63H133.722V59.124H128.466V63H127.578V54.6H128.466V58.344H133.722V54.6H134.598ZM140.334 54.6C141.406 54.6 142.246 54.856 142.854 55.368C143.462 55.88 143.766 56.584 143.766 57.48C143.766 58.376 143.462 59.08 142.854 59.592C142.246 60.096 141.406 60.348 140.334 60.348H138.078V63H137.19V54.6H140.334ZM140.31 59.568C141.142 59.568 141.778 59.388 142.218 59.028C142.658 58.66 142.878 58.144 142.878 57.48C142.878 56.8 142.658 56.28 142.218 55.92C141.778 55.552 141.142 55.368 140.31 55.368H138.078V59.568H140.31ZM153.768 56.688L150.612 63.756C150.356 64.348 150.06 64.768 149.724 65.016C149.388 65.264 148.984 65.388 148.512 65.388C148.208 65.388 147.924 65.34 147.66 65.244C147.396 65.148 147.168 65.004 146.976 64.812L147.372 64.176C147.692 64.496 148.076 64.656 148.524 64.656C148.812 64.656 149.056 64.576 149.256 64.416C149.464 64.256 149.656 63.984 149.832 63.6L150.108 62.988L147.288 56.688H148.176L150.552 62.052L152.928 56.688H153.768ZM156.838 56.64C157.662 56.64 158.294 56.848 158.734 57.264C159.174 57.672 159.394 58.28 159.394 59.088V63H158.578V62.016C158.386 62.344 158.102 62.6 157.726 62.784C157.358 62.968 156.918 63.06 156.406 63.06C155.702 63.06 155.142 62.892 154.726 62.556C154.31 62.22 154.102 61.776 154.102 61.224C154.102 60.688 154.294 60.256 154.678 59.928C155.07 59.6 155.69 59.436 156.538 59.436H158.542V59.052C158.542 58.508 158.39 58.096 158.086 57.816C157.782 57.528 157.338 57.384 156.754 57.384C156.354 57.384 155.97 57.452 155.602 57.588C155.234 57.716 154.918 57.896 154.654 58.128L154.27 57.492C154.59 57.22 154.974 57.012 155.422 56.868C155.87 56.716 156.342 56.64 156.838 56.64ZM156.538 62.388C157.018 62.388 157.43 62.28 157.774 62.064C158.118 61.84 158.374 61.52 158.542 61.104V60.072H156.562C155.482 60.072 154.942 60.448 154.942 61.2C154.942 61.568 155.082 61.86 155.362 62.076C155.642 62.284 156.034 62.388 156.538 62.388ZM164.774 56.64C165.566 56.64 166.194 56.872 166.658 57.336C167.13 57.792 167.366 58.46 167.366 59.34V63H166.514V59.424C166.514 58.768 166.35 58.268 166.022 57.924C165.694 57.58 165.226 57.408 164.618 57.408C163.938 57.408 163.398 57.612 162.998 58.02C162.606 58.42 162.41 58.976 162.41 59.688V63H161.558V56.688H162.374V57.852C162.606 57.468 162.926 57.172 163.334 56.964C163.75 56.748 164.23 56.64 164.774 56.64ZM175.397 56.688V62.232C175.397 63.304 175.133 64.096 174.605 64.608C174.085 65.128 173.297 65.388 172.241 65.388C171.657 65.388 171.101 65.3 170.573 65.124C170.053 64.956 169.629 64.72 169.301 64.416L169.733 63.768C170.037 64.04 170.405 64.252 170.837 64.404C171.277 64.556 171.737 64.632 172.217 64.632C173.017 64.632 173.605 64.444 173.981 64.068C174.357 63.7 174.545 63.124 174.545 62.34V61.536C174.281 61.936 173.933 62.24 173.501 62.448C173.077 62.656 172.605 62.76 172.085 62.76C171.493 62.76 170.953 62.632 170.465 62.376C169.985 62.112 169.605 61.748 169.325 61.284C169.053 60.812 168.917 60.28 168.917 59.688C168.917 59.096 169.053 58.568 169.325 58.104C169.605 57.64 169.985 57.28 170.465 57.024C170.945 56.768 171.485 56.64 172.085 56.64C172.621 56.64 173.105 56.748 173.537 56.964C173.969 57.18 174.317 57.492 174.581 57.9V56.688H175.397ZM172.169 62.004C172.625 62.004 173.037 61.908 173.405 61.716C173.773 61.516 174.057 61.24 174.257 60.888C174.465 60.536 174.569 60.136 174.569 59.688C174.569 59.24 174.465 58.844 174.257 58.5C174.057 58.148 173.773 57.876 173.405 57.684C173.045 57.484 172.633 57.384 172.169 57.384C171.713 57.384 171.301 57.48 170.933 57.672C170.573 57.864 170.289 58.136 170.081 58.488C169.881 58.84 169.781 59.24 169.781 59.688C169.781 60.136 169.881 60.536 170.081 60.888C170.289 61.24 170.573 61.516 170.933 61.716C171.301 61.908 171.713 62.004 172.169 62.004ZM183.944 62.616C183.784 62.76 183.584 62.872 183.344 62.952C183.112 63.024 182.868 63.06 182.612 63.06C182.02 63.06 181.564 62.9 181.244 62.58C180.924 62.26 180.764 61.808 180.764 61.224V57.408H179.636V56.688H180.764V55.308H181.616V56.688H183.536V57.408H181.616V61.176C181.616 61.552 181.708 61.84 181.892 62.04C182.084 62.232 182.356 62.328 182.708 62.328C182.884 62.328 183.052 62.3 183.212 62.244C183.38 62.188 183.524 62.108 183.644 62.004L183.944 62.616ZM190.618 60.108H185.338C185.386 60.764 185.638 61.296 186.094 61.704C186.55 62.104 187.126 62.304 187.822 62.304C188.214 62.304 188.574 62.236 188.902 62.1C189.23 61.956 189.514 61.748 189.754 61.476L190.234 62.028C189.954 62.364 189.602 62.62 189.178 62.796C188.762 62.972 188.302 63.06 187.798 63.06C187.15 63.06 186.574 62.924 186.07 62.652C185.574 62.372 185.186 61.988 184.906 61.5C184.626 61.012 184.486 60.46 184.486 59.844C184.486 59.228 184.618 58.676 184.882 58.188C185.154 57.7 185.522 57.32 185.986 57.048C186.458 56.776 186.986 56.64 187.57 56.64C188.154 56.64 188.678 56.776 189.142 57.048C189.606 57.32 189.97 57.7 190.234 58.188C190.498 58.668 190.63 59.22 190.63 59.844L190.618 60.108ZM187.57 57.372C186.962 57.372 186.45 57.568 186.034 57.96C185.626 58.344 185.394 58.848 185.338 59.472H189.814C189.758 58.848 189.522 58.344 189.106 57.96C188.698 57.568 188.186 57.372 187.57 57.372ZM193.031 57.924C193.231 57.5 193.527 57.18 193.919 56.964C194.319 56.748 194.811 56.64 195.395 56.64V57.468L195.191 57.456C194.527 57.456 194.007 57.66 193.631 58.068C193.255 58.476 193.067 59.048 193.067 59.784V63H192.215V56.688H193.031V57.924ZM202.225 60.108H196.945C196.993 60.764 197.245 61.296 197.701 61.704C198.157 62.104 198.733 62.304 199.429 62.304C199.821 62.304 200.181 62.236 200.509 62.1C200.837 61.956 201.121 61.748 201.361 61.476L201.841 62.028C201.561 62.364 201.209 62.62 200.785 62.796C200.369 62.972 199.909 63.06 199.405 63.06C198.757 63.06 198.181 62.924 197.677 62.652C197.181 62.372 196.793 61.988 196.513 61.5C196.233 61.012 196.093 60.46 196.093 59.844C196.093 59.228 196.225 58.676 196.489 58.188C196.761 57.7 197.129 57.32 197.593 57.048C198.065 56.776 198.593 56.64 199.177 56.64C199.761 56.64 200.285 56.776 200.749 57.048C201.213 57.32 201.577 57.7 201.841 58.188C202.105 58.668 202.237 59.22 202.237 59.844L202.225 60.108ZM199.177 57.372C198.569 57.372 198.057 57.568 197.641 57.96C197.233 58.344 197.001 58.848 196.945 59.472H201.421C201.365 58.848 201.129 58.344 200.713 57.96C200.305 57.568 199.793 57.372 199.177 57.372ZM209.665 56.688V62.232C209.665 63.304 209.401 64.096 208.873 64.608C208.353 65.128 207.565 65.388 206.509 65.388C205.925 65.388 205.369 65.3 204.841 65.124C204.321 64.956 203.897 64.72 203.569 64.416L204.001 63.768C204.305 64.04 204.673 64.252 205.105 64.404C205.545 64.556 206.005 64.632 206.485 64.632C207.285 64.632 207.873 64.444 208.249 64.068C208.625 63.7 208.813 63.124 208.813 62.34V61.536C208.549 61.936 208.201 62.24 207.769 62.448C207.345 62.656 206.873 62.76 206.353 62.76C205.761 62.76 205.221 62.632 204.733 62.376C204.253 62.112 203.873 61.748 203.593 61.284C203.321 60.812 203.185 60.28 203.185 59.688C203.185 59.096 203.321 58.568 203.593 58.104C203.873 57.64 204.253 57.28 204.733 57.024C205.213 56.768 205.753 56.64 206.353 56.64C206.889 56.64 207.373 56.748 207.805 56.964C208.237 57.18 208.585 57.492 208.849 57.9V56.688H209.665ZM206.437 62.004C206.893 62.004 207.305 61.908 207.673 61.716C208.041 61.516 208.325 61.24 208.525 60.888C208.733 60.536 208.837 60.136 208.837 59.688C208.837 59.24 208.733 58.844 208.525 58.5C208.325 58.148 208.041 57.876 207.673 57.684C207.313 57.484 206.901 57.384 206.437 57.384C205.981 57.384 205.569 57.48 205.201 57.672C204.841 57.864 204.557 58.136 204.349 58.488C204.149 58.84 204.049 59.24 204.049 59.688C204.049 60.136 204.149 60.536 204.349 60.888C204.557 61.24 204.841 61.516 205.201 61.716C205.569 61.908 205.981 62.004 206.437 62.004ZM211.897 56.688H212.749V63H211.897V56.688ZM212.329 55.308C212.153 55.308 212.005 55.248 211.885 55.128C211.765 55.008 211.705 54.864 211.705 54.696C211.705 54.536 211.765 54.396 211.885 54.276C212.005 54.156 212.153 54.096 212.329 54.096C212.505 54.096 212.653 54.156 212.773 54.276C212.893 54.388 212.953 54.524 212.953 54.684C212.953 54.86 212.893 55.008 212.773 55.128C212.653 55.248 212.505 55.308 212.329 55.308ZM216.662 63.06C216.15 63.06 215.658 62.988 215.186 62.844C214.722 62.692 214.358 62.504 214.094 62.28L214.478 61.608C214.742 61.816 215.074 61.988 215.474 62.124C215.874 62.252 216.29 62.316 216.722 62.316C217.298 62.316 217.722 62.228 217.994 62.052C218.274 61.868 218.414 61.612 218.414 61.284C218.414 61.052 218.338 60.872 218.186 60.744C218.034 60.608 217.842 60.508 217.61 60.444C217.378 60.372 217.07 60.304 216.686 60.24C216.174 60.144 215.762 60.048 215.45 59.952C215.138 59.848 214.87 59.676 214.646 59.436C214.43 59.196 214.322 58.864 214.322 58.44C214.322 57.912 214.542 57.48 214.982 57.144C215.422 56.808 216.034 56.64 216.818 56.64C217.226 56.64 217.634 56.696 218.042 56.808C218.45 56.912 218.786 57.052 219.05 57.228L218.678 57.912C218.158 57.552 217.538 57.372 216.818 57.372C216.274 57.372 215.862 57.468 215.582 57.66C215.31 57.852 215.174 58.104 215.174 58.416C215.174 58.656 215.25 58.848 215.402 58.992C215.562 59.136 215.758 59.244 215.99 59.316C216.222 59.38 216.542 59.448 216.95 59.52C217.454 59.616 217.858 59.712 218.162 59.808C218.466 59.904 218.726 60.068 218.942 60.3C219.158 60.532 219.266 60.852 219.266 61.26C219.266 61.812 219.034 62.252 218.57 62.58C218.114 62.9 217.478 63.06 216.662 63.06ZM224.015 62.616C223.855 62.76 223.655 62.872 223.415 62.952C223.183 63.024 222.939 63.06 222.683 63.06C222.091 63.06 221.635 62.9 221.315 62.58C220.995 62.26 220.835 61.808 220.835 61.224V57.408H219.707V56.688H220.835V55.308H221.687V56.688H223.607V57.408H221.687V61.176C221.687 61.552 221.779 61.84 221.963 62.04C222.155 62.232 222.427 62.328 222.779 62.328C222.955 62.328 223.123 62.3 223.283 62.244C223.451 62.188 223.595 62.108 223.715 62.004L224.015 62.616ZM226.232 57.924C226.432 57.5 226.728 57.18 227.12 56.964C227.52 56.748 228.012 56.64 228.596 56.64V57.468L228.392 57.456C227.728 57.456 227.208 57.66 226.832 58.068C226.456 58.476 226.268 59.048 226.268 59.784V63H225.416V56.688H226.232V57.924ZM232.185 56.64C233.009 56.64 233.641 56.848 234.081 57.264C234.521 57.672 234.741 58.28 234.741 59.088V63H233.925V62.016C233.733 62.344 233.449 62.6 233.073 62.784C232.705 62.968 232.265 63.06 231.753 63.06C231.049 63.06 230.489 62.892 230.073 62.556C229.657 62.22 229.449 61.776 229.449 61.224C229.449 60.688 229.641 60.256 230.025 59.928C230.417 59.6 231.037 59.436 231.885 59.436H233.889V59.052C233.889 58.508 233.737 58.096 233.433 57.816C233.129 57.528 232.685 57.384 232.101 57.384C231.701 57.384 231.317 57.452 230.949 57.588C230.581 57.716 230.265 57.896 230.001 58.128L229.617 57.492C229.937 57.22 230.321 57.012 230.769 56.868C231.217 56.716 231.689 56.64 232.185 56.64ZM231.885 62.388C232.365 62.388 232.777 62.28 233.121 62.064C233.465 61.84 233.721 61.52 233.889 61.104V60.072H231.909C230.829 60.072 230.289 60.448 230.289 61.2C230.289 61.568 230.429 61.86 230.709 62.076C230.989 62.284 231.381 62.388 231.885 62.388ZM238.597 63.06C238.085 63.06 237.593 62.988 237.121 62.844C236.657 62.692 236.293 62.504 236.029 62.28L236.413 61.608C236.677 61.816 237.009 61.988 237.409 62.124C237.809 62.252 238.225 62.316 238.657 62.316C239.233 62.316 239.657 62.228 239.929 62.052C240.209 61.868 240.349 61.612 240.349 61.284C240.349 61.052 240.273 60.872 240.121 60.744C239.969 60.608 239.777 60.508 239.545 60.444C239.313 60.372 239.005 60.304 238.621 60.24C238.109 60.144 237.697 60.048 237.385 59.952C237.073 59.848 236.805 59.676 236.581 59.436C236.365 59.196 236.257 58.864 236.257 58.44C236.257 57.912 236.477 57.48 236.917 57.144C237.357 56.808 237.969 56.64 238.753 56.64C239.161 56.64 239.569 56.696 239.977 56.808C240.385 56.912 240.721 57.052 240.985 57.228L240.613 57.912C240.093 57.552 239.473 57.372 238.753 57.372C238.209 57.372 237.797 57.468 237.517 57.66C237.245 57.852 237.109 58.104 237.109 58.416C237.109 58.656 237.185 58.848 237.337 58.992C237.497 59.136 237.693 59.244 237.925 59.316C238.157 59.38 238.477 59.448 238.885 59.52C239.389 59.616 239.793 59.712 240.097 59.808C240.401 59.904 240.661 60.068 240.877 60.3C241.093 60.532 241.201 60.852 241.201 61.26C241.201 61.812 240.969 62.252 240.505 62.58C240.049 62.9 239.413 63.06 238.597 63.06ZM242.626 56.688H243.478V63H242.626V56.688ZM243.058 55.308C242.882 55.308 242.734 55.248 242.614 55.128C242.494 55.008 242.434 54.864 242.434 54.696C242.434 54.536 242.494 54.396 242.614 54.276C242.734 54.156 242.882 54.096 243.058 54.096C243.234 54.096 243.382 54.156 243.502 54.276C243.622 54.388 243.682 54.524 243.682 54.684C243.682 54.86 243.622 55.008 243.502 55.128C243.382 55.248 243.234 55.308 243.058 55.308Z" fill="#333333"/>
</svg>