<svg width="19" height="11" viewBox="0 0 19 11" fill="none" xmlns="http://www.w3.org/2000/svg">
<path d="M1.77741 6.70817C1.69534 6.93222 1.52915 7.11544 1.31414 7.2189C1.09913 7.32236 0.852257 7.33791 0.625967 7.26224C0.399678 7.18657 0.21181 7.02565 0.102283 6.81367C-0.00724483 6.60168 -0.0298 6.35535 0.0394097 6.127C0.0210764 6.182 0.0394097 6.12517 0.0394097 6.12517C0.0720999 6.02425 0.110041 5.92512 0.153076 5.82817C0.22641 5.654 0.334576 5.41383 0.483076 5.12967C0.783743 4.56133 1.25674 3.80417 1.94974 3.047C3.35591 1.51617 5.65308 0 9.15841 0C12.6656 0 14.9627 1.51617 16.3652 3.047C17.114 3.86817 17.7212 4.80801 18.1619 5.82817C18.1986 5.91433 18.2261 5.984 18.2444 6.03533C18.2517 6.05 18.2701 6.14533 18.2884 6.237C18.3049 6.32133 18.3196 6.402 18.3251 6.41667C18.3251 6.41667 18.4791 7.02717 17.6981 7.28567C17.4681 7.36248 17.217 7.34502 16.9999 7.23713C16.7827 7.12924 16.6171 6.93969 16.5394 6.71V6.7045L16.5266 6.67517C16.4345 6.43965 16.3292 6.20951 16.2112 5.98583C15.8858 5.37088 15.4835 4.7998 15.0141 4.28633C13.8957 3.06717 12.0679 1.83333 9.15841 1.83333C6.24891 1.83333 4.42108 3.06717 3.30274 4.28633C2.69727 4.95013 2.20488 5.70883 1.84524 6.53217C1.826 6.57948 1.80766 6.62715 1.79024 6.67517L1.77741 6.70817Z" fill="#009CB2"/>
<path d="M5.4917 7.33366C5.4917 6.3612 5.87801 5.42857 6.56564 4.74093C7.25327 4.0533 8.18591 3.66699 9.15837 3.66699C10.1308 3.66699 11.0635 4.0533 11.7511 4.74093C12.4387 5.42857 12.825 6.3612 12.825 7.33366C12.825 8.30612 12.4387 9.23875 11.7511 9.92638C11.0635 10.614 10.1308 11.0003 9.15837 11.0003C8.18591 11.0003 7.25327 10.614 6.56564 9.92638C5.87801 9.23875 5.4917 8.30612 5.4917 7.33366Z" fill="#009CB2"/>
</svg>
