<svg width="18" height="22" viewBox="0 0 18 22" fill="none" xmlns="http://www.w3.org/2000/svg">
<mask id="mask0" mask-type="alpha" maskUnits="userSpaceOnUse" x="0" y="0" width="18" height="22">
<path fill-rule="evenodd" clip-rule="evenodd" d="M15 9.6071V14.9643L17.1429 17.1071V18.1786H0V17.1071L2.14286 14.9643V9.6071C2.14286 6.3071 3.88929 3.5643 6.96426 2.83571V2.10714C6.96426 1.21786 7.68216 0.5 8.57146 0.5C9.46076 0.5 10.1786 1.21786 10.1786 2.10714V2.83571C13.2429 3.5643 15 6.3179 15 9.6071ZM10.7143 19.25C10.7143 20.4286 9.74996 21.3929 8.57146 21.3929C7.38216 21.3929 6.42856 20.4286 6.42856 19.25H10.7143Z" fill="white"/>
</mask>
<g mask="url(#mask0)">
<rect x="-4.28564" y="-2.71387" width="25.7143" height="25.7143" fill="#FFAA3C"/>
</g>
</svg>
