<svg width="360" height="302" viewBox="0 0 360 302" fill="none" xmlns="http://www.w3.org/2000/svg">
<g opacity="0.5">
<path fill-rule="evenodd" clip-rule="evenodd" d="M-2 160.038C-2 141.904 20.1967 133.131 32.595 146.364L91.1285 208.839C99.447 217.717 97.9771 231.904 88.015 238.889L29.4815 279.928C16.2273 289.22 -2 279.739 -2 263.552V160.038Z" fill="#1BC1CE" fill-opacity="0.09"/>
<path fill-rule="evenodd" clip-rule="evenodd" d="M104.623 302C85.1398 302 77.157 276.979 93.04 265.696L109.861 253.746C117.9 248.035 128.902 249.036 135.779 256.103L147.405 268.053C159.738 280.73 150.756 302 133.07 302H104.623Z" fill="#1BC1CE" fill-opacity="0.09"/>
<path fill-rule="evenodd" clip-rule="evenodd" d="M-2 38.6941C-2 43.7721 -0.0684443 48.6599 3.40284 52.3661L26.4589 76.9823L131.836 188.122C138.553 195.207 149.403 196.406 157.506 190.96L161.152 188.51C171.623 181.472 173.137 166.517 164.837 157.015C154.055 144.672 139.965 127.208 128.775 108.727C110.355 78.3088 105.959 53.0077 106.744 34.3057C107.42 18.2096 94.7629 -2 78.6526 -2H18C6.95431 -2 -2 6.9543 -2 18V38.6941Z" fill="#1BC1CE" fill-opacity="0.09"/>
<path fill-rule="evenodd" clip-rule="evenodd" d="M175.019 236.417C166.543 227.894 168.119 213.967 177.976 207.088L183.638 203.137C191.917 197.358 203.248 198.611 210.762 205.355C225.176 218.291 250.356 237.595 277.986 243.85C289.274 246.405 299.298 247.191 308.111 246.816C326.88 246.015 359.045 263.344 359.045 282.13C359.045 293.104 350.149 302 339.176 302H240.921C239.254 302 238.558 299.869 239.904 298.885C241.653 297.608 237.031 280.098 234.99 279.372C228.9 277.205 221.745 273.929 213.442 269.07C201.789 262.25 186.393 247.855 175.019 236.417Z" fill="#1BC1CE" fill-opacity="0.09"/>
<path fill-rule="evenodd" clip-rule="evenodd" d="M172.358 -1.98972C166.579 -1.99625 161.03 0.592772 159.169 6.06377C156.604 13.6042 154.646 26.7244 159.708 46.6334C168.088 79.5886 198.747 114.262 205.147 120.678C205.904 121.437 206.353 121.19 206.466 120.124C207.259 112.607 211.985 80.1943 235.819 60.1775C271.474 30.2323 310.067 29.7772 334.383 33.8142C346.292 35.7913 359.045 26.9842 359.045 14.9123C359.045 5.69109 351.575 -1.78708 342.354 -1.7975L172.358 -1.98972Z" fill="#1BC1CE" fill-opacity="0.09"/>
<path fill-rule="evenodd" clip-rule="evenodd" d="M359.999 101.903C359.999 95.4749 356.928 89.4437 351.44 86.0975C338.699 78.329 313.828 65.1917 291.336 65.1917C250.487 65.1917 228.189 94.877 228.189 116.41C228.189 147.776 246.075 165.204 264.027 180.315C287.186 199.809 314.848 220.677 348.326 211.105C355.688 209 359.999 201.76 359.999 194.103C359.999 164.773 359.999 121.451 359.999 101.903Z" fill="#1BC1CE" fill-opacity="0.09"/>
</g>
</svg>
