<svg width="53" height="53" viewBox="0 0 53 53" fill="none" xmlns="http://www.w3.org/2000/svg">
<path d="M53 26.5C53 33.5282 50.208 40.2686 45.2383 45.2383C40.2686 50.208 33.5282 53 26.5 53C19.4718 53 12.7314 50.208 7.76167 45.2383C2.79196 40.2686 0 33.5282 0 26.5C0 19.4718 2.79196 12.7314 7.76167 7.76167C12.7314 2.79196 19.4718 0 26.5 0C33.5282 0 40.2686 2.79196 45.2383 7.76167C50.208 12.7314 53 19.4718 53 26.5ZM39.8494 16.4631C39.6128 16.2273 39.331 16.0417 39.021 15.9173C38.711 15.7929 38.3791 15.7322 38.0451 15.7391C37.7112 15.7459 37.382 15.8199 37.0773 15.9569C36.7726 16.0938 36.4987 16.2908 36.2719 16.536L24.7676 31.1938L17.8345 24.2574C17.3635 23.8186 16.7406 23.5797 16.097 23.591C15.4534 23.6024 14.8393 23.8631 14.3841 24.3183C13.9289 24.7735 13.6682 25.3876 13.6569 26.0312C13.6455 26.6748 13.8844 27.2977 14.3232 27.7687L23.0881 36.5369C23.3242 36.7726 23.6054 36.9583 23.9149 37.083C24.2243 37.2076 24.5557 37.2687 24.8893 37.2625C25.2228 37.2563 25.5518 37.183 25.8564 37.047C26.161 36.9109 26.4351 36.7149 26.6623 36.4706L39.8858 19.9412C40.3366 19.4725 40.5857 18.8457 40.5795 18.1954C40.5733 17.5451 40.3123 16.9232 39.8527 16.4631H39.8494Z" fill="#CCCCCC"/>
</svg>
