<svg width="10" height="13" viewBox="0 0 10 13" fill="none" xmlns="http://www.w3.org/2000/svg">
<path d="M1 2.585V9C0.999902 9.63472 1.24123 10.2457 1.67504 10.709C2.10885 11.1724 2.70265 11.4534 3.336 11.495L3.5 11.5H7.914C7.81061 11.7924 7.61913 12.0456 7.3659 12.2247C7.11267 12.4038 6.81016 12.5 6.5 12.5H3C2.20435 12.5 1.44129 12.1839 0.87868 11.6213C0.316071 11.0587 2.06237e-07 10.2956 2.06237e-07 9.5V4C-0.00016248 3.68967 0.0959278 3.38694 0.275028 3.13351C0.454129 2.88008 0.707422 2.68844 1 2.585ZM8.5 0.5C8.89782 0.5 9.27936 0.658035 9.56066 0.93934C9.84196 1.22064 10 1.60218 10 2V9C10 9.39782 9.84196 9.77936 9.56066 10.0607C9.27936 10.342 8.89782 10.5 8.5 10.5H3.5C3.10218 10.5 2.72064 10.342 2.43934 10.0607C2.15804 9.77936 2 9.39782 2 9V2C2 1.60218 2.15804 1.22064 2.43934 0.93934C2.72064 0.658035 3.10218 0.5 3.5 0.5H8.5Z" fill="#F1F1F1"/>
</svg>
