<svg width="105" height="115" viewBox="0 0 105 115" fill="none" xmlns="http://www.w3.org/2000/svg">
<path d="M43.3163 21.1511C58.6849 21.3053 70.9957 29.9462 76.1938 44.1157C77.9485 48.9059 77.3698 53.7427 76.7912 58.5843C76.3914 61.921 75.9727 65.2671 75.2671 68.5525C74.0346 74.3007 75.8927 78.9693 79.8772 83.0257C80.4087 83.5678 80.945 84.1099 81.4954 84.6334C83.0007 86.0681 83.4194 87.7364 81.9 89.274C80.3382 90.8442 78.7105 90.2226 77.2005 88.8767C69.9984 82.4509 67.3876 74.6325 69.5985 65.197C70.3042 62.1781 70.6758 59.0657 70.9957 55.9766C72.1953 44.4195 65.68 33.7503 54.8086 29.32C42.4461 24.2822 29.8342 27.3853 21.3902 37.6665C19.5791 39.8724 18.0126 42.2978 16.5119 44.7326C13.6847 49.3171 10.2648 53.3175 5.71586 56.2944C3.47667 57.7618 1.54796 57.645 0.611832 55.9486C-0.531283 53.8783 0.447186 52.5137 2.263 51.3687C6.28036 48.8217 9.16402 45.2326 11.5867 41.2042C16.0933 33.7129 21.4748 26.9693 29.98 23.7681C34.1855 22.1839 38.7486 21.5389 43.147 20.4688C43.2034 20.6931 43.2599 20.9221 43.3163 21.1511Z" fill="#219653"/>
<path d="M66.9176 57.7758C66.3296 61.2434 65.3652 66.7065 64.4902 72.1836C63.7328 76.9037 64.669 81.3947 66.7012 85.6755C68.1877 88.8066 70.6856 90.8302 73.9268 92.0359C76.5141 92.9986 77.4455 94.494 76.7023 96.2699C75.9214 98.1345 74.3737 98.5131 71.7346 97.5644C63.8034 94.7184 60.4211 88.4514 58.737 80.8152C57.3681 74.5904 59.1604 68.6366 59.9836 62.5706C60.5199 58.6123 61.1785 54.383 60.3411 50.5882C57.7162 38.718 42.8275 33.6802 32.6665 40.8537C28.5268 43.7745 25.7325 47.7562 23.6909 52.266C19.7065 61.0658 12.3491 66.557 4.59666 71.6649C3.13366 72.6276 1.57188 72.3098 0.584001 70.819C-0.460326 69.2348 -0.0651755 67.7627 1.45898 66.6364C3.83929 64.8792 6.30898 63.2342 8.61403 61.3836C12.876 57.9627 16.3477 53.9624 18.681 48.9012C21.988 41.7276 27.0309 36.0496 34.6469 33.0633C50.2178 26.9459 67.5903 39.1339 66.9176 57.7758Z" fill="#219653"/>
<path d="M57.2344 58.1688C57.3096 62.071 55.8372 65.9733 53.4663 69.3754C50.3475 73.8571 47.238 78.5164 43.2959 82.2317C35.6328 89.4613 27.424 96.1255 19.3658 102.934C17.4277 104.575 15.6307 104.369 14.4828 102.818C13.3632 101.304 13.8384 99.6445 15.8565 98.1397C25.8434 90.6951 35.5669 82.914 43.3712 73.1608C46.2783 69.5297 48.4752 65.2863 50.5968 61.1177C52.0504 58.2576 51.3165 55.1592 49.7924 52.3926C46.6923 46.7659 39.4667 46.8174 35.661 52.5141C34.7296 53.9068 34.0381 55.463 33.3042 56.9771C29.8279 64.16 24.9496 70.226 18.5708 75.0582C14.2617 78.3248 9.87745 81.498 5.48376 84.6618C3.48448 86.1059 1.52755 85.9984 0.582007 84.4048C-0.617558 82.3906 0.266827 80.9699 2.0356 79.7362C5.57313 77.2687 9.026 74.6843 12.5353 72.1841C19.7938 67.0154 25.2789 60.426 28.8964 52.2945C31.1027 47.3408 34.6496 43.7096 40.1535 42.602C49.4113 40.742 57.2579 47.7941 57.2344 58.1688Z" fill="#219653"/>
<path d="M43.3537 10.6036C59.6725 10.7952 72.0303 18.4361 81.8479 30.8344C83.0851 32.3999 83.325 34.1057 81.6268 35.531C80.1921 36.7321 78.4515 36.1713 76.9085 34.2506C69.7676 25.3572 61.079 18.7585 49.4362 17.0995C35.3613 15.0946 23.2386 18.838 14.042 30.0679C11.6428 32.9981 9.51654 36.1526 7.34321 39.2557C5.8614 41.368 4.35136 42.0363 2.77075 40.9381C0.813817 39.5828 1.03021 37.9144 2.19684 36.1199C7.94535 27.2686 14.2678 19.0155 24.3206 14.5058C30.3701 11.7906 36.7067 10.5615 43.3537 10.6036Z" fill="#219653"/>
<path d="M42.8781 0C55.5089 0.355172 66.9588 3.8882 76.8893 11.7347C77.8443 12.4871 78.818 13.8377 78.8792 14.9546C79.0109 17.4315 76.2025 18.2727 73.7893 16.8707C69.0616 14.1228 64.4985 10.7486 59.3851 9.05688C44.0824 3.99568 29.2972 5.11728 15.8715 14.8518C14.1074 16.1323 12.555 17.7399 11.0591 19.3335C9.66197 20.8243 8.21779 21.5206 6.41138 20.2214C4.84019 19.0858 4.83548 17.2212 6.50076 15.3705C13.4818 7.60816 22.3209 3.10308 32.5384 1.21506C35.9442 0.584164 39.43 0.392558 42.8781 0Z" fill="#219653"/>
<path d="M7.92011 97.1208C7.10158 96.3264 5.69503 95.5973 5.55391 94.672C5.38926 93.6018 6.01021 91.9849 6.85696 91.2698C10.4039 88.2789 14.2613 85.6478 17.8224 82.6756C25.9089 75.9367 33.238 68.5014 38.6243 59.3745C39.2217 58.3604 39.7203 57.2902 40.2472 56.2387C41.0751 54.5796 42.3594 53.7805 44.1752 54.4908C46.1745 55.2713 46.4661 56.949 45.7229 58.6688C44.8949 60.5895 43.8741 62.4588 42.7357 64.2207C34.3529 77.1938 22.8653 87.0732 10.3992 95.9572C9.80178 96.3824 9.05381 96.5974 7.92011 97.1208Z" fill="#219653"/>
<path d="M87.1954 59.2199C86.4851 64.4587 85.8312 69.7068 85.0362 74.9316C84.6269 77.6281 83.2956 78.7123 81.2728 78.3805C79.3206 78.0627 78.5773 76.5112 79.1183 73.8474C80.8401 65.37 81.6162 56.8692 79.6452 48.3217C79.3441 47.0179 78.9255 45.728 78.4409 44.4756C77.7306 42.6296 77.9893 41.022 79.8804 40.2415C81.8891 39.4144 83.3051 40.4004 84.0859 42.3305C86.264 47.7422 86.8379 53.4016 87.1954 59.2199Z" fill="#219653"/>
<path d="M39.8009 93.5039C41.7249 94.4806 44.2699 95.0368 45.5682 96.607C47.6522 99.1259 49.1105 102.234 50.4464 105.262C51.1709 106.898 50.2395 108.454 48.3201 108.902C46.5514 109.314 45.4459 108.384 44.7638 106.804C44.0676 105.192 43.4796 103.491 42.5293 102.028C40.9628 99.6259 39.0388 99.2334 36.7008 100.92C34.7957 102.294 33.0927 103.967 31.4228 105.626C29.9315 107.108 28.3462 107.58 26.7468 106.117C25.2132 104.72 25.4814 102.991 26.902 101.678C29.3106 99.453 31.7473 97.2192 34.424 95.3405C35.7929 94.3685 37.7075 94.1769 39.8009 93.5039Z" fill="#219653"/>
<path d="M47.7383 85.4054C48.1711 84.0641 48.7732 81.5359 49.8081 79.1945C50.4808 77.6804 52.212 76.9233 53.6185 78.0542C54.5076 78.7692 55.4155 80.6713 55.058 81.5265C52.1179 88.5598 55.0109 93.7052 60.0632 98.285C60.75 98.9065 61.5356 99.4159 62.213 100.047C63.5114 101.248 63.9065 102.888 62.6223 104.019C61.7614 104.776 59.6351 105.328 58.8872 104.814C52.5318 100.43 47.9735 94.8174 47.7383 85.4054Z" fill="#219653"/>
<path d="M104.93 95.4912C104.93 96.4737 104.93 97.4561 104.93 98.4386C104.867 98.8667 104.811 99.2947 104.747 99.7158C103.568 107.33 97.6877 113.337 90.1017 114.677C89.5544 114.775 88.993 114.846 88.4386 114.923C87.4561 114.923 86.4737 114.923 85.4912 114.923C85.2246 114.888 84.9649 114.839 84.6982 114.811C77.4351 113.919 71.3719 108.586 69.5404 101.505C69.2807 100.495 69.1474 99.4632 69 98.4386C69 97.4561 69 96.4737 69 95.4912C69.0211 95.4 69.0421 95.3088 69.0491 95.2175C69.2386 93.3228 69.6807 91.4842 70.4737 89.7509C72.9439 84.3825 77.0421 80.9439 82.7684 79.4632C83.6596 79.2316 84.5789 79.1404 85.4912 79C86.4737 79 87.4561 79 88.4386 79C88.5088 79.014 88.5719 79.0421 88.6421 79.0491C90.8386 79.2526 92.9439 79.814 94.9088 80.8246C99.9684 83.414 103.175 87.4842 104.523 93.007C104.726 93.8211 104.803 94.6632 104.93 95.4912ZM84.4667 104.747C84.8175 104.775 85.0912 104.565 85.3439 104.312C87.0351 102.614 88.7333 100.923 90.4246 99.2246C92.6982 96.9509 94.9719 94.6772 97.2456 92.4035C97.821 91.8281 97.821 91.2386 97.2456 90.6632C96.9228 90.3403 96.5649 90.0456 96.2842 89.6947C95.7649 89.0561 94.9649 89.0491 94.3193 89.6947C91.3088 92.7474 88.2632 95.7719 85.2246 98.8035C84.6912 99.3368 84.7965 99.3368 84.2632 98.8035C82.7614 97.3088 81.2737 95.807 79.7719 94.3123C79.2246 93.7649 78.621 93.7579 78.0807 94.2982C77.5895 94.7825 77.0982 95.2667 76.6211 95.7649C76.1158 96.2842 76.1158 96.8877 76.6211 97.407C76.993 97.793 77.3789 98.1649 77.7579 98.5509C79.7018 100.495 81.6456 102.439 83.5825 104.382C83.8281 104.6 84.0947 104.754 84.4667 104.747Z" fill="#219653"/>
</svg>
