<svg width="63" height="63" viewBox="0 0 63 63" fill="none" xmlns="http://www.w3.org/2000/svg">
<circle cx="31.5" cy="31.5" r="31" stroke="#F15A23"/>
<path d="M31.691 19.1506C37.6128 19.21 42.3565 22.5396 44.3594 27.9994C45.0355 29.8452 44.8126 31.7089 44.5896 33.5745C44.4355 34.8602 44.2742 36.1495 44.0023 37.4155C43.5274 39.6304 44.2434 41.4293 45.7787 42.9923C45.9835 43.2012 46.1902 43.4101 46.4022 43.6118C46.9823 44.1646 47.1436 44.8075 46.5581 45.3999C45.9563 46.005 45.3292 45.7655 44.7473 45.2468C41.9722 42.7708 40.9662 39.7582 41.8181 36.1225C42.09 34.9592 42.2332 33.76 42.3565 32.5697C42.8187 28.1165 40.3082 24.0054 36.1192 22.2983C31.3556 20.3571 26.496 21.5528 23.2423 25.5144C22.5445 26.3643 21.9409 27.2989 21.3626 28.2371C20.2733 30.0036 18.9555 31.5451 17.2027 32.6921C16.3399 33.2576 15.5967 33.2125 15.236 32.5589C14.7955 31.7611 15.1725 31.2353 15.8722 30.7942C17.4202 29.8128 18.5313 28.4298 19.4648 26.8776C21.2013 23.991 23.275 21.3925 26.5522 20.159C28.1727 19.5486 29.9309 19.3001 31.6257 18.8877C31.6475 18.9741 31.6692 19.0624 31.691 19.1506Z" fill="#F15A23"/>
<path d="M40.7849 33.2623C40.5583 34.5984 40.1867 36.7035 39.8495 38.814C39.5577 40.6327 39.9184 42.3632 40.7015 44.0127C41.2743 45.2192 42.2368 45.9989 43.4857 46.4635C44.4826 46.8344 44.8415 47.4107 44.5551 48.095C44.2542 48.8134 43.6579 48.9593 42.641 48.5938C39.5849 47.4971 38.2816 45.0823 37.6327 42.1399C37.1052 39.7413 37.7958 37.4472 38.113 35.1099C38.3197 33.5846 38.5735 31.955 38.2508 30.4928C37.2394 25.9189 31.5024 23.9777 27.5871 26.7418C25.992 27.8673 24.9153 29.4015 24.1286 31.1392C22.5934 34.53 19.7584 36.6459 16.7712 38.6141C16.2075 38.985 15.6057 38.8626 15.225 38.2882C14.8226 37.6777 14.9749 37.1105 15.5622 36.6765C16.4794 35.9994 17.431 35.3656 18.3192 34.6525C19.9614 33.3343 21.2991 31.7929 22.1982 29.8427C23.4725 27.0786 25.4156 24.8907 28.3502 23.74C34.35 21.3829 41.0441 26.0792 40.7849 33.2623Z" fill="#F15A23"/>
<path d="M37.0534 33.4138C37.0824 34.9174 36.515 36.421 35.6015 37.7319C34.3997 39.4588 33.2016 41.2542 31.6826 42.6858C28.7298 45.4715 25.5668 48.0393 22.4617 50.663C21.7149 51.2951 21.0225 51.2158 20.5802 50.618C20.1488 50.0346 20.3319 49.3953 21.1095 48.8155C24.9577 45.9469 28.7044 42.9487 31.7116 39.1905C32.8318 37.7914 33.6783 36.1563 34.4958 34.55C35.0559 33.448 34.7731 32.2541 34.1858 31.1881C32.9913 29.02 30.2071 29.0398 28.7407 31.2349C28.3818 31.7715 28.1153 32.3712 27.8326 32.9546C26.493 35.7223 24.6133 38.0597 22.1554 39.9216C20.4951 41.1804 18.8057 42.4031 17.1127 43.6221C16.3423 44.1786 15.5883 44.1372 15.2239 43.5231C14.7617 42.747 15.1025 42.1996 15.784 41.7242C17.1471 40.7734 18.4776 39.7776 19.8298 38.8142C22.6267 36.8226 24.7402 34.2835 26.1341 31.1503C26.9842 29.2415 28.351 27.8423 30.4717 27.4155C34.039 26.6988 37.0624 29.4162 37.0534 33.4138Z" fill="#F15A23"/>
<path d="M31.7048 15.0854C37.9928 15.1592 42.7546 18.1034 46.5375 22.8807C47.0143 23.484 47.1067 24.1413 46.4524 24.6905C45.8995 25.1533 45.2288 24.9372 44.6343 24.1971C41.8827 20.7703 38.5348 18.2276 34.0486 17.5884C28.6252 16.8159 23.954 18.2583 20.4104 22.5854C19.4859 23.7145 18.6666 24.93 17.8292 26.1257C17.2582 26.9396 16.6764 27.1971 16.0673 26.7739C15.3133 26.2517 15.3966 25.6089 15.8462 24.9174C18.0612 21.5068 20.4974 18.3267 24.3709 16.589C26.702 15.5427 29.1436 15.0692 31.7048 15.0854Z" fill="#F15A23"/>
<path d="M31.5215 11C36.3884 11.1369 40.8004 12.4982 44.6268 15.5216C44.9948 15.8116 45.37 16.332 45.3935 16.7624C45.4443 17.7167 44.3622 18.0409 43.4323 17.5007C41.6106 16.4418 39.8523 15.1417 37.882 14.4898C31.9856 12.5396 26.2885 12.9718 21.1152 16.7227C20.4355 17.2161 19.8373 17.8356 19.2609 18.4496C18.7226 19.0241 18.1661 19.2924 17.47 18.7918C16.8646 18.3542 16.8628 17.6357 17.5045 16.9226C20.1944 13.9316 23.6003 12.1957 27.5374 11.4682C28.8497 11.2251 30.1929 11.1513 31.5215 11Z" fill="#F15A23"/>
<path d="M18.0509 48.4229C17.7355 48.1168 17.1935 47.8359 17.1391 47.4793C17.0757 47.067 17.315 46.4439 17.6412 46.1684C19.008 45.0159 20.4943 44.0021 21.8665 42.8569C24.9824 40.2602 27.8064 37.3952 29.8819 33.8784C30.1121 33.4876 30.3042 33.0753 30.5073 32.6701C30.8263 32.0308 31.3211 31.7229 32.0208 31.9966C32.7912 32.2973 32.9035 32.9438 32.6171 33.6065C32.2981 34.3466 31.9048 35.0669 31.4661 35.7458C28.236 40.7446 23.8096 44.5513 19.0061 47.9745C18.7759 48.1384 18.4877 48.2212 18.0509 48.4229Z" fill="#F15A23"/>
<path d="M48.599 33.8188C48.3253 35.8374 48.0734 37.8596 47.767 39.8728C47.6093 40.9119 47.0964 41.3296 46.3169 41.2018C45.5647 41.0793 45.2783 40.4815 45.4868 39.4551C46.1502 36.1885 46.4493 32.913 45.6898 29.6194C45.5738 29.117 45.4124 28.62 45.2257 28.1374C44.952 27.4261 45.0517 26.8067 45.7804 26.506C46.5544 26.1872 47.1 26.5672 47.4009 27.3109C48.2401 29.3962 48.4613 31.5768 48.599 33.8188Z" fill="#F15A23"/>
<path d="M30.3354 47.0293C31.0768 47.4057 32.0574 47.6199 32.5577 48.225C33.3607 49.1956 33.9226 50.3931 34.4374 51.5599C34.7165 52.1902 34.3576 52.7898 33.6181 52.9627C32.9365 53.1212 32.5106 52.7628 32.2477 52.1542C31.9795 51.5329 31.7529 50.8775 31.3868 50.3138C30.7831 49.3883 30.0418 49.237 29.1409 49.8871C28.4068 50.4165 27.7506 51.0611 27.1071 51.7004C26.5325 52.2712 25.9217 52.4531 25.3054 51.8895C24.7145 51.3511 24.8178 50.6848 25.3652 50.1788C26.2933 49.3216 27.2322 48.4609 28.2636 47.737C28.7911 47.3624 29.5288 47.2886 30.3354 47.0293Z" fill="#F15A23"/>
<path d="M33.3945 43.9082C33.5613 43.3914 33.7933 42.4172 34.1921 41.515C34.4513 40.9316 35.1183 40.6399 35.6603 41.0756C36.0029 41.3511 36.3527 42.084 36.215 42.4136C35.0821 45.1237 36.1968 47.1063 38.1436 48.871C38.4083 49.1105 38.711 49.3068 38.972 49.5499C39.4723 50.0127 39.6245 50.6447 39.1297 51.0805C38.798 51.3722 37.9787 51.5847 37.6905 51.3866C35.2416 49.6975 33.4852 47.5349 33.3945 43.9082Z" fill="#F15A23"/>
</svg>
