<?xml version="1.0" encoding="UTF-8" standalone="no"?> <!-- Created with Vectornator for iOS (http://vectornator.io/) --><!DOCTYPE svg PUBLIC "-//W3C//DTD SVG 1.1//EN" "http://www.w3.org/Graphics/SVG/1.1/DTD/svg11.dtd">
<svg style="fill-rule:evenodd;clip-rule:evenodd;stroke-linecap:round;stroke-linejoin:round;" xmlns:vectornator="http://vectornator.io" xmlns:xlink="http://www.w3.org/1999/xlink" xmlns="http://www.w3.org/2000/svg" xml:space="preserve" version="1.1" viewBox="0 0 1000 1000">
<metadata>
<vectornator:setting key="DynamicGuides" value="1"/>
<vectornator:setting key="Units" value="Points"/>
<vectornator:setting key="GuidesVisible" value="1"/>
<vectornator:setting key="RulersVisible" value="1"/>
<vectornator:setting key="SnapToGuides" value="1"/>
<vectornator:setting key="GridSpacing" value="36"/>
</metadata>
<defs/>
<g id="Untitled" vectornator:layerName="Untitled">
<g opacity="1">
<path d="M397.62+11.79C391.3+12.75+380.19+15.24+372.72+17.54C309.9+36.5+261.83+84.96+242.1+148.93C237.31+164.44+236.93+168.27+236.93+200.26C236.93+229.76+237.5+236.84+241.14+249.67C250.33+282.8+270.06+315.94+294.58+339.3C308.56+352.52+335.76+371.67+340.74+371.67C342.46+371.67+343.04+367.07+343.04+355.39L343.04+339.3L334.04+332.41C302.63+308.66+283.09+281.27+271.79+245.26C267.96+232.62+267.39+227.06+267.39+200.25C267.39+170.56+267.77+169.03+273.71+151.41C281.18+130.15+285.97+121.15+300.33+102C319.67+76.53+355.11+53.35+387.09+45.12C407.97+39.76+436.69+39.37+458.72+43.78C533.61+59.29+586.66+124.6+586.66+201.22C586.85+252.17+565.21+296.03+524.6+328.01L509.66+339.88L509.66+356.74L509.66+373.79L515.98+370.53C530.15+363.25+550.65+347.36+564.82+332.61C589.72+306.56+606.38+275.15+614.43+238.57C618.26+220.95+618.26+181.69+614.24+163.87C597.39+85.15+536.48+26.16+458.15+12.56C440.72+9.48998+416.01+9.11+397.62+11.79Z" opacity="1" fill="#f97d1b"/>
<path d="M401.45+81.51C375.79+87.06+359.89+96.07+339.97+115.79C323.12+132.64+313.16+149.88+307.6+171.52C303.77+186.27+303.96+215.57+307.79+230.7C312.19+247.74+322.73+268.24+333.45+279.92L342.83+290.26L343.02+265.75C343.02+245.83+342.25+238.36+339+227.63C333.64+210.39+334.6+184.73+340.92+168.07C360.46+117.89+419.64+95.29+467.9+119.42C508.31+139.53+529.38+192.97+512.53+233.19C510.42+237.98+509.66+247.17+509.66+265.17L509.85+290.26L519.23+280.11C529.96+268.62+542.41+244.49+546.24+228.01C549.3+214.41+549.3+187.98+546.24+174.38C542.79+160.02+530.53+135.12+521.53+124.2C491.47+88.4+445.31+71.93+401.45+81.51Z" opacity="1" fill="#f97d1b"/>
<path d="M406.82+165.59C390.54+170.95+379.82+180.15+371.2+196.23L366.99+204.08L366.03+427.21L365.07+650.34L356.64+627.36C340.17+581.97+337.87+577.37+326.57+567.22C312.97+554.58+301.67+550.94+280.99+552.09C254.94+553.62+236.94+565.3+226.6+587.9C222.58+596.33+221.43+601.5+221.62+612.03C221.62+624.29+224.88+635.59+258.58+737.48C279.27+799.92+298.8+856.23+303.02+864.66C320.64+900.09+348.22+929.59+384.42+951.42C450.31+991.45+558.52+1001.98+625.55+975.17C665.39+959.27+698.91+931.7+724.38+894.35C747.94+859.49+765.18+804.33+775.33+731.74C781.65+685.77+777.63+547.68+769.2+519.72C759.62+487.93+723.62+472.03+691.25+485.44C679.95+490.04+678.23+490.04+678.23+484.87C678.23+478.74+669.04+462.08+661.76+455.18C649.5+443.3+641.27+440.05+621.35+439.09C605.84+438.32+602.77+438.71+593.39+443.11L583.02+447.9L578.62+437.18C565.21+404.81+528.06+392.36+490.13+407.11C487.07+408.26+486.87+401.94+486.3+308.09C485.73+209.84+485.73+207.73+481.51+198.92C475.76+186.66+464.85+174.98+453.36+169.23C441.48+163.1+419.46+161.38+406.82+165.59ZM440.72+197.19C444.55+199.11+449.15+204.08+451.64+208.87L456.04+217.1L456.04+386.23L456.04+555.54L461.59+561.67C469.25+570.29+479.21+570.29+486.87+561.67L492.42+555.54L492.42+502.11C492.42+449.82+492.42+448.67+496.82+442.35C507.74+425.88+539.72+428.37+548.92+446.37C551.22+450.97+551.79+462.84+551.79+513.4C551.79+578.71+552.56+585.42+560.98+589.82C568.26+593.65+576.69+592.31+582.62+586.37L588.17+580.82L588.17+536C588.17+497.31+588.55+490.42+591.62+484.67C596.6+474.52+605.79+469.35+618.63+469.35C632.42+469.35+640.66+474.33+645.63+485.25C649.08+492.53+649.46+498.27+649.46+548.45C649.46+584.27+650.23+604.95+651.57+607.63C652.72+609.74+656.55+612.61+660.19+614.14C665.74+616.44+667.66+616.44+673.22+614.14C676.67+612.61+680.3+610.31+681.26+608.97C682.22+607.44+683.37+589.24+683.94+568.56C684.9+527.57+685.47+525.85+697.73+516.66C704.05+511.87+718.61+510.34+726.08+513.4C736.8+517.8+739.87+524.89+742.55+550.56C746.57+590.59+749.64+657.05+748.3+681.95C743.7+766.61+725.32+838.05+697.16+879.61C672.84+915.43+635.1+942.05+592.58+953.35C575.54+957.95+570.55+958.33+539.34+958.33C501.8+958.33+480.73+955.65+451.24+947.22C393.21+930.37+346.67+891.87+327.13+844.56C319.85+826.94+251.09+616.45+251.09+612.04C251.28+604.95+258.18+592.5+264.69+587.91C270.05+584.08+273.5+583.31+284.99+583.31C307.59+583.31+307.59+583.31+337.28+664.71C351.84+704.36+363.9+734.23+366.39+736.92C372.14+743.05+383.05+742.86+390.33+736.73L395.69+732.13L396.65+471.65C397.61+211.94+397.61+210.98+401.63+205.62C410.07+194.13+427.88+190.3+440.72+197.19Z" opacity="1" fill="#f97d1b"/>
</g>
</g>
</svg>
