<svg width="99" height="38" viewBox="0 0 99 38" fill="none" xmlns="http://www.w3.org/2000/svg">
<path d="M95 23.5016V20.2492V13.7508H85.6238H79.3731V10.4984H95V4H79.3731H70V10.4984V13.7508V20.2492H79.3731H85.6238V23.5016H70V30H85.6238H95V23.5016Z" fill="#2C2C2C"/>
<path d="M67 4H60V30H67V4Z" fill="#2C2C2C"/>
<path d="M32 4V10.4984H50.7492V13.7508H38.2477H32V20.2492V30H38.2477V20.3468L47.6269 30H57L47.2178 20.2492H50.7492H57V13.7508V10.4984V4H50.7492H32Z" fill="#2C2C2C"/>
<path fill-rule="evenodd" clip-rule="evenodd" d="M19.4995 19.995H13.2285V13.625H19.4995V19.995ZM17.9465 15.2059H14.8032V18.3986H17.9465V15.2059Z" fill="#2C2C2C"/>
<path d="M10.4013 4H4.80016C4.58909 4 4.38433 4.08502 4.23627 4.23931C4.16066 4.31488 4.10081 4.40305 4.05985 4.50381C4.02205 4.60143 4 4.70849 4 4.81555V29.1876C4 29.2947 4.02205 29.4017 4.05985 29.4993C4.10081 29.6001 4.16066 29.6883 4.23627 29.7638C4.38433 29.915 4.58909 30 4.80016 30H20V23.5165H10.4013V4Z" fill="#2C2C2C"/>
<path d="M28.212 4H13V10.3988H22.6107V20H29V4.80295C29 4.58903 28.9212 4.38752 28.773 4.23561C28.6217 4.0868 28.4232 4.0031 28.212 4Z" fill="#2C2C2C"/>
<path d="M29 23H23V38H29V23Z" fill="#2C2C2C"/>
<path d="M12.9872 0H0.811701C0.597591 0 0.389872 0.0881569 0.239676 0.239283C0.0862832 0.390409 0 0.598208 0 0.812303V13H1.6234V2.42432C1.6266 2.21022 1.71288 2.00872 1.86627 1.85759C2.01647 1.70961 2.22099 1.62461 2.4351 1.62461H13L12.9872 0Z" fill="#2C2C2C"/>
<path d="M97.3766 21V31.5786C97.3766 31.7927 97.2903 31.9973 97.1401 32.1516C96.9867 32.3027 96.7822 32.3877 96.5649 32.3909H86V33.9997H98.1755C98.281 34.0029 98.3896 33.9808 98.4887 33.9399C98.5878 33.9021 98.6804 33.8423 98.7571 33.7667C98.8338 33.6912 98.8945 33.5999 98.9361 33.5023C98.9776 33.4015 99 33.2945 99 33.1874V21H97.3766Z" fill="#2C2C2C"/>
</svg>
