<svg width="107" height="112" viewBox="0 0 107 112" fill="none" xmlns="http://www.w3.org/2000/svg">
<circle cx="50" cy="62" r="50" fill="#276971"/>
<path d="M25 72.9091V78.3636C26.8153 78.3636 28.6129 78.7164 30.29 79.4016C31.9672 80.0869 33.4911 81.0914 34.7747 82.3576C36.0583 83.6239 37.0766 85.1271 37.7713 86.7816C38.466 88.436 38.8235 90.2092 38.8235 92H44.3529C44.3529 86.9368 42.314 82.0809 38.6846 78.5007C35.0552 74.9204 30.1327 72.9091 25 72.9091ZM25 83.8182V92H33.2941C33.2941 89.83 32.4203 87.749 30.8648 86.2146C29.3094 84.6802 27.1997 83.8182 25 83.8182ZM25 62V67.4545C31.5992 67.4545 37.9281 70.0406 42.5945 74.6437C47.2608 79.2469 49.8824 85.4901 49.8824 92H55.4118C55.4118 75.4182 41.8094 62 25 62ZM66.4706 32H38.8235C37.357 32 35.9506 32.5747 34.9136 33.5976C33.8767 34.6205 33.2941 36.0079 33.2941 37.4545V57.5545C35.2018 57.9909 37.0541 58.5636 38.8235 59.2727V42.9091H66.4706V78.3636H58.0935C59.5588 81.7727 60.4159 85.4273 60.72 89.2727H66.4706C67.9371 89.2727 69.3435 88.6981 70.3805 87.6751C71.4174 86.6522 72 85.2648 72 83.8182V37.4545C72 36.0079 71.4174 34.6205 70.3805 33.5976C69.3435 32.5747 67.9371 32 66.4706 32Z" fill="#E5E5E5"/>
<circle cx="80" cy="27" r="27" fill="white"/>
<path d="M80 0C65.1122 0 53 12.1122 53 27C53 41.8878 65.1122 54 80 54C94.8878 54 107 41.8878 107 27C107 12.1122 94.8878 0 80 0ZM91.3589 34.5411L87.5411 38.3589L80 30.8178L72.4589 38.3589L68.6411 34.5411L76.1822 27L68.6411 19.4589L72.4589 15.6411L80 23.1822L87.5411 15.6411L91.3589 19.4589L83.8178 27L91.3589 34.5411Z" fill="#E64510"/>
</svg>
