<svg width="39" height="52" viewBox="0 0 39 52" fill="none" xmlns="http://www.w3.org/2000/svg">
<path d="M9.2 49L9.19 44.8L7.13 48.26H6.4L4.35 44.89V49H2.83V42H4.17L6.79 46.35L9.37 42H10.7L10.72 49H9.2ZM17.6108 43.62L15.1808 49.33C14.9341 49.95 14.6274 50.3867 14.2608 50.64C13.9008 50.8933 13.4641 51.02 12.9508 51.02C12.6708 51.02 12.3941 50.9767 12.1208 50.89C11.8474 50.8033 11.6241 50.6833 11.4508 50.53L12.0208 49.42C12.1408 49.5267 12.2774 49.61 12.4308 49.67C12.5908 49.73 12.7474 49.76 12.9008 49.76C13.1141 49.76 13.2874 49.7067 13.4208 49.6C13.5541 49.5 13.6741 49.33 13.7808 49.09L13.8008 49.04L11.4708 43.62H13.0808L14.5908 47.27L16.1108 43.62H17.6108ZM28.7594 49.75C28.5327 50.03 28.256 50.2433 27.9294 50.39C27.6094 50.5367 27.256 50.61 26.8694 50.61C26.3494 50.61 25.8794 50.4967 25.4594 50.27C25.0394 50.05 24.5594 49.6567 24.0194 49.09C23.386 49.01 22.8194 48.8067 22.3194 48.48C21.826 48.1533 21.4394 47.7333 21.1594 47.22C20.886 46.7 20.7494 46.1267 20.7494 45.5C20.7494 44.8133 20.9127 44.1967 21.2394 43.65C21.5727 43.0967 22.0294 42.6633 22.6094 42.35C23.196 42.0367 23.8527 41.88 24.5794 41.88C25.306 41.88 25.9594 42.0367 26.5394 42.35C27.1194 42.6633 27.576 43.0967 27.9094 43.65C28.2427 44.1967 28.4094 44.8133 28.4094 45.5C28.4094 46.3133 28.1794 47.0267 27.7194 47.64C27.266 48.2533 26.6627 48.68 25.9094 48.92C26.076 49.0933 26.236 49.2167 26.3894 49.29C26.5494 49.37 26.7194 49.41 26.8994 49.41C27.3327 49.41 27.7127 49.2367 28.0394 48.89L28.7594 49.75ZM22.3894 45.5C22.3894 45.9333 22.4827 46.32 22.6694 46.66C22.8627 47 23.126 47.2667 23.4594 47.46C23.7927 47.6467 24.166 47.74 24.5794 47.74C24.9927 47.74 25.366 47.6467 25.6994 47.46C26.0327 47.2667 26.2927 47 26.4794 46.66C26.6727 46.32 26.7694 45.9333 26.7694 45.5C26.7694 45.0667 26.6727 44.68 26.4794 44.34C26.2927 44 26.0327 43.7367 25.6994 43.55C25.366 43.3567 24.9927 43.26 24.5794 43.26C24.166 43.26 23.7927 43.3567 23.4594 43.55C23.126 43.7367 22.8627 44 22.6694 44.34C22.4827 44.68 22.3894 45.0667 22.3894 45.5ZM34.0869 49L32.7369 47.05H32.6569H31.2469V49H29.6269V42H32.6569C33.2769 42 33.8135 42.1033 34.2669 42.31C34.7269 42.5167 35.0802 42.81 35.3269 43.19C35.5735 43.57 35.6969 44.02 35.6969 44.54C35.6969 45.06 35.5702 45.51 35.3169 45.89C35.0702 46.2633 34.7169 46.55 34.2569 46.75L35.8269 49H34.0869ZM34.0569 44.54C34.0569 44.1467 33.9302 43.8467 33.6769 43.64C33.4235 43.4267 33.0535 43.32 32.5669 43.32H31.2469V45.76H32.5669C33.0535 45.76 33.4235 45.6533 33.6769 45.44C33.9302 45.2267 34.0569 44.9267 34.0569 44.54Z" fill="black"/>
<path d="M5.94323 4.24536C5.49286 4.24536 5.06094 4.42427 4.74248 4.74273C4.42403 5.06119 4.24512 5.49311 4.24512 5.94347V12.7359H12.7357V4.24536H5.94323ZM10.613 10.6133H6.36776V6.368H10.613V10.6133Z" fill="black"/>
<path d="M4.24512 32.2641C4.24512 32.7145 4.42403 33.1464 4.74248 33.4649C5.06094 33.7833 5.49286 33.9622 5.94323 33.9622H12.7357V25.4717H4.24512V32.2641ZM6.36776 27.5943H10.613V31.8396H6.36776V27.5943Z" fill="black"/>
<path d="M25.4717 33.9622H32.2641C32.7145 33.9622 33.1464 33.7833 33.4649 33.4649C33.7833 33.1464 33.9622 32.7145 33.9622 32.2641V25.4717H25.4717V33.9622ZM27.5943 27.5943H31.8396V31.8396H27.5943V27.5943Z" fill="black"/>
<path d="M32.2641 4.24536H25.4717V12.7359H33.9622V5.94347C33.9622 5.49311 33.7833 5.06119 33.4649 4.74273C33.1464 4.42427 32.7145 4.24536 32.2641 4.24536V4.24536ZM31.8396 10.6133H27.5943V6.368H31.8396V10.6133Z" fill="black"/>
<path d="M21.2267 10.6131V8.49048H16.9814V12.7358H19.1041V10.6131H21.2267Z" fill="black"/>
<path d="M12.7363 12.7358H14.859V14.8585H12.7363V12.7358Z" fill="black"/>
<path d="M14.8584 14.8584H19.1037V16.981H14.8584V14.8584Z" fill="black"/>
<path d="M21.2263 6.368V8.49064H23.349V4.24536H14.8584V8.49064H16.981V6.368H21.2263Z" fill="black"/>
<path d="M4.24512 14.8584H6.36776V19.1037H4.24512V14.8584Z" fill="black"/>
<path d="M12.7357 16.981V19.1037H10.613V14.8584H8.4904V19.1037H6.36776V21.2263H4.24512V23.349H8.4904V21.2263H10.613V23.349H12.7357V21.2263H14.8583V16.981H12.7357Z" fill="black"/>
<path d="M21.2262 16.9812H23.3488V19.1039H25.4714V16.9812H27.5941V14.8586H23.3488V10.6133H21.2262V12.7359H19.1035V14.8586H21.2262V16.9812Z" fill="black"/>
<path d="M19.1037 31.8397H14.8584V33.9623H23.349V31.8397H21.2263V29.717H19.1037V31.8397Z" fill="black"/>
<path d="M23.3494 21.2265V19.1038H21.2267V16.9812H19.1041V19.1038H16.9814V21.2265H19.1041V23.3491H21.2267V21.2265H23.3494Z" fill="black"/>
<path d="M31.8398 21.2263H33.9625V23.349H31.8398V21.2263Z" fill="black"/>
<path d="M23.3486 21.2263H29.7166V23.349H23.3486V21.2263Z" fill="black"/>
<path d="M31.84 14.8584H29.7174V16.981H27.5947V19.1037H29.7174V21.2263H31.84V19.1037H33.9626V16.981H31.84V14.8584Z" fill="black"/>
<path d="M21.2266 23.3491H23.3492V29.717H21.2266V23.3491Z" fill="black"/>
<path d="M14.8584 29.7169H16.981V27.5942H19.1037V25.4716H16.981V21.2263H14.8584V29.7169Z" fill="black"/>
</svg>
