<svg width="225" height="225" viewBox="0 0 225 225" fill="none" xmlns="http://www.w3.org/2000/svg">
<g clip-path="url(#clip0_20903_39385)">
<path d="M225 172.08H0V172.192H225V172.08Z" fill="#E6E6E6"/>
<path d="M62.6085 177.25H37.8V177.363H62.6085V177.25Z" fill="#E6E6E6"/>
<path d="M32.9311 177.304H30.1006V177.417H32.9311V177.304Z" fill="#E6E6E6"/>
<path d="M110.421 175.333H105.147V175.446H110.421V175.333Z" fill="#E6E6E6"/>
<path d="M142.02 175.333H113.013V175.446H142.02V175.333Z" fill="#E6E6E6"/>
<path d="M183.407 177.417H164.507V177.529H183.407V177.417Z" fill="#E6E6E6"/>
<path d="M162.009 177.417H156.001V177.529H162.009V177.417Z" fill="#E6E6E6"/>
<path d="M203.972 175.387H187.947V175.5H203.972V175.387Z" fill="#E6E6E6"/>
<path d="M34.6365 83.052H60.8625L60.8625 43.8795H34.6365V83.052Z" fill="#E6E6E6"/>
<path d="M168.75 21.0253V30.8488C168.75 38.9533 175.32 45.5233 183.425 45.5233C191.529 45.5233 198.099 38.9533 198.099 30.8488V21.0253C198.099 12.9208 191.529 6.35078 183.425 6.35078C175.32 6.35078 168.75 12.9208 168.75 21.0253Z" fill="#E8E8E8"/>
<path d="M51.4889 164.003C50.3504 152.231 49.3289 119.349 49.9949 113.445L51.5699 112.293C51.5699 112.293 51.0885 133.767 51.9345 151.799C52.7805 169.83 52.0559 161.321 52.4114 164.003H51.4889Z" fill="#E0E0E0"/>
<path d="M47.0924 140.584C43.9199 138.091 37.4309 136.318 30.8249 136.327C28.2284 136.35 38.6999 139.23 43.0784 142.425C46.4669 144.909 50.2784 149.085 51.5879 151.402C50.7464 146.524 50.2694 143.1 47.0924 140.584Z" fill="#E0E0E0"/>
<path d="M53.3879 144.27C56.0249 141.673 62.1089 139.68 68.6879 139.45C71.2709 139.365 61.4339 142.623 57.7664 145.962C54.9134 148.558 51.9884 152.851 51.1829 155.209C50.9984 150.3 50.7509 146.866 53.3879 144.27Z" fill="#E0E0E0"/>
<path d="M46.9529 122.999C44.2529 120.888 38.7719 119.399 33.1739 119.399C30.9779 119.399 39.8609 121.856 43.5509 124.565C46.4219 126.666 49.6574 130.203 50.7509 132.165C50.0444 128.03 49.6394 125.1 46.9529 122.999Z" fill="#E0E0E0"/>
<path d="M52.2811 126.122C54.5311 123.921 59.6656 122.234 65.2456 122.04C67.4326 121.968 59.1031 124.74 55.9936 127.553C53.5816 129.749 51.1066 133.403 50.4226 135.383C50.2606 131.243 50.0491 128.322 52.2811 126.122Z" fill="#E0E0E0"/>
<path d="M50.9848 110.039C52.5733 108.239 56.4208 106.722 60.6733 106.331C62.3428 106.173 56.1238 108.662 53.9008 110.975C52.1728 112.775 50.4763 115.677 50.0623 117.243C49.7158 114.066 49.3963 111.825 50.9848 110.039Z" fill="#E0E0E0"/>
<path d="M49.9499 111.227C48.8024 109.683 46.0754 108.342 43.0829 107.968C41.9084 107.82 46.3184 110.007 47.9204 112.019C49.1734 113.636 50.126 115.465 50.7329 117.419C50.9129 114.683 51.0929 112.77 49.9499 111.227Z" fill="#E0E0E0"/>
<path d="M51.696 172.08C50.0207 172.079 48.4089 171.438 47.1908 170.288C45.9727 169.137 45.2405 167.565 45.144 165.892L44.55 160.366H58.815L58.239 165.892C58.1416 167.563 57.4103 169.134 56.1944 170.283C54.9785 171.433 53.3696 172.076 51.696 172.08Z" fill="#F0F0F0"/>
<path d="M59.7555 162.648H43.641L43.1775 158.467H60.2145L59.7555 162.648Z" fill="#EBEBEB"/>
<path d="M187.101 168.746C185.962 156.974 184.941 124.092 185.607 118.188L187.182 117.036C187.182 117.036 186.7 138.51 187.546 156.542C188.392 174.573 187.668 166.064 188.023 168.746H187.101Z" fill="#E0E0E0"/>
<path d="M182.704 145.328C179.531 142.835 173.042 141.062 166.436 141.071C163.84 141.093 174.311 143.973 178.69 147.168C182.078 149.652 185.89 153.828 187.199 156.146C186.358 151.268 185.881 147.843 182.704 145.328Z" fill="#E0E0E0"/>
<path d="M188.999 149.013C191.636 146.417 197.72 144.423 204.299 144.194C206.882 144.108 197.045 147.366 193.378 150.705C190.525 153.302 187.6 157.595 186.794 159.953C186.61 155.043 186.362 151.61 188.999 149.013Z" fill="#E0E0E0"/>
<path d="M195.367 167.391H179.252L178.789 163.211H195.826L195.367 167.391Z" fill="#EBEBEB"/>
<path d="M112.5 192.402C160.687 192.402 199.751 190.121 199.751 187.308C199.751 184.495 160.687 182.214 112.5 182.214C64.3131 182.214 25.2498 184.495 25.2498 187.308C25.2498 190.121 64.3131 192.402 112.5 192.402Z" fill="#F5F5F5"/>
<path d="M95.3922 37.7685C96.8482 32.5473 102.261 29.495 107.482 30.9511L156.643 44.6602C161.864 46.1163 164.916 51.5293 163.46 56.7505L133.581 163.894C132.125 169.116 126.712 172.168 121.491 170.712L72.3307 157.003C67.1095 155.547 64.0572 150.134 65.5132 144.912L95.3922 37.7685Z" fill="#111520"/>
<path d="M97.6646 41.7986C99.1207 36.5774 104.534 33.5251 109.755 34.9812L157.654 48.3388C163.572 49.989 167.031 56.1237 165.381 62.0411L136.381 166.034C134.634 172.299 128.138 175.962 121.872 174.215L74.6032 161.033C69.3819 159.577 66.3296 154.164 67.7857 148.942L97.6646 41.7986Z" fill="#111520"/>
<path d="M97.9133 38.4716C98.9811 34.6427 102.951 32.4043 106.78 33.4721L155.94 47.1813C159.769 48.249 162.007 52.2186 160.939 56.0475L131.06 163.191C129.992 167.02 126.023 169.259 122.194 168.191L73.0338 154.482C69.2049 153.414 66.9666 149.444 68.0344 145.615L97.9133 38.4716Z" fill="#F3F7FF"/>
<path d="M114.973 35.757L147.746 44.8964L146.868 48.0477C146.382 49.7881 144.578 50.8055 142.837 50.3202L116.367 42.9383C114.626 42.453 113.609 40.6487 114.094 38.9082L114.973 35.757Z" fill="#111520"/>
<path d="M159.681 70.301C159.827 69.7789 160.368 69.4737 160.89 69.6193C161.412 69.7649 161.717 70.3062 161.572 70.8283L157.529 85.3242C157.384 85.8464 156.842 86.1516 156.32 86.006C155.798 85.8604 155.493 85.3191 155.638 84.797L159.681 70.301Z" fill="#59616B"/>
<path d="M138.837 44.4498C139.577 44.656 140.058 45.2464 139.912 45.7686C139.767 46.2907 139.049 46.5468 138.31 46.3405L117.778 40.6149C117.039 40.4087 116.557 39.8183 116.703 39.2961C116.848 38.774 117.566 38.5179 118.305 38.7242L138.837 44.4498Z" fill="#59616B"/>
<path d="M153.706 91.7298C153.851 91.2077 154.393 90.9024 154.915 91.048C155.437 91.1936 155.742 91.7349 155.596 92.2571L154.015 97.9294C153.869 98.4515 153.328 98.7567 152.806 98.6111C152.283 98.4655 151.978 97.9242 152.124 97.4021L153.706 91.7298Z" fill="#59616B"/>
<path d="M144.434 47.0295C144.289 47.5516 143.747 47.8569 143.225 47.7113C142.703 47.5657 142.398 47.0244 142.543 46.5023C142.689 45.9801 143.23 45.6749 143.753 45.8205C144.275 45.9661 144.58 46.5074 144.434 47.0295Z" fill="#59616B"/>
<g opacity="0.48">
<path fill-rule="evenodd" clip-rule="evenodd" d="M99.3904 92.6471L100.932 96.2327L98.0762 97.5516L99.3904 92.6471Z" fill="#E55300"/>
<path fill-rule="evenodd" clip-rule="evenodd" d="M99.0158 97.8035L101.168 96.797L101.986 98.5994L99.0158 97.8035Z" fill="#E55300"/>
<path fill-rule="evenodd" clip-rule="evenodd" d="M99.8148 91.0634L100.216 92.0013L101.878 95.8186L102.864 95.3864C102.864 95.3864 102.404 94.4084 102.19 93.3974C101.771 91.4207 102.688 90.5054 102.688 90.5054L100.147 89.8245L99.8148 91.0634Z" fill="#E55300"/>
<path fill-rule="evenodd" clip-rule="evenodd" d="M102.105 96.3998L103.116 95.935C103.116 95.935 103.625 97.1911 104.475 97.683C105.587 98.3275 106.33 97.6793 106.33 97.6793L105.809 99.6238L103.175 98.9178L103.907 98.5606C103.907 98.5606 103.541 98.6853 102.925 97.9543C102.561 97.5229 102.105 96.3998 102.105 96.3998Z" fill="#E55300"/>
<path fill-rule="evenodd" clip-rule="evenodd" d="M103.695 90.7691C103.695 90.7691 103.335 91.0595 103.286 91.9933C103.234 92.9914 103.764 94.2047 103.768 94.1818C103.768 94.1818 104.085 93.2031 104.82 92.7759C106.388 91.8655 107.59 92.9795 107.59 92.9795L107.88 91.8964L103.695 90.7691Z" fill="#E55300"/>
<path fill-rule="evenodd" clip-rule="evenodd" d="M107.239 94.2882C107.239 94.2882 106.638 93.4065 105.959 93.2246C105.091 92.9919 104.415 93.6186 104.268 94.1654C104.055 94.9618 104.317 95.5063 104.595 95.9923C104.996 96.6906 105.504 97.4642 106.457 97.2065C106.7 96.3006 107.239 94.2882 107.239 94.2882Z" fill="#E55300"/>
<path fill-rule="evenodd" clip-rule="evenodd" d="M116.985 94.3302L118.85 94.8299C118.85 94.8299 119.834 97.7656 120.37 99.0132C120.905 100.261 121.465 101.668 121.465 101.668C121.465 101.668 122.377 98.2659 122.85 96.5001C122.91 96.2768 122.411 95.7842 122.411 95.7842L124.562 96.3604C124.562 96.3604 123.779 96.4602 123.706 96.7296C123.117 98.9279 121.692 104.248 121.692 104.248C121.692 104.248 121.115 103.692 120.586 102.597C119.991 101.367 118.003 96.5115 118.003 96.5115C118.003 96.5115 116.968 100.375 116.588 101.792C116.517 102.059 116.996 102.621 116.996 102.621L114.913 102.063C114.913 102.063 115.594 101.808 115.664 101.544C116.175 99.6401 116.934 96.8074 117.407 95.0416C117.47 94.8043 116.985 94.3302 116.985 94.3302Z" fill="#006685"/>
<path fill-rule="evenodd" clip-rule="evenodd" d="M125.766 96.683L128.159 97.3243C128.159 97.3243 127.435 97.4577 127.366 97.7144C126.889 99.4931 126.099 102.442 125.626 104.208C125.551 104.488 126.087 105.057 126.087 105.057L123.694 104.416C123.694 104.416 124.401 104.171 124.474 103.899C125.042 101.779 125.737 99.1843 126.214 97.4057C126.28 97.1588 125.766 96.683 125.766 96.683Z" fill="#006685"/>
<path fill-rule="evenodd" clip-rule="evenodd" d="M109.944 92.4434C109.944 92.4434 110.481 92.9203 110.414 93.172C109.937 94.9507 109.242 97.5451 108.674 99.6655C108.6 99.9415 107.872 100.176 107.872 100.176C107.872 100.176 110.972 101.007 111.418 101.126C111.639 101.186 114.23 101.443 114.745 99.5223C115.26 97.6013 113.38 96.9048 113.38 96.9048C113.38 96.9048 114.642 96.8917 114.995 95.5774C115.374 94.1607 113.711 93.4528 113.49 93.3935C113.029 93.2701 109.944 92.4434 109.944 92.4434ZM110.977 96.1244L111.624 93.7068C111.624 93.7068 112.652 93.9822 113.065 94.0928C113.286 94.1521 113.992 94.6197 113.734 95.5835C113.521 96.3778 112.639 96.5697 112.417 96.5103C111.915 96.3757 110.977 96.1244 110.977 96.1244ZM110.807 96.7585C110.807 96.7585 112.247 97.1444 112.469 97.2038C112.69 97.2632 113.906 97.9544 113.601 99.0933C113.29 100.254 111.872 100.316 111.651 100.256C111.429 100.197 109.989 99.8108 109.989 99.8108L110.807 96.7585Z" fill="#006685"/>
</g>
<rect x="34.9543" y="113.407" width="36.2903" height="12.3649" rx="5" transform="rotate(15 34.9543 113.407)" fill="#F3F7FF"/>
<rect x="34.9543" y="113.407" width="36.2903" height="12.3649" rx="5" transform="rotate(15 34.9543 113.407)" fill="#F3F7FF"/>
<rect x="34.9543" y="113.407" width="36.2903" height="12.3649" rx="5" transform="rotate(15 34.9543 113.407)" fill="#F3F7FF"/>
<rect x="90.2969" y="127.923" width="36.2903" height="12.3649" rx="5" transform="rotate(15 90.2969 127.923)" fill="#F3F7FF"/>
<rect x="90.2969" y="127.923" width="36.2903" height="12.3649" rx="5" transform="rotate(15 90.2969 127.923)" fill="#F3F7FF"/>
<rect x="90.2969" y="127.923" width="36.2903" height="12.3649" rx="5" transform="rotate(15 90.2969 127.923)" fill="#F3F7FF"/>
<rect x="148.362" y="143.347" width="36.2903" height="12.3649" rx="5" transform="rotate(15 148.362 143.347)" fill="#F3F7FF"/>
<rect x="148.362" y="143.347" width="36.2903" height="12.3649" rx="5" transform="rotate(15 148.362 143.347)" fill="#F3F7FF"/>
<rect x="148.362" y="143.347" width="36.2903" height="12.3649" rx="5" transform="rotate(15 148.362 143.347)" fill="#F3F7FF"/>
</g>
<defs>
<clipPath id="clip0_20903_39385">
<rect width="225" height="225" fill="white"/>
</clipPath>
</defs>
</svg>
