<svg width="106" height="116" viewBox="0 0 106 116" fill="none" xmlns="http://www.w3.org/2000/svg">
<g opacity="0.13">
<path d="M74.6735 18.2714C74.4802 19.4798 74.3836 20.6881 74.3836 21.8964C74.3836 32.7714 83.1802 41.5633 94.0069 41.5633C95.2152 41.5633 96.3752 41.4231 97.5836 41.2298V80.2299C97.5836 96.6198 87.9169 106.335 71.4836 106.335H35.77C19.3319 106.335 9.66521 96.6198 9.66521 80.2299V44.4681C9.66521 28.0348 19.3319 18.2714 35.77 18.2714H74.6735ZM75.6451 47.6581C74.3352 47.5131 73.035 48.0931 72.2569 49.1564L60.5651 64.2848L47.1719 53.7481C46.3502 53.1198 45.3835 52.8733 44.4169 52.9748C43.455 53.1198 42.585 53.6466 42.0002 54.4199L27.6984 73.0331L27.4035 73.4681C26.5819 75.0099 26.9685 76.9916 28.4185 78.0598C29.0952 78.4948 29.8202 78.7848 30.6419 78.7848C31.7584 78.8331 32.8169 78.2483 33.4935 77.3348L45.6252 61.7183L59.4002 72.0665L59.8352 72.3516C61.3819 73.1733 63.3152 72.7915 64.4269 71.3366L78.3952 53.3131L78.2019 53.4098C78.9752 52.3464 79.1202 50.9931 78.5886 49.7848C78.0617 48.5764 76.8969 47.7548 75.6451 47.6581ZM94.684 9.66666C101.112 9.66666 106.332 14.8867 106.332 21.315C106.332 27.7433 101.112 32.9633 94.684 32.9633C88.2557 32.9633 83.0357 27.7433 83.0357 21.315C83.0357 14.8867 88.2557 9.66666 94.684 9.66666Z" fill="#005E6A" fill-opacity="0.5"/>
</g>
</svg>
