<svg width="390" height="168" viewBox="0 0 390 168" fill="none" xmlns="http://www.w3.org/2000/svg">
<g clip-path="url(#clip0_57102_106550)">
<path d="M0 0H390V152C390 160.837 382.837 168 374 168H16C7.16344 168 0 160.837 0 152V0Z" fill="#004558"/>
<g style="mix-blend-mode:soft-light" clip-path="url(#clip1_57102_106550)">
<path fill-rule="evenodd" clip-rule="evenodd" d="M375.5 143C448.678 143 508 83.6777 508 10.5C508 -62.6777 448.678 -122 375.5 -122C302.322 -122 243 -62.6777 243 10.5C243 83.6777 302.322 143 375.5 143ZM375.5 144C449.23 144 509 84.23 509 10.5C509 -63.23 449.23 -123 375.5 -123C301.77 -123 242 -63.23 242 10.5C242 84.23 301.77 144 375.5 144Z" fill="white" fill-opacity="0.2"/>
<path fill-rule="evenodd" clip-rule="evenodd" d="M376.043 118.335C435.299 118.335 483.335 70.2984 483.335 11.0428C483.335 -48.2128 435.299 -96.2489 376.043 -96.2489C316.787 -96.2489 268.751 -48.2128 268.751 11.0428C268.751 70.2984 316.787 118.335 376.043 118.335ZM376.043 119.335C435.851 119.335 484.335 70.8507 484.335 11.0428C484.335 -48.7651 435.851 -97.2489 376.043 -97.2489C316.235 -97.2489 267.751 -48.7651 267.751 11.0428C267.751 70.8507 316.235 119.335 376.043 119.335Z" fill="white" fill-opacity="0.4"/>
<path fill-rule="evenodd" clip-rule="evenodd" d="M375.904 93.6606C421.609 93.6606 458.661 56.6091 458.661 10.9037C458.661 -34.8016 421.609 -71.8531 375.904 -71.8531C330.199 -71.8531 293.147 -34.8016 293.147 10.9037C293.147 56.6091 330.199 93.6606 375.904 93.6606ZM375.904 94.6606C422.162 94.6606 459.661 57.1614 459.661 10.9037C459.661 -35.3539 422.162 -72.8531 375.904 -72.8531C329.646 -72.8531 292.147 -35.3539 292.147 10.9037C292.147 57.1614 329.646 94.6606 375.904 94.6606Z" fill="white" fill-opacity="0.6"/>
<path fill-rule="evenodd" clip-rule="evenodd" d="M375.256 69.324C407.878 69.324 434.324 42.8783 434.324 10.2559C434.324 -22.3665 407.878 -48.8121 375.256 -48.8121C342.634 -48.8121 316.188 -22.3665 316.188 10.2559C316.188 42.8783 342.634 69.324 375.256 69.324ZM375.256 70.324C408.431 70.324 435.324 43.4306 435.324 10.2559C435.324 -22.9188 408.431 -49.8121 375.256 -49.8121C342.081 -49.8121 315.188 -22.9188 315.188 10.2559C315.188 43.4306 342.081 70.324 375.256 70.324Z" fill="white" fill-opacity="0.8"/>
<path fill-rule="evenodd" clip-rule="evenodd" d="M375.117 44.65C394.189 44.65 409.65 29.189 409.65 10.1168C409.65 -8.95534 394.189 -24.4164 375.117 -24.4164C356.045 -24.4164 340.584 -8.95534 340.584 10.1168C340.584 29.189 356.045 44.65 375.117 44.65ZM375.117 45.65C394.741 45.65 410.65 29.7413 410.65 10.1168C410.65 -9.50762 394.741 -25.4164 375.117 -25.4164C355.492 -25.4164 339.584 -9.50762 339.584 10.1168C339.584 29.7413 355.492 45.65 375.117 45.65Z" fill="white"/>
</g>
</g>
<defs>
<clipPath id="clip0_57102_106550">
<rect width="390" height="168" fill="white"/>
</clipPath>
<clipPath id="clip1_57102_106550">
<rect width="148" height="144" fill="white" transform="translate(242)"/>
</clipPath>
</defs>
</svg>
