<svg width="57" height="56" viewBox="0 0 57 56" fill="none" xmlns="http://www.w3.org/2000/svg">
<g clip-path="url(#clip0_56658_1795)">
<rect x="0.5" width="56" height="56" rx="24" fill="url(#paint0_linear_56658_1795)"/>
<g style="mix-blend-mode:overlay" opacity="0.1">
<path d="M25.1468 -9H-6.5V-8.95031H16.1724C16.1724 -8.95031 10.5847 0.714015 18.4777 16.2368C22.5138 24.1766 28.526 31.2917 28.526 31.2917L21.2841 37.0883L-1.0648 9.01595L-6.5 2.1042V16.2381L14.3286 42.6499L-6.5 59.9996L1.88316 60L17.5554 46.8204L28.3879 60H38.9896L44.2909 55.3927C44.2909 55.3927 41.5248 57.2462 34.7605 52.5366C30.7681 49.7566 24.4696 41.4235 24.4696 41.4235L31.8446 35.2997C31.8446 35.2997 38.8885 44.6204 47.0569 46.8204C57.7597 49.7035 62.4983 42.6503 62.4983 42.6503L62.5 38.4313C55.141 42.7021 49.1862 37.3957 44.2917 32.4756C40.8864 29.0521 37.4929 25.1031 37.4929 17.9968C37.4929 13.1179 41.7228 6.39225 49.4734 6.39225C55.5319 6.39225 62.5 12.3922 62.5 12.3922L62.4983 0.714857C62.4983 0.714857 50.0082 -5.87851 38.9896 5.19789C33.8197 10.3943 33.3623 19.2496 33.3623 19.2496C33.3783 19.4493 26.2594 10.5312 24.4688 2.10504C22.7943 -5.77828 25.1468 -9 25.1468 -9Z" fill="black"/>
<path d="M62.4983 -8.94946L62.4992 -9H25.1468L62.4983 -8.94946Z" fill="black"/>
</g>
<path d="M40.2097 33.0903C39.8441 33.0903 39.5376 32.9639 39.2903 32.7113C39.043 32.4587 38.9194 32.1457 38.9194 31.7722V23.9957L28.5645 29.7622C28.371 29.872 28.172 29.9544 27.9677 30.0093C27.7634 30.0642 27.543 30.0917 27.3065 30.0917C27.0699 30.0917 26.8495 30.0642 26.6452 30.0093C26.4409 29.9544 26.2419 29.872 26.0484 29.7622L15.1774 23.6991C14.9624 23.5893 14.7957 23.43 14.6774 23.2213C14.5591 23.0127 14.5 22.7875 14.5 22.5458C14.5 22.3042 14.5591 22.079 14.6774 21.8703C14.7957 21.6617 14.9624 21.5024 15.1774 21.3925L26.0806 15.3295C26.2742 15.2197 26.4731 15.1373 26.6774 15.0824C26.8817 15.0275 27.0914 15 27.3065 15C27.5215 15 27.7312 15.0275 27.9355 15.0824C28.1398 15.1373 28.3387 15.2197 28.5323 15.3295L40.8226 22.1834C41.0376 22.2932 41.2043 22.4525 41.3226 22.6612C41.4409 22.8699 41.5 23.095 41.5 23.3367V31.7722C41.5 32.1457 41.3763 32.4587 41.129 32.7113C40.8817 32.9639 40.5753 33.0903 40.2097 33.0903ZM27.3065 38C27.0914 38 26.8817 37.9725 26.6774 37.9176C26.4731 37.8627 26.2742 37.7803 26.0806 37.6705L19.629 34.1117C19.1989 33.8701 18.8656 33.5461 18.629 33.1397C18.3925 32.7333 18.2742 32.2775 18.2742 31.7722V26.7636L25.5968 30.8166C25.8763 30.9704 26.1559 31.1077 26.4355 31.2285C26.7151 31.3493 27.0054 31.4097 27.3065 31.4097C27.6075 31.4097 27.9032 31.3438 28.1935 31.212C28.4839 31.0802 28.7688 30.9374 29.0484 30.7837L36.3387 26.7636V31.7722C36.3387 32.2775 36.2204 32.7333 35.9839 33.1397C35.7473 33.5461 35.414 33.8701 34.9839 34.1117L28.5323 37.6705C28.3387 37.7803 28.1398 37.8627 27.9355 37.9176C27.7312 37.9725 27.5215 38 27.3065 38Z" fill="white"/>
</g>
<defs>
<linearGradient id="paint0_linear_56658_1795" x1="28.5" y1="0" x2="28.5" y2="56" gradientUnits="userSpaceOnUse">
<stop stop-color="#8A79FB"/>
<stop offset="1" stop-color="#6650F7"/>
</linearGradient>
<clipPath id="clip0_56658_1795">
<rect x="0.5" width="56" height="56" rx="24" fill="white"/>
</clipPath>
</defs>
</svg>
