<svg width="57" height="56" viewBox="0 0 57 56" fill="none" xmlns="http://www.w3.org/2000/svg">
<g clip-path="url(#clip0_1708_13019)">
<rect x="0.5" width="56" height="56" rx="24" fill="url(#paint0_linear_1708_13019)"/>
<g style="mix-blend-mode:overlay" opacity="0.1">
<path d="M25.1468 -9H-6.5V-8.95031H16.1724C16.1724 -8.95031 10.5847 0.714015 18.4777 16.2368C22.5138 24.1766 28.526 31.2917 28.526 31.2917L21.2841 37.0883L-1.0648 9.01595L-6.5 2.1042V16.2381L14.3286 42.6499L-6.5 59.9996L1.88316 60L17.5554 46.8204L28.3879 60H38.9896L44.2909 55.3927C44.2909 55.3927 41.5248 57.2462 34.7605 52.5366C30.7681 49.7566 24.4696 41.4235 24.4696 41.4235L31.8446 35.2997C31.8446 35.2997 38.8885 44.6204 47.0569 46.8204C57.7597 49.7035 62.4983 42.6503 62.4983 42.6503L62.5 38.4313C55.141 42.7021 49.1862 37.3957 44.2917 32.4756C40.8864 29.0521 37.4929 25.1031 37.4929 17.9968C37.4929 13.1179 41.7228 6.39225 49.4734 6.39225C55.5319 6.39225 62.5 12.3922 62.5 12.3922L62.4983 0.714857C62.4983 0.714857 50.0082 -5.87851 38.9896 5.19789C33.8197 10.3943 33.3623 19.2496 33.3623 19.2496C33.3783 19.4493 26.2594 10.5312 24.4688 2.10504C22.7943 -5.77828 25.1468 -9 25.1468 -9Z" fill="black"/>
<path d="M62.4983 -8.94946L62.4992 -9H25.1468L62.4983 -8.94946Z" fill="black"/>
</g>
<path d="M30.4001 16.8C30.4001 18.3464 29.1465 19.6 27.6001 19.6C26.0538 19.6 24.8001 18.3464 24.8001 16.8C24.8001 15.2536 26.0538 14 27.6001 14C29.1465 14 30.4001 15.2536 30.4001 16.8Z" fill="white"/>
<path d="M21.7824 40.849C22.2179 41.2016 22.7261 41.3779 23.3068 41.3779H27.6V34.8C27.6 32.5909 29.3909 30.8 31.6 30.8H37.4458C38.1953 30.791 38.8001 30.1806 38.8001 29.4289V27.689C38.8001 27.3364 38.6807 27.0406 38.4417 26.8017C38.2036 26.5636 37.9083 26.4445 37.5557 26.4445H28.8446V25.5424C30.4624 25.252 31.8416 24.5207 32.9824 23.3484C34.1231 22.177 34.7972 20.772 35.0046 19.1335C35.0461 18.8846 34.9735 18.6668 34.7868 18.4801C34.6001 18.2935 34.3824 18.2209 34.1335 18.2624C32.2876 18.4905 30.737 19.3044 29.4817 20.704C28.2273 22.1044 27.6001 23.7587 27.6001 25.6668C27.6001 23.7587 26.9729 22.1044 25.7185 20.704C24.4633 19.3044 22.9127 18.4905 21.0668 18.2624C20.8179 18.2209 20.6001 18.2935 20.4135 18.4801C20.2268 18.6668 20.1542 18.8846 20.1957 19.1335C20.4031 20.772 21.0772 22.177 22.2179 23.3484C23.3587 24.5207 24.7379 25.252 26.3557 25.5424V26.4445H17.6446C17.292 26.4445 16.9967 26.5636 16.7585 26.8017C16.5196 27.0406 16.4001 27.3364 16.4001 27.689V31.4223C16.4001 32.1067 16.6436 32.6925 17.1306 33.1795C17.6185 33.6673 18.2046 33.9112 18.889 33.9112H19.5113L20.9113 39.4801C21.0564 40.0401 21.3468 40.4964 21.7824 40.849Z" fill="white"/>
<path fill-rule="evenodd" clip-rule="evenodd" d="M31.1 34C30.7134 34 30.4 34.3064 30.4 34.6844V39.4756C30.4 39.8536 30.7134 40.16 31.1 40.16C31.4866 40.16 31.8 39.8536 31.8 39.4756V38.1067H33.5254L34.7176 39.8552C34.932 40.1697 35.3666 40.2547 35.6883 40.045C36.01 39.8354 36.0969 39.4104 35.8825 39.0959L35.0088 37.8145C35.068 37.7811 35.1266 37.7443 35.184 37.7039C35.656 37.3717 36 36.824 36 36.0533C36 35.2827 35.656 34.735 35.184 34.4028C34.7478 34.0957 34.2454 34 33.9 34H31.1ZM33.9 36.7378H31.8V35.3689H33.9C34.0213 35.3689 34.2189 35.4101 34.366 35.5137C34.4774 35.5921 34.6 35.7289 34.6 36.0533C34.6 36.3778 34.4774 36.5146 34.366 36.593C34.2189 36.6966 34.0213 36.7378 33.9 36.7378ZM37.4 36.0533C37.0134 36.0533 36.7 36.3598 36.7 36.7378V41.5289C36.7 41.9069 37.0134 42.2133 37.4 42.2133C37.7866 42.2133 38.1 41.9069 38.1 41.5289V40.16H39.5C39.8454 40.16 40.3478 40.0643 40.784 39.7572C41.256 39.425 41.6 38.8773 41.6 38.1067C41.6 37.336 41.256 36.7883 40.784 36.4561C40.3478 36.149 39.8454 36.0533 39.5 36.0533H37.4ZM39.5 38.7911H38.1V37.4222H39.5C39.6213 37.4222 39.8189 37.4634 39.966 37.567C40.0774 37.6454 40.2 37.7822 40.2 38.1067C40.2 38.4311 40.0774 38.5679 39.966 38.6463C39.8189 38.7499 39.6213 38.7911 39.5 38.7911Z" fill="white"/>
</g>
<defs>
<linearGradient id="paint0_linear_1708_13019" x1="28.5" y1="0" x2="28.5" y2="56" gradientUnits="userSpaceOnUse">
<stop stop-color="#FF7F08"/>
<stop offset="1" stop-color="#F16602"/>
</linearGradient>
<clipPath id="clip0_1708_13019">
<rect x="0.5" width="56" height="56" rx="24" fill="white"/>
</clipPath>
</defs>
</svg>
