<svg width="57" height="56" viewBox="0 0 57 56" fill="none" xmlns="http://www.w3.org/2000/svg">
<g clip-path="url(#clip0_1596_12793)">
<rect x="0.5" width="56" height="56" rx="24" fill="url(#paint0_linear_1596_12793)"/>
<g style="mix-blend-mode:overlay" opacity="0.1">
<path d="M25.1468 -9H-6.5V-8.95031H16.1724C16.1724 -8.95031 10.5847 0.714015 18.4777 16.2368C22.5138 24.1766 28.526 31.2917 28.526 31.2917L21.2841 37.0883L-1.0648 9.01595L-6.5 2.1042V16.2381L14.3286 42.6499L-6.5 59.9996L1.88316 60L17.5554 46.8204L28.3879 60H38.9896L44.2909 55.3927C44.2909 55.3927 41.5248 57.2462 34.7605 52.5366C30.7681 49.7566 24.4696 41.4235 24.4696 41.4235L31.8446 35.2997C31.8446 35.2997 38.8885 44.6204 47.0569 46.8204C57.7597 49.7035 62.4983 42.6503 62.4983 42.6503L62.5 38.4313C55.141 42.7021 49.1862 37.3957 44.2917 32.4756C40.8864 29.0521 37.4929 25.1031 37.4929 17.9968C37.4929 13.1179 41.7228 6.39225 49.4734 6.39225C55.5319 6.39225 62.5 12.3922 62.5 12.3922L62.4983 0.714857C62.4983 0.714857 50.0082 -5.87851 38.9896 5.19789C33.8197 10.3943 33.3623 19.2496 33.3623 19.2496C33.3783 19.4493 26.2594 10.5312 24.4688 2.10504C22.7943 -5.77828 25.1468 -9 25.1468 -9Z" fill="black"/>
<path d="M62.4983 -8.94946L62.4992 -9H25.1468L62.4983 -8.94946Z" fill="black"/>
</g>
<g clip-path="url(#clip1_1596_12793)">
<path fill-rule="evenodd" clip-rule="evenodd" d="M20.4998 38.6667H36.4998V41.3333H39.1665V38.6667H40.4998C40.8535 38.6667 41.1926 38.5262 41.4426 38.2761C41.6927 38.0261 41.8332 37.687 41.8332 37.3333V17.3333C41.8332 16.9797 41.6927 16.6406 41.4426 16.3905C41.1926 16.1405 40.8535 16 40.4998 16H16.4998C16.1462 16 15.8071 16.1405 15.557 16.3905C15.307 16.6406 15.1665 16.9797 15.1665 17.3333V37.3333C15.1665 37.687 15.307 38.0261 15.557 38.2761C15.8071 38.5262 16.1462 38.6667 16.4998 38.6667H17.8332V41.3333H20.4998V38.6667ZM30.1538 32V29.4987C31.4119 29.1752 32.5087 28.4037 33.2383 27.3289C33.9679 26.2542 34.2802 24.9501 34.1166 23.6614C33.9529 22.3727 33.3245 21.1881 32.3494 20.3298C31.3743 19.4716 30.1195 18.9987 28.8204 19C27.5244 19.0038 26.274 19.4792 25.3027 20.3374C24.3315 21.1956 23.7058 22.378 23.5425 23.6637C23.3792 24.9495 23.6895 26.2507 24.4154 27.3244C25.1413 28.3982 26.2331 29.171 27.4871 29.4987V32H30.1538ZM30.7061 26.219C30.206 26.7191 29.5277 27 28.8204 27C28.1132 27 27.4349 26.7191 26.9348 26.219C26.4347 25.7189 26.1538 25.0406 26.1538 24.3333C26.1538 23.6261 26.4347 22.9478 26.9348 22.4477C27.4349 21.9476 28.1132 21.6667 28.8204 21.6667C29.5277 21.6667 30.206 21.9476 30.7061 22.4477C31.2062 22.9478 31.4871 23.6261 31.4871 24.3333C31.4871 25.0406 31.2062 25.7189 30.7061 26.219Z" fill="white"/>
</g>
</g>
<defs>
<linearGradient id="paint0_linear_1596_12793" x1="28.5" y1="0" x2="28.5" y2="56" gradientUnits="userSpaceOnUse">
<stop stop-color="#FF7F08"/>
<stop offset="1" stop-color="#F16602"/>
</linearGradient>
<clipPath id="clip0_1596_12793">
<rect x="0.5" width="56" height="56" rx="24" fill="white"/>
</clipPath>
<clipPath id="clip1_1596_12793">
<rect width="32" height="32" fill="white" transform="translate(12.5 12)"/>
</clipPath>
</defs>
</svg>
