<svg width="32" height="32" viewBox="0 0 32 32" fill="none" xmlns="http://www.w3.org/2000/svg">
<path d="M16 19.9333C15.8223 19.9333 15.6556 19.9053 15.5 19.8493C15.3445 19.7942 15.2 19.7 15.0667 19.5667L8.90004 13.4C8.6556 13.1555 8.53915 12.8498 8.55071 12.4827C8.56138 12.1164 8.68893 11.8111 8.93338 11.5667C9.17782 11.3222 9.48893 11.2 9.86671 11.2C10.2445 11.2 10.5556 11.3222 10.8 11.5667L16 16.7667L21.2334 11.5333C21.4778 11.2889 21.7836 11.172 22.1507 11.1827C22.5169 11.1942 22.8223 11.3222 23.0667 11.5667C23.3112 11.8111 23.4334 12.1222 23.4334 12.5C23.4334 12.8778 23.3112 13.1889 23.0667 13.4333L16.9334 19.5667C16.8 19.7 16.6556 19.7942 16.5 19.8493C16.3445 19.9053 16.1778 19.9333 16 19.9333Z" fill="white"/>
</svg>
