<svg width="57" height="56" viewBox="0 0 57 56" fill="none" xmlns="http://www.w3.org/2000/svg">
<g clip-path="url(#clip0_56658_1858)">
<rect x="0.5" width="56" height="56" rx="24" fill="url(#paint0_linear_56658_1858)"/>
<g style="mix-blend-mode:overlay" opacity="0.1">
<path d="M25.1468 -9H-6.5V-8.95031H16.1724C16.1724 -8.95031 10.5847 0.714015 18.4777 16.2368C22.5138 24.1766 28.526 31.2917 28.526 31.2917L21.2841 37.0883L-1.0648 9.01595L-6.5 2.1042V16.2381L14.3286 42.6499L-6.5 59.9996L1.88316 60L17.5554 46.8204L28.3879 60H38.9896L44.2909 55.3927C44.2909 55.3927 41.5248 57.2462 34.7605 52.5366C30.7681 49.7566 24.4696 41.4235 24.4696 41.4235L31.8446 35.2997C31.8446 35.2997 38.8885 44.6204 47.0569 46.8204C57.7597 49.7035 62.4983 42.6503 62.4983 42.6503L62.5 38.4313C55.141 42.7021 49.1862 37.3957 44.2917 32.4756C40.8864 29.0521 37.4929 25.1031 37.4929 17.9968C37.4929 13.1179 41.7228 6.39225 49.4734 6.39225C55.5319 6.39225 62.5 12.3922 62.5 12.3922L62.4983 0.714857C62.4983 0.714857 50.0082 -5.87851 38.9896 5.19789C33.8197 10.3943 33.3623 19.2496 33.3623 19.2496C33.3783 19.4493 26.2594 10.5312 24.4688 2.10504C22.7943 -5.77828 25.1468 -9 25.1468 -9Z" fill="black"/>
<path d="M62.4983 -8.94946L62.4992 -9H25.1468L62.4983 -8.94946Z" fill="black"/>
</g>
<path d="M19.3797 36.6119L17.5842 29.7715C17.4649 29.2908 17.4724 28.8152 17.6067 28.3448C17.741 27.8744 18.0342 27.5524 18.4862 27.3788L19.499 26.9978V21.4184C19.499 20.6247 19.7711 19.9467 20.3153 19.3844C20.8594 18.822 21.5133 18.5408 22.277 18.5408H25.0988V16.5639C25.0988 16.1294 25.243 15.7601 25.5315 15.4561C25.82 15.152 26.1704 15 26.5827 15H31.4106C31.8229 15 32.1733 15.152 32.4618 15.4561C32.7503 15.7601 32.8946 16.1294 32.8946 16.5639V18.5408H35.7163C36.48 18.5408 37.1339 18.822 37.6781 19.3844C38.2222 19.9467 38.4943 20.6247 38.4943 21.4184V26.9978L39.5071 27.3788C39.9413 27.5473 40.2326 27.8562 40.3811 28.3057C40.5297 28.7552 40.539 29.2437 40.4091 29.7715L38.6136 36.6119C37.8467 36.6119 37.1323 36.5034 36.4705 36.2866C35.8087 36.0698 35.2087 35.7869 34.6706 35.438C34.4897 35.3311 34.3026 35.246 34.1095 35.1827C33.9163 35.1194 33.7158 35.0933 33.5081 35.1044C33.3003 35.1155 33.0946 35.1528 32.8909 35.2161C32.6872 35.2793 32.4949 35.37 32.3139 35.488C31.8391 35.8259 31.323 36.0976 30.7654 36.3033C30.2079 36.509 29.6183 36.6119 28.9967 36.6119C28.375 36.6119 27.7854 36.509 27.2279 36.3033C26.6704 36.0976 26.1542 35.8259 25.6794 35.488C25.4985 35.37 25.3061 35.2793 25.1024 35.2161C24.8987 35.1528 24.693 35.1155 24.4853 35.1044C24.2775 35.0933 24.077 35.1194 23.8839 35.1827C23.6907 35.246 23.5037 35.3311 23.3227 35.438C22.7846 35.7869 22.1847 36.0698 21.5229 36.2866C20.861 36.5034 20.1467 36.6119 19.3797 36.6119ZM19.2812 42C18.8689 42 18.5185 41.848 18.23 41.5441C17.9415 41.24 17.7972 40.8707 17.7972 40.4362C17.7972 40.0017 17.9415 39.6325 18.23 39.3284C18.5185 39.0243 18.8689 38.8723 19.2812 38.8723H20.0371C20.6693 38.8723 21.2948 38.7894 21.9136 38.6234C22.5324 38.4575 23.1299 38.2086 23.7061 37.8768C23.8206 37.8066 23.949 37.754 24.0914 37.719C24.2339 37.6839 24.3757 37.6664 24.5169 37.6664C24.6581 37.6664 24.7999 37.6839 24.9424 37.719C25.0848 37.754 25.2132 37.8066 25.3276 37.8768C25.9038 38.2001 26.5013 38.437 27.1201 38.5875C27.7389 38.738 28.3645 38.8133 28.9967 38.8133C29.6289 38.8133 30.2544 38.738 30.8732 38.5875C31.492 38.437 32.0895 38.2001 32.6657 37.8768C32.7801 37.8066 32.9086 37.754 33.051 37.719C33.1934 37.6839 33.3352 37.6664 33.4764 37.6664C33.6176 37.6664 33.7595 37.6839 33.9019 37.719C34.0443 37.754 34.1728 37.8066 34.2872 37.8768C34.8634 38.2086 35.4609 38.4575 36.0797 38.6234C36.6985 38.7894 37.324 38.8723 37.9562 38.8723H38.7121C39.1244 38.8723 39.4748 39.0243 39.7633 39.3284C40.0518 39.6325 40.1961 40.0017 40.1961 40.4362C40.1961 40.8707 40.0518 41.24 39.7633 41.5441C39.4748 41.848 39.1244 42 38.7121 42H37.9562C37.1723 42 36.407 41.9016 35.6603 41.7049C34.9137 41.5082 34.1857 41.2132 33.4764 40.8198C32.7671 41.2132 32.0345 41.5082 31.2785 41.7049C30.5226 41.9016 29.762 42 28.9967 42C28.2314 42 27.4707 41.9016 26.7148 41.7049C25.9588 41.5082 25.2262 41.2132 24.5169 40.8198C23.8076 41.2132 23.0796 41.5082 22.333 41.7049C21.5864 41.9016 20.8211 42 20.0371 42H19.2812ZM22.4669 26.0471L28.0751 24.1484C28.373 24.0475 28.6801 23.997 28.9967 23.997C29.3132 23.997 29.6204 24.0475 29.9182 24.1484L35.5264 26.0471V21.6686H22.4669V26.0471Z" fill="white"/>
</g>
<defs>
<linearGradient id="paint0_linear_56658_1858" x1="28.5" y1="0" x2="28.5" y2="56" gradientUnits="userSpaceOnUse">
<stop stop-color="#8A79FB"/>
<stop offset="1" stop-color="#6650F7"/>
</linearGradient>
<clipPath id="clip0_56658_1858">
<rect x="0.5" width="56" height="56" rx="24" fill="white"/>
</clipPath>
</defs>
</svg>
