<svg width="57" height="56" viewBox="0 0 57 56" fill="none" xmlns="http://www.w3.org/2000/svg">
<g clip-path="url(#clip0_56658_1456)">
<rect x="0.5" width="56" height="56" rx="24" fill="url(#paint0_linear_56658_1456)"/>
<g style="mix-blend-mode:overlay" opacity="0.1">
<path d="M25.1468 -9H-6.5V-8.95031H16.1724C16.1724 -8.95031 10.5847 0.714015 18.4777 16.2368C22.5138 24.1766 28.526 31.2917 28.526 31.2917L21.2841 37.0883L-1.0648 9.01595L-6.5 2.1042V16.2381L14.3286 42.6499L-6.5 59.9996L1.88316 60L17.5554 46.8204L28.3879 60H38.9896L44.2909 55.3927C44.2909 55.3927 41.5248 57.2462 34.7605 52.5366C30.7681 49.7566 24.4696 41.4235 24.4696 41.4235L31.8446 35.2997C31.8446 35.2997 38.8885 44.6204 47.0569 46.8204C57.7597 49.7035 62.4983 42.6503 62.4983 42.6503L62.5 38.4313C55.141 42.7021 49.1862 37.3957 44.2917 32.4756C40.8864 29.0521 37.4929 25.1031 37.4929 17.9968C37.4929 13.1179 41.7228 6.39225 49.4734 6.39225C55.5319 6.39225 62.5 12.3922 62.5 12.3922L62.4983 0.714857C62.4983 0.714857 50.0082 -5.87851 38.9896 5.19789C33.8197 10.3943 33.3623 19.2496 33.3623 19.2496C33.3783 19.4493 26.2594 10.5312 24.4688 2.10504C22.7943 -5.77828 25.1468 -9 25.1468 -9Z" fill="black"/>
<path d="M62.4983 -8.94946L62.4992 -9H25.1468L62.4983 -8.94946Z" fill="black"/>
</g>
<path fill-rule="evenodd" clip-rule="evenodd" d="M28.1667 38.6668H17.3333C16.6 38.6668 15.9724 38.4059 15.4506 37.8842C14.928 37.3615 14.6666 36.7335 14.6666 36.0002V20.0002C14.6666 19.2668 14.928 18.6393 15.4506 18.1175C15.9724 17.5948 16.6 17.3335 17.3333 17.3335H38.6666C39.4 17.3335 40.028 17.5948 40.5506 18.1175C41.0724 18.6393 41.3333 19.2668 41.3333 20.0002V28.0002H38.6666H17.3333V36.0002H28.1667C28.903 36.0002 29.5 36.5971 29.5 37.3335C29.5 38.0699 28.903 38.6668 28.1667 38.6668ZM17.3333 20.0002V22.6668H38.6666V20.0002H17.3333ZM35.9844 36.0625L36.8438 36.9375L39.0469 34.7344C39.1719 34.6094 39.3204 34.5469 39.4925 34.5469C39.6642 34.5469 39.8125 34.6094 39.9375 34.7344C40.0625 34.8594 40.125 35.0077 40.125 35.1794C40.125 35.3515 40.0625 35.5 39.9375 35.625L37.2812 38.2812C37.1562 38.4062 37.0104 38.4688 36.8438 38.4688C36.6771 38.4688 36.5312 38.4062 36.4062 38.2812L35.0781 36.9531C34.9531 36.8281 34.8933 36.6796 34.8988 36.5075C34.9037 36.3358 34.9688 36.1875 35.0938 36.0625C35.2188 35.9375 35.3673 35.875 35.5394 35.875C35.711 35.875 35.8594 35.9375 35.9844 36.0625ZM37.3438 42.7031H37.5C37.6458 42.7031 37.7448 42.6927 37.7969 42.6719C39.1615 42.2448 40.2865 41.3983 41.1719 40.1325C42.0573 38.8671 42.5 37.4688 42.5 35.9375V32.9844C42.5 32.724 42.4246 32.4896 42.2738 32.2812C42.1225 32.0729 41.9271 31.9219 41.6875 31.8281L37.9375 30.4219C37.7917 30.3698 37.6458 30.3438 37.5 30.3438C37.3542 30.3438 37.2083 30.3698 37.0625 30.4219L33.3125 31.8281C33.0729 31.9219 32.8777 32.0729 32.7269 32.2812C32.5756 32.4896 32.5 32.724 32.5 32.9844V35.9375C32.5 37.4688 32.9427 38.8671 33.8281 40.1325C34.7135 41.3983 35.8385 42.2448 37.2031 42.6719C37.2448 42.6927 37.2917 42.7031 37.3438 42.7031Z" fill="white"/>
</g>
<defs>
<linearGradient id="paint0_linear_56658_1456" x1="28.5" y1="0" x2="28.5" y2="56" gradientUnits="userSpaceOnUse">
<stop stop-color="#F7CC34"/>
<stop offset="1" stop-color="#F7B534"/>
</linearGradient>
<clipPath id="clip0_56658_1456">
<rect x="0.5" width="56" height="56" rx="24" fill="white"/>
</clipPath>
</defs>
</svg>
