<svg width="56" height="56" viewBox="0 0 56 56" fill="none" xmlns="http://www.w3.org/2000/svg">
<rect x="0.5" y="0.5" width="55" height="55" rx="23.5" fill="white" stroke="#D0DDDE"/>
<path d="M33.6663 27.2469C33.913 27.4119 34.2032 27.5 34.5 27.5C34.8972 27.5 35.2781 27.3425 35.5593 27.062C35.8405 26.7815 35.999 26.4009 36 26.0037C36.0007 25.7069 35.9134 25.4165 35.749 25.1693C35.5847 24.9222 35.3506 24.7293 35.0766 24.6152C34.8026 24.5011 34.5009 24.4709 34.2097 24.5283C33.9184 24.5858 33.6508 24.7284 33.4407 24.938C33.2305 25.1476 33.0873 25.4149 33.0291 25.706C32.9709 25.997 33.0004 26.2988 33.1138 26.5731C33.2272 26.8474 33.4195 27.0819 33.6663 27.2469Z" fill="url(#paint0_linear_1596_13179)"/>
<path fill-rule="evenodd" clip-rule="evenodd" d="M24.5576 16.9566C23.8215 16.7484 22.9457 16.5007 22.004 16.5C21.2916 16.4966 20.5822 16.5923 19.8961 16.7841L19.8857 16.787L19.8754 16.7901C18.0127 17.34 16.6402 18.7147 15.614 20.4962C14.5941 22.2665 13.84 24.5637 13.2444 27.2243C12.6342 29.9509 12.3548 32.5081 12.5754 34.5534C12.7862 36.5077 13.5392 38.5713 15.5662 39.2743C16.8858 39.7311 18.1135 39.4491 19.138 38.8463C20.1114 38.2737 20.9547 37.3868 21.6803 36.4842L21.6819 36.4823C22.2977 35.7137 22.9351 35.2556 23.8169 34.9606C24.7602 34.6449 26.0468 34.4943 28 34.4943C29.9543 34.4943 31.2183 34.6452 32.1392 34.9583C32.9965 35.2497 33.6211 35.704 34.2465 36.4833C34.9813 37.3988 35.8381 38.2781 36.8167 38.847C37.834 39.4385 39.0609 39.7309 40.3649 39.2863C42.4949 38.5588 43.2686 36.539 43.4506 34.5298C43.6349 32.4946 43.2865 29.9506 42.684 27.2278C42.0945 24.563 41.3399 22.2648 40.3178 20.494C39.2894 18.7123 37.9144 17.3398 36.0553 16.7902L36.0501 16.7887C35.3829 16.5941 34.6912 16.4969 33.9962 16.5C33.0531 16.5006 32.177 16.7485 31.4407 16.9568C31.3225 16.9903 31.2079 17.0227 31.0972 17.0529C30.2468 17.2851 29.3104 17.5 28 17.5C26.6896 17.5 25.7526 17.285 24.9018 17.0529C24.7909 17.0226 24.6761 16.9901 24.5576 16.9566ZM22 22C22.5523 22 23 22.4477 23 23V24C23 24.5523 23.4477 25 24 25H25C25.5523 25 26 25.4477 26 26C26 26.5523 25.5523 27 25 27H24C23.4477 27 23 27.4477 23 28V29C23 29.5523 22.5523 30 22 30C21.4477 30 21 29.5523 21 29V28C21 27.4477 20.5523 27 20 27H19C18.4477 27 18 26.5523 18 26C18 25.4477 18.4477 25 19 25H20C20.5523 25 21 24.5523 21 24V23C21 22.4477 21.4477 22 22 22ZM32.5546 28.9095C33.1304 29.2945 33.8074 29.5 34.5 29.5C35.4267 29.5 36.3156 29.1324 36.9718 28.4779C37.6279 27.8235 37.9977 26.9355 38 26.0087C38.0017 25.3161 37.7979 24.6386 37.4144 24.0618C37.0309 23.4851 36.4848 23.0352 35.8455 22.7689C35.2061 22.5027 34.5021 22.4321 33.8226 22.5662C33.143 22.7002 32.5186 23.0329 32.0282 23.522C31.5379 24.0111 31.2037 24.6348 31.0679 25.3139C30.9321 25.9931 31.0009 26.6973 31.2656 27.3373C31.5302 27.9774 31.9788 28.5245 32.5546 28.9095Z" fill="url(#paint1_linear_1596_13179)"/>
<defs>
<linearGradient id="paint0_linear_1596_13179" x1="28.0002" y1="16.4999" x2="28.0002" y2="39.5015" gradientUnits="userSpaceOnUse">
<stop stop-color="#229CF9"/>
<stop offset="1" stop-color="#226BF9"/>
</linearGradient>
<linearGradient id="paint1_linear_1596_13179" x1="28.0002" y1="16.4999" x2="28.0002" y2="39.5015" gradientUnits="userSpaceOnUse">
<stop stop-color="#229CF9"/>
<stop offset="1" stop-color="#226BF9"/>
</linearGradient>
</defs>
</svg>
