<svg width="57" height="56" viewBox="0 0 57 56" fill="none" xmlns="http://www.w3.org/2000/svg">
<g clip-path="url(#clip0_56658_1360)">
<rect x="0.5" width="56" height="56" rx="24" fill="url(#paint0_linear_56658_1360)"/>
<g style="mix-blend-mode:overlay" opacity="0.1">
<path d="M25.1468 -9H-6.5V-8.95031H16.1724C16.1724 -8.95031 10.5847 0.714015 18.4777 16.2368C22.5138 24.1766 28.526 31.2917 28.526 31.2917L21.2841 37.0883L-1.0648 9.01595L-6.5 2.1042V16.2381L14.3286 42.6499L-6.5 59.9996L1.88316 60L17.5554 46.8204L28.3879 60H38.9896L44.2909 55.3927C44.2909 55.3927 41.5248 57.2462 34.7605 52.5366C30.7681 49.7566 24.4696 41.4235 24.4696 41.4235L31.8446 35.2997C31.8446 35.2997 38.8885 44.6204 47.0569 46.8204C57.7597 49.7035 62.4983 42.6503 62.4983 42.6503L62.5 38.4313C55.141 42.7021 49.1862 37.3957 44.2917 32.4756C40.8864 29.0521 37.4929 25.1031 37.4929 17.9968C37.4929 13.1179 41.7228 6.39225 49.4734 6.39225C55.5319 6.39225 62.5 12.3922 62.5 12.3922L62.4983 0.714857C62.4983 0.714857 50.0082 -5.87851 38.9896 5.19789C33.8197 10.3943 33.3623 19.2496 33.3623 19.2496C33.3783 19.4493 26.2594 10.5312 24.4688 2.10504C22.7943 -5.77828 25.1468 -9 25.1468 -9Z" fill="black"/>
<path d="M62.4983 -8.94946L62.4992 -9H25.1468L62.4983 -8.94946Z" fill="black"/>
</g>
</g>
<path fill-rule="evenodd" clip-rule="evenodd" d="M36.4998 17.3332H37.8332C38.894 17.3332 39.9115 17.7546 40.6616 18.5047C41.4117 19.2549 41.8332 20.2723 41.8332 21.3332V37.3332C41.8332 38.394 41.4117 39.4115 40.6616 40.1616C39.9115 40.9117 38.894 41.3332 37.8332 41.3332H19.1665C18.1056 41.3332 17.0882 40.9117 16.3381 40.1616C15.5879 39.4115 15.1665 38.394 15.1665 37.3332V21.3332C15.1665 20.2723 15.5879 19.2549 16.3381 18.5047C17.0882 17.7546 18.1056 17.3332 19.1665 17.3332H20.4998V15.9998C20.4998 15.6462 20.6403 15.3071 20.8904 15.057C21.1404 14.807 21.4795 14.6665 21.8332 14.6665C22.1868 14.6665 22.5259 14.807 22.776 15.057C23.026 15.3071 23.1665 15.6462 23.1665 15.9998V17.3332H33.8332V15.9998C33.8332 15.6462 33.9736 15.3071 34.2237 15.057C34.4737 14.807 34.8129 14.6665 35.1665 14.6665C35.5201 14.6665 35.8593 14.807 36.1093 15.057C36.3594 15.3071 36.4998 15.6462 36.4998 15.9998V17.3332ZM17.8332 22.6665H39.1665V21.3332C39.1665 20.9795 39.026 20.6404 38.776 20.3904C38.5259 20.1403 38.1868 19.9998 37.8332 19.9998H19.1665C18.8129 19.9998 18.4737 20.1403 18.2237 20.3904C17.9736 20.6404 17.8332 20.9795 17.8332 21.3332V22.6665ZM26.8211 32.5391C26.8211 32.3168 26.7328 32.1035 26.5757 31.9462L26.5763 31.9457C26.4984 31.8677 26.4059 31.8059 26.304 31.7637C26.2022 31.7215 26.0931 31.6998 25.9828 31.6998C25.8726 31.6998 25.7635 31.7215 25.6616 31.7637C25.5598 31.8059 25.4673 31.8677 25.3894 31.9457L23.4122 33.9234C23.2549 34.0807 23.1665 34.2941 23.1665 34.5165C23.1665 34.739 23.2549 34.9523 23.4122 35.1097L25.3894 37.0874C25.5468 37.2448 25.7602 37.3332 25.9828 37.3332C26.2054 37.3332 26.4189 37.2448 26.5763 37.0874C26.7337 36.93 26.8221 36.7165 26.8221 36.4939C26.8221 36.2714 26.7337 36.0579 26.5763 35.9005L26.0309 35.3558H30.7371C30.9596 35.3558 31.173 35.2674 31.3304 35.11C31.4877 34.9527 31.5761 34.7393 31.5761 34.5168C31.5761 34.2943 31.4877 34.0809 31.3304 33.9236C31.173 33.7662 30.9596 33.6778 30.7371 33.6778H26.0309L26.5757 33.132C26.7328 32.9747 26.8211 32.7614 26.8211 32.5391ZM30.974 26.6676C30.7667 26.6784 30.5707 26.7656 30.4239 26.9125L30.4233 26.9119C30.3454 26.9898 30.2835 27.0824 30.2413 27.1842C30.1991 27.286 30.1774 27.3951 30.1774 27.5054C30.1774 27.6156 30.1991 27.7247 30.2413 27.8265C30.2835 27.9284 30.3454 28.0209 30.4233 28.0988L30.9687 28.6441H26.2625L26.182 28.6475C25.9663 28.6667 25.7664 28.7687 25.6241 28.9319C25.4819 29.0952 25.4083 29.3071 25.4187 29.5234C25.4291 29.7397 25.5227 29.9435 25.68 30.0924C25.8372 30.2412 26.046 30.3235 26.2625 30.322H30.9687L30.4233 30.8668L30.3657 30.9305C30.2281 31.0972 30.1601 31.3105 30.1759 31.5261C30.1917 31.7416 30.2901 31.9428 30.4505 32.0876C30.611 32.2324 30.8212 32.3097 31.0372 32.3034C31.2533 32.297 31.4585 32.2076 31.6102 32.0536L33.5875 30.0759L33.6451 30.0122C33.7761 29.8511 33.8427 29.6472 33.8321 29.4398C33.8214 29.2325 33.7343 29.0365 33.5875 28.8896L31.6102 26.9119L31.5465 26.8543C31.3853 26.7234 31.1814 26.6569 30.974 26.6676Z" fill="white"/>
<defs>
<linearGradient id="paint0_linear_56658_1360" x1="28.5" y1="0" x2="28.5" y2="56" gradientUnits="userSpaceOnUse">
<stop stop-color="#1BC1CE"/>
<stop offset="1" stop-color="#1BAECE"/>
</linearGradient>
<clipPath id="clip0_56658_1360">
<rect x="0.5" width="56" height="56" rx="24" fill="white"/>
</clipPath>
</defs>
</svg>
