<svg width="56" height="56" viewBox="0 0 56 56" fill="none" xmlns="http://www.w3.org/2000/svg">
<rect x="0.5" y="0.5" width="55" height="55" rx="23.5" fill="white" stroke="#D0DDDE"/>
<path d="M27.9999 42.6666C25.511 42.6666 23.2221 42.0999 21.1333 40.9666C19.0444 39.8333 17.3333 38.3221 15.9999 36.4333V38.6666C15.9999 39.0444 15.8724 39.3608 15.6173 39.6159C15.3613 39.8719 15.0444 39.9999 14.6666 39.9999C14.2888 39.9999 13.9724 39.8719 13.7173 39.6159C13.4613 39.3608 13.3333 39.0444 13.3333 38.6666V33.3333C13.3333 32.9555 13.4613 32.6386 13.7173 32.3826C13.9724 32.1275 14.2888 31.9999 14.6666 31.9999H19.9999C20.3777 31.9999 20.6946 32.1275 20.9506 32.3826C21.2057 32.6386 21.3333 32.9555 21.3333 33.3333C21.3333 33.711 21.2057 34.0275 20.9506 34.2826C20.6946 34.5386 20.3777 34.6666 19.9999 34.6666H18.0333C19.0999 36.2666 20.5057 37.5555 22.2506 38.5333C23.9946 39.511 25.911 39.9999 27.9999 39.9999C31.111 39.9999 33.7946 38.9777 36.0506 36.9333C38.3057 34.8888 39.5999 32.3555 39.9333 29.3333C39.9777 28.9555 40.1279 28.6386 40.3839 28.3826C40.639 28.1275 40.9555 27.9999 41.3333 27.9999C41.711 27.9999 42.0275 28.1333 42.2826 28.3999C42.5386 28.6666 42.6444 28.9777 42.5999 29.3333C42.4444 31.1999 41.9501 32.9444 41.1173 34.5666C40.2835 36.1888 39.2168 37.5999 37.9173 38.7999C36.6168 39.9999 35.1164 40.9444 33.4159 41.6333C31.7164 42.3221 29.911 42.6666 27.9999 42.6666ZM14.6666 27.9999C14.2888 27.9999 13.9724 27.8666 13.7173 27.5999C13.4613 27.3333 13.3555 27.0221 13.3999 26.6666C13.5777 24.7999 14.0777 23.0555 14.8999 21.4333C15.7221 19.811 16.783 18.3999 18.0826 17.1999C19.383 15.9999 20.8835 15.0555 22.5839 14.3666C24.2835 13.6777 26.0888 13.3333 27.9999 13.3333C30.4888 13.3333 32.7777 13.8999 34.8666 15.0333C36.9555 16.1666 38.6666 17.6777 39.9999 19.5666V17.3333C39.9999 16.9555 40.1279 16.6386 40.3839 16.3826C40.639 16.1275 40.9555 15.9999 41.3333 15.9999C41.711 15.9999 42.0275 16.1275 42.2826 16.3826C42.5386 16.6386 42.6666 16.9555 42.6666 17.3333V22.6666C42.6666 23.0444 42.5386 23.3608 42.2826 23.6159C42.0275 23.8719 41.711 23.9999 41.3333 23.9999H35.9999C35.6221 23.9999 35.3057 23.8719 35.0506 23.6159C34.7946 23.3608 34.6666 23.0444 34.6666 22.6666C34.6666 22.2888 34.7946 21.9719 35.0506 21.7159C35.3057 21.4608 35.6221 21.3333 35.9999 21.3333H37.9666C36.8999 19.7333 35.4941 18.4444 33.7493 17.4666C32.0053 16.4888 30.0888 15.9999 27.9999 15.9999C24.8888 15.9999 22.2057 17.0221 19.9506 19.0666C17.6946 21.111 16.3999 23.6444 16.0666 26.6666C16.0221 27.0444 15.8724 27.3608 15.6173 27.6159C15.3613 27.8719 15.0444 27.9999 14.6666 27.9999Z" fill="url(#paint0_linear_56363_103894)"/>
<path d="M28.7 28.1225L30.275 29.6975C30.4033 29.8258 30.4675 29.9864 30.4675 30.1791C30.4675 30.3718 30.4033 30.538 30.275 30.6775C30.135 30.8175 29.9686 30.8875 29.7759 30.8875C29.5832 30.8875 29.417 30.8175 29.2775 30.6775L27.51 28.91C27.44 28.84 27.3875 28.7611 27.3525 28.6734C27.3175 28.5857 27.3 28.4954 27.3 28.4025V25.9C27.3 25.7017 27.3672 25.5353 27.5016 25.4009C27.636 25.2665 27.8021 25.1995 28 25.2C28.1983 25.2 28.3647 25.2672 28.4991 25.4016C28.6335 25.536 28.7005 25.7021 28.7 25.9V28.1225ZM28 23.8C27.8017 23.8 27.6353 23.7328 27.5009 23.5984C27.3665 23.464 27.2995 23.2979 27.3 23.1V22.4H28.7V23.1C28.7 23.2983 28.6328 23.4647 28.4984 23.5991C28.364 23.7335 28.1979 23.8005 28 23.8ZM32.2 28C32.2 27.8017 32.2672 27.6353 32.4016 27.5009C32.536 27.3665 32.7021 27.2995 32.9 27.3H33.6V28.7H32.9C32.7017 28.7 32.5353 28.6328 32.4009 28.4984C32.2665 28.364 32.1995 28.1979 32.2 28ZM28 32.2C28.1983 32.2 28.3647 32.2672 28.4991 32.4016C28.6335 32.536 28.7005 32.7021 28.7 32.9V33.6H27.3V32.9C27.3 32.7017 27.3672 32.5353 27.5016 32.4009C27.636 32.2665 27.8021 32.1995 28 32.2ZM23.8 28C23.8 28.1983 23.7328 28.3647 23.5984 28.4991C23.464 28.6335 23.2979 28.7005 23.1 28.7H22.4V27.3H23.1C23.2983 27.3 23.4647 27.3672 23.5991 27.5016C23.7335 27.636 23.8005 27.8021 23.8 28ZM28 35C27.0317 35 26.1217 34.8161 25.27 34.4484C24.4183 34.0807 23.6775 33.582 23.0475 32.9525C22.4175 32.3225 21.9189 31.5817 21.5516 30.73C21.1843 29.8783 21.0005 28.9683 21 28C21 27.0317 21.1839 26.1217 21.5516 25.27C21.9193 24.4183 22.418 23.6775 23.0475 23.0475C23.6775 22.4175 24.4183 21.9189 25.27 21.5516C26.1217 21.1843 27.0317 21.0005 28 21C28.9683 21 29.8783 21.1839 30.73 21.5516C31.5817 21.9193 32.3225 22.418 32.9525 23.0475C33.5825 23.6775 34.0814 24.4183 34.4491 25.27C34.8168 26.1217 35.0005 27.0317 35 28C35 28.9683 34.8161 29.8783 34.4484 30.73C34.0807 31.5817 33.582 32.3225 32.9525 32.9525C32.3225 33.5825 31.5817 34.0814 30.73 34.4491C29.8783 34.8168 28.9683 35.0005 28 35ZM33.6 28C33.6 26.4367 33.0575 25.1125 31.9725 24.0275C30.8875 22.9425 29.5633 22.4 28 22.4C26.4367 22.4 25.1125 22.9425 24.0275 24.0275C22.9425 25.1125 22.4 26.4367 22.4 28C22.4 29.5633 22.9425 30.8875 24.0275 31.9725C25.1125 33.0575 26.4367 33.6 28 33.6C29.5633 33.6 30.8875 33.0575 31.9725 31.9725C33.0575 30.8875 33.6 29.5633 33.6 28Z" fill="url(#paint1_linear_56363_103894)"/>
<defs>
<linearGradient id="paint0_linear_56363_103894" x1="27.9999" y1="13.3333" x2="27.9999" y2="42.6666" gradientUnits="userSpaceOnUse">
<stop stop-color="#0598AD"/>
<stop offset="1" stop-color="#006E85"/>
</linearGradient>
<linearGradient id="paint1_linear_56363_103894" x1="28" y1="21" x2="28" y2="35" gradientUnits="userSpaceOnUse">
<stop stop-color="#0598AD"/>
<stop offset="1" stop-color="#006E85"/>
</linearGradient>
</defs>
</svg>
