<svg width="23" height="22" viewBox="0 0 23 22" fill="none" xmlns="http://www.w3.org/2000/svg">
<path d="M4.80298 18.6409C4.80298 19.2593 5.31204 19.7606 5.93998 19.7606H17.31C17.938 19.7606 18.447 19.2593 18.447 18.6409V9.2349C18.447 8.91942 18.3119 8.61857 18.0748 8.40636L12.3898 3.31739C11.9561 2.92919 11.2939 2.92919 10.8602 3.31739L5.1752 8.40636C4.93813 8.61857 4.80298 8.91942 4.80298 9.2349V18.6409ZM19.584 22H3.66598C3.36443 22 3.07523 21.882 2.862 21.6721C2.64877 21.4621 2.52898 21.1773 2.52898 20.8803V11.7397C2.52898 11.2224 2.10318 10.8031 1.57794 10.8031C0.708667 10.8031 0.295 9.74942 0.938219 9.17359L10.8598 0.291519C11.0691 0.103946 11.342 0 11.625 0C11.908 0 12.1809 0.103946 12.3902 0.291519L22.3118 9.1736C22.955 9.74942 22.5413 10.8031 21.6721 10.8031C21.1468 10.8031 20.721 11.2224 20.721 11.7397V20.8803C20.721 21.1773 20.6012 21.4621 20.388 21.6721C20.1748 21.882 19.8856 22 19.584 22Z" fill="#FF7F08"/>
</svg>
