<svg width="56" height="56" viewBox="0 0 56 56" fill="none" xmlns="http://www.w3.org/2000/svg">
<rect x="0.5" y="0.5" width="55" height="55" rx="23.5" fill="white" stroke="#D0DDDE"/>
<g clip-path="url(#clip0_57723_109355)">
<path fill-rule="evenodd" clip-rule="evenodd" d="M27.9725 15.0167C30.8247 15.0167 33.6796 15.0167 36.5229 15.0167C37.2742 15.0167 37.7919 15.4439 37.9256 16.1732C37.9344 16.2528 37.9344 16.3675 37.9344 16.4533C37.9344 22.4814 37.9344 28.5253 37.9344 34.5421C37.9344 35.3991 37.3734 36.0058 36.5663 36.0058C30.8247 36.0058 25.1017 36.0058 19.3468 36.0058C18.546 36.0058 18.0008 35.4079 18.0008 34.5421C18.0008 28.5472 18.0035 22.562 18.0008 16.568C17.9743 15.6383 18.5858 14.9913 19.4566 15.0001C22.2955 15.0255 25.1292 15.0167 27.9725 15.0167ZM35.0105 21.8835C34.5371 22.8762 33.8105 23.5547 32.9123 24.0826C32.7592 24.1692 32.6919 24.1929 32.6424 23.9837C32.4574 23.3857 32.2486 22.7957 32.0433 22.2232C31.6291 21.0116 31.2548 19.7834 30.8052 18.5779C30.5557 17.973 30.1256 17.5694 29.5309 17.4005C28.7362 17.165 27.9256 17.165 27.1061 17.2455C26.0141 17.3672 25.3132 17.8846 24.9451 19.0253C24.2504 21.2051 23.4955 23.3796 22.7628 25.5437C22.1707 27.2805 21.592 29.0007 21.0362 30.7358C20.8805 31.1892 20.8159 31.6681 20.9176 32.1365C21.1053 33.0495 21.9849 33.7822 22.9008 33.8164C23.9353 33.8715 24.669 33.355 24.9619 32.3702C25.1477 31.7784 25.3539 31.1744 25.4849 30.5765C25.5716 30.123 25.8061 29.8323 26.1548 29.6135C26.1893 29.5496 26.2522 29.5277 26.3292 29.4848C27.3734 28.7652 28.5459 28.5717 29.7769 28.5253C29.9238 28.5253 29.9238 28.6356 29.9424 28.7416C30.2725 29.9532 30.5849 31.1428 30.9557 32.3457C31.1955 33.194 31.7318 33.6623 32.5822 33.7927C33.861 34.0011 35.2734 32.8701 35.0327 31.3442C34.9804 31.1087 34.9229 30.8259 34.8583 30.5913C34.4875 29.5435 34.1318 28.4667 33.7822 27.4249C33.7477 27.2735 33.7477 27.1439 33.8433 27.0389C34.2291 26.6257 34.4751 26.1573 34.6866 25.6242C35.1229 24.4205 35.0459 23.1599 35.0141 21.8835H35.0105Z" fill="#FF2D16"/>
<path fill-rule="evenodd" clip-rule="evenodd" d="M35.0106 21.8835C35.046 23.1599 35.1195 24.4205 34.6832 25.6242C34.4717 26.1573 34.2257 26.6257 33.8398 27.0389C33.7478 27.1439 33.7478 27.2735 33.7788 27.4249C34.1283 28.4667 34.4841 29.5435 34.8549 30.5913C34.915 30.8259 34.9734 31.1087 35.0292 31.3442C35.269 32.8701 33.8575 34.0011 32.5788 33.7927C31.7274 33.6623 31.192 33.194 30.9522 32.3457C30.5823 31.1428 30.2699 29.9531 29.9389 28.7416C29.9212 28.6356 29.9212 28.5253 29.7743 28.5253C28.5425 28.5717 27.3699 28.7652 26.3257 29.4848C26.2478 29.5277 26.1832 29.5496 26.1514 29.6135C25.8027 29.8323 25.5646 30.123 25.4814 30.5764C25.3505 31.1744 25.1443 31.7784 24.9584 32.3702C24.6655 33.355 23.9328 33.8715 22.8974 33.8164C21.9815 33.7822 21.1018 33.0495 20.9142 32.1364C20.8124 31.6681 20.8788 31.1892 21.0328 30.7358C21.5885 29.0007 22.1673 27.2805 22.7593 25.5437C23.4921 23.3796 24.2469 21.2051 24.9416 19.0253C25.3098 17.8846 26.0107 17.3672 27.1027 17.2455C27.9221 17.165 28.7327 17.165 29.5274 17.4005C30.1221 17.5694 30.5531 17.973 30.8018 18.5779C31.2513 19.7834 31.6257 21.0116 32.0398 22.2232C32.2451 22.7957 32.454 23.3857 32.6389 23.9837C32.6911 24.1929 32.7557 24.1692 32.9088 24.0826C33.8071 23.5547 34.5336 22.8762 35.0071 21.8835H35.0106ZM26.5009 26.7307C27.2372 26.0531 28.0283 25.6242 28.8735 25.3344C29.0575 25.2942 28.9513 25.1698 28.9248 25.0911C28.6319 24.0878 28.3584 23.0951 28.0522 22.1015C28.0434 22.0131 28.0434 21.9177 27.9345 21.8433C27.4673 23.4593 27.0018 25.0508 26.5 26.7307H26.5009Z" fill="white"/>
<path fill-rule="evenodd" clip-rule="evenodd" d="M26.5007 26.7307C27.0025 25.0508 27.468 23.4593 27.9352 21.8432C28.0414 21.9177 28.0414 22.0131 28.0529 22.1015C28.3591 23.0951 28.6326 24.0878 28.9255 25.0911C28.952 25.1698 29.0573 25.2942 28.8733 25.3344C28.029 25.6242 27.2379 26.0531 26.5016 26.7307H26.5007Z" fill="#E92D2E"/>
<path fill-rule="evenodd" clip-rule="evenodd" d="M28.1951 38.1548C28.3839 38.081 28.5645 38.0246 28.7626 38.0267C28.9634 38.0267 29.0794 38.1477 29.0701 38.3627C29.0701 38.5287 29.0173 38.6892 28.9797 38.8429C28.9797 38.8591 28.967 38.878 28.9797 38.9023C29.0794 38.7524 29.1777 38.6156 29.2937 38.4926C29.4395 38.325 29.5937 38.1759 29.7844 38.0792C29.8848 38.0267 29.9915 37.9931 30.0968 37.9962C30.3538 38.0052 30.4817 38.1548 30.4861 38.4239C30.4913 38.5756 30.4491 38.7248 30.4216 38.8737C30.4138 38.8998 30.4138 38.926 30.4063 38.98C30.4683 38.897 30.513 38.8265 30.5661 38.7524C30.7402 38.5159 30.9374 38.2851 31.1874 38.1307C31.3278 38.0431 31.4773 37.987 31.6436 38.0034C31.8554 38.0267 31.9656 38.1548 31.9721 38.3844C31.9824 38.5566 31.9402 38.7199 31.9135 38.8898C31.8285 39.304 31.742 39.7173 31.6757 40.129C31.6578 40.278 31.6578 40.4181 31.6933 40.555C31.7112 40.6327 31.7417 40.6944 31.8011 40.7538C31.6076 40.8792 31.4003 40.9686 31.1664 40.9189C30.9952 40.8792 30.9032 40.7493 30.8861 40.5507C30.8734 40.3495 30.9151 40.1506 30.9488 39.9541C31.0309 39.555 31.1105 39.1671 31.1871 38.7742C31.1949 38.7463 31.1949 38.7248 31.1949 38.7012C31.1871 38.6748 31.1692 38.666 31.141 38.6837C31.0998 38.6986 31.0653 38.7273 31.0382 38.7671C30.7843 39.072 30.5843 39.4177 30.3983 39.7698C30.3063 39.9477 30.2239 40.1362 30.1501 40.3188C30.0892 40.4819 30.0269 40.6519 30.1172 40.8179C30.1348 40.843 30.1094 40.843 30.0968 40.8556C29.9281 40.9189 29.7532 40.9596 29.5638 40.9217C29.3986 40.8837 29.3185 40.7392 29.3492 40.5432C29.3885 40.2951 29.4579 40.0586 29.5064 39.817C29.5867 39.4864 29.6559 39.1622 29.7007 38.8265C29.711 38.7768 29.7499 38.713 29.6906 38.6837C29.645 38.6587 29.602 38.7176 29.5699 38.7524C29.3538 38.9893 29.1942 39.2634 29.0416 39.5451C28.9087 39.7916 28.7945 40.0371 28.6834 40.2951C28.6083 40.465 28.5564 40.6327 28.643 40.8179C28.6608 40.843 28.6411 40.843 28.6277 40.8556C28.4533 40.9189 28.2717 40.964 28.0984 40.9189C27.8842 40.8694 27.7992 40.6969 27.863 40.4515C27.9599 40.0604 28.06 39.6824 28.1451 39.2968C28.2041 39.0077 28.2523 38.7176 28.2717 38.4167C28.2769 38.3319 28.2948 38.2238 28.1951 38.1548ZM35.1976 39.9828C35.0662 40.1599 34.9484 40.3469 34.8015 40.5028C34.638 40.6944 34.4603 40.8648 34.2154 40.9171C34.1061 40.9407 34.0056 40.9425 33.9053 40.9217C33.667 40.8718 33.5486 40.6969 33.5139 40.465C33.4409 40.075 33.5013 39.7011 33.6292 39.3419C33.7647 38.9539 33.9829 38.6156 34.2833 38.3509C34.6501 38.0267 35.0569 37.968 35.5077 38.1641C35.5278 38.1713 35.5594 38.2094 35.5652 38.1548C35.5926 37.9745 35.6346 37.7948 35.6169 37.608C35.6043 37.4855 35.6043 37.4855 35.7222 37.4268C35.8563 37.3625 35.9913 37.3317 36.1436 37.3389C36.37 37.3553 36.4858 37.5014 36.4449 37.7317C36.3946 37.9988 36.3291 38.2661 36.2737 38.5259C36.1695 39.0018 36.0698 39.4677 36.0078 39.9477C35.9757 40.2093 35.9757 40.4794 36.0897 40.7231C36.105 40.7493 36.0923 40.758 36.0718 40.7726C35.8776 40.9335 35.6558 40.9901 35.4203 40.8956C35.2597 40.8251 35.1867 40.678 35.173 40.5009C35.1577 40.3334 35.1856 40.1578 35.196 39.9828H35.1976ZM34.3215 39.9541C34.3188 40.0207 34.3215 40.0909 34.3315 40.1578C34.352 40.2898 34.4183 40.3141 34.5149 40.2313C34.6134 40.1578 34.6792 40.056 34.7478 39.9541C34.9703 39.6561 35.1336 39.3231 35.3188 39.0133C35.4439 38.8094 35.4346 38.7904 35.2413 38.6587C35.2387 38.6515 35.2312 38.6458 35.2286 38.64C35.0133 38.4952 34.8325 38.5287 34.6789 38.7406C34.6499 38.7742 34.631 38.8094 34.6134 38.8498C34.4548 39.1976 34.3461 39.5613 34.3215 39.9541ZM37.4759 40.7418C37.2697 40.8956 37.0534 40.964 36.8146 40.9217C36.6338 40.8956 36.526 40.7538 36.5169 40.5481C36.4938 40.3351 36.5508 40.1273 36.5946 39.9231C36.6738 39.5287 36.7741 39.1432 36.84 38.7461C36.8671 38.6021 36.8819 38.4475 36.85 38.2984C36.85 38.2776 36.8475 38.2545 36.8374 38.2371C36.7987 38.1379 36.7987 38.1379 36.9037 38.1097C37.0837 38.0575 37.2661 38.008 37.4549 38.0267C37.6811 38.069 37.7697 38.2094 37.7114 38.4357C37.6355 38.7273 37.5546 39.018 37.4923 39.3132C37.4233 39.6119 37.3619 39.9043 37.3298 40.2121C37.328 40.2951 37.328 40.3757 37.335 40.4515C37.3552 40.5642 37.3842 40.6634 37.4754 40.7418H37.4759ZM32.5376 38.5023C32.5376 38.3627 32.5249 38.2704 32.4754 38.1784C32.4653 38.1548 32.4705 38.1451 32.4959 38.1334C32.715 38.0621 32.9376 37.9988 33.1702 38.0459C33.3463 38.0793 33.4254 38.2135 33.3774 38.4095C33.3243 38.666 33.2561 38.9085 33.193 39.1622C33.1155 39.4928 33.0435 39.8385 33.0013 40.177C32.9886 40.3141 32.9938 40.4515 33.0352 40.5858C33.0479 40.6121 33.0557 40.6355 33.07 40.6634C33.0927 40.6924 33.1311 40.7256 33.1236 40.739C33.1083 40.7889 33.0624 40.8033 33.0314 40.8179C32.8782 40.9025 32.7256 40.9478 32.5541 40.9335C32.3052 40.9071 32.1803 40.7657 32.1757 40.4956C32.1749 40.2951 32.2252 40.0939 32.2651 39.8908C32.342 39.5 32.4503 39.1145 32.5161 38.7176C32.5261 38.6369 32.5314 38.5449 32.5389 38.5023H32.5376ZM33.2419 37.0791C33.2546 37.0791 33.2712 37.0791 33.2904 37.0791C33.5284 37.0952 33.6217 37.2444 33.5595 37.4855C33.5284 37.6034 33.4655 37.6749 33.3544 37.71C33.22 37.7479 33.0915 37.783 32.9492 37.7666C32.7575 37.7317 32.7029 37.6605 32.7482 37.4588C32.7738 37.3768 32.793 37.2938 32.7482 37.2064C32.728 37.1756 32.7738 37.1803 32.7868 37.1756C32.9373 37.1098 33.0849 37.0808 33.2419 37.0791ZM37.0718 37.1847C37.278 37.1098 37.4858 37.0457 37.6995 37.0927C37.8702 37.1214 37.9412 37.2533 37.9002 37.4329C37.8749 37.5757 37.8099 37.6792 37.6557 37.7143C37.5225 37.7507 37.3912 37.783 37.2534 37.7643C37.0917 37.7244 37.0378 37.651 37.0837 37.4837C37.0863 37.4473 37.0938 37.4094 37.1042 37.3743C37.1194 37.3127 37.1117 37.2515 37.0713 37.1847H37.0718Z" fill="#FF2D16"/>
<path fill-rule="evenodd" clip-rule="evenodd" d="M21.2713 40.3826C21.2713 40.7113 21.0148 40.9425 20.7402 40.9188C20.5109 40.8999 20.3804 40.7917 20.3148 40.5506C20.2892 40.4515 20.2519 40.3495 20.2218 40.2456C20.2143 40.2093 20.2014 40.1842 20.1542 40.1842C19.8084 40.1888 19.4662 40.1888 19.1232 40.1842C19.0732 40.1842 19.0628 40.2075 19.0491 40.2428C19.0183 40.3469 18.9807 40.444 18.9597 40.5432C18.8719 40.8999 18.583 40.964 18.3621 40.9025C18.0857 40.8223 17.9414 40.5642 18.0225 40.2644C18.1105 39.954 18.2235 39.6545 18.3248 39.3493C18.5219 38.7524 18.7289 38.1641 18.9177 37.5655C19.0107 37.2776 19.1677 37.1214 19.4615 37.0952C19.6224 37.0836 19.7921 37.0836 19.9537 37.1306C20.1332 37.1639 20.2519 37.284 20.3148 37.4663C20.4493 37.866 20.5829 38.2661 20.7143 38.6587C20.8835 39.1622 21.0459 39.6468 21.2145 40.148C21.2456 40.2382 21.2692 40.3351 21.2713 40.3826ZM19.2835 39.3493C19.4975 39.3493 19.7117 39.3493 19.9244 39.3493C19.9773 39.3582 19.9853 39.3395 19.9674 39.2808C19.8897 39.0133 19.8084 38.7406 19.7281 38.472C19.705 38.3701 19.6726 38.2776 19.6434 38.1713H19.6307C19.5154 38.5613 19.3973 38.9539 19.2838 39.3493H19.2835Z" fill="#0055AE"/>
<path fill-rule="evenodd" clip-rule="evenodd" d="M27.4642 39.4928C27.4589 39.8241 27.4791 40.1527 27.4589 40.4794C27.4198 40.8622 27.0737 41.0734 26.7688 40.9025C26.7162 40.8766 26.6805 40.843 26.6486 40.8107C26.6284 40.7726 26.6103 40.7772 26.5774 40.7987C25.7945 41.2528 24.7878 40.7254 24.672 39.7888C24.6127 39.3039 24.7021 38.8591 25.0062 38.4926C25.257 38.1802 25.5881 38.0574 25.9614 38.0267C26.1813 38.0152 26.3903 38.0674 26.5839 38.1802C26.6103 38.1989 26.6295 38.2094 26.6543 38.1758C26.8009 38.0249 26.9725 37.9916 27.1587 38.0693C27.3439 38.1333 27.4349 38.2986 27.4589 38.5023C27.4791 38.7906 27.4639 39.0797 27.4639 39.3682C27.4639 39.4177 27.4639 39.4556 27.4639 39.4928H27.4642ZM26.0797 40.2428C26.2872 40.2428 26.3937 40.1578 26.4523 39.9477C26.5131 39.7672 26.5131 39.5787 26.5025 39.3869C26.495 39.2383 26.4797 39.1056 26.4093 38.9682C26.3611 38.8616 26.2872 38.7929 26.1704 38.7742C25.9383 38.7273 25.7396 38.8429 25.659 39.0884C25.5707 39.3608 25.5707 39.6468 25.659 39.9287C25.7238 40.1409 25.8725 40.2428 26.0797 40.2428Z" fill="#0055AE"/>
<path fill-rule="evenodd" clip-rule="evenodd" d="M24.0707 39.6729C24.0707 39.9043 24.0707 40.1578 24.0707 40.3946C24.0707 40.444 24.0707 40.4912 24.0655 40.5379C24.0173 40.7987 23.838 40.9406 23.5883 40.9188C23.3163 40.8999 23.1541 40.7185 23.1492 40.4371C23.1391 40.2093 23.1492 39.9728 23.1417 39.7393C23.1417 39.4556 23.1417 39.167 23.1492 38.8854C23.1492 38.8311 23.1417 38.805 23.08 38.796C22.9588 38.786 22.8591 38.7334 22.7873 38.6225C22.6723 38.4167 22.7873 38.1802 23.0174 38.1333C23.1412 38.1097 23.1495 38.1097 23.1412 37.9745C23.1412 37.8635 23.1412 37.7523 23.1642 37.651C23.2153 37.3976 23.3629 37.2276 23.5886 37.1377C23.8722 37.0308 24.1497 37.0357 24.4388 37.1306C24.6269 37.1847 24.7307 37.3317 24.7188 37.5142C24.7113 37.6818 24.6157 37.7786 24.4533 37.7742C24.3795 37.7742 24.3113 37.764 24.2427 37.7742C24.1321 37.783 24.0802 37.8427 24.0727 37.9629C24.0678 38.119 24.0678 38.1215 24.2144 38.119C24.2764 38.119 24.345 38.1215 24.4069 38.1333C24.5564 38.1641 24.6587 38.2776 24.6662 38.4457C24.6763 38.6061 24.5997 38.7176 24.4491 38.7742C24.345 38.8093 24.2427 38.805 24.1359 38.805C24.0831 38.796 24.0727 38.815 24.0727 38.8708C24.0727 39.1389 24.0727 39.4033 24.0727 39.6729H24.0707Z" fill="#0055AE"/>
<path fill-rule="evenodd" clip-rule="evenodd" d="M21.6308 38.9924C21.6308 38.5205 21.6284 38.0533 21.6308 37.5816C21.6308 37.3295 21.7702 37.1289 21.9558 37.0775C22.2274 36.9963 22.4545 37.1828 22.5014 37.4988C22.5062 37.5557 22.5134 37.6107 22.5134 37.6717C22.5134 38.5485 22.5134 39.4236 22.5134 40.2987C22.5134 40.3723 22.5062 40.4473 22.4873 40.5209C22.4272 40.7706 22.2705 40.9173 22.0528 40.9101C21.8449 40.9027 21.6864 40.745 21.6426 40.4923C21.6284 40.4222 21.6284 40.3394 21.6284 40.2709C21.6284 39.844 21.6284 39.4118 21.6284 38.9924H21.6308Z" fill="#0055AE"/>
</g>
<defs>
<clipPath id="clip0_57723_109355">
<rect width="20" height="26" fill="white" transform="translate(18 15)"/>
</clipPath>
</defs>
</svg>
