<svg width="57" height="56" viewBox="0 0 57 56" fill="none" xmlns="http://www.w3.org/2000/svg">
<g clip-path="url(#clip0_1596_12949)">
<rect x="0.5" width="56" height="56" rx="24" fill="url(#paint0_linear_1596_12949)"/>
<g style="mix-blend-mode:overlay" opacity="0.1">
<path d="M25.1468 -9H-6.5V-8.95031H16.1724C16.1724 -8.95031 10.5847 0.714015 18.4777 16.2368C22.5138 24.1766 28.526 31.2917 28.526 31.2917L21.2841 37.0883L-1.0648 9.01595L-6.5 2.1042V16.2381L14.3286 42.6499L-6.5 59.9996L1.88316 60L17.5554 46.8204L28.3879 60H38.9896L44.2909 55.3927C44.2909 55.3927 41.5248 57.2462 34.7605 52.5366C30.7681 49.7566 24.4696 41.4235 24.4696 41.4235L31.8446 35.2997C31.8446 35.2997 38.8885 44.6204 47.0569 46.8204C57.7597 49.7035 62.4983 42.6503 62.4983 42.6503L62.5 38.4313C55.141 42.7021 49.1862 37.3957 44.2917 32.4756C40.8864 29.0521 37.4929 25.1031 37.4929 17.9968C37.4929 13.1179 41.7228 6.39225 49.4734 6.39225C55.5319 6.39225 62.5 12.3922 62.5 12.3922L62.4983 0.714857C62.4983 0.714857 50.0082 -5.87851 38.9896 5.19789C33.8197 10.3943 33.3623 19.2496 33.3623 19.2496C33.3783 19.4493 26.2594 10.5312 24.4688 2.10504C22.7943 -5.77828 25.1468 -9 25.1468 -9Z" fill="black"/>
<path d="M62.4983 -8.94946L62.4992 -9H25.1468L62.4983 -8.94946Z" fill="black"/>
</g>
<path d="M28.5 41.3333C26.6555 41.3333 24.9222 40.9831 23.3 40.2827C21.6777 39.5831 20.2666 38.6333 19.0666 37.4333C17.8666 36.2333 16.9168 34.8222 16.2173 33.2C15.5168 31.5778 15.1666 29.8444 15.1666 28C15.1666 26.1556 15.5168 24.4222 16.2173 22.8C16.9168 21.1778 17.8666 19.7667 19.0666 18.5667C20.2666 17.3667 21.6777 16.4164 23.3 15.716C24.9222 15.0164 26.6555 14.6667 28.5 14.6667C30.3444 14.6667 32.0777 15.0164 33.7 15.716C35.3222 16.4164 36.7333 17.3667 37.9333 18.5667C39.1333 19.7667 40.0831 21.1778 40.7826 22.8C41.4831 24.4222 41.8333 26.1556 41.8333 28C41.8333 29.8444 41.4831 31.5778 40.7826 33.2C40.0831 34.8222 39.1333 36.2333 37.9333 37.4333C36.7333 38.6333 35.3222 39.5831 33.7 40.2827C32.0777 40.9831 30.3444 41.3333 28.5 41.3333ZM27.1666 38.6V36C26.4333 36 25.8057 35.7391 25.284 35.2173C24.7613 34.6947 24.5 34.0667 24.5 33.3333V32L18.1 25.6C18.0333 26 17.972 26.4 17.916 26.8C17.8608 27.2 17.8333 27.6 17.8333 28C17.8333 30.6889 18.7168 33.0444 20.484 35.0667C22.2502 37.0889 24.4777 38.2667 27.1666 38.6ZM36.3666 35.2C36.8111 34.7111 37.2111 34.1831 37.5666 33.616C37.9222 33.0498 38.2168 32.4609 38.4506 31.8493C38.6835 31.2387 38.8613 30.6111 38.984 29.9667C39.1057 29.3222 39.1666 28.6667 39.1666 28C39.1666 25.8222 38.5613 23.8333 37.3506 22.0333C36.1391 20.2333 34.5222 18.9333 32.5 18.1333V18.6667C32.5 19.4 32.2391 20.0276 31.7173 20.5493C31.1946 21.072 30.5666 21.3333 29.8333 21.3333H27.1666V24C27.1666 24.3778 27.0391 24.6942 26.784 24.9493C26.528 25.2053 26.2111 25.3333 25.8333 25.3333H23.1666V28H31.1666C31.5444 28 31.8613 28.1276 32.1173 28.3827C32.3724 28.6387 32.5 28.9556 32.5 29.3333V33.3333H33.8333C34.4111 33.3333 34.9333 33.5053 35.4 33.8493C35.8666 34.1942 36.1888 34.6444 36.3666 35.2Z" fill="white"/>
</g>
<defs>
<linearGradient id="paint0_linear_1596_12949" x1="28.5" y1="0" x2="28.5" y2="56" gradientUnits="userSpaceOnUse">
<stop stop-color="#1BC1CE"/>
<stop offset="1" stop-color="#1BAECE"/>
</linearGradient>
<clipPath id="clip0_1596_12949">
<rect x="0.5" width="56" height="56" rx="24" fill="white"/>
</clipPath>
</defs>
</svg>
