<svg width="56" height="56" viewBox="0 0 56 56" fill="none" xmlns="http://www.w3.org/2000/svg">
<rect x="0.5" y="0.5" width="55" height="55" rx="23.5" fill="white" stroke="#D0DDDE"/>
<g clip-path="url(#clip0_57723_109361)">
<path d="M37.2586 26.341C36.5546 26.341 36.1122 26.779 36.1051 27.2756C36.098 27.778 36.5805 27.9416 37.044 28.041C37.4877 28.1344 37.8916 28.222 37.8858 28.631C37.8801 29.0341 37.5519 29.2327 36.9542 29.2327C36.6155 29.2327 36.1913 29.1684 35.9915 28.7361L35.7773 28.853C35.9834 29.3087 36.46 29.4256 36.9315 29.4256C37.6621 29.4256 38.1242 29.1509 38.1321 28.5959C38.1392 28.0935 37.6696 27.9533 37.2127 27.854C36.7426 27.7546 36.3589 27.6495 36.3645 27.2522C36.3696 26.89 36.6914 26.5337 37.236 26.5337C37.6473 26.5337 37.9353 26.6716 37.999 26.9356L38.2076 26.7737C38.0813 26.489 37.7285 26.341 37.2586 26.341Z" fill="#181516"/>
<path d="M11.344 29.4306H12.6138L11.0412 24.7486H9.71849L8 29.4306H9.26985L9.59081 28.4013H11.023L11.344 29.4306ZM9.90284 27.4226L10.3329 26.1528L10.8999 27.9697L9.90284 27.4226Z" fill="#181516"/>
<path d="M13.6412 29.407C13.8164 29.407 14.0166 29.3823 14.1292 29.3515V28.543C13.9352 28.543 13.8602 28.4689 13.8602 28.3023V24.6579H12.7236V28.5738C12.7236 29.1725 13.0718 29.407 13.6412 29.407Z" fill="#181516"/>
<path d="M15.797 24.6111C15.0275 24.6111 14.4832 25.1435 14.4832 26.0245V26.3417V27.1846V29.3967H15.5468V27.1846H16.2328V26.3417H15.5468V26.0689C15.5468 25.7202 15.6906 25.5745 15.9471 25.5745C16.0785 25.5745 16.1849 25.6061 16.2663 25.6632L16.5978 24.8582C16.4289 24.7124 16.1474 24.6111 15.797 24.6111Z" fill="#181516"/>
<path d="M19.3172 28.2958V27.4203C19.3172 26.6834 18.9277 26.2173 17.9573 26.2173C17.0761 26.2173 16.6292 26.5889 16.6292 27.1368C16.6292 27.3825 16.6994 27.4832 16.6994 27.4832H17.6635C17.6444 27.4392 17.6252 27.3825 17.6252 27.3132C17.6252 27.1242 17.7338 27.0298 17.9189 27.0298C18.1169 27.0298 18.2318 27.1368 18.2318 27.3888V27.6974H17.6891C16.8144 27.6974 16.4504 28.0312 16.4504 28.5729C16.4504 29.0516 16.7952 29.4232 17.4401 29.4232C18.0339 29.4232 18.2765 29.1398 18.385 28.9382C18.4106 29.1398 18.5638 29.4106 19.0937 29.4106C19.2597 29.4106 19.4577 29.3791 19.5662 29.3476V28.5414C19.3747 28.5414 19.3172 28.4532 19.3172 28.2958ZM17.804 28.6359C17.638 28.6359 17.5295 28.554 17.5295 28.4217C17.5295 28.2958 17.6252 28.195 17.8359 28.195H18.2318V28.3398C18.1679 28.5288 18.0275 28.6359 17.804 28.6359Z" fill="#181516"/>
<path d="M21.5334 26.3211C20.7041 26.3211 20.1173 27.0185 20.0976 28.1048C20.0824 28.9441 20.4755 29.4255 21.1901 29.4255C21.7515 29.4255 22.0361 29.2095 22.2711 28.9133L22.1268 28.7837C21.9113 29.0552 21.6595 29.2219 21.2193 29.2219C20.6515 29.2219 20.3335 28.8145 20.3468 28.0801C20.3485 27.9875 20.3566 27.8949 20.3646 27.8024H22.438C22.4519 27.7406 22.4665 27.6357 22.4754 27.4999C22.5082 26.747 22.2161 26.3211 21.5334 26.3211ZM22.2247 27.6048H20.4001C20.5325 26.9877 20.9109 26.5248 21.5106 26.5248C22.1422 26.5248 22.287 26.9815 22.2247 27.6048Z" fill="#181516"/>
<path d="M25.3923 26.3828H25.1119L24.0358 27.6604L23.3642 26.3828H23.0707L23.8574 27.8332L22.5273 29.3576H22.8208L23.979 28.006L24.6989 29.3576H24.9924L24.1633 27.8456L25.3923 26.3828Z" fill="#181516"/>
<path d="M25.3428 30.99H25.5805L25.9329 28.8577C26.0816 29.2825 26.3252 29.4255 26.9129 29.4255C27.8014 29.4255 28.2581 28.6664 28.2581 27.5864C28.2581 26.7717 27.8514 26.3211 27.2383 26.3211C26.7002 26.3211 26.302 26.6297 26.108 27.0062L26.1268 26.8334C26.1518 26.5186 26.0642 26.3643 25.8202 26.3643C25.7639 26.3643 25.7201 26.3767 25.7014 26.3767L25.6826 26.5556C25.864 26.5556 25.9329 26.6112 25.9016 26.9074L25.3428 30.99ZM26.9192 29.2219C26.5 29.2219 26.0455 28.938 25.9641 28.5121L26.0893 27.3395C26.2394 26.8642 26.7002 26.5248 27.1757 26.5248C27.67 26.5248 28.0141 26.9136 28.0141 27.611C28.0141 28.543 27.6512 29.2219 26.9192 29.2219Z" fill="#181516"/>
<path d="M28.7251 29.3576H28.9629L29.211 27.7283C29.2798 27.0432 29.7531 26.5556 30.2661 26.5556C30.3725 26.5556 30.4788 26.5742 30.5414 26.605L30.654 26.3828C30.5852 26.3458 30.4601 26.3211 30.3349 26.3211C29.8845 26.3211 29.4174 26.6235 29.2547 27.0988L29.2923 26.8087C29.3236 26.5001 29.2172 26.3582 28.9795 26.3582C28.9357 26.3582 28.8919 26.3582 28.8606 26.3705L28.8418 26.5495C29.0358 26.5495 29.0858 26.6235 29.0608 26.8951L28.7251 29.3576Z" fill="#181516"/>
<path d="M31.9651 26.3211C31.1358 26.3211 30.5489 27.0185 30.5292 28.1048C30.514 28.9441 30.9072 29.4255 31.6217 29.4255C32.1831 29.4255 32.4677 29.2095 32.7028 28.9133L32.5584 28.7837C32.3429 29.0552 32.0911 29.2219 31.651 29.2219C31.0832 29.2219 30.7652 28.8145 30.7785 28.0801C30.7801 27.9875 30.7883 27.8949 30.7963 27.8024H32.8697C32.8836 27.7406 32.8982 27.6357 32.9071 27.4999C32.9399 26.747 32.6477 26.3211 31.9651 26.3211ZM32.6563 27.6048H30.8318C30.9642 26.9877 31.3426 26.5248 31.9423 26.5248C32.5739 26.5248 32.7187 26.9815 32.6563 27.6048Z" fill="#181516"/>
<path d="M34.6334 26.341C33.9294 26.341 33.4869 26.779 33.4799 27.2756C33.4728 27.778 33.9553 27.9416 34.4188 28.041C34.8625 28.1344 35.2664 28.222 35.2606 28.631C35.2549 29.0341 34.9267 29.2327 34.329 29.2327C33.9902 29.2327 33.566 29.1684 33.3662 28.7361L33.1521 28.853C33.3582 29.3087 33.8348 29.4256 34.3063 29.4256C35.0369 29.4256 35.499 29.1509 35.5069 28.5959C35.514 28.0935 35.0444 27.9533 34.5875 27.854C34.1174 27.7546 33.7337 27.6495 33.7393 27.2522C33.7444 26.89 34.0661 26.5337 34.6108 26.5337C35.0221 26.5337 35.3101 26.6716 35.3738 26.9356L35.5824 26.7737C35.4561 26.489 35.1033 26.341 34.6334 26.341Z" fill="#181516"/>
<path fill-rule="evenodd" clip-rule="evenodd" d="M38.5643 23C38.295 23 38.0256 23.1033 37.8192 23.3099L37.7671 23.362C37.3543 23.7752 37.3543 24.4405 37.7671 24.8537L40.8923 27.982L37.7671 31.1103C37.3543 31.5235 37.3543 32.1888 37.7671 32.602L37.8192 32.6541C38.232 33.0673 38.8966 33.0673 39.3094 32.6541L43.2004 28.7592C43.4148 28.5446 43.5175 28.262 43.5092 27.982C43.5175 27.702 43.4148 27.4194 43.2004 27.2048L39.3094 23.3099C39.103 23.1033 38.8337 23 38.5643 23Z" fill="#FDE611"/>
<path d="M11.5858 29.9964H10.6013L8.58081 32.052H9.56529L11.5858 29.9964Z" fill="#FDE611"/>
<path d="M13.4337 29.9964H12.4492L10.4287 32.052H11.4132L13.4337 29.9964Z" fill="#FDE611"/>
<path d="M15.2166 29.9964H14.2322L12.2117 32.052H13.1962L15.2166 29.9964Z" fill="#FDE611"/>
<path fill-rule="evenodd" clip-rule="evenodd" d="M43.0147 23C42.7454 23 42.476 23.1033 42.2696 23.3099L42.2175 23.362C41.8048 23.7752 41.8048 24.4405 42.2175 24.8537L45.3427 27.982L42.2175 31.1103C41.8048 31.5235 41.8048 32.1888 42.2175 32.602L42.2696 32.6541C42.6824 33.0673 43.347 33.0673 43.7598 32.6541L47.6508 28.7592C47.8652 28.5446 47.9679 28.262 47.9596 27.982C47.9679 27.702 47.8652 27.4194 47.6508 27.2048L43.7598 23.3099C43.5534 23.1033 43.2841 23 43.0147 23Z" fill="#FDE611"/>
</g>
<defs>
<clipPath id="clip0_57723_109361">
<rect width="40" height="10" fill="white" transform="translate(8 23)"/>
</clipPath>
</defs>
</svg>
