<svg width="56" height="56" viewBox="0 0 56 56" fill="none" xmlns="http://www.w3.org/2000/svg">
<rect x="0.5" y="0.5" width="55" height="55" rx="23.5" fill="white" stroke="#D0DDDE"/>
<path fill-rule="evenodd" clip-rule="evenodd" d="M8.40747 26.6106L11.6729 30.7512L8.40747 33.4712V26.6106Z" fill="#E55300"/>
<path fill-rule="evenodd" clip-rule="evenodd" d="M9.72168 33.4712L12.1787 31.405L13.877 33.4712H9.72168Z" fill="#E55300"/>
<path fill-rule="evenodd" clip-rule="evenodd" d="M8.40747 24.395L9.25962 25.4785L12.7633 29.8795L13.8987 28.9707C13.8987 28.9707 12.9561 27.8553 12.3233 26.6106C11.0859 24.177 11.9619 22.6619 11.9619 22.6619H8.40747V24.395Z" fill="#E55300"/>
<path fill-rule="evenodd" clip-rule="evenodd" d="M13.2628 30.5589L14.4191 29.5989C14.4191 29.5989 15.5234 31.0602 16.8039 31.405C18.4819 31.857 19.2248 30.7513 19.2248 30.7513V33.4712H15.5392L16.3703 32.749C16.3703 32.749 15.9367 33.0395 14.8762 32.3012C14.2503 31.8654 13.2628 30.5589 13.2628 30.5589Z" fill="#E55300"/>
<path fill-rule="evenodd" clip-rule="evenodd" d="M13.369 22.654C13.369 22.654 13.0001 23.1591 13.2627 24.395C13.5433 25.7159 14.6594 27.1141 14.6568 27.0828C14.6568 27.0828 14.7286 25.6945 15.5391 24.8798C17.2666 23.1433 19.2246 24.177 19.2246 24.177V22.6619L13.369 22.654Z" fill="#E55300"/>
<path fill-rule="evenodd" clip-rule="evenodd" d="M19.2248 26.0077C19.2248 26.0077 18.1323 25.067 17.1825 25.067C15.9675 25.067 15.3043 26.1215 15.3043 26.8863C15.3043 28.0004 15.8363 28.6195 16.3703 29.1562C17.1376 29.9275 18.0711 30.7594 19.2248 30.0899C19.2248 28.8226 19.2248 26.0077 19.2248 26.0077Z" fill="#E55300"/>
<path fill-rule="evenodd" clip-rule="evenodd" d="M31.9594 22.654H34.5678C34.5678 22.654 36.8786 26.1414 38.0143 27.5823C39.1499 29.0231 40.3723 30.6643 40.3723 30.6643C40.3723 30.6643 40.3723 25.9051 40.3723 23.435C40.3723 23.1228 39.5498 22.654 39.5498 22.654H42.5578C42.5578 22.654 41.5708 23.0582 41.5708 23.435C41.5708 26.51 41.5708 33.952 41.5708 33.952C41.5708 33.952 40.6238 33.4285 39.5498 32.1847C38.3432 30.7871 34.0508 25.1449 34.0508 25.1449C34.0508 25.1449 34.0508 30.5493 34.0508 32.5308C34.0508 32.9051 34.8733 33.4712 34.8733 33.4712H31.9594C31.9594 33.4712 32.7583 32.9005 32.7583 32.5308C32.7583 29.8677 32.7583 25.9051 32.7583 23.435C32.7583 23.1031 31.9594 22.654 31.9594 22.654Z" fill="#006685"/>
<path fill-rule="evenodd" clip-rule="evenodd" d="M44.2424 22.654H47.5902C47.5902 22.654 46.6913 23.0815 46.6913 23.4407C46.6913 25.9287 46.6913 30.0541 46.6913 32.524C46.6913 32.9165 47.5902 33.4712 47.5902 33.4712H44.2424C44.2424 33.4712 45.0794 32.9039 45.0794 32.524C45.0794 29.5579 45.0794 25.9287 45.0794 23.4407C45.0794 23.0953 44.2424 22.654 44.2424 22.654Z" fill="#006685"/>
<path fill-rule="evenodd" clip-rule="evenodd" d="M22.1097 22.654C22.1097 22.654 22.9777 23.0885 22.9777 23.4407C22.9777 25.9287 22.9777 29.5579 22.9777 32.524C22.9777 32.9101 22.1097 33.4712 22.1097 33.4712C22.1097 33.4712 26.4458 33.4712 27.0695 33.4712C27.3795 33.4712 30.8513 32.9013 30.8513 30.214C30.8513 27.5268 28.1544 27.2752 28.1544 27.2752C28.1544 27.2752 29.7973 26.8166 29.7973 24.9781C29.7973 22.9963 27.3795 22.654 27.0695 22.654C26.4253 22.654 22.1097 22.654 22.1097 22.654ZM24.7446 27.0971V23.7153C24.7446 23.7153 26.1822 23.7153 26.7595 23.7153C27.0695 23.7153 28.1544 24.0786 28.1544 25.4268C28.1544 26.538 27.0695 27.0971 26.7595 27.0971C26.0567 27.0971 24.7446 27.0971 24.7446 27.0971ZM24.7446 27.984C24.7446 27.984 26.7595 27.984 27.0695 27.984C27.3795 27.984 29.2084 28.461 29.2084 30.0541C29.2084 31.6783 27.3795 32.2538 27.0695 32.2538C26.7595 32.2538 24.7446 32.2538 24.7446 32.2538V27.984Z" fill="#006685"/>
</svg>
