<svg width="23" height="22" viewBox="0 0 23 22" fill="none" xmlns="http://www.w3.org/2000/svg">
<path d="M7.07759 17.4661L11.1248 15.0446L15.1719 17.498L14.112 12.9098L17.6773 9.85099L12.9877 9.43677L11.1248 5.10346L9.26177 9.40491L4.5722 9.81913L8.13756 12.9098L7.07759 17.4661ZM11.1248 18.0397L5.79277 21.2259C5.55722 21.3746 5.31097 21.4383 5.054 21.4171C4.79704 21.3959 4.5722 21.3109 4.37947 21.1622C4.18675 21.0135 4.03686 20.8279 3.92979 20.6052C3.82272 20.3818 3.80131 20.132 3.86555 19.8558L5.27884 13.8338L0.557147 9.78726C0.343011 9.59609 0.209391 9.37815 0.156285 9.13344C0.102323 8.88959 0.118169 8.65083 0.203823 8.41717C0.289477 8.18351 0.417959 7.99234 0.589268 7.84365C0.760576 7.69495 0.996126 7.59937 1.29592 7.55688L7.52727 7.01522L9.9363 1.34368C10.0434 1.08878 10.2095 0.897605 10.4348 0.770155C10.6592 0.642705 10.8892 0.578979 11.1248 0.578979C11.3603 0.578979 11.5907 0.642705 11.816 0.770155C12.0404 0.897605 12.2061 1.08878 12.3132 1.34368L14.7222 7.01522L20.9536 7.55688C21.2534 7.59937 21.4889 7.69495 21.6602 7.84365C21.8316 7.99234 21.96 8.18351 22.0457 8.41717C22.1313 8.65083 22.1476 8.88959 22.0945 9.13344C22.0406 9.37815 21.9065 9.59609 21.6924 9.78726L16.9707 13.8338L18.384 19.8558C18.4482 20.132 18.4268 20.3818 18.3197 20.6052C18.2127 20.8279 18.0628 21.0135 17.87 21.1622C17.6773 21.3109 17.4525 21.3959 17.1955 21.4171C16.9385 21.4383 16.6923 21.3746 16.4567 21.2259L11.1248 18.0397Z" fill="#FF7F08"/>
</svg>
