<svg width="57" height="56" viewBox="0 0 57 56" fill="none" xmlns="http://www.w3.org/2000/svg">
<g clip-path="url(#clip0_1596_12861)">
<rect x="0.5" width="56" height="56" rx="24" fill="url(#paint0_linear_1596_12861)"/>
<g style="mix-blend-mode:overlay" opacity="0.1">
<path d="M25.1468 -9H-6.5V-8.95031H16.1724C16.1724 -8.95031 10.5847 0.714015 18.4777 16.2368C22.5138 24.1766 28.526 31.2917 28.526 31.2917L21.2841 37.0883L-1.0648 9.01595L-6.5 2.1042V16.2381L14.3286 42.6499L-6.5 59.9996L1.88316 60L17.5554 46.8204L28.3879 60H38.9896L44.2909 55.3927C44.2909 55.3927 41.5248 57.2462 34.7605 52.5366C30.7681 49.7566 24.4696 41.4235 24.4696 41.4235L31.8446 35.2997C31.8446 35.2997 38.8885 44.6204 47.0569 46.8204C57.7597 49.7035 62.4983 42.6503 62.4983 42.6503L62.5 38.4313C55.141 42.7021 49.1862 37.3957 44.2917 32.4756C40.8864 29.0521 37.4929 25.1031 37.4929 17.9968C37.4929 13.1179 41.7228 6.39225 49.4734 6.39225C55.5319 6.39225 62.5 12.3922 62.5 12.3922L62.4983 0.714857C62.4983 0.714857 50.0082 -5.87851 38.9896 5.19789C33.8197 10.3943 33.3623 19.2496 33.3623 19.2496C33.3783 19.4493 26.2594 10.5312 24.4688 2.10504C22.7943 -5.77828 25.1468 -9 25.1468 -9Z" fill="black"/>
<path d="M62.4983 -8.94946L62.4992 -9H25.1468L62.4983 -8.94946Z" fill="black"/>
</g>
<g clip-path="url(#clip1_1596_12861)">
<path d="M31.7469 35.6636C29.188 35.6636 27.0971 33.561 27.0971 30.9643V25.1192C27.0971 22.5226 29.1776 20.42 31.7469 20.42H38.9973C39.4238 20.42 39.8295 20.4831 40.2248 20.5882C39.1741 19.3267 37.6034 18.5277 35.8662 18.5277H21.6671C18.5256 18.5277 15.9667 21.1138 15.9667 24.2887V31.8054C15.9667 34.9697 18.5256 37.5559 21.6671 37.5559H35.8662C37.6138 37.5559 39.1741 36.7569 40.2248 35.4953C39.8295 35.6005 39.4238 35.6636 38.9973 35.6636H31.7469Z" fill="white"/>
<path d="M38.987 22.5226H31.7366C30.3323 22.5226 29.1776 23.6895 29.1776 25.1193V30.9749C29.1776 32.4046 30.3323 33.5715 31.747 33.5715H38.9974C40.4121 33.5715 41.5667 32.4046 41.5667 30.9749V25.1193C41.5563 23.6895 40.4017 22.5226 38.987 22.5226ZM37.7075 29.5662C36.9065 29.5662 36.2512 28.9039 36.2512 28.0944C36.2512 27.2849 36.9065 26.6226 37.7075 26.6226C38.5085 26.6226 39.1638 27.2849 39.1638 28.0944C39.1638 28.9039 38.5085 29.5662 37.7075 29.5662Z" fill="white"/>
</g>
</g>
<defs>
<linearGradient id="paint0_linear_1596_12861" x1="28.5" y1="0" x2="28.5" y2="56" gradientUnits="userSpaceOnUse">
<stop stop-color="#229CF9"/>
<stop offset="1" stop-color="#226BF9"/>
</linearGradient>
<clipPath id="clip0_1596_12861">
<rect x="0.5" width="56" height="56" rx="24" fill="white"/>
</clipPath>
<clipPath id="clip1_1596_12861">
<rect width="25.6" height="25.6" fill="white" transform="translate(15.9667 15.2)"/>
</clipPath>
</defs>
</svg>
