<svg width="24" height="24" viewBox="0 0 24 24" fill="none" xmlns="http://www.w3.org/2000/svg">
<path d="M22.3 17.0934C22.2995 18.4569 21.8134 19.7794 20.922 20.8418C20.0307 21.9043 18.7876 22.6432 17.3985 22.936L16.735 21.0277C17.3426 20.9317 17.9204 20.7078 18.4268 20.3719C18.9333 20.0361 19.3557 19.5967 19.6636 19.0855H17.1C16.5483 19.0855 16.0193 18.8754 15.6292 18.5014C15.2391 18.1275 15.02 17.6203 15.02 17.0914V13.1033C15.02 12.5744 15.2391 12.0672 15.6292 11.6933C16.0193 11.3193 16.5483 11.1092 17.1 11.1092H20.1555C19.9017 9.18188 18.923 7.40954 17.4031 6.12477C15.8831 4.84001 13.9264 4.13112 11.9 4.13112C9.87362 4.13112 7.91687 4.84001 6.39692 6.12477C4.87696 7.40954 3.89827 9.18188 3.64448 11.1092H6.7C7.25165 11.1092 7.78071 11.3193 8.17078 11.6933C8.56086 12.0672 8.78 12.5744 8.78 13.1033V17.0914C8.78 17.6203 8.56086 18.1275 8.17078 18.5014C7.78071 18.8754 7.25165 19.0855 6.7 19.0855H3.58C3.02835 19.0855 2.49929 18.8754 2.10922 18.5014C1.71914 18.1275 1.5 17.6203 1.5 17.0914V12.1063C1.5 6.59968 6.15608 2.13599 11.9 2.13599C17.6439 2.13599 22.3 6.59968 22.3 12.1063V17.0934Z" fill="url(#paint0_linear_56314_103218)"/>
<defs>
<linearGradient id="paint0_linear_56314_103218" x1="11.9" y1="2.13599" x2="11.9" y2="22.936" gradientUnits="userSpaceOnUse">
<stop stop-color="#0AC7BB"/>
<stop offset="1" stop-color="#0AA5C7"/>
</linearGradient>
</defs>
</svg>
