<svg width="57" height="56" viewBox="0 0 57 56" fill="none" xmlns="http://www.w3.org/2000/svg">
<g clip-path="url(#clip0_56370_103291)">
<rect x="0.5" width="56" height="56" rx="24" fill="url(#paint0_linear_56370_103291)"/>
<g style="mix-blend-mode:overlay" opacity="0.1">
<path d="M25.1468 -9H-6.5V-8.95031H16.1724C16.1724 -8.95031 10.5847 0.714015 18.4777 16.2368C22.5138 24.1766 28.526 31.2917 28.526 31.2917L21.2841 37.0883L-1.0648 9.01595L-6.5 2.1042V16.2381L14.3286 42.6499L-6.5 59.9996L1.88316 60L17.5554 46.8204L28.3879 60H38.9896L44.2909 55.3927C44.2909 55.3927 41.5248 57.2462 34.7605 52.5366C30.7681 49.7566 24.4696 41.4235 24.4696 41.4235L31.8446 35.2997C31.8446 35.2997 38.8885 44.6204 47.0569 46.8204C57.7597 49.7035 62.4983 42.6503 62.4983 42.6503L62.5 38.4313C55.141 42.7021 49.1862 37.3957 44.2917 32.4756C40.8864 29.0521 37.4929 25.1031 37.4929 17.9968C37.4929 13.1179 41.7228 6.39225 49.4734 6.39225C55.5319 6.39225 62.5 12.3922 62.5 12.3922L62.4983 0.714857C62.4983 0.714857 50.0082 -5.87851 38.9896 5.19789C33.8197 10.3943 33.3623 19.2496 33.3623 19.2496C33.3783 19.4493 26.2594 10.5312 24.4688 2.10504C22.7943 -5.77828 25.1468 -9 25.1468 -9Z" fill="black"/>
<path d="M62.4983 -8.94946L62.4992 -9H25.1468L62.4983 -8.94946Z" fill="black"/>
</g>
<path d="M40.3092 33.5039C41.1003 32.9178 41.2692 31.7994 40.687 31.0031C40.1047 30.2067 38.9936 30.0367 38.2025 30.6228L32.8824 34.5686H27.5224C27.1313 34.5686 26.8113 34.2465 26.8113 33.8528C26.8113 33.4591 27.1313 33.137 27.5224 33.137H31.078C31.8646 33.137 32.5002 32.4973 32.5002 31.7054C32.5002 30.9136 31.8646 30.2738 31.078 30.2738H24.0423C22.749 30.2738 21.4956 30.7167 20.4867 31.5265L18.4912 33.137H16.8556C16.0689 33.137 15.4333 33.7768 15.4333 34.5686V37.4318C15.4333 38.2237 16.0689 38.8634 16.8556 38.8634H31.1002C32.3891 38.8634 33.6469 38.4473 34.6869 37.6779L40.3136 33.5039H40.3092ZM24.0379 33.1325C24.0398 33.1358 24.041 33.1394 24.0411 33.1432C24.0413 33.1469 24.0405 33.1507 24.0389 33.1541C24.0372 33.1574 24.0348 33.1604 24.0317 33.1625C24.0287 33.1647 24.0251 33.166 24.0214 33.1665C24.0177 33.1669 24.0139 33.1663 24.0104 33.1649C24.007 33.1635 24.004 33.1612 24.0016 33.1582C23.9993 33.1553 23.9977 33.1518 23.997 33.1481C23.9964 33.1444 23.9967 33.1406 23.9979 33.137C23.9959 33.1338 23.9948 33.1302 23.9946 33.1264C23.9945 33.1226 23.9952 33.1189 23.9969 33.1155C23.9985 33.1121 24.001 33.1092 24.0041 33.1071C24.0071 33.1049 24.0107 33.1035 24.0144 33.1031C24.0181 33.1027 24.0219 33.1032 24.0253 33.1047C24.0288 33.1061 24.0318 33.1084 24.0342 33.1113C24.0365 33.1143 24.0381 33.1178 24.0387 33.1215C24.0394 33.1252 24.0391 33.129 24.0379 33.1325Z" fill="white"/>
<path fill-rule="evenodd" clip-rule="evenodd" d="M19.6157 17.4977C19.0945 17.9444 18.8018 18.5502 18.8018 19.182V25.5339C18.8018 26.1657 19.0945 26.7715 19.6157 27.2182C20.1369 27.6649 20.8437 27.9159 21.5807 27.9159H34.5493C35.2863 27.9159 35.9932 27.6649 36.5143 27.2182C37.0355 26.7715 37.3283 26.1657 37.3283 25.5339V19.182C37.3283 18.5502 37.0355 17.9444 36.5143 17.4977C35.9932 17.0509 35.2863 16.8 34.5493 16.8H21.5807C20.8437 16.8 20.1369 17.0509 19.6157 17.4977ZM28.2335 24.5474C29.3497 24.5474 30.2545 23.6426 30.2545 22.5264C30.2545 21.4102 29.3497 20.5053 28.2335 20.5053C27.1173 20.5053 26.2124 21.4102 26.2124 22.5264C26.2124 23.6426 27.1173 24.5474 28.2335 24.5474Z" fill="white"/>
</g>
<defs>
<linearGradient id="paint0_linear_56370_103291" x1="28.5" y1="0" x2="28.5" y2="56" gradientUnits="userSpaceOnUse">
<stop stop-color="#F7CC34"/>
<stop offset="1" stop-color="#F7B534"/>
</linearGradient>
<clipPath id="clip0_56370_103291">
<rect x="0.5" width="56" height="56" rx="24" fill="white"/>
</clipPath>
</defs>
</svg>
