<svg width="56" height="56" viewBox="0 0 56 56" fill="none" xmlns="http://www.w3.org/2000/svg">
<rect x="0.5" y="0.5" width="55" height="55" rx="23.5" fill="white" stroke="#D0DDDE"/>
<path d="M41.3333 20V36C41.3333 36.7333 41.0724 37.3613 40.5506 37.884C40.028 38.4058 39.4 38.6667 38.6666 38.6667H17.3333C16.6 38.6667 15.9724 38.4058 15.4506 37.884C14.928 37.3613 14.6666 36.7333 14.6666 36V20C14.6666 19.2667 14.928 18.6391 15.4506 18.1173C15.9724 17.5947 16.6 17.3333 17.3333 17.3333H38.6666C39.4 17.3333 40.028 17.5947 40.5506 18.1173C41.0724 18.6391 41.3333 19.2667 41.3333 20ZM17.3333 22.6667H38.6666V20H17.3333V22.6667ZM17.3333 28V36H38.6666V28H17.3333ZM17.3333 36V20V36Z" fill="url(#paint0_linear_56363_103843)"/>
<defs>
<linearGradient id="paint0_linear_56363_103843" x1="28" y1="17.3333" x2="28" y2="38.6667" gradientUnits="userSpaceOnUse">
<stop stop-color="#F7CC34"/>
<stop offset="1" stop-color="#F7B534"/>
</linearGradient>
</defs>
</svg>
