<svg width="16" height="16" viewBox="0 0 16 16" fill="none" xmlns="http://www.w3.org/2000/svg">
<path d="M3.33333 12.6667H4.26667L10.0167 6.91668L9.08333 5.98334L3.33333 11.7333V12.6667ZM12.8667 5.95001L10.0333 3.15001L10.9667 2.21668C11.2222 1.96112 11.5362 1.83334 11.9087 1.83334C12.2807 1.83334 12.5944 1.96112 12.85 2.21668L13.7833 3.15001C14.0389 3.40557 14.1722 3.71401 14.1833 4.07534C14.1944 4.43623 14.0722 4.74445 13.8167 5.00001L12.8667 5.95001ZM2.66667 14C2.47778 14 2.31956 13.936 2.192 13.808C2.064 13.6805 2 13.5222 2 13.3333V11.45C2 11.3611 2.01667 11.2751 2.05 11.192C2.08333 11.1085 2.13333 11.0333 2.2 10.9667L9.06667 4.10001L11.9 6.93334L5.03333 13.8C4.96667 13.8667 4.89178 13.9167 4.80867 13.95C4.72511 13.9833 4.63889 14 4.55 14H2.66667ZM9.55 6.45001L9.08333 5.98334L10.0167 6.91668L9.55 6.45001Z" fill="#FF7F08"/>
</svg>
