<svg width="23" height="24" viewBox="0 0 23 24" fill="none" xmlns="http://www.w3.org/2000/svg">
<path d="M12.529 17.3L8.1957 12.7C8.1015 12.6 8.03493 12.4917 7.99599 12.375C7.95643 12.2584 7.93665 12.1334 7.93665 12C7.93665 11.8667 7.95643 11.7417 7.99599 11.625C8.03493 11.5084 8.1015 11.4 8.1957 11.3L12.529 6.70005C12.7017 6.51672 12.9215 6.42505 13.1885 6.42505C13.4554 6.42505 13.6752 6.51672 13.8479 6.70005C14.0206 6.88338 14.1069 7.11672 14.1069 7.40005C14.1069 7.68338 14.0206 7.91672 13.8479 8.10005L10.174 12L13.8479 15.9C14.0206 16.0834 14.1069 16.3167 14.1069 16.6C14.1069 16.8834 14.0206 17.1167 13.8479 17.3C13.6752 17.4834 13.4554 17.575 13.1885 17.575C12.9215 17.575 12.7017 17.4834 12.529 17.3Z" fill="black"/>
</svg>
