<svg width="57" height="56" viewBox="0 0 57 56" fill="none" xmlns="http://www.w3.org/2000/svg">
<g clip-path="url(#clip0_56658_1393)">
<rect x="0.5" width="56" height="56" rx="24" fill="url(#paint0_linear_56658_1393)"/>
<g style="mix-blend-mode:overlay" opacity="0.1">
<path d="M25.1468 -9H-6.5V-8.95031H16.1724C16.1724 -8.95031 10.5847 0.714015 18.4777 16.2368C22.5138 24.1766 28.526 31.2917 28.526 31.2917L21.2841 37.0883L-1.0648 9.01595L-6.5 2.1042V16.2381L14.3286 42.6499L-6.5 59.9996L1.88316 60L17.5554 46.8204L28.3879 60H38.9896L44.2909 55.3927C44.2909 55.3927 41.5248 57.2462 34.7605 52.5366C30.7681 49.7566 24.4696 41.4235 24.4696 41.4235L31.8446 35.2997C31.8446 35.2997 38.8885 44.6204 47.0569 46.8204C57.7597 49.7035 62.4983 42.6503 62.4983 42.6503L62.5 38.4313C55.141 42.7021 49.1862 37.3957 44.2917 32.4756C40.8864 29.0521 37.4929 25.1031 37.4929 17.9968C37.4929 13.1179 41.7228 6.39225 49.4734 6.39225C55.5319 6.39225 62.5 12.3922 62.5 12.3922L62.4983 0.714857C62.4983 0.714857 50.0082 -5.87851 38.9896 5.19789C33.8197 10.3943 33.3623 19.2496 33.3623 19.2496C33.3783 19.4493 26.2594 10.5312 24.4688 2.10504C22.7943 -5.77828 25.1468 -9 25.1468 -9Z" fill="black"/>
<path d="M62.4983 -8.94946L62.4992 -9H25.1468L62.4983 -8.94946Z" fill="black"/>
</g>
</g>
<path fill-rule="evenodd" clip-rule="evenodd" d="M19 15C16.7909 15 15 16.7909 15 19V37C15 39.2091 16.7909 41 19 41H28V35C28 31.6863 30.6863 29 34 29H36V19C36 16.7909 34.2091 15 32 15H19ZM24.3333 19H19V21.6667H24.3333H29.6667V19H24.3333ZM19 27V24.3333H29.6667V27H19ZM19 29.6667H25.6667V32.3333H19V29.6667Z" fill="white"/>
<path d="M31 39.1773V32.6001H33.6979C34.2559 32.6001 34.7367 32.6972 35.1404 32.8914C35.544 33.0793 35.8557 33.3518 36.0753 33.7088C36.295 34.0659 36.4048 34.4918 36.4048 34.9867C36.4048 35.4753 36.295 35.8981 36.0753 36.2551C35.8557 36.6059 35.544 36.8753 35.1404 37.0632C34.7367 37.2511 34.2559 37.3451 33.6979 37.3451H31.8014L32.4425 36.6779V39.1773H31ZM34.9623 39.1773L33.4041 36.7907H34.9445L36.5205 39.1773H34.9623ZM32.4425 36.8471L31.8014 36.133H33.6178C34.063 36.133 34.3954 36.0328 34.6151 35.8323C34.8347 35.6256 34.9445 35.3437 34.9445 34.9867C34.9445 34.6234 34.8347 34.3415 34.6151 34.141C34.3954 33.9406 34.063 33.8404 33.6178 33.8404H31.8014L32.4425 33.1169V36.8471Z" fill="white"/>
<path d="M39.8137 39.2524C39.4101 39.2524 39.0569 39.1585 38.7541 38.9706C38.4514 38.7826 38.2139 38.4976 38.0418 38.1155C37.8756 37.7272 37.7925 37.2386 37.7925 36.6498C37.7925 36.0547 37.8726 35.5661 38.0329 35.184C38.1932 34.8019 38.4247 34.5169 38.7274 34.329C39.0302 34.141 39.3922 34.0471 39.8137 34.0471C40.2648 34.0471 40.6685 34.1567 41.0247 34.3759C41.3868 34.5889 41.6717 34.8896 41.8795 35.2779C42.0932 35.6663 42.2 36.1236 42.2 36.6498C42.2 37.1822 42.0932 37.6426 41.8795 38.031C41.6717 38.4193 41.3868 38.72 41.0247 38.933C40.6685 39.146 40.2648 39.2524 39.8137 39.2524ZM36.9822 41.0001V34.1222H38.3089V35.1558L38.2822 36.6592L38.3712 38.1531V41.0001H36.9822ZM39.5733 38.0498C39.8048 38.0498 40.0096 37.9934 40.1877 37.8806C40.3717 37.7679 40.5171 37.6082 40.624 37.4014C40.7368 37.1885 40.7932 36.9379 40.7932 36.6498C40.7932 36.3554 40.7368 36.1048 40.624 35.8981C40.5171 35.6914 40.3717 35.5316 40.1877 35.4189C40.0096 35.3061 39.8048 35.2498 39.5733 35.2498C39.3418 35.2498 39.134 35.3061 38.95 35.4189C38.766 35.5316 38.6206 35.6914 38.5137 35.8981C38.4069 36.1048 38.3534 36.3554 38.3534 36.6498C38.3534 36.9379 38.4069 37.1885 38.5137 37.4014C38.6206 37.6082 38.766 37.7679 38.95 37.8806C39.134 37.9934 39.3418 38.0498 39.5733 38.0498Z" fill="white"/>
<defs>
<linearGradient id="paint0_linear_56658_1393" x1="28.5" y1="0" x2="28.5" y2="56" gradientUnits="userSpaceOnUse">
<stop stop-color="#D240BA"/>
<stop offset="1" stop-color="#C03789"/>
</linearGradient>
<clipPath id="clip0_56658_1393">
<rect x="0.5" width="56" height="56" rx="24" fill="white"/>
</clipPath>
</defs>
</svg>
