<svg width="57" height="56" viewBox="0 0 57 56" fill="none" xmlns="http://www.w3.org/2000/svg">
<g clip-path="url(#clip0_56363_103445)">
<rect x="0.5" width="56" height="56" rx="24" fill="url(#paint0_linear_56363_103445)"/>
<g style="mix-blend-mode:overlay" opacity="0.1">
<path d="M25.1468 -9H-6.5V-8.95031H16.1724C16.1724 -8.95031 10.5847 0.714015 18.4777 16.2368C22.5138 24.1766 28.526 31.2917 28.526 31.2917L21.2841 37.0883L-1.0648 9.01595L-6.5 2.1042V16.2381L14.3286 42.6499L-6.5 59.9996L1.88316 60L17.5554 46.8204L28.3879 60H38.9896L44.2909 55.3927C44.2909 55.3927 41.5248 57.2462 34.7605 52.5366C30.7681 49.7566 24.4696 41.4235 24.4696 41.4235L31.8446 35.2997C31.8446 35.2997 38.8885 44.6204 47.0569 46.8204C57.7597 49.7035 62.4983 42.6503 62.4983 42.6503L62.5 38.4313C55.141 42.7021 49.1862 37.3957 44.2917 32.4756C40.8864 29.0521 37.4929 25.1031 37.4929 17.9968C37.4929 13.1179 41.7228 6.39225 49.4734 6.39225C55.5319 6.39225 62.5 12.3922 62.5 12.3922L62.4983 0.714857C62.4983 0.714857 50.0082 -5.87851 38.9896 5.19789C33.8197 10.3943 33.3623 19.2496 33.3623 19.2496C33.3783 19.4493 26.2594 10.5312 24.4688 2.10504C22.7943 -5.77828 25.1468 -9 25.1468 -9Z" fill="black"/>
<path d="M62.4983 -8.94946L62.4992 -9H25.1468L62.4983 -8.94946Z" fill="black"/>
</g>
<path fill-rule="evenodd" clip-rule="evenodd" d="M27.9997 41.2334H27.6663C27.5552 41.2334 27.4552 41.2111 27.3663 41.1667C24.4552 40.2556 22.0552 38.4498 20.1663 35.7494C18.2775 33.0498 17.333 30.0667 17.333 26.8V20.5C17.333 19.9445 17.4943 19.4445 17.817 19C18.1388 18.5556 18.5552 18.2334 19.0663 18.0334L27.0663 15.0334C27.3775 14.9223 27.6886 14.8667 27.9997 14.8667C28.3108 14.8667 28.6219 14.9223 28.933 15.0334L36.933 18.0334C37.4441 18.2334 37.861 18.5556 38.1837 19C38.5055 19.4445 38.6663 19.9445 38.6663 20.5V26.8C38.6663 30.0667 37.7219 33.0498 35.833 35.7494C33.9441 38.4498 31.5441 40.2556 28.633 41.1667C28.5219 41.2111 28.3108 41.2334 27.9997 41.2334ZM28.3333 24.6666C28.0667 24.3333 27.7222 24.072 27.3 23.8826C26.8778 23.6942 26.4222 23.6 25.9333 23.6C25.1333 23.6 24.4444 23.8889 23.8667 24.4666C23.2889 25.0444 23 25.7333 23 26.5333C23 27.2222 23.172 27.8666 23.516 28.4666C23.8609 29.0666 24.6889 29.9666 26 31.1666L27.4333 32.5C27.6778 32.7444 27.9778 32.8666 28.3333 32.8666C28.6889 32.8666 28.9889 32.7444 29.2333 32.5L30.6333 31.2C31.9222 30 32.7502 29.0889 33.1173 28.4666C33.4836 27.8444 33.6667 27.2 33.6667 26.5333C33.6667 25.7333 33.3778 25.0444 32.8 24.4666C32.2222 23.8889 31.5333 23.6 30.7333 23.6C30.2667 23.6 29.8169 23.6942 29.384 23.8826C28.9502 24.072 28.6 24.3333 28.3333 24.6666Z" fill="white"/>
</g>
<defs>
<linearGradient id="paint0_linear_56363_103445" x1="28.5" y1="0" x2="28.5" y2="56" gradientUnits="userSpaceOnUse">
<stop stop-color="#8A79FB"/>
<stop offset="1" stop-color="#6650F7"/>
</linearGradient>
<clipPath id="clip0_56363_103445">
<rect x="0.5" width="56" height="56" rx="24" fill="white"/>
</clipPath>
</defs>
</svg>
