<svg width="20" height="20" viewBox="0 0 20 20" fill="none" xmlns="http://www.w3.org/2000/svg">
<path d="M7.5 15C7.04167 15 6.64944 14.837 6.32333 14.5108C5.99667 14.1842 5.83333 13.7917 5.83333 13.3333V3.33334C5.83333 2.87501 5.99667 2.48251 6.32333 2.15584C6.64944 1.82973 7.04167 1.66667 7.5 1.66667H15C15.4583 1.66667 15.8508 1.82973 16.1775 2.15584C16.5036 2.48251 16.6667 2.87501 16.6667 3.33334V13.3333C16.6667 13.7917 16.5036 14.1842 16.1775 14.5108C15.8508 14.837 15.4583 15 15 15H7.5ZM7.5 13.3333H15V3.33334H7.5V13.3333ZM4.16667 18.3333C3.70833 18.3333 3.31583 18.1703 2.98917 17.8442C2.66306 17.5175 2.5 17.125 2.5 16.6667V5.83334C2.5 5.59723 2.58 5.39917 2.74 5.23917C2.89944 5.07973 3.09722 5.00001 3.33333 5.00001C3.56944 5.00001 3.7675 5.07973 3.9275 5.23917C4.08694 5.39917 4.16667 5.59723 4.16667 5.83334V16.6667H12.5C12.7361 16.6667 12.9342 16.7467 13.0942 16.9067C13.2536 17.0661 13.3333 17.2639 13.3333 17.5C13.3333 17.7361 13.2536 17.9339 13.0942 18.0933C12.9342 18.2533 12.7361 18.3333 12.5 18.3333H4.16667ZM7.5 3.33334V13.3333V3.33334Z" fill="white"/>
</svg>
