<svg width="57" height="56" viewBox="0 0 57 56" fill="none" xmlns="http://www.w3.org/2000/svg">
<g clip-path="url(#clip0_1596_12924)">
<rect x="0.5" width="56" height="56" rx="24" fill="url(#paint0_linear_1596_12924)"/>
<g style="mix-blend-mode:overlay" opacity="0.1">
<path d="M25.1468 -9H-6.5V-8.95031H16.1724C16.1724 -8.95031 10.5847 0.714015 18.4777 16.2368C22.5138 24.1766 28.526 31.2917 28.526 31.2917L21.2841 37.0883L-1.0648 9.01595L-6.5 2.1042V16.2381L14.3286 42.6499L-6.5 59.9996L1.88316 60L17.5554 46.8204L28.3879 60H38.9896L44.2909 55.3927C44.2909 55.3927 41.5248 57.2462 34.7605 52.5366C30.7681 49.7566 24.4696 41.4235 24.4696 41.4235L31.8446 35.2997C31.8446 35.2997 38.8885 44.6204 47.0569 46.8204C57.7597 49.7035 62.4983 42.6503 62.4983 42.6503L62.5 38.4313C55.141 42.7021 49.1862 37.3957 44.2917 32.4756C40.8864 29.0521 37.4929 25.1031 37.4929 17.9968C37.4929 13.1179 41.7228 6.39225 49.4734 6.39225C55.5319 6.39225 62.5 12.3922 62.5 12.3922L62.4983 0.714857C62.4983 0.714857 50.0082 -5.87851 38.9896 5.19789C33.8197 10.3943 33.3623 19.2496 33.3623 19.2496C33.3783 19.4493 26.2594 10.5312 24.4688 2.10504C22.7943 -5.77828 25.1468 -9 25.1468 -9Z" fill="black"/>
<path d="M62.4983 -8.94946L62.4992 -9H25.1468L62.4983 -8.94946Z" fill="black"/>
</g>
<path fill-rule="evenodd" clip-rule="evenodd" d="M20.5 34.6667C20.1222 34.6667 19.8055 34.5389 19.55 34.2833C19.2944 34.0278 19.1666 33.7111 19.1666 33.3333V26.6333C19.1666 26.2556 19.2944 25.9445 19.55 25.7C19.8055 25.4556 20.1222 25.3333 20.5 25.3333C20.8777 25.3333 21.1944 25.4611 21.45 25.7167C21.7055 25.9722 21.8333 26.2889 21.8333 26.6667V33.3667C21.8333 33.7444 21.7055 34.0556 21.45 34.3C21.1944 34.5445 20.8777 34.6667 20.5 34.6667ZM28.5 31.5C28.1222 31.5 27.8055 31.3722 27.55 31.1167C27.2944 30.8611 27.1666 30.5445 27.1666 30.1667L27.1666 26.6333C27.1666 26.2556 27.2944 25.9445 27.55 25.7C27.8055 25.4556 28.1222 25.3333 28.5 25.3333C28.8777 25.3333 29.1944 25.4611 29.45 25.7167C29.7055 25.9722 29.8333 26.2889 29.8333 26.6667L29.8333 30.2C29.8333 30.5778 29.7055 30.8889 29.45 31.1334C29.1944 31.3778 28.8777 31.5 28.5 31.5ZM16.4666 40C16.0888 40 15.7777 39.8722 15.5333 39.6167C15.2888 39.3611 15.1666 39.0444 15.1666 38.6667C15.1666 38.2889 15.2944 37.9722 15.55 37.7167C15.8055 37.4611 16.1222 37.3333 16.5 37.3333H25.8666C26.2444 37.3333 26.5555 37.4611 26.8 37.7167C27.0444 37.9722 27.1666 38.2889 27.1666 38.6667C27.1666 39.0444 27.0388 39.3611 26.7833 39.6167C26.5277 39.8722 26.2111 40 25.8333 40H16.4666ZM29.7 13.9333L40.9333 19.5333C41.2222 19.6889 41.4444 19.9056 41.6 20.1833C41.7555 20.4611 41.8333 20.7667 41.8333 21.1C41.8333 21.5445 41.6722 21.9167 41.35 22.2167C41.0277 22.5167 40.6444 22.6667 40.2 22.6667H16.8333C16.3888 22.6667 16 22.5167 15.6666 22.2167C15.3333 21.9167 15.1666 21.5445 15.1666 21.1C15.1666 20.7889 15.2388 20.4889 15.3833 20.2C15.5277 19.9111 15.7555 19.7 16.0666 19.5667L27.3 13.9333C27.6777 13.7556 28.0777 13.6667 28.5 13.6667C28.9222 13.6667 29.3222 13.7556 29.7 13.9333ZM36.3655 32.6917C36.0989 32.425 35.9711 32.1028 35.9822 31.725C35.9933 31.3472 36.1322 31.025 36.3989 30.7583L37.2755 29.8817H34.5C34.1222 29.8817 33.8055 29.7539 33.55 29.4984C33.2944 29.2428 33.1666 28.9262 33.1666 28.5484C33.1666 28.1706 33.2944 27.8539 33.55 27.5984C33.8055 27.3428 34.1222 27.2151 34.5 27.2151H37.2755L36.3605 26.3C36.0938 26.0333 35.9605 25.7167 35.9605 25.35C35.9605 24.9833 36.0938 24.6667 36.3605 24.4C36.6271 24.1333 36.9438 24 37.3105 24C37.6771 24 37.9938 24.1333 38.2605 24.4L41.4755 27.6151C41.6088 27.7484 41.7033 27.8928 41.7588 28.0484C41.8144 28.2039 41.8421 28.3706 41.8421 28.5484C41.8421 28.7262 41.8144 28.8928 41.7588 29.0484C41.7033 29.2039 41.6088 29.3484 41.4755 29.4817L38.2322 32.725C37.9878 32.9694 37.6822 33.0917 37.3155 33.0917C36.9489 33.0917 36.6322 32.9583 36.3655 32.6917ZM33.3598 32.3667C33.3709 31.9889 33.2432 31.6667 32.9765 31.4C32.7098 31.1333 32.3932 31 32.0265 31C31.6598 31 31.3543 31.1222 31.1098 31.3667L27.8666 34.6099C27.7332 34.7433 27.6388 34.8877 27.5832 35.0433C27.5277 35.1988 27.4999 35.3655 27.4999 35.5433C27.4999 35.7211 27.5277 35.8877 27.5832 36.0433C27.6388 36.1988 27.7332 36.3433 27.8666 36.4766L31.0816 39.6917C31.3482 39.9583 31.6649 40.0917 32.0316 40.0917C32.3982 40.0917 32.7149 39.9583 32.9816 39.6917C33.2482 39.425 33.3816 39.1083 33.3816 38.7417C33.3816 38.375 33.2482 38.0583 32.9816 37.7917L32.0666 36.8766H34.8421C35.2199 36.8766 35.5365 36.7488 35.7921 36.4933C36.0476 36.2377 36.1754 35.9211 36.1754 35.5433C36.1754 35.1655 36.0476 34.8488 35.7921 34.5933C35.5365 34.3377 35.2199 34.2099 34.8421 34.2099H32.0666L32.9432 33.3333C33.2098 33.0667 33.3487 32.7444 33.3598 32.3667Z" fill="white"/>
</g>
<defs>
<linearGradient id="paint0_linear_1596_12924" x1="28.5" y1="0" x2="28.5" y2="56" gradientUnits="userSpaceOnUse">
<stop stop-color="#1BC1CE"/>
<stop offset="1" stop-color="#1BAECE"/>
</linearGradient>
<clipPath id="clip0_1596_12924">
<rect x="0.5" width="56" height="56" rx="24" fill="white"/>
</clipPath>
</defs>
</svg>
