<svg width="57" height="56" viewBox="0 0 57 56" fill="none" xmlns="http://www.w3.org/2000/svg">
<g clip-path="url(#clip0_56370_103337)">
<rect x="0.5" width="56" height="56" rx="24" fill="url(#paint0_linear_56370_103337)"/>
<g style="mix-blend-mode:overlay" opacity="0.1">
<path d="M25.1468 -9H-6.5V-8.95031H16.1724C16.1724 -8.95031 10.5847 0.714015 18.4777 16.2368C22.5138 24.1766 28.526 31.2917 28.526 31.2917L21.2841 37.0883L-1.0648 9.01595L-6.5 2.1042V16.2381L14.3286 42.6499L-6.5 59.9996L1.88316 60L17.5554 46.8204L28.3879 60H38.9896L44.2909 55.3927C44.2909 55.3927 41.5248 57.2462 34.7605 52.5366C30.7681 49.7566 24.4696 41.4235 24.4696 41.4235L31.8446 35.2997C31.8446 35.2997 38.8885 44.6204 47.0569 46.8204C57.7597 49.7035 62.4983 42.6503 62.4983 42.6503L62.5 38.4313C55.141 42.7021 49.1862 37.3957 44.2917 32.4756C40.8864 29.0521 37.4929 25.1031 37.4929 17.9968C37.4929 13.1179 41.7228 6.39225 49.4734 6.39225C55.5319 6.39225 62.5 12.3922 62.5 12.3922L62.4983 0.714857C62.4983 0.714857 50.0082 -5.87851 38.9896 5.19789C33.8197 10.3943 33.3623 19.2496 33.3623 19.2496C33.3783 19.4493 26.2594 10.5312 24.4688 2.10504C22.7943 -5.77828 25.1468 -9 25.1468 -9Z" fill="black"/>
<path d="M62.4983 -8.94946L62.4992 -9H25.1468L62.4983 -8.94946Z" fill="black"/>
</g>
</g>
<g clip-path="url(#clip1_56370_103337)">
<path d="M26.6667 25.3334H18.6667V37.3334H26.6667V25.3334Z" fill="white"/>
<path d="M37.3334 25.3334H29.3334V37.3334H37.3334V25.3334Z" fill="white"/>
<path fill-rule="evenodd" clip-rule="evenodd" d="M34.6673 15.3812C33.8563 14.913 32.9364 14.6666 32 14.6667C31.2431 14.6654 30.4945 14.8259 29.8047 15.1375C29.1148 15.4491 28.4995 15.9045 28 16.4734C27.1252 15.4812 25.9128 14.8496 24.5984 14.7012C23.284 14.5528 21.9613 14.8981 20.8872 15.6701C19.813 16.4421 19.0641 17.5857 18.7859 18.8789C18.5076 20.1721 18.7199 21.5225 19.3814 22.668L13.3334 22.6667V25.3334H16V38.6667C16 39.0203 16.1405 39.3595 16.3906 39.6095C16.6406 39.8596 16.9798 40 17.3334 40H38.6667C39.0203 40 39.3595 39.8596 39.6095 39.6095C39.8596 39.3595 40 39.0203 40 38.6667V25.3334H42.6667V22.6667L36.6187 22.668C37.0871 21.8572 37.3338 20.9374 37.334 20.001C37.3342 19.0646 37.0878 18.1447 36.6197 17.3338C36.1516 16.5228 35.4782 15.8494 34.6673 15.3812ZM18.6667 25.3334H26.6667H29.3334H37.3334V37.3334H29.3334H26.6667H18.6667V25.3334ZM22.1425 18.0752C22.642 17.5963 23.3081 17.3303 24 17.3334L24.1987 17.34L24.404 17.364C25.0339 17.4606 25.6084 17.7795 26.0235 18.263C26.4386 18.7466 26.6667 19.3628 26.6667 20V22.6667H24L23.8 22.66C23.1098 22.6112 22.4655 22.296 22.0034 21.781C21.5412 21.266 21.2974 20.5914 21.3233 19.8999C21.3493 19.2085 21.643 18.5541 22.1425 18.0752ZM30.186 18.0447C30.6793 17.5872 31.3273 17.3331 32 17.3334C32.7073 17.3334 33.3856 17.6143 33.8857 18.1144C34.3858 18.6145 34.6667 19.2928 34.6667 20L34.66 20.2C34.6096 20.8709 34.3074 21.4979 33.8141 21.9554C33.3208 22.4128 32.6728 22.6669 32 22.6667H29.3334V20L29.34 19.8C29.3905 19.1292 29.6927 18.5021 30.186 18.0447Z" fill="white"/>
</g>
<defs>
<linearGradient id="paint0_linear_56370_103337" x1="28.5" y1="0" x2="28.5" y2="56" gradientUnits="userSpaceOnUse">
<stop stop-color="#D240BA"/>
<stop offset="1" stop-color="#C03789"/>
</linearGradient>
<clipPath id="clip0_56370_103337">
<rect x="0.5" width="56" height="56" rx="24" fill="white"/>
</clipPath>
<clipPath id="clip1_56370_103337">
<rect width="32" height="32" fill="white" transform="translate(12 12)"/>
</clipPath>
</defs>
</svg>
