<svg width="56" height="56" viewBox="0 0 56 56" fill="none" xmlns="http://www.w3.org/2000/svg">
<rect x="0.5" y="0.5" width="55" height="55" rx="23.5" fill="white" stroke="#D0DDDE"/>
<g clip-path="url(#clip0_57288_106535)">
<path fill-rule="evenodd" clip-rule="evenodd" d="M16 16V19.5599C16.6195 19.8183 17.0549 20.4297 17.0549 21.1428C17.0549 22.0896 16.2874 22.8571 15.3406 22.8571C14.7081 22.8571 14.0474 22.656 13.5137 22.2223C12.9702 21.7807 12.5714 21.0962 12.5714 20.2857V15.1428C12.5714 14.3324 12.9702 13.6479 13.5137 13.2063C14.0474 12.7726 14.7081 12.5714 15.3406 12.5714H40.6593C41.2918 12.5714 41.9525 12.7726 42.4863 13.2063C43.0298 13.6479 43.4286 14.3324 43.4286 15.1428V20.2857C43.4286 21.0962 43.0298 21.7807 42.4863 22.2223C41.9525 22.656 41.2918 22.8571 40.6593 22.8571C39.7126 22.8571 38.945 22.0896 38.945 21.1428C38.945 20.4297 39.3805 19.8183 40 19.5599V16H16Z" fill="url(#paint0_linear_57288_106535)"/>
<path fill-rule="evenodd" clip-rule="evenodd" d="M21.7142 20.5714V35.4285H34.2856V20.5714H21.7142ZM18.2856 20C18.2856 18.422 19.5648 17.1428 21.1428 17.1428H34.8571C36.435 17.1428 37.7142 18.422 37.7142 20V36C37.7142 37.5779 36.435 38.8571 34.8571 38.8571H21.1428C19.5648 38.8571 18.2856 37.5779 18.2856 36V20Z" fill="url(#paint1_linear_57288_106535)"/>
<path fill-rule="evenodd" clip-rule="evenodd" d="M28 26.2857C27.0533 26.2857 26.2857 27.0532 26.2857 28C26.2857 28.9467 27.0533 29.7143 28 29.7143C28.9468 29.7143 29.7143 28.9467 29.7143 28C29.7143 27.0532 28.9468 26.2857 28 26.2857ZM22.8572 28C22.8572 25.1597 25.1597 22.8571 28 22.8571C30.8404 22.8571 33.1429 25.1597 33.1429 28C33.1429 30.8403 30.8404 33.1428 28 33.1428C25.1597 33.1428 22.8572 30.8403 22.8572 28Z" fill="url(#paint2_linear_57288_106535)"/>
<path fill-rule="evenodd" clip-rule="evenodd" d="M18.2856 41.7143C18.2856 40.7675 19.0532 40 19.9999 40H35.9999C36.9467 40 37.7142 40.7675 37.7142 41.7143C37.7142 42.6611 36.9467 43.4286 35.9999 43.4286H19.9999C19.0532 43.4286 18.2856 42.6611 18.2856 41.7143Z" fill="url(#paint3_linear_57288_106535)"/>
</g>
<defs>
<linearGradient id="paint0_linear_57288_106535" x1="28" y1="12.5714" x2="28" y2="22.8571" gradientUnits="userSpaceOnUse">
<stop stop-color="#FF7F08"/>
<stop offset="1" stop-color="#FF4308"/>
</linearGradient>
<linearGradient id="paint1_linear_57288_106535" x1="27.9999" y1="17.1428" x2="27.9999" y2="38.8571" gradientUnits="userSpaceOnUse">
<stop stop-color="#FF7F08"/>
<stop offset="1" stop-color="#FF4308"/>
</linearGradient>
<linearGradient id="paint2_linear_57288_106535" x1="28" y1="22.8571" x2="28" y2="33.1428" gradientUnits="userSpaceOnUse">
<stop stop-color="#FF7F08"/>
<stop offset="1" stop-color="#FF4308"/>
</linearGradient>
<linearGradient id="paint3_linear_57288_106535" x1="27.9999" y1="40" x2="27.9999" y2="43.4286" gradientUnits="userSpaceOnUse">
<stop stop-color="#FF7F08"/>
<stop offset="1" stop-color="#FF4308"/>
</linearGradient>
<clipPath id="clip0_57288_106535">
<rect width="32" height="32" fill="white" transform="translate(12 12)"/>
</clipPath>
</defs>
</svg>
