<svg width="25" height="24" viewBox="0 0 25 24" fill="none" xmlns="http://www.w3.org/2000/svg">
<path d="M14.0972 11.5111L17.1528 14.5667C17.3769 14.7907 17.4889 15.0759 17.4889 15.4222C17.4889 15.7685 17.3769 16.0537 17.1528 16.2778C16.9287 16.5019 16.6435 16.6139 16.2972 16.6139C15.9509 16.6139 15.6657 16.5019 15.4417 16.2778L12.0194 12.8556C11.8972 12.7333 11.8056 12.5956 11.7444 12.4424C11.6833 12.2901 11.6528 12.1324 11.6528 11.9694V7.11111C11.6528 6.76481 11.7701 6.47433 12.0048 6.23967C12.2386 6.00582 12.5287 5.88889 12.875 5.88889C13.2213 5.88889 13.5118 6.00582 13.7464 6.23967C13.9803 6.47433 14.0972 6.76481 14.0972 7.11111V11.5111ZM12.875 23C10.4102 23 8.2 22.2716 6.24444 20.8147C4.28889 19.3586 2.975 17.4593 2.30278 15.1167C2.20093 14.75 2.23678 14.4037 2.41033 14.0778C2.58307 13.7519 2.85278 13.5481 3.21944 13.4667C3.56574 13.3852 3.87659 13.4614 4.152 13.6952C4.42659 13.9299 4.61481 14.2204 4.71667 14.5667C5.2463 16.3593 6.27011 17.8056 7.78811 18.9056C9.3053 20.0056 11.0009 20.5556 12.875 20.5556C15.2583 20.5556 17.2799 19.7253 18.9397 18.0647C20.6003 16.4049 21.4306 14.3833 21.4306 12C21.4306 9.61667 20.6003 7.5947 18.9397 5.93411C17.2799 4.27433 15.2583 3.44444 12.875 3.44444C11.4694 3.44444 10.1556 3.77037 8.93333 4.42222C7.71111 5.07407 6.68241 5.97037 5.84722 7.11111H7.98611C8.33241 7.11111 8.62289 7.22804 8.85756 7.46189C9.09141 7.69656 9.20833 7.98704 9.20833 8.33333C9.20833 8.67963 9.09141 8.9697 8.85756 9.20356C8.62289 9.43822 8.33241 9.55556 7.98611 9.55556H3.09722C2.75093 9.55556 2.46085 9.43822 2.227 9.20356C1.99233 8.9697 1.875 8.67963 1.875 8.33333V3.44444C1.875 3.09815 1.99233 2.80767 2.227 2.573C2.46085 2.33915 2.75093 2.22222 3.09722 2.22222C3.44352 2.22222 3.734 2.33915 3.96867 2.573C4.20252 2.80767 4.31944 3.09815 4.31944 3.44444V5.09444C5.35833 3.79074 6.62659 2.78241 8.12422 2.06944C9.62104 1.35648 11.2046 1 12.875 1C14.4028 1 15.834 1.29007 17.1687 1.87022C18.5025 2.45118 19.6636 3.23544 20.652 4.223C21.6396 5.21137 22.4238 6.37248 23.0048 7.70633C23.5849 9.041 23.875 10.4722 23.875 12C23.875 13.5278 23.5849 14.9586 23.0048 16.2924C22.4238 17.6271 21.6396 18.7882 20.652 19.7758C19.6636 20.7641 18.5025 21.5488 17.1687 22.1298C15.834 22.7099 14.4028 23 12.875 23Z" fill="#FF7F08"/>
</svg>
