<svg width="56" height="56" viewBox="0 0 56 56" fill="none" xmlns="http://www.w3.org/2000/svg">
<rect x="0.5" y="0.5" width="55" height="55" rx="23.5" fill="white" stroke="#D0DDDE"/>
<path fill-rule="evenodd" clip-rule="evenodd" d="M35.3548 16H20.2285C16.7886 16 14 19.134 14 23V33C14 36.866 16.7886 40 20.2285 40H35.3548C38.7947 40 41.5833 36.866 41.5833 33V23C41.5833 19.134 38.7947 16 35.3548 16ZM33.6569 22.343C30.5328 19.219 25.4672 19.219 22.3431 22.343C19.219 25.4671 19.219 30.5327 22.3431 33.6568C22.6271 33.9408 23.0876 33.9408 23.3716 33.6568C23.6556 33.3728 23.6556 32.9123 23.3716 32.6283C20.8156 30.0723 20.8156 25.9276 23.3716 23.3716C25.9276 20.8156 30.0723 20.8156 32.6284 23.3716C35.1844 25.9276 35.1844 30.0723 32.6284 32.6283C32.3444 32.9123 32.3444 33.3728 32.6284 33.6568C32.9124 33.9408 33.3729 33.9408 33.6569 33.6568C36.781 30.5327 36.781 25.4671 33.6569 22.343ZM31.5997 24.4001C29.6117 22.4118 26.3883 22.4118 24.4003 24.4001C22.4119 26.3882 22.4118 29.6117 24.4003 31.5997C24.6843 31.8837 25.1448 31.8837 25.4288 31.5996C25.7128 31.3156 25.7127 30.8551 25.4287 30.5711C24.0084 29.1511 24.0085 26.8486 25.4288 25.4286C26.8488 24.0083 29.1513 24.0085 30.5713 25.4288C31.9916 26.8487 31.9916 29.1511 30.5713 30.5711C30.2873 30.8551 30.2872 31.3156 30.5712 31.5996C30.8552 31.8837 31.3157 31.8837 31.5997 31.5997C33.5882 29.6117 33.5882 26.3882 31.5997 24.4001ZM28.0006 25.818C27.4219 25.818 26.867 26.0479 26.4578 26.4571C26.0486 26.8663 25.8187 27.4212 25.8187 27.9999C25.8187 28.5786 26.0486 29.1335 26.4578 29.5427C26.6901 29.775 26.9694 29.9495 27.2733 30.057V34.5454H26.546C26.1443 34.5454 25.8187 34.8711 25.8187 35.2727C25.8187 35.6744 26.1443 36 26.546 36H29.4552C29.8568 36 30.1825 35.6744 30.1825 35.2727C30.1825 34.8711 29.8568 34.5454 29.4552 34.5454H28.7279V30.057C29.0318 29.9495 29.3111 29.775 29.5434 29.5427C29.9526 29.1335 30.1825 28.5786 30.1825 27.9999C30.1825 27.4212 29.9526 26.8663 29.5434 26.4571C29.1342 26.0479 28.5793 25.818 28.0006 25.818ZM27.4863 27.4856C27.6227 27.3492 27.8077 27.2726 28.0006 27.2726C28.1935 27.2726 28.3785 27.3492 28.5149 27.4856C28.6513 27.622 28.7279 27.807 28.7279 27.9999C28.7279 28.1928 28.6513 28.3778 28.5149 28.5142C28.3785 28.6506 28.1935 28.7272 28.0006 28.7272C27.8077 28.7272 27.6227 28.6506 27.4863 28.5142C27.3499 28.3778 27.2733 28.1928 27.2733 27.9999C27.2733 27.807 27.3499 27.622 27.4863 27.4856Z" fill="url(#paint0_linear_1596_13185)"/>
<defs>
<linearGradient id="paint0_linear_1596_13185" x1="27.7917" y1="16" x2="27.7917" y2="40" gradientUnits="userSpaceOnUse">
<stop stop-color="#229CF9"/>
<stop offset="1" stop-color="#226BF9"/>
</linearGradient>
</defs>
</svg>
