<svg width="56" height="56" viewBox="0 0 56 56" fill="none" xmlns="http://www.w3.org/2000/svg">
<rect x="0.5" y="0.5" width="55" height="55" rx="23.5" fill="white" stroke="#D0DDDE"/>
<g clip-path="url(#clip0_57723_109343)">
<path fill-rule="evenodd" clip-rule="evenodd" d="M9 22.0013H46V34.9063H9V22.0013Z" fill="white"/>
<path fill-rule="evenodd" clip-rule="evenodd" d="M10.643 22.8083H44.3568C44.8307 22.8083 45.2183 23.1947 45.2183 23.6671V26.317H40.9989C40.7774 23.9175 29.6665 23.4061 27.7465 23.3918C24.6511 23.3686 13.9906 24.0829 13.9906 26.2705V26.317H9.78149V23.6671C9.78149 23.1947 10.1692 22.8083 10.643 22.8083Z" fill="#FF0000"/>
<path fill-rule="evenodd" clip-rule="evenodd" d="M13.9877 30.2399H9.78149V26.6772H13.99C13.9863 27.7934 13.9711 29.1623 13.9877 30.2399ZM45.2183 26.6772V30.2399H41.0085C41.0419 29.1262 40.9673 27.801 40.9943 26.6772H45.2183Z" fill="#0000FF"/>
<path fill-rule="evenodd" clip-rule="evenodd" d="M45.2183 30.6001V33.2399C45.2183 33.7121 44.8307 34.0985 44.3568 34.0985H10.643C10.1692 34.0985 9.78149 33.7121 9.78149 33.2399V30.6001H14.016C14.5359 32.7565 23.2685 33.6037 27.637 33.6276C30.098 33.6411 40.3426 32.8739 40.9712 30.6001H45.2183Z" fill="#F9CD09"/>
<path fill-rule="evenodd" clip-rule="evenodd" d="M27.6944 24.0212C30.0941 24.0429 40.3723 25.0669 40.2777 26.3378C40.1983 27.4051 40.3597 29.4743 40.2777 30.5414C40.1826 31.7781 30.0212 32.8597 27.6295 32.8398C25.0512 32.8184 14.7574 31.9821 14.7155 30.4269C14.6866 29.3577 14.7155 27.5254 14.7155 26.4555C14.7155 24.8683 25.0765 23.9978 27.6944 24.0212ZM27.6836 24.9952C25.2118 24.977 15.4288 25.5616 15.4288 26.798C15.4288 27.6317 15.4022 29.2777 15.4288 30.1108C15.4683 31.3538 25.188 31.8493 27.6223 31.8658C29.8806 31.8812 39.4751 31.1635 39.565 30.2C39.6425 29.3687 39.4902 27.5692 39.565 26.7377C39.6543 25.7476 29.9495 25.0121 27.6836 24.9952Z" fill="#E6252D"/>
<path fill-rule="evenodd" clip-rule="evenodd" d="M23.5984 28.5685C23.7246 28.6243 23.7006 28.9239 23.5448 29.2357C23.389 29.5473 23.1591 29.7561 23.0328 29.7003C22.9065 29.6445 22.9305 29.3447 23.0864 29.0329C23.2422 28.7212 23.4721 28.5126 23.5984 28.5685ZM32.1505 28.5955C32.2767 28.6512 32.2528 28.951 32.0968 29.2627C31.941 29.5744 31.7111 29.783 31.5848 29.7272C31.4585 29.6714 31.4825 29.3718 31.6385 29.06C31.7941 28.7483 32.0242 28.5396 32.1505 28.5955ZM36.3486 28.5077C36.4176 28.559 36.3552 28.7546 36.2096 28.9435C36.0642 29.1322 35.8891 29.2444 35.8201 29.1934C35.7511 29.1421 35.8135 28.9465 35.959 28.7578C36.1047 28.5689 36.2795 28.4567 36.3486 28.5077ZM36.4371 28.1038C35.9572 28.0678 35.6357 28.3944 35.4672 28.7169C35.3337 28.9725 35.294 29.34 35.3894 29.6468C35.251 29.7566 35.0783 29.8514 34.8038 29.905C34.6676 29.9317 34.5924 29.8305 34.5936 29.7377C34.597 29.4706 34.6264 29.2468 34.7046 28.9961C34.7367 28.8926 34.8459 28.9279 34.883 28.8402C34.9594 28.6587 34.9687 28.4829 34.724 28.5117C34.567 28.5301 34.3967 28.5533 34.3907 28.345C34.3849 28.1416 34.6383 28.0331 34.6005 28.0154C34.4607 27.9495 34.3424 28.0149 34.1963 27.9639C34.1553 27.9495 34.189 27.8582 34.1476 27.8447C34.0918 27.8265 33.9934 27.8844 33.9612 27.9327C33.8904 28.0389 33.8966 28.1362 33.844 28.2616C33.7998 28.3667 33.7953 28.4838 33.771 28.595C33.6949 28.814 33.2114 29.492 32.856 29.669C32.6565 29.7683 32.531 29.6807 32.5927 29.4764C32.6751 29.2035 32.949 28.5394 33.1271 28.0709C32.953 28.075 32.7984 28.0886 32.6245 28.0924C32.6041 28.1521 32.574 28.1925 32.5538 28.2519C32.1635 28.0071 31.9262 28.1009 31.5719 28.3507C31.3082 28.5368 31.0769 28.8179 30.9525 29.1548C30.9031 29.2885 30.8759 29.4239 30.8722 29.5509C30.6568 29.6274 30.4425 29.7406 30.2503 29.7125C30.2033 29.7056 30.1713 29.6352 30.1821 29.5899C30.2465 29.3174 30.3825 29.0657 30.4664 28.7984C30.5191 28.6305 30.6239 28.4584 30.5915 28.2857C30.5476 28.053 30.2448 28.046 30.0797 28.1296C29.9396 28.2008 29.8328 28.3255 29.6931 28.3972C29.6653 28.4113 29.6253 28.3954 29.6021 28.3748C29.542 28.3215 29.5137 28.2396 29.4543 28.1854C29.4019 28.1376 29.3424 28.0879 29.2723 28.0738C29.1865 28.0566 29.0916 28.0633 29.0108 28.0962C28.8397 28.1659 28.7175 28.3564 28.5333 28.3748C28.4533 28.3829 28.5047 28.2126 28.4535 28.152C28.3303 28.0059 28.212 28.0566 28.067 28.1184C27.7688 28.2454 27.4741 28.3802 27.178 28.5117C27.2072 28.5704 27.232 28.6314 27.2521 28.6944C27.3702 28.6549 27.4923 28.6042 27.6121 28.5755C27.6675 28.5621 27.7346 28.5345 27.7827 28.5644C27.8262 28.5913 27.8435 28.661 27.828 28.7094C27.6662 29.22 27.4491 29.7125 27.2597 30.2141C27.4567 30.2104 27.6537 30.2067 27.8509 30.2031C28.0292 29.7534 28.1533 29.2795 28.3854 28.8542C28.4272 28.7775 28.5485 28.7481 28.6354 28.7649C28.6953 28.7768 28.7159 28.8621 28.7266 28.921C28.7397 28.9945 28.7283 29.0733 28.7038 29.144C28.5796 29.5028 28.4232 29.8499 28.2831 30.2031C28.4991 30.1993 28.7266 30.2179 28.9425 30.2141C29.151 29.7459 29.233 29.2659 29.4884 28.8207C29.5201 28.7654 29.6876 28.7472 29.7499 28.7649C29.7914 28.7769 29.8386 28.824 29.8295 28.8653C29.7744 29.1158 29.6331 29.3418 29.568 29.5899C29.5377 29.7052 29.5122 29.832 29.5452 29.9465C29.573 30.0432 29.647 30.1358 29.7386 30.1807C29.8165 30.219 29.9196 30.2024 30.0001 30.1695C30.3062 30.0451 30.5899 29.8741 30.8827 29.7217C30.9341 30.0441 31.1703 30.2651 31.6208 30.1671C31.778 30.1328 31.8636 30.0322 32.0094 29.9647C32.0831 30.1957 32.2457 30.2902 32.5073 30.1849C33.1532 29.9249 33.5319 29.4728 34.0095 28.7953C34.0864 28.812 34.2383 28.7691 34.3153 28.7703C34.233 29.0142 33.7237 29.8847 34.2561 30.147C34.4047 30.2202 34.5185 30.1963 34.6823 30.1671C35.0501 30.1014 35.277 29.9483 35.4539 29.805C35.5436 29.9777 35.6875 30.1153 35.8953 30.1778C36.319 30.3053 36.8032 30.0854 37.1059 29.9546C37.2672 30.2274 37.6828 30.2777 37.926 30.1909C38.1824 30.0994 38.4139 29.9393 38.6186 29.7622C38.6611 29.7253 38.6566 29.6318 38.614 29.5953C38.5741 29.5611 38.5074 29.6222 38.4649 29.6534C38.2879 29.7827 37.9332 30.1095 37.7334 29.835C37.644 29.712 37.7035 29.5043 37.7922 29.269C37.8785 29.0397 37.9617 28.7427 38.0465 28.5125C38.1672 28.5028 38.3028 28.5154 38.4234 28.5057C38.4757 28.3618 38.4979 28.2473 38.5501 28.1034C38.4686 28.0972 38.3571 28.1054 38.2755 28.099C38.3509 27.7138 38.5131 27.3214 38.6507 26.936C38.4652 26.9395 38.3098 26.9503 38.1245 26.9539C37.9944 27.3285 37.8921 27.6958 37.7149 28.0705C37.5937 28.0739 37.465 28.0848 37.3438 28.0883C37.3117 28.2283 37.2796 28.3683 37.2475 28.5085C37.3402 28.5049 37.4704 28.5014 37.563 28.4979C37.4452 28.9374 37.3173 29.3338 37.055 29.6744C36.9617 29.7955 36.8002 29.8645 36.6486 29.8949C36.1845 29.988 36.0056 29.8407 35.932 29.6346C36.1281 29.4735 36.3226 29.3974 36.4992 29.2162C36.7836 28.9245 37.1326 28.1557 36.4371 28.1038ZM20.3076 26.3927C19.5706 26.4758 18.479 26.5551 17.8557 26.9575C17.4887 27.1942 17.1596 27.6489 17.489 28.1117C17.8108 28.5637 18.3855 28.3722 18.6182 28.0717C18.3522 28.0375 18.1399 27.9887 18.1232 27.8018C18.0471 26.9523 18.8391 27.128 19.5989 26.8852C19.2045 27.7999 18.8495 29.4307 17.8442 29.6321C17.1132 29.7786 16.7777 29.462 16.6072 29.0158C16.2022 29.7803 16.7814 30.1289 17.3012 30.2075C17.7818 30.2804 18.3975 29.9863 18.7372 29.6376C18.9775 29.4841 19.2176 29.3092 19.436 29.1105C19.4934 29.0583 20.2946 28.4571 20.2206 28.9546C20.1554 29.3929 19.978 29.7125 19.8454 30.1362C20.0424 30.1399 20.2395 30.1436 20.4367 30.1473C20.5808 29.7275 20.6868 29.293 20.8688 28.8877C20.9005 28.8169 20.984 28.7647 21.0622 28.7538C21.1346 28.7438 21.2402 28.7652 21.2668 28.8318C21.3137 28.9497 21.247 29.0991 21.2129 29.221C21.1575 29.4202 20.8509 30.069 21.2494 30.1187C21.6407 30.1675 22.0806 29.893 22.3125 29.7082C22.3449 29.9013 22.4487 30.0692 22.6562 30.166C22.7988 30.2324 22.976 30.1897 23.1298 30.1552C23.2546 30.1271 23.3575 30.04 23.4713 29.9824C23.4509 30.2624 23.7235 30.2294 23.906 30.1444C24.3184 29.9522 24.5487 29.8173 24.8305 29.7254C24.8014 29.6758 24.7756 29.624 24.7533 29.5705C24.5504 29.6212 24.3509 29.7173 24.1432 29.7018C24.0736 29.6965 24.0551 29.572 24.0772 29.5073C24.3682 28.6512 24.7381 27.8228 25.0684 26.9805C24.8959 26.9914 24.7635 26.9914 24.5909 27.0022C24.455 27.3621 24.2791 27.7328 24.1432 28.0927C23.4948 27.9765 22.8911 28.154 22.4689 28.9457C22.3788 29.1147 22.3148 29.3128 22.303 29.503C22.1563 29.5974 22.0196 29.6943 21.8467 29.7368C21.7824 29.7525 21.7331 29.654 21.7444 29.5899C21.782 29.3772 21.8573 29.1733 21.9306 28.9687C21.9804 28.8292 22.1655 28.4232 22.097 28.2857C21.9786 28.0473 21.8052 28.0486 21.6294 28.1195C21.4035 28.2105 21.1735 28.4163 21.0507 28.3748C20.8703 28.3139 20.9216 28.0408 20.6506 28.0717C20.565 28.0815 20.4779 28.1154 20.4025 28.152C20.016 28.3388 19.6489 28.6066 19.2794 28.8366C19.6341 28.1682 19.9705 27.2774 20.3076 26.3927Z" fill="#0000FF"/>
<path d="M25.9836 27.7778H25.9839C26.3495 27.7779 26.6817 27.9242 26.9222 28.16V28.1603C27.1626 28.3961 27.3117 28.7213 27.3118 29.0796V29.0802C27.3118 29.4387 27.1626 29.7643 26.9221 30.0001H26.9218C26.6813 30.2357 26.3495 30.3819 25.9841 30.382H25.9834C25.6176 30.382 25.2854 30.2357 25.045 29.9999C24.8045 29.7641 24.6554 29.4387 24.6553 29.0804V29.0796C24.6553 28.7212 24.8045 28.3955 25.045 28.1599C25.2856 27.9242 25.6175 27.7779 25.9831 27.7778H25.9836ZM25.9839 27.9366H25.9831C25.6623 27.9367 25.3709 28.0652 25.1596 28.2722C24.9483 28.4793 24.8173 28.7649 24.8173 29.0796V29.0804C24.8174 29.395 24.9483 29.6807 25.1595 29.8877C25.3709 30.0947 25.6624 30.2232 25.9834 30.2232H25.9841C26.305 30.2232 26.5965 30.0948 26.8076 29.8878L26.8075 29.8877C27.0188 29.6807 27.1499 29.3949 27.1499 29.0802V29.0796C27.1497 28.7649 27.0189 28.4792 26.8079 28.2722H26.8076C26.5965 28.0652 26.3049 27.9366 25.9839 27.9366Z" fill="#FF0000"/>
<path fill-rule="evenodd" clip-rule="evenodd" d="M25.9835 28.095C26.5384 28.095 26.9882 28.5359 26.9882 29.0799C26.9882 29.6238 26.5384 30.0648 25.9835 30.0648C25.4286 30.0648 24.9788 29.6238 24.9788 29.0799C24.9788 28.5359 25.4286 28.095 25.9835 28.095ZM25.9835 28.2976C26.4241 28.2976 26.7815 28.6479 26.7815 29.0799C26.7815 29.5119 26.4241 29.8621 25.9835 29.8621C25.5428 29.8621 25.1856 29.5119 25.1856 29.0799C25.1856 28.6479 25.5428 28.2976 25.9835 28.2976Z" fill="#FF0000"/>
<path fill-rule="evenodd" clip-rule="evenodd" d="M25.9832 28.4893C26.3159 28.4893 26.5857 28.7538 26.5857 29.0799C26.5857 29.4061 26.3159 29.6706 25.9832 29.6706C25.6504 29.6706 25.3809 29.4061 25.3809 29.0799C25.3809 28.7538 25.6504 28.4893 25.9832 28.4893Z" fill="#FF0000"/>
</g>
<defs>
<clipPath id="clip0_57723_109343">
<rect width="37" height="12.907" fill="white" transform="translate(9 22)"/>
</clipPath>
</defs>
</svg>
