<svg width="56" height="56" viewBox="0 0 56 56" fill="none" xmlns="http://www.w3.org/2000/svg">
<rect x="0.5" y="0.5" width="55" height="55" rx="23.5" fill="white" stroke="#D0DDDE"/>
<path fill-rule="evenodd" clip-rule="evenodd" d="M22.098 16.7646C22.1074 16.7553 22.1201 16.75 22.1333 16.75H24.5833V20.5833H22.0833V16.8C22.0833 16.7867 22.0886 16.774 22.098 16.7646ZM28.75 20.5833V16.75H33.8667C33.8732 16.75 33.8797 16.7513 33.8858 16.7538C33.8919 16.7563 33.8974 16.76 33.902 16.7646C33.9067 16.7693 33.9103 16.7748 33.9129 16.7809C33.9154 16.7869 33.9167 16.7934 33.9167 16.8V20.5833H28.75ZM35.4167 16.8V20.5833H37.3333C38.2395 20.5833 39.1085 20.9433 39.7493 21.5841C40.39 22.2248 40.75 23.0938 40.75 24V36C40.75 36.9062 40.39 37.7752 39.7493 38.4159C39.1085 39.0567 38.2395 39.4167 37.3333 39.4167H18.6667C17.7605 39.4167 16.8915 39.0567 16.2507 38.4159C15.61 37.7752 15.25 36.9062 15.25 36V24C15.25 23.0938 15.61 22.2248 16.2507 21.5841C16.8915 20.9433 17.7605 20.5833 18.6667 20.5833H20.5833V16.8C20.5833 16.3889 20.7466 15.9947 21.0373 15.704C21.328 15.4133 21.7222 15.25 22.1333 15.25H33.8667C34.0702 15.25 34.2718 15.2901 34.4598 15.368C34.6479 15.4459 34.8188 15.5601 34.9627 15.704C35.1066 15.8479 35.2208 16.0188 35.2987 16.2068C35.3766 16.3949 35.4167 16.5965 35.4167 16.8ZM33.5858 30.4142C33.9609 30.7893 34.4696 31 35 31C35.5304 31 36.0391 30.7893 36.4142 30.4142C36.7893 30.0391 37 29.5304 37 29C37 28.4696 36.7893 27.9609 36.4142 27.5858C36.0391 27.2107 35.5304 27 35 27C34.4696 27 33.9609 27.2107 33.5858 27.5858C33.2107 27.9609 33 28.4696 33 29C33 29.5304 33.2107 30.0391 33.5858 30.4142Z" fill="url(#paint0_linear_56363_103833)"/>
<defs>
<linearGradient id="paint0_linear_56363_103833" x1="28" y1="15.25" x2="28" y2="39.4167" gradientUnits="userSpaceOnUse">
<stop stop-color="#F7CC34"/>
<stop offset="1" stop-color="#F7B534"/>
</linearGradient>
</defs>
</svg>
