<svg width="56" height="56" viewBox="0 0 56 56" fill="none" xmlns="http://www.w3.org/2000/svg">
<rect x="0.5" y="0.5" width="55" height="55" rx="23.5" fill="white" stroke="#D0DDDE"/>
<path d="M28 41.3334C26.1777 41.3334 24.4555 40.9831 22.8333 40.2827C21.2111 39.5831 19.7946 38.6276 18.584 37.416C17.3724 36.2054 16.4168 34.7889 15.7173 33.1667C15.0168 31.5445 14.6666 29.8222 14.6666 28C14.6666 26.1556 15.0168 24.428 15.7173 22.8174C16.4168 21.2058 17.3724 19.7947 18.584 18.584C19.7946 17.3725 21.2111 16.4165 22.8333 15.716C24.4555 15.0165 26.1777 14.6667 28 14.6667C29.8444 14.6667 31.572 15.0165 33.1826 15.716C34.7942 16.4165 36.2053 17.3725 37.416 18.584C38.6275 19.7947 39.5831 21.2058 40.2826 22.8174C40.9831 24.428 41.3333 26.1556 41.3333 28C41.3333 29.8222 40.9831 31.5445 40.2826 33.1667C39.5831 34.7889 38.6275 36.2054 37.416 37.416C36.2053 38.6276 34.7942 39.5831 33.1826 40.2827C31.572 40.9831 29.8444 41.3334 28 41.3334ZM28 38.6C28.5777 37.8 29.0777 36.9667 29.5 36.1C29.9222 35.2334 30.2666 34.3111 30.5333 33.3334H25.4666C25.7333 34.3111 26.0777 35.2334 26.5 36.1C26.9222 36.9667 27.4222 37.8 28 38.6V38.6ZM24.5333 38.0667C24.1333 37.3334 23.7835 36.572 23.484 35.7827C23.1835 34.9942 22.9333 34.1778 22.7333 33.3334H18.8C19.4444 34.4445 20.2497 35.4111 21.216 36.2334C22.1831 37.0556 23.2888 37.6667 24.5333 38.0667ZM31.4666 38.0667C32.7111 37.6667 33.8164 37.0556 34.7826 36.2334C35.7497 35.4111 36.5555 34.4445 37.2 33.3334H33.2666C33.0666 34.1778 32.8168 34.9942 32.5173 35.7827C32.2168 36.572 31.8666 37.3334 31.4666 38.0667V38.0667ZM17.6666 30.6667H22.2C22.1333 30.2222 22.0831 29.7831 22.0493 29.3494C22.0164 28.9165 22 28.4667 22 28C22 27.5334 22.0164 27.0836 22.0493 26.6507C22.0831 26.2169 22.1333 25.7778 22.2 25.3334H17.6666C17.5555 25.7778 17.472 26.2169 17.416 26.6507C17.3608 27.0836 17.3333 27.5334 17.3333 28C17.3333 28.4667 17.3608 28.9165 17.416 29.3494C17.472 29.7831 17.5555 30.2222 17.6666 30.6667ZM24.8666 30.6667H31.1333C31.2 30.2222 31.2502 29.7831 31.284 29.3494C31.3168 28.9165 31.3333 28.4667 31.3333 28C31.3333 27.5334 31.3168 27.0836 31.284 26.6507C31.2502 26.2169 31.2 25.7778 31.1333 25.3334H24.8666C24.8 25.7778 24.7502 26.2169 24.7173 26.6507C24.6835 27.0836 24.6666 27.5334 24.6666 28C24.6666 28.4667 24.6835 28.9165 24.7173 29.3494C24.7502 29.7831 24.8 30.2222 24.8666 30.6667ZM33.8 30.6667H38.3333C38.4444 30.2222 38.528 29.7831 38.584 29.3494C38.6391 28.9165 38.6666 28.4667 38.6666 28C38.6666 27.5334 38.6391 27.0836 38.584 26.6507C38.528 26.2169 38.4444 25.7778 38.3333 25.3334H33.8C33.8666 25.7778 33.9164 26.2169 33.9493 26.6507C33.9831 27.0836 34 27.5334 34 28C34 28.4667 33.9831 28.9165 33.9493 29.3494C33.9164 29.7831 33.8666 30.2222 33.8 30.6667ZM33.2666 22.6667H37.2C36.5555 21.5556 35.7497 20.5889 34.7826 19.7667C33.8164 18.9445 32.7111 18.3334 31.4666 17.9334C31.8666 18.6667 32.2168 19.4276 32.5173 20.216C32.8168 21.0054 33.0666 21.8222 33.2666 22.6667V22.6667ZM25.4666 22.6667H30.5333C30.2666 21.6889 29.9222 20.7667 29.5 19.9C29.0777 19.0334 28.5777 18.2 28 17.4C27.4222 18.2 26.9222 19.0334 26.5 19.9C26.0777 20.7667 25.7333 21.6889 25.4666 22.6667ZM18.8 22.6667H22.7333C22.9333 21.8222 23.1835 21.0054 23.484 20.216C23.7835 19.4276 24.1333 18.6667 24.5333 17.9334C23.2888 18.3334 22.1831 18.9445 21.216 19.7667C20.2497 20.5889 19.4444 21.5556 18.8 22.6667Z" fill="url(#paint0_linear_58243_109044)"/>
<defs>
<linearGradient id="paint0_linear_58243_109044" x1="28" y1="14.6667" x2="28" y2="41.3334" gradientUnits="userSpaceOnUse">
<stop stop-color="#0598AD"/>
<stop offset="1" stop-color="#006E85"/>
</linearGradient>
</defs>
</svg>
