<svg width="57" height="56" viewBox="0 0 57 56" fill="none" xmlns="http://www.w3.org/2000/svg">
<g clip-path="url(#clip0_1596_13202)">
<rect x="0.5" width="56" height="56" rx="24" fill="url(#paint0_linear_1596_13202)"/>
<g style="mix-blend-mode:overlay" opacity="0.1">
<path d="M25.1468 -9H-6.5V-8.95031H16.1724C16.1724 -8.95031 10.5847 0.714015 18.4777 16.2368C22.5138 24.1766 28.526 31.2917 28.526 31.2917L21.2841 37.0883L-1.0648 9.01595L-6.5 2.1042V16.2381L14.3286 42.6499L-6.5 59.9996L1.88316 60L17.5554 46.8204L28.3879 60H38.9896L44.2909 55.3927C44.2909 55.3927 41.5248 57.2462 34.7605 52.5366C30.7681 49.7566 24.4696 41.4235 24.4696 41.4235L31.8446 35.2997C31.8446 35.2997 38.8885 44.6204 47.0569 46.8204C57.7597 49.7035 62.4983 42.6503 62.4983 42.6503L62.5 38.4313C55.141 42.7021 49.1862 37.3957 44.2917 32.4756C40.8864 29.0521 37.4929 25.1031 37.4929 17.9968C37.4929 13.1179 41.7228 6.39225 49.4734 6.39225C55.5319 6.39225 62.5 12.3922 62.5 12.3922L62.4983 0.714857C62.4983 0.714857 50.0082 -5.87851 38.9896 5.19789C33.8197 10.3943 33.3623 19.2496 33.3623 19.2496C33.3783 19.4493 26.2594 10.5312 24.4688 2.10504C22.7943 -5.77828 25.1468 -9 25.1468 -9Z" fill="black"/>
<path d="M62.4983 -8.94946L62.4992 -9H25.1468L62.4983 -8.94946Z" fill="black"/>
</g>
<g clip-path="url(#clip1_1596_13202)">
<path fill-rule="evenodd" clip-rule="evenodd" d="M28.5 42C36.232 42 42.5 35.732 42.5 28C42.5 20.268 36.232 14 28.5 14C20.768 14 14.5 20.268 14.5 28C14.5 29.2228 14.6568 30.4089 14.9513 31.5395L17.8115 28.6308C18.4318 28 19.4303 28 20.0505 28.6308L23.3939 32.0308L31.5784 23.6923H27.5996C26.7222 23.6923 26.0111 22.9692 26.0111 22.0769C26.0111 21.1846 26.7222 20.4615 27.5996 20.4615H35.5269C36.4044 20.4615 37.1154 21.1846 37.1154 22.0615V29.6C37.1154 30.4923 36.4044 31.2154 35.5269 31.2154C34.6495 31.2154 33.9384 30.4923 33.9384 29.6V25.8615L24.5134 35.4462C23.8932 36.0769 22.8947 36.0769 22.2744 35.4462L18.931 32.0462L16.2463 34.7764C18.6335 39.084 23.2262 42 28.5 42Z" fill="white"/>
</g>
</g>
<defs>
<linearGradient id="paint0_linear_1596_13202" x1="28.5" y1="0" x2="28.5" y2="56" gradientUnits="userSpaceOnUse">
<stop stop-color="#01B77A"/>
<stop offset="1" stop-color="#0CA967"/>
</linearGradient>
<clipPath id="clip0_1596_13202">
<rect x="0.5" width="56" height="56" rx="24" fill="white"/>
</clipPath>
<clipPath id="clip1_1596_13202">
<rect width="32" height="32" fill="white" transform="translate(12.5 12)"/>
</clipPath>
</defs>
</svg>
