<svg width="56" height="56" viewBox="0 0 56 56" fill="none" xmlns="http://www.w3.org/2000/svg">
<rect x="0.5" y="0.5" width="55" height="55" rx="23.5" fill="white" stroke="#D0DDDE"/>
<rect width="32" height="32" transform="translate(12 12)" fill="white"/>
<path d="M20.5 21.2381H19V20.2857H20.5C20.5866 20.2857 20.7277 20.3144 20.8328 20.3865C20.9124 20.441 21 20.5362 21 20.7619C21 20.9877 20.9124 21.0828 20.8328 21.1374C20.7277 21.2094 20.5866 21.2381 20.5 21.2381Z" fill="url(#paint0_linear_56363_103882)"/>
<path d="M24.5 22.6667H23.5V21.7143H24.5C24.5866 21.7143 24.7277 21.743 24.8328 21.815C24.9124 21.8696 25 21.9647 25 22.1905C25 22.4162 24.9124 22.5114 24.8328 22.566C24.7277 22.638 24.5866 22.6667 24.5 22.6667Z" fill="url(#paint1_linear_56363_103882)"/>
<path fill-rule="evenodd" clip-rule="evenodd" d="M22 29.3334C26.05 29.3334 29.3333 26.0501 29.3333 22C29.3333 17.9499 26.05 14.6667 22 14.6667C17.9499 14.6667 14.6666 17.9499 14.6666 22C14.6666 26.0501 17.9499 29.3334 22 29.3334ZM18.5 19.3334C18.2238 19.3334 18 19.5466 18 19.8095V23.1429C18 23.4059 18.2238 23.6191 18.5 23.6191C18.7761 23.6191 19 23.4059 19 23.1429V22.1905H20.2324L21.0839 23.407C21.2371 23.6258 21.5475 23.685 21.7773 23.5391C22.0071 23.3932 22.0692 23.0976 21.916 22.8787L21.2919 21.9872C21.3342 21.964 21.3761 21.9384 21.4171 21.9103C21.7542 21.6791 22 21.2981 22 20.7619C22 20.2258 21.7542 19.8447 21.4171 19.6136C21.1055 19.3999 20.7466 19.3334 20.5 19.3334H18.5ZM23 20.7619C22.7238 20.7619 22.5 20.9751 22.5 21.2381V24.5714C22.5 24.8344 22.7238 25.0476 23 25.0476C23.2761 25.0476 23.5 24.8344 23.5 24.5714V23.6191H24.5C24.7466 23.6191 25.1055 23.5525 25.4171 23.3388C25.7542 23.1077 26 22.7266 26 22.1905C26 21.6543 25.7542 21.2733 25.4171 21.0421C25.1055 20.8285 24.7466 20.7619 24.5 20.7619H23Z" fill="url(#paint2_linear_56363_103882)"/>
<path fill-rule="evenodd" clip-rule="evenodd" d="M34 41.3334C38.05 41.3334 41.3333 38.0501 41.3333 34C41.3333 29.9499 38.05 26.6667 34 26.6667C29.9499 26.6667 26.6666 29.9499 26.6666 34C26.6666 38.0501 29.9499 41.3334 34 41.3334ZM34.5 31C34.5 30.7239 34.2761 30.5 34 30.5C33.7238 30.5 33.5 30.7239 33.5 31V31.5C33.2533 31.5 32.8944 31.5699 32.5828 31.7943C32.2457 32.037 32 32.4371 32 33C32 33.563 32.2457 33.9631 32.5828 34.2058C32.8944 34.4301 33.2533 34.5 33.5 34.5H34.5C34.5866 34.5 34.7277 34.5301 34.8328 34.6058C34.9124 34.6631 35 34.763 35 35C35 35.2371 34.9124 35.337 34.8328 35.3943C34.7277 35.4699 34.5866 35.5 34.5 35.5H33C32.7238 35.5 32.5 35.7239 32.5 36C32.5 36.2762 32.7238 36.5 33 36.5H33.5V37C33.5 37.2762 33.7238 37.5 34 37.5C34.2761 37.5 34.5 37.2762 34.5 37V36.5C34.7466 36.5 35.1055 36.4301 35.4171 36.2058C35.7542 35.9631 36 35.563 36 35C36 34.4371 35.7542 34.037 35.4171 33.7943C35.1055 33.5699 34.7466 33.5 34.5 33.5H33.5C33.4133 33.5 33.2722 33.4699 33.1671 33.3943C33.0875 33.337 33 33.2371 33 33C33 32.763 33.0875 32.6631 33.1671 32.6058C33.2722 32.5301 33.4133 32.5 33.5 32.5H35C35.2761 32.5 35.5 32.2762 35.5 32C35.5 31.7239 35.2761 31.5 35 31.5H34.5V31Z" fill="url(#paint3_linear_56363_103882)"/>
<path d="M35.6094 16.9428C36.1301 16.4221 36.1301 15.5779 35.6094 15.0572C35.0887 14.5365 34.2445 14.5365 33.7238 15.0572L31.0571 17.7239C30.8071 17.9739 30.6666 18.3131 30.6666 18.6667C30.6666 19.0203 30.8071 19.3594 31.0571 19.6095L33.7238 22.2762C34.2445 22.7969 35.0887 22.7969 35.6094 22.2762C36.1301 21.7555 36.1301 20.9112 35.6094 20.3905L35.2189 20L37.3333 20C38.0697 20 38.6666 20.597 38.6666 21.3334V22.6667C38.6666 23.4031 39.2636 24 40 24C40.7363 24 41.3333 23.4031 41.3333 22.6667V21.3334C41.3333 19.1242 39.5424 17.3334 37.3333 17.3334H35.2189L35.6094 16.9428Z" fill="url(#paint4_linear_56363_103882)"/>
<path d="M17.3333 33.3334C17.3333 32.597 16.7363 32 16 32C15.2636 32 14.6666 32.597 14.6666 33.3334V34.6667C14.6666 36.8758 16.4575 38.6667 18.6666 38.6667H20.781L20.3905 39.0572C19.8698 39.5779 19.8698 40.4221 20.3905 40.9428C20.9112 41.4635 21.7554 41.4635 22.2761 40.9428L24.9428 38.2762C25.4635 37.7555 25.4635 36.9112 24.9428 36.3905L22.2761 33.7239C21.7554 33.2032 20.9112 33.2032 20.3905 33.7239C19.8698 34.2446 19.8698 35.0888 20.3905 35.6095L20.781 36H18.6666C17.9302 36 17.3333 35.4031 17.3333 34.6667V33.3334Z" fill="url(#paint5_linear_56363_103882)"/>
<defs>
<linearGradient id="paint0_linear_56363_103882" x1="28" y1="14.6667" x2="28" y2="41.3334" gradientUnits="userSpaceOnUse">
<stop stop-color="#0598AD"/>
<stop offset="1" stop-color="#006E85"/>
</linearGradient>
<linearGradient id="paint1_linear_56363_103882" x1="28" y1="14.6667" x2="28" y2="41.3334" gradientUnits="userSpaceOnUse">
<stop stop-color="#0598AD"/>
<stop offset="1" stop-color="#006E85"/>
</linearGradient>
<linearGradient id="paint2_linear_56363_103882" x1="28" y1="14.6667" x2="28" y2="41.3334" gradientUnits="userSpaceOnUse">
<stop stop-color="#0598AD"/>
<stop offset="1" stop-color="#006E85"/>
</linearGradient>
<linearGradient id="paint3_linear_56363_103882" x1="28" y1="14.6667" x2="28" y2="41.3334" gradientUnits="userSpaceOnUse">
<stop stop-color="#0598AD"/>
<stop offset="1" stop-color="#006E85"/>
</linearGradient>
<linearGradient id="paint4_linear_56363_103882" x1="28" y1="14.6667" x2="28" y2="41.3334" gradientUnits="userSpaceOnUse">
<stop stop-color="#0598AD"/>
<stop offset="1" stop-color="#006E85"/>
</linearGradient>
<linearGradient id="paint5_linear_56363_103882" x1="28" y1="14.6667" x2="28" y2="41.3334" gradientUnits="userSpaceOnUse">
<stop stop-color="#0598AD"/>
<stop offset="1" stop-color="#006E85"/>
</linearGradient>
</defs>
</svg>
