<svg width="57" height="56" viewBox="0 0 57 56" fill="none" xmlns="http://www.w3.org/2000/svg">
<g clip-path="url(#clip0_56658_2619)">
<rect x="0.5" width="56" height="56" rx="24" fill="url(#paint0_linear_56658_2619)"/>
<g style="mix-blend-mode:overlay" opacity="0.1">
<path d="M25.1468 -9H-6.5V-8.95031H16.1724C16.1724 -8.95031 10.5847 0.714015 18.4777 16.2368C22.5138 24.1766 28.526 31.2917 28.526 31.2917L21.2841 37.0883L-1.0648 9.01595L-6.5 2.1042V16.2381L14.3286 42.6499L-6.5 59.9996L1.88316 60L17.5554 46.8204L28.3879 60H38.9896L44.2909 55.3927C44.2909 55.3927 41.5248 57.2462 34.7605 52.5366C30.7681 49.7566 24.4696 41.4235 24.4696 41.4235L31.8446 35.2997C31.8446 35.2997 38.8885 44.6204 47.0569 46.8204C57.7597 49.7035 62.4983 42.6503 62.4983 42.6503L62.5 38.4313C55.141 42.7021 49.1862 37.3957 44.2917 32.4756C40.8864 29.0521 37.4929 25.1031 37.4929 17.9968C37.4929 13.1179 41.7228 6.39225 49.4734 6.39225C55.5319 6.39225 62.5 12.3922 62.5 12.3922L62.4983 0.714857C62.4983 0.714857 50.0082 -5.87851 38.9896 5.19789C33.8197 10.3943 33.3623 19.2496 33.3623 19.2496C33.3783 19.4493 26.2594 10.5312 24.4688 2.10504C22.7943 -5.77828 25.1468 -9 25.1468 -9Z" fill="black"/>
<path d="M62.4983 -8.94946L62.4992 -9H25.1468L62.4983 -8.94946Z" fill="black"/>
</g>
<path fill-rule="evenodd" clip-rule="evenodd" d="M15.9505 37.8837C16.4723 38.4055 17.0998 38.6663 17.8332 38.6663H25.5C25.8778 38.6663 26.1947 38.5383 26.4507 38.2823C26.7058 38.0272 26.8333 37.7108 26.8333 37.333C26.8333 36.9552 26.7058 36.6388 26.4507 36.3837C26.1947 36.1277 25.8778 35.9997 25.5 35.9997H17.8332V27.9997H41.8332V19.9997C41.8332 19.2663 41.5723 18.6388 41.0505 18.117C40.5278 17.5943 39.8998 17.333 39.1665 17.333H17.8332C17.0998 17.333 16.4723 17.5943 15.9505 18.117C15.4278 18.6388 15.1665 19.2663 15.1665 19.9997V35.9997C15.1665 36.733 15.4278 37.361 15.9505 37.8837ZM39.1665 22.6663H17.8332V19.9997H39.1665V22.6663ZM28.5 30.9998C28.5 30.9998 28.9769 31.2385 28.9769 31.432V36.4228C28.9769 36.6349 28.5 36.9432 28.5 36.9432H31.2251C31.3954 36.9432 33.303 36.6301 33.303 35.1536C33.303 33.6771 31.8212 33.5388 31.8212 33.5388C31.8212 33.5388 32.7239 33.2869 32.7239 32.2767C32.7239 31.1878 31.3954 30.9998 31.2251 30.9998H28.5ZM29.9477 33.441V31.5829H31.0548C31.2251 31.5829 31.8212 31.7825 31.8212 32.5232C31.8212 33.1338 31.2251 33.441 31.0548 33.441H29.9477ZM29.9477 33.9283H31.2251C31.3954 33.9283 32.4003 34.1904 32.4003 35.0657C32.4003 35.9581 31.3954 36.2743 31.2251 36.2743H29.9477V33.9283ZM35.3449 30.9998H33.9117C33.9117 30.9998 34.3507 31.2465 34.3507 31.4289V36.4265C34.3507 36.6296 33.9117 36.9432 33.9117 36.9432H35.5128C35.5128 36.9432 35.0609 36.6322 35.0609 36.4265V32.3684C35.0609 32.3684 37.4193 35.4685 38.0822 36.2363C38.6723 36.9198 39.1927 37.2074 39.1927 37.2074V31.4289C39.1927 31.2218 39.735 30.9998 39.735 30.9998H38.0822C38.0822 30.9998 38.5342 31.2573 38.5342 31.4289V35.401C38.5342 35.401 37.8625 34.4993 37.2385 33.7076C36.6146 32.9159 35.3449 30.9998 35.3449 30.9998ZM42.4999 30.9998H40.6605C40.6605 30.9998 41.1203 31.2423 41.1203 31.432V36.4228C41.1203 36.6315 40.6605 36.9432 40.6605 36.9432H42.4999C42.4999 36.9432 42.006 36.6384 42.006 36.4228V31.432C42.006 31.2346 42.4999 30.9998 42.4999 30.9998Z" fill="white"/>
</g>
<defs>
<linearGradient id="paint0_linear_56658_2619" x1="28.5" y1="0" x2="28.5" y2="56" gradientUnits="userSpaceOnUse">
<stop stop-color="#8A79FB"/>
<stop offset="1" stop-color="#6650F7"/>
</linearGradient>
<clipPath id="clip0_56658_2619">
<rect x="0.5" width="56" height="56" rx="24" fill="white"/>
</clipPath>
</defs>
</svg>
