<svg width="56" height="56" viewBox="0 0 56 56" fill="none" xmlns="http://www.w3.org/2000/svg">
<rect x="0.5" y="0.5" width="55" height="55" rx="23.5" fill="white" stroke="#D0DDDE"/>
<path fill-rule="evenodd" clip-rule="evenodd" d="M22 23.0217C22 23.2979 22.2239 23.5217 22.5 23.5217H23.5C23.7762 23.5217 24 23.2979 24 23.0217V21.8304C24 21.5543 23.7762 21.3304 23.5 21.3304H22.5C22.2239 21.3304 22 21.5543 22 21.8304V23.0217ZM22 27.4043C22 27.6805 22.2239 27.9043 22.5 27.9043H23.5C23.7762 27.9043 24 27.6805 24 27.4043V26.213C24 25.9369 23.7762 25.713 23.5 25.713H22.5C22.2239 25.713 22 25.9369 22 26.213V27.4043ZM22 31.787C22 32.0631 22.2239 32.287 22.5 32.287H23.5C23.7762 32.287 24 32.0631 24 31.787V30.5957C24 30.3195 23.7762 30.0957 23.5 30.0957H22.5C22.2239 30.0957 22 30.3195 22 30.5957V31.787ZM22 36.1696C22 36.4457 22.2239 36.6696 22.5 36.6696H23.5C23.7762 36.6696 24 36.4457 24 36.1696V34.9783C24 34.7021 23.7762 34.4783 23.5 34.4783H22.5C22.2239 34.4783 22 34.7021 22 34.9783V36.1696ZM19.3334 20C17.9872 20 17.314 20 16.7825 20.2153C16.432 20.3579 16.1136 20.5667 15.8454 20.83C15.5773 21.0932 15.3646 21.4057 15.2196 21.7496C14.6772 23.0341 16.2184 24.1957 17.3886 24.9539C17.63 25.1103 17.8565 25.2912 18.0642 25.4948C18.8768 26.2918 19.3334 27.3728 19.3334 28.5C19.3334 29.6272 18.8768 30.7082 18.0642 31.5052C17.8565 31.7088 17.63 31.8897 17.3886 32.0461C16.2184 32.8043 14.6772 33.9659 15.2196 35.2504C15.3646 35.5943 15.5773 35.9068 15.8454 36.17C16.1136 36.4333 16.432 36.6421 16.7825 36.7847C17.314 37 17.9872 37 19.3334 37H30.8889H36.6667C38.0129 37 38.686 37 39.2162 36.7847C39.5669 36.6423 39.8856 36.4335 40.154 36.1702C40.4224 35.907 40.6353 35.5944 40.7805 35.2504C41.3229 33.9659 39.7817 32.8043 38.6115 32.0461C38.3701 31.8897 38.1436 31.7088 37.9359 31.5052C37.1233 30.7082 36.6667 29.6272 36.6667 28.5C36.6667 27.3728 37.1233 26.2918 37.9359 25.4948C38.1436 25.2912 38.3701 25.1103 38.6115 24.9539C39.7817 24.1957 41.3229 23.0341 40.7805 21.7496C40.6353 21.4056 40.4224 21.093 40.154 20.8298C39.8856 20.5665 39.5669 20.3577 39.2162 20.2153C38.686 20 38.0129 20 36.6667 20H19.3334Z" fill="url(#paint0_linear_1596_13194)"/>
<defs>
<linearGradient id="paint0_linear_1596_13194" x1="28" y1="20" x2="28" y2="37" gradientUnits="userSpaceOnUse">
<stop stop-color="#229CF9"/>
<stop offset="1" stop-color="#226BF9"/>
</linearGradient>
</defs>
</svg>
