<svg width="56" height="56" viewBox="0 0 56 56" fill="none" xmlns="http://www.w3.org/2000/svg">
<rect x="0.5" y="0.5" width="55" height="55" rx="23.5" fill="white" stroke="#D0DDDE"/>
<g clip-path="url(#clip0_56363_103957)">
<path d="M13.3533 23.0444C14.0016 23.1816 15.6928 24.2414 15.6928 26.1581C15.6928 28.0748 15.6871 32.6297 15.6871 33.5768C15.6871 34.5239 14.8303 35.2849 13.8381 35.2849C13.0025 35.2849 12.489 34.5972 12.489 34.5972C12.9099 36.1231 14.12 37.1829 14.12 37.1829L18.0886 35.845C18.6299 35.6646 19.2161 35.1158 19.2161 34.2214V24.2245C19.2161 23.6007 18.7726 23.0444 18.0886 23.0444H13.3533Z" fill="url(#paint0_linear_56363_103957)"/>
<path d="M11.6846 23.0443C11.2863 23.0443 10.3467 23.0438 9.813 23.0438C9.27938 23.0438 8.63293 23.3826 8.63293 24.2921V34.4618C8.63293 35.3752 9.53113 35.7359 9.91446 35.8712C10.2978 36.0064 13.8775 37.2411 13.8775 37.2411C13.8775 37.2411 12.1206 35.627 12.1206 33.6427V26.1186C12.1206 24.9311 13.4435 24.5853 13.9095 24.5853C14.3755 24.5853 14.9618 24.8709 15.3451 25.3219C15.3451 25.3219 15.0069 24.0741 13.917 23.5404C12.9616 23.0726 12.2718 23.0438 11.8478 23.0438C11.7881 23.0438 11.7337 23.0443 11.6846 23.0443Z" fill="url(#paint1_linear_56363_103957)"/>
<path d="M12.1206 20.346C12.1206 21.334 12.9215 22.1349 13.9095 22.1349C14.8975 22.1349 15.6984 21.334 15.6984 20.346C15.6984 19.358 14.8975 18.557 13.9095 18.557C12.9215 18.557 12.1206 19.358 12.1206 20.346Z" fill="url(#paint2_linear_56363_103957)"/>
<path d="M23.9075 27.8409V31.3487C23.9075 31.5918 23.8497 31.7755 23.7342 31.9C23.6186 32.0244 23.4718 32.0867 23.294 32.0867C23.1162 32.0867 22.9717 32.0229 22.8605 31.8955C22.7494 31.7681 22.6938 31.5858 22.6938 31.3487V27.8766C22.6938 27.6365 22.7494 27.4557 22.8605 27.3342C22.9717 27.2127 23.1162 27.1519 23.294 27.1519C23.4718 27.1519 23.6186 27.2127 23.7342 27.3342C23.8497 27.4557 23.9075 27.6246 23.9075 27.8409ZM23.3074 26.5873C23.1383 26.5873 22.9939 26.5354 22.8739 26.4317C22.7538 26.328 22.6938 26.1813 22.6938 25.9915C22.6938 25.8197 22.7553 25.6782 22.8783 25.5671C23.0012 25.4558 23.1443 25.4003 23.3074 25.4003C23.4644 25.4003 23.6037 25.4507 23.7253 25.5514C23.8468 25.6522 23.9075 25.7989 23.9075 25.9915C23.9075 26.1783 23.8482 26.3243 23.7297 26.4295C23.611 26.5346 23.4703 26.5873 23.3074 26.5873Z" fill="#404041"/>
<path d="M25.8747 32.0867C25.6909 32.0867 25.5324 32.0274 25.399 31.9089C25.2656 31.7903 25.1989 31.6243 25.1989 31.411C25.1989 31.2301 25.2627 31.0747 25.3901 30.9441C25.5175 30.8138 25.6746 30.7485 25.8614 30.7485C26.0481 30.7485 26.2074 30.813 26.3393 30.9419C26.4711 31.0709 26.5371 31.2272 26.5371 31.411C26.5371 31.6214 26.4711 31.7865 26.3393 31.9066C26.2074 32.0267 26.0526 32.0867 25.8747 32.0867Z" fill="#404041"/>
<path d="M31.7367 30.4996C31.7367 30.8345 31.6552 31.1213 31.4922 31.3599C31.3292 31.5984 31.0884 31.7792 30.7698 31.9022C30.4511 32.0252 30.0636 32.0867 29.6072 32.0867C29.1716 32.0867 28.7981 32.02 28.4869 31.8867C28.1757 31.7533 27.9459 31.5866 27.7978 31.3864C27.6495 31.1864 27.5756 30.9857 27.5756 30.7841C27.5756 30.6508 27.6228 30.5367 27.7177 30.4418C27.8126 30.3469 27.9327 30.2995 28.0779 30.2995C28.2053 30.2995 28.3031 30.3307 28.3713 30.3929C28.4394 30.4551 28.5047 30.5426 28.5669 30.6552C28.6914 30.8716 28.8404 31.0331 29.0137 31.1398C29.1871 31.2464 29.4234 31.2998 29.7228 31.2998C29.9658 31.2998 30.1651 31.2457 30.3208 31.1376C30.4764 31.0294 30.5542 30.9056 30.5542 30.7664C30.5542 30.5529 30.4734 30.3973 30.3119 30.2995C30.1503 30.2017 29.8843 30.1083 29.5138 30.0195C29.096 29.9157 28.7559 29.8068 28.4935 29.6927C28.2313 29.5786 28.0215 29.4281 27.8645 29.2414C27.7073 29.0547 27.6289 28.8251 27.6289 28.5523C27.6289 28.3093 27.7014 28.0796 27.8467 27.8632C27.9918 27.647 28.2061 27.4742 28.4891 27.3453C28.7721 27.2164 29.1138 27.1519 29.5138 27.1519C29.828 27.1519 30.1103 27.1845 30.3608 27.2498C30.6112 27.315 30.8201 27.4025 30.9876 27.512C31.1551 27.6218 31.2825 27.7433 31.37 27.8766C31.4574 28.01 31.5011 28.1404 31.5011 28.2678C31.5011 28.4071 31.4544 28.5212 31.3611 28.6102C31.2677 28.699 31.135 28.7435 30.9632 28.7435C30.8387 28.7435 30.7327 28.7079 30.6453 28.6368C30.5579 28.5656 30.4578 28.459 30.3452 28.3166C30.2533 28.1982 30.1451 28.1034 30.0206 28.0321C29.8962 27.961 29.7272 27.9255 29.5138 27.9255C29.2944 27.9255 29.1122 27.9721 28.967 28.0655C28.8217 28.1588 28.7492 28.2752 28.7492 28.4145C28.7492 28.542 28.8026 28.6465 28.9092 28.7279C29.0159 28.8095 29.1597 28.8768 29.3405 28.9302C29.5213 28.9836 29.7702 29.0489 30.0873 29.1258C30.4637 29.2178 30.7712 29.3275 31.0099 29.4549C31.2484 29.5822 31.4293 29.7326 31.5522 29.906C31.6752 30.0794 31.7367 30.2773 31.7367 30.4996Z" fill="#404041"/>
<path d="M35.6601 29.646C35.4822 29.7112 35.2237 29.7802 34.8843 29.8527C34.5449 29.9254 34.3101 29.9787 34.1797 30.0128C34.0493 30.0468 33.9248 30.1135 33.8062 30.2128C33.6877 30.3121 33.6284 30.4506 33.6284 30.6285C33.6284 30.8123 33.698 30.9685 33.8374 31.0975C33.9766 31.2264 34.1589 31.2909 34.3842 31.2909C34.6243 31.2909 34.8458 31.2383 35.0489 31.1331C35.2518 31.028 35.4008 30.8923 35.4956 30.7263C35.6052 30.5426 35.6601 30.2403 35.6601 29.8193V29.646ZM35.7401 31.4021C35.4467 31.6303 35.1629 31.8014 34.8888 31.9156C34.6146 32.0296 34.3071 32.0867 33.9663 32.0867C33.6551 32.0867 33.3817 32.0252 33.146 31.9021C32.9104 31.7793 32.7288 31.6125 32.6015 31.4021C32.4739 31.1916 32.4103 30.9634 32.4103 30.7174C32.4103 30.3855 32.5154 30.1024 32.7259 29.8683C32.9363 29.6341 33.2253 29.477 33.5929 29.397C33.6699 29.3792 33.861 29.3392 34.1663 29.277C34.4716 29.2147 34.7332 29.1577 34.951 29.1057C35.1689 29.054 35.4052 28.991 35.6601 28.9169C35.6453 28.5968 35.5808 28.3619 35.4667 28.2122C35.3526 28.0626 35.1162 27.9877 34.7577 27.9877C34.4493 27.9877 34.2175 28.0307 34.0619 28.1166C33.9062 28.2027 33.7728 28.3316 33.6617 28.5035C33.5506 28.6753 33.4721 28.7887 33.4261 28.8435C33.3801 28.8984 33.2817 28.9257 33.1305 28.9257C32.9941 28.9257 32.8763 28.8821 32.777 28.7946C32.6777 28.7072 32.6281 28.5953 32.6281 28.4589C32.6281 28.2456 32.7037 28.0381 32.8549 27.8365C33.006 27.635 33.2416 27.4691 33.5617 27.3386C33.8818 27.2082 34.2804 27.143 34.7577 27.143C35.2911 27.143 35.7104 27.206 36.0158 27.332C36.321 27.458 36.5366 27.6573 36.6626 27.9299C36.7886 28.2027 36.8516 28.5642 36.8516 29.0147C36.8516 29.2992 36.8508 29.5408 36.8493 29.7394C36.8478 29.938 36.8456 30.1587 36.8427 30.4018C36.8427 30.63 36.8805 30.8678 36.9561 31.1153C37.0316 31.3627 37.0694 31.5221 37.0694 31.5932C37.0694 31.7178 37.0109 31.831 36.8938 31.9334C36.7767 32.0355 36.6441 32.0867 36.496 32.0867C36.3715 32.0867 36.2484 32.0281 36.127 31.9111C36.0053 31.794 35.8764 31.6243 35.7401 31.4021Z" fill="#404041"/>
<path d="M41.0151 31.531L39.9437 29.7705L39.2857 30.3929V31.3576C39.2857 31.5918 39.2241 31.7718 39.1011 31.8978C38.9782 32.0237 38.8366 32.0867 38.6766 32.0867C38.4899 32.0867 38.3432 32.0245 38.2365 31.9C38.1298 31.7756 38.0764 31.5918 38.0764 31.3488V26.1738C38.0764 25.9042 38.1283 25.6989 38.2321 25.5582C38.3358 25.4175 38.4839 25.347 38.6766 25.347C38.8633 25.347 39.0115 25.4107 39.1211 25.5382C39.2308 25.6657 39.2857 25.8537 39.2857 26.1027V29.0458L40.6505 27.6143C40.8194 27.4365 40.9485 27.315 41.0373 27.2498C41.1262 27.1846 41.2344 27.1519 41.3619 27.1519C41.513 27.1519 41.6389 27.2002 41.7397 27.2965C41.8404 27.3927 41.8908 27.5136 41.8908 27.6587C41.8908 27.8366 41.7264 28.0737 41.3974 28.3701L40.7528 28.9614L41.9976 30.9175C42.0894 31.0627 42.1555 31.1732 42.1954 31.2488C42.2354 31.3242 42.2555 31.3962 42.2555 31.4644C42.2555 31.657 42.2028 31.8089 42.0977 31.92C41.9923 32.0312 41.8538 32.0867 41.6819 32.0867C41.5338 32.0867 41.4196 32.0467 41.3396 31.9667C41.2596 31.8867 41.1514 31.7415 41.0151 31.531Z" fill="#404041"/>
<path d="M46.0456 31.402V31.2464C45.9003 31.4303 45.7478 31.5843 45.5876 31.7088C45.4277 31.8333 45.2528 31.9259 45.0631 31.9867C44.8734 32.0474 44.657 32.0778 44.414 32.0778C44.1206 32.0778 43.8575 32.017 43.6249 31.8955C43.3922 31.7741 43.2121 31.6065 43.0848 31.3932C42.9336 31.1353 42.858 30.7648 42.858 30.2818V27.8766C42.858 27.6336 42.9127 27.452 43.0225 27.332C43.132 27.212 43.2773 27.1519 43.4582 27.1519C43.6419 27.1519 43.7901 27.2127 43.9027 27.3342C44.0153 27.4558 44.0717 27.6364 44.0717 27.8766V29.8193C44.0717 30.101 44.0954 30.3373 44.1428 30.5285C44.1902 30.7197 44.2754 30.8693 44.3984 30.9775C44.5214 31.0858 44.6881 31.1398 44.8986 31.1398C45.1031 31.1398 45.2958 31.079 45.4765 30.9576C45.6573 30.836 45.7892 30.6774 45.8722 30.4818C45.9403 30.31 45.9745 29.9335 45.9745 29.3526V27.8766C45.9745 27.6364 46.0307 27.4558 46.1434 27.3342C46.256 27.2127 46.4028 27.1519 46.5835 27.1519C46.7643 27.1519 46.9096 27.212 47.0192 27.332C47.1289 27.452 47.1836 27.6336 47.1836 27.8766V31.3932C47.1836 31.6243 47.131 31.7977 47.0259 31.9133C46.9207 32.0289 46.7851 32.0867 46.6191 32.0867C46.4532 32.0867 46.3161 32.0267 46.2079 31.9067C46.0997 31.7866 46.0456 31.6184 46.0456 31.402Z" fill="#404041"/>
</g>
<defs>
<linearGradient id="paint0_linear_56363_103957" x1="15.8525" y1="23.1196" x2="15.8525" y2="36.9652" gradientUnits="userSpaceOnUse">
<stop stop-color="#00B0C3"/>
<stop offset="1" stop-color="#3151B0"/>
</linearGradient>
<linearGradient id="paint1_linear_56363_103957" x1="11.989" y1="23.1196" x2="11.989" y2="37.3169" gradientUnits="userSpaceOnUse">
<stop stop-color="#3151B0"/>
<stop offset="1" stop-color="#00B0C3"/>
</linearGradient>
<linearGradient id="paint2_linear_56363_103957" x1="13.9095" y1="18.6773" x2="13.9095" y2="22.2211" gradientUnits="userSpaceOnUse">
<stop stop-color="#FABE40"/>
<stop offset="1" stop-color="#F07728"/>
</linearGradient>
<clipPath id="clip0_56363_103957">
<rect width="40" height="20.4082" fill="white" transform="translate(8 18)"/>
</clipPath>
</defs>
</svg>
