<svg width="56" height="56" viewBox="0 0 56 56" fill="none" xmlns="http://www.w3.org/2000/svg">
<rect x="0.5" y="0.5" width="55" height="55" rx="23.5" fill="white" stroke="#D0DDDE"/>
<path fill-rule="evenodd" clip-rule="evenodd" d="M24.1303 32.0161L26.7298 29.6832H23.8504V26.4838H25.2101L22.6773 24.1909L20.2511 26.4571H21.4909V30.3097C21.5042 31.4962 21.7041 32.0427 22.7306 32.056L24.1303 32.0427V32.0161Z" fill="#3C893F"/>
<path fill-rule="evenodd" clip-rule="evenodd" d="M31.9688 24.2043L29.3693 26.5372H32.2488V29.7366H30.889L33.4219 32.0294L35.8481 29.7632H34.6083V25.9106C34.595 24.7242 34.395 24.1776 33.3685 24.1643L31.9688 24.1776V24.2043Z" fill="#3C893F"/>
<path fill-rule="evenodd" clip-rule="evenodd" d="M31.9554 32.0293L29.6226 29.4298V32.3092H26.4232V30.9495L24.1303 33.4824L26.3965 35.9085V34.6688H30.2491C31.4356 34.6555 31.9821 34.4555 31.9954 33.429L31.9821 32.0293H31.9554Z" fill="#3C893F"/>
<path fill-rule="evenodd" clip-rule="evenodd" d="M24.1437 24.1909L26.4766 26.7904V23.9109H29.6759V25.2707L31.9688 22.7378L29.7026 20.3116V21.5514H25.85C24.6636 21.5647 24.117 21.7647 24.1037 22.7912L24.117 24.1909H24.1437Z" fill="#3C893F"/>
<path fill-rule="evenodd" clip-rule="evenodd" d="M13.7857 20.9649C13.4524 21.4848 13.1858 21.4848 12.9325 23.711C12.6792 25.9372 14.0923 28.2834 14.0923 28.2834C14.0923 28.2834 13.9456 27.2037 14.6255 26.3238C15.3054 25.4307 16.6518 24.1243 17.2916 23.2311C17.9315 22.3379 18.0915 21.2048 18.0915 21.2048C17.5049 21.4714 16.8651 21.6181 16.1719 21.6181C15.292 21.6181 14.4789 21.3781 13.7857 20.9515V20.9649Z" fill="#1C4596"/>
<path fill-rule="evenodd" clip-rule="evenodd" d="M19.4513 17.0454C19.4513 18.8583 17.9849 20.3247 16.1719 20.3247C14.359 20.3247 12.8926 18.8583 12.8926 17.0454C12.8926 15.2324 14.359 13.766 16.1719 13.766C17.9849 13.766 19.4513 15.2324 19.4513 17.0454Z" fill="#1C4596"/>
<path fill-rule="evenodd" clip-rule="evenodd" d="M19.9045 14.2861C19.9045 14.2861 22.424 12.4598 24.9568 12.1132C27.4897 11.7533 31.129 12.3665 31.129 12.3665C31.129 12.3665 29.3693 12.4865 28.2895 13.1264C27.1964 13.7662 26.3299 14.7394 25.0368 15.9125C23.7437 17.0723 22.8372 17.8321 21.9174 18.272C21.3309 18.552 20.8243 18.6186 20.5444 18.632C20.7177 18.1387 20.8243 17.6055 20.8243 17.0589C20.8243 16.0191 20.491 15.0727 19.9178 14.2995L19.9045 14.2861Z" fill="#1C4596"/>
<path fill-rule="evenodd" clip-rule="evenodd" d="M21.0375 42.534C21.5574 42.8672 21.5574 43.1339 23.797 43.3871C26.0232 43.6404 28.3694 42.2274 28.3694 42.2274C28.3694 42.2274 27.2896 42.374 26.4098 41.6941C25.5167 41.0143 24.2103 39.6679 23.3171 39.028C22.4239 38.3881 21.2908 38.2281 21.2908 38.2281C21.5574 38.8147 21.7041 39.4546 21.7041 40.1478C21.7041 41.0276 21.4641 41.8408 21.0375 42.534Z" fill="#3C893F"/>
<path fill-rule="evenodd" clip-rule="evenodd" d="M17.1183 36.8684C18.9313 36.8684 20.3976 38.3348 20.3976 40.1478C20.3976 41.9607 18.9313 43.4271 17.1183 43.4271C15.3053 43.4271 13.8389 41.9607 13.8389 40.1478C13.8389 38.3348 15.3053 36.8684 17.1183 36.8684Z" fill="#3C893F"/>
<path fill-rule="evenodd" clip-rule="evenodd" d="M14.359 36.4153C14.359 36.4153 12.5326 33.8958 12.186 31.3629C11.8261 28.8301 12.4393 25.1908 12.4393 25.1908C12.4393 25.1908 12.5593 26.9505 13.1992 28.0302C13.8391 29.1234 14.8122 29.9899 15.9853 31.2829C17.1451 32.576 17.9049 33.4825 18.3448 34.4023C18.6248 34.9889 18.6914 35.4955 18.7048 35.7754C18.2115 35.6021 17.6783 35.4955 17.1317 35.4955C16.092 35.4955 15.1455 35.8287 14.3723 36.4019L14.359 36.4153Z" fill="#3C893F"/>
<path fill-rule="evenodd" clip-rule="evenodd" d="M42.3134 35.2686C42.6467 34.7487 42.9133 34.7487 43.1666 32.5225C43.4198 30.2963 42.0068 27.9501 42.0068 27.9501C42.0068 27.9501 42.1534 29.0299 41.4736 29.9097C40.7937 30.8028 39.4473 32.1093 38.8074 33.0024C38.1675 33.8956 38.0076 35.0287 38.0076 35.0287C38.5941 34.7621 39.234 34.6154 39.9272 34.6154C40.807 34.6154 41.6202 34.8554 42.3134 35.282V35.2686Z" fill="#1C4596"/>
<path fill-rule="evenodd" clip-rule="evenodd" d="M36.6479 39.1746C36.6479 37.3616 38.1143 35.8953 39.9273 35.8953C41.7403 35.8953 43.2067 37.3616 43.2067 39.1746C43.2067 40.9876 41.7403 42.454 39.9273 42.454C38.1143 42.454 36.6479 40.9876 36.6479 39.1746Z" fill="#1C4596"/>
<path fill-rule="evenodd" clip-rule="evenodd" d="M36.1947 41.9474C36.1947 41.9474 33.6752 43.7737 31.1423 44.1203C28.6095 44.4802 24.9702 43.867 24.9702 43.867C24.9702 43.867 26.7299 43.747 27.8097 43.1072C28.9028 42.4673 29.7693 41.4941 31.0624 40.321C32.3554 39.1613 33.2619 38.4014 34.1817 37.9615C34.7683 37.6815 35.2749 37.6149 35.5548 37.6016C35.3815 38.0948 35.2749 38.628 35.2749 39.1746C35.2749 40.2144 35.6081 41.1609 36.1814 41.934L36.1947 41.9474Z" fill="#1C4596"/>
<path fill-rule="evenodd" clip-rule="evenodd" d="M35.0482 13.6997C34.5283 13.3665 34.5283 13.0998 32.2887 12.8466C30.0625 12.5933 27.7163 14.0063 27.7163 14.0063C27.7163 14.0063 28.7961 13.8597 29.6759 14.5396C30.5691 15.2194 31.8755 16.5658 32.7687 17.2057C33.6618 17.8456 34.7949 18.0055 34.7949 18.0055C34.5283 17.419 34.3817 16.7791 34.3817 16.0859C34.3817 15.2061 34.6216 14.3929 35.0482 13.6997Z" fill="#3C893F"/>
<path fill-rule="evenodd" clip-rule="evenodd" d="M38.9674 19.3518C37.1544 19.3518 35.688 17.8854 35.688 16.0725C35.688 14.2595 37.1544 12.7931 38.9674 12.7931C40.7804 12.7931 42.2468 14.2595 42.2468 16.0725C42.2468 17.8854 40.7804 19.3518 38.9674 19.3518Z" fill="#3C893F"/>
<path fill-rule="evenodd" clip-rule="evenodd" d="M41.7269 19.8051C41.7269 19.8051 43.5532 22.3246 43.8998 24.8574C44.2597 27.3902 43.6465 31.0295 43.6465 31.0295C43.6465 31.0295 43.5265 29.2699 42.8866 28.1901C42.2468 27.097 41.2736 26.2305 40.1005 24.9374C38.9407 23.6443 38.1809 22.7378 37.741 21.818C37.461 21.2314 37.3944 20.7249 37.381 20.4449C37.8743 20.6182 38.4075 20.7249 38.9541 20.7249C39.9939 20.7249 40.9403 20.3916 41.7135 19.8184L41.7269 19.8051Z" fill="#3C893F"/>
</svg>
