<svg width="57" height="56" viewBox="0 0 57 56" fill="none" xmlns="http://www.w3.org/2000/svg">
<g clip-path="url(#clip0_56658_3689)">
<rect x="0.5" width="56" height="56" rx="24" fill="url(#paint0_linear_56658_3689)"/>
<g style="mix-blend-mode:overlay" opacity="0.1">
<path d="M25.1468 -9H-6.5V-8.95031H16.1724C16.1724 -8.95031 10.5847 0.714015 18.4777 16.2368C22.5138 24.1766 28.526 31.2917 28.526 31.2917L21.2841 37.0883L-1.0648 9.01595L-6.5 2.1042V16.2381L14.3286 42.6499L-6.5 59.9996L1.88316 60L17.5554 46.8204L28.3879 60H38.9896L44.2909 55.3927C44.2909 55.3927 41.5248 57.2462 34.7605 52.5366C30.7681 49.7566 24.4696 41.4235 24.4696 41.4235L31.8446 35.2997C31.8446 35.2997 38.8885 44.6204 47.0569 46.8204C57.7597 49.7035 62.4983 42.6503 62.4983 42.6503L62.5 38.4313C55.141 42.7021 49.1862 37.3957 44.2917 32.4756C40.8864 29.0521 37.4929 25.1031 37.4929 17.9968C37.4929 13.1179 41.7228 6.39225 49.4734 6.39225C55.5319 6.39225 62.5 12.3922 62.5 12.3922L62.4983 0.714857C62.4983 0.714857 50.0082 -5.87851 38.9896 5.19789C33.8197 10.3943 33.3623 19.2496 33.3623 19.2496C33.3783 19.4493 26.2594 10.5312 24.4688 2.10504C22.7943 -5.77828 25.1468 -9 25.1468 -9Z" fill="black"/>
<path d="M62.4983 -8.94946L62.4992 -9H25.1468L62.4983 -8.94946Z" fill="black"/>
</g>
<path d="M28.1007 26.6148C28.1368 26.5787 28.1571 26.5296 28.1571 26.4785V24.9356C28.1571 24.8845 28.1368 24.8354 28.1007 24.7992C28.0645 24.7631 28.0154 24.7428 27.9643 24.7428H26.4214C26.3703 24.7428 26.3212 24.7631 26.2851 24.7992C26.2489 24.8354 26.2286 24.8845 26.2286 24.9356V26.4785C26.2286 26.5296 26.2489 26.5787 26.2851 26.6148C26.3212 26.651 26.3703 26.6713 26.4214 26.6713H27.9643C28.0154 26.6713 28.0645 26.651 28.1007 26.6148Z" fill="white"/>
<path d="M22.3149 26.6148C22.3511 26.5787 22.3714 26.5296 22.3714 26.4785V24.9356C22.3714 24.8845 22.3511 24.8354 22.3149 24.7992C22.2788 24.7631 22.2297 24.7428 22.1786 24.7428H20.6357C20.5846 24.7428 20.5355 24.7631 20.4993 24.7992C20.4632 24.8354 20.4429 24.8845 20.4429 24.9356V26.4785C20.4429 26.5296 20.4632 26.5787 20.4993 26.6148C20.5355 26.651 20.5846 26.6713 20.6357 26.6713H22.1786C22.2297 26.6713 22.2788 26.651 22.3149 26.6148Z" fill="white"/>
<path d="M22.3149 32.4006C22.3511 32.3644 22.3714 32.3153 22.3714 32.2642V30.7213C22.3714 30.6702 22.3511 30.6211 22.3149 30.585C22.2788 30.5488 22.2297 30.5285 22.1786 30.5285H20.6357C20.5846 30.5285 20.5355 30.5488 20.4993 30.585C20.4632 30.6211 20.4429 30.6702 20.4429 30.7213V32.2642C20.4429 32.3153 20.4632 32.3644 20.4993 32.4006C20.5355 32.4367 20.5846 32.457 20.6357 32.457H22.1786C22.2297 32.457 22.2788 32.4367 22.3149 32.4006Z" fill="white"/>
<path fill-rule="evenodd" clip-rule="evenodd" d="M33.6515 19.2484C33.2834 18.8804 32.878 18.3999 32.3575 18.3999H18.9C18.2635 18.3999 17.653 18.6528 17.2029 19.1028C16.7529 19.5529 16.5 20.1634 16.5 20.7999V35.1999C16.5 35.8364 16.7529 36.4469 17.2029 36.897C17.653 37.347 18.2635 37.5999 18.9 37.5999H32.3575C32.878 37.5999 33.2834 37.1194 33.6515 36.7514C33.8765 36.5263 34.1817 36.3999 34.5 36.3999C34.8183 36.3999 35.1235 36.5263 35.3485 36.7514C35.7166 37.1194 36.122 37.5999 36.6425 37.5999H38.1C38.7365 37.5999 39.347 37.347 39.7971 36.897C40.2471 36.4469 40.5 35.8364 40.5 35.1999V20.7999C40.5 20.1634 40.2471 19.5529 39.7971 19.1028C39.347 18.6528 38.7365 18.3999 38.1 18.3999H36.6425C36.122 18.3999 35.7166 18.8804 35.3485 19.2484C35.1235 19.4735 34.8183 19.5999 34.5 19.5999C34.1817 19.5999 33.8765 19.4735 33.6515 19.2484ZM34.5 24.4011C34.8183 24.4011 35.1235 24.2747 35.3485 24.0496C35.5736 23.8246 35.7 23.5194 35.7 23.2011V23.1999C35.7 22.8816 35.5736 22.5764 35.3485 22.3514C35.1235 22.1263 34.8183 21.9999 34.5 21.9999C34.1817 21.9999 33.8765 22.1263 33.6515 22.3514C33.4264 22.5764 33.3 22.8816 33.3 23.1999V23.2011C33.3 23.5194 33.4264 23.8246 33.6515 24.0496C33.8765 24.2747 34.1817 24.4011 34.5 24.4011ZM35.7 28.0011C35.7 28.3194 35.5736 28.6246 35.3485 28.8496C35.1235 29.0747 34.8183 29.2011 34.5 29.2011C34.1817 29.2011 33.8765 29.0747 33.6515 28.8496C33.4264 28.6246 33.3 28.3194 33.3 28.0011V27.9999C33.3 27.6816 33.4264 27.3764 33.6515 27.1514C33.8765 26.9263 34.1817 26.7999 34.5 26.7999C34.8183 26.7999 35.1235 26.9263 35.3485 27.1514C35.5736 27.3764 35.7 27.6816 35.7 27.9999V28.0011ZM34.5 34.0011C34.8183 34.0011 35.1235 33.8747 35.3485 33.6496C35.5736 33.4246 35.7 33.1194 35.7 32.8011C35.7 32.4828 35.5736 32.1764 35.3485 31.9514C35.1235 31.7263 34.8183 31.5999 34.5 31.5999C34.1817 31.5999 33.8765 31.7263 33.6515 31.9514C33.4264 32.1764 33.3 32.4816 33.3 32.7999C33.3 33.1182 33.4264 33.4246 33.6515 33.6496C33.8765 33.8747 34.1817 34.0011 34.5 34.0011ZM27.964 30.5285H26.4212C26.3147 30.5285 26.2283 30.6149 26.2283 30.7214V32.2642C26.2283 32.3707 26.3147 32.4571 26.4212 32.4571H27.964C28.0705 32.4571 28.1569 32.3707 28.1569 32.2642V30.7214C28.1569 30.6149 28.0705 30.5285 27.964 30.5285ZM24.8784 28.9857H26.0355C26.1421 28.9857 26.2284 29.0721 26.2284 29.1786V30.3357C26.2284 30.4423 26.1421 30.5286 26.0355 30.5286H24.8784C24.7719 30.5286 24.6855 30.4423 24.6855 30.3357V29.1786C24.6855 29.0721 24.7719 28.9857 24.8784 28.9857ZM29.5072 32.4571H28.3501C28.2436 32.4571 28.1572 32.5435 28.1572 32.65V33.8071C28.1572 33.9136 28.2436 34 28.3501 34H29.5072C29.6137 34 29.7001 33.9136 29.7001 33.8071V32.65C29.7001 32.5435 29.6137 32.4571 29.5072 32.4571ZM28.7356 28.9857H29.5071C29.6136 28.9857 29.6999 29.0721 29.6999 29.1786V29.95C29.6999 30.0565 29.6136 30.1429 29.5071 30.1429H28.7356C28.6291 30.1429 28.5428 30.0565 28.5428 29.95V29.1786C28.5428 29.0721 28.6291 28.9857 28.7356 28.9857ZM25.6498 32.8427H24.8784C24.7719 32.8427 24.6855 32.929 24.6855 33.0355V33.807C24.6855 33.9135 24.7719 33.9998 24.8784 33.9998H25.6498C25.7563 33.9998 25.8427 33.9135 25.8427 33.807V33.0355C25.8427 32.929 25.7563 32.8427 25.6498 32.8427ZM25.4571 23.1999H28.9286C29.1332 23.1999 29.3294 23.2812 29.4741 23.4258C29.6187 23.5705 29.7 23.7667 29.7 23.9713V27.4428C29.7 27.6474 29.6187 27.8436 29.4741 27.9882C29.3294 28.1329 29.1332 28.2142 28.9286 28.2142H25.4571C25.2525 28.2142 25.0563 28.1329 24.9117 27.9882C24.767 27.8436 24.6857 27.6474 24.6857 27.4428V23.9713C24.6857 23.7667 24.767 23.5705 24.9117 23.4258C25.0563 23.2812 25.2525 23.1999 25.4571 23.1999ZM19.6714 23.1999H23.1429C23.3475 23.1999 23.5437 23.2812 23.6883 23.4258C23.833 23.5705 23.9143 23.7667 23.9143 23.9713V27.4428C23.9143 27.6474 23.833 27.8436 23.6883 27.9882C23.5437 28.1329 23.3475 28.2142 23.1429 28.2142H19.6714C19.4668 28.2142 19.2706 28.1329 19.1259 27.9882C18.9813 27.8436 18.9 27.6474 18.9 27.4428V23.9713C18.9 23.7667 18.9813 23.5705 19.1259 23.4258C19.2706 23.2812 19.4668 23.1999 19.6714 23.1999ZM19.6714 28.9856H23.1429C23.3475 28.9856 23.5437 29.0669 23.6883 29.2116C23.833 29.3562 23.9143 29.5525 23.9143 29.757V33.2285C23.9143 33.4331 23.833 33.6293 23.6883 33.774C23.5437 33.9186 23.3475 33.9999 23.1429 33.9999H19.6714C19.4668 33.9999 19.2706 33.9186 19.1259 33.774C18.9813 33.6293 18.9 33.4331 18.9 33.2285V29.757C18.9 29.5525 18.9813 29.3562 19.1259 29.2116C19.2706 29.0669 19.4668 28.9856 19.6714 28.9856Z" fill="white"/>
</g>
<defs>
<linearGradient id="paint0_linear_56658_3689" x1="28.5" y1="0" x2="28.5" y2="56" gradientUnits="userSpaceOnUse">
<stop stop-color="#229CF9"/>
<stop offset="1" stop-color="#226BF9"/>
</linearGradient>
<clipPath id="clip0_56658_3689">
<rect x="0.5" width="56" height="56" rx="24" fill="white"/>
</clipPath>
</defs>
</svg>
