<svg width="56" height="56" viewBox="0 0 56 56" fill="none" xmlns="http://www.w3.org/2000/svg">
<rect x="0.5" y="0.5" width="55" height="55" rx="23.5" fill="white" stroke="#D0DDDE"/>
<g clip-path="url(#clip0_56363_103937)">
<path d="M10.6938 23C13.2844 23 15.3845 25.0483 15.3845 27.5754C15.3845 30.1021 13.2844 32.1504 10.6938 32.1504C8.10329 32.1504 6.00317 30.1021 6.00317 27.5754C6.00317 25.0483 8.10329 23 10.6938 23Z" fill="#00AED6"/>
<path fill-rule="evenodd" clip-rule="evenodd" d="M13.4301 27.4343C13.3944 26.8518 12.8859 26.4054 12.2887 26.4313H9.32573C9.21773 26.4313 9.13009 26.346 9.13009 26.2407C9.13009 26.1355 9.21773 26.0502 9.32573 26.0502H12.3276C12.3102 25.6556 12.034 25.3168 11.6436 25.2115C10.7684 25.0588 9.87252 25.0588 8.9973 25.2115C8.49979 25.3305 8.12799 25.7343 8.05923 26.2294C7.92231 27.1268 7.92231 28.0389 8.05923 28.9363C8.16399 29.4603 8.59068 29.8659 9.13009 29.9545C10.2151 30.0878 11.3131 30.0878 12.3981 29.9545C12.8815 29.8587 13.2471 29.4713 13.3049 28.9935C13.4041 28.4797 13.446 27.9568 13.4301 27.4343ZM12.4527 28.0746V28.2426C12.4527 28.3478 12.3654 28.4331 12.2574 28.4331C12.1494 28.4331 12.0618 28.3478 12.0618 28.2426V28.0746C11.9986 28.021 11.9629 27.9428 11.9641 27.8611C11.9641 27.7033 12.0954 27.5754 12.2574 27.5754C12.4191 27.5754 12.5504 27.7033 12.5504 27.8611C12.5495 27.9425 12.5141 28.0198 12.4527 28.0746Z" fill="white"/>
<path d="M28.745 27.0606C28.7515 26.2583 28.0899 25.6028 27.2675 25.5965C26.4448 25.5902 25.7729 26.2353 25.7664 27.0376C25.7599 27.8399 26.4215 28.4954 27.2439 28.5017C27.2518 28.5017 27.2595 28.5017 27.2675 28.5017C28.0477 28.5425 28.7143 27.9586 28.7562 27.1975C28.7585 27.1518 28.7588 27.1062 28.7568 27.0606H28.745ZM24.3202 27.0606C24.3202 25.5353 25.5554 24.3725 27.2675 24.3725C28.9796 24.3725 30.2148 25.5431 30.2148 27.0606C30.2148 28.578 28.9911 29.7522 27.2675 29.7522C25.5436 29.7522 24.3202 28.5816 24.3202 27.0606Z" fill="black"/>
<path d="M21.9749 27.3389C21.9749 27.9679 21.318 28.4826 20.4856 28.4826C19.7207 28.5581 19.0385 28.0144 18.9612 27.2688C18.9532 27.1933 18.952 27.1173 18.957 27.0415C18.957 26.2103 19.5826 25.6383 20.544 25.6383C21.326 25.6383 21.9749 26.1608 21.9749 26.7516V27.3389ZM22.0333 24.3687V24.9711C21.5576 24.5497 20.9276 24.3338 20.2861 24.3726C18.7697 24.3863 17.5516 25.5965 17.5654 27.0758C17.5796 28.5551 18.8204 29.743 20.3369 29.7293C20.9613 29.7567 21.5691 29.5286 22.0138 29.1003V29.6151C22.0138 30.3127 21.3962 30.8236 20.5832 30.8236C19.9621 30.8674 19.3507 30.6574 18.8945 30.2441L17.9446 31.1364C18.6569 31.8182 19.6248 32.1847 20.6222 32.1504C22.2874 32.1504 23.4287 31.0601 23.4287 29.6073V24.3687H22.0333Z" fill="black"/>
<path d="M31.0746 24.5252H32.4739V24.975H32.4933C32.9522 24.567 33.558 24.3532 34.1783 24.3803C35.7012 24.4361 36.8895 25.6857 36.832 27.1713C36.7777 28.5784 35.6209 29.7069 34.1783 29.76C33.5857 29.7731 33.0074 29.5828 32.5444 29.2223V31.7693H31.0864L31.0746 24.5252ZM33.9514 25.6383C33.1697 25.6383 32.5326 26.1683 32.5326 26.7442V27.3884C32.5326 28.0022 33.1617 28.5095 33.9593 28.5095C34.772 28.5503 35.4648 27.9407 35.5067 27.148C35.5486 26.355 34.924 25.6791 34.111 25.6383C34.0605 25.6359 34.0098 25.6359 33.9593 25.6383H33.9514Z" fill="black"/>
<path d="M39.6311 26.5688C40.5887 26.4429 40.874 26.3093 40.874 26.0501C40.874 25.7146 40.5105 25.5127 39.9477 25.5127C39.341 25.4641 38.7886 25.8542 38.6461 26.4313L37.2701 26.153C37.4655 25.116 38.56 24.3764 39.9085 24.3764C41.4332 24.3764 42.3789 25.139 42.3789 26.3743V29.6112H41.0696V29.0469H41.0499C40.6055 29.5348 39.9545 29.7937 39.287 29.7484C38.1339 29.7484 37.3327 29.1346 37.3327 28.2234C37.3327 27.312 37.9893 26.7898 39.6311 26.5688ZM40.9914 27.1062H40.972C40.8427 27.2893 40.581 27.3961 39.8577 27.5181C39.0017 27.6744 38.6851 27.8384 38.6851 28.1358C38.6851 28.4331 38.9391 28.5781 39.4904 28.5781C40.3308 28.5781 40.9796 28.1966 40.9796 27.7126L40.9914 27.1062Z" fill="black"/>
<path d="M45.0177 29.3251L42.606 24.5252H44.2124L45.7955 27.8497H45.8188L47.3825 24.5252H48.9969L45.3851 31.7692H43.7786L45.0177 29.3251Z" fill="black"/>
</g>
<defs>
<clipPath id="clip0_56363_103937">
<rect width="43" height="9.15741" fill="white" transform="translate(6 23)"/>
</clipPath>
</defs>
</svg>
