<svg width="56" height="56" viewBox="0 0 56 56" fill="none" xmlns="http://www.w3.org/2000/svg">
<rect x="0.5" y="0.5" width="55" height="55" rx="23.5" fill="white" stroke="#D0DDDE"/>
<g clip-path="url(#clip0_56363_103952)">
<path fill-rule="evenodd" clip-rule="evenodd" d="M13.2741 22.0214C11.3455 22.2044 9.78252 23.2287 8.83328 24.8098C8.21643 25.8371 7.92648 27.0542 8.01589 28.3033C8.23468 31.3591 10.8527 33.9463 14.2037 33.6799C17.2103 33.4409 19.6909 30.7279 19.4368 27.3911C19.3438 26.1694 18.9204 25.1626 18.2419 24.2534C17.9347 23.8418 17.8741 23.8351 17.5533 23.4981C17.1554 23.0801 16.3141 22.6002 15.7771 22.3879C15.0571 22.1031 14.1404 21.9392 13.2741 22.0214Z" fill="#108DE8"/>
<path fill-rule="evenodd" clip-rule="evenodd" d="M10.4105 26.1448C10.3374 26.3566 10.3809 28.7112 10.3809 29.148C10.3809 29.6205 10.2879 29.768 11.0248 30.0208C12.976 30.6902 14.9081 28.4207 16.8483 29.5436C16.9382 29.5956 17.0477 29.7023 17.0734 29.5299L17.0742 26.5009C17.0743 26.175 17.1034 26.073 16.8879 25.9225C15.1517 24.7093 13.2719 26.7845 11.5103 26.5517C10.8583 26.4656 10.5883 26.1319 10.4105 26.1448Z" fill="white"/>
<path fill-rule="evenodd" clip-rule="evenodd" d="M23.8151 30.8144C24.5757 30.8688 25.4617 30.2772 25.7739 29.9383C26.8582 28.7612 26.8844 27.058 25.7928 25.8254C25.3863 25.3664 24.4347 24.8592 23.8277 24.9302L21.6356 24.9318L21.635 30.807L23.8151 30.8144ZM22.8664 29.5413C23.0279 29.5695 23.6911 29.559 23.8732 29.5422C25.3708 29.4048 25.8997 27.351 24.6407 26.4907C24.4318 26.3479 24.1993 26.234 23.8942 26.2C23.7271 26.1813 23.0135 26.1697 22.8657 26.1964L22.8664 29.5413Z" fill="#108DE8"/>
<path fill-rule="evenodd" clip-rule="evenodd" d="M43.0152 30.8253L44.262 30.8248L44.2633 29.5585L46.7375 29.5589L46.7448 30.8249L47.9911 30.8251C47.9919 30.1214 47.9914 29.4234 47.9914 28.7255C47.9914 28.0967 48.0441 27.3097 47.8895 26.7393C47.6279 25.7741 46.7128 24.918 45.5085 24.9132C44.2912 24.9085 43.4076 25.762 43.1255 26.7133C42.9586 27.2763 43.0143 28.0834 43.0143 28.7031C43.0143 29.4094 43.0071 30.1195 43.0152 30.8253ZM44.2632 28.2845L46.7437 28.2856C46.7497 27.7424 46.8078 27.2146 46.5648 26.7984C46.391 26.5007 46.0242 26.1892 45.5091 26.187C44.9836 26.1848 44.6332 26.4839 44.4457 26.7923C44.2 27.1968 44.2556 27.7537 44.2632 28.2845Z" fill="#108DE8"/>
<path fill-rule="evenodd" clip-rule="evenodd" d="M28.753 30.8239L29.9957 30.825C29.9964 30.5607 29.9623 29.7505 30.0078 29.5585L32.4725 29.5588L32.4812 30.8241L33.7255 30.8253C33.719 30.1237 33.725 29.4232 33.725 28.7254C33.725 28.1268 33.7802 27.2693 33.6239 26.7386C32.9118 24.3218 29.5967 24.3047 28.8609 26.7144C28.6943 27.2602 28.7512 28.0953 28.7512 28.7031C28.7512 29.4045 28.7352 30.1249 28.753 30.8239ZM29.9964 28.2844L32.48 28.2857C32.4852 27.7504 32.5435 27.2126 32.2999 26.7973C31.8541 26.0372 30.7204 25.9278 30.1811 26.7936C29.9346 27.1894 29.9883 27.7632 29.9964 28.2844Z" fill="#108DE8"/>
<path fill-rule="evenodd" clip-rule="evenodd" d="M35.9127 27.2249L35.8958 28.1025C35.8958 28.8384 35.8593 30.2111 35.8984 30.808L37.117 30.8087C37.1453 30.3902 37.0729 27.4041 37.1501 27.309C37.1504 26.7287 37.7536 26.1891 38.3636 26.1868C38.7383 26.1854 39.0116 26.3384 39.2105 26.5199C39.3658 26.6617 39.6032 26.9848 39.5987 27.312C39.6557 27.3442 39.6107 30.459 39.6286 30.8078L40.8485 30.8087L40.8388 27.2428C40.8692 26.9634 40.7015 26.5315 40.594 26.3123C39.6909 24.4711 37.0989 24.4467 36.1702 26.2805C36.0613 26.4956 35.887 26.9391 35.9127 27.2249Z" fill="#108DE8"/>
<path fill-rule="evenodd" clip-rule="evenodd" d="M23.8151 30.8144L21.635 30.807L21.6355 24.9319L23.8276 24.9302C23.7878 24.8742 22.8732 24.9077 22.745 24.9077C22.4261 24.9077 21.9227 24.8776 21.6262 24.9125C21.5983 25.0061 21.5868 30.6748 21.6243 30.8276C21.8261 30.8537 23.2328 30.8335 23.6775 30.8346L23.7998 30.8217C23.8037 30.8206 23.81 30.8169 23.8151 30.8144Z" fill="#79BBE7"/>
<path fill-rule="evenodd" clip-rule="evenodd" d="M39.5987 27.312C39.6118 27.7926 39.5728 30.6565 39.6175 30.8282L40.8596 30.8336C40.892 30.6959 40.872 28.4628 40.872 28.1248C40.872 27.9631 40.9152 27.3283 40.8388 27.2428L40.8485 30.8087L39.6286 30.8078C39.6107 30.459 39.6557 27.3442 39.5987 27.312Z" fill="#79BBE7"/>
<path fill-rule="evenodd" clip-rule="evenodd" d="M37.1501 27.309C37.0729 27.4041 37.1453 30.3902 37.117 30.8087L35.8984 30.808C35.8593 30.2111 35.8958 28.8384 35.8958 28.1026L35.9128 27.2249C35.8434 27.2551 35.8744 28.8193 35.8744 29.0145C35.8744 29.2988 35.8407 30.6659 35.8892 30.8288L37.1307 30.8334L37.1501 27.309Z" fill="#79BBE7"/>
</g>
<defs>
<clipPath id="clip0_56363_103952">
<rect width="40" height="11.6989" fill="white" transform="translate(8 22)"/>
</clipPath>
</defs>
</svg>
