<svg width="57" height="56" viewBox="0 0 57 56" fill="none" xmlns="http://www.w3.org/2000/svg">
<g clip-path="url(#clip0_56658_1674)">
<rect x="0.5" width="56" height="56" rx="24" fill="url(#paint0_linear_56658_1674)"/>
<g style="mix-blend-mode:overlay" opacity="0.1">
<path d="M25.1468 -9H-6.5V-8.95031H16.1724C16.1724 -8.95031 10.5847 0.714015 18.4777 16.2368C22.5138 24.1766 28.526 31.2917 28.526 31.2917L21.2841 37.0883L-1.0648 9.01595L-6.5 2.1042V16.2381L14.3286 42.6499L-6.5 59.9996L1.88316 60L17.5554 46.8204L28.3879 60H38.9896L44.2909 55.3927C44.2909 55.3927 41.5248 57.2462 34.7605 52.5366C30.7681 49.7566 24.4696 41.4235 24.4696 41.4235L31.8446 35.2997C31.8446 35.2997 38.8885 44.6204 47.0569 46.8204C57.7597 49.7035 62.4983 42.6503 62.4983 42.6503L62.5 38.4313C55.141 42.7021 49.1862 37.3957 44.2917 32.4756C40.8864 29.0521 37.4929 25.1031 37.4929 17.9968C37.4929 13.1179 41.7228 6.39225 49.4734 6.39225C55.5319 6.39225 62.5 12.3922 62.5 12.3922L62.4983 0.714857C62.4983 0.714857 50.0082 -5.87851 38.9896 5.19789C33.8197 10.3943 33.3623 19.2496 33.3623 19.2496C33.3783 19.4493 26.2594 10.5312 24.4688 2.10504C22.7943 -5.77828 25.1468 -9 25.1468 -9Z" fill="black"/>
<path d="M62.4983 -8.94946L62.4992 -9H25.1468L62.4983 -8.94946Z" fill="black"/>
</g>
<path fill-rule="evenodd" clip-rule="evenodd" d="M15.9505 37.8837C16.4723 38.4055 17.0998 38.6663 17.8332 38.6663H29.8332C30.2109 38.6663 30.5278 38.5383 30.7838 38.2823C31.0389 38.0272 31.1665 37.7108 31.1665 37.333C31.1665 36.9552 31.0389 36.6388 30.7838 36.3837C30.5278 36.1277 30.2109 35.9997 29.8332 35.9997H17.8332V27.9997H41.8332V19.9997C41.8332 19.2663 41.5723 18.6388 41.0505 18.117C40.5278 17.5943 39.8998 17.333 39.1665 17.333H17.8332C17.0998 17.333 16.4723 17.5943 15.9505 18.117C15.4278 18.6388 15.1665 19.2663 15.1665 19.9997V35.9997C15.1665 36.733 15.4278 37.361 15.9505 37.8837ZM39.1665 22.6663H17.8332V19.9997H39.1665V22.6663ZM35.1435 38.3558C35.2395 38.4518 35.3583 38.4998 35.5 38.4998C35.6417 38.4998 35.7605 38.4539 35.8565 38.3623C35.9522 38.2706 36 38.1539 36 38.0123V35.4998C36 35.3581 35.9522 35.2393 35.8565 35.1433C35.7605 35.0476 35.6417 34.9998 35.5 34.9998C35.3583 34.9998 35.2395 35.0456 35.1435 35.1373C35.0478 35.2289 35 35.3456 35 35.4873V37.9998C35 38.1414 35.0478 38.2601 35.1435 38.3558ZM38.144 38.3558C38.2397 38.4518 38.3583 38.4998 38.5 38.4998C38.6417 38.4998 38.7605 38.4539 38.8565 38.3623C38.9522 38.2706 39 38.1539 39 38.0123V35.4998C39 35.3581 38.9522 35.2393 38.8565 35.1433C38.7605 35.0476 38.6417 34.9998 38.5 34.9998C38.3583 34.9998 38.2397 35.0456 38.144 35.1373C38.048 35.2289 38 35.3456 38 35.4873V37.9998C38 38.1414 38.048 38.2601 38.144 38.3558ZM33.6375 40.3558C33.7292 40.4518 33.8458 40.4998 33.9875 40.4998H43C43.1417 40.4998 43.2603 40.4518 43.356 40.3558C43.452 40.2601 43.5 40.1414 43.5 39.9998C43.5 39.8581 43.4542 39.7394 43.3625 39.6438C43.2708 39.5478 43.1542 39.4998 43.0125 39.4998H34C33.8583 39.4998 33.7397 39.5478 33.644 39.6438C33.548 39.7394 33.5 39.8581 33.5 39.9998C33.5 40.1414 33.5458 40.2601 33.6375 40.3558ZM41.144 38.3558C41.2397 38.4518 41.3583 38.4998 41.5 38.4998C41.6417 38.4998 41.7603 38.4539 41.856 38.3623C41.952 38.2706 42 38.1539 42 38.0123V35.4998C42 35.3581 41.952 35.2393 41.856 35.1433C41.7603 35.0476 41.6417 34.9998 41.5 34.9998C41.3583 34.9998 41.2397 35.0456 41.144 35.1373C41.048 35.2289 41 35.3456 41 35.4873V37.9998C41 38.1414 41.048 38.2601 41.144 38.3558ZM43.1625 32.8248L38.95 30.7248C38.8083 30.6581 38.6583 30.6248 38.5 30.6248C38.3417 30.6248 38.1917 30.6581 38.05 30.7248L33.8375 32.8373C33.7208 32.8873 33.6355 32.9643 33.5815 33.0683C33.5272 33.1726 33.5 33.2873 33.5 33.4123C33.5 33.5789 33.5625 33.7184 33.6875 33.8308C33.8125 33.9434 33.9583 33.9998 34.125 33.9998H42.8875C43.0542 33.9998 43.198 33.9434 43.319 33.8308C43.4397 33.7184 43.5 33.5789 43.5 33.4123C43.5 33.2873 43.4708 33.1726 43.4125 33.0683C43.3542 32.9643 43.2708 32.8831 43.1625 32.8248ZM41.275 32.9998H35.725L38.5 31.6248L41.275 32.9998Z" fill="white"/>
</g>
<defs>
<linearGradient id="paint0_linear_56658_1674" x1="28.5" y1="0" x2="28.5" y2="56" gradientUnits="userSpaceOnUse">
<stop stop-color="#8A79FB"/>
<stop offset="1" stop-color="#6650F7"/>
</linearGradient>
<clipPath id="clip0_56658_1674">
<rect x="0.5" width="56" height="56" rx="24" fill="white"/>
</clipPath>
</defs>
</svg>
