<svg width="56" height="56" viewBox="0 0 56 56" fill="none" xmlns="http://www.w3.org/2000/svg">
<rect x="0.5" y="0.5" width="55" height="55" rx="23.5" fill="white" stroke="#D0DDDE"/>
<path d="M44.8126 33.4138H9V34.2092H44.8126C45.9117 34.2092 46.832 33.3781 47 32.3012C46.5076 32.9786 45.7062 33.4138 44.8126 33.4138Z" fill="#EFCF00"/>
<path d="M47 30.6643V30.0753H11.2198C9.99833 30.0753 9 31.0259 9 32.1892V32.7782H44.7866C46.0103 32.7782 47 31.8262 47 30.6643Z" fill="#D60F27"/>
<path d="M16.2324 21.9665C15.6811 21.9665 15.3599 22.379 15.3599 22.9696V23.3513V27.0967V27.4894C15.3599 28.0668 15.6811 28.4854 16.2324 28.4854C16.7734 28.4854 17.1088 28.0668 17.1088 27.4894V27.0967V23.3513V22.9696C17.1088 22.379 16.7734 21.9665 16.2324 21.9665Z" fill="#1756C2"/>
<path d="M20.1724 23.7569H19.7728V23.5091C19.7728 23.2309 19.9353 23.1137 20.3649 23.1623C20.822 23.2047 20.9247 22.9145 20.9247 22.6825C20.9247 22.5031 20.8722 22.4121 20.7334 22.2515C20.4373 21.9583 19.6877 21.9672 19.6877 21.9672C19.6877 21.9672 19.0083 21.9359 18.5476 22.3008C18.0889 22.6561 18.1289 23.303 18.1289 23.303V23.7569H18.0553C17.7505 23.7569 17.4268 23.9462 17.4268 24.335C17.4268 24.7266 17.794 24.906 18.0889 24.906H18.1289V27.6031C18.1289 28.0668 18.4138 28.4854 18.9759 28.4854C19.5494 28.4854 19.7728 28.08 19.7728 27.6293V24.906H20.1724C20.3932 24.906 20.832 24.7985 20.832 24.3576C20.832 23.8999 20.4861 23.7569 20.1724 23.7569Z" fill="#1756C2"/>
<path d="M24.8617 23.5565C24.5906 23.5565 24.374 23.6799 24.2322 23.8667C23.9714 23.6837 23.628 23.5565 23.2277 23.5565C21.5217 23.5565 20.7659 24.8539 20.7659 26.1067C20.7659 27.4479 21.6841 28.4853 23.2277 28.4853C23.5934 28.4853 23.9458 28.3622 24.2302 28.1728C24.3692 28.3645 24.5873 28.4853 24.8617 28.4853C25.3923 28.4853 25.6947 28.0717 25.6947 27.4877V24.5576C25.6947 23.9838 25.3923 23.5565 24.8617 23.5565ZM22.423 26.042C22.423 24.9748 22.9348 24.7856 23.2786 24.7856C23.2922 24.7856 23.3095 24.7856 23.3216 24.7856C23.7166 24.8169 24.0278 25.0832 24.0278 26.0882C24.0278 27.0769 23.6905 27.275 23.3409 27.2948C23.3203 27.2948 23.31 27.2948 23.2882 27.2948C22.8956 27.2948 22.4227 27.1053 22.4227 26.042H22.423Z" fill="#1756C2"/>
<path d="M14.6299 27.191C14.5431 26.9246 13.1333 22.8221 13.0632 22.6287C12.9857 22.434 12.9144 22.2931 12.744 22.1717C12.4624 21.9536 11.8595 21.9667 11.8595 21.9667C11.8595 21.9667 11.2646 21.9526 10.978 22.1717C10.8103 22.2934 10.7388 22.4343 10.665 22.6287C10.5937 22.8221 9.18388 26.9246 9.08675 27.191C9.00769 27.4514 8.93942 27.7703 9.08675 28.0306C9.24839 28.274 9.51519 28.4854 9.86006 28.4854C10.2097 28.4854 10.5197 28.3304 10.6552 27.8958C10.787 27.4514 10.856 27.2341 10.856 27.2341H11.8595H12.8682C12.8682 27.2341 12.9337 27.4514 13.0668 27.8958C13.1995 28.3306 13.5173 28.4854 13.8574 28.4854C14.215 28.4854 14.4884 28.274 14.6299 28.0306C14.7831 27.7703 14.7238 27.4514 14.6299 27.191ZM11.235 25.8212L11.8595 23.7406L12.4857 25.8212H11.235Z" fill="#1756C2"/>
<path d="M33.1096 23.56C32.2043 23.56 31.324 24.7694 31.0117 25.2374C31.0257 25.1309 31.049 24.9682 31.0989 24.7823C31.1648 24.4742 31.2219 24.0378 31.0117 23.7808C30.8888 23.6321 30.7072 23.56 30.4638 23.56C29.6255 23.56 28.7972 24.627 28.443 25.1493C28.4849 24.9965 28.5351 24.8056 28.5685 24.6953C28.6233 24.4385 28.7316 24.0381 28.5582 23.8046C28.4547 23.6607 28.2846 23.5959 28.0433 23.5959C27.6488 23.5959 27.2099 23.7808 27.1917 23.7808L27.1022 23.8211L27.1841 23.8691C27.1841 23.8691 27.3048 23.9895 27.2117 24.627C27.0525 25.7476 26.6859 27.0834 26.5429 27.6134C26.4608 27.8835 26.4732 28.1044 26.5814 28.2508C26.6958 28.3998 26.9034 28.4853 27.1625 28.4853C27.524 28.4853 27.8526 28.3649 27.8709 28.3477L27.9243 28.3338L27.882 28.2794C27.882 28.2759 27.6934 27.9963 27.9421 27.453C28.78 25.593 29.4574 24.8526 29.6467 24.7261C29.6914 24.7054 29.7175 24.6806 29.7497 24.6806C29.7705 24.6806 29.7809 24.6943 29.7809 24.7046C29.8017 24.715 29.8052 24.7608 29.8017 24.8025C29.7335 25.4491 29.4597 26.5287 29.2837 27.2506C29.246 27.4156 29.2054 27.5499 29.1838 27.6627C29.1192 27.9392 29.1407 28.1537 29.246 28.2964C29.3507 28.4145 29.52 28.4825 29.7596 28.4825C30.1353 28.4825 30.4674 28.3449 30.4811 28.3424L30.5493 28.3148L30.4984 28.2688C30.4984 28.2513 30.3168 28.0153 30.5716 27.4401C31.191 26.0094 32.0276 24.8916 32.2451 24.7292C32.3186 24.6776 32.3561 24.671 32.3782 24.671C32.3853 24.671 32.3886 24.671 32.4025 24.6917C32.4198 24.7089 32.4269 24.7702 32.4198 24.8443C32.4165 24.8718 32.3921 24.9609 32.3726 25.0934C32.2487 25.5887 32.0283 26.6124 31.9076 27.3247C31.8354 27.75 31.8704 28.0687 32.0283 28.2501C32.1563 28.3965 32.3566 28.482 32.6003 28.482C33.0254 28.482 33.4184 28.2174 33.4359 28.2078L33.498 28.1656L33.441 28.1272C33.441 28.1272 33.14 27.8441 33.2878 27.0093C33.3925 26.4498 33.5277 25.806 33.6298 25.338C33.6782 25.1035 33.7094 24.9085 33.7355 24.802L33.7424 24.76C33.7969 24.5033 33.879 24.0343 33.6564 23.7687C33.5386 23.6149 33.3606 23.5565 33.1131 23.5565L33.1096 23.56Z" fill="#D60F27"/>
<path d="M38.3181 23.6062C38.0606 23.6062 37.8508 23.6745 37.7075 23.8124C37.6025 23.7484 37.2444 23.5565 36.7746 23.5565C36.5064 23.5565 36.112 23.6062 35.6696 23.8843C35.1784 24.1861 34.7643 24.6685 34.4264 25.3287C33.6621 26.8069 34.0285 27.8862 34.2207 28.1512C34.388 28.3815 34.6196 28.4853 34.9537 28.4853C35.4263 28.4853 36.0551 28.301 37.0139 26.8069C36.9859 27.0172 36.9544 27.313 36.9544 27.5652C36.9544 28.3789 37.5323 28.4667 37.7707 28.4667C38.3881 28.4667 38.6034 28.181 38.6052 28.1711L38.6296 28.1401L38.6052 28.1091C38.5981 28.0988 38.3174 27.8146 38.5022 26.3008C38.6802 24.8584 39.1849 23.8644 39.1849 23.8523L39.2093 23.8122L39.1666 23.7844C39.149 23.7776 38.7328 23.6064 38.3189 23.6064L38.3181 23.6062ZM35.6509 27.377C35.525 27.377 35.4579 27.163 35.4579 26.9393C35.4579 26.6967 35.5799 25.3005 36.1759 24.5843C36.308 24.4449 36.4652 24.3569 36.6223 24.3569C37.0039 24.3569 37.3606 24.7621 37.4491 24.8665C36.9864 25.799 36.3366 26.7651 35.8743 27.2384C35.7894 27.3324 35.7073 27.377 35.6509 27.377Z" fill="#D60F27"/>
<path d="M43.0767 23.5565C42.4018 23.5565 41.5912 24.656 41.2482 25.1662C41.3051 24.9455 41.3884 24.6203 41.4524 24.321C41.4966 24.0965 41.4665 23.9214 41.3781 23.8037C41.2621 23.6749 41.0706 23.6063 40.8032 23.6063C40.4201 23.6063 39.9574 23.7711 39.9409 23.7774L39.8738 23.805L39.9332 23.8548C39.9332 23.8619 40.0582 24.036 39.981 24.6477C39.8738 25.3142 39.443 26.9761 39.2612 27.649C39.1776 27.9192 39.1982 28.1167 39.2989 28.2568C39.4527 28.4618 39.7517 28.4853 39.9574 28.4853C40.3075 28.4853 40.6557 28.3649 40.6708 28.3474L40.7376 28.3338L40.6975 28.2794C40.695 28.2758 40.5309 28.0182 40.7222 27.5207C41.2377 26.2397 41.8107 25.4914 42.1547 25.2345C42.2342 25.1799 42.3152 25.1465 42.3946 25.1465C42.5836 25.1465 42.7037 25.3552 42.7037 25.3552L42.7317 25.4074L42.7736 25.3651C42.9535 25.189 43.2752 24.815 43.3922 24.4774C43.4732 24.2752 43.578 23.9156 43.4205 23.7068C43.3549 23.6025 43.2379 23.5565 43.0765 23.5565H43.0767Z" fill="#D60F27"/>
<path d="M46.9363 24.1569C46.7534 24.2212 46.3044 24.2633 45.7019 24.2633C45.6341 24.2633 45.578 24.2633 45.5403 24.2633C45.5674 24.105 45.6765 23.6576 45.7947 23.2334C45.8689 22.9776 45.8605 22.7676 45.7542 22.6318C45.6497 22.5017 45.4782 22.4435 45.2177 22.4435C44.8524 22.4435 44.3265 22.6094 44.3062 22.6189L44.228 22.6431L44.2952 22.7051C44.497 22.9148 44.2781 23.9253 44.1843 24.3008C44.1739 24.3215 43.6609 26.3258 43.6609 27.2836C43.6609 28.0871 44.0942 28.4854 44.9243 28.4854C45.3115 28.4854 45.8761 28.3792 46.2555 28.045C46.4213 27.8996 46.4943 27.6917 46.4506 27.4716C46.4268 27.3136 46.3496 27.1898 46.3496 27.1835L46.3225 27.1253L46.2739 27.1712C46.2672 27.1712 46.0965 27.3418 45.7552 27.459C45.6264 27.4973 45.5252 27.5235 45.4207 27.5235C45.311 27.5235 45.2187 27.4776 45.132 27.4036C44.94 27.2032 45.0638 26.4876 45.105 26.2577C45.1693 25.8943 45.3274 25.218 45.3616 25.0487C45.4214 25.0487 45.5465 25.0461 45.7073 25.0461C45.8451 25.0461 45.9629 25.0487 46.0783 25.0487C46.7928 25.0625 46.9929 24.4987 46.9998 24.2008V24.1262L46.9363 24.1569Z" fill="#D60F27"/>
</svg>
