<svg width="57" height="56" viewBox="0 0 57 56" fill="none" xmlns="http://www.w3.org/2000/svg">
<g clip-path="url(#clip0_56658_1607)">
<rect x="0.5" width="56" height="56" rx="24" fill="url(#paint0_linear_56658_1607)"/>
<g style="mix-blend-mode:overlay" opacity="0.1">
<path d="M25.1468 -9H-6.5V-8.95031H16.1724C16.1724 -8.95031 10.5847 0.714015 18.4777 16.2368C22.5138 24.1766 28.526 31.2917 28.526 31.2917L21.2841 37.0883L-1.0648 9.01595L-6.5 2.1042V16.2381L14.3286 42.6499L-6.5 59.9996L1.88316 60L17.5554 46.8204L28.3879 60H38.9896L44.2909 55.3927C44.2909 55.3927 41.5248 57.2462 34.7605 52.5366C30.7681 49.7566 24.4696 41.4235 24.4696 41.4235L31.8446 35.2997C31.8446 35.2997 38.8885 44.6204 47.0569 46.8204C57.7597 49.7035 62.4983 42.6503 62.4983 42.6503L62.5 38.4313C55.141 42.7021 49.1862 37.3957 44.2917 32.4756C40.8864 29.0521 37.4929 25.1031 37.4929 17.9968C37.4929 13.1179 41.7228 6.39225 49.4734 6.39225C55.5319 6.39225 62.5 12.3922 62.5 12.3922L62.4983 0.714857C62.4983 0.714857 50.0082 -5.87851 38.9896 5.19789C33.8197 10.3943 33.3623 19.2496 33.3623 19.2496C33.3783 19.4493 26.2594 10.5312 24.4688 2.10504C22.7943 -5.77828 25.1468 -9 25.1468 -9Z" fill="black"/>
<path d="M62.4983 -8.94946L62.4992 -9H25.1468L62.4983 -8.94946Z" fill="black"/>
</g>
<path d="M18.2841 41C17.2273 41 16.4405 40.6503 15.9239 39.9508C15.4072 39.2513 15.2545 38.3653 15.4659 37.2927C15.7242 36.1036 15.9004 34.9145 15.9943 33.7254C16.0883 32.5363 16.147 31.3472 16.1705 30.158C15.2545 29.8083 14.4969 29.2254 13.8976 28.4093C13.2983 27.5933 12.9991 26.6606 13 25.6114V24.6321C13 24.1192 13.1705 23.6295 13.5115 23.1632C13.8525 22.6969 14.2574 22.3705 14.7261 22.1839C17.333 21.1347 19.6875 19.864 21.7899 18.3718C23.8923 16.8795 25.5418 15.6321 26.7386 14.6295C26.997 14.4197 27.2732 14.2625 27.5672 14.1581C27.8612 14.0536 28.1722 14.0009 28.5 14C28.8288 14 29.1402 14.0527 29.4342 14.1581C29.7283 14.2635 30.004 14.4206 30.2614 14.6295C31.4591 15.6321 33.1091 16.8795 35.2115 18.3718C37.3139 19.864 39.668 21.1347 42.2739 22.1839C42.7436 22.3705 43.1489 22.6969 43.4899 23.1632C43.8309 23.6295 44.0009 24.1192 44 24.6321V25.6114C44 26.6606 43.7008 27.5933 43.1024 28.4093C42.504 29.2254 41.7464 29.8083 40.8295 30.158C40.853 31.3472 40.9117 32.5363 41.0057 33.7254C41.0996 34.9145 41.2758 36.1036 41.5341 37.2927C41.7455 38.3653 41.5928 39.2513 41.0761 39.9508C40.5595 40.6503 39.7727 41 38.7159 41H18.2841ZM19.9045 22.8135H37.0955C35.2636 21.7876 33.6136 20.7323 32.1453 19.6476C30.677 18.563 29.4619 17.6131 28.5 16.7979C27.5371 17.614 26.3215 18.5644 24.8533 19.649C23.385 20.7337 21.7354 21.7885 19.9045 22.8135ZM32.0227 27.7098C32.6098 27.7098 33.1091 27.5056 33.5206 27.0971C33.932 26.6886 34.1373 26.1934 34.1364 25.6114H29.9091C29.9091 26.1943 30.1148 26.69 30.5263 27.0985C30.9377 27.507 31.4365 27.7108 32.0227 27.7098ZM24.9773 27.7098C25.5644 27.7098 26.0637 27.5056 26.4751 27.0971C26.8866 26.6886 27.0918 26.1934 27.0909 25.6114H22.8636C22.8636 26.1943 23.0694 26.69 23.4808 27.0985C23.8923 27.507 24.3911 27.7108 24.9773 27.7098ZM17.9318 27.7098C18.5189 27.7098 19.0182 27.5056 19.4297 27.0971C19.8411 26.6886 20.0464 26.1934 20.0455 25.6114H15.8182C15.8182 26.1943 16.0239 26.69 16.4354 27.0985C16.8468 27.507 17.3456 27.7108 17.9318 27.7098ZM18.1432 38.2021H21.9125C22.1239 36.8031 22.2883 35.4158 22.4057 34.0402C22.5231 32.6645 22.617 31.2772 22.6875 29.8782C22.4761 29.7617 22.2648 29.639 22.0534 29.5103C21.842 29.3816 21.6424 29.2245 21.4545 29.0389C21.1023 29.3886 20.7204 29.6745 20.309 29.8964C19.8975 30.1184 19.4574 30.2872 18.9886 30.4029C18.9417 31.7319 18.8595 33.0436 18.742 34.3381C18.6246 35.6326 18.425 36.9206 18.1432 38.2021ZM24.7659 38.2021H32.2341C32.0462 36.9197 31.8997 35.6373 31.7945 34.3549C31.6892 33.0725 31.6009 31.7785 31.5295 30.4728C30.9189 30.4262 30.3609 30.2807 29.8555 30.0363C29.3502 29.792 28.8983 29.4711 28.5 29.0738C28.1008 29.4702 27.6367 29.791 27.1078 30.0363C26.5789 30.2816 26.0332 30.4271 25.4705 30.4728C25.4 31.7785 25.3122 33.0725 25.207 34.3549C25.1017 35.6373 24.9547 36.9197 24.7659 38.2021ZM35.0875 38.2021H38.8568C38.575 36.9197 38.3754 35.6312 38.258 34.3367C38.1405 33.0422 38.0583 31.7309 38.0114 30.4029C37.5417 30.2863 37.0955 30.117 36.6727 29.895C36.25 29.6731 35.8742 29.3877 35.5455 29.0389C35.3576 29.2254 35.158 29.383 34.9466 29.5117C34.7352 29.6404 34.5239 29.7626 34.3125 29.8782C34.383 31.2772 34.483 32.6645 34.6126 34.0402C34.7423 35.4158 34.9015 36.8031 35.0875 38.2021ZM39.0682 27.7098C39.6553 27.7098 40.1546 27.5056 40.566 27.0971C40.9775 26.6886 41.1828 26.1934 41.1818 25.6114H36.9545C36.9545 26.1943 37.1603 26.69 37.5717 27.0985C37.9832 27.507 38.482 27.7108 39.0682 27.7098Z" fill="white"/>
</g>
<defs>
<linearGradient id="paint0_linear_56658_1607" x1="28.5" y1="0" x2="28.5" y2="56" gradientUnits="userSpaceOnUse">
<stop stop-color="#229CF9"/>
<stop offset="1" stop-color="#226BF9"/>
</linearGradient>
<clipPath id="clip0_56658_1607">
<rect x="0.5" width="56" height="56" rx="24" fill="white"/>
</clipPath>
</defs>
</svg>
