<svg width="57" height="56" viewBox="0 0 57 56" fill="none" xmlns="http://www.w3.org/2000/svg">
<g clip-path="url(#clip0_56658_3659)">
<rect x="0.5" width="56" height="56" rx="24" fill="url(#paint0_linear_56658_3659)"/>
<g style="mix-blend-mode:overlay" opacity="0.1">
<path d="M25.1468 -9H-6.5V-8.95031H16.1724C16.1724 -8.95031 10.5847 0.714015 18.4777 16.2368C22.5138 24.1766 28.526 31.2917 28.526 31.2917L21.2841 37.0883L-1.0648 9.01595L-6.5 2.1042V16.2381L14.3286 42.6499L-6.5 59.9996L1.88316 60L17.5554 46.8204L28.3879 60H38.9896L44.2909 55.3927C44.2909 55.3927 41.5248 57.2462 34.7605 52.5366C30.7681 49.7566 24.4696 41.4235 24.4696 41.4235L31.8446 35.2997C31.8446 35.2997 38.8885 44.6204 47.0569 46.8204C57.7597 49.7035 62.4983 42.6503 62.4983 42.6503L62.5 38.4313C55.141 42.7021 49.1862 37.3957 44.2917 32.4756C40.8864 29.0521 37.4929 25.1031 37.4929 17.9968C37.4929 13.1179 41.7228 6.39225 49.4734 6.39225C55.5319 6.39225 62.5 12.3922 62.5 12.3922L62.4983 0.714857C62.4983 0.714857 50.0082 -5.87851 38.9896 5.19789C33.8197 10.3943 33.3623 19.2496 33.3623 19.2496C33.3783 19.4493 26.2594 10.5312 24.4688 2.10504C22.7943 -5.77828 25.1468 -9 25.1468 -9Z" fill="black"/>
<path d="M62.4983 -8.94946L62.4992 -9H25.1468L62.4983 -8.94946Z" fill="black"/>
</g>
<path d="M33.0048 21.2663V19.4662C32.8507 19.488 32.7133 19.5196 32.5931 19.5611C32.3481 19.6483 32.1662 19.7621 32.0475 19.9027C31.9362 20.0433 31.8806 20.204 31.8806 20.3848C31.8806 20.4772 31.8958 20.5621 31.9262 20.6394C31.9661 20.7414 32.0325 20.8307 32.1254 20.9069C32.2962 21.0341 32.5152 21.1347 32.7823 21.2082C32.8544 21.2275 32.9286 21.247 33.0048 21.2663Z" fill="white"/>
<path d="M33.9175 22.6888V24.4606C34.077 24.4405 34.2179 24.4109 34.3405 24.3719C34.5929 24.2915 34.7784 24.1844 34.8971 24.0505C35.0158 23.9099 35.0753 23.7526 35.0753 23.5785C35.0753 23.3641 34.9898 23.1935 34.8192 23.0664C34.6484 22.9323 34.426 22.8285 34.1512 22.755C34.0759 22.7324 33.998 22.7104 33.9175 22.6888Z" fill="white"/>
<path fill-rule="evenodd" clip-rule="evenodd" d="M26.156 21.8274C26.156 25.7825 29.3018 28.9889 33.1829 28.9889C35.47 28.9889 37.5282 27.8728 38.8236 26.0995V31.9228L37.4902 30.6099C36.8361 29.9672 35.8756 30.9807 36.5317 31.625L39.0013 34.0562C39.2997 34.3711 39.735 34.3711 40.0334 34.056L42.5026 31.6248C43.1586 30.9805 42.1981 29.967 41.5438 30.6097L40.2103 31.9226L40.2107 21.8274C40.2226 17.8947 37.0707 14.6665 33.1829 14.6665C29.3021 14.6665 26.156 17.8727 26.156 21.8274ZM33.0048 26.2412C33.0048 26.4844 33.2092 26.6818 33.4611 26.6818C33.7133 26.6818 33.9175 26.4844 33.9175 26.2412V25.5552C34.0733 25.5426 34.2218 25.5244 34.3633 25.5007C34.6436 25.454 34.8958 25.3857 35.1198 25.2958C35.5872 25.1017 35.9323 24.8472 36.1549 24.5327C36.385 24.2112 36.5 23.863 36.5 23.4881C36.5 23.1198 36.4147 22.8151 36.2439 22.5742C36.0807 22.333 35.8617 22.1423 35.5872 22.0017C35.3201 21.8611 35.0195 21.7472 34.6855 21.6602C34.4318 21.5925 34.1758 21.5309 33.9175 21.4754V19.4461C34.1521 19.4668 34.3934 19.5085 34.641 19.5712C34.8101 19.611 34.977 19.6611 35.1415 19.7214C35.3131 19.7847 35.5011 19.7797 35.6597 19.7147C35.7971 19.6584 35.9125 19.5571 35.9759 19.4161C36.0913 19.1597 35.9941 18.8565 35.7283 18.7456C35.4978 18.6495 35.2467 18.5698 34.975 18.5066C34.6319 18.4267 34.2867 18.3767 33.9392 18.3565C33.9321 18.3561 33.9247 18.3557 33.9175 18.3553V17.6819C33.9175 17.4386 33.7133 17.2412 33.4611 17.2412C33.2092 17.2412 33.0048 17.4386 33.0048 17.6819V18.3697C32.5451 18.4093 32.148 18.4984 31.8138 18.6373C31.3537 18.8246 31.0087 19.0792 30.7786 19.4004C30.556 19.7151 30.4446 20.0634 30.4446 20.4449C30.4446 20.82 30.5301 21.128 30.7007 21.369C30.8715 21.6099 31.0903 21.8042 31.3574 21.9515C31.6319 22.092 31.9325 22.2092 32.2591 22.303C32.5097 22.3684 32.7582 22.4279 33.0048 22.482V24.4796C32.6421 24.4528 32.286 24.3833 31.9362 24.2714C31.8058 24.2297 31.6814 24.185 31.5629 24.1375C31.5011 24.1125 31.4407 24.0868 31.3819 24.0602C31.0529 23.9112 30.6337 24.0126 30.4772 24.3294C30.3607 24.5655 30.4277 24.8522 30.6649 24.9787C30.8305 25.067 31.015 25.148 31.2185 25.2218C31.3396 25.2658 31.4676 25.3071 31.6024 25.3461C32.0527 25.4707 32.5204 25.5449 33.0048 25.5686V26.2412Z" fill="white"/>
<path fill-rule="evenodd" clip-rule="evenodd" d="M30.8276 34.654C30.8276 30.5685 27.516 27.2562 23.4305 27.2562C21.0229 27.2562 18.8565 28.4092 17.4927 30.241V24.2254L18.8964 25.5817C19.585 26.2456 20.596 25.1987 19.9053 24.5331L17.3057 22.0216C16.9917 21.6965 16.5333 21.6965 16.2193 22.022L13.6201 24.5333C12.9296 25.1987 13.9404 26.2458 14.6295 25.5819L16.0331 24.2256L16.0327 34.654C16.0201 38.7165 19.338 42.0511 23.4305 42.0511C27.5157 42.0511 30.8276 38.739 30.8276 34.654ZM19.4066 36.2388C18.494 36.2388 18.494 34.8261 19.4066 34.8261H19.8454V33.7579H19.4066C18.494 33.7579 18.494 32.3449 19.4066 32.3449H20.2466C21.2697 30.1681 23.795 29.1919 25.9784 30.1396C26.8128 30.5018 26.271 31.7985 25.4368 31.4365C24.185 30.8931 22.728 31.2696 21.8753 32.3449H24.5674C25.4799 32.3449 25.4799 33.7579 24.5674 33.7579H21.2462V34.8263H24.5674C25.4799 34.8263 25.4799 36.239 24.5674 36.239H21.8753C22.7284 37.3146 24.185 37.6906 25.4368 37.1479C26.2712 36.7855 26.8128 38.0824 25.9784 38.4446C23.7942 39.3923 21.2692 38.4157 20.2466 36.2393L19.4066 36.2388Z" fill="white"/>
</g>
<defs>
<linearGradient id="paint0_linear_56658_3659" x1="28.5" y1="0" x2="28.5" y2="56" gradientUnits="userSpaceOnUse">
<stop stop-color="#0598AD"/>
<stop offset="1" stop-color="#006E85"/>
</linearGradient>
<clipPath id="clip0_56658_3659">
<rect x="0.5" width="56" height="56" rx="24" fill="white"/>
</clipPath>
</defs>
</svg>
