<svg width="57" height="56" viewBox="0 0 57 56" fill="none" xmlns="http://www.w3.org/2000/svg">
<g clip-path="url(#clip0_56658_1763)">
<rect x="0.5" width="56" height="56" rx="24" fill="url(#paint0_linear_56658_1763)"/>
<g style="mix-blend-mode:overlay" opacity="0.1">
<path d="M25.1468 -9H-6.5V-8.95031H16.1724C16.1724 -8.95031 10.5847 0.714015 18.4777 16.2368C22.5138 24.1766 28.526 31.2917 28.526 31.2917L21.2841 37.0883L-1.0648 9.01595L-6.5 2.1042V16.2381L14.3286 42.6499L-6.5 59.9996L1.88316 60L17.5554 46.8204L28.3879 60H38.9896L44.2909 55.3927C44.2909 55.3927 41.5248 57.2462 34.7605 52.5366C30.7681 49.7566 24.4696 41.4235 24.4696 41.4235L31.8446 35.2997C31.8446 35.2997 38.8885 44.6204 47.0569 46.8204C57.7597 49.7035 62.4983 42.6503 62.4983 42.6503L62.5 38.4313C55.141 42.7021 49.1862 37.3957 44.2917 32.4756C40.8864 29.0521 37.4929 25.1031 37.4929 17.9968C37.4929 13.1179 41.7228 6.39225 49.4734 6.39225C55.5319 6.39225 62.5 12.3922 62.5 12.3922L62.4983 0.714857C62.4983 0.714857 50.0082 -5.87851 38.9896 5.19789C33.8197 10.3943 33.3623 19.2496 33.3623 19.2496C33.3783 19.4493 26.2594 10.5312 24.4688 2.10504C22.7943 -5.77828 25.1468 -9 25.1468 -9Z" fill="black"/>
<path d="M62.4983 -8.94946L62.4992 -9H25.1468L62.4983 -8.94946Z" fill="black"/>
</g>
<path d="M28.5 41.3332C26.6777 41.3332 24.9555 40.9829 23.3333 40.2825C21.7111 39.5829 20.2946 38.6274 19.084 37.4158C17.8724 36.2052 16.9168 34.7887 16.2173 33.1665C15.5168 31.5443 15.1666 29.8221 15.1666 27.9998C15.1666 26.1554 15.5168 24.4278 16.2173 22.8172C16.9168 21.2056 17.8724 19.7945 19.084 18.5838C20.2946 17.3723 21.7111 16.4163 23.3333 15.7158C24.9555 15.0163 26.6777 14.6665 28.5 14.6665C30.3444 14.6665 32.072 15.0163 33.6826 15.7158C35.2942 16.4163 36.7053 17.3723 37.916 18.5838C39.1275 19.7945 40.0831 21.2056 40.7826 22.8172C41.4831 24.4278 41.8333 26.1554 41.8333 27.9998C41.8333 29.8221 41.4831 31.5443 40.7826 33.1665C40.0831 34.7887 39.1275 36.2052 37.916 37.4158C36.7053 38.6274 35.2942 39.5829 33.6826 40.2825C32.072 40.9829 30.3444 41.3332 28.5 41.3332ZM28.5 38.5998C29.0777 37.7998 29.5777 36.9665 30 36.0998C30.4222 35.2332 30.7666 34.3109 31.0333 33.3332H25.9666C26.2333 34.3109 26.5777 35.2332 27 36.0998C27.4222 36.9665 27.9222 37.7998 28.5 38.5998V38.5998ZM25.0333 38.0665C24.6333 37.3332 24.2835 36.5718 23.984 35.7825C23.6835 34.9941 23.4333 34.1776 23.2333 33.3332H19.3C19.9444 34.4443 20.7497 35.4109 21.716 36.2332C22.6831 37.0554 23.7888 37.6665 25.0333 38.0665ZM31.9666 38.0665C33.2111 37.6665 34.3164 37.0554 35.2826 36.2332C36.2497 35.4109 37.0555 34.4443 37.7 33.3332H33.7666C33.5666 34.1776 33.3168 34.9941 33.0173 35.7825C32.7168 36.5718 32.3666 37.3332 31.9666 38.0665V38.0665ZM18.1666 30.6665H22.7C22.6333 30.2221 22.5831 29.7829 22.5493 29.3492C22.5164 28.9163 22.5 28.4665 22.5 27.9998C22.5 27.5332 22.5164 27.0834 22.5493 26.6505C22.5831 26.2167 22.6333 25.7776 22.7 25.3332H18.1666C18.0555 25.7776 17.972 26.2167 17.916 26.6505C17.8608 27.0834 17.8333 27.5332 17.8333 27.9998C17.8333 28.4665 17.8608 28.9163 17.916 29.3492C17.972 29.7829 18.0555 30.2221 18.1666 30.6665ZM25.3666 30.6665H31.6333C31.7 30.2221 31.7502 29.7829 31.784 29.3492C31.8168 28.9163 31.8333 28.4665 31.8333 27.9998C31.8333 27.5332 31.8168 27.0834 31.784 26.6505C31.7502 26.2167 31.7 25.7776 31.6333 25.3332H25.3666C25.3 25.7776 25.2502 26.2167 25.2173 26.6505C25.1835 27.0834 25.1666 27.5332 25.1666 27.9998C25.1666 28.4665 25.1835 28.9163 25.2173 29.3492C25.2502 29.7829 25.3 30.2221 25.3666 30.6665ZM34.3 30.6665H38.8333C38.9444 30.2221 39.028 29.7829 39.084 29.3492C39.1391 28.9163 39.1666 28.4665 39.1666 27.9998C39.1666 27.5332 39.1391 27.0834 39.084 26.6505C39.028 26.2167 38.9444 25.7776 38.8333 25.3332H34.3C34.3666 25.7776 34.4164 26.2167 34.4493 26.6505C34.4831 27.0834 34.5 27.5332 34.5 27.9998C34.5 28.4665 34.4831 28.9163 34.4493 29.3492C34.4164 29.7829 34.3666 30.2221 34.3 30.6665ZM33.7666 22.6665H37.7C37.0555 21.5554 36.2497 20.5887 35.2826 19.7665C34.3164 18.9443 33.2111 18.3332 31.9666 17.9332C32.3666 18.6665 32.7168 19.4274 33.0173 20.2158C33.3168 21.0052 33.5666 21.8221 33.7666 22.6665V22.6665ZM25.9666 22.6665H31.0333C30.7666 21.6887 30.4222 20.7665 30 19.8998C29.5777 19.0332 29.0777 18.1998 28.5 17.3998C27.9222 18.1998 27.4222 19.0332 27 19.8998C26.5777 20.7665 26.2333 21.6887 25.9666 22.6665ZM19.3 22.6665H23.2333C23.4333 21.8221 23.6835 21.0052 23.984 20.2158C24.2835 19.4274 24.6333 18.6665 25.0333 17.9332C23.7888 18.3332 22.6831 18.9443 21.716 19.7665C20.7497 20.5887 19.9444 21.5554 19.3 22.6665Z" fill="white"/>
</g>
<defs>
<linearGradient id="paint0_linear_56658_1763" x1="28.5" y1="0" x2="28.5" y2="56" gradientUnits="userSpaceOnUse">
<stop stop-color="#8A79FB"/>
<stop offset="1" stop-color="#6650F7"/>
</linearGradient>
<clipPath id="clip0_56658_1763">
<rect x="0.5" width="56" height="56" rx="24" fill="white"/>
</clipPath>
</defs>
</svg>
