<svg width="56" height="56" viewBox="0 0 56 56" fill="none" xmlns="http://www.w3.org/2000/svg">
<rect x="0.5" y="0.5" width="55" height="55" rx="23.5" fill="white" stroke="#D0DDDE"/>
<path fill-rule="evenodd" clip-rule="evenodd" d="M28.0031 18.2206C28.457 18.2206 28.8984 18.233 29.3398 18.2579C29.6072 18.9853 30.8755 22.8089 29.4269 26.7755C28.8487 28.3609 27.1265 31.3389 24.7764 33.3782C22.4698 35.3801 19.5788 36.5925 18.727 36.9282C14.6548 35.0568 12 31.9917 12 28.5287C12 27.0677 12.4725 25.675 13.3305 24.4129C14.1698 23.3063 15.32 22.2431 16.7375 21.2111C19.6285 19.3646 23.6076 18.2206 27.9969 18.2206H28.0031Z" fill="#0B8E31"/>
<path fill-rule="evenodd" clip-rule="evenodd" d="M15.2141 40.2668C15.2141 40.2668 21.4935 38.6379 26.001 35.1625C30.5085 31.687 33.1322 27.049 34.0585 21.497C34.4253 19.321 34.3632 17.2755 34.4005 15H37.3723C37.3723 15 37.6769 20.8566 35.9113 25.9858C34.1456 31.1151 29.4578 34.5221 28.3014 35.4298C27.1512 36.3437 23.769 38.0286 20.6728 39.098C17.5767 40.1673 15.2141 40.2668 15.2141 40.2668Z" fill="#B2B705"/>
<path fill-rule="evenodd" clip-rule="evenodd" d="M40.5743 22.3984C40.8727 22.6409 41.1525 22.8958 41.4198 23.1569C41.5691 23.3062 41.7245 23.474 41.8861 23.6481C43.2291 25.1589 44 26.9059 44 28.7711C44 34.4599 36.8377 39.0793 28.0031 39.0793C27.0456 39.0793 26.1068 39.0233 25.1991 38.9238C26.5109 38.5757 29.6133 37.6679 31.4785 36.4618C33.897 34.9013 36.5642 32.3584 37.5216 30.9969C38.4791 29.6353 39.536 27.8136 40.0583 25.5817C40.5183 23.6232 40.5619 22.6223 40.5681 22.4047L40.5743 22.3984Z" fill="#096C8C"/>
</svg>
