<svg width="18" height="12" viewBox="0 0 18 12" fill="none" xmlns="http://www.w3.org/2000/svg">
<mask id="mask0_17626_555" style="mask-type:alpha" maskUnits="userSpaceOnUse" x="0" y="0" width="18" height="12">
<rect y="0.9375" width="18" height="10.125" rx="2" fill="white"/>
</mask>
<g mask="url(#mask0_17626_555)">
<rect y="0.9375" width="18" height="10.125" fill="#41479B"/>
<path d="M8.95516 3.27835C8.9735 3.24119 9.0265 3.24119 9.04484 3.27835L9.15368 3.49889C9.16096 3.51365 9.17504 3.52388 9.19133 3.52624L9.43471 3.56161C9.47572 3.56757 9.4921 3.61797 9.46242 3.64689L9.28631 3.81856C9.27452 3.83005 9.26915 3.8466 9.27193 3.86282L9.3135 4.10522C9.32051 4.14606 9.27764 4.17721 9.24096 4.15793L9.02327 4.04348C9.0087 4.03582 8.9913 4.03582 8.97673 4.04348L8.75904 4.15793C8.72236 4.17721 8.67949 4.14606 8.6865 4.10522L8.72807 3.86282C8.73085 3.8466 8.72548 3.83005 8.71369 3.81856L8.53758 3.64689C8.5079 3.61797 8.52428 3.56757 8.56529 3.56161L8.80867 3.52624C8.82496 3.52388 8.83904 3.51365 8.84632 3.49889L8.95516 3.27835Z" fill="#FFD018"/>
<path d="M8.95516 7.77835C8.9735 7.74119 9.0265 7.74119 9.04484 7.77835L9.15368 7.99889C9.16096 8.01365 9.17504 8.02388 9.19133 8.02624L9.43471 8.06161C9.47572 8.06757 9.4921 8.11797 9.46242 8.14689L9.28631 8.31856C9.27452 8.33005 9.26915 8.3466 9.27193 8.36282L9.3135 8.60522C9.32051 8.64606 9.27764 8.67721 9.24096 8.65793L9.02327 8.54348C9.0087 8.53582 8.9913 8.53582 8.97673 8.54348L8.75904 8.65793C8.72236 8.67721 8.67949 8.64606 8.6865 8.60522L8.72807 8.36282C8.73085 8.3466 8.72548 8.33005 8.71369 8.31856L8.53758 8.14689C8.5079 8.11797 8.52428 8.06757 8.56529 8.06161L8.80867 8.02624C8.82496 8.02388 8.83904 8.01365 8.84632 7.99889L8.95516 7.77835Z" fill="#FFD018"/>
<path d="M6.70516 5.52835C6.7235 5.49119 6.7765 5.49119 6.79484 5.52835L6.90368 5.74889C6.91096 5.76365 6.92504 5.77388 6.94133 5.77624L7.18471 5.81161C7.22572 5.81757 7.2421 5.86797 7.21242 5.89689L7.03631 6.06856C7.02452 6.08005 7.01915 6.0966 7.02193 6.11282L7.0635 6.35522C7.07051 6.39606 7.02764 6.42721 6.99096 6.40793L6.77327 6.29348C6.7587 6.28582 6.7413 6.28582 6.72673 6.29348L6.50904 6.40793C6.47236 6.42721 6.42949 6.39606 6.4365 6.35522L6.47807 6.11282C6.48085 6.0966 6.47548 6.08005 6.46369 6.06856L6.28758 5.89689C6.2579 5.86797 6.27428 5.81757 6.31529 5.81161L6.55867 5.77624C6.57496 5.77388 6.58904 5.76365 6.59632 5.74889L6.70516 5.52835Z" fill="#FFD018"/>
<path d="M11.2052 5.52835C11.2235 5.49119 11.2765 5.49119 11.2948 5.52835L11.4037 5.74889C11.411 5.76365 11.425 5.77388 11.4413 5.77624L11.6847 5.81161C11.7257 5.81757 11.7421 5.86797 11.7124 5.89689L11.5363 6.06856C11.5245 6.08005 11.5191 6.0966 11.5219 6.11282L11.5635 6.35522C11.5705 6.39606 11.5276 6.42721 11.491 6.40793L11.2733 6.29348C11.2587 6.28582 11.2413 6.28582 11.2267 6.29348L11.009 6.40793C10.9724 6.42721 10.9295 6.39606 10.9365 6.35522L10.9781 6.11282C10.9809 6.0966 10.9755 6.08005 10.9637 6.06856L10.7876 5.89689C10.7579 5.86797 10.7743 5.81757 10.8153 5.81161L11.0587 5.77624C11.075 5.77388 11.089 5.76365 11.0963 5.74889L11.2052 5.52835Z" fill="#FFD018"/>
<path d="M10.0802 3.57992C10.0985 3.54276 10.1515 3.54276 10.1698 3.57992L10.2787 3.80047C10.286 3.81522 10.3 3.82545 10.3163 3.82782L10.5597 3.86318C10.6007 3.86914 10.6171 3.91954 10.5874 3.94847L10.4113 4.12014C10.3995 4.13162 10.3941 4.14817 10.3969 4.16439L10.4385 4.40679C10.4455 4.44764 10.4026 4.47879 10.366 4.4595L10.1483 4.34506C10.1337 4.3374 10.1163 4.3374 10.1017 4.34506L9.88404 4.4595C9.84736 4.47879 9.80449 4.44764 9.8115 4.40679L9.85307 4.16439C9.85585 4.14817 9.85048 4.13162 9.83869 4.12014L9.66258 3.94847C9.6329 3.91954 9.64928 3.86914 9.69029 3.86318L9.93367 3.82782C9.94996 3.82545 9.96404 3.81522 9.97132 3.80047L10.0802 3.57992Z" fill="#FFD018"/>
<path d="M7.83016 7.47677C7.8485 7.43961 7.9015 7.43961 7.91984 7.47677L8.02868 7.69732C8.03596 7.71207 8.05004 7.7223 8.06633 7.72467L8.30971 7.76003C8.35072 7.76599 8.3671 7.81639 8.33742 7.84532L8.16131 8.01699C8.14952 8.02847 8.14415 8.04502 8.14693 8.06124L8.1885 8.30364C8.19551 8.34449 8.15264 8.37564 8.11596 8.35635L7.89827 8.24191C7.8837 8.23425 7.8663 8.23425 7.85173 8.24191L7.63404 8.35635C7.59736 8.37564 7.55449 8.34449 7.5615 8.30364L7.60307 8.06124C7.60585 8.04502 7.60048 8.02847 7.58869 8.01699L7.41258 7.84532C7.3829 7.81639 7.39928 7.76599 7.44029 7.76003L7.68367 7.72467C7.69996 7.7223 7.71404 7.71207 7.72132 7.69732L7.83016 7.47677Z" fill="#FFD018"/>
<path d="M7.00674 4.40335C7.02508 4.36619 7.07807 4.36619 7.09641 4.40335L7.20526 4.62389C7.21254 4.63865 7.22662 4.64888 7.2429 4.65124L7.48629 4.68661C7.5273 4.69257 7.54367 4.74297 7.514 4.77189L7.33788 4.94356C7.3261 4.95505 7.32072 4.9716 7.3235 4.98782L7.36508 5.23022C7.37208 5.27106 7.32921 5.30221 7.29253 5.28293L7.07484 5.16848C7.06028 5.16082 7.04287 5.16082 7.02831 5.16848L6.81062 5.28293C6.77394 5.30221 6.73107 5.27106 6.73807 5.23022L6.77965 4.98782C6.78243 4.9716 6.77705 4.95505 6.76527 4.94356L6.58915 4.77189C6.55948 4.74297 6.57585 4.69257 6.61686 4.68661L6.86025 4.65124C6.87653 4.64888 6.89061 4.63865 6.89789 4.62389L7.00674 4.40335Z" fill="#FFD018"/>
<path d="M10.9036 6.65335C10.9219 6.61619 10.9749 6.61619 10.9933 6.65335L11.1021 6.87389C11.1094 6.88865 11.1235 6.89888 11.1398 6.90124L11.3831 6.93661C11.4241 6.94257 11.4405 6.99297 11.4108 7.02189L11.2347 7.19356C11.2229 7.20505 11.2176 7.2216 11.2204 7.23782L11.2619 7.48022C11.2689 7.52106 11.2261 7.55221 11.1894 7.53293L10.9717 7.41848C10.9571 7.41082 10.9397 7.41082 10.9252 7.41848L10.7075 7.53293C10.6708 7.55221 10.6279 7.52106 10.6349 7.48022L10.6765 7.23782C10.6793 7.2216 10.6739 7.20505 10.6621 7.19356L10.486 7.02189C10.4563 6.99297 10.4727 6.94257 10.5137 6.93661L10.7571 6.90124C10.7734 6.89888 10.7875 6.88865 10.7947 6.87389L10.9036 6.65335Z" fill="#FFD018"/>
<path d="M10.9036 4.40335C10.9219 4.36619 10.9749 4.36619 10.9933 4.40335L11.1021 4.62389C11.1094 4.63865 11.1235 4.64888 11.1398 4.65124L11.3831 4.68661C11.4241 4.69257 11.4405 4.74297 11.4108 4.77189L11.2347 4.94356C11.2229 4.95505 11.2176 4.9716 11.2204 4.98782L11.2619 5.23022C11.2689 5.27106 11.2261 5.30221 11.1894 5.28293L10.9717 5.16848C10.9571 5.16082 10.9397 5.16082 10.9252 5.16848L10.7075 5.28293C10.6708 5.30221 10.6279 5.27106 10.6349 5.23022L10.6765 4.98782C10.6793 4.9716 10.6739 4.95505 10.6621 4.94356L10.486 4.77189C10.4563 4.74297 10.4727 4.69257 10.5137 4.68661L10.7571 4.65124C10.7734 4.64888 10.7875 4.63865 10.7947 4.62389L10.9036 4.40335Z" fill="#FFD018"/>
<path d="M7.00674 6.65335C7.02508 6.61619 7.07807 6.61619 7.09641 6.65335L7.20526 6.87389C7.21254 6.88865 7.22662 6.89888 7.2429 6.90124L7.48629 6.93661C7.5273 6.94257 7.54367 6.99297 7.514 7.02189L7.33788 7.19356C7.3261 7.20505 7.32072 7.2216 7.3235 7.23782L7.36508 7.48022C7.37208 7.52106 7.32921 7.55221 7.29253 7.53293L7.07484 7.41848C7.06028 7.41082 7.04287 7.41082 7.02831 7.41848L6.81062 7.53293C6.77394 7.55221 6.73107 7.52106 6.73807 7.48022L6.77965 7.23782C6.78243 7.2216 6.77705 7.20505 6.76527 7.19356L6.58915 7.02189C6.55948 6.99297 6.57585 6.94257 6.61686 6.93661L6.86025 6.90124C6.87653 6.89888 6.89061 6.88865 6.89789 6.87389L7.00674 6.65335Z" fill="#FFD018"/>
<path d="M7.83016 3.57992C7.8485 3.54276 7.9015 3.54276 7.91984 3.57992L8.02868 3.80047C8.03596 3.81522 8.05004 3.82545 8.06633 3.82782L8.30971 3.86318C8.35072 3.86914 8.3671 3.91954 8.33742 3.94847L8.16131 4.12014C8.14952 4.13162 8.14415 4.14817 8.14693 4.16439L8.1885 4.40679C8.19551 4.44764 8.15264 4.47879 8.11596 4.4595L7.89827 4.34506C7.8837 4.3374 7.8663 4.3374 7.85173 4.34506L7.63404 4.4595C7.59736 4.47879 7.55449 4.44764 7.5615 4.40679L7.60307 4.16439C7.60585 4.14817 7.60048 4.13162 7.58869 4.12014L7.41258 3.94847C7.3829 3.91954 7.39928 3.86914 7.44029 3.86318L7.68367 3.82782C7.69996 3.82545 7.71404 3.81522 7.72132 3.80047L7.83016 3.57992Z" fill="#FFD018"/>
<path d="M10.0802 7.47677C10.0985 7.43961 10.1515 7.43961 10.1698 7.47677L10.2787 7.69732C10.286 7.71207 10.3 7.7223 10.3163 7.72467L10.5597 7.76003C10.6007 7.76599 10.6171 7.81639 10.5874 7.84532L10.4113 8.01699C10.3995 8.02847 10.3941 8.04502 10.3969 8.06124L10.4385 8.30364C10.4455 8.34449 10.4026 8.37564 10.366 8.35635L10.1483 8.24191C10.1337 8.23425 10.1163 8.23425 10.1017 8.24191L9.88404 8.35635C9.84736 8.37564 9.80449 8.34449 9.8115 8.30364L9.85307 8.06124C9.85585 8.04502 9.85048 8.02847 9.83869 8.01699L9.66258 7.84532C9.6329 7.81639 9.64928 7.76599 9.69029 7.76003L9.93367 7.72467C9.94996 7.7223 9.96404 7.71207 9.97132 7.69732L10.0802 7.47677Z" fill="#FFD018"/>
<path fill-rule="evenodd" clip-rule="evenodd" d="M2 0.9375C0.895431 0.9375 0 1.83293 0 2.9375V9.0625C0 10.1671 0.89543 11.0625 2 11.0625H16C17.1046 11.0625 18 10.1671 18 9.0625V2.9375C18 1.83293 17.1046 0.9375 16 0.9375H2ZM2.5625 1.5C1.45793 1.5 0.5625 2.39543 0.5625 3.5V8.5C0.5625 9.60457 1.45793 10.5 2.5625 10.5H15.4375C16.5421 10.5 17.4375 9.60457 17.4375 8.5V3.5C17.4375 2.39543 16.5421 1.5 15.4375 1.5H2.5625Z" fill="#171B1E" fill-opacity="0.199089"/>
</g>
</svg>
