<svg width="244" height="244" viewBox="0 0 244 244" fill="none" xmlns="http://www.w3.org/2000/svg">
<path d="M139.158 123.24L130.511 113.964C130.031 113.413 129.119 113.627 128.926 114.325L127.911 117.77C113.614 114.675 106.885 127.383 106.885 127.383L112.505 130.729C117.67 121.311 126.144 123.616 126.144 123.616L125.242 126.613C125.05 127.311 125.687 127.997 126.356 127.801L138.687 124.789C139.408 124.638 139.639 123.791 139.158 123.24Z" fill="#E0E0E0"/>
<path d="M138.601 165C132.949 172.985 125.582 171.298 124.068 170.852L125.733 166.984C125.885 166.686 125.582 166.339 125.279 166.389L110.393 168.372C110.04 168.422 109.889 168.819 110.09 169.067L119.123 180.82C119.325 181.118 119.779 181.019 119.88 180.721L121.646 176.555C135.825 180.969 144 169.017 144 169.017L138.601 165Z" fill="#E0E0E0"/>
<path d="M124.733 186.855C126.002 186.123 127.612 186.123 129.027 186.562C130.442 187.002 131.662 187.88 132.736 188.905C134.786 190.906 136.054 193.882 136.786 196.664C133.663 197.298 130.491 195.493 128.93 194.517C126.392 192.955 122.878 188.563 124.733 186.855Z" fill="#455A64"/>
<path d="M142.154 197.347C140.642 196.664 139.666 195.054 139.568 193.443C139.47 191.784 140.105 190.174 141.227 188.954C141.715 188.368 142.398 187.88 143.179 187.929C143.911 187.978 144.497 188.514 144.79 189.149C145.082 189.783 145.131 190.515 145.034 191.247C144.79 193.638 144.106 195.932 142.154 197.347Z" fill="#455A64"/>
<path d="M147.132 205.058C147.132 205.058 146.986 204.911 146.742 204.618C146.449 204.326 146.107 203.935 145.668 203.447C144.79 202.422 143.521 201.007 142.691 199.104C141.862 197.201 141.666 195.249 141.862 193.931C141.959 193.248 142.106 192.711 142.252 192.37C142.301 192.174 142.398 192.077 142.447 191.979C142.496 191.882 142.496 191.833 142.545 191.833C142.594 191.833 142.203 192.614 142.057 193.931C141.91 195.249 142.106 197.152 142.935 199.006C143.765 200.91 144.985 202.325 145.863 203.35C146.302 203.886 146.644 204.277 146.888 204.57C147.034 204.862 147.181 205.058 147.132 205.058Z" fill="#263238"/>
<path d="M127.71 189.978C127.71 189.978 127.807 190.027 127.905 190.125C128.051 190.222 128.246 190.369 128.49 190.515C129.027 190.857 129.759 191.394 130.686 192.077C132.541 193.394 135.03 195.249 137.762 197.396C140.495 199.543 142.935 201.495 144.643 202.959C145.522 203.691 146.205 204.277 146.693 204.716C146.937 204.911 147.083 205.058 147.23 205.204C147.376 205.302 147.425 205.399 147.425 205.399C147.425 205.399 147.327 205.35 147.23 205.253C147.083 205.155 146.888 205.009 146.644 204.814C146.107 204.374 145.424 203.838 144.546 203.106C142.789 201.69 140.349 199.738 137.616 197.591C134.883 195.493 132.394 193.59 130.54 192.223C129.662 191.54 128.93 191.003 128.393 190.613C128.149 190.418 127.954 190.271 127.807 190.174C127.758 190.027 127.71 189.978 127.71 189.978Z" fill="#263238"/>
<path d="M140.983 201.642C137.958 199.982 134.102 199.934 130.979 201.495C130.198 201.886 129.369 202.569 129.418 203.447C129.466 204.326 130.442 204.862 131.272 205.106C134.786 206.131 138.885 204.765 141.13 201.837" fill="#455A64"/>
<path d="M133.37 202.862C133.37 202.862 133.517 202.764 133.858 202.618C134.005 202.52 134.2 202.422 134.444 202.374C134.688 202.276 134.932 202.178 135.225 202.081C135.518 201.983 135.859 201.886 136.25 201.788C136.591 201.69 137.03 201.642 137.421 201.593C138.25 201.495 139.178 201.446 140.154 201.593C141.13 201.69 142.008 201.934 142.838 202.227C143.228 202.374 143.618 202.52 143.911 202.715C144.253 202.862 144.546 203.057 144.838 203.252C145.131 203.398 145.326 203.594 145.522 203.74C145.717 203.886 145.912 204.033 146.01 204.13C146.254 204.374 146.4 204.521 146.4 204.521C146.351 204.57 145.814 204.033 144.741 203.35C144.448 203.203 144.155 203.008 143.814 202.862C143.472 202.666 143.13 202.569 142.74 202.422C141.959 202.13 141.081 201.934 140.105 201.788C139.129 201.69 138.25 201.69 137.421 201.788C137.03 201.837 136.64 201.886 136.25 201.983C135.908 202.032 135.566 202.13 135.274 202.227C134.054 202.52 133.37 202.862 133.37 202.862Z" fill="#263238"/>
<path d="M106.677 93.2568C108.092 93.6472 109.312 94.672 110.19 95.8432C110.678 96.4776 111.118 97.2096 111.118 98.0392C111.118 98.82 110.434 99.6496 109.654 99.6008C109.166 99.552 108.775 99.2592 108.434 98.9176C107.604 98.1368 106.823 97.112 105.652 96.9656C105.018 96.9168 104.286 97.112 103.7 96.8192C103.114 96.5264 102.87 95.7944 103.017 95.16C103.163 94.5256 103.651 94.0376 104.188 93.696C104.188 93.7448 105.262 92.8176 106.677 93.2568Z" fill="#009092"/>
<path d="M108.482 86.9128C108.287 88.328 109.702 89.1088 110.678 89.1088C111.703 89.1088 112.63 88.572 113.509 88.0352C115.51 86.864 117.559 85.5952 118.779 83.5944C119.121 83.0088 119.414 82.3256 119.414 81.6424C119.414 80.9592 119.072 80.2272 118.486 79.8856C117.754 79.4952 116.876 79.7392 116.095 80.032C113.85 80.9104 111.801 82.2768 110.142 84.0336C109.41 84.8632 108.678 85.7904 108.482 86.9128Z" fill="#009092"/>
<path d="M105.75 86.5712C107.116 86.4248 108.287 85.4 108.873 84.18C109.507 82.96 109.605 81.5448 109.507 80.1784C109.361 78.568 108.922 77.0064 108.19 75.5912C107.897 75.0544 107.555 74.4688 107.067 74.0784C106.579 73.688 105.896 73.4928 105.31 73.688C104.432 73.9808 104.042 75.0056 103.798 75.884C103.407 77.4944 103.114 79.1048 102.919 80.7152C102.773 82.0328 102.773 83.3992 103.31 84.6192C103.895 85.7904 104.871 86.6688 105.896 86.4736" fill="#009092"/>
<path d="M96.4776 99.552C96.4776 99.552 96.624 99.4544 96.868 99.2104C97.1608 98.9664 97.5024 98.6248 97.9416 98.2832C98.3808 97.8928 98.9664 97.4048 99.6008 96.9656C100.235 96.5264 101.016 96.0872 101.846 95.6968C102.675 95.3064 103.505 95.0624 104.334 94.916C105.115 94.8184 105.847 94.8672 106.433 95.0624C107.018 95.2576 107.409 95.5016 107.702 95.6968C107.946 95.892 108.141 95.9896 108.141 95.9896C108.141 95.9896 107.994 95.8432 107.75 95.5992C107.506 95.404 107.067 95.1112 106.482 94.916C105.896 94.7208 105.164 94.6232 104.334 94.7208C103.505 94.8184 102.675 95.1112 101.797 95.5016C100.967 95.892 100.186 96.3312 99.5032 96.8192C98.82 97.3072 98.2832 97.7464 97.844 98.1856C97.4048 98.576 97.0632 98.9664 96.8192 99.2104C96.5752 99.4056 96.4776 99.552 96.4776 99.552Z" fill="#263238"/>
<path d="M97.3072 98.82C97.3072 98.82 97.356 98.7712 97.5024 98.6736C97.6488 98.5272 97.7952 98.3808 97.9904 98.1856C98.3808 97.7464 99.0152 97.112 99.796 96.3312C101.309 94.8184 103.066 93.208 105.554 91.1096C107.946 89.1088 110.727 86.8152 112.679 85.4488C113.118 85.156 113.509 84.8632 113.899 84.6192C114.241 84.3752 114.582 84.18 114.826 84.0336C115.07 83.8872 115.266 83.7408 115.412 83.6432C115.558 83.5456 115.607 83.4968 115.607 83.4968C115.607 83.4968 115.51 83.5456 115.412 83.5944C115.266 83.692 115.07 83.7896 114.826 83.936C114.582 84.0824 114.241 84.2776 113.899 84.5216C113.558 84.7656 113.118 85.0096 112.679 85.3024C110.874 86.5224 108.482 88.328 105.945 90.4752C103.407 92.6224 101.26 94.672 99.7472 96.2336C99.0152 97.0144 98.4296 97.6488 97.9904 98.1368C97.7952 98.332 97.6488 98.5272 97.5512 98.6736C97.356 98.7712 97.3072 98.82 97.3072 98.82Z" fill="#263238"/>
<path d="M101.309 94.6232C101.309 94.6232 101.504 94.428 101.797 94.0864C102.09 93.7448 102.529 93.208 102.968 92.476C103.456 91.7928 103.944 90.9144 104.481 89.9384C104.725 89.4992 105.31 88.4256 105.945 86.62C106.823 84.2288 107.165 81.8864 107.165 80.1784C107.165 79.7392 107.116 79.3976 107.067 79.056C107.067 78.9096 107.018 78.7144 107.018 78.6168C106.97 78.4704 106.97 78.3728 106.921 78.2264C106.823 77.7872 106.774 77.4944 106.726 77.5432C106.677 77.5432 106.97 78.568 106.97 80.2272C106.97 81.8864 106.579 84.18 105.701 86.5712C105.213 87.8888 104.725 88.9624 104.286 89.8408C103.798 90.8168 103.261 91.6952 102.822 92.3784C102.382 93.0616 101.992 93.6472 101.699 93.9888C101.406 94.428 101.26 94.6232 101.309 94.6232Z" fill="#263238"/>
<path d="M210.962 218.575L156.55 218.331C150.011 218.282 144.741 212.963 144.741 206.424L145.326 69.9792C145.375 63.44 150.694 58.1208 157.234 58.1696L211.646 58.4136C218.185 58.4624 223.455 63.7816 223.455 70.3208L222.87 206.766C222.821 213.354 217.502 218.624 210.962 218.575Z" fill="#263238"/>
<path d="M211.548 63.3424L201.007 63.2936C199.592 63.2936 198.421 64.4648 198.421 65.9776V67.8808C198.421 69.3448 197.25 70.5648 195.834 70.5648L175.29 70.4672C173.874 70.4672 172.752 69.2472 172.752 67.7832V65.88C172.752 64.416 171.63 63.196 170.214 63.196H166.506L157.282 63.1472C152.695 63.1472 148.938 66.8072 148.938 71.3944L148.352 204.57C148.352 209.157 152.012 212.866 156.599 212.914L210.914 213.158C215.501 213.158 219.258 209.498 219.258 204.911L219.844 71.736C219.844 67.1 216.135 63.3912 211.548 63.3424Z" fill="#D4E0E4"/>
<path d="M87.9376 218.575L33.5256 218.331C26.9864 218.282 21.716 212.963 21.716 206.424L22.3016 69.9792C22.3504 63.44 27.6696 58.1208 34.2088 58.1696L88.6208 58.4136C95.16 58.4624 100.43 63.7816 100.43 70.3208L99.8448 206.766C99.796 213.354 94.4768 218.624 87.9376 218.575Z" fill="#455A64"/>
<path d="M89.1576 63.1472L78.6168 63.0984C77.2016 63.0984 76.0304 64.2696 76.0304 65.7824V67.6856C76.0304 69.1496 74.8592 70.3696 73.444 70.3696L52.8992 70.272C51.484 70.272 50.3616 69.052 50.3616 67.588V65.6848C50.3616 64.2208 49.2392 63.0008 47.824 63.0008H44.1152L34.892 62.952C30.3048 62.952 26.5472 66.612 26.5472 71.1992L25.9616 204.374C25.9616 208.962 29.6216 212.67 34.2088 212.719L88.5232 212.963C93.1104 212.963 96.868 209.303 96.868 204.716L97.4536 71.5408C97.4536 66.9048 93.7448 63.1472 89.1576 63.1472Z" fill="#FAFAFA"/>
<path d="M165.774 130.93C165.774 130.93 165.774 142.008 162.992 143.082C155.428 145.961 146.4 145.278 143.228 144.985C142.838 144.741 142.398 144.399 141.91 144.009C141.471 143.667 141.13 143.228 140.837 142.74C140.495 142.154 140.056 141.374 139.91 140.886C139.763 140.251 138.982 140.105 138.738 140.642C138.494 141.178 138.592 143.13 139.812 144.741C139.812 144.741 140.202 145.473 139.373 145.912C138.104 146.546 133.614 148.45 132.882 148.889C132.248 149.279 131.662 149.914 132.394 149.962C133.126 150.011 136.884 149.084 136.884 149.084C136.884 149.084 131.906 150.206 132.102 150.938C132.248 151.426 133.614 151.524 136.835 150.45C136.835 150.45 132.736 151.426 132.346 151.866C131.467 152.939 136.396 151.866 136.396 151.866C132.931 152.646 132.98 152.5 132.98 152.988C132.98 153.33 133.81 153.427 135.713 153.232C137.274 153.086 138.934 153.281 141.325 153.183C141.325 153.183 172.166 158.698 174.948 145.082C176.461 137.762 176.217 135.03 176.51 130.296" fill="#FFBE9D"/>
<path d="M138.494 151.378C138.494 151.475 137.47 151.768 136.152 152.012C134.834 152.305 133.761 152.451 133.761 152.354C133.761 152.256 134.786 151.963 136.103 151.719C137.372 151.475 138.446 151.329 138.494 151.378Z" fill="#EB996E"/>
<path d="M138.299 150.011C138.299 150.109 137.226 150.45 135.859 150.841C134.493 151.231 133.322 151.426 133.322 151.378C133.322 151.28 134.395 150.938 135.762 150.548C137.177 150.158 138.299 149.962 138.299 150.011Z" fill="#EB996E"/>
<path d="M138.153 148.645C138.153 148.742 137.128 149.084 135.859 149.474C134.542 149.865 133.468 150.06 133.468 150.011C133.468 149.914 134.493 149.572 135.762 149.182C137.03 148.791 138.104 148.547 138.153 148.645Z" fill="#EB996E"/>
<path d="M206.522 132.98C206.522 132.98 206.326 131.321 205.204 122.049C204.716 117.998 201.544 115.705 198.616 114.192V114.143L198.372 114.046C194.614 112.191 190.662 111.801 190.662 111.801L180.267 111.654C180.267 111.654 173.045 111.118 167.823 115.998C166.115 117.608 164.31 131.906 164.31 131.906L169.531 133.761L169.482 131.662C169.482 131.662 169.287 135.957 170.702 138.446C172.118 140.934 174.07 144.35 174.07 144.35L171.874 154.745C170.507 158.698 165.969 173.191 167.726 187.49C169.922 205.253 170.605 213.012 170.605 213.012L200.617 213.158C200.617 213.158 206.57 186.611 203.301 163.187C201.837 152.744 197.786 151.622 197.201 149.377L197.835 133.419L206.522 132.98Z" fill="#009092"/>
<path d="M204.618 120.341C204.618 120.39 196.078 120.487 185.538 120.487C174.997 120.487 166.457 120.438 166.457 120.39C166.457 120.341 174.997 120.243 185.538 120.243C196.078 120.194 204.618 120.243 204.618 120.341Z" fill="#FAFAFA"/>
<path d="M166.652 125.416C166.652 125.465 166.359 125.562 166.066 125.562C165.725 125.562 165.481 125.514 165.481 125.416C165.481 125.367 165.774 125.27 166.066 125.27C166.359 125.27 166.652 125.318 166.652 125.416Z" fill="#FAFAFA"/>
<path d="M171.678 125.416C171.678 125.465 171.093 125.562 170.41 125.562C169.726 125.562 169.141 125.514 169.141 125.416C169.141 125.367 169.726 125.27 170.41 125.27C171.093 125.27 171.678 125.318 171.678 125.416Z" fill="#FAFAFA"/>
<path d="M176.705 125.416C176.705 125.465 176.119 125.562 175.436 125.562C174.753 125.562 174.167 125.514 174.167 125.416C174.167 125.367 174.753 125.27 175.436 125.27C176.119 125.27 176.705 125.318 176.705 125.416Z" fill="#FAFAFA"/>
<path d="M181.731 125.367C181.731 125.416 181.146 125.514 180.462 125.514C179.779 125.514 179.194 125.465 179.194 125.367C179.194 125.318 179.779 125.221 180.462 125.221C181.194 125.27 181.731 125.318 181.731 125.367Z" fill="#FAFAFA"/>
<path d="M186.758 125.367C186.758 125.416 186.172 125.514 185.489 125.514C184.806 125.514 184.22 125.465 184.22 125.367C184.22 125.27 184.806 125.221 185.489 125.221C186.221 125.27 186.758 125.318 186.758 125.367Z" fill="#FAFAFA"/>
<path d="M191.833 125.367C191.833 125.416 191.247 125.514 190.564 125.514C189.881 125.514 189.295 125.465 189.295 125.367C189.295 125.318 189.881 125.221 190.564 125.221C191.247 125.27 191.833 125.318 191.833 125.367Z" fill="#FAFAFA"/>
<path d="M196.859 125.367C196.859 125.416 196.274 125.514 195.59 125.514C194.907 125.514 194.322 125.465 194.322 125.367C194.322 125.318 194.907 125.221 195.59 125.221C196.274 125.27 196.859 125.318 196.859 125.367Z" fill="#FAFAFA"/>
<path d="M201.886 125.367C201.886 125.416 201.3 125.514 200.617 125.514C199.934 125.514 199.348 125.465 199.348 125.367C199.348 125.318 199.934 125.221 200.617 125.221C201.3 125.221 201.886 125.318 201.886 125.367Z" fill="#FAFAFA"/>
<path d="M205.643 125.367C205.643 125.416 205.35 125.514 205.058 125.514C204.716 125.514 204.472 125.465 204.472 125.367C204.472 125.318 204.765 125.221 205.058 125.221C205.35 125.221 205.643 125.318 205.643 125.367Z" fill="#FAFAFA"/>
<path d="M193.882 129.613C193.882 129.662 187.343 129.759 179.34 129.759C171.288 129.759 164.798 129.71 164.798 129.613C164.798 129.564 171.337 129.466 179.34 129.466C187.392 129.466 193.882 129.515 193.882 129.613Z" fill="#FAFAFA"/>
<path d="M205.741 129.808C205.741 129.857 203.252 129.954 200.226 129.954C197.201 129.954 194.712 129.906 194.712 129.808C194.712 129.759 197.201 129.662 200.226 129.662C203.301 129.662 205.741 129.71 205.741 129.808Z" fill="#FAFAFA"/>
<path d="M194.322 139.226C194.322 139.275 189.978 139.275 184.659 139.129C179.291 138.982 174.997 138.836 174.997 138.787C174.997 138.738 179.34 138.738 184.659 138.885C189.978 138.982 194.322 139.129 194.322 139.226Z" fill="#FAFAFA"/>
<path d="M202.52 159.869C202.52 159.918 196.762 160.015 189.637 160.015C182.512 160.015 176.754 159.966 176.754 159.869C176.754 159.82 182.512 159.722 189.637 159.722C196.762 159.722 202.52 159.771 202.52 159.869Z" fill="#FAFAFA"/>
<path d="M203.496 171.19C203.496 171.239 195.493 171.337 185.586 171.337C175.68 171.337 167.677 171.288 167.677 171.19C167.677 171.093 175.68 171.044 185.586 171.044C195.444 171.093 203.496 171.142 203.496 171.19Z" fill="#FAFAFA"/>
<path d="M203.789 184.415C203.789 184.464 195.688 184.562 185.684 184.562C175.68 184.562 167.579 184.513 167.579 184.415C167.579 184.366 175.68 184.269 185.684 184.269C195.688 184.269 203.789 184.366 203.789 184.415Z" fill="#FAFAFA"/>
<path d="M203.154 197.006C203.154 197.054 195.542 197.152 186.123 197.152C176.705 197.152 169.092 197.103 169.092 197.006C169.092 196.908 176.705 196.859 186.123 196.859C195.493 196.859 203.154 196.908 203.154 197.006Z" fill="#FAFAFA"/>
<path d="M201.593 207.937C201.593 207.986 194.566 208.083 185.928 208.083C177.29 208.083 170.263 208.034 170.263 207.937C170.263 207.839 177.29 207.79 185.928 207.79C194.566 207.79 201.593 207.839 201.593 207.937Z" fill="#FAFAFA"/>
<path d="M173.386 135.371C173.386 135.42 173.094 135.518 172.801 135.518C172.459 135.518 172.166 135.469 172.166 135.371C172.166 135.322 172.459 135.225 172.801 135.225C173.094 135.225 173.386 135.274 173.386 135.371Z" fill="#FAFAFA"/>
<path d="M177.827 135.371C177.827 135.42 177.339 135.518 176.705 135.518C176.07 135.518 175.582 135.469 175.582 135.371C175.582 135.322 176.07 135.225 176.705 135.225C177.339 135.225 177.827 135.274 177.827 135.371Z" fill="#FAFAFA"/>
<path d="M182.317 135.371C182.317 135.42 181.829 135.518 181.194 135.518C180.56 135.518 180.072 135.469 180.072 135.371C180.072 135.322 180.56 135.225 181.194 135.225C181.78 135.225 182.317 135.274 182.317 135.371Z" fill="#FAFAFA"/>
<path d="M186.758 135.371C186.758 135.42 186.27 135.518 185.635 135.518C185.001 135.518 184.513 135.469 184.513 135.371C184.513 135.322 185.001 135.225 185.635 135.225C186.27 135.225 186.758 135.274 186.758 135.371Z" fill="#FAFAFA"/>
<path d="M191.198 135.371C191.198 135.42 190.71 135.518 190.076 135.518C189.442 135.518 188.954 135.469 188.954 135.371C188.954 135.322 189.442 135.225 190.076 135.225C190.71 135.225 191.198 135.274 191.198 135.371Z" fill="#FAFAFA"/>
<path d="M194.663 135.371C194.663 135.42 194.37 135.518 194.078 135.518C193.736 135.518 193.443 135.469 193.443 135.371C193.443 135.322 193.736 135.225 194.078 135.225C194.419 135.225 194.663 135.274 194.663 135.371Z" fill="#FAFAFA"/>
<path d="M179.145 144.253C179.145 144.302 178.852 144.399 178.559 144.399C178.218 144.399 177.925 144.35 177.925 144.253C177.925 144.155 178.218 144.106 178.51 144.106C178.852 144.155 179.145 144.204 179.145 144.253Z" fill="#FAFAFA"/>
<path d="M184.464 144.253C184.464 144.302 183.878 144.399 183.146 144.399C182.414 144.399 181.829 144.35 181.829 144.302C181.829 144.253 182.414 144.155 183.146 144.155C183.878 144.106 184.464 144.155 184.464 144.253Z" fill="#FAFAFA"/>
<path d="M189.783 144.204C189.783 144.253 189.198 144.35 188.466 144.35C187.734 144.35 187.148 144.302 187.148 144.253C187.148 144.204 187.734 144.106 188.466 144.106C189.198 144.106 189.783 144.155 189.783 144.204Z" fill="#FAFAFA"/>
<path d="M193.687 144.204C193.687 144.253 193.394 144.35 193.102 144.35C192.76 144.35 192.467 144.302 192.467 144.204C192.467 144.155 192.76 144.058 193.053 144.058C193.394 144.058 193.687 144.106 193.687 144.204Z" fill="#FAFAFA"/>
<path d="M173.24 165.774C173.24 165.822 172.947 165.92 172.654 165.92C172.313 165.92 172.069 165.871 172.069 165.774C172.069 165.725 172.362 165.627 172.654 165.627C172.947 165.627 173.24 165.676 173.24 165.774Z" fill="#FAFAFA"/>
<path d="M178.462 165.774C178.462 165.822 177.876 165.92 177.144 165.92C176.412 165.92 175.826 165.871 175.826 165.774C175.826 165.725 176.412 165.627 177.144 165.627C177.876 165.627 178.462 165.676 178.462 165.774Z" fill="#FAFAFA"/>
<path d="M183.683 165.774C183.683 165.822 183.098 165.92 182.366 165.92C181.634 165.92 181.048 165.871 181.048 165.774C181.048 165.725 181.634 165.627 182.366 165.627C183.098 165.627 183.683 165.676 183.683 165.774Z" fill="#FAFAFA"/>
<path d="M188.954 165.774C188.954 165.822 188.368 165.92 187.636 165.92C186.904 165.92 186.318 165.871 186.318 165.774C186.318 165.725 186.904 165.627 187.636 165.627C188.368 165.627 188.954 165.676 188.954 165.774Z" fill="#FAFAFA"/>
<path d="M194.175 165.774C194.175 165.822 193.589 165.92 192.858 165.92C192.126 165.92 191.54 165.871 191.54 165.774C191.54 165.725 192.126 165.627 192.858 165.627C193.589 165.627 194.175 165.676 194.175 165.774Z" fill="#FAFAFA"/>
<path d="M199.397 165.774C199.397 165.822 198.811 165.92 198.079 165.92C197.347 165.92 196.762 165.871 196.762 165.774C196.762 165.725 197.347 165.627 198.079 165.627C198.811 165.627 199.397 165.676 199.397 165.774Z" fill="#FAFAFA"/>
<path d="M203.252 165.774C203.252 165.822 202.959 165.92 202.666 165.92C202.325 165.92 202.032 165.871 202.032 165.774C202.032 165.725 202.325 165.627 202.666 165.627C203.008 165.627 203.252 165.676 203.252 165.774Z" fill="#FAFAFA"/>
<path d="M168.604 178.413C168.604 178.462 168.311 178.559 168.018 178.559C167.677 178.559 167.384 178.51 167.384 178.413C167.384 178.315 167.677 178.266 168.018 178.266C168.311 178.315 168.604 178.364 168.604 178.413Z" fill="#FAFAFA"/>
<path d="M173.826 178.413C173.826 178.462 173.24 178.559 172.508 178.559C171.776 178.559 171.19 178.51 171.19 178.413C171.19 178.315 171.776 178.266 172.508 178.266C173.24 178.315 173.826 178.364 173.826 178.413Z" fill="#FAFAFA"/>
<path d="M179.047 178.413C179.047 178.462 178.462 178.559 177.73 178.559C176.998 178.559 176.412 178.51 176.412 178.413C176.412 178.315 176.998 178.266 177.73 178.266C178.462 178.315 179.047 178.364 179.047 178.413Z" fill="#FAFAFA"/>
<path d="M184.269 178.413C184.269 178.462 183.683 178.559 182.951 178.559C182.219 178.559 181.634 178.51 181.634 178.413C181.634 178.315 182.219 178.266 182.951 178.266C183.683 178.315 184.269 178.364 184.269 178.413Z" fill="#FAFAFA"/>
<path d="M189.539 178.413C189.539 178.462 188.954 178.559 188.222 178.559C187.49 178.559 186.904 178.51 186.904 178.413C186.904 178.315 187.49 178.266 188.222 178.266C188.954 178.315 189.539 178.364 189.539 178.413Z" fill="#FAFAFA"/>
<path d="M194.761 178.413C194.761 178.462 194.175 178.559 193.443 178.559C192.711 178.559 192.126 178.51 192.126 178.413C192.126 178.315 192.711 178.266 193.443 178.266C194.175 178.315 194.761 178.364 194.761 178.413Z" fill="#FAFAFA"/>
<path d="M199.982 178.413C199.982 178.462 199.397 178.559 198.665 178.559C197.933 178.559 197.347 178.51 197.347 178.413C197.347 178.315 197.933 178.266 198.665 178.266C199.397 178.315 199.982 178.364 199.982 178.413Z" fill="#FAFAFA"/>
<path d="M203.203 178.559C203.527 178.559 203.789 178.494 203.789 178.413C203.789 178.332 203.527 178.266 203.203 178.266C202.88 178.266 202.618 178.332 202.618 178.413C202.618 178.494 202.88 178.559 203.203 178.559Z" fill="#FAFAFA"/>
<path d="M169.287 191.784C169.287 191.833 168.994 191.93 168.702 191.93C168.36 191.93 168.116 191.882 168.116 191.784C168.116 191.735 168.409 191.638 168.702 191.638C168.994 191.686 169.287 191.735 169.287 191.784Z" fill="#FAFAFA"/>
<path d="M174.362 191.784C174.362 191.833 173.777 191.93 173.094 191.93C172.41 191.93 171.825 191.882 171.825 191.784C171.825 191.735 172.41 191.638 173.094 191.638C173.777 191.686 174.362 191.735 174.362 191.784Z" fill="#FAFAFA"/>
<path d="M179.389 191.784C179.389 191.833 178.803 191.93 178.12 191.93C177.437 191.93 176.851 191.882 176.851 191.784C176.851 191.735 177.437 191.638 178.12 191.638C178.852 191.686 179.389 191.735 179.389 191.784Z" fill="#FAFAFA"/>
<path d="M184.464 191.784C184.464 191.833 183.878 191.93 183.195 191.93C182.512 191.93 181.926 191.882 181.926 191.784C181.926 191.735 182.512 191.638 183.195 191.638C183.927 191.686 184.464 191.735 184.464 191.784Z" fill="#FAFAFA"/>
<path d="M189.539 191.784C189.539 191.833 188.954 191.93 188.27 191.93C187.587 191.93 187.002 191.882 187.002 191.784C187.002 191.735 187.587 191.638 188.27 191.638C188.954 191.686 189.539 191.735 189.539 191.784Z" fill="#FAFAFA"/>
<path d="M194.566 191.784C194.566 191.833 193.98 191.93 193.297 191.93C192.614 191.93 192.028 191.882 192.028 191.784C192.028 191.735 192.614 191.638 193.297 191.638C194.029 191.686 194.566 191.735 194.566 191.784Z" fill="#FAFAFA"/>
<path d="M199.641 191.784C199.641 191.833 199.055 191.93 198.372 191.93C197.689 191.93 197.103 191.882 197.103 191.784C197.103 191.735 197.689 191.638 198.372 191.638C199.104 191.686 199.641 191.735 199.641 191.784Z" fill="#FAFAFA"/>
<path d="M203.398 191.784C203.398 191.833 203.106 191.93 202.813 191.93C202.471 191.93 202.178 191.882 202.178 191.784C202.178 191.735 202.471 191.638 202.813 191.638C203.106 191.686 203.398 191.735 203.398 191.784Z" fill="#FAFAFA"/>
<path d="M170.995 203.057C170.995 203.106 170.702 203.203 170.41 203.203C170.068 203.203 169.775 203.154 169.775 203.057C169.775 202.959 170.068 202.91 170.41 202.91C170.702 202.91 170.995 202.959 170.995 203.057Z" fill="#FAFAFA"/>
<path d="M176.07 203.057C176.07 203.106 175.485 203.203 174.802 203.203C174.118 203.203 173.533 203.154 173.533 203.057C173.533 202.959 174.118 202.91 174.802 202.91C175.534 202.91 176.07 202.959 176.07 203.057Z" fill="#FAFAFA"/>
<path d="M181.194 203.057C181.194 203.106 180.609 203.203 179.926 203.203C179.242 203.203 178.657 203.154 178.657 203.057C178.657 202.959 179.242 202.91 179.926 202.91C180.609 202.91 181.194 202.959 181.194 203.057Z" fill="#FAFAFA"/>
<path d="M186.318 203.057C186.318 203.106 185.733 203.203 185.05 203.203C184.366 203.203 183.781 203.154 183.781 203.057C183.781 202.959 184.366 202.91 185.05 202.91C185.733 202.91 186.318 202.959 186.318 203.057Z" fill="#FAFAFA"/>
<path d="M191.394 203.057C191.394 203.106 190.808 203.203 190.125 203.203C189.442 203.203 188.856 203.154 188.856 203.057C188.856 202.959 189.442 202.91 190.125 202.91C190.857 202.91 191.394 202.959 191.394 203.057Z" fill="#FAFAFA"/>
<path d="M196.518 203.057C196.518 203.106 195.932 203.203 195.249 203.203C194.566 203.203 193.98 203.154 193.98 203.057C193.98 202.959 194.566 202.91 195.249 202.91C195.932 202.91 196.518 202.959 196.518 203.057Z" fill="#FAFAFA"/>
<path d="M200.324 203.057C200.324 203.106 200.031 203.203 199.738 203.203C199.397 203.203 199.104 203.154 199.104 203.057C199.104 202.959 199.397 202.91 199.738 202.91C200.031 202.91 200.324 202.959 200.324 203.057Z" fill="#FAFAFA"/>
<path d="M193.98 147.62C193.98 147.62 193.687 147.718 193.199 147.766C192.662 147.864 191.93 147.962 191.003 148.059C189.149 148.254 186.562 148.401 183.683 148.352C180.804 148.303 178.218 148.059 176.363 147.815C175.436 147.669 174.704 147.571 174.167 147.474C173.63 147.376 173.386 147.327 173.386 147.278C173.386 147.278 173.679 147.278 174.216 147.327C174.802 147.376 175.534 147.474 176.412 147.571C178.266 147.766 180.853 147.962 183.683 148.059C186.514 148.108 189.1 148.01 191.003 147.864C191.882 147.815 192.614 147.718 193.199 147.669C193.687 147.571 193.98 147.571 193.98 147.62Z" fill="#263238"/>
<path d="M195.2 141.276C195.2 141.276 195.151 141.032 195.102 140.544C195.054 140.007 195.054 139.324 195.005 138.543C194.907 136.786 194.81 134.444 194.663 131.906C194.517 129.32 194.468 126.978 194.419 125.27C194.419 124.44 194.419 123.708 194.419 123.269C194.419 122.781 194.468 122.537 194.468 122.537C194.468 122.537 194.517 122.781 194.566 123.269C194.614 123.806 194.614 124.489 194.663 125.27C194.761 127.026 194.858 129.369 195.005 131.906C195.151 134.493 195.2 136.835 195.249 138.543C195.249 139.373 195.249 140.105 195.249 140.544C195.249 141.032 195.2 141.276 195.2 141.276Z" fill="#263238"/>
<g opacity="0.4">
<path opacity="0.4" d="M178.266 147.864C180.658 147.669 183.049 147.425 185.342 146.742C187.636 146.058 189.832 144.838 191.296 142.984C193.199 140.544 193.541 137.274 193.785 134.2C194.029 130.833 194.126 127.27 194.663 123.61L195.298 140.544V148.352L187.002 151.866L178.266 147.864Z" fill="black"/>
</g>
<path d="M158.698 170.8C169.99 170.8 179.145 161.842 179.145 150.792C179.145 139.742 169.99 130.784 158.698 130.784C147.405 130.784 138.25 139.742 138.25 150.792C138.25 161.842 147.405 170.8 158.698 170.8Z" fill="#263238"/>
<path d="M157.429 168.702C168.721 168.702 177.876 159.744 177.876 148.694C177.876 137.643 168.721 128.686 157.429 128.686C146.136 128.686 136.982 137.643 136.982 148.694C136.982 159.744 146.136 168.702 157.429 168.702Z" fill="#455A64"/>
<path opacity="0.2" d="M158.098 163.318C166.684 162.875 173.303 155.883 172.882 147.701C172.46 139.518 165.158 133.244 156.571 133.686C147.985 134.128 141.366 141.12 141.788 149.303C142.209 157.485 149.512 163.76 158.098 163.318Z" fill="white"/>
<path d="M162.355 151.725C162.355 152.654 162.015 153.453 161.335 154.122C160.655 154.779 159.675 155.187 158.394 155.346V157.25H156.694V155.397C155.855 155.351 155.056 155.204 154.297 154.955C153.538 154.705 152.926 154.399 152.461 154.037L153.396 151.963C153.827 152.28 154.331 152.546 154.909 152.762C155.487 152.977 156.082 153.113 156.694 153.17V150.331C155.889 150.138 155.209 149.923 154.654 149.685C154.099 149.447 153.634 149.101 153.26 148.648C152.886 148.183 152.699 147.571 152.699 146.812C152.699 145.871 153.039 145.066 153.719 144.398C154.41 143.718 155.402 143.304 156.694 143.157V141.27H158.394V143.123C159.788 143.236 160.938 143.582 161.845 144.16L160.995 146.251C160.145 145.763 159.278 145.469 158.394 145.367V148.257C159.187 148.438 159.856 148.648 160.4 148.886C160.955 149.112 161.42 149.458 161.794 149.923C162.168 150.376 162.355 150.977 162.355 151.725ZM155.436 146.676C155.436 146.959 155.544 147.191 155.759 147.373C155.974 147.554 156.286 147.707 156.694 147.832V145.418C156.263 145.52 155.946 145.684 155.742 145.911C155.538 146.126 155.436 146.381 155.436 146.676ZM158.394 153.102C158.802 153.011 159.108 152.864 159.312 152.66C159.516 152.456 159.618 152.212 159.618 151.929C159.618 151.645 159.51 151.413 159.295 151.232C159.091 151.05 158.791 150.892 158.394 150.756V153.102Z" fill="white"/>
<path d="M158.795 163.236C150.402 164.017 142.886 158.112 141.862 149.962C141.862 150.109 141.862 150.255 141.91 150.402C142.74 158.795 150.353 164.895 158.893 164.066C167.433 163.236 173.728 155.818 172.898 147.425C172.898 147.278 172.85 147.132 172.85 146.986C173.386 155.233 167.189 162.455 158.795 163.236Z" fill="#FAFAFA"/>
<path opacity="0.3" d="M155.867 133.761C164.261 132.98 171.776 138.885 172.801 147.034C172.801 146.888 172.801 146.742 172.752 146.595C171.922 138.202 164.31 132.102 155.77 132.931C147.23 133.761 140.934 141.178 141.764 149.572C141.764 149.718 141.813 149.865 141.813 150.011C141.276 141.764 147.474 134.59 155.867 133.761Z" fill="black"/>
<path d="M175.924 140.105C175.924 140.105 175.875 140.056 175.826 139.958C175.778 139.861 175.68 139.714 175.582 139.519C175.485 139.324 175.338 139.129 175.192 138.836C175.046 138.592 174.85 138.25 174.606 137.909C174.362 137.567 174.118 137.226 173.826 136.835C173.533 136.445 173.191 136.054 172.801 135.615C172.459 135.176 171.971 134.786 171.532 134.298C171.288 134.102 171.093 133.81 170.8 133.614C170.507 133.419 170.263 133.175 169.97 132.98C168.848 132.102 167.482 131.321 165.969 130.589C165.578 130.442 165.188 130.296 164.798 130.101C164.602 130.003 164.407 129.954 164.163 129.857C163.968 129.808 163.724 129.71 163.529 129.662C163.09 129.564 162.65 129.418 162.211 129.271C161.772 129.174 161.284 129.076 160.845 129.027C160.406 128.93 159.918 128.93 159.43 128.832C158.942 128.783 158.454 128.734 157.966 128.734C157.478 128.734 156.99 128.734 156.453 128.734C155.965 128.783 155.428 128.832 154.94 128.881C152.89 129.174 150.841 129.71 148.84 130.589C146.888 131.516 145.082 132.687 143.57 134.054C142.057 135.469 140.837 137.03 139.861 138.641C139.617 139.08 139.422 139.47 139.178 139.861L139.031 140.154L138.885 140.446C138.787 140.642 138.69 140.886 138.641 141.081C138.25 141.91 138.055 142.74 137.762 143.521C137.616 143.911 137.567 144.35 137.47 144.741C137.421 145.131 137.274 145.522 137.274 145.912C137.226 146.693 137.079 147.425 137.079 148.157C137.079 148.889 137.03 149.572 137.128 150.206C137.177 150.841 137.226 151.475 137.372 152.012C137.47 152.549 137.567 153.086 137.714 153.574C137.86 154.062 137.958 154.452 138.104 154.842C138.202 155.233 138.348 155.574 138.446 155.818C138.543 156.111 138.641 156.355 138.738 156.55C138.836 156.746 138.885 156.892 138.934 156.99C138.982 157.087 138.982 157.136 138.982 157.136C138.982 157.136 138.934 157.087 138.885 156.99C138.836 156.892 138.787 156.746 138.69 156.55C138.592 156.355 138.494 156.111 138.348 155.818C138.202 155.526 138.055 155.233 137.958 154.842C137.811 154.452 137.714 154.013 137.567 153.574C137.421 153.086 137.323 152.598 137.226 152.012C137.079 151.475 137.03 150.841 136.982 150.206C136.884 149.572 136.884 148.889 136.884 148.157C136.835 147.425 136.982 146.693 137.03 145.912C137.03 145.522 137.177 145.131 137.226 144.741C137.323 144.35 137.372 143.911 137.47 143.521C137.714 142.691 137.958 141.862 138.299 141.032C138.397 140.837 138.494 140.593 138.543 140.398L138.69 140.056L138.836 139.763C139.031 139.373 139.275 138.934 139.519 138.494C140.495 136.884 141.764 135.274 143.277 133.858C144.838 132.492 146.644 131.272 148.645 130.345C150.646 129.418 152.744 128.881 154.794 128.637C155.33 128.588 155.818 128.539 156.355 128.49C156.843 128.49 157.38 128.49 157.868 128.49C158.356 128.49 158.844 128.539 159.332 128.588C159.82 128.637 160.308 128.637 160.747 128.783C161.235 128.881 161.674 128.978 162.114 129.076C162.553 129.174 162.992 129.32 163.431 129.466C163.626 129.515 163.87 129.613 164.066 129.662C164.261 129.759 164.456 129.808 164.7 129.906C165.09 130.052 165.53 130.247 165.92 130.394C167.433 131.126 168.799 131.955 169.97 132.834C170.263 133.078 170.507 133.273 170.8 133.468C171.093 133.663 171.288 133.907 171.532 134.151C172.02 134.59 172.459 135.03 172.801 135.469C173.142 135.908 173.533 136.298 173.826 136.689C174.118 137.079 174.362 137.47 174.558 137.811C174.802 138.153 174.948 138.446 175.094 138.738C175.241 139.031 175.338 139.226 175.485 139.422C175.582 139.617 175.631 139.763 175.729 139.861C175.875 140.056 175.924 140.105 175.924 140.105Z" fill="#FAFAFA"/>
<path d="M170.41 167.238C170.361 167.286 170.019 166.847 169.678 166.262C169.336 165.676 169.141 165.188 169.19 165.139C169.238 165.09 169.58 165.53 169.922 166.115C170.263 166.701 170.458 167.238 170.41 167.238Z" fill="#263238"/>
<path d="M195.054 132.98C195.054 132.98 195.249 144.741 192.467 145.814C184.903 148.694 175.875 148.01 172.703 147.718C172.313 147.474 171.874 147.132 171.386 146.742C170.946 146.4 170.605 145.961 170.312 145.473C169.97 144.887 169.531 144.106 169.385 143.618C169.238 142.984 168.458 142.838 168.214 143.374C167.97 143.911 168.067 145.863 169.287 147.474C169.287 147.474 169.678 148.206 168.848 148.645C167.579 149.279 163.09 151.182 162.358 151.622C161.723 152.012 161.138 152.646 161.87 152.695C162.602 152.744 166.359 151.817 166.359 151.817C166.359 151.817 161.382 152.939 161.577 153.671C161.723 154.159 163.09 154.257 166.31 153.183C166.31 153.183 162.211 154.159 161.821 154.598C160.942 155.672 165.871 154.598 165.871 154.598C162.406 155.379 162.455 155.233 162.455 155.721C162.455 156.062 163.285 156.16 165.188 155.965C166.75 155.818 168.409 156.014 170.8 155.916C170.8 155.916 201.642 161.43 204.423 147.815C205.936 140.495 205.692 137.762 205.985 133.029" fill="#FFBE9D"/>
<path d="M167.97 154.159C167.97 154.257 166.945 154.55 165.627 154.794C164.31 155.086 163.236 155.233 163.236 155.135C163.236 155.038 164.261 154.745 165.578 154.501C166.847 154.208 167.921 154.062 167.97 154.159Z" fill="#EB996E"/>
<path d="M167.774 152.793C167.774 152.89 166.701 153.232 165.334 153.622C163.968 154.013 162.797 154.208 162.797 154.159C162.797 154.062 163.87 153.72 165.237 153.33C166.603 152.939 167.774 152.695 167.774 152.793Z" fill="#EB996E"/>
<path d="M167.579 151.378C167.579 151.475 166.554 151.817 165.286 152.207C163.968 152.598 162.894 152.793 162.894 152.744C162.894 152.646 163.919 152.305 165.188 151.914C166.506 151.524 167.579 151.28 167.579 151.378Z" fill="#EB996E"/>
<path d="M177.29 85.5952C175.924 86.2784 174.509 89.792 174.558 91.3048C174.655 92.8664 175.046 94.428 174.606 95.892C174.265 96.9656 173.533 97.8928 173.338 99.0152C173.142 100.089 173.484 101.114 173.874 102.138C174.265 103.114 174.753 104.139 174.802 105.164C174.899 106.238 174.46 107.409 173.533 107.897C177.925 108.336 182.366 108.141 186.66 107.311" fill="#263238"/>
<path d="M179.974 113.314C180.267 110.434 180.462 107.409 180.462 107.409C180.462 107.409 176.802 106.433 176.51 101.504C176.217 96.8192 178.022 86.2296 178.022 86.2296C183.586 84.5704 189.783 86.6688 193.15 91.3048L190.515 114.68C190.222 117.413 187.636 119.316 184.708 118.974C181.878 118.535 179.73 116.046 179.974 113.314Z" fill="#FFBE9D"/>
<path d="M177.681 94.5256C177.632 94.8672 177.876 95.16 178.218 95.2088C178.559 95.2576 178.852 95.0624 178.901 94.7208C178.95 94.3792 178.706 94.0864 178.364 94.0376C178.022 93.9888 177.73 94.184 177.681 94.5256Z" fill="#263238"/>
<path d="M177.681 93.8424C177.73 93.94 178.266 93.6472 178.901 93.696C179.584 93.7448 180.023 94.1352 180.121 94.0864C180.17 94.0376 180.072 93.8912 179.877 93.7448C179.682 93.5496 179.34 93.4032 178.901 93.3544C178.462 93.3056 178.12 93.452 177.925 93.5496C177.73 93.6472 177.632 93.7936 177.681 93.8424Z" fill="#263238"/>
<path d="M184.659 95.4528C184.61 95.7944 184.854 96.0872 185.196 96.136C185.538 96.1848 185.83 95.9896 185.879 95.648C185.928 95.3064 185.684 95.0136 185.342 94.9648C185.001 94.8672 184.708 95.1112 184.659 95.4528Z" fill="#263238"/>
<path d="M184.659 94.7696C184.708 94.8672 185.245 94.5744 185.879 94.6232C186.562 94.672 187.002 95.0624 187.099 95.0136C187.148 94.9648 187.099 94.8184 186.855 94.672C186.66 94.4768 186.318 94.3304 185.879 94.2816C185.44 94.2328 185.098 94.3792 184.903 94.4768C184.708 94.5744 184.61 94.7208 184.659 94.7696Z" fill="#263238"/>
<path d="M181.731 99.5032C181.731 99.4544 181.341 99.3568 180.658 99.2104C180.511 99.1616 180.316 99.1128 180.316 99.0152C180.267 98.8688 180.365 98.7224 180.462 98.5272C180.658 98.1368 180.853 97.6976 181.097 97.2584C181.975 95.4528 182.658 93.9888 182.561 93.9888C182.512 93.94 181.731 95.3552 180.853 97.1608C180.658 97.6 180.414 98.0392 180.218 98.4296C180.121 98.6248 180.023 98.82 180.072 99.1128C180.121 99.2592 180.218 99.3568 180.316 99.4056C180.414 99.4544 180.511 99.4544 180.609 99.4544C181.292 99.5032 181.731 99.552 181.731 99.5032Z" fill="#263238"/>
<path d="M180.511 107.36C180.511 107.36 183.732 107.897 187.197 106.286C187.197 106.286 185.294 109.458 180.462 108.531L180.511 107.36Z" fill="#EB996E"/>
<path d="M181.878 101.114C182.17 100.821 182.61 100.674 183 100.772C183.293 100.821 183.586 101.016 183.732 101.26C183.878 101.504 183.878 101.846 183.683 102.041C183.488 102.285 183.098 102.285 182.805 102.187C182.512 102.041 182.219 101.846 182.024 101.602C181.975 101.553 181.878 101.455 181.829 101.406C181.78 101.309 181.78 101.211 181.878 101.114Z" fill="#EB996E"/>
<path d="M183.634 100.138C183.537 100.138 183.439 100.87 182.805 101.309C182.122 101.748 181.39 101.602 181.341 101.699C181.341 101.748 181.487 101.846 181.829 101.894C182.17 101.943 182.61 101.894 183.049 101.602C183.439 101.309 183.683 100.918 183.732 100.626C183.781 100.333 183.683 100.138 183.634 100.138Z" fill="#263238"/>
<path d="M190.906 96.4288C191.442 96.38 191.979 96.4288 192.467 96.6728C192.955 96.9168 193.346 97.3072 193.492 97.844C193.638 98.332 193.59 98.9176 193.346 99.4056C193.102 99.8936 192.76 100.284 192.321 100.626C192.028 100.87 191.686 101.065 191.296 101.162C190.906 101.26 190.515 101.162 190.222 100.87" fill="#FFBE9D"/>
<path d="M190.906 99.6008C190.857 99.6008 191.052 99.9424 191.54 99.8448C191.784 99.796 192.028 99.6496 192.174 99.4056C192.321 99.1616 192.467 98.9176 192.516 98.576C192.565 98.2344 192.565 97.8928 192.37 97.6488C192.223 97.4048 191.979 97.2096 191.735 97.1608C191.247 97.112 191.052 97.4048 191.101 97.4536C191.15 97.5024 191.345 97.356 191.638 97.4536C191.93 97.5512 192.174 97.9904 192.077 98.5272C191.979 99.064 191.735 99.5032 191.394 99.6008C191.15 99.6984 190.906 99.552 190.906 99.6008Z" fill="#EB996E"/>
<path d="M199.494 102.09C199.69 100.674 199.592 99.2104 198.909 97.9904C198.421 97.0632 197.591 96.2824 197.152 95.3552C196.664 94.2328 196.713 93.0128 196.518 91.7928C196.078 88.9136 194.273 86.2784 191.735 84.8144C189.344 83.448 185.684 82.228 183 84.0824C182.512 83.7896 181.878 83.5944 181.243 83.5944C180.121 83.5456 178.998 83.9848 178.071 84.6192C176.9 85.4488 175.973 86.5712 175.534 87.9376C175.094 89.2552 175.094 90.8168 175.68 92.0856C175.826 92.4272 176.119 92.8176 176.461 92.8664C176.754 92.9152 177.046 92.72 177.29 92.5736C178.95 91.4024 180.706 89.6456 182.17 87.7424C183.83 89.9872 185.977 91.8904 188.417 93.2568C189.051 93.5984 189.734 93.9888 190.076 94.6232C190.418 95.2576 190.369 96.0384 190.32 96.7216C190.027 100.186 189.783 103.602 189.49 107.067C190.662 107.506 191.93 107.702 193.199 107.702C193.492 107.702 193.785 107.653 193.98 107.506C194.517 107.067 194.175 105.994 194.81 105.75C194.81 106.579 195.249 107.409 195.981 107.848C196.713 108.287 197.64 108.238 198.372 107.799C198.226 107.458 198.079 107.165 197.982 106.823C198.128 106.677 198.226 106.433 198.323 106.189C198.811 104.822 199.299 103.505 199.494 102.09Z" fill="#263238"/>
<path d="M192.906 92.8176C192.906 92.8176 192.76 92.9152 192.418 93.1104C192.077 93.2568 191.54 93.452 190.906 93.5496C189.588 93.7936 187.636 93.7448 185.83 92.72C184.025 91.6952 182.902 90.0848 182.414 88.8648C182.17 88.2304 182.024 87.6936 181.975 87.352C181.926 86.9616 181.926 86.7664 181.926 86.7664C181.975 86.7664 182.024 87.596 182.561 88.7672C183.098 89.9384 184.171 91.5 185.928 92.476C187.685 93.452 189.588 93.5496 190.857 93.3544C192.174 93.1592 192.906 92.7688 192.906 92.8176Z" fill="#263238"/>
<path d="M174.509 104.774C174.509 104.774 174.314 104.53 174.07 104.09C173.826 103.651 173.435 102.968 173.094 102.09C172.801 101.211 172.557 100.04 172.85 98.7712C172.947 98.4784 173.045 98.1368 173.191 97.844C173.338 97.5512 173.533 97.2584 173.728 97.0144C173.923 96.7216 174.07 96.4288 174.118 96.136C174.167 95.7944 174.167 95.4528 174.167 95.1112C174.118 93.696 174.118 92.2808 174.265 91.0608C174.46 89.8408 174.802 88.7184 175.241 87.8888C175.68 87.0592 176.217 86.4736 176.656 86.132C176.851 85.9856 177.046 85.888 177.193 85.8392C177.339 85.7904 177.388 85.7416 177.388 85.7904C177.388 85.7904 177.144 85.9368 176.705 86.2784C176.314 86.62 175.826 87.2056 175.387 88.0352C174.948 88.8648 174.606 89.9384 174.46 91.1584C174.314 92.3784 174.314 93.7448 174.362 95.16C174.362 95.5016 174.362 95.892 174.314 96.2336C174.265 96.5752 174.07 96.9168 173.874 97.2096C173.679 97.5024 173.484 97.7464 173.338 98.0392C173.191 98.332 173.094 98.6248 172.996 98.9176C172.703 100.089 172.898 101.211 173.191 102.09C173.484 102.968 173.826 103.651 174.07 104.139C174.362 104.481 174.509 104.774 174.509 104.774Z" fill="#263238"/>
<path d="M194.224 107.311C194.224 107.311 194.126 107.262 193.98 107.116C193.834 106.97 193.638 106.774 193.443 106.482C193.053 105.847 192.711 104.774 192.809 103.456C192.906 102.138 193.541 100.674 194.029 99.064C194.273 98.2344 194.468 97.356 194.468 96.4288C194.468 95.5016 194.175 94.5744 193.59 93.7936C193.004 93.0128 192.272 92.4272 191.491 91.8416C190.759 91.3048 189.978 90.768 189.295 90.28C187.929 89.2552 186.758 88.2304 185.83 87.3032C184.903 86.376 184.171 85.5952 183.732 85.0584C183.488 84.7656 183.293 84.5704 183.195 84.424C183.098 84.2776 183 84.18 183 84.18C183 84.18 183.098 84.2288 183.195 84.3752C183.342 84.5216 183.537 84.7168 183.781 84.9608C184.269 85.4976 185.001 86.2296 185.977 87.108C186.904 87.9864 188.075 89.0112 189.442 90.036C190.125 90.5728 190.857 91.0608 191.638 91.5976C192.37 92.1344 193.15 92.7688 193.785 93.5984C194.419 94.428 194.712 95.404 194.712 96.38C194.712 97.356 194.517 98.2344 194.273 99.064C193.736 100.723 193.15 102.138 193.004 103.407C192.858 104.676 193.15 105.75 193.541 106.335C193.882 107.067 194.224 107.311 194.224 107.311Z" fill="#455A64"/>
<path d="M195.786 92.6712C195.786 92.6712 195.59 92.6224 195.249 92.476C194.907 92.3296 194.468 92.1344 193.882 91.8416C192.76 91.3048 191.247 90.4264 189.686 89.304C188.124 88.1816 186.855 86.9616 185.977 86.0832C185.538 85.644 185.196 85.2536 184.952 84.9608C184.708 84.668 184.61 84.5216 184.61 84.5216C184.659 84.4728 185.147 85.0584 186.074 85.9368C186.953 86.8152 188.27 87.9376 189.832 89.1088C191.394 90.2312 192.858 91.1096 193.98 91.6952C195.102 92.3296 195.834 92.6224 195.786 92.6712Z" fill="#455A64"/>
<path d="M175.973 91.3536C175.973 91.3048 176.412 91.012 177.046 90.4752C177.681 89.9384 178.559 89.1576 179.389 88.1328C180.218 87.1568 180.804 86.132 181.194 85.4C181.585 84.668 181.78 84.18 181.829 84.18C181.878 84.18 181.731 84.7168 181.341 85.4976C180.999 86.2784 180.365 87.3032 179.535 88.328C178.706 89.3528 177.827 90.1336 177.095 90.6216C176.461 91.1584 175.973 91.3536 175.973 91.3536Z" fill="#455A64"/>
<path d="M52.3136 91.6464C52.46 92.0368 52.3136 92.5248 51.972 92.8176C51.6304 93.1104 51.1424 93.1592 50.752 92.964C50.02 92.6224 49.9224 91.5976 50.0688 90.8168C50.2152 90.036 50.4592 89.1576 50.1176 88.4256C49.8736 87.8888 49.288 87.4984 48.8488 87.0592C48.068 86.2784 47.6776 85.156 47.824 84.1312C47.9704 83.0576 48.8 82.0816 49.8248 81.7888C50.8984 81.496 52.1672 81.7888 52.948 81.008C53.5336 80.4224 53.5336 79.544 53.9728 78.8608C54.656 77.836 56.12 77.6408 57.34 77.7872C58.56 77.9336 59.8288 78.324 61 77.9824C61.976 77.7384 62.8056 77.0064 63.7328 76.5672C65.7824 75.5912 68.3688 76.0792 69.9304 77.6896C71.492 79.3 71.8824 81.9352 70.8576 83.936C70.516 84.668 69.784 86.7176 67.4416 86.7176" fill="#263238"/>
<path d="M51.8256 83.0576L51.8744 84.7168L52.216 109.41C52.2648 112.289 54.7536 114.534 57.828 114.485C60.9512 114.436 63.44 111.996 63.44 109.117C63.44 106.091 63.5376 102.87 63.5376 102.87C63.5376 102.87 67.4416 102.236 68.2712 97.112C68.6616 94.5744 68.564 90.4264 68.32 87.0104C68.1248 83.936 65.4408 81.6424 62.3664 81.984L51.8256 83.0576Z" fill="#B78876"/>
<path d="M67.2464 89.8896C67.2464 90.2312 66.9536 90.524 66.612 90.5728C66.2704 90.5728 65.9288 90.3288 65.9288 89.9872C65.9288 89.6456 66.2216 89.3528 66.5632 89.304C66.9048 89.2552 67.1976 89.548 67.2464 89.8896Z" fill="#263238"/>
<path d="M67.3928 89.1576C67.2952 89.2552 66.8072 88.8648 66.124 88.8648C65.4408 88.8648 64.904 89.2064 64.8064 89.1088C64.7576 89.06 64.8552 88.9136 65.0992 88.7672C65.3432 88.6208 65.6848 88.4256 66.124 88.4256C66.5632 88.4256 66.9536 88.572 67.1488 88.7672C67.344 88.9624 67.3928 89.1088 67.3928 89.1576Z" fill="#263238"/>
<path d="M60.1703 89.8896C60.1703 90.2312 59.8775 90.524 59.5359 90.5728C59.1943 90.5728 58.8527 90.3288 58.8527 89.9872C58.8527 89.6456 59.1455 89.3528 59.4871 89.304C59.8775 89.2552 60.1703 89.548 60.1703 89.8896Z" fill="#263238"/>
<path d="M60.4143 89.2552C60.3167 89.3528 59.8287 88.9624 59.1455 88.9624C58.4623 88.9624 57.9255 89.304 57.8279 89.2064C57.7791 89.1576 57.8767 89.0112 58.1207 88.8648C58.3647 88.7184 58.7063 88.5232 59.1455 88.5232C59.5847 88.5232 59.9751 88.6696 60.1703 88.8648C60.4143 89.06 60.4631 89.2552 60.4143 89.2552Z" fill="#263238"/>
<path d="M63.0008 94.5256C63.0008 94.4768 63.4399 94.428 64.1232 94.3304C64.3184 94.3304 64.4648 94.2816 64.5136 94.1352C64.5624 93.9888 64.4648 93.7936 64.416 93.5984C64.2696 93.1592 64.0744 92.72 63.8791 92.232C63.1471 90.28 62.6103 88.6696 62.6591 88.6208C62.7567 88.572 63.3911 90.1336 64.1232 92.0856C64.3184 92.5736 64.4648 93.0128 64.6112 93.452C64.66 93.6472 64.8064 93.8912 64.7088 94.1352C64.66 94.2816 64.5136 94.3792 64.416 94.3792C64.3184 94.428 64.2208 94.428 64.1232 94.428C63.4399 94.5256 63.0008 94.5256 63.0008 94.5256Z" fill="#263238"/>
<path d="M63.4887 102.87C63.4887 102.87 60.0727 103.114 56.6567 101.065C56.6567 101.065 58.3159 104.578 63.4399 104.09L63.4887 102.87Z" fill="#A36957"/>
<path d="M60.9024 95.0136C61 95.0136 61 95.7944 61.6832 96.3312C62.3176 96.868 63.1471 96.7704 63.1471 96.9168C63.1471 96.9656 62.952 97.0632 62.6104 97.0632C62.2688 97.0632 61.7808 96.9656 61.3904 96.624C61 96.2824 60.8047 95.8432 60.8047 95.5504C60.8047 95.16 60.8536 95.0136 60.9024 95.0136Z" fill="#263238"/>
<path d="M60.6096 86.5224C60.5608 86.7176 59.8288 86.62 58.9992 86.7176C58.1696 86.8152 57.4864 87.0592 57.3888 86.864C57.34 86.7664 57.4376 86.62 57.7304 86.4248C57.9744 86.2296 58.4136 86.0832 58.9016 85.9856C59.3896 85.9368 59.8776 86.0344 60.1704 86.132C60.512 86.2784 60.6584 86.4248 60.6096 86.5224Z" fill="#263238"/>
<path d="M67.1 87.108C66.9536 87.2544 66.5144 87.108 65.9288 87.108C65.3432 87.0592 64.8552 87.2056 64.7576 87.0592C64.7088 86.9616 64.8064 86.8152 65.0016 86.6688C65.1968 86.5224 65.5872 86.376 65.9776 86.4248C66.368 86.4248 66.7096 86.5712 66.9536 86.7664C67.1 86.864 67.1488 87.0104 67.1 87.108Z" fill="#263238"/>
<path d="M68.4664 84.7168C68.4664 84.7168 65.88 86.0832 62.3664 84.4728C60.0728 83.3992 57.3888 82.96 56.852 83.3992C56.2664 83.8872 56.2176 86.2296 54.0216 86.9616C54.0216 86.9616 54.3144 91.4024 52.5576 91.3048C50.8008 91.2072 51.0448 82.2768 51.0448 82.2768L55.9248 82.0328L60.6096 81.008L65.0992 81.496L68.564 82.3256L68.4664 84.7168Z" fill="#263238"/>
<path d="M50.8495 81.008C50.8007 80.9592 51.2399 80.764 51.7279 80.9592C52.2159 81.1544 52.4599 81.5448 52.3623 81.5448C52.3135 81.5936 52.0207 81.3496 51.6303 81.2032C51.2399 81.0568 50.8495 81.1056 50.8495 81.008Z" fill="#263238"/>
<path d="M52.3136 79.4952C52.4112 79.4952 52.3624 80.032 52.46 80.6176C52.5576 81.2032 52.8016 81.6424 52.7528 81.6912C52.704 81.74 52.3136 81.3008 52.216 80.6664C52.1184 80.032 52.2648 79.4952 52.3136 79.4952Z" fill="#263238"/>
<path d="M52.8015 89.4992C52.7039 89.4504 49.6295 88.4256 49.5807 91.5976C49.5319 94.8184 52.7527 94.184 52.7527 94.0864C52.8015 93.9888 52.8015 89.4992 52.8015 89.4992Z" fill="#B78876"/>
<path d="M51.8255 92.8664C51.8255 92.8664 51.7767 92.9152 51.6791 92.964C51.5815 93.0128 51.4351 93.0128 51.2399 92.964C50.8983 92.8176 50.6055 92.2808 50.6055 91.6952C50.6055 91.4024 50.6543 91.1096 50.7519 90.9144C50.8495 90.6704 50.9959 90.524 51.1911 90.4752C51.3375 90.4264 51.4839 90.524 51.5327 90.6216C51.5815 90.7192 51.5327 90.768 51.5815 90.768C51.5815 90.768 51.6303 90.7192 51.6303 90.5728C51.6303 90.524 51.5815 90.4264 51.4839 90.3776C51.3863 90.3288 51.2887 90.28 51.1911 90.28C50.9471 90.28 50.7031 90.524 50.6055 90.768C50.4591 91.012 50.4103 91.3536 50.4103 91.6464C50.4103 92.2808 50.7519 92.9152 51.1911 93.0616C51.4351 93.1104 51.5815 93.0616 51.6791 92.964C51.8255 92.964 51.8255 92.8664 51.8255 92.8664Z" fill="#A36957"/>
<path d="M66.6608 79.4464C66.6608 79.4464 66.7584 79.3488 67.0024 79.3C67.2464 79.2512 67.588 79.2024 68.0272 79.3976C68.2224 79.4952 68.4176 79.6416 68.6128 79.8856C68.7592 80.1296 68.808 80.4224 68.7592 80.764C68.7104 81.1056 68.564 81.3984 68.2712 81.6912C68.0272 81.9352 67.6368 82.1304 67.2464 82.228C66.4656 82.4232 65.4896 82.1792 64.7576 81.5936C64.3672 81.3008 64.0256 80.9592 63.8304 80.4712C63.5864 80.032 63.44 79.4464 63.6352 78.9096C63.7816 78.3728 64.2696 77.9336 64.7576 77.7384C65.2944 77.4944 65.8312 77.3968 66.4168 77.4456C67.588 77.5432 68.7104 78.1288 69.4424 79.1536C69.784 79.6416 70.028 80.276 70.028 80.8616C70.0768 81.4472 69.9304 82.0816 69.6376 82.5696C69.3936 83.1064 69.0032 83.5456 68.564 83.8872C68.1248 84.2288 67.588 84.424 67.1 84.5704C66.0752 84.8632 65.0504 84.8144 64.1232 84.6192C63.2448 84.3264 62.464 83.936 61.732 83.692C61 83.448 60.3168 83.2528 59.7312 83.1552C59.1456 83.0576 58.6088 83.1064 58.1696 83.1064C57.2912 83.204 56.852 83.3992 56.852 83.3504C56.852 83.3504 56.9496 83.3016 57.1936 83.204C57.3888 83.1064 57.7304 83.0576 58.1696 82.96C58.6088 82.9112 59.1456 82.8624 59.78 82.96C60.4144 83.0576 61.0976 83.204 61.8296 83.448C62.5616 83.692 63.3424 84.0824 64.2208 84.3264C65.0992 84.5216 66.0752 84.5216 67.0512 84.2288C68.0272 83.9848 68.9544 83.3504 69.4424 82.3256C69.9304 81.3496 69.9304 80.0808 69.1984 79.1536C68.5152 78.2264 67.4416 77.6408 66.368 77.5432C65.8312 77.4944 65.2944 77.592 64.8064 77.7872C64.3184 77.9824 63.928 78.3728 63.8304 78.812C63.684 79.2512 63.7816 79.788 64.0256 80.1784C64.2208 80.6176 64.5624 80.9592 64.904 81.2032C65.5872 81.7888 66.4656 81.984 67.1976 81.8376C67.588 81.74 67.8808 81.5936 68.1248 81.3984C68.3688 81.1544 68.5152 80.8616 68.564 80.5688C68.6128 80.276 68.564 79.9832 68.4176 79.788C68.2712 79.5928 68.076 79.3976 67.9296 79.3C67.5392 79.1048 67.1976 79.1048 67.0024 79.1536C66.7584 79.3976 66.6608 79.4464 66.6608 79.4464Z" fill="#455A64"/>
<path d="M81.0568 212.914L77.1528 160.698L44.8472 159.722V212.719L62.3176 212.817L62.9032 173.24L65.1968 212.817L81.0568 212.914Z" fill="#263238"/>
<path d="M64.3183 160.698C64.3671 160.698 64.4159 161.43 64.4647 162.602C64.5135 163.773 64.5623 165.383 64.5623 167.189C64.5623 168.067 64.5623 168.946 64.5623 169.726C64.5623 170.507 64.4647 171.239 64.2207 171.776C63.9767 172.313 63.5863 172.703 63.2935 172.85C63.0007 172.996 62.8055 172.996 62.8055 172.996C62.8055 172.947 63.0007 172.947 63.2447 172.752C63.4887 172.557 63.8303 172.215 64.0255 171.678C64.2207 171.142 64.3183 170.458 64.2695 169.678C64.2695 168.897 64.2207 168.018 64.2207 167.14C64.1719 165.334 64.1719 163.724 64.2207 162.553C64.2695 161.43 64.2695 160.698 64.3183 160.698Z" fill="#455A64"/>
<path d="M61.7808 161.967C61.8296 162.016 61.5368 162.162 61.5368 162.553C61.5368 162.748 61.5856 162.943 61.7808 163.09C61.9272 163.236 62.22 163.187 62.464 163.041C62.8056 162.797 62.7568 162.406 62.5128 162.211C62.2688 162.016 61.976 162.016 61.8296 162.065V161.918C61.976 161.967 62.0248 162.016 62.0248 162.065C62.0248 162.065 61.9272 162.065 61.7808 162.065L61.6344 162.016L61.7808 161.918C61.9272 161.772 62.3176 161.723 62.6592 161.967C62.8056 162.114 63.0008 162.309 63.0008 162.553C63.0008 162.846 62.8544 163.09 62.6592 163.236C62.3664 163.48 61.9272 163.48 61.6344 163.285C61.3416 163.041 61.2928 162.748 61.3416 162.504C61.3904 162.26 61.488 162.114 61.5856 162.016C61.6832 161.967 61.7808 161.918 61.7808 161.967Z" fill="#455A64"/>
<path d="M107.262 152.354C109.654 152.5 112.045 152.646 113.509 152.744C115.9 152.89 116.632 152.646 116.632 152.305C116.632 151.524 111.508 151.622 111.898 151.036C111.898 151.036 116.486 152.061 116.632 151.475C116.925 150.255 111.801 149.767 111.801 149.767C114.973 150.938 116.827 150.89 116.73 150.06C116.681 149.523 111.801 148.401 111.801 148.401C111.801 148.401 115.558 149.474 116.242 149.426C116.974 149.426 117.071 148.791 116.632 148.206C116.144 147.62 110.337 145.522 109.41 145.18C108.482 144.838 109.019 143.814 109.019 143.814C109.946 141.862 110.434 140.446 110.239 139.91C110.044 139.373 109.214 139.47 109.068 140.105C108.922 140.593 108.482 141.374 108.092 141.959C107.799 142.447 107.409 142.838 106.97 143.179C106.433 143.57 105.994 143.862 105.603 144.106L101.992 144.741L102.822 151.231L107.262 152.354Z" fill="#B78876"/>
<path d="M109.214 150.109C109.166 150.158 109.019 149.914 108.678 149.572C108.336 149.279 107.799 148.889 107.116 148.694L106.774 148.596L107.067 148.401C107.116 148.352 107.214 148.303 107.262 148.254C107.897 147.815 108.336 147.23 108.58 146.79C108.824 146.351 108.922 146.01 108.97 146.058C109.019 146.058 108.97 146.4 108.775 146.888C108.58 147.376 108.141 148.059 107.409 148.547C107.311 148.596 107.262 148.645 107.165 148.694L107.116 148.401C107.897 148.596 108.434 149.035 108.775 149.426C109.117 149.816 109.214 150.109 109.214 150.109Z" fill="#A36957"/>
<path d="M115.949 149.474C115.9 149.572 114.924 149.182 113.655 148.791C112.386 148.401 111.362 148.108 111.362 148.059C111.362 147.962 112.435 148.108 113.753 148.498C115.022 148.889 115.998 149.426 115.949 149.474Z" fill="#A36957"/>
<path d="M115.9 150.597C115.851 150.694 114.973 150.45 113.802 150.158C112.679 149.865 111.752 149.67 111.752 149.621C111.752 149.523 112.728 149.572 113.899 149.865C115.07 150.158 115.949 150.548 115.9 150.597Z" fill="#A36957"/>
<path d="M56.852 108.238C56.852 108.287 56.364 108.043 55.7784 108.385C55.4856 108.531 55.1928 108.873 54.9976 109.263C54.9 109.458 54.8024 109.702 54.7536 109.946C54.7048 110.093 54.7048 110.19 54.656 110.337C54.6072 110.483 54.6072 110.63 54.4608 110.776C54.412 110.874 54.2656 110.922 54.168 110.922C54.0704 110.922 53.9728 110.922 53.8752 110.874C53.7288 110.825 53.6312 110.776 53.4848 110.678C53.2408 110.581 53.0456 110.434 52.8016 110.337C52.4112 110.142 52.0208 109.946 51.6304 109.751C50.996 109.41 50.6056 109.166 50.6056 109.117C50.6056 109.068 51.0448 109.214 51.728 109.507C52.1184 109.654 52.5088 109.849 52.8992 110.044C53.1432 110.142 53.3384 110.239 53.5824 110.386C53.68 110.434 53.8264 110.483 53.924 110.532C54.0216 110.581 54.0704 110.581 54.1192 110.532C54.2168 110.386 54.2656 110.093 54.3632 109.849C54.4608 109.605 54.5096 109.361 54.656 109.117C54.9 108.678 55.2416 108.287 55.5832 108.141C55.9248 107.994 56.2664 107.994 56.5104 108.043C56.8032 108.141 56.9008 108.238 56.852 108.238Z" fill="#263238"/>
<path d="M63.684 108.873C63.7328 108.922 62.6104 109.849 61.1464 110.971L60.9512 111.118L60.9024 110.874C60.9024 110.776 60.8536 110.678 60.8536 110.532C60.7072 109.556 60.3656 108.726 59.9264 108.287C59.4872 107.848 59.048 107.799 59.048 107.75C59.048 107.702 59.536 107.702 60.0728 108.141C60.3168 108.336 60.6096 108.678 60.8048 109.117C61 109.507 61.0976 109.995 61.1952 110.483C61.1952 110.581 61.244 110.727 61.244 110.825L61 110.727C62.464 109.654 63.6352 108.824 63.684 108.873Z" fill="#263238"/>
<path d="M103.261 143.667L101.943 143.618C100.04 143.862 94.6232 143.277 90.3776 142.301C86.0832 141.276 86.2784 140.69 85.6928 139.91C85.156 139.129 84.18 134.883 84.18 134.883C84.18 134.883 83.0576 128.002 80.7152 120.78C78.3728 113.558 73.0536 111.752 73.0536 111.752C72.6144 111.508 72.3216 111.459 72.3216 111.459C71.8824 111.215 65.88 109.312 63.684 109.166V104.969C59.9264 105.31 58.0232 109.751 58.0232 109.751C56.4616 105.994 50.6544 105.457 50.6544 105.457L50.752 109.312C48.8976 109.41 46.0672 109.898 44.652 110.434C41.4312 111.606 39.8696 112.728 37.1856 114.875C34.5016 117.022 33.672 121.561 33.672 125.465L45.5304 130.052V130.345L45.384 144.058L44.8472 159.722L77.2016 160.698L75.5424 147.376C76.4696 148.986 79.6904 151.134 86.132 152.793C93.3544 154.647 104.139 153.086 104.139 153.086L103.261 143.667Z" fill="#009092"/>
<path d="M60.756 117.608C60.756 117.559 61 117.462 61.2928 117.706C61.4392 117.803 61.5856 118.047 61.5368 118.34C61.5368 118.633 61.244 118.877 60.9512 118.926C60.6584 118.974 60.3168 118.877 60.1704 118.633C60.024 118.389 60.0728 118.145 60.1216 117.998C60.268 117.657 60.5608 117.608 60.5608 117.657C60.5608 117.706 60.4144 117.803 60.3168 118.047C60.268 118.194 60.3168 118.34 60.4144 118.486C60.512 118.584 60.6584 118.682 60.8536 118.633C61.0488 118.584 61.1952 118.438 61.1952 118.291C61.244 118.145 61.1464 117.998 61.0976 117.901C60.9512 117.657 60.756 117.657 60.756 117.608Z" fill="#263238"/>
<path d="M61.9272 129.125C61.9272 129.076 62.1712 128.978 62.464 129.222C62.6104 129.32 62.7568 129.564 62.708 129.857C62.708 130.15 62.4152 130.394 62.1224 130.442C61.8296 130.491 61.488 130.394 61.3416 130.15C61.1952 129.906 61.244 129.662 61.2928 129.515C61.4392 129.174 61.732 129.125 61.732 129.174C61.732 129.222 61.5856 129.32 61.488 129.564C61.4392 129.71 61.488 129.857 61.5856 130.003C61.6832 130.101 61.8296 130.198 62.0248 130.15C62.22 130.101 62.3664 129.954 62.3664 129.808C62.4152 129.662 62.3176 129.515 62.2688 129.418C62.1712 129.174 61.9272 129.174 61.9272 129.125Z" fill="#263238"/>
<path d="M62.6592 140.349C62.6592 140.3 62.9032 140.202 63.196 140.446C63.3424 140.544 63.4888 140.788 63.44 141.081C63.44 141.374 63.1472 141.618 62.8544 141.666C62.5616 141.715 62.22 141.618 62.0736 141.374C61.9272 141.13 61.976 140.886 62.0248 140.739C62.1712 140.398 62.464 140.349 62.464 140.398C62.464 140.446 62.3176 140.544 62.22 140.788C62.1712 140.934 62.22 141.081 62.3176 141.227C62.4152 141.325 62.5616 141.422 62.7568 141.374C62.952 141.325 63.0984 141.178 63.0984 141.032C63.1472 140.886 63.0496 140.739 63.0008 140.642C62.9032 140.398 62.6592 140.398 62.6592 140.349Z" fill="#263238"/>
<path d="M63.44 152.598C63.44 152.549 63.684 152.451 63.9768 152.695C64.1232 152.793 64.2696 153.037 64.2208 153.33C64.2208 153.622 63.928 153.866 63.6352 153.915C63.3424 153.964 63.0008 153.866 62.8544 153.622C62.708 153.378 62.7568 153.134 62.8056 152.988C62.952 152.646 63.2448 152.598 63.2448 152.646C63.2448 152.695 63.0984 152.793 63.0008 153.037C62.952 153.183 63.0008 153.33 63.0984 153.476C63.196 153.574 63.3424 153.671 63.5376 153.622C63.7328 153.574 63.8792 153.427 63.8792 153.281C63.928 153.134 63.8304 152.988 63.7816 152.89C63.6352 152.646 63.44 152.646 63.44 152.598Z" fill="#263238"/>
<g opacity="0.3">
<path opacity="0.3" d="M46.1648 124.977L49.0928 159.869H44.8472L45.3352 145.473L45.4816 130.003L46.1648 124.977Z" fill="black"/>
</g>
<path d="M76.8112 156.209C76.8112 156.209 76.7624 156.111 76.7136 155.916C76.6648 155.672 76.616 155.379 76.5672 154.989C76.4208 154.208 76.2256 153.037 76.0304 151.622C75.5912 148.791 75.1032 144.838 74.5664 140.446C74.0296 136.103 73.5416 132.15 73.1024 129.271C72.9072 127.905 72.712 126.734 72.6144 125.904C72.5656 125.514 72.5168 125.221 72.468 124.977C72.4192 124.782 72.4192 124.635 72.468 124.635C72.468 124.635 72.5168 124.733 72.5656 124.928C72.6144 125.172 72.6632 125.465 72.7608 125.855C72.9072 126.636 73.1512 127.807 73.3464 129.222C73.8344 132.053 74.3712 136.006 74.908 140.398C75.4448 144.741 75.9328 148.645 76.2744 151.573C76.4696 152.988 76.616 154.11 76.7136 154.94C76.7624 155.33 76.8112 155.623 76.8112 155.867C76.8112 156.062 76.8112 156.209 76.8112 156.209Z" fill="#263238"/>
<g opacity="0.3">
<g opacity="0.3">
<path opacity="0.3" d="M73.1512 127.807C75.0056 134.2 75.64 139.861 79.1048 145.131C80.3736 147.034 82.0328 148.645 83.936 149.914C87.6936 152.305 92.232 153.086 96.6728 153.525H99.6984C99.6984 153.525 92.9152 154.11 87.4984 153.086C87.4984 153.086 79.1048 151.573 75.7864 147.718L73.1512 127.807Z" fill="black"/>
</g>
</g>
<path d="M61.5368 158.698C61.5368 158.698 61.488 158.502 61.488 158.21C61.488 157.868 61.4392 157.38 61.3904 156.794C61.3416 155.526 61.244 153.72 61.1464 151.524C60.9024 147.083 60.5608 140.983 60.024 134.2C59.4872 127.417 58.9504 121.317 58.56 116.876C58.3648 114.68 58.2184 112.923 58.1208 111.654C58.072 111.069 58.0232 110.581 58.0232 110.239C58.0232 109.898 57.9744 109.751 58.0232 109.751C58.0232 109.751 58.072 109.898 58.1208 110.239C58.1696 110.581 58.2184 111.069 58.2672 111.654C58.4136 112.923 58.6088 114.68 58.804 116.876C59.2432 121.317 59.8288 127.417 60.3656 134.2C60.9024 140.983 61.244 147.083 61.3904 151.524C61.488 153.769 61.5368 155.526 61.5368 156.794C61.5368 157.38 61.5368 157.868 61.5368 158.21C61.5368 158.502 61.5368 158.698 61.5368 158.698Z" fill="#263238"/>
<path d="M93.1104 169.922C104.403 169.922 113.558 160.964 113.558 149.914C113.558 138.863 104.403 129.906 93.1104 129.906C81.8177 129.906 72.6632 138.863 72.6632 149.914C72.6632 160.964 81.8177 169.922 93.1104 169.922Z" fill="#009092"/>
<path opacity="0.4" d="M93.1104 169.922C104.403 169.922 113.558 160.964 113.558 149.914C113.558 138.863 104.403 129.906 93.1104 129.906C81.8177 129.906 72.6632 138.863 72.6632 149.914C72.6632 160.964 81.8177 169.922 93.1104 169.922Z" fill="black"/>
<path d="M91.8416 167.823C103.134 167.823 112.289 158.865 112.289 147.815C112.289 136.765 103.134 127.807 91.8416 127.807C80.5489 127.807 71.3944 136.765 71.3944 147.815C71.3944 158.865 80.5489 167.823 91.8416 167.823Z" fill="#009092"/>
<path opacity="0.2" d="M92.5086 162.391C101.095 161.949 107.714 154.957 107.292 146.774C106.871 138.592 99.5681 132.317 90.9818 132.759C82.3954 133.202 75.7766 140.194 76.1982 148.376C76.6198 156.559 83.9222 162.834 92.5086 162.391Z" fill="white"/>
<path d="M89.1256 151.16L87.4556 148.741H87.3566H85.6124V151.16H83.6083V142.476H87.3566C88.1236 142.476 88.7875 142.604 89.3483 142.86C89.9173 143.116 90.3544 143.48 90.6596 143.952C90.9647 144.423 91.1173 144.982 91.1173 145.627C91.1173 146.272 90.9606 146.83 90.6472 147.301C90.3421 147.765 89.905 148.12 89.3359 148.368L91.2781 151.16H89.1256ZM89.0885 145.627C89.0885 145.139 88.9318 144.766 88.6184 144.51C88.305 144.245 87.8473 144.113 87.2453 144.113H85.6124V147.14H87.2453C87.8473 147.14 88.305 147.008 88.6184 146.743C88.9318 146.479 89.0885 146.106 89.0885 145.627Z" fill="#F1F1F1"/>
<path d="M96.5028 144.386C97.1213 144.386 97.6821 144.531 98.1852 144.82C98.6965 145.101 99.0965 145.503 99.3852 146.024C99.6738 146.536 99.8181 147.136 99.8181 147.822C99.8181 148.509 99.6738 149.113 99.3852 149.634C99.0965 150.147 98.6965 150.548 98.1852 150.837C97.6821 151.118 97.1213 151.259 96.5028 151.259C95.6534 151.259 94.9854 150.99 94.4988 150.453V153.566H92.569V144.485H94.4122V145.254C94.8905 144.676 95.5874 144.386 96.5028 144.386ZM96.1688 149.671C96.6636 149.671 97.0677 149.506 97.3811 149.175C97.7028 148.836 97.8636 148.385 97.8636 147.822C97.8636 147.26 97.7028 146.813 97.3811 146.483C97.0677 146.144 96.6636 145.974 96.1688 145.974C95.674 145.974 95.2658 146.144 94.9441 146.483C94.6307 146.813 94.474 147.26 94.474 147.822C94.474 148.385 94.6307 148.836 94.9441 149.175C95.2658 149.506 95.674 149.671 96.1688 149.671Z" fill="#F1F1F1"/>
<path d="M93.208 162.309C84.8144 163.09 77.2992 157.185 76.2744 149.035C76.2744 149.182 76.2744 149.328 76.3232 149.474C77.1528 157.868 84.7656 163.968 93.3056 163.138C101.846 162.309 108.141 154.891 107.311 146.498C107.311 146.351 107.262 146.205 107.262 146.058C107.799 154.306 101.602 161.528 93.208 162.309Z" fill="#FAFAFA"/>
<path opacity="0.3" d="M90.28 132.882C98.6736 132.102 106.189 138.006 107.214 146.156C107.214 146.01 107.214 145.863 107.165 145.717C106.335 137.323 98.7224 131.223 90.1824 132.053C81.6424 132.882 75.3472 140.3 76.1768 148.694C76.1768 148.84 76.2256 148.986 76.2256 149.133C75.6888 140.886 81.8864 133.663 90.28 132.882Z" fill="black"/>
<path d="M110.337 139.178C110.337 139.178 110.288 139.129 110.239 139.031C110.19 138.934 110.093 138.787 109.995 138.592C109.898 138.397 109.751 138.202 109.605 137.909C109.458 137.665 109.263 137.323 109.019 136.982C108.775 136.64 108.531 136.298 108.238 135.908C107.946 135.518 107.604 135.127 107.214 134.688C106.872 134.249 106.384 133.858 105.945 133.37C105.701 133.175 105.506 132.882 105.213 132.687C104.92 132.492 104.676 132.248 104.383 132.053C103.261 131.174 101.894 130.394 100.382 129.662C99.9912 129.515 99.6008 129.369 99.2104 129.174C99.0152 129.076 98.82 129.027 98.576 128.93C98.3808 128.881 98.1368 128.783 97.9416 128.734C97.5024 128.637 97.0632 128.49 96.624 128.344C96.1848 128.246 95.6968 128.149 95.2576 128.1C94.8184 128.002 94.3304 128.002 93.8424 127.905C93.3544 127.856 92.8664 127.807 92.3784 127.807C91.8904 127.807 91.4024 127.807 90.8656 127.807C90.3776 127.856 89.8408 127.905 89.3528 127.954C87.3032 128.246 85.2536 128.783 83.2528 129.662C81.3008 130.589 79.4952 131.76 77.9824 133.126C76.4696 134.542 75.2496 136.103 74.2736 137.714C74.0296 138.153 73.8344 138.543 73.5904 138.934L73.444 139.226L73.2976 139.519C73.2 139.714 73.1024 139.958 73.0536 140.154C72.6632 140.983 72.468 141.813 72.1752 142.594C72.0288 142.984 71.98 143.423 71.8824 143.814C71.8336 144.204 71.6872 144.594 71.6872 144.985C71.6384 145.766 71.492 146.498 71.492 147.23C71.492 147.962 71.4432 148.645 71.5408 149.279C71.5896 149.914 71.6384 150.548 71.7848 151.085C71.8824 151.622 71.98 152.158 72.1264 152.646C72.2728 153.134 72.3704 153.525 72.5168 153.915C72.6144 154.306 72.7608 154.647 72.8584 154.891C72.956 155.184 73.0536 155.428 73.1512 155.623C73.2488 155.818 73.2976 155.965 73.3464 156.062C73.3952 156.16 73.3952 156.209 73.3952 156.209C73.3952 156.209 73.3464 156.16 73.2976 156.062C73.2488 155.965 73.2 155.818 73.1024 155.623C73.0048 155.428 72.9072 155.184 72.7608 154.891C72.6144 154.598 72.468 154.306 72.3704 153.915C72.224 153.525 72.1264 153.086 71.98 152.646C71.8336 152.158 71.736 151.67 71.6384 151.085C71.492 150.548 71.4432 149.914 71.3944 149.279C71.2968 148.645 71.2968 147.962 71.2968 147.23C71.248 146.498 71.3944 145.766 71.4432 144.985C71.4432 144.594 71.5896 144.204 71.6384 143.814C71.736 143.423 71.7848 142.984 71.8824 142.594C72.1264 141.764 72.3704 140.934 72.712 140.105C72.8096 139.91 72.9072 139.666 72.956 139.47L73.1024 139.129L73.2488 138.836C73.444 138.446 73.688 138.006 73.932 137.567C74.908 135.957 76.1768 134.346 77.6896 132.931C79.2512 131.565 81.0568 130.345 83.0576 129.418C85.0584 128.49 87.1568 127.954 89.2064 127.71C89.7432 127.661 90.2312 127.612 90.768 127.563C91.256 127.563 91.7928 127.563 92.2808 127.563C92.7688 127.563 93.2568 127.612 93.7448 127.661C94.2328 127.71 94.7208 127.71 95.16 127.856C95.648 127.954 96.0872 128.051 96.5264 128.149C96.9656 128.246 97.4048 128.393 97.844 128.539C98.0392 128.588 98.2832 128.686 98.4784 128.734C98.6736 128.832 98.8688 128.881 99.1128 128.978C99.5032 129.125 99.9424 129.32 100.333 129.466C101.846 130.198 103.212 131.028 104.383 131.906C104.676 132.15 104.92 132.346 105.213 132.541C105.506 132.736 105.701 132.98 105.945 133.224C106.433 133.663 106.872 134.102 107.214 134.542C107.555 134.981 107.946 135.371 108.238 135.762C108.531 136.152 108.775 136.542 108.97 136.884C109.214 137.226 109.361 137.518 109.507 137.811C109.654 138.104 109.751 138.299 109.898 138.494C109.995 138.69 110.044 138.836 110.142 138.934C110.337 139.129 110.337 139.178 110.337 139.178Z" fill="#FAFAFA"/>
<path d="M88.9624 169.482C88.9136 169.531 88.572 169.092 88.2304 168.506C87.8888 167.921 87.6936 167.433 87.7424 167.384C87.7912 167.335 88.1328 167.774 88.4744 168.36C88.7672 168.946 89.0112 169.434 88.9624 169.482Z" fill="#263238"/>
<path d="M85.5952 168.409C85.5464 168.458 85.2048 168.018 84.912 167.482C84.5704 166.945 84.3752 166.457 84.424 166.408C84.4728 166.359 84.8144 166.798 85.1072 167.335C85.4 167.921 85.644 168.409 85.5952 168.409Z" fill="#263238"/>
<path d="M82.472 166.994C82.4232 167.042 82.0816 166.603 81.7888 166.066C81.4472 165.53 81.252 165.042 81.3008 164.993C81.3496 164.944 81.6912 165.383 81.984 165.92C82.3256 166.457 82.5696 166.945 82.472 166.994Z" fill="#263238"/>
<path d="M92.476 169.873C92.4272 169.922 92.0856 169.482 91.744 168.897C91.4024 168.311 91.2072 167.823 91.256 167.774C91.3048 167.726 91.6464 168.165 91.988 168.75C92.3296 169.385 92.5736 169.873 92.476 169.873Z" fill="#263238"/>
<path d="M95.7944 169.726C95.7456 169.775 95.404 169.336 95.0624 168.75C94.7208 168.165 94.5256 167.677 94.5744 167.628C94.6232 167.579 94.9648 168.018 95.3064 168.604C95.648 169.19 95.8432 169.678 95.7944 169.726Z" fill="#263238"/>
<path d="M99.0152 169.043C98.9664 169.092 98.6248 168.653 98.2832 168.067C97.9416 167.482 97.7464 166.994 97.7952 166.945C97.844 166.896 98.1856 167.335 98.5272 167.921C98.8688 168.506 99.1128 168.994 99.0152 169.043Z" fill="#263238"/>
<path d="M101.992 167.97C101.943 168.018 101.602 167.579 101.26 166.994C100.918 166.408 100.723 165.92 100.772 165.871C100.821 165.822 101.162 166.262 101.504 166.847C101.846 167.433 102.041 167.921 101.992 167.97Z" fill="#263238"/>
<path d="M104.822 166.359C104.774 166.408 104.432 165.969 104.09 165.383C103.749 164.798 103.554 164.31 103.602 164.261C103.651 164.212 103.993 164.651 104.334 165.237C104.676 165.822 104.871 166.31 104.822 166.359Z" fill="#263238"/>
<path d="M107.311 164.358C107.262 164.407 106.921 163.968 106.579 163.382C106.238 162.797 106.042 162.309 106.091 162.26C106.14 162.211 106.482 162.65 106.823 163.236C107.116 163.822 107.36 164.31 107.311 164.358Z" fill="#263238"/>
<path d="M109.166 162.114C109.117 162.162 108.824 161.723 108.482 161.186C108.19 160.65 107.946 160.162 108.043 160.162C108.092 160.113 108.385 160.552 108.726 161.089C109.019 161.626 109.214 162.065 109.166 162.114Z" fill="#263238"/>
<path d="M110.922 159.722C110.874 159.771 110.581 159.332 110.239 158.795C109.946 158.258 109.702 157.77 109.8 157.77C109.849 157.722 110.142 158.161 110.483 158.698C110.776 159.186 110.971 159.674 110.922 159.722Z" fill="#263238"/>
<path d="M112.289 156.843C112.24 156.892 111.947 156.502 111.654 156.014C111.362 155.526 111.166 155.086 111.215 155.038C111.264 154.989 111.557 155.379 111.85 155.867C112.142 156.355 112.338 156.794 112.289 156.843Z" fill="#263238"/>
<path d="M113.167 153.72C113.118 153.769 112.826 153.378 112.533 152.89C112.24 152.402 112.045 151.963 112.142 151.914C112.191 151.866 112.484 152.256 112.777 152.744C113.07 153.232 113.216 153.671 113.167 153.72Z" fill="#263238"/>
<path d="M113.558 150.353C113.509 150.402 113.167 149.914 112.826 149.328C112.484 148.742 112.24 148.206 112.289 148.206C112.338 148.157 112.679 148.645 113.021 149.23C113.362 149.816 113.606 150.304 113.558 150.353Z" fill="#263238"/>
<path d="M113.167 145.912C113.118 145.961 112.777 145.473 112.386 144.838C111.996 144.204 111.752 143.667 111.85 143.618C111.898 143.57 112.24 144.058 112.63 144.692C112.972 145.326 113.216 145.863 113.167 145.912Z" fill="#263238"/>
<path d="M67.1488 158.698C69.3936 159.234 77.8848 160.064 79.2512 160.21C82.1304 160.503 82.1304 160.259 82.1304 159.918C82.0816 158.99 77.104 159.234 78.1288 158.551C79.1536 157.868 84.2288 158.99 84.1312 158.014C83.9848 156.794 78.812 157.087 78.3728 157.087C77.9336 157.087 77.9336 156.453 78.324 156.453C78.9096 156.502 84.912 156.746 84.8144 155.526C84.7656 154.842 83.5456 155.086 83.5456 155.086C83.5456 155.086 77.8848 155.282 77.836 154.696C77.7872 154.11 81.1056 153.866 82.228 153.866C83.3504 153.866 83.7896 153.33 83.3992 152.842C83.1064 152.5 79.6904 152.402 78.568 152.451C77.4456 152.451 74.42 152.598 75.884 151.329C77.348 150.06 77.9824 148.498 77.8848 147.962C77.7872 147.425 76.9576 147.376 76.7136 147.962C76.5184 148.401 75.9328 149.035 75.4936 149.523C75.152 149.914 74.7128 150.206 74.2248 150.45C74.0296 150.548 73.7856 150.646 73.5904 150.743C72.6632 151.182 68.8568 151.622 67.8808 151.524L67.1488 158.698Z" fill="#B78876"/>
<path d="M33.672 125.416C33.672 125.416 33.672 133.566 33.672 145.473C33.672 151.28 45.2376 156.306 51.6304 157.429L69.052 159.625L69.6376 149.523C69.6376 149.523 48.068 143.862 46.8968 142.447C45.7256 141.032 46.2624 122.488 46.2624 122.488L33.672 125.416Z" fill="#009092"/>
<path d="M44.652 141.666C44.652 141.666 44.7496 141.715 44.9448 141.764C45.14 141.813 45.384 141.959 45.7256 142.057C46.4088 142.35 47.3848 142.74 48.6536 143.228C49.6784 143.667 50.996 144.058 52.46 144.497C53.924 144.936 55.5832 145.424 57.3888 145.912C60.9512 146.937 65.148 148.108 69.6376 149.328L69.7352 149.377V149.474C69.6376 150.841 69.5888 152.305 69.4912 153.769C69.3936 155.77 69.2472 157.722 69.1496 159.625V159.722H69.052C62.0248 159.576 55.9248 158.502 51.6792 157.429C49.532 156.892 47.8728 156.404 46.7016 156.062C46.116 155.867 45.6768 155.721 45.384 155.623C45.2376 155.574 45.14 155.526 45.0424 155.526C44.9448 155.477 44.9448 155.477 44.9448 155.477C44.9448 155.477 44.9936 155.477 45.0424 155.526C45.14 155.574 45.2376 155.574 45.384 155.623C45.7256 155.721 46.1648 155.867 46.7016 156.014C47.8728 156.355 49.5808 156.794 51.6792 157.331C55.9248 158.356 62.0248 159.381 69.052 159.527L68.9056 159.625C69.0032 157.722 69.1008 155.77 69.2472 153.769C69.3448 152.305 69.3936 150.841 69.4912 149.474L69.5888 149.621C65.0992 148.352 60.9512 147.181 57.34 146.156C55.5344 145.619 53.924 145.131 52.4112 144.692C50.9472 144.204 49.6296 143.814 48.556 143.374C47.336 142.838 46.3112 142.447 45.628 142.154C45.2864 142.008 45.0424 141.91 44.8472 141.813C44.7496 141.715 44.652 141.715 44.652 141.666Z" fill="#263238"/>
<path d="M47.2872 142.935C47.2384 142.984 46.6528 142.301 46.0672 141.374C45.4328 140.495 44.9936 139.714 45.0424 139.666C45.0912 139.617 45.6768 140.3 46.2624 141.227C46.8968 142.154 47.3848 142.886 47.2872 142.935Z" fill="#263238"/>
<g opacity="0.3">
<path opacity="0.3" d="M50.6544 109.166C50.6544 109.166 54.6072 113.216 55.144 112.63C55.6808 112.045 55.9248 108.141 57.5352 108.922C57.5352 108.922 57.1448 108.287 56.5592 108.19C55.9248 108.141 54.9488 108.043 54.4608 110.288C54.4608 110.288 54.4608 110.971 53.924 110.776C53.436 110.581 50.6544 109.166 50.6544 109.166Z" fill="black"/>
</g>
<g opacity="0.3">
<path opacity="0.3" d="M58.56 108.629C58.56 108.629 59.3896 108.629 59.5848 109.507C59.78 110.386 59.8288 112.728 59.8288 112.728L63.3424 109.263L61.0488 110.874C61.0488 110.874 60.756 108.141 59.048 107.799L58.56 108.629Z" fill="black"/>
</g>
<path d="M69.2472 156.062C69.2472 156.062 69.1984 156.062 69.1008 156.062C68.9544 156.062 68.808 156.014 68.6128 155.965C68.1736 155.867 67.5392 155.77 66.7584 155.623C65.148 155.33 62.8056 154.891 59.9264 154.354C57.0472 153.818 53.5824 153.183 49.776 152.451C48.8 152.256 47.824 152.061 46.848 151.866C46.36 151.768 45.8232 151.67 45.3352 151.573C45.0912 151.524 44.8472 151.475 44.5544 151.378C44.3104 151.28 44.0664 151.231 43.7736 151.134C42.7976 150.743 41.8216 150.158 41.0408 149.328C40.26 148.547 39.6256 147.571 39.1864 146.546C38.796 145.473 38.552 144.35 38.6008 143.277C38.6008 142.203 38.6008 141.13 38.6008 140.056C38.6008 137.958 38.6008 135.908 38.6008 133.956C38.6008 130.052 38.6008 126.587 38.6496 123.61C38.6496 120.682 38.6984 118.291 38.6984 116.632C38.6984 115.802 38.6984 115.168 38.6984 114.729C38.6984 114.534 38.6984 114.338 38.6984 114.241C38.6984 114.143 38.6984 114.094 38.6984 114.094C38.6984 114.094 38.6984 114.143 38.6984 114.241C38.6984 114.387 38.6984 114.534 38.6984 114.729C38.6984 115.168 38.6984 115.802 38.6984 116.632C38.6984 118.291 38.6984 120.682 38.7472 123.61C38.7472 126.538 38.7472 130.052 38.796 133.956C38.796 135.908 38.796 137.958 38.796 140.056C38.796 141.13 38.796 142.203 38.796 143.277C38.796 144.35 38.9912 145.424 39.3816 146.498C39.772 147.522 40.4064 148.45 41.1384 149.23C41.9192 150.011 42.7976 150.597 43.7736 150.938C44.0176 151.036 44.2616 151.085 44.5056 151.182C44.7496 151.231 44.9936 151.329 45.2376 151.378C45.7256 151.475 46.2624 151.573 46.7504 151.719C47.7264 151.914 48.7024 152.11 49.6784 152.305C53.4848 153.037 56.9008 153.72 59.8288 154.306C62.708 154.842 65.0504 155.33 66.6608 155.623C67.4416 155.77 68.076 155.916 68.5152 156.014C68.7104 156.062 68.8568 156.111 69.0032 156.111C69.1984 156.014 69.2472 156.062 69.2472 156.062Z" fill="#FAFAFA"/>
<path d="M54.4608 144.838C54.4608 144.838 54.412 144.692 54.412 144.448C54.3632 144.155 54.3632 143.814 54.2656 143.374C54.168 142.398 54.0216 141.032 53.8752 139.373C53.5336 135.957 53.0944 131.272 52.6552 126.148C52.4112 123.562 52.216 121.073 51.972 118.877C51.728 116.681 51.1424 114.68 50.1176 113.314C49.1416 111.947 47.8728 111.215 46.9944 110.922C46.116 110.63 45.5304 110.727 45.5304 110.678C45.5304 110.678 45.6768 110.678 45.9208 110.678C46.1648 110.678 46.5552 110.727 46.9944 110.874C47.9216 111.118 49.1904 111.85 50.2152 113.265C51.2888 114.631 51.8744 116.681 52.1184 118.926C52.3624 121.17 52.5576 123.61 52.8016 126.197C53.2408 131.37 53.68 136.006 53.9728 139.422C54.1192 141.081 54.2168 142.447 54.3144 143.423C54.3632 143.862 54.3632 144.253 54.412 144.497C54.4608 144.741 54.4608 144.838 54.4608 144.838Z" fill="#FAFAFA"/>
<path d="M70.3696 151.67C70.3696 151.67 70.3696 151.524 70.3208 151.231C70.3208 150.938 70.272 150.548 70.2232 150.011C70.1744 148.938 70.0768 147.425 69.9304 145.57C69.6864 141.813 69.296 136.64 68.7104 130.93C68.1248 125.221 67.4904 120.048 67.0024 116.339C66.7584 114.485 66.5632 112.972 66.4168 111.947C66.368 111.459 66.3192 111.02 66.2704 110.727C66.2216 110.434 66.2216 110.288 66.2216 110.288C66.2216 110.288 66.2704 110.434 66.3192 110.678C66.368 110.971 66.4168 111.362 66.5144 111.85C66.7096 112.874 66.9048 114.387 67.1976 116.242C67.7344 119.95 68.4176 125.123 69.0032 130.833C69.5888 136.542 69.9304 141.715 70.1256 145.473C70.2232 147.376 70.272 148.889 70.3208 149.914C70.3208 150.402 70.3696 150.841 70.3696 151.134C70.3696 151.524 70.3696 151.67 70.3696 151.67Z" fill="#FAFAFA"/>
<path d="M77.9336 132.687C77.9336 132.687 77.8848 132.394 77.7872 131.906C77.6896 131.37 77.592 130.638 77.4456 129.759C77.1528 127.954 76.7624 125.465 76.2744 122.781C75.7864 120.048 75.2984 117.608 74.908 115.802C74.7128 114.924 74.5664 114.241 74.4688 113.704C74.3712 113.216 74.3224 112.923 74.3224 112.923C74.3224 112.923 74.42 113.167 74.5664 113.704C74.7128 114.192 74.8592 114.924 75.1032 115.802C75.4936 117.559 76.0304 120.048 76.5184 122.781C77.0064 125.514 77.348 128.002 77.592 129.808C77.6896 130.686 77.7872 131.418 77.836 131.955C77.9336 132.443 77.9336 132.687 77.9336 132.687Z" fill="#FAFAFA"/>
<path d="M80.2272 120.78C80.2272 120.78 80.1784 120.78 80.1296 120.78C80.032 120.78 79.9344 120.78 79.788 120.78C79.4464 120.78 79.0072 120.78 78.4216 120.731C77.2504 120.682 75.5424 120.682 73.4928 120.634C69.3448 120.536 63.5864 120.487 57.1936 120.536C50.8496 120.585 45.0912 120.731 40.8944 120.878C38.8448 120.975 37.1368 121.024 35.9656 121.073C35.38 121.073 34.9408 121.122 34.5992 121.122C34.4528 121.122 34.3552 121.122 34.2576 121.122C34.16 121.122 34.16 121.122 34.16 121.122C34.16 121.122 34.2088 121.122 34.2576 121.122C34.3552 121.122 34.4528 121.122 34.5992 121.073C34.9408 121.073 35.38 121.024 35.9168 120.975C37.088 120.878 38.7472 120.829 40.8456 120.731C44.9936 120.536 50.752 120.341 57.1448 120.292C63.4888 120.243 69.296 120.341 73.444 120.487C75.5424 120.536 77.2016 120.634 78.3728 120.682C78.9584 120.731 79.3976 120.731 79.6904 120.731C79.8368 120.731 79.9344 120.731 80.032 120.78C80.1784 120.78 80.2272 120.78 80.2272 120.78Z" fill="#FAFAFA"/>
<path d="M54.7047 109.458C54.6559 109.507 53.7287 108.97 52.6551 108.287C51.5815 107.604 50.7031 106.97 50.7519 106.921C50.8007 106.872 51.7279 107.409 52.8015 108.092C53.8751 108.775 54.7047 109.41 54.7047 109.458Z" fill="#FAFAFA"/>
<path d="M63.6352 106.921C63.684 106.97 63.0496 107.555 62.2688 108.238C61.8784 108.58 61.488 108.873 61.1952 109.019C61.0488 109.117 60.9512 109.166 60.8536 109.214C60.8048 109.214 60.756 109.263 60.756 109.263C60.7072 109.263 60.7072 109.214 60.7072 109.214C60.6584 109.214 61.2928 108.629 62.1224 107.994C62.9032 107.36 63.5864 106.872 63.6352 106.921Z" fill="#FAFAFA"/>
<path d="M45.9696 138.055C45.9696 138.104 43.3344 138.299 40.0648 138.494C36.7952 138.69 34.16 138.738 34.16 138.69C34.16 138.641 36.7952 138.446 40.0648 138.25C43.2856 138.055 45.9696 138.006 45.9696 138.055Z" fill="#FAFAFA"/>
<path d="M73.1024 139.519C73.1024 139.568 67.1976 139.861 59.9752 140.056C52.704 140.3 46.7992 140.446 46.7992 140.349C46.7992 140.3 52.704 140.007 59.9264 139.812C67.1976 139.568 73.1024 139.422 73.1024 139.519Z" fill="#FAFAFA"/>
<path d="M45.872 155.33C45.8232 155.33 46.116 154.696 46.5552 153.72C46.9944 152.744 47.5312 151.378 48.1168 149.865C48.6536 148.352 49.1416 146.937 49.4344 145.912C49.7272 144.887 49.9224 144.253 49.9712 144.253C49.9712 144.253 49.9712 144.399 49.9224 144.692C49.8736 144.985 49.776 145.424 49.6296 145.912C49.3856 146.937 48.9464 148.352 48.4096 149.914C47.824 151.426 47.2384 152.793 46.7992 153.769C46.5552 154.257 46.36 154.647 46.2136 154.891C45.9696 155.184 45.872 155.33 45.872 155.33Z" fill="#FAFAFA"/>
<path d="M60.5607 158.893C60.5119 158.893 60.5119 158.258 60.6095 157.282C60.6583 156.258 60.8047 154.891 61.0487 153.378C61.2927 151.866 61.5855 150.499 61.8295 149.523C62.0735 148.547 62.2687 147.962 62.3175 147.962C62.3663 147.962 62.2199 148.596 62.0247 149.572C61.8295 150.548 61.5367 151.914 61.2927 153.427C61.0487 154.94 60.8535 156.306 60.7559 157.331C60.6583 158.258 60.5607 158.893 60.5607 158.893Z" fill="#FAFAFA"/>
<path d="M46.1648 127.319C46.1648 127.319 46.116 127.075 46.0672 126.636C46.0184 126.197 45.9696 125.514 45.9208 124.684C45.872 123.854 45.872 122.878 45.8232 121.805C45.7744 120.731 45.5792 119.56 45.2376 118.389C44.8472 117.218 44.3104 116.144 43.5784 115.412C42.8464 114.631 41.968 114.192 41.1872 113.948C40.4064 113.704 39.772 113.704 39.284 113.753C38.8448 113.802 38.6008 113.899 38.6008 113.899C38.6008 113.899 38.6496 113.85 38.7472 113.802C38.8448 113.753 39.04 113.704 39.2352 113.655C39.6744 113.558 40.3576 113.558 41.1872 113.753C41.968 113.997 42.8952 114.436 43.676 115.217C44.4568 115.998 45.0424 117.071 45.4328 118.291C45.8232 119.511 45.9696 120.682 46.0184 121.805C46.0672 122.878 46.0672 123.854 46.0672 124.684C46.0672 125.514 46.116 126.148 46.116 126.636C46.1648 127.075 46.1648 127.319 46.1648 127.319Z" fill="#263238"/>
<g clip-path="url(#clip0_17418_29770)">
<path d="M99.2058 45.3228C98.3148 45.3738 97.9518 45.0679 97.8858 44.1673C97.6878 41.4825 97.5228 38.8147 97.3413 36.1298C97.3083 35.722 97.2753 35.3142 97.2587 34.9064C97.2422 34.1927 97.7538 33.7509 98.4303 33.8359C99.1068 33.9378 99.7833 34.0398 100.46 34.1417C102.72 28.874 106.35 25.0337 111.532 22.8587C115.789 21.0745 120.161 20.8366 124.567 22.145C129.517 23.6063 133.378 26.631 136.101 31.134C138.807 35.6371 139.632 40.5309 138.807 45.7986C139.302 45.7306 139.764 45.6627 140.209 45.6117C140.985 45.5267 141.463 45.9855 141.414 46.7162C141.381 47.175 141.084 47.5149 140.556 47.5998C139.83 47.7188 139.087 47.8377 138.345 47.8717C135.771 48.0076 133.197 48.1776 130.623 48.1946C128.18 48.2115 125.755 48.0076 123.329 47.6508C120.194 47.209 117.125 46.4953 114.172 45.3398C110.905 44.0654 107.918 42.2981 105.377 39.7832C104.766 39.1885 104.733 38.3899 105.426 37.8971C105.74 37.6762 106.02 37.4043 106.367 37.0814C103.974 36.7246 101.648 36.3677 99.2553 36.0109C99.3873 38.067 99.5193 40.0721 99.6513 42.1792C99.9648 41.9073 100.212 41.6694 100.493 41.4485C100.922 41.0747 101.466 41.0747 101.879 41.4655C106.136 45.4248 110.971 48.4664 116.251 50.7604C119.468 52.1538 122.785 53.1904 126.217 53.8191C130.144 54.5498 134.088 54.7197 138.064 54.3289C138.741 54.2609 139.417 54.1419 140.11 54.057C140.787 53.955 141.298 54.2779 141.397 54.8726C141.513 55.4844 141.117 55.9601 140.407 56.0791C138.18 56.4189 135.936 56.5719 133.675 56.5889C133.494 56.5889 133.279 56.6738 133.147 56.8098C130.342 59.6135 127.042 61.4997 123.214 62.2984C116.993 63.5898 111.334 62.1964 106.383 58.1012C102.555 54.9236 100.212 50.7774 99.2883 45.7986C99.2883 45.6287 99.2388 45.4757 99.2058 45.3228ZM126.118 41.0237C126.052 38.6278 125.837 36.2828 125.392 33.9378C121.151 34.7535 116.927 34.7535 112.687 33.9378C112.241 36.2828 112.01 38.6278 111.994 41.0237C116.713 41.0237 121.382 41.0237 126.118 41.0237ZM124.963 31.9497C124.484 30.1825 123.956 28.5002 123.098 26.9539C122.554 25.9513 121.96 24.9997 121.085 24.2521C120.095 23.4364 119.023 23.0796 117.851 23.7083C117.29 24.0142 116.779 24.456 116.35 24.9318C115.03 26.4441 114.287 28.2793 113.66 30.1825C113.462 30.7432 113.314 31.321 113.116 31.9497C117.092 32.6804 121.003 32.6974 124.963 31.9497ZM133.543 30.8282C131.596 32.0516 129.501 32.8843 127.421 33.445C127.685 36.0109 127.933 38.4918 128.18 41.0067C131.118 41.0067 134.121 41.0067 137.157 41.0067C136.926 37.2344 135.738 33.8698 133.543 30.8282ZM113.165 52.1878C113.611 54.006 114.221 55.7392 115.112 57.3535C115.673 58.3901 116.333 59.3587 117.307 60.0723C118.412 60.888 119.567 60.956 120.673 60.1573C121.168 59.8005 121.613 59.3417 122.009 58.8659C122.818 57.8633 123.412 56.7248 123.89 55.5183C123.775 55.4674 123.676 55.4334 123.593 55.3994C120.425 54.6857 117.373 53.5812 114.403 52.2218C113.957 52.0009 113.594 52.0349 113.165 52.1878ZM104.601 53.2243C106.548 52.0689 108.611 51.2022 110.806 50.6075C110.773 50.4885 110.773 50.3866 110.723 50.3696C107.34 48.4324 104.123 46.2234 101.186 43.5726C100.509 44.796 102.869 51.3722 104.601 53.2243ZM102.473 34.3626C102.638 34.4306 102.704 34.4646 102.786 34.4816C103.826 34.6345 104.865 34.7704 105.921 34.9234C106.911 35.0593 107.902 35.1953 108.892 35.3652C109.337 35.4332 109.651 35.705 109.766 36.1638C109.882 36.6056 109.717 36.9625 109.37 37.2514C108.974 37.5742 108.578 37.9141 108.199 38.2369C107.935 38.4578 107.687 38.6787 107.39 38.9506C108.281 39.6473 109.123 40.293 109.948 40.9217C110.212 38.3899 110.459 35.9429 110.707 33.462C108.578 32.8673 106.499 32.0516 104.502 30.8112C103.809 32.0177 103.149 33.1731 102.473 34.3626ZM105.872 54.8216C108.281 57.3875 111.103 59.1547 114.452 60.0214C112.835 57.8123 111.961 55.2465 111.235 52.5956C109.354 53.1054 107.588 53.8021 105.872 54.8216ZM132.207 29.2819C130.705 27.2088 125.441 24.0312 123.643 24.0821C125.243 26.2912 126.167 28.8231 126.877 31.4739C128.758 30.9981 130.524 30.2844 132.207 29.2819ZM105.872 29.2649C107.604 30.2844 109.354 31.0151 111.235 31.4909C111.961 28.857 112.852 26.3082 114.518 24.0142C111.103 24.9827 108.281 26.733 105.872 29.2649ZM128.098 43.0798C128.048 44.0824 128.015 45.0509 127.966 46.0195C128.065 46.0365 128.114 46.0535 128.164 46.0535C130.392 46.0705 132.603 46.1045 134.83 46.1045C135.391 46.1045 135.952 46.0365 136.513 45.9855C136.612 45.9685 136.777 45.8836 136.794 45.8156C136.942 44.915 137.074 44.0144 137.206 43.0798C134.121 43.0798 131.134 43.0798 128.098 43.0798ZM114.238 43.0798C117.983 44.7111 121.91 45.5267 125.986 45.8836C126.035 44.915 126.085 43.9974 126.118 43.0798C122.125 43.0798 118.181 43.0798 114.238 43.0798ZM130.491 56.5039C129.105 56.317 127.784 56.1301 126.464 55.9601C125.854 55.8752 125.854 55.8752 125.606 56.4869C125.557 56.6229 125.507 56.7418 125.441 56.8777C124.864 57.9483 124.286 59.0358 123.725 60.0723C126.184 59.4096 128.445 58.2202 130.491 56.5039Z" fill="#FF713C"/>
<path d="M126.118 41.023C121.382 41.023 116.713 41.023 111.977 41.023C112.01 38.6271 112.241 36.2821 112.67 33.9371C116.927 34.7528 121.135 34.7528 125.375 33.9371C125.837 36.2821 126.068 38.6101 126.118 41.023Z" fill="#F1F1F1"/>
<path d="M124.963 31.949C121.003 32.6797 117.092 32.6627 113.116 31.949C113.297 31.3373 113.462 30.7595 113.66 30.1818C114.287 28.2956 115.03 26.4434 116.35 24.9311C116.779 24.4553 117.29 24.0135 117.851 23.7076C119.023 23.0789 120.095 23.4188 121.085 24.2514C121.96 24.9821 122.554 25.9507 123.098 26.9532C123.956 28.5165 124.484 30.1818 124.963 31.949Z" fill="#F1F1F1"/>
<path d="M133.543 30.8275C135.738 33.8692 136.926 37.2337 137.157 41.0061C134.121 41.0061 131.118 41.0061 128.18 41.0061C127.933 38.5081 127.669 36.0102 127.421 33.4444C129.5 32.8836 131.596 32.051 133.543 30.8275Z" fill="#F1F1F1"/>
<path d="M113.165 52.1872C113.594 52.0512 113.957 52.0002 114.403 52.2041C117.373 53.5635 120.409 54.6681 123.593 55.3817C123.692 55.3987 123.775 55.4497 123.89 55.5007C123.428 56.7242 122.834 57.8627 122.009 58.8482C121.613 59.324 121.168 59.7828 120.673 60.1397C119.567 60.9383 118.412 60.8703 117.307 60.0547C116.333 59.341 115.69 58.3724 115.112 57.3359C114.238 55.7216 113.611 53.9884 113.165 52.1872Z" fill="#F1F1F1"/>
<path d="M104.601 53.2237C102.869 51.3715 100.509 44.7954 101.186 43.5719C104.123 46.2058 107.341 48.4148 110.723 50.3689C110.773 50.3859 110.773 50.4879 110.806 50.6068C108.611 51.2016 106.532 52.0512 104.601 53.2237Z" fill="#F1F1F1"/>
<path d="M102.473 34.362C103.149 33.1725 103.809 32 104.502 30.7935C106.499 32.051 108.578 32.8666 110.69 33.4614C110.443 35.9423 110.195 38.3892 109.931 40.9211C109.106 40.2754 108.265 39.6297 107.374 38.95C107.687 38.6781 107.935 38.4402 108.182 38.2363C108.578 37.8964 108.958 37.5736 109.354 37.2507C109.7 36.9618 109.849 36.605 109.75 36.1632C109.634 35.7214 109.321 35.4495 108.875 35.3645C107.885 35.2116 106.895 35.0757 105.905 34.9227C104.865 34.7698 103.826 34.6339 102.77 34.4809C102.72 34.4809 102.638 34.4299 102.473 34.362Z" fill="#F1F1F1"/>
<path d="M105.872 54.821C107.588 53.7844 109.353 53.1047 111.235 52.595C111.961 55.2628 112.819 57.8117 114.452 60.0207C111.103 59.1541 108.281 57.4038 105.872 54.821Z" fill="#F1F1F1"/>
<path d="M132.207 29.2812C130.524 30.2838 128.758 30.9804 126.877 31.4902C126.167 28.8224 125.26 26.2905 123.643 24.0985C125.441 24.0305 130.705 27.2251 132.207 29.2812Z" fill="#F1F1F1"/>
<path d="M105.872 29.2642C108.281 26.7153 111.103 24.9651 114.535 23.9965C112.868 26.3075 111.977 28.8394 111.251 31.4732C109.337 31.0144 107.588 30.2837 105.872 29.2642Z" fill="#F1F1F1"/>
<path d="M128.098 43.0791C131.118 43.0791 134.104 43.0791 137.206 43.0791C137.074 44.0137 136.942 44.9143 136.794 45.8149C136.777 45.8829 136.612 45.9849 136.513 45.9849C135.952 46.0358 135.391 46.1038 134.83 46.1038C132.603 46.1038 130.392 46.0698 128.164 46.0528C128.114 46.0528 128.065 46.0358 127.966 46.0188C128.015 45.0503 128.065 44.0987 128.098 43.0791Z" fill="#F1F1F1"/>
<path d="M114.238 43.0791C118.181 43.0791 122.125 43.0791 126.134 43.0791C126.085 44.0137 126.052 44.9143 126.002 45.8829C121.927 45.5261 117.983 44.7274 114.238 43.0791Z" fill="#F1F1F1"/>
<path d="M130.491 56.5032C128.428 58.2195 126.167 59.409 123.725 60.0717C124.286 59.0181 124.864 57.9476 125.441 56.8771C125.507 56.7581 125.557 56.6222 125.606 56.4862C125.854 55.8915 125.854 55.8745 126.464 55.9595C127.801 56.1464 129.121 56.3163 130.491 56.5032Z" fill="#F1F1F1"/>
</g>
<path d="M137.874 60.7546C142.771 60.7546 146.741 56.873 146.741 52.0846C146.741 47.2962 142.771 43.4145 137.874 43.4145C132.977 43.4145 129.007 47.2962 129.007 52.0846C129.007 56.873 132.977 60.7546 137.874 60.7546Z" fill="#FF713C" stroke="#F1F1F1" stroke-width="1.7878" stroke-linecap="round"/>
<path d="M136.903 54.7377L135.884 53.2657H135.824H134.759V54.7377H133.536V49.4535H135.824C136.292 49.4535 136.697 49.5315 137.039 49.6876C137.386 49.8436 137.653 50.065 137.839 50.3519C138.025 50.6387 138.118 50.9784 138.118 51.3709C138.118 51.7635 138.023 52.1032 137.832 52.39C137.645 52.6719 137.379 52.8883 137.031 53.0392L138.217 54.7377H136.903ZM136.88 51.3709C136.88 51.074 136.785 50.8476 136.594 50.6915C136.402 50.5305 136.123 50.45 135.756 50.45H134.759V52.2919H135.756C136.123 52.2919 136.402 52.2114 136.594 52.0503C136.785 51.8893 136.88 51.6628 136.88 51.3709Z" fill="#F1F1F1"/>
<path d="M141.405 50.6161C141.782 50.6161 142.125 50.7041 142.432 50.8803C142.744 51.0514 142.988 51.2955 143.164 51.6125C143.34 51.9245 143.428 52.2894 143.428 52.7071C143.428 53.1248 143.34 53.4922 143.164 53.8092C142.988 54.1212 142.744 54.3653 142.432 54.5415C142.125 54.7126 141.782 54.7981 141.405 54.7981C140.887 54.7981 140.479 54.6346 140.182 54.3074V56.2022H139.004V50.6765H140.129V51.1445C140.421 50.7922 140.846 50.6161 141.405 50.6161ZM141.201 53.8319C141.503 53.8319 141.75 53.7312 141.941 53.5299C142.137 53.3236 142.235 53.0493 142.235 52.7071C142.235 52.3649 142.137 52.0931 141.941 51.8918C141.75 51.6855 141.503 51.5823 141.201 51.5823C140.899 51.5823 140.65 51.6855 140.454 51.8918C140.262 52.0931 140.167 52.3649 140.167 52.7071C140.167 53.0493 140.262 53.3236 140.454 53.5299C140.65 53.7312 140.899 53.8319 141.201 53.8319Z" fill="#F1F1F1"/>
<defs>
<clipPath id="clip0_17418_29770">
<rect width="44.1716" height="41.4108" fill="white" transform="translate(97.2587 21.3287)"/>
</clipPath>
</defs>
</svg>
