<svg width="17" height="17" viewBox="0 0 17 17" fill="none" xmlns="http://www.w3.org/2000/svg">
<path d="M14.5205 8.00485V4.98736C14.5205 2.13278 13.8547 1.41736 11.1772 1.41736H5.82215C3.14465 1.41736 2.47882 2.13278 2.47882 4.98736V12.9632C2.47882 14.8474 3.513 15.2936 4.76675 13.9478L4.77381 13.9407C5.35465 13.3244 6.24006 13.374 6.74298 14.0469L7.4584 15.0032" stroke="#22424D" stroke-width="1.5" stroke-linecap="round" stroke-linejoin="round"/>
<path d="M5.66632 4.95764H11.333" stroke="#22424D" stroke-linecap="round" stroke-linejoin="round"/>
<path d="M6.375 7.79236H10.625" stroke="#22424D" stroke-linecap="round" stroke-linejoin="round"/>
<path d="M14.8753 12.7507C14.8753 13.2819 14.7266 13.7849 14.4645 14.2099C13.9758 15.0315 13.0762 15.584 12.042 15.584C11.0078 15.584 10.1083 15.0315 9.61951 14.2099C9.35743 13.7849 9.20868 13.2819 9.20868 12.7507C9.20868 11.1853 10.4766 9.91736 12.042 9.91736C13.6074 9.91736 14.8753 11.1853 14.8753 12.7507Z" stroke="#22424D" stroke-miterlimit="10" stroke-linecap="round" stroke-linejoin="round"/>
<path d="M13.098 12.7355H11.9998" stroke="#22424D" stroke-miterlimit="10" stroke-linecap="round" stroke-linejoin="round"/>
<path d="M11.4998 11.6328L11.9398 12.6328" stroke="#22424D" stroke-miterlimit="10" stroke-linecap="round" stroke-linejoin="round"/>
</svg>
