<svg width="23" height="23" viewBox="0 0 23 23" fill="none" xmlns="http://www.w3.org/2000/svg">
<g clip-path="url(#clip0_32285_48091)">
<path d="M16.019 9.36719C16.019 9.18485 16.0915 9.00998 16.2204 8.88105C16.3493 8.75212 16.5242 8.67969 16.7065 8.67969H18.0815C18.2639 8.67969 18.4387 8.75212 18.5677 8.88105C18.6966 9.00998 18.769 9.18485 18.769 9.36719V10.7422C18.769 10.9245 18.6966 11.0994 18.5677 11.2283C18.4387 11.3573 18.2639 11.4297 18.0815 11.4297H16.7065C16.5242 11.4297 16.3493 11.3573 16.2204 11.2283C16.0915 11.0994 16.019 10.9245 16.019 10.7422V9.36719ZM11.894 9.36719C11.894 9.18485 11.9665 9.00998 12.0954 8.88105C12.2243 8.75212 12.3992 8.67969 12.5815 8.67969H13.9565C14.1389 8.67969 14.3137 8.75212 14.4427 8.88105C14.5716 9.00998 14.644 9.18485 14.644 9.36719V10.7422C14.644 10.9245 14.5716 11.0994 14.4427 11.2283C14.3137 11.3573 14.1389 11.4297 13.9565 11.4297H12.5815C12.3992 11.4297 12.2243 11.3573 12.0954 11.2283C11.9665 11.0994 11.894 10.9245 11.894 10.7422V9.36719ZM5.01904 13.4922C5.01904 13.3099 5.09148 13.135 5.22041 13.0061C5.34934 12.8771 5.52421 12.8047 5.70654 12.8047H7.08154C7.26388 12.8047 7.43875 12.8771 7.56768 13.0061C7.69661 13.135 7.76904 13.3099 7.76904 13.4922V14.8672C7.76904 15.0495 7.69661 15.2244 7.56768 15.3533C7.43875 15.4823 7.26388 15.5547 7.08154 15.5547H5.70654C5.52421 15.5547 5.34934 15.4823 5.22041 15.3533C5.09148 15.2244 5.01904 15.0495 5.01904 14.8672V13.4922ZM9.14404 13.4922C9.14404 13.3099 9.21648 13.135 9.34541 13.0061C9.47434 12.8771 9.64921 12.8047 9.83154 12.8047H11.2065C11.3889 12.8047 11.5637 12.8771 11.6927 13.0061C11.8216 13.135 11.894 13.3099 11.894 13.4922V14.8672C11.894 15.0495 11.8216 15.2244 11.6927 15.3533C11.5637 15.4823 11.3889 15.5547 11.2065 15.5547H9.83154C9.64921 15.5547 9.47434 15.4823 9.34541 15.3533C9.21648 15.2244 9.14404 15.0495 9.14404 14.8672V13.4922Z" fill="#F15A23"/>
<path d="M5.70654 0.429688C5.88888 0.429688 6.06375 0.50212 6.19268 0.631052C6.32161 0.759983 6.39404 0.934851 6.39404 1.11719V1.80469H17.394V1.11719C17.394 0.934851 17.4665 0.759983 17.5954 0.631052C17.7243 0.50212 17.8992 0.429688 18.0815 0.429688C18.2639 0.429688 18.4387 0.50212 18.5677 0.631052C18.6966 0.759983 18.769 0.934851 18.769 1.11719V1.80469H20.144C20.8734 1.80469 21.5729 2.09442 22.0886 2.61014C22.6043 3.12587 22.894 3.82534 22.894 4.55469V19.6797C22.894 20.409 22.6043 21.1085 22.0886 21.6242C21.5729 22.14 20.8734 22.4297 20.144 22.4297H3.64404C2.9147 22.4297 2.21522 22.14 1.6995 21.6242C1.18377 21.1085 0.894043 20.409 0.894043 19.6797V4.55469C0.894043 3.82534 1.18377 3.12587 1.6995 2.61014C2.21522 2.09442 2.9147 1.80469 3.64404 1.80469H5.01904V1.11719C5.01904 0.934851 5.09148 0.759983 5.22041 0.631052C5.34934 0.50212 5.52421 0.429688 5.70654 0.429688ZM2.26904 5.92969V19.6797C2.26904 20.0444 2.41391 20.3941 2.67177 20.652C2.92963 20.9098 3.27937 21.0547 3.64404 21.0547H20.144C20.5087 21.0547 20.8585 20.9098 21.1163 20.652C21.3742 20.3941 21.519 20.0444 21.519 19.6797V5.92969H2.26904Z" fill="#005E6A"/>
</g>
<defs>
<clipPath id="clip0_32285_48091">
<rect width="22" height="22" fill="white" transform="translate(0.894043 0.429688)"/>
</clipPath>
</defs>
</svg>
